<?xml version="1.0" encoding="UTF-8" standalone="no"?>
<!DOCTYPE svg PUBLIC "-//W3C//DTD SVG 1.1//EN"
 "http://www.w3.org/Graphics/SVG/1.1/DTD/svg11.dtd">
<!-- Generated by graphviz version 12.1.1 (20240910.0053)
 -->
<!-- Pages: 1 -->
<svg width="160pt" height="398pt"
 viewBox="0.00 0.00 160.25 398.00" xmlns="http://www.w3.org/2000/svg" xmlns:xlink="http://www.w3.org/1999/xlink">
<g id="graph0" class="graph" transform="scale(1 1) rotate(0) translate(4 394)">
<polygon fill="white" stroke="none" points="-4,4 -4,-394 156.25,-394 156.25,4 -4,4"/>
<!-- S0 -->
<g id="node1" class="node">
<title>S0</title>
<ellipse fill="none" stroke="black" cx="27" cy="-195" rx="27" ry="18"/>
<text text-anchor="middle" x="27" y="-189.95" font-family="Times,serif" font-size="14.00">S0</text>
</g>
<!-- S0&#45;&gt;S0 -->
<g id="edge1" class="edge">
<title>S0&#45;&gt;S0</title>
<path fill="none" stroke="black" d="M51.53,-203.17C62.51,-203.95 72,-201.22 72,-195 72,-191.11 68.29,-188.59 62.83,-187.43"/>
<polygon fill="black" stroke="black" points="63.22,-183.95 53.04,-186.91 62.84,-190.94 63.22,-183.95"/>
<text text-anchor="middle" x="80.62" y="-189.95" font-family="Times,serif" font-size="14.00">0/0</text>
</g>
<!-- S1 -->
<g id="node2" class="node">
<title>S1</title>
<ellipse fill="none" stroke="black" cx="62" cy="-106.5" rx="27" ry="18"/>
<text text-anchor="middle" x="62" y="-101.45" font-family="Times,serif" font-size="14.00">S1</text>
</g>
<!-- S0&#45;&gt;S1 -->
<g id="edge2" class="edge">
<title>S0&#45;&gt;S1</title>
<path fill="none" stroke="black" d="M23.16,-177.11C21.61,-166.72 21.14,-153.37 25.75,-142.5 28.04,-137.1 31.62,-132.13 35.65,-127.73"/>
<polygon fill="black" stroke="black" points="37.82,-130.5 42.65,-121.07 33,-125.43 37.82,-130.5"/>
<text text-anchor="middle" x="34.38" y="-145.7" font-family="Times,serif" font-size="14.00">1/0</text>
</g>
<!-- S1&#45;&gt;S0 -->
<g id="edge3" class="edge">
<title>S1&#45;&gt;S0</title>
<path fill="none" stroke="black" d="M56.15,-124.32C52.55,-134.44 47.72,-147.55 43,-159 41.91,-161.65 40.73,-164.39 39.53,-167.12"/>
<polygon fill="black" stroke="black" points="36.45,-165.44 35.53,-176 42.83,-168.32 36.45,-165.44"/>
<text text-anchor="middle" x="57.71" y="-145.7" font-family="Times,serif" font-size="14.00">0/0</text>
</g>
<!-- S2 -->
<g id="node3" class="node">
<title>S2</title>
<ellipse fill="none" stroke="black" cx="90" cy="-18" rx="27" ry="18"/>
<text text-anchor="middle" x="90" y="-12.95" font-family="Times,serif" font-size="14.00">S2</text>
</g>
<!-- S1&#45;&gt;S2 -->
<g id="edge4" class="edge">
<title>S1&#45;&gt;S2</title>
<path fill="none" stroke="black" d="M67.53,-88.41C71.37,-76.56 76.56,-60.52 80.99,-46.84"/>
<polygon fill="black" stroke="black" points="84.26,-48.09 84.01,-37.49 77.6,-45.93 84.26,-48.09"/>
<text text-anchor="middle" x="87.13" y="-57.2" font-family="Times,serif" font-size="14.00">1/0</text>
</g>
<!-- S2&#45;&gt;S2 -->
<g id="edge5" class="edge">
<title>S2&#45;&gt;S2</title>
<path fill="none" stroke="black" d="M114.53,-26.17C125.51,-26.95 135,-24.22 135,-18 135,-14.11 131.29,-11.59 125.83,-10.43"/>
<polygon fill="black" stroke="black" points="126.22,-6.95 116.04,-9.91 125.84,-13.94 126.22,-6.95"/>
<text text-anchor="middle" x="143.62" y="-12.95" font-family="Times,serif" font-size="14.00">1/0</text>
</g>
<!-- S3 -->
<g id="node4" class="node">
<title>S3</title>
<ellipse fill="none" stroke="black" cx="43" cy="-372" rx="27" ry="18"/>
<text text-anchor="middle" x="43" y="-366.95" font-family="Times,serif" font-size="14.00">S3</text>
</g>
<!-- S3&#45;&gt;S0 -->
<g id="edge6" class="edge">
<title>S3&#45;&gt;S0</title>
<path fill="none" stroke="black" d="M41.08,-353.59C39.56,-339.54 37.41,-319.26 35.75,-301.5 33.32,-275.5 30.89,-245.85 29.21,-224.62"/>
<polygon fill="black" stroke="black" points="32.7,-224.39 28.43,-214.7 25.72,-224.94 32.7,-224.39"/>
<text text-anchor="middle" x="44.38" y="-278.45" font-family="Times,serif" font-size="14.00">0/0</text>
</g>
<!-- S4 -->
<g id="node5" class="node">
<title>S4</title>
<ellipse fill="none" stroke="black" cx="89" cy="-283.5" rx="27" ry="18"/>
<text text-anchor="middle" x="89" y="-278.45" font-family="Times,serif" font-size="14.00">S4</text>
</g>
<!-- S3&#45;&gt;S4 -->
<g id="edge7" class="edge">
<title>S3&#45;&gt;S4</title>
<path fill="none" stroke="black" d="M51.65,-354.73C58.23,-342.36 67.41,-325.1 75.02,-310.78"/>
<polygon fill="black" stroke="black" points="77.91,-312.8 79.52,-302.33 71.73,-309.51 77.91,-312.8"/>
<text text-anchor="middle" x="78.75" y="-322.7" font-family="Times,serif" font-size="14.00">1/1</text>
</g>
<!-- S4&#45;&gt;S0 -->
<g id="edge8" class="edge">
<title>S4&#45;&gt;S0</title>
<path fill="none" stroke="black" d="M77.92,-267.04C68.72,-254.2 55.46,-235.7 44.78,-220.8"/>
<polygon fill="black" stroke="black" points="47.75,-218.94 39.08,-212.85 42.06,-223.02 47.75,-218.94"/>
<text text-anchor="middle" x="72.18" y="-234.2" font-family="Times,serif" font-size="14.00">0/0</text>
</g>
<!-- S4&#45;&gt;S2 -->
<g id="edge9" class="edge">
<title>S4&#45;&gt;S2</title>
<path fill="none" stroke="black" d="M91.81,-265.13C93.95,-251.11 96.72,-230.84 98,-213 102.52,-149.82 99.56,-133.84 100,-70.5 100.05,-63.17 101.02,-61.26 100,-54 99.67,-51.65 99.22,-49.24 98.7,-46.84"/>
<polygon fill="black" stroke="black" points="102.14,-46.15 96.23,-37.35 95.36,-47.91 102.14,-46.15"/>
<text text-anchor="middle" x="109.17" y="-145.7" font-family="Times,serif" font-size="14.00">1/0</text>
</g>
</g>
</svg>
