<?xml version="1.0" encoding="UTF-8" standalone="no"?>
<!DOCTYPE svg PUBLIC "-//W3C//DTD SVG 1.1//EN"
 "http://www.w3.org/Graphics/SVG/1.1/DTD/svg11.dtd">
<!-- Generated by graphviz version 12.1.1 (20240910.0053)
 -->
<!-- Pages: 1 -->
<svg width="162pt" height="310pt"
 viewBox="0.00 0.00 161.62 309.50" xmlns="http://www.w3.org/2000/svg" xmlns:xlink="http://www.w3.org/1999/xlink">
<g id="graph0" class="graph" transform="scale(1 1) rotate(0) translate(4 305.5)">
<polygon fill="white" stroke="none" points="-4,4 -4,-305.5 157.62,-305.5 157.62,4 -4,4"/>
<!-- S0 -->
<g id="node1" class="node">
<title>S0</title>
<ellipse fill="none" stroke="black" cx="27.81" cy="-195" rx="27.81" ry="18"/>
<text text-anchor="middle" x="27.81" y="-189.95" font-family="Times,serif" font-size="14.00">S0/0</text>
</g>
<!-- S0&#45;&gt;S0 -->
<g id="edge2" class="edge">
<title>S0&#45;&gt;S0</title>
<path fill="none" stroke="black" d="M52.78,-203.17C63.95,-203.95 73.62,-201.22 73.62,-195 73.62,-191.01 69.65,-188.46 63.86,-187.35"/>
<polygon fill="black" stroke="black" points="64.45,-183.87 54.29,-186.9 64.12,-190.87 64.45,-183.87"/>
<text text-anchor="middle" x="76.99" y="-189.95" font-family="Times,serif" font-size="14.00">1</text>
</g>
<!-- S1 -->
<g id="node2" class="node">
<title>S1</title>
<ellipse fill="none" stroke="black" cx="36.81" cy="-106.5" rx="27.81" ry="18"/>
<text text-anchor="middle" x="36.81" y="-101.45" font-family="Times,serif" font-size="14.00">S1/0</text>
</g>
<!-- S0&#45;&gt;S1 -->
<g id="edge1" class="edge">
<title>S0&#45;&gt;S1</title>
<path fill="none" stroke="black" d="M29.59,-176.91C30.8,-165.26 32.43,-149.55 33.84,-136.02"/>
<polygon fill="black" stroke="black" points="37.29,-136.66 34.85,-126.36 30.33,-135.94 37.29,-136.66"/>
<text text-anchor="middle" x="36.49" y="-145.7" font-family="Times,serif" font-size="14.00">0</text>
</g>
<!-- S1&#45;&gt;S1 -->
<g id="edge3" class="edge">
<title>S1&#45;&gt;S1</title>
<path fill="none" stroke="black" d="M61.78,-114.67C72.95,-115.45 82.62,-112.72 82.62,-106.5 82.62,-102.51 78.65,-99.96 72.86,-98.85"/>
<polygon fill="black" stroke="black" points="73.45,-95.37 63.29,-98.4 73.12,-102.37 73.45,-95.37"/>
<text text-anchor="middle" x="85.99" y="-101.45" font-family="Times,serif" font-size="14.00">0</text>
</g>
<!-- S2 -->
<g id="node3" class="node">
<title>S2</title>
<ellipse fill="none" stroke="black" cx="66.81" cy="-18" rx="27.81" ry="18"/>
<text text-anchor="middle" x="66.81" y="-12.95" font-family="Times,serif" font-size="14.00">S2/0</text>
</g>
<!-- S1&#45;&gt;S2 -->
<g id="edge4" class="edge">
<title>S1&#45;&gt;S2</title>
<path fill="none" stroke="black" d="M35.43,-88.28C35.21,-78.02 35.98,-64.91 40.06,-54 41.47,-50.23 43.43,-46.54 45.65,-43.04"/>
<polygon fill="black" stroke="black" points="48.41,-45.19 51.49,-35.05 42.76,-41.06 48.41,-45.19"/>
<text text-anchor="middle" x="43.43" y="-57.2" font-family="Times,serif" font-size="14.00">1</text>
</g>
<!-- S2&#45;&gt;S1 -->
<g id="edge5" class="edge">
<title>S2&#45;&gt;S1</title>
<path fill="none" stroke="black" d="M60.89,-36.05C56.79,-47.89 51.22,-63.93 46.48,-77.62"/>
<polygon fill="black" stroke="black" points="43.2,-76.39 43.23,-86.98 49.81,-78.68 43.2,-76.39"/>
<text text-anchor="middle" x="57.87" y="-57.2" font-family="Times,serif" font-size="14.00">0</text>
</g>
<!-- S3 -->
<g id="node4" class="node">
<title>S3</title>
<ellipse fill="none" stroke="black" cx="76.81" cy="-283.5" rx="27.81" ry="18"/>
<text text-anchor="middle" x="76.81" y="-278.45" font-family="Times,serif" font-size="14.00">S3/0</text>
</g>
<!-- S3&#45;&gt;S0 -->
<g id="edge7" class="edge">
<title>S3&#45;&gt;S0</title>
<path fill="none" stroke="black" d="M67.59,-266.23C60.54,-253.79 50.68,-236.38 42.54,-222.01"/>
<polygon fill="black" stroke="black" points="45.7,-220.49 37.73,-213.51 39.61,-223.94 45.7,-220.49"/>
<text text-anchor="middle" x="60.07" y="-234.2" font-family="Times,serif" font-size="14.00">1</text>
</g>
<!-- S4 -->
<g id="node5" class="node">
<title>S4</title>
<ellipse fill="none" stroke="black" cx="125.81" cy="-195" rx="27.81" ry="18"/>
<text text-anchor="middle" x="125.81" y="-189.95" font-family="Times,serif" font-size="14.00">S4/1</text>
</g>
<!-- S3&#45;&gt;S4 -->
<g id="edge6" class="edge">
<title>S3&#45;&gt;S4</title>
<path fill="none" stroke="black" d="M86.02,-266.23C93.07,-253.79 102.93,-236.38 111.07,-222.01"/>
<polygon fill="black" stroke="black" points="114,-223.94 115.89,-213.51 107.91,-220.49 114,-223.94"/>
<text text-anchor="middle" x="109.07" y="-234.2" font-family="Times,serif" font-size="14.00">0</text>
</g>
<!-- S4&#45;&gt;S1 -->
<g id="edge8" class="edge">
<title>S4&#45;&gt;S1</title>
<path fill="none" stroke="black" d="M111.11,-179.72C97.15,-166.15 75.95,-145.55 59.77,-129.81"/>
<polygon fill="black" stroke="black" points="62.52,-127.61 52.91,-123.15 57.64,-132.63 62.52,-127.61"/>
<text text-anchor="middle" x="92.65" y="-145.7" font-family="Times,serif" font-size="14.00">0</text>
</g>
<!-- S4&#45;&gt;S2 -->
<g id="edge9" class="edge">
<title>S4&#45;&gt;S2</title>
<path fill="none" stroke="black" d="M122.43,-176.91C118.04,-155.8 109.62,-118.97 98.81,-88.5 93.64,-73.93 86.55,-58.24 80.36,-45.46"/>
<polygon fill="black" stroke="black" points="83.68,-44.27 76.11,-36.86 77.4,-47.37 83.68,-44.27"/>
<text text-anchor="middle" x="113.01" y="-101.45" font-family="Times,serif" font-size="14.00">1</text>
</g>
</g>
</svg>
