<?xml version="1.0" encoding="UTF-8" standalone="no"?>
<!DOCTYPE svg PUBLIC "-//W3C//DTD SVG 1.1//EN"
 "http://www.w3.org/Graphics/SVG/1.1/DTD/svg11.dtd">
<!-- Generated by graphviz version 12.1.1 (20240910.0053)
 -->
<!-- Pages: 1 -->
<svg width="208pt" height="310pt"
 viewBox="0.00 0.00 208.00 309.50" xmlns="http://www.w3.org/2000/svg" xmlns:xlink="http://www.w3.org/1999/xlink">
<g id="graph0" class="graph" transform="scale(1 1) rotate(0) translate(4 305.5)">
<polygon fill="white" stroke="none" points="-4,4 -4,-305.5 204,-305.5 204,4 -4,4"/>
<!-- S0 -->
<g id="node1" class="node">
<title>S0</title>
<ellipse fill="none" stroke="black" cx="27" cy="-18" rx="27" ry="18"/>
<text text-anchor="middle" x="27" y="-12.95" font-family="Times,serif" font-size="14.00">S0</text>
</g>
<!-- S0&#45;&gt;S0 -->
<g id="edge1" class="edge">
<title>S0&#45;&gt;S0</title>
<path fill="none" stroke="black" d="M51.53,-26.17C62.51,-26.95 72,-24.22 72,-18 72,-14.11 68.29,-11.59 62.83,-10.43"/>
<polygon fill="black" stroke="black" points="63.22,-6.95 53.04,-9.91 62.84,-13.94 63.22,-6.95"/>
<text text-anchor="middle" x="80.62" y="-12.95" font-family="Times,serif" font-size="14.00">1/0</text>
</g>
<!-- S1 -->
<g id="node2" class="node">
<title>S1</title>
<ellipse fill="none" stroke="black" cx="66" cy="-106.5" rx="27" ry="18"/>
<text text-anchor="middle" x="66" y="-101.45" font-family="Times,serif" font-size="14.00">S1</text>
</g>
<!-- S1&#45;&gt;S1 -->
<g id="edge2" class="edge">
<title>S1&#45;&gt;S1</title>
<path fill="none" stroke="black" d="M90.53,-114.67C101.51,-115.45 111,-112.72 111,-106.5 111,-102.61 107.29,-100.09 101.83,-98.93"/>
<polygon fill="black" stroke="black" points="102.22,-95.45 92.04,-98.41 101.84,-102.44 102.22,-95.45"/>
<text text-anchor="middle" x="119.62" y="-101.45" font-family="Times,serif" font-size="14.00">0/0</text>
</g>
<!-- S2 -->
<g id="node3" class="node">
<title>S2</title>
<ellipse fill="none" stroke="black" cx="60" cy="-283.5" rx="27" ry="18"/>
<text text-anchor="middle" x="60" y="-278.45" font-family="Times,serif" font-size="14.00">S2</text>
</g>
<!-- S1&#45;&gt;S2 -->
<g id="edge3" class="edge">
<title>S1&#45;&gt;S2</title>
<path fill="none" stroke="black" d="M65.41,-124.85C64.37,-154.94 62.24,-217.08 60.99,-253.72"/>
<polygon fill="black" stroke="black" points="57.49,-253.45 60.65,-263.57 64.49,-253.69 57.49,-253.45"/>
<text text-anchor="middle" x="72.22" y="-189.95" font-family="Times,serif" font-size="14.00">1/0</text>
</g>
<!-- S2&#45;&gt;S0 -->
<g id="edge5" class="edge">
<title>S2&#45;&gt;S0</title>
<path fill="none" stroke="black" d="M55.86,-265.57C49.04,-236.79 35.63,-176.41 30,-124.5 27.19,-98.61 26.58,-68.96 26.59,-47.69"/>
<polygon fill="black" stroke="black" points="30.09,-47.77 26.64,-37.75 23.09,-47.73 30.09,-47.77"/>
<text text-anchor="middle" x="43.08" y="-145.7" font-family="Times,serif" font-size="14.00">1/0</text>
</g>
<!-- S3 -->
<g id="node4" class="node">
<title>S3</title>
<ellipse fill="none" stroke="black" cx="127" cy="-195" rx="27" ry="18"/>
<text text-anchor="middle" x="127" y="-189.95" font-family="Times,serif" font-size="14.00">S3</text>
</g>
<!-- S2&#45;&gt;S3 -->
<g id="edge4" class="edge">
<title>S2&#45;&gt;S3</title>
<path fill="none" stroke="black" d="M71.98,-267.04C82.08,-254 96.7,-235.12 108.34,-220.1"/>
<polygon fill="black" stroke="black" points="110.84,-222.58 114.2,-212.53 105.31,-218.29 110.84,-222.58"/>
<text text-anchor="middle" x="108.13" y="-234.2" font-family="Times,serif" font-size="14.00">0/0</text>
</g>
<!-- S3&#45;&gt;S1 -->
<g id="edge6" class="edge">
<title>S3&#45;&gt;S1</title>
<path fill="none" stroke="black" d="M115.81,-178.13C106.78,-165.33 93.92,-147.09 83.53,-132.35"/>
<polygon fill="black" stroke="black" points="86.61,-130.66 77.99,-124.5 80.89,-134.69 86.61,-130.66"/>
<text text-anchor="middle" x="110.59" y="-145.7" font-family="Times,serif" font-size="14.00">0/0</text>
</g>
<!-- S4 -->
<g id="node5" class="node">
<title>S4</title>
<ellipse fill="none" stroke="black" cx="173" cy="-106.5" rx="27" ry="18"/>
<text text-anchor="middle" x="173" y="-101.45" font-family="Times,serif" font-size="14.00">S4</text>
</g>
<!-- S3&#45;&gt;S4 -->
<g id="edge7" class="edge">
<title>S3&#45;&gt;S4</title>
<path fill="none" stroke="black" d="M126.3,-176.86C126.56,-166.39 128.19,-153.02 133.75,-142.5 136.74,-136.85 141.03,-131.67 145.68,-127.13"/>
<polygon fill="black" stroke="black" points="147.86,-129.88 153.11,-120.68 143.27,-124.59 147.86,-129.88"/>
<text text-anchor="middle" x="142.38" y="-145.7" font-family="Times,serif" font-size="14.00">1/1</text>
</g>
<!-- S4&#45;&gt;S0 -->
<g id="edge9" class="edge">
<title>S4&#45;&gt;S0</title>
<path fill="none" stroke="black" d="M153.31,-93.83C128.38,-79.07 85.22,-53.5 56.39,-36.41"/>
<polygon fill="black" stroke="black" points="58.53,-33.61 48.15,-31.53 54.97,-39.64 58.53,-33.61"/>
<text text-anchor="middle" x="121.7" y="-57.2" font-family="Times,serif" font-size="14.00">1/0</text>
</g>
<!-- S4&#45;&gt;S3 -->
<g id="edge8" class="edge">
<title>S4&#45;&gt;S3</title>
<path fill="none" stroke="black" d="M166.87,-124.13C162.84,-134.41 157.18,-147.75 151,-159 149.19,-162.29 147.15,-165.66 145.04,-168.95"/>
<polygon fill="black" stroke="black" points="142.21,-166.89 139.52,-177.14 148.01,-170.8 142.21,-166.89"/>
<text text-anchor="middle" x="167.16" y="-145.7" font-family="Times,serif" font-size="14.00">0/0</text>
</g>
</g>
</svg>
