<?xml version="1.0" encoding="UTF-8" standalone="no"?>
<!DOCTYPE svg PUBLIC "-//W3C//DTD SVG 1.1//EN"
 "http://www.w3.org/Graphics/SVG/1.1/DTD/svg11.dtd">
<!-- Generated by graphviz version 12.1.1 (20240910.0053)
 -->
<!-- Pages: 1 -->
<svg width="88pt" height="310pt"
 viewBox="0.00 0.00 88.37 309.50" xmlns="http://www.w3.org/2000/svg" xmlns:xlink="http://www.w3.org/1999/xlink">
<g id="graph0" class="graph" transform="scale(1 1) rotate(0) translate(4 305.5)">
<polygon fill="white" stroke="none" points="-4,4 -4,-305.5 84.37,-305.5 84.37,4 -4,4"/>
<!-- S0 -->
<g id="node1" class="node">
<title>S0</title>
<ellipse fill="none" stroke="black" cx="27.81" cy="-195" rx="27.81" ry="18"/>
<text text-anchor="middle" x="27.81" y="-189.95" font-family="Times,serif" font-size="14.00">S0/0</text>
</g>
<!-- S0&#45;&gt;S0 -->
<g id="edge2" class="edge">
<title>S0&#45;&gt;S0</title>
<path fill="none" stroke="black" d="M52.78,-203.17C63.95,-203.95 73.62,-201.22 73.62,-195 73.62,-191.01 69.65,-188.46 63.86,-187.35"/>
<polygon fill="black" stroke="black" points="64.45,-183.87 54.29,-186.9 64.12,-190.87 64.45,-183.87"/>
<text text-anchor="middle" x="76.99" y="-189.95" font-family="Times,serif" font-size="14.00">1</text>
</g>
<!-- S1 -->
<g id="node2" class="node">
<title>S1</title>
<ellipse fill="none" stroke="black" cx="27.81" cy="-106.5" rx="27.81" ry="18"/>
<text text-anchor="middle" x="27.81" y="-101.45" font-family="Times,serif" font-size="14.00">S1/0</text>
</g>
<!-- S0&#45;&gt;S1 -->
<g id="edge1" class="edge">
<title>S0&#45;&gt;S1</title>
<path fill="none" stroke="black" d="M27.81,-176.91C27.81,-165.26 27.81,-149.55 27.81,-136.02"/>
<polygon fill="black" stroke="black" points="31.31,-136.36 27.81,-126.36 24.31,-136.36 31.31,-136.36"/>
<text text-anchor="middle" x="31.18" y="-145.7" font-family="Times,serif" font-size="14.00">0</text>
</g>
<!-- S1&#45;&gt;S1 -->
<g id="edge3" class="edge">
<title>S1&#45;&gt;S1</title>
<path fill="none" stroke="black" d="M52.78,-114.67C63.95,-115.45 73.62,-112.72 73.62,-106.5 73.62,-102.51 69.65,-99.96 63.86,-98.85"/>
<polygon fill="black" stroke="black" points="64.45,-95.37 54.29,-98.4 64.12,-102.37 64.45,-95.37"/>
<text text-anchor="middle" x="76.99" y="-101.45" font-family="Times,serif" font-size="14.00">0</text>
</g>
<!-- S2 -->
<g id="node3" class="node">
<title>S2</title>
<ellipse fill="none" stroke="black" cx="27.81" cy="-18" rx="27.81" ry="18"/>
<text text-anchor="middle" x="27.81" y="-12.95" font-family="Times,serif" font-size="14.00">S2/0</text>
</g>
<!-- S1&#45;&gt;S2 -->
<g id="edge4" class="edge">
<title>S1&#45;&gt;S2</title>
<path fill="none" stroke="black" d="M20.94,-88.69C18.95,-83.01 17.05,-76.57 16.06,-70.5 14.88,-63.26 14.88,-61.24 16.06,-54 16.45,-51.63 16.97,-49.2 17.59,-46.78"/>
<polygon fill="black" stroke="black" points="20.92,-47.84 20.5,-37.26 14.23,-45.8 20.92,-47.84"/>
<text text-anchor="middle" x="19.43" y="-57.2" font-family="Times,serif" font-size="14.00">1</text>
</g>
<!-- S2&#45;&gt;S1 -->
<g id="edge5" class="edge">
<title>S2&#45;&gt;S1</title>
<path fill="none" stroke="black" d="M27.81,-36.35C27.81,-48.06 27.81,-63.79 27.81,-77.28"/>
<polygon fill="black" stroke="black" points="24.31,-76.9 27.81,-86.9 31.31,-76.9 24.31,-76.9"/>
<text text-anchor="middle" x="31.18" y="-57.2" font-family="Times,serif" font-size="14.00">0</text>
</g>
<!-- S3 -->
<g id="node4" class="node">
<title>S3</title>
<ellipse fill="none" stroke="black" cx="27.81" cy="-283.5" rx="27.81" ry="18"/>
<text text-anchor="middle" x="27.81" y="-278.45" font-family="Times,serif" font-size="14.00">S3/1</text>
</g>
<!-- S3&#45;&gt;S0 -->
<g id="edge6" class="edge">
<title>S3&#45;&gt;S0</title>
<path fill="none" stroke="black" d="M20.94,-265.69C18.95,-260.01 17.05,-253.57 16.06,-247.5 14.88,-240.26 14.88,-238.24 16.06,-231 16.45,-228.63 16.97,-226.2 17.59,-223.78"/>
<polygon fill="black" stroke="black" points="20.92,-224.84 20.5,-214.26 14.23,-222.8 20.92,-224.84"/>
<text text-anchor="middle" x="19.43" y="-234.2" font-family="Times,serif" font-size="14.00">0</text>
</g>
<!-- S3&#45;&gt;S0 -->
<g id="edge7" class="edge">
<title>S3&#45;&gt;S0</title>
<path fill="none" stroke="black" d="M27.81,-265.41C27.81,-253.76 27.81,-238.05 27.81,-224.52"/>
<polygon fill="black" stroke="black" points="31.31,-224.86 27.81,-214.86 24.31,-224.86 31.31,-224.86"/>
<text text-anchor="middle" x="31.18" y="-234.2" font-family="Times,serif" font-size="14.00">1</text>
</g>
</g>
</svg>
