<?xml version="1.0" encoding="UTF-8" standalone="no"?>
<!DOCTYPE svg PUBLIC "-//W3C//DTD SVG 1.1//EN"
 "http://www.w3.org/Graphics/SVG/1.1/DTD/svg11.dtd">
<!-- Generated by graphviz version 12.1.1 (20240910.0053)
 -->
<!-- Pages: 1 -->
<svg width="202pt" height="310pt"
 viewBox="0.00 0.00 201.62 309.50" xmlns="http://www.w3.org/2000/svg" xmlns:xlink="http://www.w3.org/1999/xlink">
<g id="graph0" class="graph" transform="scale(1 1) rotate(0) translate(4 305.5)">
<polygon fill="white" stroke="none" points="-4,4 -4,-305.5 197.62,-305.5 197.62,4 -4,4"/>
<!-- S0 -->
<g id="node1" class="node">
<title>S0</title>
<ellipse fill="none" stroke="black" cx="27.81" cy="-18" rx="27.81" ry="18"/>
<text text-anchor="middle" x="27.81" y="-12.95" font-family="Times,serif" font-size="14.00">S0/0</text>
</g>
<!-- S0&#45;&gt;S0 -->
<g id="edge1" class="edge">
<title>S0&#45;&gt;S0</title>
<path fill="none" stroke="black" d="M52.78,-26.17C63.95,-26.95 73.62,-24.22 73.62,-18 73.62,-14.01 69.65,-11.46 63.86,-10.35"/>
<polygon fill="black" stroke="black" points="64.45,-6.87 54.29,-9.9 64.12,-13.87 64.45,-6.87"/>
<text text-anchor="middle" x="76.99" y="-12.95" font-family="Times,serif" font-size="14.00">0</text>
</g>
<!-- S1 -->
<g id="node2" class="node">
<title>S1</title>
<ellipse fill="none" stroke="black" cx="67.81" cy="-106.5" rx="27.81" ry="18"/>
<text text-anchor="middle" x="67.81" y="-101.45" font-family="Times,serif" font-size="14.00">S1/0</text>
</g>
<!-- S1&#45;&gt;S1 -->
<g id="edge3" class="edge">
<title>S1&#45;&gt;S1</title>
<path fill="none" stroke="black" d="M92.78,-114.67C103.95,-115.45 113.62,-112.72 113.62,-106.5 113.62,-102.51 109.65,-99.96 103.86,-98.85"/>
<polygon fill="black" stroke="black" points="104.45,-95.37 94.29,-98.4 104.12,-102.37 104.45,-95.37"/>
<text text-anchor="middle" x="116.99" y="-101.45" font-family="Times,serif" font-size="14.00">1</text>
</g>
<!-- S2 -->
<g id="node3" class="node">
<title>S2</title>
<ellipse fill="none" stroke="black" cx="67.81" cy="-283.5" rx="27.81" ry="18"/>
<text text-anchor="middle" x="67.81" y="-278.45" font-family="Times,serif" font-size="14.00">S2/0</text>
</g>
<!-- S1&#45;&gt;S2 -->
<g id="edge2" class="edge">
<title>S1&#45;&gt;S2</title>
<path fill="none" stroke="black" d="M67.81,-124.85C67.81,-154.94 67.81,-217.08 67.81,-253.72"/>
<polygon fill="black" stroke="black" points="64.31,-253.57 67.81,-263.57 71.31,-253.57 64.31,-253.57"/>
<text text-anchor="middle" x="71.18" y="-189.95" font-family="Times,serif" font-size="14.00">0</text>
</g>
<!-- S2&#45;&gt;S0 -->
<g id="edge4" class="edge">
<title>S2&#45;&gt;S0</title>
<path fill="none" stroke="black" d="M62.67,-265.64C54.21,-236.97 37.6,-176.74 30.81,-124.5 27.45,-98.68 26.9,-69.01 27.07,-47.73"/>
<polygon fill="black" stroke="black" points="30.57,-47.82 27.22,-37.77 23.57,-47.72 30.57,-47.82"/>
<text text-anchor="middle" x="39.61" y="-145.7" font-family="Times,serif" font-size="14.00">0</text>
</g>
<!-- S3 -->
<g id="node4" class="node">
<title>S3</title>
<ellipse fill="none" stroke="black" cx="127.81" cy="-195" rx="27.81" ry="18"/>
<text text-anchor="middle" x="127.81" y="-189.95" font-family="Times,serif" font-size="14.00">S3/0</text>
</g>
<!-- S2&#45;&gt;S3 -->
<g id="edge5" class="edge">
<title>S2&#45;&gt;S3</title>
<path fill="none" stroke="black" d="M78.81,-266.63C87.69,-253.83 100.35,-235.59 110.57,-220.85"/>
<polygon fill="black" stroke="black" points="113.19,-223.22 116.01,-213.01 107.44,-219.23 113.19,-223.22"/>
<text text-anchor="middle" x="106.56" y="-234.2" font-family="Times,serif" font-size="14.00">1</text>
</g>
<!-- S3&#45;&gt;S1 -->
<g id="edge7" class="edge">
<title>S3&#45;&gt;S1</title>
<path fill="none" stroke="black" d="M116.8,-178.13C107.92,-165.33 95.27,-147.09 85.05,-132.35"/>
<polygon fill="black" stroke="black" points="88.18,-130.73 79.61,-124.51 82.43,-134.72 88.18,-130.73"/>
<text text-anchor="middle" x="106.56" y="-145.7" font-family="Times,serif" font-size="14.00">1</text>
</g>
<!-- S4 -->
<g id="node5" class="node">
<title>S4</title>
<ellipse fill="none" stroke="black" cx="165.81" cy="-106.5" rx="27.81" ry="18"/>
<text text-anchor="middle" x="165.81" y="-101.45" font-family="Times,serif" font-size="14.00">S4/1</text>
</g>
<!-- S3&#45;&gt;S4 -->
<g id="edge6" class="edge">
<title>S3&#45;&gt;S4</title>
<path fill="none" stroke="black" d="M128.73,-176.64C129.8,-166.33 132.11,-153.22 137.06,-142.5 138.93,-138.44 141.39,-134.46 144.09,-130.72"/>
<polygon fill="black" stroke="black" points="146.59,-133.18 150.12,-123.19 141.13,-128.81 146.59,-133.18"/>
<text text-anchor="middle" x="140.43" y="-145.7" font-family="Times,serif" font-size="14.00">0</text>
</g>
<!-- S4&#45;&gt;S0 -->
<g id="edge8" class="edge">
<title>S4&#45;&gt;S0</title>
<path fill="none" stroke="black" d="M146.33,-93.29C123.01,-78.67 83.73,-54.05 56.83,-37.19"/>
<polygon fill="black" stroke="black" points="58.8,-34.3 48.47,-31.95 55.09,-40.23 58.8,-34.3"/>
<text text-anchor="middle" x="112.54" y="-57.2" font-family="Times,serif" font-size="14.00">0</text>
</g>
<!-- S4&#45;&gt;S3 -->
<g id="edge9" class="edge">
<title>S4&#45;&gt;S3</title>
<path fill="none" stroke="black" d="M158.5,-124.13C153.2,-136.2 145.91,-152.8 139.76,-166.8"/>
<polygon fill="black" stroke="black" points="136.56,-165.37 135.74,-175.94 142.97,-168.19 136.56,-165.37"/>
<text text-anchor="middle" x="153.59" y="-145.7" font-family="Times,serif" font-size="14.00">1</text>
</g>
</g>
</svg>
