<?xml version="1.0" encoding="UTF-8" standalone="no"?>
<!DOCTYPE svg PUBLIC "-//W3C//DTD SVG 1.1//EN"
 "http://www.w3.org/Graphics/SVG/1.1/DTD/svg11.dtd">
<!-- Generated by graphviz version 12.1.1 (20240910.0053)
 -->
<!-- Pages: 1 -->
<svg width="213pt" height="310pt"
 viewBox="0.00 0.00 213.25 309.50" xmlns="http://www.w3.org/2000/svg" xmlns:xlink="http://www.w3.org/1999/xlink">
<g id="graph0" class="graph" transform="scale(1 1) rotate(0) translate(4 305.5)">
<polygon fill="white" stroke="none" points="-4,4 -4,-305.5 209.25,-305.5 209.25,4 -4,4"/>
<!-- S0 -->
<g id="node1" class="node">
<title>S0</title>
<ellipse fill="none" stroke="black" cx="143" cy="-18" rx="27" ry="18"/>
<text text-anchor="middle" x="143" y="-12.95" font-family="Times,serif" font-size="14.00">S0</text>
</g>
<!-- S0&#45;&gt;S0 -->
<g id="edge1" class="edge">
<title>S0&#45;&gt;S0</title>
<path fill="none" stroke="black" d="M167.53,-26.17C178.51,-26.95 188,-24.22 188,-18 188,-14.11 184.29,-11.59 178.83,-10.43"/>
<polygon fill="black" stroke="black" points="179.22,-6.95 169.04,-9.91 178.84,-13.94 179.22,-6.95"/>
<text text-anchor="middle" x="196.62" y="-12.95" font-family="Times,serif" font-size="14.00">1/0</text>
</g>
<!-- S1 -->
<g id="node2" class="node">
<title>S1</title>
<ellipse fill="none" stroke="black" cx="27" cy="-195" rx="27" ry="18"/>
<text text-anchor="middle" x="27" y="-189.95" font-family="Times,serif" font-size="14.00">S1</text>
</g>
<!-- S1&#45;&gt;S1 -->
<g id="edge2" class="edge">
<title>S1&#45;&gt;S1</title>
<path fill="none" stroke="black" d="M51.53,-203.17C62.51,-203.95 72,-201.22 72,-195 72,-191.11 68.29,-188.59 62.83,-187.43"/>
<polygon fill="black" stroke="black" points="63.22,-183.95 53.04,-186.91 62.84,-190.94 63.22,-183.95"/>
<text text-anchor="middle" x="80.62" y="-189.95" font-family="Times,serif" font-size="14.00">0/0</text>
</g>
<!-- S2 -->
<g id="node3" class="node">
<title>S2</title>
<ellipse fill="none" stroke="black" cx="67" cy="-283.5" rx="27" ry="18"/>
<text text-anchor="middle" x="67" y="-278.45" font-family="Times,serif" font-size="14.00">S2</text>
</g>
<!-- S1&#45;&gt;S2 -->
<g id="edge3" class="edge">
<title>S1&#45;&gt;S2</title>
<path fill="none" stroke="black" d="M35.67,-212.26C38.71,-218.12 42.09,-224.82 45,-231 48.65,-238.77 52.41,-247.32 55.75,-255.17"/>
<polygon fill="black" stroke="black" points="52.48,-256.41 59.58,-264.27 58.93,-253.7 52.48,-256.41"/>
<text text-anchor="middle" x="60.6" y="-234.2" font-family="Times,serif" font-size="14.00">1/0</text>
</g>
<!-- S2&#45;&gt;S1 -->
<g id="edge4" class="edge">
<title>S2&#45;&gt;S1</title>
<path fill="none" stroke="black" d="M46.67,-271.62C37.91,-265.75 28.58,-257.61 23.75,-247.5 20.37,-240.41 19.68,-232.14 20.24,-224.33"/>
<polygon fill="black" stroke="black" points="23.69,-224.93 21.65,-214.53 16.77,-223.93 23.69,-224.93"/>
<text text-anchor="middle" x="32.38" y="-234.2" font-family="Times,serif" font-size="14.00">0/0</text>
</g>
<!-- S3 -->
<g id="node4" class="node">
<title>S3</title>
<ellipse fill="none" stroke="black" cx="134" cy="-195" rx="27" ry="18"/>
<text text-anchor="middle" x="134" y="-189.95" font-family="Times,serif" font-size="14.00">S3</text>
</g>
<!-- S2&#45;&gt;S3 -->
<g id="edge5" class="edge">
<title>S2&#45;&gt;S3</title>
<path fill="none" stroke="black" d="M78.98,-267.04C89.08,-254 103.7,-235.12 115.34,-220.1"/>
<polygon fill="black" stroke="black" points="117.84,-222.58 121.2,-212.53 112.31,-218.29 117.84,-222.58"/>
<text text-anchor="middle" x="115.13" y="-234.2" font-family="Times,serif" font-size="14.00">1/0</text>
</g>
<!-- S3&#45;&gt;S0 -->
<g id="edge7" class="edge">
<title>S3&#45;&gt;S0</title>
<path fill="none" stroke="black" d="M128.32,-177.15C122.04,-156.29 113.46,-119.7 118.75,-88.5 121.19,-74.08 126.3,-58.66 131.2,-46.01"/>
<polygon fill="black" stroke="black" points="134.29,-47.7 134.81,-37.12 127.81,-45.07 134.29,-47.7"/>
<text text-anchor="middle" x="127.38" y="-101.45" font-family="Times,serif" font-size="14.00">1/0</text>
</g>
<!-- S4 -->
<g id="node5" class="node">
<title>S4</title>
<ellipse fill="none" stroke="black" cx="172" cy="-106.5" rx="27" ry="18"/>
<text text-anchor="middle" x="172" y="-101.45" font-family="Times,serif" font-size="14.00">S4</text>
</g>
<!-- S3&#45;&gt;S4 -->
<g id="edge6" class="edge">
<title>S3&#45;&gt;S4</title>
<path fill="none" stroke="black" d="M141.33,-177.32C146.64,-165.24 153.93,-148.63 160.08,-134.64"/>
<polygon fill="black" stroke="black" points="163.27,-136.08 164.09,-125.51 156.86,-133.26 163.27,-136.08"/>
<text text-anchor="middle" x="165.03" y="-145.7" font-family="Times,serif" font-size="14.00">0/1</text>
</g>
<!-- S4&#45;&gt;S0 -->
<g id="edge8" class="edge">
<title>S4&#45;&gt;S0</title>
<path fill="none" stroke="black" d="M156.87,-91.21C151.69,-85.35 146.51,-78.14 143.75,-70.5 141.16,-63.33 140.21,-55.21 140.1,-47.59"/>
<polygon fill="black" stroke="black" points="143.59,-47.83 140.44,-37.71 136.6,-47.59 143.59,-47.83"/>
<text text-anchor="middle" x="152.38" y="-57.2" font-family="Times,serif" font-size="14.00">0/0</text>
</g>
<!-- S4&#45;&gt;S0 -->
<g id="edge9" class="edge">
<title>S4&#45;&gt;S0</title>
<path fill="none" stroke="black" d="M169.53,-88.49C167.77,-78.3 164.99,-65.19 161,-54 160.02,-51.24 158.86,-48.42 157.61,-45.65"/>
<polygon fill="black" stroke="black" points="160.76,-44.12 153.2,-36.69 154.48,-47.21 160.76,-44.12"/>
<text text-anchor="middle" x="174.15" y="-57.2" font-family="Times,serif" font-size="14.00">1/0</text>
</g>
</g>
</svg>
