<?xml version="1.0" encoding="UTF-8" standalone="no"?>
<!DOCTYPE svg PUBLIC "-//W3C//DTD SVG 1.1//EN"
 "http://www.w3.org/Graphics/SVG/1.1/DTD/svg11.dtd">
<!-- Generated by graphviz version 12.1.1 (20240910.0053)
 -->
<!-- Pages: 1 -->
<svg width="152pt" height="398pt"
 viewBox="0.00 0.00 152.37 398.00" xmlns="http://www.w3.org/2000/svg" xmlns:xlink="http://www.w3.org/1999/xlink">
<g id="graph0" class="graph" transform="scale(1 1) rotate(0) translate(4 394)">
<polygon fill="white" stroke="none" points="-4,4 -4,-394 148.37,-394 148.37,4 -4,4"/>
<!-- S0 -->
<g id="node1" class="node">
<title>S0</title>
<ellipse fill="none" stroke="black" cx="91.81" cy="-372" rx="27.81" ry="18"/>
<text text-anchor="middle" x="91.81" y="-366.95" font-family="Times,serif" font-size="14.00">S0/0</text>
</g>
<!-- S0&#45;&gt;S0 -->
<g id="edge1" class="edge">
<title>S0&#45;&gt;S0</title>
<path fill="none" stroke="black" d="M116.78,-380.17C127.95,-380.95 137.62,-378.22 137.62,-372 137.62,-368.01 133.65,-365.46 127.86,-364.35"/>
<polygon fill="black" stroke="black" points="128.45,-360.87 118.29,-363.9 128.12,-367.87 128.45,-360.87"/>
<text text-anchor="middle" x="140.99" y="-366.95" font-family="Times,serif" font-size="14.00">0</text>
</g>
<!-- S1 -->
<g id="node2" class="node">
<title>S1</title>
<ellipse fill="none" stroke="black" cx="27.81" cy="-283.5" rx="27.81" ry="18"/>
<text text-anchor="middle" x="27.81" y="-278.45" font-family="Times,serif" font-size="14.00">S1/0</text>
</g>
<!-- S0&#45;&gt;S1 -->
<g id="edge2" class="edge">
<title>S0&#45;&gt;S1</title>
<path fill="none" stroke="black" d="M80.37,-355.54C70.87,-342.7 57.18,-324.2 46.16,-309.3"/>
<polygon fill="black" stroke="black" points="49.03,-307.3 40.27,-301.34 43.4,-311.46 49.03,-307.3"/>
<text text-anchor="middle" x="68.92" y="-322.7" font-family="Times,serif" font-size="14.00">1</text>
</g>
<!-- S2 -->
<g id="node3" class="node">
<title>S2</title>
<ellipse fill="none" stroke="black" cx="68.81" cy="-195" rx="27.81" ry="18"/>
<text text-anchor="middle" x="68.81" y="-189.95" font-family="Times,serif" font-size="14.00">S2/0</text>
</g>
<!-- S1&#45;&gt;S2 -->
<g id="edge3" class="edge">
<title>S1&#45;&gt;S2</title>
<path fill="none" stroke="black" d="M35.71,-265.82C41.5,-253.62 49.47,-236.8 56.14,-222.73"/>
<polygon fill="black" stroke="black" points="59.16,-224.53 60.28,-213.99 52.83,-221.53 59.16,-224.53"/>
<text text-anchor="middle" x="55.36" y="-234.2" font-family="Times,serif" font-size="14.00">0</text>
</g>
<!-- S2&#45;&gt;S0 -->
<g id="edge4" class="edge">
<title>S2&#45;&gt;S0</title>
<path fill="none" stroke="black" d="M71.09,-213.35C75.04,-243.44 83.21,-305.58 88.03,-342.22"/>
<polygon fill="black" stroke="black" points="84.55,-342.62 89.32,-352.08 91.49,-341.71 84.55,-342.62"/>
<text text-anchor="middle" x="85.97" y="-278.45" font-family="Times,serif" font-size="14.00">0</text>
</g>
<!-- S3 -->
<g id="node4" class="node">
<title>S3</title>
<ellipse fill="none" stroke="black" cx="68.81" cy="-106.5" rx="27.81" ry="18"/>
<text text-anchor="middle" x="68.81" y="-101.45" font-family="Times,serif" font-size="14.00">S3/0</text>
</g>
<!-- S2&#45;&gt;S3 -->
<g id="edge5" class="edge">
<title>S2&#45;&gt;S3</title>
<path fill="none" stroke="black" d="M68.81,-176.91C68.81,-165.26 68.81,-149.55 68.81,-136.02"/>
<polygon fill="black" stroke="black" points="72.31,-136.36 68.81,-126.36 65.31,-136.36 72.31,-136.36"/>
<text text-anchor="middle" x="72.18" y="-145.7" font-family="Times,serif" font-size="14.00">1</text>
</g>
<!-- S3&#45;&gt;S1 -->
<g id="edge7" class="edge">
<title>S3&#45;&gt;S1</title>
<path fill="none" stroke="black" d="M55.57,-122.81C44.99,-136.12 30.99,-156.45 25.06,-177 17.76,-202.28 19.52,-232.4 22.47,-253.97"/>
<polygon fill="black" stroke="black" points="19,-254.45 23.99,-263.79 25.91,-253.37 19,-254.45"/>
<text text-anchor="middle" x="28.43" y="-189.95" font-family="Times,serif" font-size="14.00">1</text>
</g>
<!-- S4 -->
<g id="node5" class="node">
<title>S4</title>
<ellipse fill="none" stroke="black" cx="98.81" cy="-18" rx="27.81" ry="18"/>
<text text-anchor="middle" x="98.81" y="-12.95" font-family="Times,serif" font-size="14.00">S4/1</text>
</g>
<!-- S3&#45;&gt;S4 -->
<g id="edge6" class="edge">
<title>S3&#45;&gt;S4</title>
<path fill="none" stroke="black" d="M74.74,-88.41C78.84,-76.56 84.41,-60.52 89.15,-46.84"/>
<polygon fill="black" stroke="black" points="92.43,-48.08 92.4,-37.48 85.81,-45.79 92.43,-48.08"/>
<text text-anchor="middle" x="89.87" y="-57.2" font-family="Times,serif" font-size="14.00">0</text>
</g>
<!-- S4&#45;&gt;S0 -->
<g id="edge8" class="edge">
<title>S4&#45;&gt;S0</title>
<path fill="none" stroke="black" d="M109.19,-34.85C119.19,-51.66 132.81,-79.36 132.81,-105.5 132.81,-284.5 132.81,-284.5 132.81,-284.5 132.81,-306.8 121.55,-329.48 110.83,-346.02"/>
<polygon fill="black" stroke="black" points="107.97,-344 105.19,-354.22 113.74,-347.96 107.97,-344"/>
<text text-anchor="middle" x="136.18" y="-189.95" font-family="Times,serif" font-size="14.00">0</text>
</g>
<!-- S4&#45;&gt;S3 -->
<g id="edge9" class="edge">
<title>S4&#45;&gt;S3</title>
<path fill="none" stroke="black" d="M84.38,-33.83C79.59,-39.65 74.79,-46.69 72.06,-54 69.38,-61.16 68.13,-69.27 67.65,-76.89"/>
<polygon fill="black" stroke="black" points="64.15,-76.7 67.46,-86.77 71.15,-76.84 64.15,-76.7"/>
<text text-anchor="middle" x="75.43" y="-57.2" font-family="Times,serif" font-size="14.00">1</text>
</g>
</g>
</svg>
