<?xml version="1.0" encoding="UTF-8" standalone="no"?>
<!DOCTYPE svg PUBLIC "-//W3C//DTD SVG 1.1//EN"
 "http://www.w3.org/Graphics/SVG/1.1/DTD/svg11.dtd">
<!-- Generated by graphviz version 12.1.1 (20240910.0053)
 -->
<!-- Pages: 1 -->
<svg width="248pt" height="398pt"
 viewBox="0.00 0.00 248.25 398.00" xmlns="http://www.w3.org/2000/svg" xmlns:xlink="http://www.w3.org/1999/xlink">
<g id="graph0" class="graph" transform="scale(1 1) rotate(0) translate(4 394)">
<polygon fill="white" stroke="none" points="-4,4 -4,-394 244.25,-394 244.25,4 -4,4"/>
<!-- S0 -->
<g id="node1" class="node">
<title>S0</title>
<ellipse fill="none" stroke="black" cx="147" cy="-372" rx="27" ry="18"/>
<text text-anchor="middle" x="147" y="-366.95" font-family="Times,serif" font-size="14.00">S0</text>
</g>
<!-- S1 -->
<g id="node2" class="node">
<title>S1</title>
<ellipse fill="none" stroke="black" cx="27" cy="-283.5" rx="27" ry="18"/>
<text text-anchor="middle" x="27" y="-278.45" font-family="Times,serif" font-size="14.00">S1</text>
</g>
<!-- S0&#45;&gt;S1 -->
<g id="edge1" class="edge">
<title>S0&#45;&gt;S1</title>
<path fill="none" stroke="black" d="M128.04,-359.03C117.76,-352.42 104.92,-343.96 93.75,-336 79.88,-326.12 64.83,-314.58 52.54,-304.93"/>
<polygon fill="black" stroke="black" points="54.95,-302.37 44.93,-298.92 50.61,-307.87 54.95,-302.37"/>
<text text-anchor="middle" x="102.38" y="-322.7" font-family="Times,serif" font-size="14.00">1/0</text>
</g>
<!-- S1&#45;&gt;S1 -->
<g id="edge3" class="edge">
<title>S1&#45;&gt;S1</title>
<path fill="none" stroke="black" d="M51.53,-291.67C62.51,-292.45 72,-289.72 72,-283.5 72,-279.61 68.29,-277.09 62.83,-275.93"/>
<polygon fill="black" stroke="black" points="63.22,-272.45 53.04,-275.41 62.84,-279.44 63.22,-272.45"/>
<text text-anchor="middle" x="80.62" y="-278.45" font-family="Times,serif" font-size="14.00">1/0</text>
</g>
<!-- S2 -->
<g id="node3" class="node">
<title>S2</title>
<ellipse fill="none" stroke="black" cx="96" cy="-195" rx="27" ry="18"/>
<text text-anchor="middle" x="96" y="-189.95" font-family="Times,serif" font-size="14.00">S2</text>
</g>
<!-- S1&#45;&gt;S2 -->
<g id="edge2" class="edge">
<title>S1&#45;&gt;S2</title>
<path fill="none" stroke="black" d="M39.34,-267.04C49.74,-254 64.8,-235.12 76.78,-220.1"/>
<polygon fill="black" stroke="black" points="79.33,-222.51 82.83,-212.51 73.86,-218.15 79.33,-222.51"/>
<text text-anchor="middle" x="76.31" y="-234.2" font-family="Times,serif" font-size="14.00">0/0</text>
</g>
<!-- S2&#45;&gt;S0 -->
<g id="edge4" class="edge">
<title>S2&#45;&gt;S0</title>
<path fill="none" stroke="black" d="M101,-213.17C109.82,-243.41 128.18,-306.42 138.85,-343.02"/>
<polygon fill="black" stroke="black" points="135.44,-343.83 141.59,-352.45 142.16,-341.87 135.44,-343.83"/>
<text text-anchor="middle" x="135.19" y="-278.45" font-family="Times,serif" font-size="14.00">0/0</text>
</g>
<!-- S3 -->
<g id="node4" class="node">
<title>S3</title>
<ellipse fill="none" stroke="black" cx="96" cy="-106.5" rx="27" ry="18"/>
<text text-anchor="middle" x="96" y="-101.45" font-family="Times,serif" font-size="14.00">S3</text>
</g>
<!-- S2&#45;&gt;S3 -->
<g id="edge5" class="edge">
<title>S2&#45;&gt;S3</title>
<path fill="none" stroke="black" d="M96,-176.91C96,-165.26 96,-149.55 96,-136.02"/>
<polygon fill="black" stroke="black" points="99.5,-136.36 96,-126.36 92.5,-136.36 99.5,-136.36"/>
<text text-anchor="middle" x="104.62" y="-145.7" font-family="Times,serif" font-size="14.00">1/0</text>
</g>
<!-- S3&#45;&gt;S1 -->
<g id="edge7" class="edge">
<title>S3&#45;&gt;S1</title>
<path fill="none" stroke="black" d="M81.24,-122.06C68.85,-135.22 51.77,-155.73 42.75,-177 32.31,-201.63 28.64,-232.05 27.42,-253.89"/>
<polygon fill="black" stroke="black" points="23.92,-253.71 27.02,-263.84 30.92,-253.99 23.92,-253.71"/>
<text text-anchor="middle" x="51.38" y="-189.95" font-family="Times,serif" font-size="14.00">1/0</text>
</g>
<!-- S4 -->
<g id="node5" class="node">
<title>S4</title>
<ellipse fill="none" stroke="black" cx="170" cy="-18" rx="27" ry="18"/>
<text text-anchor="middle" x="170" y="-12.95" font-family="Times,serif" font-size="14.00">S4</text>
</g>
<!-- S3&#45;&gt;S4 -->
<g id="edge6" class="edge">
<title>S3&#45;&gt;S4</title>
<path fill="none" stroke="black" d="M108.58,-90.06C117.02,-79.76 128.44,-65.98 138.75,-54 142.07,-50.15 145.63,-46.09 149.11,-42.16"/>
<polygon fill="black" stroke="black" points="151.44,-44.8 155.49,-35.01 146.22,-40.14 151.44,-44.8"/>
<text text-anchor="middle" x="147.38" y="-57.2" font-family="Times,serif" font-size="14.00">0/1</text>
</g>
<!-- S4&#45;&gt;S0 -->
<g id="edge8" class="edge">
<title>S4&#45;&gt;S0</title>
<path fill="none" stroke="black" d="M170,-36.23C170,-53.69 170,-81.47 170,-105.5 170,-284.5 170,-284.5 170,-284.5 170,-304.83 163.99,-326.97 158.12,-343.76"/>
<polygon fill="black" stroke="black" points="154.88,-342.43 154.68,-353.02 161.44,-344.87 154.88,-342.43"/>
<text text-anchor="middle" x="178.62" y="-189.95" font-family="Times,serif" font-size="14.00">0/0</text>
</g>
<!-- S4&#45;&gt;S0 -->
<g id="edge9" class="edge">
<title>S4&#45;&gt;S0</title>
<path fill="none" stroke="black" d="M185.33,-33C200.98,-48.91 223,-76.44 223,-105.5 223,-284.5 223,-284.5 223,-284.5 223,-313.97 197.8,-338.18 176.42,-353.42"/>
<polygon fill="black" stroke="black" points="174.57,-350.45 168.22,-358.93 178.47,-356.26 174.57,-350.45"/>
<text text-anchor="middle" x="231.62" y="-189.95" font-family="Times,serif" font-size="14.00">1/0</text>
</g>
</g>
</svg>
