<?xml version="1.0" encoding="UTF-8" standalone="no"?>
<!DOCTYPE svg PUBLIC "-//W3C//DTD SVG 1.1//EN"
 "http://www.w3.org/Graphics/SVG/1.1/DTD/svg11.dtd">
<!-- Generated by graphviz version 12.1.1 (20240910.0053)
 -->
<!-- Pages: 1 -->
<svg width="173pt" height="398pt"
 viewBox="0.00 0.00 173.25 398.00" xmlns="http://www.w3.org/2000/svg" xmlns:xlink="http://www.w3.org/1999/xlink">
<g id="graph0" class="graph" transform="scale(1 1) rotate(0) translate(4 394)">
<polygon fill="white" stroke="none" points="-4,4 -4,-394 169.25,-394 169.25,4 -4,4"/>
<!-- S0 -->
<g id="node1" class="node">
<title>S0</title>
<ellipse fill="none" stroke="black" cx="103" cy="-372" rx="27" ry="18"/>
<text text-anchor="middle" x="103" y="-366.95" font-family="Times,serif" font-size="14.00">S0</text>
</g>
<!-- S0&#45;&gt;S0 -->
<g id="edge1" class="edge">
<title>S0&#45;&gt;S0</title>
<path fill="none" stroke="black" d="M127.53,-380.17C138.51,-380.95 148,-378.22 148,-372 148,-368.11 144.29,-365.59 138.83,-364.43"/>
<polygon fill="black" stroke="black" points="139.22,-360.95 129.04,-363.91 138.84,-367.94 139.22,-360.95"/>
<text text-anchor="middle" x="156.62" y="-366.95" font-family="Times,serif" font-size="14.00">0/0</text>
</g>
<!-- S1 -->
<g id="node2" class="node">
<title>S1</title>
<ellipse fill="none" stroke="black" cx="58" cy="-283.5" rx="27" ry="18"/>
<text text-anchor="middle" x="58" y="-278.45" font-family="Times,serif" font-size="14.00">S1</text>
</g>
<!-- S0&#45;&gt;S1 -->
<g id="edge2" class="edge">
<title>S0&#45;&gt;S1</title>
<path fill="none" stroke="black" d="M94.54,-354.73C88.17,-342.48 79.3,-325.43 71.89,-311.2"/>
<polygon fill="black" stroke="black" points="75,-309.59 67.28,-302.33 68.79,-312.82 75,-309.59"/>
<text text-anchor="middle" x="93.16" y="-322.7" font-family="Times,serif" font-size="14.00">1/0</text>
</g>
<!-- S1&#45;&gt;S1 -->
<g id="edge4" class="edge">
<title>S1&#45;&gt;S1</title>
<path fill="none" stroke="black" d="M82.53,-291.67C93.51,-292.45 103,-289.72 103,-283.5 103,-279.61 99.29,-277.09 93.83,-275.93"/>
<polygon fill="black" stroke="black" points="94.22,-272.45 84.04,-275.41 93.84,-279.44 94.22,-272.45"/>
<text text-anchor="middle" x="111.62" y="-278.45" font-family="Times,serif" font-size="14.00">1/0</text>
</g>
<!-- S2 -->
<g id="node3" class="node">
<title>S2</title>
<ellipse fill="none" stroke="black" cx="27" cy="-195" rx="27" ry="18"/>
<text text-anchor="middle" x="27" y="-189.95" font-family="Times,serif" font-size="14.00">S2</text>
</g>
<!-- S1&#45;&gt;S2 -->
<g id="edge3" class="edge">
<title>S1&#45;&gt;S2</title>
<path fill="none" stroke="black" d="M52.02,-265.82C47.72,-253.81 41.82,-237.34 36.82,-223.41"/>
<polygon fill="black" stroke="black" points="40.24,-222.58 33.58,-214.35 33.65,-224.94 40.24,-222.58"/>
<text text-anchor="middle" x="53.9" y="-234.2" font-family="Times,serif" font-size="14.00">0/0</text>
</g>
<!-- S3 -->
<g id="node4" class="node">
<title>S3</title>
<ellipse fill="none" stroke="black" cx="84" cy="-106.5" rx="27" ry="18"/>
<text text-anchor="middle" x="84" y="-101.45" font-family="Times,serif" font-size="14.00">S3</text>
</g>
<!-- S2&#45;&gt;S3 -->
<g id="edge5" class="edge">
<title>S2&#45;&gt;S3</title>
<path fill="none" stroke="black" d="M36.43,-178.03C42.6,-167.77 50.93,-154.21 58.75,-142.5 60.98,-139.16 63.39,-135.68 65.79,-132.27"/>
<polygon fill="black" stroke="black" points="68.57,-134.4 71.56,-124.24 62.88,-130.32 68.57,-134.4"/>
<text text-anchor="middle" x="67.38" y="-145.7" font-family="Times,serif" font-size="14.00">1/0</text>
</g>
<!-- S3&#45;&gt;S1 -->
<g id="edge7" class="edge">
<title>S3&#45;&gt;S1</title>
<path fill="none" stroke="black" d="M82.63,-124.85C80.36,-151.42 75.25,-203.71 67,-247.5 66.56,-249.81 66.06,-252.2 65.52,-254.59"/>
<polygon fill="black" stroke="black" points="62.19,-253.49 63.21,-264.04 68.99,-255.16 62.19,-253.49"/>
<text text-anchor="middle" x="85.93" y="-189.95" font-family="Times,serif" font-size="14.00">1/0</text>
</g>
<!-- S4 -->
<g id="node5" class="node">
<title>S4</title>
<ellipse fill="none" stroke="black" cx="116" cy="-18" rx="27" ry="18"/>
<text text-anchor="middle" x="116" y="-12.95" font-family="Times,serif" font-size="14.00">S4</text>
</g>
<!-- S3&#45;&gt;S4 -->
<g id="edge6" class="edge">
<title>S3&#45;&gt;S4</title>
<path fill="none" stroke="black" d="M77.11,-88.61C73.96,-78.23 71.88,-64.88 76.75,-54 79.36,-48.17 83.48,-42.91 88.09,-38.34"/>
<polygon fill="black" stroke="black" points="90.27,-41.09 95.54,-31.9 85.69,-35.79 90.27,-41.09"/>
<text text-anchor="middle" x="85.38" y="-57.2" font-family="Times,serif" font-size="14.00">0/1</text>
</g>
<!-- S4&#45;&gt;S0 -->
<g id="edge8" class="edge">
<title>S4&#45;&gt;S0</title>
<path fill="none" stroke="black" d="M125.95,-35.24C135.34,-52.15 148,-79.72 148,-105.5 148,-284.5 148,-284.5 148,-284.5 148,-307.57 135.25,-330.58 123.33,-347.07"/>
<polygon fill="black" stroke="black" points="120.73,-344.7 117.42,-354.77 126.28,-348.96 120.73,-344.7"/>
<text text-anchor="middle" x="156.62" y="-189.95" font-family="Times,serif" font-size="14.00">0/0</text>
</g>
<!-- S4&#45;&gt;S3 -->
<g id="edge9" class="edge">
<title>S4&#45;&gt;S3</title>
<path fill="none" stroke="black" d="M109.74,-35.92C105.28,-47.99 99.18,-64.47 94.04,-78.37"/>
<polygon fill="black" stroke="black" points="90.88,-76.81 90.7,-87.4 97.45,-79.24 90.88,-76.81"/>
<text text-anchor="middle" x="111.49" y="-57.2" font-family="Times,serif" font-size="14.00">1/0</text>
</g>
</g>
</svg>
