<?xml version="1.0" encoding="UTF-8" standalone="no"?>
<!DOCTYPE svg PUBLIC "-//W3C//DTD SVG 1.1//EN"
 "http://www.w3.org/Graphics/SVG/1.1/DTD/svg11.dtd">
<!-- Generated by graphviz version 12.1.1 (20240910.0053)
 -->
<!-- Pages: 1 -->
<svg width="120pt" height="310pt"
 viewBox="0.00 0.00 120.37 309.50" xmlns="http://www.w3.org/2000/svg" xmlns:xlink="http://www.w3.org/1999/xlink">
<g id="graph0" class="graph" transform="scale(1 1) rotate(0) translate(4 305.5)">
<polygon fill="white" stroke="none" points="-4,4 -4,-305.5 116.37,-305.5 116.37,4 -4,4"/>
<!-- S0 -->
<g id="node1" class="node">
<title>S0</title>
<ellipse fill="none" stroke="black" cx="59.81" cy="-283.5" rx="27.81" ry="18"/>
<text text-anchor="middle" x="59.81" y="-278.45" font-family="Times,serif" font-size="14.00">S0/0</text>
</g>
<!-- S0&#45;&gt;S0 -->
<g id="edge2" class="edge">
<title>S0&#45;&gt;S0</title>
<path fill="none" stroke="black" d="M84.78,-291.67C95.95,-292.45 105.62,-289.72 105.62,-283.5 105.62,-279.51 101.65,-276.96 95.86,-275.85"/>
<polygon fill="black" stroke="black" points="96.45,-272.37 86.29,-275.4 96.12,-279.37 96.45,-272.37"/>
<text text-anchor="middle" x="108.99" y="-278.45" font-family="Times,serif" font-size="14.00">1</text>
</g>
<!-- S1 -->
<g id="node2" class="node">
<title>S1</title>
<ellipse fill="none" stroke="black" cx="59.81" cy="-195" rx="27.81" ry="18"/>
<text text-anchor="middle" x="59.81" y="-189.95" font-family="Times,serif" font-size="14.00">S1/0</text>
</g>
<!-- S0&#45;&gt;S1 -->
<g id="edge1" class="edge">
<title>S0&#45;&gt;S1</title>
<path fill="none" stroke="black" d="M59.81,-265.41C59.81,-253.76 59.81,-238.05 59.81,-224.52"/>
<polygon fill="black" stroke="black" points="63.31,-224.86 59.81,-214.86 56.31,-224.86 63.31,-224.86"/>
<text text-anchor="middle" x="63.18" y="-234.2" font-family="Times,serif" font-size="14.00">0</text>
</g>
<!-- S1&#45;&gt;S1 -->
<g id="edge3" class="edge">
<title>S1&#45;&gt;S1</title>
<path fill="none" stroke="black" d="M84.78,-203.17C95.95,-203.95 105.62,-201.22 105.62,-195 105.62,-191.01 101.65,-188.46 95.86,-187.35"/>
<polygon fill="black" stroke="black" points="96.45,-183.87 86.29,-186.9 96.12,-190.87 96.45,-183.87"/>
<text text-anchor="middle" x="108.99" y="-189.95" font-family="Times,serif" font-size="14.00">0</text>
</g>
<!-- S2 -->
<g id="node3" class="node">
<title>S2</title>
<ellipse fill="none" stroke="black" cx="27.81" cy="-106.5" rx="27.81" ry="18"/>
<text text-anchor="middle" x="27.81" y="-101.45" font-family="Times,serif" font-size="14.00">S2/0</text>
</g>
<!-- S1&#45;&gt;S2 -->
<g id="edge4" class="edge">
<title>S1&#45;&gt;S2</title>
<path fill="none" stroke="black" d="M53.64,-177.32C49.2,-165.31 43.1,-148.84 37.95,-134.91"/>
<polygon fill="black" stroke="black" points="41.35,-134.01 34.59,-125.84 34.78,-136.43 41.35,-134.01"/>
<text text-anchor="middle" x="50.05" y="-145.7" font-family="Times,serif" font-size="14.00">1</text>
</g>
<!-- S3 -->
<g id="node4" class="node">
<title>S3</title>
<ellipse fill="none" stroke="black" cx="57.81" cy="-18" rx="27.81" ry="18"/>
<text text-anchor="middle" x="57.81" y="-12.95" font-family="Times,serif" font-size="14.00">S3/1</text>
</g>
<!-- S2&#45;&gt;S3 -->
<g id="edge5" class="edge">
<title>S2&#45;&gt;S3</title>
<path fill="none" stroke="black" d="M26.43,-88.28C26.21,-78.02 26.98,-64.91 31.06,-54 32.47,-50.23 34.43,-46.54 36.65,-43.04"/>
<polygon fill="black" stroke="black" points="39.41,-45.19 42.49,-35.05 33.76,-41.06 39.41,-45.19"/>
<text text-anchor="middle" x="34.43" y="-57.2" font-family="Times,serif" font-size="14.00">0</text>
</g>
<!-- S3&#45;&gt;S1 -->
<g id="edge6" class="edge">
<title>S3&#45;&gt;S1</title>
<path fill="none" stroke="black" d="M60.05,-36.39C61.74,-50.42 63.91,-70.7 64.81,-88.5 66.12,-114.53 64.43,-144.17 62.67,-165.39"/>
<polygon fill="black" stroke="black" points="59.19,-165.04 61.79,-175.31 66.16,-165.67 59.19,-165.04"/>
<text text-anchor="middle" x="68.65" y="-101.45" font-family="Times,serif" font-size="14.00">0</text>
</g>
<!-- S3&#45;&gt;S2 -->
<g id="edge7" class="edge">
<title>S3&#45;&gt;S2</title>
<path fill="none" stroke="black" d="M51.89,-36.05C47.79,-47.89 42.22,-63.93 37.48,-77.62"/>
<polygon fill="black" stroke="black" points="34.2,-76.39 34.23,-86.98 40.81,-78.68 34.2,-76.39"/>
<text text-anchor="middle" x="48.87" y="-57.2" font-family="Times,serif" font-size="14.00">1</text>
</g>
</g>
</svg>
