<?xml version="1.0" encoding="UTF-8" standalone="no"?>
<!DOCTYPE svg PUBLIC "-//W3C//DTD SVG 1.1//EN"
 "http://www.w3.org/Graphics/SVG/1.1/DTD/svg11.dtd">
<!-- Generated by graphviz version 12.1.1 (20240910.0053)
 -->
<!-- Pages: 1 -->
<svg width="146pt" height="398pt"
 viewBox="0.00 0.00 146.25 398.00" xmlns="http://www.w3.org/2000/svg" xmlns:xlink="http://www.w3.org/1999/xlink">
<g id="graph0" class="graph" transform="scale(1 1) rotate(0) translate(4 394)">
<polygon fill="white" stroke="none" points="-4,4 -4,-394 142.25,-394 142.25,4 -4,4"/>
<!-- S0 -->
<g id="node1" class="node">
<title>S0</title>
<ellipse fill="none" stroke="black" cx="76" cy="-283.5" rx="27" ry="18"/>
<text text-anchor="middle" x="76" y="-278.45" font-family="Times,serif" font-size="14.00">S0</text>
</g>
<!-- S0&#45;&gt;S0 -->
<g id="edge1" class="edge">
<title>S0&#45;&gt;S0</title>
<path fill="none" stroke="black" d="M100.53,-291.67C111.51,-292.45 121,-289.72 121,-283.5 121,-279.61 117.29,-277.09 111.83,-275.93"/>
<polygon fill="black" stroke="black" points="112.22,-272.45 102.04,-275.41 111.84,-279.44 112.22,-272.45"/>
<text text-anchor="middle" x="129.62" y="-278.45" font-family="Times,serif" font-size="14.00">0/0</text>
</g>
<!-- S1 -->
<g id="node2" class="node">
<title>S1</title>
<ellipse fill="none" stroke="black" cx="27" cy="-195" rx="27" ry="18"/>
<text text-anchor="middle" x="27" y="-189.95" font-family="Times,serif" font-size="14.00">S1</text>
</g>
<!-- S0&#45;&gt;S1 -->
<g id="edge2" class="edge">
<title>S0&#45;&gt;S1</title>
<path fill="none" stroke="black" d="M66.78,-266.23C59.73,-253.79 49.87,-236.38 41.73,-222.01"/>
<polygon fill="black" stroke="black" points="44.9,-220.49 36.92,-213.51 38.8,-223.94 44.9,-220.49"/>
<text text-anchor="middle" x="64.51" y="-234.2" font-family="Times,serif" font-size="14.00">1/0</text>
</g>
<!-- S1&#45;&gt;S1 -->
<g id="edge4" class="edge">
<title>S1&#45;&gt;S1</title>
<path fill="none" stroke="black" d="M51.53,-203.17C62.51,-203.95 72,-201.22 72,-195 72,-191.11 68.29,-188.59 62.83,-187.43"/>
<polygon fill="black" stroke="black" points="63.22,-183.95 53.04,-186.91 62.84,-190.94 63.22,-183.95"/>
<text text-anchor="middle" x="80.62" y="-189.95" font-family="Times,serif" font-size="14.00">1/0</text>
</g>
<!-- S2 -->
<g id="node3" class="node">
<title>S2</title>
<ellipse fill="none" stroke="black" cx="89" cy="-106.5" rx="27" ry="18"/>
<text text-anchor="middle" x="89" y="-101.45" font-family="Times,serif" font-size="14.00">S2</text>
</g>
<!-- S1&#45;&gt;S2 -->
<g id="edge3" class="edge">
<title>S1&#45;&gt;S2</title>
<path fill="none" stroke="black" d="M38.08,-178.54C47.28,-165.7 60.54,-147.2 71.22,-132.3"/>
<polygon fill="black" stroke="black" points="73.94,-134.52 76.92,-124.35 68.25,-130.44 73.94,-134.52"/>
<text text-anchor="middle" x="72.18" y="-145.7" font-family="Times,serif" font-size="14.00">0/0</text>
</g>
<!-- S2&#45;&gt;S0 -->
<g id="edge5" class="edge">
<title>S2&#45;&gt;S0</title>
<path fill="none" stroke="black" d="M92.98,-124.76C97.24,-145.73 102.77,-182.12 98,-213 95.81,-227.17 91.25,-242.42 86.84,-255"/>
<polygon fill="black" stroke="black" points="83.6,-253.7 83.44,-264.29 90.17,-256.11 83.6,-253.7"/>
<text text-anchor="middle" x="108.46" y="-189.95" font-family="Times,serif" font-size="14.00">0/0</text>
</g>
<!-- S3 -->
<g id="node4" class="node">
<title>S3</title>
<ellipse fill="none" stroke="black" cx="43" cy="-18" rx="27" ry="18"/>
<text text-anchor="middle" x="43" y="-12.95" font-family="Times,serif" font-size="14.00">S3</text>
</g>
<!-- S2&#45;&gt;S3 -->
<g id="edge6" class="edge">
<title>S2&#45;&gt;S3</title>
<path fill="none" stroke="black" d="M80.35,-89.23C73.77,-76.86 64.59,-59.6 56.98,-45.28"/>
<polygon fill="black" stroke="black" points="60.27,-44.01 52.48,-36.83 54.09,-47.3 60.27,-44.01"/>
<text text-anchor="middle" x="78.75" y="-57.2" font-family="Times,serif" font-size="14.00">1/0</text>
</g>
<!-- S3&#45;&gt;S1 -->
<g id="edge7" class="edge">
<title>S3&#45;&gt;S1</title>
<path fill="none" stroke="black" d="M41.08,-36.41C39.56,-50.46 37.41,-70.74 35.75,-88.5 33.32,-114.5 30.89,-144.15 29.21,-165.38"/>
<polygon fill="black" stroke="black" points="25.72,-165.06 28.43,-175.3 32.7,-165.61 25.72,-165.06"/>
<text text-anchor="middle" x="44.38" y="-101.45" font-family="Times,serif" font-size="14.00">1/0</text>
</g>
<!-- S4 -->
<g id="node5" class="node">
<title>S4</title>
<ellipse fill="none" stroke="black" cx="76" cy="-372" rx="27" ry="18"/>
<text text-anchor="middle" x="76" y="-366.95" font-family="Times,serif" font-size="14.00">S4</text>
</g>
<!-- S4&#45;&gt;S0 -->
<g id="edge8" class="edge">
<title>S4&#45;&gt;S0</title>
<path fill="none" stroke="black" d="M65.19,-355.33C61.79,-349.53 58.48,-342.72 56.75,-336 54.93,-328.9 54.93,-326.6 56.75,-319.5 57.56,-316.35 58.72,-313.18 60.07,-310.11"/>
<polygon fill="black" stroke="black" points="63.03,-312.01 64.5,-301.51 56.8,-308.8 63.03,-312.01"/>
<text text-anchor="middle" x="65.38" y="-322.7" font-family="Times,serif" font-size="14.00">0/0</text>
</g>
<!-- S4&#45;&gt;S0 -->
<g id="edge9" class="edge">
<title>S4&#45;&gt;S0</title>
<path fill="none" stroke="black" d="M76,-353.91C76,-342.26 76,-326.55 76,-313.02"/>
<polygon fill="black" stroke="black" points="79.5,-313.36 76,-303.36 72.5,-313.36 79.5,-313.36"/>
<text text-anchor="middle" x="84.62" y="-322.7" font-family="Times,serif" font-size="14.00">1/0</text>
</g>
</g>
</svg>
