<?xml version="1.0" encoding="UTF-8" standalone="no"?>
<!DOCTYPE svg PUBLIC "-//W3C//DTD SVG 1.1//EN"
 "http://www.w3.org/Graphics/SVG/1.1/DTD/svg11.dtd">
<!-- Generated by graphviz version 12.0.0 (20240704.0754)
 -->
<!-- Pages: 1 -->
<svg width="181pt" height="395pt"
 viewBox="0.00 0.00 181.25 395.00" xmlns="http://www.w3.org/2000/svg" xmlns:xlink="http://www.w3.org/1999/xlink">
<g id="graph0" class="graph" transform="scale(1 1) rotate(0) translate(4 391)">
<polygon fill="white" stroke="none" points="-4,4 -4,-391 177.25,-391 177.25,4 -4,4"/>
<!-- S0 -->
<g id="node1" class="node">
<title>S0</title>
<ellipse fill="none" stroke="black" cx="58" cy="-281.25" rx="27" ry="18"/>
<text text-anchor="middle" x="58" y="-275.82" font-family="Times New Roman,serif" font-size="14.00">S0</text>
</g>
<!-- S0&#45;&gt;S0 -->
<g id="edge1" class="edge">
<title>S0&#45;&gt;S0</title>
<path fill="none" stroke="black" d="M82.53,-289.35C93.51,-290.12 103,-287.42 103,-281.25 103,-277.39 99.29,-274.89 93.83,-273.75"/>
<polygon fill="black" stroke="black" points="94.21,-270.26 84.04,-273.23 93.85,-277.25 94.21,-270.26"/>
<text text-anchor="middle" x="111.62" y="-275.82" font-family="Times New Roman,serif" font-size="14.00">0/0</text>
</g>
<!-- S1 -->
<g id="node2" class="node">
<title>S1</title>
<ellipse fill="none" stroke="black" cx="58" cy="-193.5" rx="27" ry="18"/>
<text text-anchor="middle" x="58" y="-188.07" font-family="Times New Roman,serif" font-size="14.00">S1</text>
</g>
<!-- S0&#45;&gt;S1 -->
<g id="edge2" class="edge">
<title>S0&#45;&gt;S1</title>
<path fill="none" stroke="black" d="M58,-262.9C58,-251.51 58,-236.34 58,-223.18"/>
<polygon fill="black" stroke="black" points="61.5,-223.34 58,-213.34 54.5,-223.34 61.5,-223.34"/>
<text text-anchor="middle" x="66.62" y="-231.95" font-family="Times New Roman,serif" font-size="14.00">1/0</text>
</g>
<!-- S1&#45;&gt;S1 -->
<g id="edge4" class="edge">
<title>S1&#45;&gt;S1</title>
<path fill="none" stroke="black" d="M82.53,-201.6C93.51,-202.37 103,-199.67 103,-193.5 103,-189.64 99.29,-187.14 93.83,-186"/>
<polygon fill="black" stroke="black" points="94.21,-182.51 84.04,-185.48 93.85,-189.5 94.21,-182.51"/>
<text text-anchor="middle" x="111.62" y="-188.07" font-family="Times New Roman,serif" font-size="14.00">1/0</text>
</g>
<!-- S2 -->
<g id="node3" class="node">
<title>S2</title>
<ellipse fill="none" stroke="black" cx="27" cy="-105.75" rx="27" ry="18"/>
<text text-anchor="middle" x="27" y="-100.33" font-family="Times New Roman,serif" font-size="14.00">S2</text>
</g>
<!-- S1&#45;&gt;S2 -->
<g id="edge3" class="edge">
<title>S1&#45;&gt;S2</title>
<path fill="none" stroke="black" d="M51.88,-175.56C47.63,-163.81 41.88,-147.91 36.98,-134.35"/>
<polygon fill="black" stroke="black" points="40.32,-133.29 33.63,-125.08 33.73,-135.67 40.32,-133.29"/>
<text text-anchor="middle" x="53.62" y="-144.2" font-family="Times New Roman,serif" font-size="14.00">0/0</text>
</g>
<!-- S2&#45;&gt;S0 -->
<g id="edge5" class="edge">
<title>S2&#45;&gt;S0</title>
<path fill="none" stroke="black" d="M18.22,-123.05C8.16,-143.93 -5.66,-181.07 4.75,-211.5 10.73,-228.97 23.15,-245.44 34.49,-257.88"/>
<polygon fill="black" stroke="black" points="31.96,-260.29 41.4,-265.09 37.01,-255.45 31.96,-260.29"/>
<text text-anchor="middle" x="12.62" y="-188.07" font-family="Times New Roman,serif" font-size="14.00">0/0</text>
</g>
<!-- S3 -->
<g id="node4" class="node">
<title>S3</title>
<ellipse fill="none" stroke="black" cx="90" cy="-18" rx="27" ry="18"/>
<text text-anchor="middle" x="90" y="-12.57" font-family="Times New Roman,serif" font-size="14.00">S3</text>
</g>
<!-- S2&#45;&gt;S3 -->
<g id="edge6" class="edge">
<title>S2&#45;&gt;S3</title>
<path fill="none" stroke="black" d="M36.06,-88.75C42.08,-78.52 50.39,-65.14 58.75,-54 61.8,-49.93 65.23,-45.77 68.66,-41.79"/>
<polygon fill="black" stroke="black" points="70.99,-44.44 75.03,-34.64 65.76,-39.78 70.99,-44.44"/>
<text text-anchor="middle" x="66.62" y="-56.45" font-family="Times New Roman,serif" font-size="14.00">1/0</text>
</g>
<!-- S3&#45;&gt;S1 -->
<g id="edge7" class="edge">
<title>S3&#45;&gt;S1</title>
<path fill="none" stroke="black" d="M87.33,-36.11C83.18,-62.32 74.74,-113.95 66,-157.5 65.56,-159.7 65.08,-161.97 64.59,-164.26"/>
<polygon fill="black" stroke="black" points="61.19,-163.45 62.42,-173.97 68.02,-164.98 61.19,-163.45"/>
<text text-anchor="middle" x="86.62" y="-100.33" font-family="Times New Roman,serif" font-size="14.00">1/0</text>
</g>
<!-- S4 -->
<g id="node5" class="node">
<title>S4</title>
<ellipse fill="none" stroke="black" cx="107" cy="-369" rx="27" ry="18"/>
<text text-anchor="middle" x="107" y="-363.57" font-family="Times New Roman,serif" font-size="14.00">S4</text>
</g>
<!-- S4&#45;&gt;S0 -->
<g id="edge8" class="edge">
<title>S4&#45;&gt;S0</title>
<path fill="none" stroke="black" d="M97.78,-351.87C90.78,-339.61 81,-322.5 72.89,-308.3"/>
<polygon fill="black" stroke="black" points="76.09,-306.86 68.09,-299.91 70.02,-310.33 76.09,-306.86"/>
<text text-anchor="middle" x="94.62" y="-319.7" font-family="Times New Roman,serif" font-size="14.00">0/0</text>
</g>
<!-- S4&#45;&gt;S3 -->
<g id="edge9" class="edge">
<title>S4&#45;&gt;S3</title>
<path fill="none" stroke="black" d="M121.44,-353.63C135.89,-337.65 156,-310.37 156,-282.25 156,-282.25 156,-282.25 156,-104.75 156,-77.79 135.26,-54.11 117.03,-38.5"/>
<polygon fill="black" stroke="black" points="119.54,-36.03 109.56,-32.46 115.14,-41.47 119.54,-36.03"/>
<text text-anchor="middle" x="164.62" y="-188.07" font-family="Times New Roman,serif" font-size="14.00">1/0</text>
</g>
</g>
</svg>
