<?xml version="1.0" encoding="UTF-8" standalone="no"?>
<!DOCTYPE svg PUBLIC "-//W3C//DTD SVG 1.1//EN"
 "http://www.w3.org/Graphics/SVG/1.1/DTD/svg11.dtd">
<!-- Generated by graphviz version 12.1.1 (20240910.0053)
 -->
<!-- Pages: 1 -->
<svg width="105pt" height="310pt"
 viewBox="0.00 0.00 105.37 309.50" xmlns="http://www.w3.org/2000/svg" xmlns:xlink="http://www.w3.org/1999/xlink">
<g id="graph0" class="graph" transform="scale(1 1) rotate(0) translate(4 305.5)">
<polygon fill="white" stroke="none" points="-4,4 -4,-305.5 101.37,-305.5 101.37,4 -4,4"/>
<!-- S0 -->
<g id="node1" class="node">
<title>S0</title>
<ellipse fill="none" stroke="black" cx="44.81" cy="-106.5" rx="27.81" ry="18"/>
<text text-anchor="middle" x="44.81" y="-101.45" font-family="Times,serif" font-size="14.00">S0/0</text>
</g>
<!-- S0&#45;&gt;S0 -->
<g id="edge2" class="edge">
<title>S0&#45;&gt;S0</title>
<path fill="none" stroke="black" d="M69.78,-114.67C80.95,-115.45 90.62,-112.72 90.62,-106.5 90.62,-102.51 86.65,-99.96 80.86,-98.85"/>
<polygon fill="black" stroke="black" points="81.45,-95.37 71.29,-98.4 81.12,-102.37 81.45,-95.37"/>
<text text-anchor="middle" x="93.99" y="-101.45" font-family="Times,serif" font-size="14.00">1</text>
</g>
<!-- S1 -->
<g id="node2" class="node">
<title>S1</title>
<ellipse fill="none" stroke="black" cx="44.81" cy="-18" rx="27.81" ry="18"/>
<text text-anchor="middle" x="44.81" y="-12.95" font-family="Times,serif" font-size="14.00">S1/0</text>
</g>
<!-- S0&#45;&gt;S1 -->
<g id="edge1" class="edge">
<title>S0&#45;&gt;S1</title>
<path fill="none" stroke="black" d="M44.81,-88.41C44.81,-76.76 44.81,-61.05 44.81,-47.52"/>
<polygon fill="black" stroke="black" points="48.31,-47.86 44.81,-37.86 41.31,-47.86 48.31,-47.86"/>
<text text-anchor="middle" x="48.18" y="-57.2" font-family="Times,serif" font-size="14.00">0</text>
</g>
<!-- S1&#45;&gt;S1 -->
<g id="edge3" class="edge">
<title>S1&#45;&gt;S1</title>
<path fill="none" stroke="black" d="M69.78,-26.17C80.95,-26.95 90.62,-24.22 90.62,-18 90.62,-14.01 86.65,-11.46 80.86,-10.35"/>
<polygon fill="black" stroke="black" points="81.45,-6.87 71.29,-9.9 81.12,-13.87 81.45,-6.87"/>
<text text-anchor="middle" x="93.99" y="-12.95" font-family="Times,serif" font-size="14.00">0</text>
</g>
<!-- S2 -->
<g id="node3" class="node">
<title>S2</title>
<ellipse fill="none" stroke="black" cx="27.81" cy="-283.5" rx="27.81" ry="18"/>
<text text-anchor="middle" x="27.81" y="-278.45" font-family="Times,serif" font-size="14.00">S2/0</text>
</g>
<!-- S2&#45;&gt;S0 -->
<g id="edge5" class="edge">
<title>S2&#45;&gt;S0</title>
<path fill="none" stroke="black" d="M24.3,-265.2C20.6,-244.2 15.94,-207.78 21.06,-177 23.43,-162.75 28.35,-147.5 33.11,-134.92"/>
<polygon fill="black" stroke="black" points="36.35,-136.22 36.79,-125.64 29.85,-133.64 36.35,-136.22"/>
<text text-anchor="middle" x="24.43" y="-189.95" font-family="Times,serif" font-size="14.00">1</text>
</g>
<!-- S3 -->
<g id="node4" class="node">
<title>S3</title>
<ellipse fill="none" stroke="black" cx="64.81" cy="-195" rx="27.81" ry="18"/>
<text text-anchor="middle" x="64.81" y="-189.95" font-family="Times,serif" font-size="14.00">S3/1</text>
</g>
<!-- S2&#45;&gt;S3 -->
<g id="edge4" class="edge">
<title>S2&#45;&gt;S3</title>
<path fill="none" stroke="black" d="M34.94,-265.82C40.11,-253.74 47.22,-237.13 53.2,-223.14"/>
<polygon fill="black" stroke="black" points="56.39,-224.59 57.1,-214.02 49.95,-221.84 56.39,-224.59"/>
<text text-anchor="middle" x="53" y="-234.2" font-family="Times,serif" font-size="14.00">0</text>
</g>
<!-- S3&#45;&gt;S0 -->
<g id="edge6" class="edge">
<title>S3&#45;&gt;S0</title>
<path fill="none" stroke="black" d="M55.44,-177.76C52.57,-172.02 49.72,-165.39 48.06,-159 46.18,-151.8 45.18,-143.86 44.69,-136.41"/>
<polygon fill="black" stroke="black" points="48.19,-136.3 44.32,-126.44 41.19,-136.56 48.19,-136.3"/>
<text text-anchor="middle" x="51.43" y="-145.7" font-family="Times,serif" font-size="14.00">0</text>
</g>
<!-- S3&#45;&gt;S0 -->
<g id="edge7" class="edge">
<title>S3&#45;&gt;S0</title>
<path fill="none" stroke="black" d="M60.86,-176.91C58.15,-165.18 54.48,-149.34 51.34,-135.75"/>
<polygon fill="black" stroke="black" points="54.76,-134.98 49.09,-126.03 47.94,-136.56 54.76,-134.98"/>
<text text-anchor="middle" x="59.97" y="-145.7" font-family="Times,serif" font-size="14.00">1</text>
</g>
</g>
</svg>
