<?xml version="1.0" encoding="UTF-8" standalone="no"?>
<!DOCTYPE svg PUBLIC "-//W3C//DTD SVG 1.1//EN"
 "http://www.w3.org/Graphics/SVG/1.1/DTD/svg11.dtd">
<!-- Generated by graphviz version 12.1.1 (20240910.0053)
 -->
<!-- Pages: 1 -->
<svg width="150pt" height="310pt"
 viewBox="0.00 0.00 149.76 309.50" xmlns="http://www.w3.org/2000/svg" xmlns:xlink="http://www.w3.org/1999/xlink">
<g id="graph0" class="graph" transform="scale(1 1) rotate(0) translate(4 305.5)">
<polygon fill="white" stroke="none" points="-4,4 -4,-305.5 145.76,-305.5 145.76,4 -4,4"/>
<!-- S0 -->
<g id="node1" class="node">
<title>S0</title>
<ellipse fill="none" stroke="black" cx="108.81" cy="-283.5" rx="27.81" ry="18"/>
<text text-anchor="middle" x="108.81" y="-278.45" font-family="Times,serif" font-size="14.00">S0/0</text>
</g>
<!-- S1 -->
<g id="node2" class="node">
<title>S1</title>
<ellipse fill="none" stroke="black" cx="27.81" cy="-195" rx="27.81" ry="18"/>
<text text-anchor="middle" x="27.81" y="-189.95" font-family="Times,serif" font-size="14.00">S1/0</text>
</g>
<!-- S0&#45;&gt;S1 -->
<g id="edge1" class="edge">
<title>S0&#45;&gt;S1</title>
<path fill="none" stroke="black" d="M95.07,-267.83C82.58,-254.49 63.94,-234.58 49.45,-219.11"/>
<polygon fill="black" stroke="black" points="52.31,-217.05 42.92,-212.14 47.2,-221.83 52.31,-217.05"/>
<text text-anchor="middle" x="78.94" y="-234.2" font-family="Times,serif" font-size="14.00">0</text>
</g>
<!-- S1&#45;&gt;S1 -->
<g id="edge2" class="edge">
<title>S1&#45;&gt;S1</title>
<path fill="none" stroke="black" d="M52.78,-203.17C63.95,-203.95 73.62,-201.22 73.62,-195 73.62,-191.01 69.65,-188.46 63.86,-187.35"/>
<polygon fill="black" stroke="black" points="64.45,-183.87 54.29,-186.9 64.12,-190.87 64.45,-183.87"/>
<text text-anchor="middle" x="76.99" y="-189.95" font-family="Times,serif" font-size="14.00">0</text>
</g>
<!-- S2 -->
<g id="node3" class="node">
<title>S2</title>
<ellipse fill="none" stroke="black" cx="52.81" cy="-106.5" rx="27.81" ry="18"/>
<text text-anchor="middle" x="52.81" y="-101.45" font-family="Times,serif" font-size="14.00">S2/0</text>
</g>
<!-- S1&#45;&gt;S2 -->
<g id="edge3" class="edge">
<title>S1&#45;&gt;S2</title>
<path fill="none" stroke="black" d="M25.84,-176.9C25.24,-166.68 25.51,-153.57 29.06,-142.5 30.14,-139.11 31.67,-135.75 33.43,-132.54"/>
<polygon fill="black" stroke="black" points="36.36,-134.45 38.78,-124.14 30.46,-130.69 36.36,-134.45"/>
<text text-anchor="middle" x="32.43" y="-145.7" font-family="Times,serif" font-size="14.00">1</text>
</g>
<!-- S2&#45;&gt;S1 -->
<g id="edge4" class="edge">
<title>S2&#45;&gt;S1</title>
<path fill="none" stroke="black" d="M47.88,-124.55C44.46,-136.39 39.82,-152.43 35.87,-166.12"/>
<polygon fill="black" stroke="black" points="32.58,-164.88 33.17,-175.46 39.31,-166.82 32.58,-164.88"/>
<text text-anchor="middle" x="45.92" y="-145.7" font-family="Times,serif" font-size="14.00">0</text>
</g>
<!-- S3 -->
<g id="node4" class="node">
<title>S3</title>
<ellipse fill="none" stroke="black" cx="108.81" cy="-18" rx="27.81" ry="18"/>
<text text-anchor="middle" x="108.81" y="-12.95" font-family="Times,serif" font-size="14.00">S3/1</text>
</g>
<!-- S2&#45;&gt;S3 -->
<g id="edge5" class="edge">
<title>S2&#45;&gt;S3</title>
<path fill="none" stroke="black" d="M63.08,-89.63C71.24,-77.03 82.81,-59.16 92.27,-44.55"/>
<polygon fill="black" stroke="black" points="95.09,-46.62 97.59,-36.33 89.22,-42.82 95.09,-46.62"/>
<text text-anchor="middle" x="89.2" y="-57.2" font-family="Times,serif" font-size="14.00">1</text>
</g>
<!-- S3&#45;&gt;S0 -->
<g id="edge6" class="edge">
<title>S3&#45;&gt;S0</title>
<path fill="none" stroke="black" d="M108.81,-36.35C108.81,-80.81 108.81,-199.14 108.81,-253.93"/>
<polygon fill="black" stroke="black" points="105.31,-253.7 108.81,-263.7 112.31,-253.7 105.31,-253.7"/>
<text text-anchor="middle" x="112.18" y="-145.7" font-family="Times,serif" font-size="14.00">0</text>
</g>
<!-- S3&#45;&gt;S0 -->
<g id="edge7" class="edge">
<title>S3&#45;&gt;S0</title>
<path fill="none" stroke="black" d="M116.99,-35.7C119.35,-41.37 121.62,-47.83 122.81,-54 139.07,-138.45 139.07,-163.05 122.81,-247.5 122.33,-250.01 121.67,-252.56 120.89,-255.09"/>
<polygon fill="black" stroke="black" points="117.64,-253.79 117.5,-264.38 124.22,-256.19 117.64,-253.79"/>
<text text-anchor="middle" x="138.38" y="-145.7" font-family="Times,serif" font-size="14.00">1</text>
</g>
</g>
</svg>
