<?xml version="1.0" encoding="UTF-8" standalone="no"?>
<!DOCTYPE svg PUBLIC "-//W3C//DTD SVG 1.1//EN"
 "http://www.w3.org/Graphics/SVG/1.1/DTD/svg11.dtd">
<!-- Generated by graphviz version 12.1.1 (20240910.0053)
 -->
<!-- Pages: 1 -->
<svg width="164pt" height="398pt"
 viewBox="0.00 0.00 164.25 398.00" xmlns="http://www.w3.org/2000/svg" xmlns:xlink="http://www.w3.org/1999/xlink">
<g id="graph0" class="graph" transform="scale(1 1) rotate(0) translate(4 394)">
<polygon fill="white" stroke="none" points="-4,4 -4,-394 160.25,-394 160.25,4 -4,4"/>
<!-- S0 -->
<g id="node1" class="node">
<title>S0</title>
<ellipse fill="none" stroke="black" cx="90" cy="-372" rx="27" ry="18"/>
<text text-anchor="middle" x="90" y="-366.95" font-family="Times,serif" font-size="14.00">S0</text>
</g>
<!-- S0&#45;&gt;S0 -->
<g id="edge1" class="edge">
<title>S0&#45;&gt;S0</title>
<path fill="none" stroke="black" d="M114.53,-380.17C125.51,-380.95 135,-378.22 135,-372 135,-368.11 131.29,-365.59 125.83,-364.43"/>
<polygon fill="black" stroke="black" points="126.22,-360.95 116.04,-363.91 125.84,-367.94 126.22,-360.95"/>
<text text-anchor="middle" x="143.62" y="-366.95" font-family="Times,serif" font-size="14.00">0/0</text>
</g>
<!-- S1 -->
<g id="node2" class="node">
<title>S1</title>
<ellipse fill="none" stroke="black" cx="27" cy="-283.5" rx="27" ry="18"/>
<text text-anchor="middle" x="27" y="-278.45" font-family="Times,serif" font-size="14.00">S1</text>
</g>
<!-- S0&#45;&gt;S1 -->
<g id="edge2" class="edge">
<title>S0&#45;&gt;S1</title>
<path fill="none" stroke="black" d="M76.02,-356.5C70.39,-350.38 64.01,-343.05 58.75,-336 52.77,-327.98 46.84,-318.79 41.76,-310.43"/>
<polygon fill="black" stroke="black" points="44.91,-308.87 36.8,-302.05 38.89,-312.44 44.91,-308.87"/>
<text text-anchor="middle" x="67.38" y="-322.7" font-family="Times,serif" font-size="14.00">1/0</text>
</g>
<!-- S2 -->
<g id="node3" class="node">
<title>S2</title>
<ellipse fill="none" stroke="black" cx="76" cy="-195" rx="27" ry="18"/>
<text text-anchor="middle" x="76" y="-189.95" font-family="Times,serif" font-size="14.00">S2</text>
</g>
<!-- S1&#45;&gt;S2 -->
<g id="edge3" class="edge">
<title>S1&#45;&gt;S2</title>
<path fill="none" stroke="black" d="M36.22,-266.23C43.27,-253.79 53.13,-236.38 61.27,-222.01"/>
<polygon fill="black" stroke="black" points="64.2,-223.94 66.08,-213.51 58.1,-220.49 64.2,-223.94"/>
<text text-anchor="middle" x="64.51" y="-234.2" font-family="Times,serif" font-size="14.00">0/0</text>
</g>
<!-- S2&#45;&gt;S0 -->
<g id="edge4" class="edge">
<title>S2&#45;&gt;S0</title>
<path fill="none" stroke="black" d="M77.39,-213.35C79.79,-243.44 84.77,-305.58 87.7,-342.22"/>
<polygon fill="black" stroke="black" points="84.2,-342.38 88.49,-352.07 91.18,-341.82 84.2,-342.38"/>
<text text-anchor="middle" x="93.02" y="-278.45" font-family="Times,serif" font-size="14.00">0/0</text>
</g>
<!-- S3 -->
<g id="node4" class="node">
<title>S3</title>
<ellipse fill="none" stroke="black" cx="69" cy="-106.5" rx="27" ry="18"/>
<text text-anchor="middle" x="69" y="-101.45" font-family="Times,serif" font-size="14.00">S3</text>
</g>
<!-- S2&#45;&gt;S3 -->
<g id="edge5" class="edge">
<title>S2&#45;&gt;S3</title>
<path fill="none" stroke="black" d="M74.62,-176.91C73.67,-165.26 72.4,-149.55 71.31,-136.02"/>
<polygon fill="black" stroke="black" points="74.82,-136.04 70.53,-126.36 67.84,-136.61 74.82,-136.04"/>
<text text-anchor="middle" x="81.75" y="-145.7" font-family="Times,serif" font-size="14.00">1/0</text>
</g>
<!-- S3&#45;&gt;S1 -->
<g id="edge7" class="edge">
<title>S3&#45;&gt;S1</title>
<path fill="none" stroke="black" d="M55.24,-122.41C44.04,-135.64 29.08,-156.05 22.75,-177 15.1,-202.32 17.42,-232.61 20.91,-254.22"/>
<polygon fill="black" stroke="black" points="17.41,-254.55 22.64,-263.77 24.3,-253.3 17.41,-254.55"/>
<text text-anchor="middle" x="31.38" y="-189.95" font-family="Times,serif" font-size="14.00">1/0</text>
</g>
<!-- S4 -->
<g id="node5" class="node">
<title>S4</title>
<ellipse fill="none" stroke="black" cx="107" cy="-18" rx="27" ry="18"/>
<text text-anchor="middle" x="107" y="-12.95" font-family="Times,serif" font-size="14.00">S4</text>
</g>
<!-- S3&#45;&gt;S4 -->
<g id="edge6" class="edge">
<title>S3&#45;&gt;S4</title>
<path fill="none" stroke="black" d="M76.74,-88.8C79.39,-83.02 82.35,-76.49 85,-70.5 88.47,-62.64 92.17,-54.07 95.52,-46.22"/>
<polygon fill="black" stroke="black" points="98.69,-47.71 99.38,-37.14 92.25,-44.97 98.69,-47.71"/>
<text text-anchor="middle" x="100.39" y="-57.2" font-family="Times,serif" font-size="14.00">0/1</text>
</g>
<!-- S4&#45;&gt;S0 -->
<g id="edge8" class="edge">
<title>S4&#45;&gt;S0</title>
<path fill="none" stroke="black" d="M116.95,-35.24C126.34,-52.15 139,-79.72 139,-105.5 139,-284.5 139,-284.5 139,-284.5 139,-308.38 124.68,-331.72 111.53,-348.12"/>
<polygon fill="black" stroke="black" points="109.22,-345.44 105.42,-355.33 114.55,-349.97 109.22,-345.44"/>
<text text-anchor="middle" x="147.62" y="-189.95" font-family="Times,serif" font-size="14.00">0/0</text>
</g>
<!-- S4&#45;&gt;S3 -->
<g id="edge9" class="edge">
<title>S4&#45;&gt;S3</title>
<path fill="none" stroke="black" d="M86.67,-29.88C77.91,-35.75 68.58,-43.89 63.75,-54 60.36,-61.11 59.9,-69.39 60.77,-77.2"/>
<polygon fill="black" stroke="black" points="57.33,-77.83 62.62,-87.01 64.21,-76.53 57.33,-77.83"/>
<text text-anchor="middle" x="72.38" y="-57.2" font-family="Times,serif" font-size="14.00">1/0</text>
</g>
</g>
</svg>
