<?xml version="1.0" encoding="UTF-8" standalone="no"?>
<!DOCTYPE svg PUBLIC "-//W3C//DTD SVG 1.1//EN"
 "http://www.w3.org/Graphics/SVG/1.1/DTD/svg11.dtd">
<!-- Generated by graphviz version 12.1.1 (20240910.0053)
 -->
<!-- Pages: 1 -->
<svg width="184pt" height="221pt"
 viewBox="0.00 0.00 183.62 221.00" xmlns="http://www.w3.org/2000/svg" xmlns:xlink="http://www.w3.org/1999/xlink">
<g id="graph0" class="graph" transform="scale(1 1) rotate(0) translate(4 217)">
<polygon fill="white" stroke="none" points="-4,4 -4,-217 179.62,-217 179.62,4 -4,4"/>
<!-- S0 -->
<g id="node1" class="node">
<title>S0</title>
<ellipse fill="none" stroke="black" cx="27.81" cy="-195" rx="27.81" ry="18"/>
<text text-anchor="middle" x="27.81" y="-189.95" font-family="Times,serif" font-size="14.00">S0/0</text>
</g>
<!-- S0&#45;&gt;S0 -->
<g id="edge2" class="edge">
<title>S0&#45;&gt;S0</title>
<path fill="none" stroke="black" d="M52.78,-203.17C63.95,-203.95 73.62,-201.22 73.62,-195 73.62,-191.01 69.65,-188.46 63.86,-187.35"/>
<polygon fill="black" stroke="black" points="64.45,-183.87 54.29,-186.9 64.12,-190.87 64.45,-183.87"/>
<text text-anchor="middle" x="76.99" y="-189.95" font-family="Times,serif" font-size="14.00">1</text>
</g>
<!-- S1 -->
<g id="node2" class="node">
<title>S1</title>
<ellipse fill="none" stroke="black" cx="69.81" cy="-106.5" rx="27.81" ry="18"/>
<text text-anchor="middle" x="69.81" y="-101.45" font-family="Times,serif" font-size="14.00">S1/0</text>
</g>
<!-- S0&#45;&gt;S1 -->
<g id="edge1" class="edge">
<title>S0&#45;&gt;S1</title>
<path fill="none" stroke="black" d="M35.91,-177.32C41.83,-165.12 50,-148.3 56.83,-134.23"/>
<polygon fill="black" stroke="black" points="59.85,-136.01 61.07,-125.49 53.56,-132.96 59.85,-136.01"/>
<text text-anchor="middle" x="55.95" y="-145.7" font-family="Times,serif" font-size="14.00">0</text>
</g>
<!-- S1&#45;&gt;S1 -->
<g id="edge3" class="edge">
<title>S1&#45;&gt;S1</title>
<path fill="none" stroke="black" d="M94.78,-114.67C105.95,-115.45 115.62,-112.72 115.62,-106.5 115.62,-102.51 111.65,-99.96 105.86,-98.85"/>
<polygon fill="black" stroke="black" points="106.45,-95.37 96.29,-98.4 106.12,-102.37 106.45,-95.37"/>
<text text-anchor="middle" x="118.99" y="-101.45" font-family="Times,serif" font-size="14.00">0</text>
</g>
<!-- S2 -->
<g id="node3" class="node">
<title>S2</title>
<ellipse fill="none" stroke="black" cx="69.81" cy="-18" rx="27.81" ry="18"/>
<text text-anchor="middle" x="69.81" y="-12.95" font-family="Times,serif" font-size="14.00">S2/0</text>
</g>
<!-- S1&#45;&gt;S2 -->
<g id="edge4" class="edge">
<title>S1&#45;&gt;S2</title>
<path fill="none" stroke="black" d="M69.81,-88.41C69.81,-76.76 69.81,-61.05 69.81,-47.52"/>
<polygon fill="black" stroke="black" points="73.31,-47.86 69.81,-37.86 66.31,-47.86 73.31,-47.86"/>
<text text-anchor="middle" x="73.18" y="-57.2" font-family="Times,serif" font-size="14.00">1</text>
</g>
<!-- S2&#45;&gt;S0 -->
<g id="edge5" class="edge">
<title>S2&#45;&gt;S0</title>
<path fill="none" stroke="black" d="M56.57,-34.31C45.99,-47.62 31.99,-67.95 26.06,-88.5 18.76,-113.78 20.21,-143.9 22.88,-165.47"/>
<polygon fill="black" stroke="black" points="19.4,-165.88 24.27,-175.29 26.33,-164.89 19.4,-165.88"/>
<text text-anchor="middle" x="29.43" y="-101.45" font-family="Times,serif" font-size="14.00">1</text>
</g>
<!-- S3 -->
<g id="node4" class="node">
<title>S3</title>
<ellipse fill="none" stroke="black" cx="147.81" cy="-195" rx="27.81" ry="18"/>
<text text-anchor="middle" x="147.81" y="-189.95" font-family="Times,serif" font-size="14.00">S3/1</text>
</g>
<!-- S3&#45;&gt;S1 -->
<g id="edge6" class="edge">
<title>S3&#45;&gt;S1</title>
<path fill="none" stroke="black" d="M134.22,-178.93C122.33,-165.74 104.85,-146.36 91.1,-131.11"/>
<polygon fill="black" stroke="black" points="93.81,-128.89 84.51,-123.81 88.61,-133.58 93.81,-128.89"/>
<text text-anchor="middle" x="119.17" y="-145.7" font-family="Times,serif" font-size="14.00">0</text>
</g>
<!-- S3&#45;&gt;S2 -->
<g id="edge7" class="edge">
<title>S3&#45;&gt;S2</title>
<path fill="none" stroke="black" d="M148.15,-176.69C147.93,-155.05 145.36,-117.34 131.81,-88.5 123.17,-70.13 108.1,-53.07 94.98,-40.45"/>
<polygon fill="black" stroke="black" points="97.56,-38.07 87.84,-33.85 92.81,-43.21 97.56,-38.07"/>
<text text-anchor="middle" x="146.36" y="-101.45" font-family="Times,serif" font-size="14.00">1</text>
</g>
</g>
</svg>
