<?xml version="1.0" encoding="UTF-8" standalone="no"?>
<!DOCTYPE svg PUBLIC "-//W3C//DTD SVG 1.1//EN"
 "http://www.w3.org/Graphics/SVG/1.1/DTD/svg11.dtd">
<!-- Generated by graphviz version 12.1.1 (20240910.0053)
 -->
<!-- Pages: 1 -->
<svg width="213pt" height="310pt"
 viewBox="0.00 0.00 213.25 309.50" xmlns="http://www.w3.org/2000/svg" xmlns:xlink="http://www.w3.org/1999/xlink">
<g id="graph0" class="graph" transform="scale(1 1) rotate(0) translate(4 305.5)">
<polygon fill="white" stroke="none" points="-4,4 -4,-305.5 209.25,-305.5 209.25,4 -4,4"/>
<!-- S0 -->
<g id="node1" class="node">
<title>S0</title>
<ellipse fill="none" stroke="black" cx="143" cy="-106.5" rx="27" ry="18"/>
<text text-anchor="middle" x="143" y="-101.45" font-family="Times,serif" font-size="14.00">S0</text>
</g>
<!-- S0&#45;&gt;S0 -->
<g id="edge1" class="edge">
<title>S0&#45;&gt;S0</title>
<path fill="none" stroke="black" d="M167.53,-114.67C178.51,-115.45 188,-112.72 188,-106.5 188,-102.61 184.29,-100.09 178.83,-98.93"/>
<polygon fill="black" stroke="black" points="179.22,-95.45 169.04,-98.41 178.84,-102.44 179.22,-95.45"/>
<text text-anchor="middle" x="196.62" y="-101.45" font-family="Times,serif" font-size="14.00">0/0</text>
</g>
<!-- S1 -->
<g id="node2" class="node">
<title>S1</title>
<ellipse fill="none" stroke="black" cx="143" cy="-18" rx="27" ry="18"/>
<text text-anchor="middle" x="143" y="-12.95" font-family="Times,serif" font-size="14.00">S1</text>
</g>
<!-- S0&#45;&gt;S1 -->
<g id="edge2" class="edge">
<title>S0&#45;&gt;S1</title>
<path fill="none" stroke="black" d="M132.19,-89.83C128.79,-84.03 125.48,-77.22 123.75,-70.5 121.93,-63.4 121.93,-61.1 123.75,-54 124.56,-50.85 125.72,-47.68 127.07,-44.61"/>
<polygon fill="black" stroke="black" points="130.03,-46.51 131.5,-36.01 123.8,-43.3 130.03,-46.51"/>
<text text-anchor="middle" x="132.38" y="-57.2" font-family="Times,serif" font-size="14.00">1/0</text>
</g>
<!-- S1&#45;&gt;S0 -->
<g id="edge3" class="edge">
<title>S1&#45;&gt;S0</title>
<path fill="none" stroke="black" d="M143,-36.35C143,-48.06 143,-63.79 143,-77.28"/>
<polygon fill="black" stroke="black" points="139.5,-76.9 143,-86.9 146.5,-76.9 139.5,-76.9"/>
<text text-anchor="middle" x="151.62" y="-57.2" font-family="Times,serif" font-size="14.00">0/0</text>
</g>
<!-- S2 -->
<g id="node3" class="node">
<title>S2</title>
<ellipse fill="none" stroke="black" cx="27" cy="-106.5" rx="27" ry="18"/>
<text text-anchor="middle" x="27" y="-101.45" font-family="Times,serif" font-size="14.00">S2</text>
</g>
<!-- S2&#45;&gt;S2 -->
<g id="edge5" class="edge">
<title>S2&#45;&gt;S2</title>
<path fill="none" stroke="black" d="M51.53,-114.67C62.51,-115.45 72,-112.72 72,-106.5 72,-102.61 68.29,-100.09 62.83,-98.93"/>
<polygon fill="black" stroke="black" points="63.22,-95.45 53.04,-98.41 62.84,-102.44 63.22,-95.45"/>
<text text-anchor="middle" x="80.62" y="-101.45" font-family="Times,serif" font-size="14.00">1/0</text>
</g>
<!-- S3 -->
<g id="node4" class="node">
<title>S3</title>
<ellipse fill="none" stroke="black" cx="84" cy="-283.5" rx="27" ry="18"/>
<text text-anchor="middle" x="84" y="-278.45" font-family="Times,serif" font-size="14.00">S3</text>
</g>
<!-- S2&#45;&gt;S3 -->
<g id="edge4" class="edge">
<title>S2&#45;&gt;S3</title>
<path fill="none" stroke="black" d="M24.46,-124.91C22.05,-146.34 20.16,-183.5 30.75,-213 37.09,-230.67 49.71,-247.46 61.07,-260.12"/>
<polygon fill="black" stroke="black" points="58.21,-262.18 67.6,-267.07 63.31,-257.39 58.21,-262.18"/>
<text text-anchor="middle" x="39.38" y="-189.95" font-family="Times,serif" font-size="14.00">0/0</text>
</g>
<!-- S3&#45;&gt;S0 -->
<g id="edge6" class="edge">
<title>S3&#45;&gt;S0</title>
<path fill="none" stroke="black" d="M94.28,-266.37C97.84,-260.52 101.76,-253.8 105,-247.5 123.88,-210.82 124.24,-199.31 133,-159 134.62,-151.52 136.26,-143.41 137.72,-135.88"/>
<polygon fill="black" stroke="black" points="141.14,-136.67 139.57,-126.19 134.26,-135.36 141.14,-136.67"/>
<text text-anchor="middle" x="137.82" y="-189.95" font-family="Times,serif" font-size="14.00">0/0</text>
</g>
<!-- S4 -->
<g id="node5" class="node">
<title>S4</title>
<ellipse fill="none" stroke="black" cx="84" cy="-195" rx="27" ry="18"/>
<text text-anchor="middle" x="84" y="-189.95" font-family="Times,serif" font-size="14.00">S4</text>
</g>
<!-- S3&#45;&gt;S4 -->
<g id="edge7" class="edge">
<title>S3&#45;&gt;S4</title>
<path fill="none" stroke="black" d="M84,-265.41C84,-253.76 84,-238.05 84,-224.52"/>
<polygon fill="black" stroke="black" points="87.5,-224.86 84,-214.86 80.5,-224.86 87.5,-224.86"/>
<text text-anchor="middle" x="92.62" y="-234.2" font-family="Times,serif" font-size="14.00">1/1</text>
</g>
<!-- S4&#45;&gt;S0 -->
<g id="edge8" class="edge">
<title>S4&#45;&gt;S0</title>
<path fill="none" stroke="black" d="M93.29,-177.94C99.4,-167.63 107.72,-154.06 115.75,-142.5 118.18,-139.01 120.83,-135.39 123.49,-131.87"/>
<polygon fill="black" stroke="black" points="126.14,-134.15 129.49,-124.1 120.61,-129.87 126.14,-134.15"/>
<text text-anchor="middle" x="124.38" y="-145.7" font-family="Times,serif" font-size="14.00">0/0</text>
</g>
<!-- S4&#45;&gt;S2 -->
<g id="edge9" class="edge">
<title>S4&#45;&gt;S2</title>
<path fill="none" stroke="black" d="M73.55,-178.13C65.24,-165.53 53.47,-147.66 43.84,-133.05"/>
<polygon fill="black" stroke="black" points="46.84,-131.25 38.41,-124.82 40.99,-135.1 46.84,-131.25"/>
<text text-anchor="middle" x="69.23" y="-145.7" font-family="Times,serif" font-size="14.00">1/0</text>
</g>
</g>
</svg>
