<?xml version="1.0" encoding="UTF-8" standalone="no"?>
<!DOCTYPE svg PUBLIC "-//W3C//DTD SVG 1.1//EN"
 "http://www.w3.org/Graphics/SVG/1.1/DTD/svg11.dtd">
<!-- Generated by graphviz version 12.0.0 (20240704.0754)
 -->
<!-- Pages: 1 -->
<svg width="208pt" height="395pt"
 viewBox="0.00 0.00 208.36 395.00" xmlns="http://www.w3.org/2000/svg" xmlns:xlink="http://www.w3.org/1999/xlink">
<g id="graph0" class="graph" transform="scale(1 1) rotate(0) translate(4 391)">
<polygon fill="white" stroke="none" points="-4,4 -4,-391 204.36,-391 204.36,4 -4,4"/>
<!-- S0 -->
<g id="node1" class="node">
<title>S0</title>
<ellipse fill="none" stroke="black" cx="132.61" cy="-369" rx="27.61" ry="18"/>
<text text-anchor="middle" x="132.61" y="-363.57" font-family="Times New Roman,serif" font-size="14.00">S0/0</text>
</g>
<!-- S0&#45;&gt;S0 -->
<g id="edge2" class="edge">
<title>S0&#45;&gt;S0</title>
<path fill="none" stroke="black" d="M157.48,-377.1C168.6,-377.87 178.22,-375.17 178.22,-369 178.22,-365.14 174.46,-362.64 168.93,-361.5"/>
<polygon fill="black" stroke="black" points="169.16,-358.01 158.99,-360.98 168.79,-365 169.16,-358.01"/>
<text text-anchor="middle" x="181.6" y="-363.57" font-family="Times New Roman,serif" font-size="14.00">1</text>
</g>
<!-- S1 -->
<g id="node2" class="node">
<title>S1</title>
<ellipse fill="none" stroke="black" cx="27.61" cy="-281.25" rx="27.61" ry="18"/>
<text text-anchor="middle" x="27.61" y="-275.82" font-family="Times New Roman,serif" font-size="14.00">S1/0</text>
</g>
<!-- S0&#45;&gt;S1 -->
<g id="edge1" class="edge">
<title>S0&#45;&gt;S1</title>
<path fill="none" stroke="black" d="M115.74,-354.22C98.83,-340.41 72.57,-318.96 53.11,-303.07"/>
<polygon fill="black" stroke="black" points="55.57,-300.56 45.61,-296.95 51.14,-305.99 55.57,-300.56"/>
<text text-anchor="middle" x="92.99" y="-319.7" font-family="Times New Roman,serif" font-size="14.00">0</text>
</g>
<!-- S1&#45;&gt;S1 -->
<g id="edge3" class="edge">
<title>S1&#45;&gt;S1</title>
<path fill="none" stroke="black" d="M52.48,-289.35C63.6,-290.12 73.22,-287.42 73.22,-281.25 73.22,-277.39 69.46,-274.89 63.93,-273.75"/>
<polygon fill="black" stroke="black" points="64.16,-270.26 53.99,-273.23 63.79,-277.25 64.16,-270.26"/>
<text text-anchor="middle" x="76.6" y="-275.82" font-family="Times New Roman,serif" font-size="14.00">0</text>
</g>
<!-- S2 -->
<g id="node3" class="node">
<title>S2</title>
<ellipse fill="none" stroke="black" cx="86.61" cy="-193.5" rx="27.61" ry="18"/>
<text text-anchor="middle" x="86.61" y="-188.07" font-family="Times New Roman,serif" font-size="14.00">S2/0</text>
</g>
<!-- S1&#45;&gt;S2 -->
<g id="edge4" class="edge">
<title>S1&#45;&gt;S2</title>
<path fill="none" stroke="black" d="M38.43,-264.52C47.03,-252.03 59.22,-234.31 69.18,-219.83"/>
<polygon fill="black" stroke="black" points="72.02,-221.89 74.8,-211.67 66.25,-217.92 72.02,-221.89"/>
<text text-anchor="middle" x="65.99" y="-231.95" font-family="Times New Roman,serif" font-size="14.00">1</text>
</g>
<!-- S2&#45;&gt;S0 -->
<g id="edge6" class="edge">
<title>S2&#45;&gt;S0</title>
<path fill="none" stroke="black" d="M91.12,-211.52C99.07,-241.5 115.64,-303.98 125.26,-340.26"/>
<polygon fill="black" stroke="black" points="121.78,-340.82 127.73,-349.59 128.55,-339.02 121.78,-340.82"/>
<text text-anchor="middle" x="116.99" y="-275.82" font-family="Times New Roman,serif" font-size="14.00">1</text>
</g>
<!-- S3 -->
<g id="node4" class="node">
<title>S3</title>
<ellipse fill="none" stroke="black" cx="92.61" cy="-105.75" rx="27.61" ry="18"/>
<text text-anchor="middle" x="92.61" y="-100.33" font-family="Times New Roman,serif" font-size="14.00">S3/0</text>
</g>
<!-- S2&#45;&gt;S3 -->
<g id="edge5" class="edge">
<title>S2&#45;&gt;S3</title>
<path fill="none" stroke="black" d="M87.83,-175.15C88.62,-163.76 89.68,-148.59 90.6,-135.43"/>
<polygon fill="black" stroke="black" points="94.09,-135.81 91.29,-125.59 87.1,-135.32 94.09,-135.81"/>
<text text-anchor="middle" x="93.99" y="-144.2" font-family="Times New Roman,serif" font-size="14.00">0</text>
</g>
<!-- S4 -->
<g id="node5" class="node">
<title>S4</title>
<ellipse fill="none" stroke="black" cx="150.61" cy="-18" rx="27.61" ry="18"/>
<text text-anchor="middle" x="150.61" y="-12.57" font-family="Times New Roman,serif" font-size="14.00">S4/1</text>
</g>
<!-- S3&#45;&gt;S4 -->
<g id="edge7" class="edge">
<title>S3&#45;&gt;S4</title>
<path fill="none" stroke="black" d="M103.25,-89.02C111.7,-76.53 123.68,-58.81 133.48,-44.33"/>
<polygon fill="black" stroke="black" points="136.29,-46.42 139,-36.17 130.49,-42.49 136.29,-46.42"/>
<text text-anchor="middle" x="129.99" y="-56.45" font-family="Times New Roman,serif" font-size="14.00">1</text>
</g>
<!-- S4&#45;&gt;S0 -->
<g id="edge8" class="edge">
<title>S4&#45;&gt;S0</title>
<path fill="none" stroke="black" d="M150.61,-36.41C150.61,-53.73 150.61,-81.08 150.61,-104.75 150.61,-282.25 150.61,-282.25 150.61,-282.25 150.61,-302.03 145.97,-323.83 141.4,-340.5"/>
<polygon fill="black" stroke="black" points="138.16,-339.1 138.73,-349.68 144.88,-341.06 138.16,-339.1"/>
<text text-anchor="middle" x="153.99" y="-188.07" font-family="Times New Roman,serif" font-size="14.00">0</text>
</g>
<!-- S4&#45;&gt;S0 -->
<g id="edge9" class="edge">
<title>S4&#45;&gt;S0</title>
<path fill="none" stroke="black" d="M163.75,-34.28C176.39,-50.6 193.61,-77.77 193.61,-104.75 193.61,-282.25 193.61,-282.25 193.61,-282.25 193.61,-307.92 175.24,-331.24 158.65,-347.06"/>
<polygon fill="black" stroke="black" points="156.47,-344.32 151.38,-353.61 161.15,-349.52 156.47,-344.32"/>
<text text-anchor="middle" x="196.99" y="-188.07" font-family="Times New Roman,serif" font-size="14.00">1</text>
</g>
</g>
</svg>
