<?xml version="1.0" encoding="UTF-8" standalone="no"?>
<!DOCTYPE svg PUBLIC "-//W3C//DTD SVG 1.1//EN"
 "http://www.w3.org/Graphics/SVG/1.1/DTD/svg11.dtd">
<!-- Generated by graphviz version 12.1.1 (20240910.0053)
 -->
<!-- Pages: 1 -->
<svg width="142pt" height="310pt"
 viewBox="0.00 0.00 142.25 309.50" xmlns="http://www.w3.org/2000/svg" xmlns:xlink="http://www.w3.org/1999/xlink">
<g id="graph0" class="graph" transform="scale(1 1) rotate(0) translate(4 305.5)">
<polygon fill="white" stroke="none" points="-4,4 -4,-305.5 138.25,-305.5 138.25,4 -4,4"/>
<!-- S0 -->
<g id="node1" class="node">
<title>S0</title>
<ellipse fill="none" stroke="black" cx="27" cy="-106.5" rx="27" ry="18"/>
<text text-anchor="middle" x="27" y="-101.45" font-family="Times,serif" font-size="14.00">S0</text>
</g>
<!-- S0&#45;&gt;S0 -->
<g id="edge2" class="edge">
<title>S0&#45;&gt;S0</title>
<path fill="none" stroke="black" d="M51.53,-114.67C62.51,-115.45 72,-112.72 72,-106.5 72,-102.61 68.29,-100.09 62.83,-98.93"/>
<polygon fill="black" stroke="black" points="63.22,-95.45 53.04,-98.41 62.84,-102.44 63.22,-95.45"/>
<text text-anchor="middle" x="80.62" y="-101.45" font-family="Times,serif" font-size="14.00">1/0</text>
</g>
<!-- S1 -->
<g id="node2" class="node">
<title>S1</title>
<ellipse fill="none" stroke="black" cx="72" cy="-18" rx="27" ry="18"/>
<text text-anchor="middle" x="72" y="-12.95" font-family="Times,serif" font-size="14.00">S1</text>
</g>
<!-- S0&#45;&gt;S1 -->
<g id="edge1" class="edge">
<title>S0&#45;&gt;S1</title>
<path fill="none" stroke="black" d="M35.46,-89.23C41.83,-76.98 50.7,-59.93 58.11,-45.7"/>
<polygon fill="black" stroke="black" points="61.21,-47.32 62.72,-36.83 55,-44.09 61.21,-47.32"/>
<text text-anchor="middle" x="62.16" y="-57.2" font-family="Times,serif" font-size="14.00">0/0</text>
</g>
<!-- S1&#45;&gt;S1 -->
<g id="edge3" class="edge">
<title>S1&#45;&gt;S1</title>
<path fill="none" stroke="black" d="M96.53,-26.17C107.51,-26.95 117,-24.22 117,-18 117,-14.11 113.29,-11.59 107.83,-10.43"/>
<polygon fill="black" stroke="black" points="108.22,-6.95 98.04,-9.91 107.84,-13.94 108.22,-6.95"/>
<text text-anchor="middle" x="125.62" y="-12.95" font-family="Times,serif" font-size="14.00">0/0</text>
</g>
<!-- S2 -->
<g id="node3" class="node">
<title>S2</title>
<ellipse fill="none" stroke="black" cx="40" cy="-195" rx="27" ry="18"/>
<text text-anchor="middle" x="40" y="-189.95" font-family="Times,serif" font-size="14.00">S2</text>
</g>
<!-- S2&#45;&gt;S0 -->
<g id="edge5" class="edge">
<title>S2&#45;&gt;S0</title>
<path fill="none" stroke="black" d="M37.43,-176.91C35.68,-165.26 33.32,-149.55 31.29,-136.02"/>
<polygon fill="black" stroke="black" points="34.78,-135.72 29.83,-126.35 27.86,-136.76 34.78,-135.72"/>
<text text-anchor="middle" x="43.29" y="-145.7" font-family="Times,serif" font-size="14.00">1/0</text>
</g>
<!-- S3 -->
<g id="node4" class="node">
<title>S3</title>
<ellipse fill="none" stroke="black" cx="80" cy="-283.5" rx="27" ry="18"/>
<text text-anchor="middle" x="80" y="-278.45" font-family="Times,serif" font-size="14.00">S3</text>
</g>
<!-- S2&#45;&gt;S3 -->
<g id="edge4" class="edge">
<title>S2&#45;&gt;S3</title>
<path fill="none" stroke="black" d="M48.67,-212.26C51.71,-218.12 55.09,-224.82 58,-231 61.65,-238.77 65.41,-247.32 68.75,-255.17"/>
<polygon fill="black" stroke="black" points="65.48,-256.41 72.58,-264.27 71.93,-253.7 65.48,-256.41"/>
<text text-anchor="middle" x="73.6" y="-234.2" font-family="Times,serif" font-size="14.00">0/1</text>
</g>
<!-- S3&#45;&gt;S1 -->
<g id="edge6" class="edge">
<title>S3&#45;&gt;S1</title>
<path fill="none" stroke="black" d="M84.65,-265.5C93.24,-231.59 109.71,-153.24 98,-88.5 95.37,-73.99 89.9,-58.56 84.65,-45.93"/>
<polygon fill="black" stroke="black" points="87.97,-44.81 80.77,-37.04 81.56,-47.61 87.97,-44.81"/>
<text text-anchor="middle" x="110.65" y="-145.7" font-family="Times,serif" font-size="14.00">0/0</text>
</g>
<!-- S3&#45;&gt;S2 -->
<g id="edge7" class="edge">
<title>S3&#45;&gt;S2</title>
<path fill="none" stroke="black" d="M59.67,-271.62C50.91,-265.75 41.58,-257.61 36.75,-247.5 33.37,-240.41 32.68,-232.14 33.24,-224.33"/>
<polygon fill="black" stroke="black" points="36.69,-224.93 34.65,-214.53 29.77,-223.93 36.69,-224.93"/>
<text text-anchor="middle" x="45.38" y="-234.2" font-family="Times,serif" font-size="14.00">1/0</text>
</g>
</g>
</svg>
