<?xml version="1.0" encoding="UTF-8" standalone="no"?>
<!DOCTYPE svg PUBLIC "-//W3C//DTD SVG 1.1//EN"
 "http://www.w3.org/Graphics/SVG/1.1/DTD/svg11.dtd">
<!-- Generated by graphviz version 12.0.0 (20240704.0754)
 -->
<!-- Pages: 1 -->
<svg width="144pt" height="395pt"
 viewBox="0.00 0.00 143.97 395.00" xmlns="http://www.w3.org/2000/svg" xmlns:xlink="http://www.w3.org/1999/xlink">
<g id="graph0" class="graph" transform="scale(1 1) rotate(0) translate(4 391)">
<polygon fill="white" stroke="none" points="-4,4 -4,-391 139.97,-391 139.97,4 -4,4"/>
<!-- S0 -->
<g id="node1" class="node">
<title>S0</title>
<ellipse fill="none" stroke="black" cx="43.61" cy="-105.75" rx="27.61" ry="18"/>
<text text-anchor="middle" x="43.61" y="-100.33" font-family="Times New Roman,serif" font-size="14.00">S0/0</text>
</g>
<!-- S0&#45;&gt;S0 -->
<g id="edge1" class="edge">
<title>S0&#45;&gt;S0</title>
<path fill="none" stroke="black" d="M68.48,-113.85C79.6,-114.62 89.22,-111.92 89.22,-105.75 89.22,-101.89 85.46,-99.39 79.93,-98.25"/>
<polygon fill="black" stroke="black" points="80.16,-94.76 69.99,-97.73 79.79,-101.75 80.16,-94.76"/>
<text text-anchor="middle" x="92.6" y="-100.33" font-family="Times New Roman,serif" font-size="14.00">0</text>
</g>
<!-- S1 -->
<g id="node2" class="node">
<title>S1</title>
<ellipse fill="none" stroke="black" cx="83.61" cy="-18" rx="27.61" ry="18"/>
<text text-anchor="middle" x="83.61" y="-12.57" font-family="Times New Roman,serif" font-size="14.00">S1/0</text>
</g>
<!-- S0&#45;&gt;S1 -->
<g id="edge2" class="edge">
<title>S0&#45;&gt;S1</title>
<path fill="none" stroke="black" d="M51.32,-88.22C56.91,-76.24 64.59,-59.77 71.06,-45.91"/>
<polygon fill="black" stroke="black" points="74.23,-47.4 75.28,-36.85 67.88,-44.44 74.23,-47.4"/>
<text text-anchor="middle" x="69.99" y="-56.45" font-family="Times New Roman,serif" font-size="14.00">1</text>
</g>
<!-- S1&#45;&gt;S1 -->
<g id="edge3" class="edge">
<title>S1&#45;&gt;S1</title>
<path fill="none" stroke="black" d="M108.48,-26.1C119.6,-26.87 129.22,-24.17 129.22,-18 129.22,-14.14 125.46,-11.64 119.93,-10.5"/>
<polygon fill="black" stroke="black" points="120.16,-7.01 109.99,-9.98 119.79,-14 120.16,-7.01"/>
<text text-anchor="middle" x="132.6" y="-12.57" font-family="Times New Roman,serif" font-size="14.00">1</text>
</g>
<!-- S2 -->
<g id="node3" class="node">
<title>S2</title>
<ellipse fill="none" stroke="black" cx="27.61" cy="-369" rx="27.61" ry="18"/>
<text text-anchor="middle" x="27.61" y="-363.57" font-family="Times New Roman,serif" font-size="14.00">S2/0</text>
</g>
<!-- S2&#45;&gt;S0 -->
<g id="edge4" class="edge">
<title>S2&#45;&gt;S0</title>
<path fill="none" stroke="black" d="M26.89,-350.69C25.71,-316.9 24.07,-239.84 30.61,-175.5 31.98,-162.04 34.62,-147.27 37.16,-134.89"/>
<polygon fill="black" stroke="black" points="40.53,-135.86 39.21,-125.35 33.69,-134.39 40.53,-135.86"/>
<text text-anchor="middle" x="29.99" y="-231.95" font-family="Times New Roman,serif" font-size="14.00">0</text>
</g>
<!-- S3 -->
<g id="node4" class="node">
<title>S3</title>
<ellipse fill="none" stroke="black" cx="67.61" cy="-281.25" rx="27.61" ry="18"/>
<text text-anchor="middle" x="67.61" y="-275.82" font-family="Times New Roman,serif" font-size="14.00">S3/0</text>
</g>
<!-- S2&#45;&gt;S3 -->
<g id="edge5" class="edge">
<title>S2&#45;&gt;S3</title>
<path fill="none" stroke="black" d="M35.32,-351.47C40.91,-339.49 48.59,-323.02 55.06,-309.16"/>
<polygon fill="black" stroke="black" points="58.23,-310.65 59.28,-300.1 51.88,-307.69 58.23,-310.65"/>
<text text-anchor="middle" x="53.99" y="-319.7" font-family="Times New Roman,serif" font-size="14.00">1</text>
</g>
<!-- S3&#45;&gt;S1 -->
<g id="edge7" class="edge">
<title>S3&#45;&gt;S1</title>
<path fill="none" stroke="black" d="M79.01,-264.52C87.95,-251.16 99.68,-231.08 104.61,-211.5 118.05,-158.17 112.73,-142.15 104.61,-87.75 102.54,-73.86 98.23,-58.89 94.05,-46.48"/>
<polygon fill="black" stroke="black" points="97.45,-45.6 90.82,-37.34 90.85,-47.93 97.45,-45.6"/>
<text text-anchor="middle" x="115.99" y="-144.2" font-family="Times New Roman,serif" font-size="14.00">1</text>
</g>
<!-- S4 -->
<g id="node5" class="node">
<title>S4</title>
<ellipse fill="none" stroke="black" cx="67.61" cy="-193.5" rx="27.61" ry="18"/>
<text text-anchor="middle" x="67.61" y="-188.07" font-family="Times New Roman,serif" font-size="14.00">S4/1</text>
</g>
<!-- S3&#45;&gt;S4 -->
<g id="edge6" class="edge">
<title>S3&#45;&gt;S4</title>
<path fill="none" stroke="black" d="M67.61,-262.9C67.61,-251.51 67.61,-236.34 67.61,-223.18"/>
<polygon fill="black" stroke="black" points="71.11,-223.34 67.61,-213.34 64.11,-223.34 71.11,-223.34"/>
<text text-anchor="middle" x="70.99" y="-231.95" font-family="Times New Roman,serif" font-size="14.00">0</text>
</g>
<!-- S4&#45;&gt;S0 -->
<g id="edge8" class="edge">
<title>S4&#45;&gt;S0</title>
<path fill="none" stroke="black" d="M62.87,-175.56C59.64,-164.01 55.28,-148.43 51.52,-135.02"/>
<polygon fill="black" stroke="black" points="54.9,-134.09 48.83,-125.41 48.16,-135.98 54.9,-134.09"/>
<text text-anchor="middle" x="60.99" y="-144.2" font-family="Times New Roman,serif" font-size="14.00">0</text>
</g>
<!-- S4&#45;&gt;S0 -->
<g id="edge9" class="edge">
<title>S4&#45;&gt;S0</title>
<path fill="none" stroke="black" d="M56.83,-176.78C53.38,-170.97 49.91,-164.17 47.86,-157.5 45.7,-150.49 44.5,-142.69 43.85,-135.35"/>
<polygon fill="black" stroke="black" points="47.36,-135.32 43.32,-125.52 40.37,-135.7 47.36,-135.32"/>
<text text-anchor="middle" x="50.99" y="-144.2" font-family="Times New Roman,serif" font-size="14.00">1</text>
</g>
</g>
</svg>
