<?xml version="1.0" encoding="UTF-8" standalone="no"?>
<!DOCTYPE svg PUBLIC "-//W3C//DTD SVG 1.1//EN"
 "http://www.w3.org/Graphics/SVG/1.1/DTD/svg11.dtd">
<!-- Generated by graphviz version 12.1.1 (20240910.0053)
 -->
<!-- Pages: 1 -->
<svg width="129pt" height="310pt"
 viewBox="0.00 0.00 129.25 309.50" xmlns="http://www.w3.org/2000/svg" xmlns:xlink="http://www.w3.org/1999/xlink">
<g id="graph0" class="graph" transform="scale(1 1) rotate(0) translate(4 305.5)">
<polygon fill="white" stroke="none" points="-4,4 -4,-305.5 125.25,-305.5 125.25,4 -4,4"/>
<!-- S0 -->
<g id="node1" class="node">
<title>S0</title>
<ellipse fill="none" stroke="black" cx="59" cy="-283.5" rx="27" ry="18"/>
<text text-anchor="middle" x="59" y="-278.45" font-family="Times,serif" font-size="14.00">S0</text>
</g>
<!-- S0&#45;&gt;S0 -->
<g id="edge1" class="edge">
<title>S0&#45;&gt;S0</title>
<path fill="none" stroke="black" d="M83.53,-291.67C94.51,-292.45 104,-289.72 104,-283.5 104,-279.61 100.29,-277.09 94.83,-275.93"/>
<polygon fill="black" stroke="black" points="95.22,-272.45 85.04,-275.41 94.84,-279.44 95.22,-272.45"/>
<text text-anchor="middle" x="112.62" y="-278.45" font-family="Times,serif" font-size="14.00">0/0</text>
</g>
<!-- S1 -->
<g id="node2" class="node">
<title>S1</title>
<ellipse fill="none" stroke="black" cx="59" cy="-195" rx="27" ry="18"/>
<text text-anchor="middle" x="59" y="-189.95" font-family="Times,serif" font-size="14.00">S1</text>
</g>
<!-- S0&#45;&gt;S1 -->
<g id="edge2" class="edge">
<title>S0&#45;&gt;S1</title>
<path fill="none" stroke="black" d="M59,-265.41C59,-253.76 59,-238.05 59,-224.52"/>
<polygon fill="black" stroke="black" points="62.5,-224.86 59,-214.86 55.5,-224.86 62.5,-224.86"/>
<text text-anchor="middle" x="67.62" y="-234.2" font-family="Times,serif" font-size="14.00">1/0</text>
</g>
<!-- S1&#45;&gt;S1 -->
<g id="edge4" class="edge">
<title>S1&#45;&gt;S1</title>
<path fill="none" stroke="black" d="M83.53,-203.17C94.51,-203.95 104,-201.22 104,-195 104,-191.11 100.29,-188.59 94.83,-187.43"/>
<polygon fill="black" stroke="black" points="95.22,-183.95 85.04,-186.91 94.84,-190.94 95.22,-183.95"/>
<text text-anchor="middle" x="112.62" y="-189.95" font-family="Times,serif" font-size="14.00">1/0</text>
</g>
<!-- S2 -->
<g id="node3" class="node">
<title>S2</title>
<ellipse fill="none" stroke="black" cx="27" cy="-106.5" rx="27" ry="18"/>
<text text-anchor="middle" x="27" y="-101.45" font-family="Times,serif" font-size="14.00">S2</text>
</g>
<!-- S1&#45;&gt;S2 -->
<g id="edge3" class="edge">
<title>S1&#45;&gt;S2</title>
<path fill="none" stroke="black" d="M52.83,-177.32C48.39,-165.31 42.29,-148.84 37.14,-134.91"/>
<polygon fill="black" stroke="black" points="40.54,-134.01 33.79,-125.84 33.97,-136.43 40.54,-134.01"/>
<text text-anchor="middle" x="54.49" y="-145.7" font-family="Times,serif" font-size="14.00">0/0</text>
</g>
<!-- S3 -->
<g id="node4" class="node">
<title>S3</title>
<ellipse fill="none" stroke="black" cx="58" cy="-18" rx="27" ry="18"/>
<text text-anchor="middle" x="58" y="-12.95" font-family="Times,serif" font-size="14.00">S3</text>
</g>
<!-- S2&#45;&gt;S3 -->
<g id="edge5" class="edge">
<title>S2&#45;&gt;S3</title>
<path fill="none" stroke="black" d="M19.78,-89.1C16.28,-78.66 13.79,-65.07 18.75,-54 21.36,-48.17 25.48,-42.91 30.09,-38.34"/>
<polygon fill="black" stroke="black" points="32.27,-41.09 37.54,-31.9 27.69,-35.79 32.27,-41.09"/>
<text text-anchor="middle" x="27.38" y="-57.2" font-family="Times,serif" font-size="14.00">1/1</text>
</g>
<!-- S3&#45;&gt;S1 -->
<g id="edge7" class="edge">
<title>S3&#45;&gt;S1</title>
<path fill="none" stroke="black" d="M63.27,-35.92C64.79,-41.61 66.24,-48.02 67,-54 72.86,-100.3 72.23,-112.63 67,-159 66.75,-161.23 66.41,-163.52 66.01,-165.82"/>
<polygon fill="black" stroke="black" points="62.6,-165.06 63.99,-175.56 69.45,-166.48 62.6,-165.06"/>
<text text-anchor="middle" x="79.79" y="-101.45" font-family="Times,serif" font-size="14.00">1/0</text>
</g>
<!-- S3&#45;&gt;S2 -->
<g id="edge6" class="edge">
<title>S3&#45;&gt;S2</title>
<path fill="none" stroke="black" d="M51.94,-35.92C47.61,-47.99 41.7,-64.47 36.72,-78.37"/>
<polygon fill="black" stroke="black" points="33.57,-76.8 33.49,-87.4 40.16,-79.16 33.57,-76.8"/>
<text text-anchor="middle" x="53.9" y="-57.2" font-family="Times,serif" font-size="14.00">0/0</text>
</g>
</g>
</svg>
