<?xml version="1.0" encoding="UTF-8" standalone="no"?>
<!DOCTYPE svg PUBLIC "-//W3C//DTD SVG 1.1//EN"
 "http://www.w3.org/Graphics/SVG/1.1/DTD/svg11.dtd">
<!-- Generated by graphviz version 12.0.0 (20240704.0754)
 -->
<!-- Pages: 1 -->
<svg width="128pt" height="307pt"
 viewBox="0.00 0.00 127.97 307.25" xmlns="http://www.w3.org/2000/svg" xmlns:xlink="http://www.w3.org/1999/xlink">
<g id="graph0" class="graph" transform="scale(1 1) rotate(0) translate(4 303.25)">
<polygon fill="white" stroke="none" points="-4,4 -4,-303.25 123.97,-303.25 123.97,4 -4,4"/>
<!-- S0 -->
<g id="node1" class="node">
<title>S0</title>
<ellipse fill="none" stroke="black" cx="27.61" cy="-105.75" rx="27.61" ry="18"/>
<text text-anchor="middle" x="27.61" y="-100.33" font-family="Times New Roman,serif" font-size="14.00">S0/0</text>
</g>
<!-- S0&#45;&gt;S0 -->
<g id="edge2" class="edge">
<title>S0&#45;&gt;S0</title>
<path fill="none" stroke="black" d="M52.48,-113.85C63.6,-114.62 73.22,-111.92 73.22,-105.75 73.22,-101.89 69.46,-99.39 63.93,-98.25"/>
<polygon fill="black" stroke="black" points="64.16,-94.76 53.99,-97.73 63.79,-101.75 64.16,-94.76"/>
<text text-anchor="middle" x="76.6" y="-100.33" font-family="Times New Roman,serif" font-size="14.00">1</text>
</g>
<!-- S1 -->
<g id="node2" class="node">
<title>S1</title>
<ellipse fill="none" stroke="black" cx="67.61" cy="-18" rx="27.61" ry="18"/>
<text text-anchor="middle" x="67.61" y="-12.57" font-family="Times New Roman,serif" font-size="14.00">S1/0</text>
</g>
<!-- S0&#45;&gt;S1 -->
<g id="edge1" class="edge">
<title>S0&#45;&gt;S1</title>
<path fill="none" stroke="black" d="M35.32,-88.22C40.91,-76.24 48.59,-59.77 55.06,-45.91"/>
<polygon fill="black" stroke="black" points="58.23,-47.4 59.28,-36.85 51.88,-44.44 58.23,-47.4"/>
<text text-anchor="middle" x="53.99" y="-56.45" font-family="Times New Roman,serif" font-size="14.00">0</text>
</g>
<!-- S1&#45;&gt;S1 -->
<g id="edge3" class="edge">
<title>S1&#45;&gt;S1</title>
<path fill="none" stroke="black" d="M92.48,-26.1C103.6,-26.87 113.22,-24.17 113.22,-18 113.22,-14.14 109.46,-11.64 103.93,-10.5"/>
<polygon fill="black" stroke="black" points="104.16,-7.01 93.99,-9.98 103.79,-14 104.16,-7.01"/>
<text text-anchor="middle" x="116.6" y="-12.57" font-family="Times New Roman,serif" font-size="14.00">0</text>
</g>
<!-- S2 -->
<g id="node3" class="node">
<title>S2</title>
<ellipse fill="none" stroke="black" cx="45.61" cy="-193.5" rx="27.61" ry="18"/>
<text text-anchor="middle" x="45.61" y="-188.07" font-family="Times New Roman,serif" font-size="14.00">S2/0</text>
</g>
<!-- S2&#45;&gt;S0 -->
<g id="edge5" class="edge">
<title>S2&#45;&gt;S0</title>
<path fill="none" stroke="black" d="M42.05,-175.56C39.63,-164.01 36.36,-148.43 33.55,-135.02"/>
<polygon fill="black" stroke="black" points="37.01,-134.5 31.53,-125.43 30.16,-135.94 37.01,-134.5"/>
<text text-anchor="middle" x="41.99" y="-144.2" font-family="Times New Roman,serif" font-size="14.00">1</text>
</g>
<!-- S3 -->
<g id="node4" class="node">
<title>S3</title>
<ellipse fill="none" stroke="black" cx="75.61" cy="-281.25" rx="27.61" ry="18"/>
<text text-anchor="middle" x="75.61" y="-275.82" font-family="Times New Roman,serif" font-size="14.00">S3/1</text>
</g>
<!-- S2&#45;&gt;S3 -->
<g id="edge4" class="edge">
<title>S2&#45;&gt;S3</title>
<path fill="none" stroke="black" d="M51.53,-211.41C55.63,-223.14 61.2,-239.04 65.94,-252.61"/>
<polygon fill="black" stroke="black" points="62.58,-253.6 69.18,-261.88 69.19,-251.29 62.58,-253.6"/>
<text text-anchor="middle" x="65.99" y="-231.95" font-family="Times New Roman,serif" font-size="14.00">0</text>
</g>
<!-- S3&#45;&gt;S1 -->
<g id="edge6" class="edge">
<title>S3&#45;&gt;S1</title>
<path fill="none" stroke="black" d="M79.22,-263.16C85.79,-229.43 98.21,-152.02 88.61,-87.75 86.54,-73.86 82.23,-58.89 78.05,-46.48"/>
<polygon fill="black" stroke="black" points="81.45,-45.6 74.82,-37.34 74.85,-47.93 81.45,-45.6"/>
<text text-anchor="middle" x="94.99" y="-144.2" font-family="Times New Roman,serif" font-size="14.00">0</text>
</g>
<!-- S3&#45;&gt;S2 -->
<g id="edge7" class="edge">
<title>S3&#45;&gt;S2</title>
<path fill="none" stroke="black" d="M61.19,-265.42C56.4,-259.6 51.6,-252.56 48.86,-245.25 46.29,-238.39 45.05,-230.64 44.54,-223.3"/>
<polygon fill="black" stroke="black" points="48.04,-223.36 44.3,-213.45 41.04,-223.53 48.04,-223.36"/>
<text text-anchor="middle" x="51.99" y="-231.95" font-family="Times New Roman,serif" font-size="14.00">1</text>
</g>
</g>
</svg>
