<?xml version="1.0" encoding="UTF-8" standalone="no"?>
<!DOCTYPE svg PUBLIC "-//W3C//DTD SVG 1.1//EN"
 "http://www.w3.org/Graphics/SVG/1.1/DTD/svg11.dtd">
<!-- Generated by graphviz version 12.1.1 (20240910.0053)
 -->
<!-- Pages: 1 -->
<svg width="114pt" height="310pt"
 viewBox="0.00 0.00 114.25 309.50" xmlns="http://www.w3.org/2000/svg" xmlns:xlink="http://www.w3.org/1999/xlink">
<g id="graph0" class="graph" transform="scale(1 1) rotate(0) translate(4 305.5)">
<polygon fill="white" stroke="none" points="-4,4 -4,-305.5 110.25,-305.5 110.25,4 -4,4"/>
<!-- S0 -->
<g id="node1" class="node">
<title>S0</title>
<ellipse fill="none" stroke="black" cx="44" cy="-18" rx="27" ry="18"/>
<text text-anchor="middle" x="44" y="-12.95" font-family="Times,serif" font-size="14.00">S0</text>
</g>
<!-- S0&#45;&gt;S0 -->
<g id="edge1" class="edge">
<title>S0&#45;&gt;S0</title>
<path fill="none" stroke="black" d="M68.53,-26.17C79.51,-26.95 89,-24.22 89,-18 89,-14.11 85.29,-11.59 79.83,-10.43"/>
<polygon fill="black" stroke="black" points="80.22,-6.95 70.04,-9.91 79.84,-13.94 80.22,-6.95"/>
<text text-anchor="middle" x="97.62" y="-12.95" font-family="Times,serif" font-size="14.00">0/0</text>
</g>
<!-- S1 -->
<g id="node2" class="node">
<title>S1</title>
<ellipse fill="none" stroke="black" cx="27" cy="-283.5" rx="27" ry="18"/>
<text text-anchor="middle" x="27" y="-278.45" font-family="Times,serif" font-size="14.00">S1</text>
</g>
<!-- S1&#45;&gt;S1 -->
<g id="edge3" class="edge">
<title>S1&#45;&gt;S1</title>
<path fill="none" stroke="black" d="M51.53,-291.67C62.51,-292.45 72,-289.72 72,-283.5 72,-279.61 68.29,-277.09 62.83,-275.93"/>
<polygon fill="black" stroke="black" points="63.22,-272.45 53.04,-275.41 62.84,-279.44 63.22,-272.45"/>
<text text-anchor="middle" x="80.62" y="-278.45" font-family="Times,serif" font-size="14.00">1/0</text>
</g>
<!-- S2 -->
<g id="node3" class="node">
<title>S2</title>
<ellipse fill="none" stroke="black" cx="27" cy="-195" rx="27" ry="18"/>
<text text-anchor="middle" x="27" y="-189.95" font-family="Times,serif" font-size="14.00">S2</text>
</g>
<!-- S1&#45;&gt;S2 -->
<g id="edge2" class="edge">
<title>S1&#45;&gt;S2</title>
<path fill="none" stroke="black" d="M27,-265.41C27,-253.76 27,-238.05 27,-224.52"/>
<polygon fill="black" stroke="black" points="30.5,-224.86 27,-214.86 23.5,-224.86 30.5,-224.86"/>
<text text-anchor="middle" x="35.62" y="-234.2" font-family="Times,serif" font-size="14.00">0/0</text>
</g>
<!-- S2&#45;&gt;S0 -->
<g id="edge4" class="edge">
<title>S2&#45;&gt;S0</title>
<path fill="none" stroke="black" d="M23.33,-176.7C19.44,-155.7 14.54,-119.27 19.75,-88.5 22.19,-74.08 27.3,-58.66 32.2,-46.01"/>
<polygon fill="black" stroke="black" points="35.29,-47.7 35.81,-37.12 28.81,-45.07 35.29,-47.7"/>
<text text-anchor="middle" x="28.38" y="-101.45" font-family="Times,serif" font-size="14.00">0/0</text>
</g>
<!-- S3 -->
<g id="node4" class="node">
<title>S3</title>
<ellipse fill="none" stroke="black" cx="73" cy="-106.5" rx="27" ry="18"/>
<text text-anchor="middle" x="73" y="-101.45" font-family="Times,serif" font-size="14.00">S3</text>
</g>
<!-- S2&#45;&gt;S3 -->
<g id="edge5" class="edge">
<title>S2&#45;&gt;S3</title>
<path fill="none" stroke="black" d="M35.65,-177.73C42.23,-165.36 51.41,-148.1 59.02,-133.78"/>
<polygon fill="black" stroke="black" points="61.91,-135.8 63.52,-125.33 55.73,-132.51 61.91,-135.8"/>
<text text-anchor="middle" x="62.75" y="-145.7" font-family="Times,serif" font-size="14.00">1/1</text>
</g>
<!-- S3&#45;&gt;S0 -->
<g id="edge6" class="edge">
<title>S3&#45;&gt;S0</title>
<path fill="none" stroke="black" d="M57.87,-91.21C52.69,-85.35 47.51,-78.14 44.75,-70.5 42.16,-63.33 41.21,-55.21 41.1,-47.59"/>
<polygon fill="black" stroke="black" points="44.59,-47.83 41.44,-37.71 37.6,-47.59 44.59,-47.83"/>
<text text-anchor="middle" x="53.38" y="-57.2" font-family="Times,serif" font-size="14.00">0/0</text>
</g>
<!-- S3&#45;&gt;S0 -->
<g id="edge7" class="edge">
<title>S3&#45;&gt;S0</title>
<path fill="none" stroke="black" d="M70.53,-88.49C68.77,-78.3 65.99,-65.19 62,-54 61.02,-51.24 59.86,-48.42 58.61,-45.65"/>
<polygon fill="black" stroke="black" points="61.76,-44.12 54.2,-36.69 55.48,-47.21 61.76,-44.12"/>
<text text-anchor="middle" x="75.15" y="-57.2" font-family="Times,serif" font-size="14.00">1/0</text>
</g>
</g>
</svg>
