<?xml version="1.0" encoding="UTF-8" standalone="no"?>
<!DOCTYPE svg PUBLIC "-//W3C//DTD SVG 1.1//EN"
 "http://www.w3.org/Graphics/SVG/1.1/DTD/svg11.dtd">
<!-- Generated by graphviz version 12.1.1 (20240910.0053)
 -->
<!-- Pages: 1 -->
<svg width="122pt" height="310pt"
 viewBox="0.00 0.00 121.62 309.50" xmlns="http://www.w3.org/2000/svg" xmlns:xlink="http://www.w3.org/1999/xlink">
<g id="graph0" class="graph" transform="scale(1 1) rotate(0) translate(4 305.5)">
<polygon fill="white" stroke="none" points="-4,4 -4,-305.5 117.62,-305.5 117.62,4 -4,4"/>
<!-- S0 -->
<g id="node1" class="node">
<title>S0</title>
<ellipse fill="none" stroke="black" cx="72.81" cy="-283.5" rx="27.81" ry="18"/>
<text text-anchor="middle" x="72.81" y="-278.45" font-family="Times,serif" font-size="14.00">S0/0</text>
</g>
<!-- S1 -->
<g id="node2" class="node">
<title>S1</title>
<ellipse fill="none" stroke="black" cx="27.81" cy="-195" rx="27.81" ry="18"/>
<text text-anchor="middle" x="27.81" y="-189.95" font-family="Times,serif" font-size="14.00">S1/0</text>
</g>
<!-- S0&#45;&gt;S1 -->
<g id="edge1" class="edge">
<title>S0&#45;&gt;S1</title>
<path fill="none" stroke="black" d="M64.34,-266.23C57.97,-253.98 49.1,-236.93 41.7,-222.7"/>
<polygon fill="black" stroke="black" points="44.81,-221.09 37.09,-213.83 38.6,-224.32 44.81,-221.09"/>
<text text-anchor="middle" x="57.71" y="-234.2" font-family="Times,serif" font-size="14.00">0</text>
</g>
<!-- S1&#45;&gt;S1 -->
<g id="edge2" class="edge">
<title>S1&#45;&gt;S1</title>
<path fill="none" stroke="black" d="M52.78,-203.17C63.95,-203.95 73.62,-201.22 73.62,-195 73.62,-191.01 69.65,-188.46 63.86,-187.35"/>
<polygon fill="black" stroke="black" points="64.45,-183.87 54.29,-186.9 64.12,-190.87 64.45,-183.87"/>
<text text-anchor="middle" x="76.99" y="-189.95" font-family="Times,serif" font-size="14.00">0</text>
</g>
<!-- S2 -->
<g id="node3" class="node">
<title>S2</title>
<ellipse fill="none" stroke="black" cx="85.81" cy="-106.5" rx="27.81" ry="18"/>
<text text-anchor="middle" x="85.81" y="-101.45" font-family="Times,serif" font-size="14.00">S2/0</text>
</g>
<!-- S1&#45;&gt;S2 -->
<g id="edge3" class="edge">
<title>S1&#45;&gt;S2</title>
<path fill="none" stroke="black" d="M38.45,-178.13C46.9,-165.53 58.88,-147.66 68.68,-133.05"/>
<polygon fill="black" stroke="black" points="71.54,-135.07 74.2,-124.81 65.72,-131.17 71.54,-135.07"/>
<text text-anchor="middle" x="65.38" y="-145.7" font-family="Times,serif" font-size="14.00">1</text>
</g>
<!-- S2&#45;&gt;S0 -->
<g id="edge5" class="edge">
<title>S2&#45;&gt;S0</title>
<path fill="none" stroke="black" d="M88.12,-124.75C90.55,-145.69 93.54,-182.06 89.81,-213 88.12,-226.97 84.6,-242.19 81.2,-254.82"/>
<polygon fill="black" stroke="black" points="77.92,-253.54 78.57,-264.12 84.66,-255.44 77.92,-253.54"/>
<text text-anchor="middle" x="94.94" y="-189.95" font-family="Times,serif" font-size="14.00">1</text>
</g>
<!-- S3 -->
<g id="node4" class="node">
<title>S3</title>
<ellipse fill="none" stroke="black" cx="60.81" cy="-18" rx="27.81" ry="18"/>
<text text-anchor="middle" x="60.81" y="-12.95" font-family="Times,serif" font-size="14.00">S3/1</text>
</g>
<!-- S2&#45;&gt;S3 -->
<g id="edge4" class="edge">
<title>S2&#45;&gt;S3</title>
<path fill="none" stroke="black" d="M80.87,-88.41C77.44,-76.56 72.81,-60.52 68.86,-46.84"/>
<polygon fill="black" stroke="black" points="72.3,-46.14 66.16,-37.51 65.57,-48.09 72.3,-46.14"/>
<text text-anchor="middle" x="78.92" y="-57.2" font-family="Times,serif" font-size="14.00">0</text>
</g>
<!-- S3&#45;&gt;S1 -->
<g id="edge6" class="edge">
<title>S3&#45;&gt;S1</title>
<path fill="none" stroke="black" d="M55.56,-35.99C51.41,-49.97 45.71,-70.37 42.06,-88.5 36.84,-114.37 33.01,-144.2 30.65,-165.52"/>
<polygon fill="black" stroke="black" points="27.19,-164.89 29.61,-175.2 34.15,-165.63 27.19,-164.89"/>
<text text-anchor="middle" x="45.43" y="-101.45" font-family="Times,serif" font-size="14.00">0</text>
</g>
<!-- S3&#45;&gt;S2 -->
<g id="edge7" class="edge">
<title>S3&#45;&gt;S2</title>
<path fill="none" stroke="black" d="M59.82,-36.08C59.73,-46.3 60.51,-59.41 64.06,-70.5 65.11,-73.8 66.55,-77.11 68.18,-80.29"/>
<polygon fill="black" stroke="black" points="65,-81.79 73.08,-88.64 71.03,-78.24 65,-81.79"/>
<text text-anchor="middle" x="67.43" y="-57.2" font-family="Times,serif" font-size="14.00">1</text>
</g>
</g>
</svg>
