<?xml version="1.0" encoding="UTF-8" standalone="no"?>
<!DOCTYPE svg PUBLIC "-//W3C//DTD SVG 1.1//EN"
 "http://www.w3.org/Graphics/SVG/1.1/DTD/svg11.dtd">
<!-- Generated by graphviz version 12.1.1 (20240910.0053)
 -->
<!-- Pages: 1 -->
<svg width="129pt" height="310pt"
 viewBox="0.00 0.00 129.37 309.50" xmlns="http://www.w3.org/2000/svg" xmlns:xlink="http://www.w3.org/1999/xlink">
<g id="graph0" class="graph" transform="scale(1 1) rotate(0) translate(4 305.5)">
<polygon fill="white" stroke="none" points="-4,4 -4,-305.5 125.37,-305.5 125.37,4 -4,4"/>
<!-- S0 -->
<g id="node1" class="node">
<title>S0</title>
<ellipse fill="none" stroke="black" cx="27.81" cy="-106.5" rx="27.81" ry="18"/>
<text text-anchor="middle" x="27.81" y="-101.45" font-family="Times,serif" font-size="14.00">S0/0</text>
</g>
<!-- S0&#45;&gt;S0 -->
<g id="edge2" class="edge">
<title>S0&#45;&gt;S0</title>
<path fill="none" stroke="black" d="M52.78,-114.67C63.95,-115.45 73.62,-112.72 73.62,-106.5 73.62,-102.51 69.65,-99.96 63.86,-98.85"/>
<polygon fill="black" stroke="black" points="64.45,-95.37 54.29,-98.4 64.12,-102.37 64.45,-95.37"/>
<text text-anchor="middle" x="76.99" y="-101.45" font-family="Times,serif" font-size="14.00">1</text>
</g>
<!-- S1 -->
<g id="node2" class="node">
<title>S1</title>
<ellipse fill="none" stroke="black" cx="68.81" cy="-18" rx="27.81" ry="18"/>
<text text-anchor="middle" x="68.81" y="-12.95" font-family="Times,serif" font-size="14.00">S1/0</text>
</g>
<!-- S0&#45;&gt;S1 -->
<g id="edge1" class="edge">
<title>S0&#45;&gt;S1</title>
<path fill="none" stroke="black" d="M35.71,-88.82C41.5,-76.62 49.47,-59.8 56.14,-45.73"/>
<polygon fill="black" stroke="black" points="59.16,-47.53 60.28,-36.99 52.83,-44.53 59.16,-47.53"/>
<text text-anchor="middle" x="55.36" y="-57.2" font-family="Times,serif" font-size="14.00">0</text>
</g>
<!-- S1&#45;&gt;S1 -->
<g id="edge3" class="edge">
<title>S1&#45;&gt;S1</title>
<path fill="none" stroke="black" d="M93.78,-26.17C104.95,-26.95 114.62,-24.22 114.62,-18 114.62,-14.01 110.65,-11.46 104.86,-10.35"/>
<polygon fill="black" stroke="black" points="105.45,-6.87 95.29,-9.9 105.12,-13.87 105.45,-6.87"/>
<text text-anchor="middle" x="117.99" y="-12.95" font-family="Times,serif" font-size="14.00">0</text>
</g>
<!-- S2 -->
<g id="node3" class="node">
<title>S2</title>
<ellipse fill="none" stroke="black" cx="46.81" cy="-195" rx="27.81" ry="18"/>
<text text-anchor="middle" x="46.81" y="-189.95" font-family="Times,serif" font-size="14.00">S2/0</text>
</g>
<!-- S2&#45;&gt;S0 -->
<g id="edge5" class="edge">
<title>S2&#45;&gt;S0</title>
<path fill="none" stroke="black" d="M43.05,-176.91C40.48,-165.18 37,-149.34 34.01,-135.75"/>
<polygon fill="black" stroke="black" points="37.44,-135.05 31.88,-126.03 30.61,-136.55 37.44,-135.05"/>
<text text-anchor="middle" x="42.39" y="-145.7" font-family="Times,serif" font-size="14.00">1</text>
</g>
<!-- S3 -->
<g id="node4" class="node">
<title>S3</title>
<ellipse fill="none" stroke="black" cx="76.81" cy="-283.5" rx="27.81" ry="18"/>
<text text-anchor="middle" x="76.81" y="-278.45" font-family="Times,serif" font-size="14.00">S3/1</text>
</g>
<!-- S2&#45;&gt;S3 -->
<g id="edge4" class="edge">
<title>S2&#45;&gt;S3</title>
<path fill="none" stroke="black" d="M52.72,-213.05C56.83,-224.89 62.39,-240.93 67.14,-254.62"/>
<polygon fill="black" stroke="black" points="63.8,-255.68 70.39,-263.98 70.42,-253.39 63.8,-255.68"/>
<text text-anchor="middle" x="67.87" y="-234.2" font-family="Times,serif" font-size="14.00">0</text>
</g>
<!-- S3&#45;&gt;S1 -->
<g id="edge6" class="edge">
<title>S3&#45;&gt;S1</title>
<path fill="none" stroke="black" d="M80.41,-265.27C86.98,-231.29 99.38,-153.28 89.81,-88.5 87.72,-74.37 83.37,-59.13 79.16,-46.54"/>
<polygon fill="black" stroke="black" points="82.52,-45.53 75.91,-37.25 75.91,-47.84 82.52,-45.53"/>
<text text-anchor="middle" x="96.68" y="-145.7" font-family="Times,serif" font-size="14.00">0</text>
</g>
<!-- S3&#45;&gt;S2 -->
<g id="edge7" class="edge">
<title>S3&#45;&gt;S2</title>
<path fill="none" stroke="black" d="M62.38,-267.67C57.59,-261.85 52.79,-254.81 50.06,-247.5 47.38,-240.34 46.13,-232.23 45.65,-224.61"/>
<polygon fill="black" stroke="black" points="49.15,-224.66 45.46,-214.73 42.15,-224.8 49.15,-224.66"/>
<text text-anchor="middle" x="53.43" y="-234.2" font-family="Times,serif" font-size="14.00">1</text>
</g>
</g>
</svg>
