<?xml version="1.0" encoding="UTF-8" standalone="no"?>
<!DOCTYPE svg PUBLIC "-//W3C//DTD SVG 1.1//EN"
 "http://www.w3.org/Graphics/SVG/1.1/DTD/svg11.dtd">
<!-- Generated by graphviz version 12.1.1 (20240910.0053)
 -->
<!-- Pages: 1 -->
<svg width="122pt" height="310pt"
 viewBox="0.00 0.00 121.62 309.50" xmlns="http://www.w3.org/2000/svg" xmlns:xlink="http://www.w3.org/1999/xlink">
<g id="graph0" class="graph" transform="scale(1 1) rotate(0) translate(4 305.5)">
<polygon fill="white" stroke="none" points="-4,4 -4,-305.5 117.62,-305.5 117.62,4 -4,4"/>
<!-- S0 -->
<g id="node1" class="node">
<title>S0</title>
<ellipse fill="none" stroke="black" cx="59.81" cy="-283.5" rx="27.81" ry="18"/>
<text text-anchor="middle" x="59.81" y="-278.45" font-family="Times,serif" font-size="14.00">S0/0</text>
</g>
<!-- S0&#45;&gt;S0 -->
<g id="edge1" class="edge">
<title>S0&#45;&gt;S0</title>
<path fill="none" stroke="black" d="M84.78,-291.67C95.95,-292.45 105.62,-289.72 105.62,-283.5 105.62,-279.51 101.65,-276.96 95.86,-275.85"/>
<polygon fill="black" stroke="black" points="96.45,-272.37 86.29,-275.4 96.12,-279.37 96.45,-272.37"/>
<text text-anchor="middle" x="108.99" y="-278.45" font-family="Times,serif" font-size="14.00">0</text>
</g>
<!-- S1 -->
<g id="node2" class="node">
<title>S1</title>
<ellipse fill="none" stroke="black" cx="27.81" cy="-195" rx="27.81" ry="18"/>
<text text-anchor="middle" x="27.81" y="-189.95" font-family="Times,serif" font-size="14.00">S1/0</text>
</g>
<!-- S0&#45;&gt;S1 -->
<g id="edge2" class="edge">
<title>S0&#45;&gt;S1</title>
<path fill="none" stroke="black" d="M53.64,-265.82C49.2,-253.81 43.1,-237.34 37.95,-223.41"/>
<polygon fill="black" stroke="black" points="41.35,-222.51 34.59,-214.34 34.78,-224.93 41.35,-222.51"/>
<text text-anchor="middle" x="50.05" y="-234.2" font-family="Times,serif" font-size="14.00">1</text>
</g>
<!-- S2 -->
<g id="node3" class="node">
<title>S2</title>
<ellipse fill="none" stroke="black" cx="85.81" cy="-106.5" rx="27.81" ry="18"/>
<text text-anchor="middle" x="85.81" y="-101.45" font-family="Times,serif" font-size="14.00">S2/0</text>
</g>
<!-- S1&#45;&gt;S2 -->
<g id="edge3" class="edge">
<title>S1&#45;&gt;S2</title>
<path fill="none" stroke="black" d="M38.45,-178.13C46.9,-165.53 58.88,-147.66 68.68,-133.05"/>
<polygon fill="black" stroke="black" points="71.54,-135.07 74.2,-124.81 65.72,-131.17 71.54,-135.07"/>
<text text-anchor="middle" x="65.38" y="-145.7" font-family="Times,serif" font-size="14.00">0</text>
</g>
<!-- S2&#45;&gt;S0 -->
<g id="edge4" class="edge">
<title>S2&#45;&gt;S0</title>
<path fill="none" stroke="black" d="M83.23,-124.85C78.76,-154.94 69.53,-217.08 64.08,-253.72"/>
<polygon fill="black" stroke="black" points="60.63,-253.18 62.62,-263.58 67.55,-254.21 60.63,-253.18"/>
<text text-anchor="middle" x="78.77" y="-189.95" font-family="Times,serif" font-size="14.00">0</text>
</g>
<!-- S3 -->
<g id="node4" class="node">
<title>S3</title>
<ellipse fill="none" stroke="black" cx="60.81" cy="-18" rx="27.81" ry="18"/>
<text text-anchor="middle" x="60.81" y="-12.95" font-family="Times,serif" font-size="14.00">S3/1</text>
</g>
<!-- S2&#45;&gt;S3 -->
<g id="edge5" class="edge">
<title>S2&#45;&gt;S3</title>
<path fill="none" stroke="black" d="M80.87,-88.41C77.44,-76.56 72.81,-60.52 68.86,-46.84"/>
<polygon fill="black" stroke="black" points="72.3,-46.14 66.16,-37.51 65.57,-48.09 72.3,-46.14"/>
<text text-anchor="middle" x="78.92" y="-57.2" font-family="Times,serif" font-size="14.00">1</text>
</g>
<!-- S3&#45;&gt;S1 -->
<g id="edge7" class="edge">
<title>S3&#45;&gt;S1</title>
<path fill="none" stroke="black" d="M55.56,-35.99C51.41,-49.97 45.71,-70.37 42.06,-88.5 36.84,-114.37 33.01,-144.2 30.65,-165.52"/>
<polygon fill="black" stroke="black" points="27.19,-164.89 29.61,-175.2 34.15,-165.63 27.19,-164.89"/>
<text text-anchor="middle" x="45.43" y="-101.45" font-family="Times,serif" font-size="14.00">1</text>
</g>
<!-- S3&#45;&gt;S2 -->
<g id="edge6" class="edge">
<title>S3&#45;&gt;S2</title>
<path fill="none" stroke="black" d="M59.82,-36.08C59.73,-46.3 60.51,-59.41 64.06,-70.5 65.11,-73.8 66.55,-77.11 68.18,-80.29"/>
<polygon fill="black" stroke="black" points="65,-81.79 73.08,-88.64 71.03,-78.24 65,-81.79"/>
<text text-anchor="middle" x="67.43" y="-57.2" font-family="Times,serif" font-size="14.00">0</text>
</g>
</g>
</svg>
