<?xml version="1.0" encoding="UTF-8" standalone="no"?>
<!DOCTYPE svg PUBLIC "-//W3C//DTD SVG 1.1//EN"
 "http://www.w3.org/Graphics/SVG/1.1/DTD/svg11.dtd">
<!-- Generated by graphviz version 12.1.1 (20240910.0053)
 -->
<!-- Pages: 1 -->
<svg width="114pt" height="310pt"
 viewBox="0.00 0.00 114.25 309.50" xmlns="http://www.w3.org/2000/svg" xmlns:xlink="http://www.w3.org/1999/xlink">
<g id="graph0" class="graph" transform="scale(1 1) rotate(0) translate(4 305.5)">
<polygon fill="white" stroke="none" points="-4,4 -4,-305.5 110.25,-305.5 110.25,4 -4,4"/>
<!-- S0 -->
<g id="node1" class="node">
<title>S0</title>
<ellipse fill="none" stroke="black" cx="44" cy="-106.5" rx="27" ry="18"/>
<text text-anchor="middle" x="44" y="-101.45" font-family="Times,serif" font-size="14.00">S0</text>
</g>
<!-- S0&#45;&gt;S0 -->
<g id="edge2" class="edge">
<title>S0&#45;&gt;S0</title>
<path fill="none" stroke="black" d="M68.53,-114.67C79.51,-115.45 89,-112.72 89,-106.5 89,-102.61 85.29,-100.09 79.83,-98.93"/>
<polygon fill="black" stroke="black" points="80.22,-95.45 70.04,-98.41 79.84,-102.44 80.22,-95.45"/>
<text text-anchor="middle" x="97.62" y="-101.45" font-family="Times,serif" font-size="14.00">1/0</text>
</g>
<!-- S1 -->
<g id="node2" class="node">
<title>S1</title>
<ellipse fill="none" stroke="black" cx="44" cy="-18" rx="27" ry="18"/>
<text text-anchor="middle" x="44" y="-12.95" font-family="Times,serif" font-size="14.00">S1</text>
</g>
<!-- S0&#45;&gt;S1 -->
<g id="edge1" class="edge">
<title>S0&#45;&gt;S1</title>
<path fill="none" stroke="black" d="M44,-88.41C44,-76.76 44,-61.05 44,-47.52"/>
<polygon fill="black" stroke="black" points="47.5,-47.86 44,-37.86 40.5,-47.86 47.5,-47.86"/>
<text text-anchor="middle" x="52.62" y="-57.2" font-family="Times,serif" font-size="14.00">0/0</text>
</g>
<!-- S1&#45;&gt;S1 -->
<g id="edge3" class="edge">
<title>S1&#45;&gt;S1</title>
<path fill="none" stroke="black" d="M68.53,-26.17C79.51,-26.95 89,-24.22 89,-18 89,-14.11 85.29,-11.59 79.83,-10.43"/>
<polygon fill="black" stroke="black" points="80.22,-6.95 70.04,-9.91 79.84,-13.94 80.22,-6.95"/>
<text text-anchor="middle" x="97.62" y="-12.95" font-family="Times,serif" font-size="14.00">0/0</text>
</g>
<!-- S2 -->
<g id="node3" class="node">
<title>S2</title>
<ellipse fill="none" stroke="black" cx="27" cy="-283.5" rx="27" ry="18"/>
<text text-anchor="middle" x="27" y="-278.45" font-family="Times,serif" font-size="14.00">S2</text>
</g>
<!-- S2&#45;&gt;S0 -->
<g id="edge5" class="edge">
<title>S2&#45;&gt;S0</title>
<path fill="none" stroke="black" d="M23.33,-265.2C19.44,-244.2 14.54,-207.77 19.75,-177 22.19,-162.58 27.3,-147.16 32.2,-134.51"/>
<polygon fill="black" stroke="black" points="35.29,-136.2 35.81,-125.62 28.81,-133.57 35.29,-136.2"/>
<text text-anchor="middle" x="28.38" y="-189.95" font-family="Times,serif" font-size="14.00">1/0</text>
</g>
<!-- S3 -->
<g id="node4" class="node">
<title>S3</title>
<ellipse fill="none" stroke="black" cx="73" cy="-195" rx="27" ry="18"/>
<text text-anchor="middle" x="73" y="-189.95" font-family="Times,serif" font-size="14.00">S3</text>
</g>
<!-- S2&#45;&gt;S3 -->
<g id="edge4" class="edge">
<title>S2&#45;&gt;S3</title>
<path fill="none" stroke="black" d="M35.65,-266.23C42.23,-253.86 51.41,-236.6 59.02,-222.28"/>
<polygon fill="black" stroke="black" points="61.91,-224.3 63.52,-213.83 55.73,-221.01 61.91,-224.3"/>
<text text-anchor="middle" x="62.75" y="-234.2" font-family="Times,serif" font-size="14.00">0/1</text>
</g>
<!-- S3&#45;&gt;S0 -->
<g id="edge6" class="edge">
<title>S3&#45;&gt;S0</title>
<path fill="none" stroke="black" d="M57.87,-179.71C52.69,-173.85 47.51,-166.64 44.75,-159 42.16,-151.83 41.21,-143.71 41.1,-136.09"/>
<polygon fill="black" stroke="black" points="44.59,-136.33 41.44,-126.21 37.6,-136.09 44.59,-136.33"/>
<text text-anchor="middle" x="53.38" y="-145.7" font-family="Times,serif" font-size="14.00">0/0</text>
</g>
<!-- S3&#45;&gt;S0 -->
<g id="edge7" class="edge">
<title>S3&#45;&gt;S0</title>
<path fill="none" stroke="black" d="M70.53,-176.99C68.77,-166.8 65.99,-153.69 62,-142.5 61.02,-139.74 59.86,-136.92 58.61,-134.15"/>
<polygon fill="black" stroke="black" points="61.76,-132.62 54.2,-125.19 55.48,-135.71 61.76,-132.62"/>
<text text-anchor="middle" x="75.15" y="-145.7" font-family="Times,serif" font-size="14.00">1/0</text>
</g>
</g>
</svg>
