<?xml version="1.0" encoding="UTF-8" standalone="no"?>
<!DOCTYPE svg PUBLIC "-//W3C//DTD SVG 1.1//EN"
 "http://www.w3.org/Graphics/SVG/1.1/DTD/svg11.dtd">
<!-- Generated by graphviz version 12.1.1 (20240910.0053)
 -->
<!-- Pages: 1 -->
<svg width="169pt" height="398pt"
 viewBox="0.00 0.00 169.37 398.00" xmlns="http://www.w3.org/2000/svg" xmlns:xlink="http://www.w3.org/1999/xlink">
<g id="graph0" class="graph" transform="scale(1 1) rotate(0) translate(4 394)">
<polygon fill="white" stroke="none" points="-4,4 -4,-394 165.37,-394 165.37,4 -4,4"/>
<!-- S0 -->
<g id="node1" class="node">
<title>S0</title>
<ellipse fill="none" stroke="black" cx="108.81" cy="-372" rx="27.81" ry="18"/>
<text text-anchor="middle" x="108.81" y="-366.95" font-family="Times,serif" font-size="14.00">S0/0</text>
</g>
<!-- S0&#45;&gt;S0 -->
<g id="edge2" class="edge">
<title>S0&#45;&gt;S0</title>
<path fill="none" stroke="black" d="M133.78,-380.17C144.95,-380.95 154.62,-378.22 154.62,-372 154.62,-368.01 150.65,-365.46 144.86,-364.35"/>
<polygon fill="black" stroke="black" points="145.45,-360.87 135.29,-363.9 145.12,-367.87 145.45,-360.87"/>
<text text-anchor="middle" x="157.99" y="-366.95" font-family="Times,serif" font-size="14.00">1</text>
</g>
<!-- S1 -->
<g id="node2" class="node">
<title>S1</title>
<ellipse fill="none" stroke="black" cx="27.81" cy="-283.5" rx="27.81" ry="18"/>
<text text-anchor="middle" x="27.81" y="-278.45" font-family="Times,serif" font-size="14.00">S1/0</text>
</g>
<!-- S0&#45;&gt;S1 -->
<g id="edge1" class="edge">
<title>S0&#45;&gt;S1</title>
<path fill="none" stroke="black" d="M95.07,-356.33C82.58,-342.99 63.94,-323.08 49.45,-307.61"/>
<polygon fill="black" stroke="black" points="52.31,-305.55 42.92,-300.64 47.2,-310.33 52.31,-305.55"/>
<text text-anchor="middle" x="78.94" y="-322.7" font-family="Times,serif" font-size="14.00">0</text>
</g>
<!-- S1&#45;&gt;S1 -->
<g id="edge3" class="edge">
<title>S1&#45;&gt;S1</title>
<path fill="none" stroke="black" d="M52.78,-291.67C63.95,-292.45 73.62,-289.72 73.62,-283.5 73.62,-279.51 69.65,-276.96 63.86,-275.85"/>
<polygon fill="black" stroke="black" points="64.45,-272.37 54.29,-275.4 64.12,-279.37 64.45,-272.37"/>
<text text-anchor="middle" x="76.99" y="-278.45" font-family="Times,serif" font-size="14.00">0</text>
</g>
<!-- S2 -->
<g id="node3" class="node">
<title>S2</title>
<ellipse fill="none" stroke="black" cx="44.81" cy="-195" rx="27.81" ry="18"/>
<text text-anchor="middle" x="44.81" y="-189.95" font-family="Times,serif" font-size="14.00">S2/0</text>
</g>
<!-- S1&#45;&gt;S2 -->
<g id="edge4" class="edge">
<title>S1&#45;&gt;S2</title>
<path fill="none" stroke="black" d="M24.32,-265.54C22.86,-255.36 22.1,-242.26 25.06,-231 25.89,-227.84 27.08,-224.66 28.47,-221.58"/>
<polygon fill="black" stroke="black" points="31.44,-223.45 33.01,-212.97 25.25,-220.18 31.44,-223.45"/>
<text text-anchor="middle" x="28.43" y="-234.2" font-family="Times,serif" font-size="14.00">1</text>
</g>
<!-- S2&#45;&gt;S1 -->
<g id="edge5" class="edge">
<title>S2&#45;&gt;S1</title>
<path fill="none" stroke="black" d="M41.4,-213.35C39.1,-225.06 36.01,-240.79 33.35,-254.28"/>
<polygon fill="black" stroke="black" points="29.95,-253.44 31.46,-263.93 36.82,-254.79 29.95,-253.44"/>
<text text-anchor="middle" x="41.21" y="-234.2" font-family="Times,serif" font-size="14.00">0</text>
</g>
<!-- S3 -->
<g id="node4" class="node">
<title>S3</title>
<ellipse fill="none" stroke="black" cx="50.81" cy="-106.5" rx="27.81" ry="18"/>
<text text-anchor="middle" x="50.81" y="-101.45" font-family="Times,serif" font-size="14.00">S3/0</text>
</g>
<!-- S2&#45;&gt;S3 -->
<g id="edge6" class="edge">
<title>S2&#45;&gt;S3</title>
<path fill="none" stroke="black" d="M45.99,-176.91C46.8,-165.26 47.89,-149.55 48.83,-136.02"/>
<polygon fill="black" stroke="black" points="52.3,-136.58 49.5,-126.36 45.32,-136.09 52.3,-136.58"/>
<text text-anchor="middle" x="51.72" y="-145.7" font-family="Times,serif" font-size="14.00">1</text>
</g>
<!-- S4 -->
<g id="node5" class="node">
<title>S4</title>
<ellipse fill="none" stroke="black" cx="108.81" cy="-18" rx="27.81" ry="18"/>
<text text-anchor="middle" x="108.81" y="-12.95" font-family="Times,serif" font-size="14.00">S4/1</text>
</g>
<!-- S3&#45;&gt;S4 -->
<g id="edge7" class="edge">
<title>S3&#45;&gt;S4</title>
<path fill="none" stroke="black" d="M61.45,-89.63C69.9,-77.03 81.88,-59.16 91.68,-44.55"/>
<polygon fill="black" stroke="black" points="94.54,-46.57 97.2,-36.31 88.72,-42.67 94.54,-46.57"/>
<text text-anchor="middle" x="88.38" y="-57.2" font-family="Times,serif" font-size="14.00">0</text>
</g>
<!-- S4&#45;&gt;S0 -->
<g id="edge8" class="edge">
<title>S4&#45;&gt;S0</title>
<path fill="none" stroke="black" d="M108.81,-36.23C108.81,-53.69 108.81,-81.47 108.81,-105.5 108.81,-284.5 108.81,-284.5 108.81,-284.5 108.81,-303.83 108.81,-325.6 108.81,-342.46"/>
<polygon fill="black" stroke="black" points="105.31,-342.25 108.81,-352.25 112.31,-342.25 105.31,-342.25"/>
<text text-anchor="middle" x="112.18" y="-189.95" font-family="Times,serif" font-size="14.00">0</text>
</g>
<!-- S4&#45;&gt;S0 -->
<g id="edge9" class="edge">
<title>S4&#45;&gt;S0</title>
<path fill="none" stroke="black" d="M121.71,-34.13C134.38,-50.57 151.81,-78.16 151.81,-105.5 151.81,-284.5 151.81,-284.5 151.81,-284.5 151.81,-307.35 139.63,-330.38 128.23,-346.93"/>
<polygon fill="black" stroke="black" points="125.67,-344.51 122.6,-354.65 131.32,-348.63 125.67,-344.51"/>
<text text-anchor="middle" x="155.18" y="-189.95" font-family="Times,serif" font-size="14.00">1</text>
</g>
</g>
</svg>
