<?xml version="1.0" encoding="UTF-8" standalone="no"?>
<!DOCTYPE svg PUBLIC "-//W3C//DTD SVG 1.1//EN"
 "http://www.w3.org/Graphics/SVG/1.1/DTD/svg11.dtd">
<!-- Generated by graphviz version 12.1.1 (20240910.0053)
 -->
<!-- Pages: 1 -->
<svg width="154pt" height="398pt"
 viewBox="0.00 0.00 154.25 398.00" xmlns="http://www.w3.org/2000/svg" xmlns:xlink="http://www.w3.org/1999/xlink">
<g id="graph0" class="graph" transform="scale(1 1) rotate(0) translate(4 394)">
<polygon fill="white" stroke="none" points="-4,4 -4,-394 150.25,-394 150.25,4 -4,4"/>
<!-- S0 -->
<g id="node1" class="node">
<title>S0</title>
<ellipse fill="none" stroke="black" cx="39" cy="-106.5" rx="27" ry="18"/>
<text text-anchor="middle" x="39" y="-101.45" font-family="Times,serif" font-size="14.00">S0</text>
</g>
<!-- S0&#45;&gt;S0 -->
<g id="edge1" class="edge">
<title>S0&#45;&gt;S0</title>
<path fill="none" stroke="black" d="M63.53,-114.67C74.51,-115.45 84,-112.72 84,-106.5 84,-102.61 80.29,-100.09 74.83,-98.93"/>
<polygon fill="black" stroke="black" points="75.22,-95.45 65.04,-98.41 74.84,-102.44 75.22,-95.45"/>
<text text-anchor="middle" x="92.62" y="-101.45" font-family="Times,serif" font-size="14.00">0/0</text>
</g>
<!-- S1 -->
<g id="node2" class="node">
<title>S1</title>
<ellipse fill="none" stroke="black" cx="84" cy="-18" rx="27" ry="18"/>
<text text-anchor="middle" x="84" y="-12.95" font-family="Times,serif" font-size="14.00">S1</text>
</g>
<!-- S0&#45;&gt;S1 -->
<g id="edge2" class="edge">
<title>S0&#45;&gt;S1</title>
<path fill="none" stroke="black" d="M47.46,-89.23C53.83,-76.98 62.7,-59.93 70.11,-45.7"/>
<polygon fill="black" stroke="black" points="73.21,-47.32 74.72,-36.83 67,-44.09 73.21,-47.32"/>
<text text-anchor="middle" x="74.16" y="-57.2" font-family="Times,serif" font-size="14.00">1/0</text>
</g>
<!-- S1&#45;&gt;S1 -->
<g id="edge3" class="edge">
<title>S1&#45;&gt;S1</title>
<path fill="none" stroke="black" d="M108.53,-26.17C119.51,-26.95 129,-24.22 129,-18 129,-14.11 125.29,-11.59 119.83,-10.43"/>
<polygon fill="black" stroke="black" points="120.22,-6.95 110.04,-9.91 119.84,-13.94 120.22,-6.95"/>
<text text-anchor="middle" x="137.62" y="-12.95" font-family="Times,serif" font-size="14.00">1/0</text>
</g>
<!-- S2 -->
<g id="node3" class="node">
<title>S2</title>
<ellipse fill="none" stroke="black" cx="27" cy="-372" rx="27" ry="18"/>
<text text-anchor="middle" x="27" y="-366.95" font-family="Times,serif" font-size="14.00">S2</text>
</g>
<!-- S2&#45;&gt;S0 -->
<g id="edge4" class="edge">
<title>S2&#45;&gt;S0</title>
<path fill="none" stroke="black" d="M26.61,-353.75C25.93,-315.57 25.27,-221.09 33,-142.5 33.22,-140.29 33.49,-138.01 33.8,-135.72"/>
<polygon fill="black" stroke="black" points="37.23,-136.44 35.34,-126.02 30.32,-135.35 37.23,-136.44"/>
<text text-anchor="middle" x="36.1" y="-234.2" font-family="Times,serif" font-size="14.00">0/0</text>
</g>
<!-- S3 -->
<g id="node4" class="node">
<title>S3</title>
<ellipse fill="none" stroke="black" cx="73" cy="-283.5" rx="27" ry="18"/>
<text text-anchor="middle" x="73" y="-278.45" font-family="Times,serif" font-size="14.00">S3</text>
</g>
<!-- S2&#45;&gt;S3 -->
<g id="edge5" class="edge">
<title>S2&#45;&gt;S3</title>
<path fill="none" stroke="black" d="M35.65,-354.73C42.23,-342.36 51.41,-325.1 59.02,-310.78"/>
<polygon fill="black" stroke="black" points="61.91,-312.8 63.52,-302.33 55.73,-309.51 61.91,-312.8"/>
<text text-anchor="middle" x="62.75" y="-322.7" font-family="Times,serif" font-size="14.00">1/0</text>
</g>
<!-- S3&#45;&gt;S1 -->
<g id="edge7" class="edge">
<title>S3&#45;&gt;S1</title>
<path fill="none" stroke="black" d="M84.21,-266.87C93.11,-253.37 104.74,-232.93 109,-213 120.57,-158.89 119.85,-142.95 110,-88.5 107.37,-73.99 101.9,-58.56 96.65,-45.93"/>
<polygon fill="black" stroke="black" points="99.97,-44.81 92.77,-37.04 93.56,-47.61 99.97,-44.81"/>
<text text-anchor="middle" x="126.16" y="-145.7" font-family="Times,serif" font-size="14.00">1/0</text>
</g>
<!-- S4 -->
<g id="node5" class="node">
<title>S4</title>
<ellipse fill="none" stroke="black" cx="73" cy="-195" rx="27" ry="18"/>
<text text-anchor="middle" x="73" y="-189.95" font-family="Times,serif" font-size="14.00">S4</text>
</g>
<!-- S3&#45;&gt;S4 -->
<g id="edge6" class="edge">
<title>S3&#45;&gt;S4</title>
<path fill="none" stroke="black" d="M73,-265.41C73,-253.76 73,-238.05 73,-224.52"/>
<polygon fill="black" stroke="black" points="76.5,-224.86 73,-214.86 69.5,-224.86 76.5,-224.86"/>
<text text-anchor="middle" x="81.62" y="-234.2" font-family="Times,serif" font-size="14.00">0/1</text>
</g>
<!-- S4&#45;&gt;S0 -->
<g id="edge8" class="edge">
<title>S4&#45;&gt;S0</title>
<path fill="none" stroke="black" d="M70.96,-176.82C69.35,-166.58 66.58,-153.47 62,-142.5 60.57,-139.08 58.8,-135.63 56.87,-132.3"/>
<polygon fill="black" stroke="black" points="59.98,-130.67 51.66,-124.11 54.07,-134.42 59.98,-130.67"/>
<text text-anchor="middle" x="75.98" y="-145.7" font-family="Times,serif" font-size="14.00">0/0</text>
</g>
<!-- S4&#45;&gt;S0 -->
<g id="edge9" class="edge">
<title>S4&#45;&gt;S0</title>
<path fill="none" stroke="black" d="M56.18,-180.38C50.17,-174.5 44.07,-167.1 40.75,-159 37.85,-151.94 36.69,-143.86 36.43,-136.24"/>
<polygon fill="black" stroke="black" points="39.93,-136.4 36.62,-126.34 32.93,-136.27 39.93,-136.4"/>
<text text-anchor="middle" x="49.38" y="-145.7" font-family="Times,serif" font-size="14.00">1/0</text>
</g>
</g>
</svg>
