<?xml version="1.0" encoding="UTF-8" standalone="no"?>
<!DOCTYPE svg PUBLIC "-//W3C//DTD SVG 1.1//EN"
 "http://www.w3.org/Graphics/SVG/1.1/DTD/svg11.dtd">
<!-- Generated by graphviz version 12.0.0 (20240704.0754)
 -->
<!-- Pages: 1 -->
<svg width="195pt" height="220pt"
 viewBox="0.00 0.00 195.00 219.50" xmlns="http://www.w3.org/2000/svg" xmlns:xlink="http://www.w3.org/1999/xlink">
<g id="graph0" class="graph" transform="scale(1 1) rotate(0) translate(4 215.5)">
<polygon fill="white" stroke="none" points="-4,4 -4,-215.5 191,-215.5 191,4 -4,4"/>
<!-- S0 -->
<g id="node1" class="node">
<title>S0</title>
<ellipse fill="none" stroke="black" cx="27" cy="-193.5" rx="27" ry="18"/>
<text text-anchor="middle" x="27" y="-188.07" font-family="Times New Roman,serif" font-size="14.00">S0</text>
</g>
<!-- S0&#45;&gt;S0 -->
<g id="edge1" class="edge">
<title>S0&#45;&gt;S0</title>
<path fill="none" stroke="black" d="M51.53,-201.6C62.51,-202.37 72,-199.67 72,-193.5 72,-189.64 68.29,-187.14 62.83,-186"/>
<polygon fill="black" stroke="black" points="63.21,-182.51 53.04,-185.48 62.85,-189.5 63.21,-182.51"/>
<text text-anchor="middle" x="80.62" y="-188.07" font-family="Times New Roman,serif" font-size="14.00">0/0</text>
</g>
<!-- S1 -->
<g id="node2" class="node">
<title>S1</title>
<ellipse fill="none" stroke="black" cx="75" cy="-105.75" rx="27" ry="18"/>
<text text-anchor="middle" x="75" y="-100.33" font-family="Times New Roman,serif" font-size="14.00">S1</text>
</g>
<!-- S0&#45;&gt;S1 -->
<g id="edge2" class="edge">
<title>S0&#45;&gt;S1</title>
<path fill="none" stroke="black" d="M36.03,-176.37C42.89,-164.11 52.47,-147 60.42,-132.8"/>
<polygon fill="black" stroke="black" points="63.28,-134.85 65.11,-124.42 57.17,-131.44 63.28,-134.85"/>
<text text-anchor="middle" x="63.62" y="-144.2" font-family="Times New Roman,serif" font-size="14.00">1/0</text>
</g>
<!-- S1&#45;&gt;S1 -->
<g id="edge4" class="edge">
<title>S1&#45;&gt;S1</title>
<path fill="none" stroke="black" d="M99.53,-113.85C110.51,-114.62 120,-111.92 120,-105.75 120,-101.89 116.29,-99.39 110.83,-98.25"/>
<polygon fill="black" stroke="black" points="111.21,-94.76 101.04,-97.73 110.85,-101.75 111.21,-94.76"/>
<text text-anchor="middle" x="128.62" y="-100.33" font-family="Times New Roman,serif" font-size="14.00">1/0</text>
</g>
<!-- S2 -->
<g id="node3" class="node">
<title>S2</title>
<ellipse fill="none" stroke="black" cx="75" cy="-18" rx="27" ry="18"/>
<text text-anchor="middle" x="75" y="-12.57" font-family="Times New Roman,serif" font-size="14.00">S2</text>
</g>
<!-- S1&#45;&gt;S2 -->
<g id="edge3" class="edge">
<title>S1&#45;&gt;S2</title>
<path fill="none" stroke="black" d="M75,-87.4C75,-76.01 75,-60.84 75,-47.68"/>
<polygon fill="black" stroke="black" points="78.5,-47.84 75,-37.84 71.5,-47.84 78.5,-47.84"/>
<text text-anchor="middle" x="83.62" y="-56.45" font-family="Times New Roman,serif" font-size="14.00">0/0</text>
</g>
<!-- S2&#45;&gt;S0 -->
<g id="edge5" class="edge">
<title>S2&#45;&gt;S0</title>
<path fill="none" stroke="black" d="M59.45,-33.07C46.56,-45.87 29.18,-66.04 21.75,-87.75 13.2,-112.75 16.03,-143.07 20.09,-164.64"/>
<polygon fill="black" stroke="black" points="16.6,-165.09 22.09,-174.16 23.45,-163.65 16.6,-165.09"/>
<text text-anchor="middle" x="29.62" y="-100.33" font-family="Times New Roman,serif" font-size="14.00">0/0</text>
</g>
<!-- S3 -->
<g id="node4" class="node">
<title>S3</title>
<ellipse fill="none" stroke="black" cx="160" cy="-193.5" rx="27" ry="18"/>
<text text-anchor="middle" x="160" y="-188.07" font-family="Times New Roman,serif" font-size="14.00">S3</text>
</g>
<!-- S3&#45;&gt;S1 -->
<g id="edge7" class="edge">
<title>S3&#45;&gt;S1</title>
<path fill="none" stroke="black" d="M145.58,-177.95C132.39,-164.65 112.67,-144.76 97.43,-129.38"/>
<polygon fill="black" stroke="black" points="100.08,-127.08 90.56,-122.44 95.11,-132.01 100.08,-127.08"/>
<text text-anchor="middle" x="133.62" y="-144.2" font-family="Times New Roman,serif" font-size="14.00">1/0</text>
</g>
<!-- S3&#45;&gt;S2 -->
<g id="edge6" class="edge">
<title>S3&#45;&gt;S2</title>
<path fill="none" stroke="black" d="M161.06,-175.17C161.65,-153.53 160.21,-115.93 146,-87.75 136.02,-67.96 118.03,-50.63 102.66,-38.33"/>
<polygon fill="black" stroke="black" points="104.79,-35.55 94.72,-32.26 100.54,-41.11 104.79,-35.55"/>
<text text-anchor="middle" x="165.62" y="-100.33" font-family="Times New Roman,serif" font-size="14.00">0/0</text>
</g>
</g>
</svg>
