<?xml version="1.0" encoding="UTF-8" standalone="no"?>
<!DOCTYPE svg PUBLIC "-//W3C//DTD SVG 1.1//EN"
 "http://www.w3.org/Graphics/SVG/1.1/DTD/svg11.dtd">
<!-- Generated by graphviz version 12.1.1 (20240910.0053)
 -->
<!-- Pages: 1 -->
<svg width="185pt" height="310pt"
 viewBox="0.00 0.00 184.62 309.50" xmlns="http://www.w3.org/2000/svg" xmlns:xlink="http://www.w3.org/1999/xlink">
<g id="graph0" class="graph" transform="scale(1 1) rotate(0) translate(4 305.5)">
<polygon fill="white" stroke="none" points="-4,4 -4,-305.5 180.62,-305.5 180.62,4 -4,4"/>
<!-- S0 -->
<g id="node1" class="node">
<title>S0</title>
<ellipse fill="none" stroke="black" cx="27.81" cy="-283.5" rx="27.81" ry="18"/>
<text text-anchor="middle" x="27.81" y="-278.45" font-family="Times,serif" font-size="14.00">S0/0</text>
</g>
<!-- S0&#45;&gt;S0 -->
<g id="edge1" class="edge">
<title>S0&#45;&gt;S0</title>
<path fill="none" stroke="black" d="M52.78,-291.67C63.95,-292.45 73.62,-289.72 73.62,-283.5 73.62,-279.51 69.65,-276.96 63.86,-275.85"/>
<polygon fill="black" stroke="black" points="64.45,-272.37 54.29,-275.4 64.12,-279.37 64.45,-272.37"/>
<text text-anchor="middle" x="76.99" y="-278.45" font-family="Times,serif" font-size="14.00">0</text>
</g>
<!-- S1 -->
<g id="node2" class="node">
<title>S1</title>
<ellipse fill="none" stroke="black" cx="71.81" cy="-195" rx="27.81" ry="18"/>
<text text-anchor="middle" x="71.81" y="-189.95" font-family="Times,serif" font-size="14.00">S1/0</text>
</g>
<!-- S0&#45;&gt;S1 -->
<g id="edge2" class="edge">
<title>S0&#45;&gt;S1</title>
<path fill="none" stroke="black" d="M36.08,-266.23C42.31,-253.98 50.99,-236.93 58.23,-222.7"/>
<polygon fill="black" stroke="black" points="61.32,-224.34 62.73,-213.84 55.08,-221.17 61.32,-224.34"/>
<text text-anchor="middle" x="57.12" y="-234.2" font-family="Times,serif" font-size="14.00">1</text>
</g>
<!-- S1&#45;&gt;S1 -->
<g id="edge4" class="edge">
<title>S1&#45;&gt;S1</title>
<path fill="none" stroke="black" d="M96.78,-203.17C107.95,-203.95 117.62,-201.22 117.62,-195 117.62,-191.01 113.65,-188.46 107.86,-187.35"/>
<polygon fill="black" stroke="black" points="108.45,-183.87 98.29,-186.9 108.12,-190.87 108.45,-183.87"/>
<text text-anchor="middle" x="120.99" y="-189.95" font-family="Times,serif" font-size="14.00">1</text>
</g>
<!-- S2 -->
<g id="node3" class="node">
<title>S2</title>
<ellipse fill="none" stroke="black" cx="86.81" cy="-106.5" rx="27.81" ry="18"/>
<text text-anchor="middle" x="86.81" y="-101.45" font-family="Times,serif" font-size="14.00">S2/0</text>
</g>
<!-- S1&#45;&gt;S2 -->
<g id="edge3" class="edge">
<title>S1&#45;&gt;S2</title>
<path fill="none" stroke="black" d="M67.92,-177.07C66.23,-166.91 65.22,-153.8 68.06,-142.5 68.8,-139.53 69.85,-136.54 71.08,-133.62"/>
<polygon fill="black" stroke="black" points="74.1,-135.42 75.4,-124.91 67.83,-132.31 74.1,-135.42"/>
<text text-anchor="middle" x="71.43" y="-145.7" font-family="Times,serif" font-size="14.00">0</text>
</g>
<!-- S2&#45;&gt;S1 -->
<g id="edge6" class="edge">
<title>S2&#45;&gt;S1</title>
<path fill="none" stroke="black" d="M83.8,-124.85C81.77,-136.56 79.04,-152.29 76.7,-165.78"/>
<polygon fill="black" stroke="black" points="73.29,-164.97 75.03,-175.42 80.19,-166.16 73.29,-164.97"/>
<text text-anchor="middle" x="84.03" y="-145.7" font-family="Times,serif" font-size="14.00">1</text>
</g>
<!-- S3 -->
<g id="node4" class="node">
<title>S3</title>
<ellipse fill="none" stroke="black" cx="31.81" cy="-18" rx="27.81" ry="18"/>
<text text-anchor="middle" x="31.81" y="-12.95" font-family="Times,serif" font-size="14.00">S3/0</text>
</g>
<!-- S2&#45;&gt;S3 -->
<g id="edge5" class="edge">
<title>S2&#45;&gt;S3</title>
<path fill="none" stroke="black" d="M76.72,-89.63C68.71,-77.03 57.34,-59.16 48.05,-44.55"/>
<polygon fill="black" stroke="black" points="51.15,-42.9 42.83,-36.34 45.24,-46.65 51.15,-42.9"/>
<text text-anchor="middle" x="67.61" y="-57.2" font-family="Times,serif" font-size="14.00">0</text>
</g>
<!-- S3&#45;&gt;S0 -->
<g id="edge7" class="edge">
<title>S3&#45;&gt;S0</title>
<path fill="none" stroke="black" d="M31.54,-36.35C30.87,-80.81 29.07,-199.14 28.24,-253.93"/>
<polygon fill="black" stroke="black" points="24.75,-253.65 28.09,-263.7 31.75,-253.75 24.75,-253.65"/>
<text text-anchor="middle" x="33.28" y="-145.7" font-family="Times,serif" font-size="14.00">0</text>
</g>
<!-- S4 -->
<g id="node5" class="node">
<title>S4</title>
<ellipse fill="none" stroke="black" cx="148.81" cy="-283.5" rx="27.81" ry="18"/>
<text text-anchor="middle" x="148.81" y="-278.45" font-family="Times,serif" font-size="14.00">S4/1</text>
</g>
<!-- S4&#45;&gt;S1 -->
<g id="edge9" class="edge">
<title>S4&#45;&gt;S1</title>
<path fill="none" stroke="black" d="M135.4,-267.43C123.65,-254.24 106.4,-234.86 92.82,-219.61"/>
<polygon fill="black" stroke="black" points="95.59,-217.46 86.33,-212.32 90.37,-222.11 95.59,-217.46"/>
<text text-anchor="middle" x="120.58" y="-234.2" font-family="Times,serif" font-size="14.00">1</text>
</g>
<!-- S4&#45;&gt;S2 -->
<g id="edge8" class="edge">
<title>S4&#45;&gt;S2</title>
<path fill="none" stroke="black" d="M148.71,-265.09C148.06,-243.67 145.19,-206.52 133.81,-177 127.5,-160.65 116.74,-144.31 107.11,-131.59"/>
<polygon fill="black" stroke="black" points="109.92,-129.51 100.99,-123.82 104.42,-133.84 109.92,-129.51"/>
<text text-anchor="middle" x="146.86" y="-189.95" font-family="Times,serif" font-size="14.00">0</text>
</g>
</g>
</svg>
