<?xml version="1.0" encoding="UTF-8" standalone="no"?>
<!DOCTYPE svg PUBLIC "-//W3C//DTD SVG 1.1//EN"
 "http://www.w3.org/Graphics/SVG/1.1/DTD/svg11.dtd">
<!-- Generated by graphviz version 12.1.1 (20240910.0053)
 -->
<!-- Pages: 1 -->
<svg width="144pt" height="310pt"
 viewBox="0.00 0.00 144.37 309.50" xmlns="http://www.w3.org/2000/svg" xmlns:xlink="http://www.w3.org/1999/xlink">
<g id="graph0" class="graph" transform="scale(1 1) rotate(0) translate(4 305.5)">
<polygon fill="white" stroke="none" points="-4,4 -4,-305.5 140.37,-305.5 140.37,4 -4,4"/>
<!-- S0 -->
<g id="node1" class="node">
<title>S0</title>
<ellipse fill="none" stroke="black" cx="83.81" cy="-283.5" rx="27.81" ry="18"/>
<text text-anchor="middle" x="83.81" y="-278.45" font-family="Times,serif" font-size="14.00">S0/0</text>
</g>
<!-- S0&#45;&gt;S0 -->
<g id="edge2" class="edge">
<title>S0&#45;&gt;S0</title>
<path fill="none" stroke="black" d="M108.78,-291.67C119.95,-292.45 129.62,-289.72 129.62,-283.5 129.62,-279.51 125.65,-276.96 119.86,-275.85"/>
<polygon fill="black" stroke="black" points="120.45,-272.37 110.29,-275.4 120.12,-279.37 120.45,-272.37"/>
<text text-anchor="middle" x="132.99" y="-278.45" font-family="Times,serif" font-size="14.00">1</text>
</g>
<!-- S1 -->
<g id="node2" class="node">
<title>S1</title>
<ellipse fill="none" stroke="black" cx="27.81" cy="-195" rx="27.81" ry="18"/>
<text text-anchor="middle" x="27.81" y="-189.95" font-family="Times,serif" font-size="14.00">S1/0</text>
</g>
<!-- S0&#45;&gt;S1 -->
<g id="edge1" class="edge">
<title>S0&#45;&gt;S1</title>
<path fill="none" stroke="black" d="M73.54,-266.63C65.38,-254.03 53.81,-236.16 44.35,-221.55"/>
<polygon fill="black" stroke="black" points="47.4,-219.82 39.03,-213.33 41.52,-223.62 47.4,-219.82"/>
<text text-anchor="middle" x="64.2" y="-234.2" font-family="Times,serif" font-size="14.00">0</text>
</g>
<!-- S2 -->
<g id="node3" class="node">
<title>S2</title>
<ellipse fill="none" stroke="black" cx="27.81" cy="-106.5" rx="27.81" ry="18"/>
<text text-anchor="middle" x="27.81" y="-101.45" font-family="Times,serif" font-size="14.00">S2/0</text>
</g>
<!-- S1&#45;&gt;S2 -->
<g id="edge3" class="edge">
<title>S1&#45;&gt;S2</title>
<path fill="none" stroke="black" d="M19.78,-177.29C17.45,-171.62 15.22,-165.16 14.06,-159 12.69,-151.79 12.69,-149.71 14.06,-142.5 14.53,-140 15.18,-137.45 15.94,-134.92"/>
<polygon fill="black" stroke="black" points="19.19,-136.23 19.27,-125.63 12.6,-133.87 19.19,-136.23"/>
<text text-anchor="middle" x="17.43" y="-145.7" font-family="Times,serif" font-size="14.00">1</text>
</g>
<!-- S2&#45;&gt;S1 -->
<g id="edge4" class="edge">
<title>S2&#45;&gt;S1</title>
<path fill="none" stroke="black" d="M27.81,-124.85C27.81,-136.56 27.81,-152.29 27.81,-165.78"/>
<polygon fill="black" stroke="black" points="24.31,-165.4 27.81,-175.4 31.31,-165.4 24.31,-165.4"/>
<text text-anchor="middle" x="31.18" y="-145.7" font-family="Times,serif" font-size="14.00">0</text>
</g>
<!-- S3 -->
<g id="node4" class="node">
<title>S3</title>
<ellipse fill="none" stroke="black" cx="83.81" cy="-18" rx="27.81" ry="18"/>
<text text-anchor="middle" x="83.81" y="-12.95" font-family="Times,serif" font-size="14.00">S3/1</text>
</g>
<!-- S2&#45;&gt;S3 -->
<g id="edge5" class="edge">
<title>S2&#45;&gt;S3</title>
<path fill="none" stroke="black" d="M38.08,-89.63C46.24,-77.03 57.81,-59.16 67.27,-44.55"/>
<polygon fill="black" stroke="black" points="70.09,-46.62 72.59,-36.33 64.22,-42.82 70.09,-46.62"/>
<text text-anchor="middle" x="64.2" y="-57.2" font-family="Times,serif" font-size="14.00">1</text>
</g>
<!-- S3&#45;&gt;S0 -->
<g id="edge6" class="edge">
<title>S3&#45;&gt;S0</title>
<path fill="none" stroke="black" d="M83.81,-36.35C83.81,-80.81 83.81,-199.14 83.81,-253.93"/>
<polygon fill="black" stroke="black" points="80.31,-253.7 83.81,-263.7 87.31,-253.7 80.31,-253.7"/>
<text text-anchor="middle" x="87.18" y="-145.7" font-family="Times,serif" font-size="14.00">0</text>
</g>
<!-- S3&#45;&gt;S0 -->
<g id="edge7" class="edge">
<title>S3&#45;&gt;S0</title>
<path fill="none" stroke="black" d="M91.99,-35.7C94.35,-41.37 96.62,-47.83 97.81,-54 114.07,-138.45 114.07,-163.05 97.81,-247.5 97.33,-250.01 96.67,-252.56 95.89,-255.09"/>
<polygon fill="black" stroke="black" points="92.64,-253.79 92.5,-264.38 99.22,-256.19 92.64,-253.79"/>
<text text-anchor="middle" x="113.38" y="-145.7" font-family="Times,serif" font-size="14.00">1</text>
</g>
</g>
</svg>
