<?xml version="1.0" encoding="UTF-8" standalone="no"?>
<!DOCTYPE svg PUBLIC "-//W3C//DTD SVG 1.1//EN"
 "http://www.w3.org/Graphics/SVG/1.1/DTD/svg11.dtd">
<!-- Generated by graphviz version 12.1.1 (20240910.0053)
 -->
<!-- Pages: 1 -->
<svg width="161pt" height="398pt"
 viewBox="0.00 0.00 161.37 398.00" xmlns="http://www.w3.org/2000/svg" xmlns:xlink="http://www.w3.org/1999/xlink">
<g id="graph0" class="graph" transform="scale(1 1) rotate(0) translate(4 394)">
<polygon fill="white" stroke="none" points="-4,4 -4,-394 157.37,-394 157.37,4 -4,4"/>
<!-- S0 -->
<g id="node1" class="node">
<title>S0</title>
<ellipse fill="none" stroke="black" cx="100.81" cy="-372" rx="27.81" ry="18"/>
<text text-anchor="middle" x="100.81" y="-366.95" font-family="Times,serif" font-size="14.00">S0/0</text>
</g>
<!-- S0&#45;&gt;S0 -->
<g id="edge2" class="edge">
<title>S0&#45;&gt;S0</title>
<path fill="none" stroke="black" d="M125.78,-380.17C136.95,-380.95 146.62,-378.22 146.62,-372 146.62,-368.01 142.65,-365.46 136.86,-364.35"/>
<polygon fill="black" stroke="black" points="137.45,-360.87 127.29,-363.9 137.12,-367.87 137.45,-360.87"/>
<text text-anchor="middle" x="149.99" y="-366.95" font-family="Times,serif" font-size="14.00">1</text>
</g>
<!-- S1 -->
<g id="node2" class="node">
<title>S1</title>
<ellipse fill="none" stroke="black" cx="100.81" cy="-283.5" rx="27.81" ry="18"/>
<text text-anchor="middle" x="100.81" y="-278.45" font-family="Times,serif" font-size="14.00">S1/0</text>
</g>
<!-- S0&#45;&gt;S1 -->
<g id="edge1" class="edge">
<title>S0&#45;&gt;S1</title>
<path fill="none" stroke="black" d="M100.81,-353.91C100.81,-342.26 100.81,-326.55 100.81,-313.02"/>
<polygon fill="black" stroke="black" points="104.31,-313.36 100.81,-303.36 97.31,-313.36 104.31,-313.36"/>
<text text-anchor="middle" x="104.18" y="-322.7" font-family="Times,serif" font-size="14.00">0</text>
</g>
<!-- S1&#45;&gt;S1 -->
<g id="edge3" class="edge">
<title>S1&#45;&gt;S1</title>
<path fill="none" stroke="black" d="M125.78,-291.67C136.95,-292.45 146.62,-289.72 146.62,-283.5 146.62,-279.51 142.65,-276.96 136.86,-275.85"/>
<polygon fill="black" stroke="black" points="137.45,-272.37 127.29,-275.4 137.12,-279.37 137.45,-272.37"/>
<text text-anchor="middle" x="149.99" y="-278.45" font-family="Times,serif" font-size="14.00">0</text>
</g>
<!-- S2 -->
<g id="node3" class="node">
<title>S2</title>
<ellipse fill="none" stroke="black" cx="70.81" cy="-195" rx="27.81" ry="18"/>
<text text-anchor="middle" x="70.81" y="-189.95" font-family="Times,serif" font-size="14.00">S2/0</text>
</g>
<!-- S1&#45;&gt;S2 -->
<g id="edge4" class="edge">
<title>S1&#45;&gt;S2</title>
<path fill="none" stroke="black" d="M86.38,-267.67C81.59,-261.85 76.79,-254.81 74.06,-247.5 71.38,-240.34 70.13,-232.23 69.65,-224.61"/>
<polygon fill="black" stroke="black" points="73.15,-224.66 69.46,-214.73 66.15,-224.8 73.15,-224.66"/>
<text text-anchor="middle" x="77.43" y="-234.2" font-family="Times,serif" font-size="14.00">1</text>
</g>
<!-- S2&#45;&gt;S1 -->
<g id="edge5" class="edge">
<title>S2&#45;&gt;S1</title>
<path fill="none" stroke="black" d="M76.72,-213.05C80.83,-224.89 86.39,-240.93 91.14,-254.62"/>
<polygon fill="black" stroke="black" points="87.8,-255.68 94.39,-263.98 94.42,-253.39 87.8,-255.68"/>
<text text-anchor="middle" x="91.87" y="-234.2" font-family="Times,serif" font-size="14.00">0</text>
</g>
<!-- S3 -->
<g id="node4" class="node">
<title>S3</title>
<ellipse fill="none" stroke="black" cx="27.81" cy="-106.5" rx="27.81" ry="18"/>
<text text-anchor="middle" x="27.81" y="-101.45" font-family="Times,serif" font-size="14.00">S3/0</text>
</g>
<!-- S2&#45;&gt;S3 -->
<g id="edge6" class="edge">
<title>S2&#45;&gt;S3</title>
<path fill="none" stroke="black" d="M62.52,-177.32C56.45,-165.12 48.09,-148.3 41.1,-134.23"/>
<polygon fill="black" stroke="black" points="44.33,-132.88 36.75,-125.48 38.06,-135.99 44.33,-132.88"/>
<text text-anchor="middle" x="56.53" y="-145.7" font-family="Times,serif" font-size="14.00">1</text>
</g>
<!-- S4 -->
<g id="node5" class="node">
<title>S4</title>
<ellipse fill="none" stroke="black" cx="91.81" cy="-18" rx="27.81" ry="18"/>
<text text-anchor="middle" x="91.81" y="-12.95" font-family="Times,serif" font-size="14.00">S4/1</text>
</g>
<!-- S3&#45;&gt;S4 -->
<g id="edge7" class="edge">
<title>S3&#45;&gt;S4</title>
<path fill="none" stroke="black" d="M39.25,-90.04C48.75,-77.2 62.43,-58.7 73.46,-43.8"/>
<polygon fill="black" stroke="black" points="76.22,-45.96 79.35,-35.84 70.59,-41.8 76.22,-45.96"/>
<text text-anchor="middle" x="68.92" y="-57.2" font-family="Times,serif" font-size="14.00">0</text>
</g>
<!-- S4&#45;&gt;S1 -->
<g id="edge8" class="edge">
<title>S4&#45;&gt;S1</title>
<path fill="none" stroke="black" d="M96.88,-35.95C98.39,-41.64 99.88,-48.05 100.81,-54 111.68,-123.9 111.36,-142.35 107.81,-213 107.13,-226.49 105.72,-241.4 104.34,-253.94"/>
<polygon fill="black" stroke="black" points="100.89,-253.27 103.22,-263.61 107.84,-254.08 100.89,-253.27"/>
<text text-anchor="middle" x="113.39" y="-145.7" font-family="Times,serif" font-size="14.00">0</text>
</g>
<!-- S4&#45;&gt;S2 -->
<g id="edge9" class="edge">
<title>S4&#45;&gt;S2</title>
<path fill="none" stroke="black" d="M89.73,-36.35C86.12,-66.44 78.66,-128.58 74.26,-165.22"/>
<polygon fill="black" stroke="black" points="70.8,-164.73 73.08,-175.08 77.75,-165.57 70.8,-164.73"/>
<text text-anchor="middle" x="86.77" y="-101.45" font-family="Times,serif" font-size="14.00">1</text>
</g>
</g>
</svg>
