<?xml version="1.0" encoding="UTF-8" standalone="no"?>
<!DOCTYPE svg PUBLIC "-//W3C//DTD SVG 1.1//EN"
 "http://www.w3.org/Graphics/SVG/1.1/DTD/svg11.dtd">
<!-- Generated by graphviz version 12.1.1 (20240910.0053)
 -->
<!-- Pages: 1 -->
<svg width="210pt" height="398pt"
 viewBox="0.00 0.00 209.56 398.00" xmlns="http://www.w3.org/2000/svg" xmlns:xlink="http://www.w3.org/1999/xlink">
<g id="graph0" class="graph" transform="scale(1 1) rotate(0) translate(4 394)">
<polygon fill="white" stroke="none" points="-4,4 -4,-394 205.56,-394 205.56,4 -4,4"/>
<!-- S0 -->
<g id="node1" class="node">
<title>S0</title>
<ellipse fill="none" stroke="black" cx="133.81" cy="-372" rx="27.81" ry="18"/>
<text text-anchor="middle" x="133.81" y="-366.95" font-family="Times,serif" font-size="14.00">S0/0</text>
</g>
<!-- S0&#45;&gt;S0 -->
<g id="edge2" class="edge">
<title>S0&#45;&gt;S0</title>
<path fill="none" stroke="black" d="M158.78,-380.17C169.95,-380.95 179.62,-378.22 179.62,-372 179.62,-368.01 175.65,-365.46 169.86,-364.35"/>
<polygon fill="black" stroke="black" points="170.45,-360.87 160.29,-363.9 170.12,-367.87 170.45,-360.87"/>
<text text-anchor="middle" x="182.99" y="-366.95" font-family="Times,serif" font-size="14.00">1</text>
</g>
<!-- S1 -->
<g id="node2" class="node">
<title>S1</title>
<ellipse fill="none" stroke="black" cx="27.81" cy="-283.5" rx="27.81" ry="18"/>
<text text-anchor="middle" x="27.81" y="-278.45" font-family="Times,serif" font-size="14.00">S1/0</text>
</g>
<!-- S0&#45;&gt;S1 -->
<g id="edge1" class="edge">
<title>S0&#45;&gt;S1</title>
<path fill="none" stroke="black" d="M117.25,-357.48C100.16,-343.54 73.27,-321.6 53.43,-305.41"/>
<polygon fill="black" stroke="black" points="55.74,-302.77 45.78,-299.16 51.31,-308.2 55.74,-302.77"/>
<text text-anchor="middle" x="93.68" y="-322.7" font-family="Times,serif" font-size="14.00">0</text>
</g>
<!-- S1&#45;&gt;S1 -->
<g id="edge3" class="edge">
<title>S1&#45;&gt;S1</title>
<path fill="none" stroke="black" d="M52.78,-291.67C63.95,-292.45 73.62,-289.72 73.62,-283.5 73.62,-279.51 69.65,-276.96 63.86,-275.85"/>
<polygon fill="black" stroke="black" points="64.45,-272.37 54.29,-275.4 64.12,-279.37 64.45,-272.37"/>
<text text-anchor="middle" x="76.99" y="-278.45" font-family="Times,serif" font-size="14.00">0</text>
</g>
<!-- S2 -->
<g id="node3" class="node">
<title>S2</title>
<ellipse fill="none" stroke="black" cx="87.81" cy="-195" rx="27.81" ry="18"/>
<text text-anchor="middle" x="87.81" y="-189.95" font-family="Times,serif" font-size="14.00">S2/0</text>
</g>
<!-- S1&#45;&gt;S2 -->
<g id="edge4" class="edge">
<title>S1&#45;&gt;S2</title>
<path fill="none" stroke="black" d="M38.81,-266.63C47.69,-253.83 60.35,-235.59 70.57,-220.85"/>
<polygon fill="black" stroke="black" points="73.19,-223.22 76.01,-213.01 67.44,-219.23 73.19,-223.22"/>
<text text-anchor="middle" x="66.56" y="-234.2" font-family="Times,serif" font-size="14.00">1</text>
</g>
<!-- S2&#45;&gt;S0 -->
<g id="edge6" class="edge">
<title>S2&#45;&gt;S0</title>
<path fill="none" stroke="black" d="M92.32,-213.17C100.27,-243.41 116.83,-306.42 126.45,-343.02"/>
<polygon fill="black" stroke="black" points="123,-343.66 128.93,-352.44 129.77,-341.88 123,-343.66"/>
<text text-anchor="middle" x="118.76" y="-278.45" font-family="Times,serif" font-size="14.00">1</text>
</g>
<!-- S3 -->
<g id="node4" class="node">
<title>S3</title>
<ellipse fill="none" stroke="black" cx="93.81" cy="-106.5" rx="27.81" ry="18"/>
<text text-anchor="middle" x="93.81" y="-101.45" font-family="Times,serif" font-size="14.00">S3/0</text>
</g>
<!-- S2&#45;&gt;S3 -->
<g id="edge5" class="edge">
<title>S2&#45;&gt;S3</title>
<path fill="none" stroke="black" d="M88.99,-176.91C89.8,-165.26 90.89,-149.55 91.83,-136.02"/>
<polygon fill="black" stroke="black" points="95.3,-136.58 92.5,-126.36 88.32,-136.09 95.3,-136.58"/>
<text text-anchor="middle" x="94.72" y="-145.7" font-family="Times,serif" font-size="14.00">0</text>
</g>
<!-- S4 -->
<g id="node5" class="node">
<title>S4</title>
<ellipse fill="none" stroke="black" cx="151.81" cy="-18" rx="27.81" ry="18"/>
<text text-anchor="middle" x="151.81" y="-12.95" font-family="Times,serif" font-size="14.00">S4/1</text>
</g>
<!-- S3&#45;&gt;S4 -->
<g id="edge7" class="edge">
<title>S3&#45;&gt;S4</title>
<path fill="none" stroke="black" d="M104.45,-89.63C112.9,-77.03 124.88,-59.16 134.68,-44.55"/>
<polygon fill="black" stroke="black" points="137.54,-46.57 140.2,-36.31 131.72,-42.67 137.54,-46.57"/>
<text text-anchor="middle" x="131.38" y="-57.2" font-family="Times,serif" font-size="14.00">1</text>
</g>
<!-- S4&#45;&gt;S0 -->
<g id="edge8" class="edge">
<title>S4&#45;&gt;S0</title>
<path fill="none" stroke="black" d="M151.81,-36.23C151.81,-53.69 151.81,-81.47 151.81,-105.5 151.81,-284.5 151.81,-284.5 151.81,-284.5 151.81,-304.44 147.17,-326.44 142.6,-343.26"/>
<polygon fill="black" stroke="black" points="139.33,-341.95 139.92,-352.53 146.06,-343.89 139.33,-341.95"/>
<text text-anchor="middle" x="155.18" y="-189.95" font-family="Times,serif" font-size="14.00">0</text>
</g>
<!-- S4&#45;&gt;S0 -->
<g id="edge9" class="edge">
<title>S4&#45;&gt;S0</title>
<path fill="none" stroke="black" d="M164.71,-34.13C177.38,-50.57 194.81,-78.16 194.81,-105.5 194.81,-284.5 194.81,-284.5 194.81,-284.5 194.81,-310.48 176.21,-334.14 159.55,-350.12"/>
<polygon fill="black" stroke="black" points="157.31,-347.43 152.25,-356.74 162.01,-352.62 157.31,-347.43"/>
<text text-anchor="middle" x="198.18" y="-189.95" font-family="Times,serif" font-size="14.00">1</text>
</g>
</g>
</svg>
