<?xml version="1.0" encoding="UTF-8" standalone="no"?>
<!DOCTYPE svg PUBLIC "-//W3C//DTD SVG 1.1//EN"
 "http://www.w3.org/Graphics/SVG/1.1/DTD/svg11.dtd">
<!-- Generated by graphviz version 12.1.1 (20240910.0053)
 -->
<!-- Pages: 1 -->
<svg width="144pt" height="398pt"
 viewBox="0.00 0.00 143.62 398.00" xmlns="http://www.w3.org/2000/svg" xmlns:xlink="http://www.w3.org/1999/xlink">
<g id="graph0" class="graph" transform="scale(1 1) rotate(0) translate(4 394)">
<polygon fill="white" stroke="none" points="-4,4 -4,-394 139.62,-394 139.62,4 -4,4"/>
<!-- S0 -->
<g id="node1" class="node">
<title>S0</title>
<ellipse fill="none" stroke="black" cx="77.81" cy="-106.5" rx="27.81" ry="18"/>
<text text-anchor="middle" x="77.81" y="-101.45" font-family="Times,serif" font-size="14.00">S0/0</text>
</g>
<!-- S0&#45;&gt;S0 -->
<g id="edge1" class="edge">
<title>S0&#45;&gt;S0</title>
<path fill="none" stroke="black" d="M102.78,-114.67C113.95,-115.45 123.62,-112.72 123.62,-106.5 123.62,-102.51 119.65,-99.96 113.86,-98.85"/>
<polygon fill="black" stroke="black" points="114.45,-95.37 104.29,-98.4 114.12,-102.37 114.45,-95.37"/>
<text text-anchor="middle" x="126.99" y="-101.45" font-family="Times,serif" font-size="14.00">0</text>
</g>
<!-- S1 -->
<g id="node2" class="node">
<title>S1</title>
<ellipse fill="none" stroke="black" cx="27.81" cy="-18" rx="27.81" ry="18"/>
<text text-anchor="middle" x="27.81" y="-12.95" font-family="Times,serif" font-size="14.00">S1/0</text>
</g>
<!-- S0&#45;&gt;S1 -->
<g id="edge2" class="edge">
<title>S0&#45;&gt;S1</title>
<path fill="none" stroke="black" d="M68.4,-89.23C61.21,-76.79 51.15,-59.38 42.84,-45.01"/>
<polygon fill="black" stroke="black" points="45.96,-43.41 37.93,-36.51 39.9,-46.92 45.96,-43.41"/>
<text text-anchor="middle" x="60.66" y="-57.2" font-family="Times,serif" font-size="14.00">1</text>
</g>
<!-- S1&#45;&gt;S1 -->
<g id="edge3" class="edge">
<title>S1&#45;&gt;S1</title>
<path fill="none" stroke="black" d="M52.78,-26.17C63.95,-26.95 73.62,-24.22 73.62,-18 73.62,-14.01 69.65,-11.46 63.86,-10.35"/>
<polygon fill="black" stroke="black" points="64.45,-6.87 54.29,-9.9 64.12,-13.87 64.45,-6.87"/>
<text text-anchor="middle" x="76.99" y="-12.95" font-family="Times,serif" font-size="14.00">1</text>
</g>
<!-- S2 -->
<g id="node3" class="node">
<title>S2</title>
<ellipse fill="none" stroke="black" cx="27.81" cy="-372" rx="27.81" ry="18"/>
<text text-anchor="middle" x="27.81" y="-366.95" font-family="Times,serif" font-size="14.00">S2/0</text>
</g>
<!-- S2&#45;&gt;S1 -->
<g id="edge5" class="edge">
<title>S2&#45;&gt;S1</title>
<path fill="none" stroke="black" d="M22.75,-353.94C18.06,-336.62 11.81,-308.94 11.81,-284.5 11.81,-284.5 11.81,-284.5 11.81,-105.5 11.81,-85.65 15.93,-63.65 20,-46.81"/>
<polygon fill="black" stroke="black" points="23.28,-48.08 22.37,-37.53 16.5,-46.35 23.28,-48.08"/>
<text text-anchor="middle" x="15.18" y="-189.95" font-family="Times,serif" font-size="14.00">1</text>
</g>
<!-- S3 -->
<g id="node4" class="node">
<title>S3</title>
<ellipse fill="none" stroke="black" cx="67.81" cy="-283.5" rx="27.81" ry="18"/>
<text text-anchor="middle" x="67.81" y="-278.45" font-family="Times,serif" font-size="14.00">S3/0</text>
</g>
<!-- S2&#45;&gt;S3 -->
<g id="edge4" class="edge">
<title>S2&#45;&gt;S3</title>
<path fill="none" stroke="black" d="M35.52,-354.32C41.16,-342.12 48.94,-325.3 55.45,-311.23"/>
<polygon fill="black" stroke="black" points="58.46,-313.05 59.48,-302.5 52.11,-310.11 58.46,-313.05"/>
<text text-anchor="middle" x="54.77" y="-322.7" font-family="Times,serif" font-size="14.00">0</text>
</g>
<!-- S3&#45;&gt;S0 -->
<g id="edge6" class="edge">
<title>S3&#45;&gt;S0</title>
<path fill="none" stroke="black" d="M65.79,-265.28C63.67,-244.36 61.02,-208.01 64.06,-177 65.4,-163.27 68.21,-148.23 70.94,-135.67"/>
<polygon fill="black" stroke="black" points="74.34,-136.5 73.14,-125.97 67.51,-134.95 74.34,-136.5"/>
<text text-anchor="middle" x="67.43" y="-189.95" font-family="Times,serif" font-size="14.00">0</text>
</g>
<!-- S4 -->
<g id="node5" class="node">
<title>S4</title>
<ellipse fill="none" stroke="black" cx="107.81" cy="-195" rx="27.81" ry="18"/>
<text text-anchor="middle" x="107.81" y="-189.95" font-family="Times,serif" font-size="14.00">S4/1</text>
</g>
<!-- S3&#45;&gt;S4 -->
<g id="edge7" class="edge">
<title>S3&#45;&gt;S4</title>
<path fill="none" stroke="black" d="M75.52,-265.82C81.16,-253.62 88.94,-236.8 95.45,-222.73"/>
<polygon fill="black" stroke="black" points="98.46,-224.55 99.48,-214 92.11,-221.61 98.46,-224.55"/>
<text text-anchor="middle" x="94.77" y="-234.2" font-family="Times,serif" font-size="14.00">1</text>
</g>
<!-- S4&#45;&gt;S0 -->
<g id="edge8" class="edge">
<title>S4&#45;&gt;S0</title>
<path fill="none" stroke="black" d="M99.12,-177.55C96.3,-171.79 93.32,-165.2 91.06,-159 88.33,-151.51 85.94,-143.22 83.96,-135.51"/>
<polygon fill="black" stroke="black" points="87.4,-134.82 81.65,-125.92 80.59,-136.46 87.4,-134.82"/>
<text text-anchor="middle" x="94.43" y="-145.7" font-family="Times,serif" font-size="14.00">0</text>
</g>
<!-- S4&#45;&gt;S0 -->
<g id="edge9" class="edge">
<title>S4&#45;&gt;S0</title>
<path fill="none" stroke="black" d="M104.94,-177C102.95,-166.81 99.92,-153.7 95.81,-142.5 94.8,-139.75 93.62,-136.94 92.36,-134.17"/>
<polygon fill="black" stroke="black" points="95.51,-132.63 87.95,-125.21 89.23,-135.73 95.51,-132.63"/>
<text text-anchor="middle" x="103.92" y="-145.7" font-family="Times,serif" font-size="14.00">1</text>
</g>
</g>
</svg>
