<?xml version="1.0" encoding="UTF-8" standalone="no"?>
<!DOCTYPE svg PUBLIC "-//W3C//DTD SVG 1.1//EN"
 "http://www.w3.org/Graphics/SVG/1.1/DTD/svg11.dtd">
<!-- Generated by graphviz version 12.1.1 (20240910.0053)
 -->
<!-- Pages: 1 -->
<svg width="181pt" height="398pt"
 viewBox="0.00 0.00 181.25 398.00" xmlns="http://www.w3.org/2000/svg" xmlns:xlink="http://www.w3.org/1999/xlink">
<g id="graph0" class="graph" transform="scale(1 1) rotate(0) translate(4 394)">
<polygon fill="white" stroke="none" points="-4,4 -4,-394 177.25,-394 177.25,4 -4,4"/>
<!-- S0 -->
<g id="node1" class="node">
<title>S0</title>
<ellipse fill="none" stroke="black" cx="58" cy="-283.5" rx="27" ry="18"/>
<text text-anchor="middle" x="58" y="-278.45" font-family="Times,serif" font-size="14.00">S0</text>
</g>
<!-- S0&#45;&gt;S0 -->
<g id="edge1" class="edge">
<title>S0&#45;&gt;S0</title>
<path fill="none" stroke="black" d="M82.53,-291.67C93.51,-292.45 103,-289.72 103,-283.5 103,-279.61 99.29,-277.09 93.83,-275.93"/>
<polygon fill="black" stroke="black" points="94.22,-272.45 84.04,-275.41 93.84,-279.44 94.22,-272.45"/>
<text text-anchor="middle" x="111.62" y="-278.45" font-family="Times,serif" font-size="14.00">0/0</text>
</g>
<!-- S1 -->
<g id="node2" class="node">
<title>S1</title>
<ellipse fill="none" stroke="black" cx="58" cy="-195" rx="27" ry="18"/>
<text text-anchor="middle" x="58" y="-189.95" font-family="Times,serif" font-size="14.00">S1</text>
</g>
<!-- S0&#45;&gt;S1 -->
<g id="edge2" class="edge">
<title>S0&#45;&gt;S1</title>
<path fill="none" stroke="black" d="M58,-265.41C58,-253.76 58,-238.05 58,-224.52"/>
<polygon fill="black" stroke="black" points="61.5,-224.86 58,-214.86 54.5,-224.86 61.5,-224.86"/>
<text text-anchor="middle" x="66.62" y="-234.2" font-family="Times,serif" font-size="14.00">1/0</text>
</g>
<!-- S1&#45;&gt;S1 -->
<g id="edge4" class="edge">
<title>S1&#45;&gt;S1</title>
<path fill="none" stroke="black" d="M82.53,-203.17C93.51,-203.95 103,-201.22 103,-195 103,-191.11 99.29,-188.59 93.83,-187.43"/>
<polygon fill="black" stroke="black" points="94.22,-183.95 84.04,-186.91 93.84,-190.94 94.22,-183.95"/>
<text text-anchor="middle" x="111.62" y="-189.95" font-family="Times,serif" font-size="14.00">1/0</text>
</g>
<!-- S2 -->
<g id="node3" class="node">
<title>S2</title>
<ellipse fill="none" stroke="black" cx="27" cy="-106.5" rx="27" ry="18"/>
<text text-anchor="middle" x="27" y="-101.45" font-family="Times,serif" font-size="14.00">S2</text>
</g>
<!-- S1&#45;&gt;S2 -->
<g id="edge3" class="edge">
<title>S1&#45;&gt;S2</title>
<path fill="none" stroke="black" d="M52.02,-177.32C47.72,-165.31 41.82,-148.84 36.82,-134.91"/>
<polygon fill="black" stroke="black" points="40.24,-134.08 33.58,-125.85 33.65,-136.44 40.24,-134.08"/>
<text text-anchor="middle" x="53.9" y="-145.7" font-family="Times,serif" font-size="14.00">0/0</text>
</g>
<!-- S2&#45;&gt;S0 -->
<g id="edge5" class="edge">
<title>S2&#45;&gt;S0</title>
<path fill="none" stroke="black" d="M18.22,-123.91C8.17,-144.93 -5.65,-182.33 4.75,-213 10.78,-230.78 23.38,-247.58 34.82,-260.21"/>
<polygon fill="black" stroke="black" points="31.98,-262.3 41.41,-267.15 37.06,-257.48 31.98,-262.3"/>
<text text-anchor="middle" x="13.38" y="-189.95" font-family="Times,serif" font-size="14.00">0/0</text>
</g>
<!-- S3 -->
<g id="node4" class="node">
<title>S3</title>
<ellipse fill="none" stroke="black" cx="90" cy="-18" rx="27" ry="18"/>
<text text-anchor="middle" x="90" y="-12.95" font-family="Times,serif" font-size="14.00">S3</text>
</g>
<!-- S2&#45;&gt;S3 -->
<g id="edge6" class="edge">
<title>S2&#45;&gt;S3</title>
<path fill="none" stroke="black" d="M36.03,-89.25C42.03,-78.87 50.34,-65.28 58.75,-54 61.79,-49.92 65.21,-45.75 68.63,-41.78"/>
<polygon fill="black" stroke="black" points="70.97,-44.42 75.01,-34.63 65.74,-39.76 70.97,-44.42"/>
<text text-anchor="middle" x="67.38" y="-57.2" font-family="Times,serif" font-size="14.00">1/0</text>
</g>
<!-- S3&#45;&gt;S1 -->
<g id="edge7" class="edge">
<title>S3&#45;&gt;S1</title>
<path fill="none" stroke="black" d="M87.66,-36.33C83.96,-62.88 76.22,-115.13 67,-159 66.52,-161.3 65.98,-163.68 65.42,-166.06"/>
<polygon fill="black" stroke="black" points="62.09,-164.96 63.07,-175.51 68.88,-166.66 62.09,-164.96"/>
<text text-anchor="middle" x="88.36" y="-101.45" font-family="Times,serif" font-size="14.00">1/0</text>
</g>
<!-- S4 -->
<g id="node5" class="node">
<title>S4</title>
<ellipse fill="none" stroke="black" cx="107" cy="-372" rx="27" ry="18"/>
<text text-anchor="middle" x="107" y="-366.95" font-family="Times,serif" font-size="14.00">S4</text>
</g>
<!-- S4&#45;&gt;S0 -->
<g id="edge8" class="edge">
<title>S4&#45;&gt;S0</title>
<path fill="none" stroke="black" d="M97.78,-354.73C90.73,-342.29 80.87,-324.88 72.73,-310.51"/>
<polygon fill="black" stroke="black" points="75.9,-308.99 67.92,-302.01 69.8,-312.44 75.9,-308.99"/>
<text text-anchor="middle" x="95.51" y="-322.7" font-family="Times,serif" font-size="14.00">0/0</text>
</g>
<!-- S4&#45;&gt;S3 -->
<g id="edge9" class="edge">
<title>S4&#45;&gt;S3</title>
<path fill="none" stroke="black" d="M121.44,-356.48C135.89,-340.34 156,-312.81 156,-284.5 156,-284.5 156,-284.5 156,-105.5 156,-78.39 135.26,-54.49 117.03,-38.72"/>
<polygon fill="black" stroke="black" points="119.51,-36.23 109.56,-32.61 115.08,-41.65 119.51,-36.23"/>
<text text-anchor="middle" x="164.62" y="-189.95" font-family="Times,serif" font-size="14.00">1/0</text>
</g>
</g>
</svg>
