<?xml version="1.0" encoding="UTF-8" standalone="no"?>
<!DOCTYPE svg PUBLIC "-//W3C//DTD SVG 1.1//EN"
 "http://www.w3.org/Graphics/SVG/1.1/DTD/svg11.dtd">
<!-- Generated by graphviz version 12.1.1 (20240910.0053)
 -->
<!-- Pages: 1 -->
<svg width="169pt" height="310pt"
 viewBox="0.00 0.00 169.00 309.50" xmlns="http://www.w3.org/2000/svg" xmlns:xlink="http://www.w3.org/1999/xlink">
<g id="graph0" class="graph" transform="scale(1 1) rotate(0) translate(4 305.5)">
<polygon fill="white" stroke="none" points="-4,4 -4,-305.5 165,-305.5 165,4 -4,4"/>
<!-- S0 -->
<g id="node1" class="node">
<title>S0</title>
<ellipse fill="none" stroke="black" cx="27" cy="-195" rx="27" ry="18"/>
<text text-anchor="middle" x="27" y="-189.95" font-family="Times,serif" font-size="14.00">S0</text>
</g>
<!-- S0&#45;&gt;S0 -->
<g id="edge2" class="edge">
<title>S0&#45;&gt;S0</title>
<path fill="none" stroke="black" d="M51.53,-203.17C62.51,-203.95 72,-201.22 72,-195 72,-191.11 68.29,-188.59 62.83,-187.43"/>
<polygon fill="black" stroke="black" points="63.22,-183.95 53.04,-186.91 62.84,-190.94 63.22,-183.95"/>
<text text-anchor="middle" x="80.62" y="-189.95" font-family="Times,serif" font-size="14.00">1/0</text>
</g>
<!-- S1 -->
<g id="node2" class="node">
<title>S1</title>
<ellipse fill="none" stroke="black" cx="36" cy="-106.5" rx="27" ry="18"/>
<text text-anchor="middle" x="36" y="-101.45" font-family="Times,serif" font-size="14.00">S1</text>
</g>
<!-- S0&#45;&gt;S1 -->
<g id="edge1" class="edge">
<title>S0&#45;&gt;S1</title>
<path fill="none" stroke="black" d="M28.78,-176.91C29.99,-165.26 31.63,-149.55 33.03,-136.02"/>
<polygon fill="black" stroke="black" points="36.48,-136.66 34.04,-126.36 29.52,-135.94 36.48,-136.66"/>
<text text-anchor="middle" x="40.93" y="-145.7" font-family="Times,serif" font-size="14.00">0/0</text>
</g>
<!-- S1&#45;&gt;S1 -->
<g id="edge3" class="edge">
<title>S1&#45;&gt;S1</title>
<path fill="none" stroke="black" d="M60.53,-114.67C71.51,-115.45 81,-112.72 81,-106.5 81,-102.61 77.29,-100.09 71.83,-98.93"/>
<polygon fill="black" stroke="black" points="72.22,-95.45 62.04,-98.41 71.84,-102.44 72.22,-95.45"/>
<text text-anchor="middle" x="89.62" y="-101.45" font-family="Times,serif" font-size="14.00">0/0</text>
</g>
<!-- S2 -->
<g id="node3" class="node">
<title>S2</title>
<ellipse fill="none" stroke="black" cx="76" cy="-18" rx="27" ry="18"/>
<text text-anchor="middle" x="76" y="-12.95" font-family="Times,serif" font-size="14.00">S2</text>
</g>
<!-- S1&#45;&gt;S2 -->
<g id="edge4" class="edge">
<title>S1&#45;&gt;S2</title>
<path fill="none" stroke="black" d="M32.9,-88.51C31.8,-78.09 31.84,-64.74 36.75,-54 39.41,-48.19 43.54,-42.94 48.16,-38.37"/>
<polygon fill="black" stroke="black" points="50.33,-41.12 55.6,-31.93 45.75,-35.83 50.33,-41.12"/>
<text text-anchor="middle" x="45.38" y="-57.2" font-family="Times,serif" font-size="14.00">1/0</text>
</g>
<!-- S2&#45;&gt;S1 -->
<g id="edge5" class="edge">
<title>S2&#45;&gt;S1</title>
<path fill="none" stroke="black" d="M69.17,-35.83C64.97,-45.96 59.38,-59.06 54,-70.5 52.68,-73.3 51.27,-76.21 49.83,-79.1"/>
<polygon fill="black" stroke="black" points="46.77,-77.39 45.35,-87.89 53.01,-80.57 46.77,-77.39"/>
<text text-anchor="middle" x="69.6" y="-57.2" font-family="Times,serif" font-size="14.00">0/0</text>
</g>
<!-- S3 -->
<g id="node4" class="node">
<title>S3</title>
<ellipse fill="none" stroke="black" cx="80" cy="-283.5" rx="27" ry="18"/>
<text text-anchor="middle" x="80" y="-278.45" font-family="Times,serif" font-size="14.00">S3</text>
</g>
<!-- S3&#45;&gt;S0 -->
<g id="edge7" class="edge">
<title>S3&#45;&gt;S0</title>
<path fill="none" stroke="black" d="M70.28,-266.63C62.56,-254.03 51.61,-236.16 42.65,-221.55"/>
<polygon fill="black" stroke="black" points="45.84,-220.05 37.63,-213.35 39.87,-223.7 45.84,-220.05"/>
<text text-anchor="middle" x="66.87" y="-234.2" font-family="Times,serif" font-size="14.00">1/0</text>
</g>
<!-- S4 -->
<g id="node5" class="node">
<title>S4</title>
<ellipse fill="none" stroke="black" cx="134" cy="-195" rx="27" ry="18"/>
<text text-anchor="middle" x="134" y="-189.95" font-family="Times,serif" font-size="14.00">S4</text>
</g>
<!-- S3&#45;&gt;S4 -->
<g id="edge6" class="edge">
<title>S3&#45;&gt;S4</title>
<path fill="none" stroke="black" d="M89.9,-266.63C97.77,-254.03 108.93,-236.16 118.05,-221.55"/>
<polygon fill="black" stroke="black" points="120.85,-223.68 123.17,-213.34 114.91,-219.97 120.85,-223.68"/>
<text text-anchor="middle" x="120.46" y="-234.2" font-family="Times,serif" font-size="14.00">0/1</text>
</g>
<!-- S4&#45;&gt;S1 -->
<g id="edge8" class="edge">
<title>S4&#45;&gt;S1</title>
<path fill="none" stroke="black" d="M118.25,-180.1C102.54,-166.23 78.18,-144.73 60.04,-128.72"/>
<polygon fill="black" stroke="black" points="62.65,-126.36 52.84,-122.36 58.02,-131.61 62.65,-126.36"/>
<text text-anchor="middle" x="102.4" y="-145.7" font-family="Times,serif" font-size="14.00">0/0</text>
</g>
<!-- S4&#45;&gt;S2 -->
<g id="edge9" class="edge">
<title>S4&#45;&gt;S2</title>
<path fill="none" stroke="black" d="M130.56,-176.93C126.11,-155.85 117.63,-119.03 107,-88.5 101.99,-74.12 95.21,-58.6 89.27,-45.89"/>
<polygon fill="black" stroke="black" points="92.44,-44.42 84.98,-36.9 86.13,-47.43 92.44,-44.42"/>
<text text-anchor="middle" x="126.34" y="-101.45" font-family="Times,serif" font-size="14.00">1/0</text>
</g>
</g>
</svg>
