<?xml version="1.0" encoding="UTF-8" standalone="no"?>
<!DOCTYPE svg PUBLIC "-//W3C//DTD SVG 1.1//EN"
 "http://www.w3.org/Graphics/SVG/1.1/DTD/svg11.dtd">
<!-- Generated by graphviz version 12.1.1 (20240910.0053)
 -->
<!-- Pages: 1 -->
<svg width="213pt" height="398pt"
 viewBox="0.00 0.00 212.56 398.00" xmlns="http://www.w3.org/2000/svg" xmlns:xlink="http://www.w3.org/1999/xlink">
<g id="graph0" class="graph" transform="scale(1 1) rotate(0) translate(4 394)">
<polygon fill="white" stroke="none" points="-4,4 -4,-394 208.56,-394 208.56,4 -4,4"/>
<!-- S0 -->
<g id="node1" class="node">
<title>S0</title>
<ellipse fill="none" stroke="black" cx="131.81" cy="-372" rx="27.81" ry="18"/>
<text text-anchor="middle" x="131.81" y="-366.95" font-family="Times,serif" font-size="14.00">S0/0</text>
</g>
<!-- S0&#45;&gt;S0 -->
<g id="edge2" class="edge">
<title>S0&#45;&gt;S0</title>
<path fill="none" stroke="black" d="M156.78,-380.17C167.95,-380.95 177.62,-378.22 177.62,-372 177.62,-368.01 173.65,-365.46 167.86,-364.35"/>
<polygon fill="black" stroke="black" points="168.45,-360.87 158.29,-363.9 168.12,-367.87 168.45,-360.87"/>
<text text-anchor="middle" x="180.99" y="-366.95" font-family="Times,serif" font-size="14.00">1</text>
</g>
<!-- S1 -->
<g id="node2" class="node">
<title>S1</title>
<ellipse fill="none" stroke="black" cx="27.81" cy="-283.5" rx="27.81" ry="18"/>
<text text-anchor="middle" x="27.81" y="-278.45" font-family="Times,serif" font-size="14.00">S1/0</text>
</g>
<!-- S0&#45;&gt;S1 -->
<g id="edge1" class="edge">
<title>S0&#45;&gt;S1</title>
<path fill="none" stroke="black" d="M114.67,-357.5C106.55,-351.05 96.75,-343.19 88.06,-336 76.29,-326.27 63.41,-315.3 52.59,-306"/>
<polygon fill="black" stroke="black" points="55.06,-303.5 45.2,-299.62 50.49,-308.8 55.06,-303.5"/>
<text text-anchor="middle" x="91.43" y="-322.7" font-family="Times,serif" font-size="14.00">0</text>
</g>
<!-- S1&#45;&gt;S1 -->
<g id="edge3" class="edge">
<title>S1&#45;&gt;S1</title>
<path fill="none" stroke="black" d="M52.78,-291.67C63.95,-292.45 73.62,-289.72 73.62,-283.5 73.62,-279.51 69.65,-276.96 63.86,-275.85"/>
<polygon fill="black" stroke="black" points="64.45,-272.37 54.29,-275.4 64.12,-279.37 64.45,-272.37"/>
<text text-anchor="middle" x="76.99" y="-278.45" font-family="Times,serif" font-size="14.00">0</text>
</g>
<!-- S2 -->
<g id="node3" class="node">
<title>S2</title>
<ellipse fill="none" stroke="black" cx="46.81" cy="-195" rx="27.81" ry="18"/>
<text text-anchor="middle" x="46.81" y="-189.95" font-family="Times,serif" font-size="14.00">S2/0</text>
</g>
<!-- S1&#45;&gt;S2 -->
<g id="edge4" class="edge">
<title>S1&#45;&gt;S2</title>
<path fill="none" stroke="black" d="M31.56,-265.41C34.14,-253.68 37.62,-237.84 40.6,-224.25"/>
<polygon fill="black" stroke="black" points="44.01,-225.05 42.74,-214.53 37.17,-223.55 44.01,-225.05"/>
<text text-anchor="middle" x="42.39" y="-234.2" font-family="Times,serif" font-size="14.00">1</text>
</g>
<!-- S3 -->
<g id="node4" class="node">
<title>S3</title>
<ellipse fill="none" stroke="black" cx="98.81" cy="-106.5" rx="27.81" ry="18"/>
<text text-anchor="middle" x="98.81" y="-101.45" font-family="Times,serif" font-size="14.00">S3/0</text>
</g>
<!-- S2&#45;&gt;S3 -->
<g id="edge5" class="edge">
<title>S2&#45;&gt;S3</title>
<path fill="none" stroke="black" d="M56.59,-177.73C64.07,-165.29 74.53,-147.88 83.17,-133.51"/>
<polygon fill="black" stroke="black" points="86.14,-135.37 88.29,-124.99 80.14,-131.76 86.14,-135.37"/>
<text text-anchor="middle" x="80.84" y="-145.7" font-family="Times,serif" font-size="14.00">1</text>
</g>
<!-- S3&#45;&gt;S0 -->
<g id="edge7" class="edge">
<title>S3&#45;&gt;S0</title>
<path fill="none" stroke="black" d="M100.98,-124.85C106.55,-169.31 121.37,-287.64 128.23,-342.43"/>
<polygon fill="black" stroke="black" points="124.74,-342.72 129.45,-352.21 131.69,-341.85 124.74,-342.72"/>
<text text-anchor="middle" x="119.44" y="-234.2" font-family="Times,serif" font-size="14.00">1</text>
</g>
<!-- S4 -->
<g id="node5" class="node">
<title>S4</title>
<ellipse fill="none" stroke="black" cx="154.81" cy="-18" rx="27.81" ry="18"/>
<text text-anchor="middle" x="154.81" y="-12.95" font-family="Times,serif" font-size="14.00">S4/1</text>
</g>
<!-- S3&#45;&gt;S4 -->
<g id="edge6" class="edge">
<title>S3&#45;&gt;S4</title>
<path fill="none" stroke="black" d="M109.08,-89.63C117.24,-77.03 128.81,-59.16 138.27,-44.55"/>
<polygon fill="black" stroke="black" points="141.09,-46.62 143.59,-36.33 135.22,-42.82 141.09,-46.62"/>
<text text-anchor="middle" x="135.2" y="-57.2" font-family="Times,serif" font-size="14.00">0</text>
</g>
<!-- S4&#45;&gt;S0 -->
<g id="edge8" class="edge">
<title>S4&#45;&gt;S0</title>
<path fill="none" stroke="black" d="M154.81,-36.23C154.81,-53.69 154.81,-81.47 154.81,-105.5 154.81,-284.5 154.81,-284.5 154.81,-284.5 154.81,-304.83 148.8,-326.97 142.93,-343.76"/>
<polygon fill="black" stroke="black" points="139.69,-342.43 139.49,-353.02 146.25,-344.87 139.69,-342.43"/>
<text text-anchor="middle" x="158.18" y="-189.95" font-family="Times,serif" font-size="14.00">0</text>
</g>
<!-- S4&#45;&gt;S0 -->
<g id="edge9" class="edge">
<title>S4&#45;&gt;S0</title>
<path fill="none" stroke="black" d="M167.71,-34.13C180.38,-50.57 197.81,-78.16 197.81,-105.5 197.81,-284.5 197.81,-284.5 197.81,-284.5 197.81,-311.61 177.07,-335.51 158.84,-351.28"/>
<polygon fill="black" stroke="black" points="156.89,-348.35 151.36,-357.39 161.32,-353.77 156.89,-348.35"/>
<text text-anchor="middle" x="201.18" y="-189.95" font-family="Times,serif" font-size="14.00">1</text>
</g>
</g>
</svg>
