<?xml version="1.0" encoding="UTF-8" standalone="no"?>
<!DOCTYPE svg PUBLIC "-//W3C//DTD SVG 1.1//EN"
 "http://www.w3.org/Graphics/SVG/1.1/DTD/svg11.dtd">
<!-- Generated by graphviz version 12.1.1 (20240910.0053)
 -->
<!-- Pages: 1 -->
<svg width="197pt" height="310pt"
 viewBox="0.00 0.00 197.37 309.50" xmlns="http://www.w3.org/2000/svg" xmlns:xlink="http://www.w3.org/1999/xlink">
<g id="graph0" class="graph" transform="scale(1 1) rotate(0) translate(4 305.5)">
<polygon fill="white" stroke="none" points="-4,4 -4,-305.5 193.37,-305.5 193.37,4 -4,4"/>
<!-- S0 -->
<g id="node1" class="node">
<title>S0</title>
<ellipse fill="none" stroke="black" cx="136.81" cy="-18" rx="27.81" ry="18"/>
<text text-anchor="middle" x="136.81" y="-12.95" font-family="Times,serif" font-size="14.00">S0/0</text>
</g>
<!-- S0&#45;&gt;S0 -->
<g id="edge1" class="edge">
<title>S0&#45;&gt;S0</title>
<path fill="none" stroke="black" d="M161.78,-26.17C172.95,-26.95 182.62,-24.22 182.62,-18 182.62,-14.01 178.65,-11.46 172.86,-10.35"/>
<polygon fill="black" stroke="black" points="173.45,-6.87 163.29,-9.9 173.12,-13.87 173.45,-6.87"/>
<text text-anchor="middle" x="185.99" y="-12.95" font-family="Times,serif" font-size="14.00">0</text>
</g>
<!-- S1 -->
<g id="node2" class="node">
<title>S1</title>
<ellipse fill="none" stroke="black" cx="27.81" cy="-195" rx="27.81" ry="18"/>
<text text-anchor="middle" x="27.81" y="-189.95" font-family="Times,serif" font-size="14.00">S1/0</text>
</g>
<!-- S1&#45;&gt;S1 -->
<g id="edge3" class="edge">
<title>S1&#45;&gt;S1</title>
<path fill="none" stroke="black" d="M52.78,-203.17C63.95,-203.95 73.62,-201.22 73.62,-195 73.62,-191.01 69.65,-188.46 63.86,-187.35"/>
<polygon fill="black" stroke="black" points="64.45,-183.87 54.29,-186.9 64.12,-190.87 64.45,-183.87"/>
<text text-anchor="middle" x="76.99" y="-189.95" font-family="Times,serif" font-size="14.00">1</text>
</g>
<!-- S2 -->
<g id="node3" class="node">
<title>S2</title>
<ellipse fill="none" stroke="black" cx="57.81" cy="-283.5" rx="27.81" ry="18"/>
<text text-anchor="middle" x="57.81" y="-278.45" font-family="Times,serif" font-size="14.00">S2/0</text>
</g>
<!-- S1&#45;&gt;S2 -->
<g id="edge2" class="edge">
<title>S1&#45;&gt;S2</title>
<path fill="none" stroke="black" d="M33.72,-213.05C37.83,-224.89 43.39,-240.93 48.14,-254.62"/>
<polygon fill="black" stroke="black" points="44.8,-255.68 51.39,-263.98 51.42,-253.39 44.8,-255.68"/>
<text text-anchor="middle" x="48.87" y="-234.2" font-family="Times,serif" font-size="14.00">0</text>
</g>
<!-- S2&#45;&gt;S1 -->
<g id="edge5" class="edge">
<title>S2&#45;&gt;S1</title>
<path fill="none" stroke="black" d="M43.38,-267.67C38.59,-261.85 33.79,-254.81 31.06,-247.5 28.38,-240.34 27.13,-232.23 26.65,-224.61"/>
<polygon fill="black" stroke="black" points="30.15,-224.66 26.46,-214.73 23.15,-224.8 30.15,-224.66"/>
<text text-anchor="middle" x="34.43" y="-234.2" font-family="Times,serif" font-size="14.00">1</text>
</g>
<!-- S3 -->
<g id="node4" class="node">
<title>S3</title>
<ellipse fill="none" stroke="black" cx="125.81" cy="-195" rx="27.81" ry="18"/>
<text text-anchor="middle" x="125.81" y="-189.95" font-family="Times,serif" font-size="14.00">S3/0</text>
</g>
<!-- S2&#45;&gt;S3 -->
<g id="edge4" class="edge">
<title>S2&#45;&gt;S3</title>
<path fill="none" stroke="black" d="M69.97,-267.04C80.15,-254.08 94.88,-235.35 106.65,-220.38"/>
<polygon fill="black" stroke="black" points="109.16,-222.84 112.59,-212.81 103.66,-218.51 109.16,-222.84"/>
<text text-anchor="middle" x="101.27" y="-234.2" font-family="Times,serif" font-size="14.00">0</text>
</g>
<!-- S3&#45;&gt;S0 -->
<g id="edge6" class="edge">
<title>S3&#45;&gt;S0</title>
<path fill="none" stroke="black" d="M120.81,-177.12C115.31,-156.24 107.89,-119.62 113.06,-88.5 115.43,-74.25 120.35,-59 125.11,-46.42"/>
<polygon fill="black" stroke="black" points="128.35,-47.72 128.79,-37.14 121.85,-45.14 128.35,-47.72"/>
<text text-anchor="middle" x="116.43" y="-101.45" font-family="Times,serif" font-size="14.00">0</text>
</g>
<!-- S4 -->
<g id="node5" class="node">
<title>S4</title>
<ellipse fill="none" stroke="black" cx="156.81" cy="-106.5" rx="27.81" ry="18"/>
<text text-anchor="middle" x="156.81" y="-101.45" font-family="Times,serif" font-size="14.00">S4/1</text>
</g>
<!-- S3&#45;&gt;S4 -->
<g id="edge7" class="edge">
<title>S3&#45;&gt;S4</title>
<path fill="none" stroke="black" d="M131.79,-177.32C136.09,-165.31 141.99,-148.84 146.98,-134.91"/>
<polygon fill="black" stroke="black" points="150.15,-136.44 150.23,-125.85 143.56,-134.08 150.15,-136.44"/>
<text text-anchor="middle" x="147.46" y="-145.7" font-family="Times,serif" font-size="14.00">1</text>
</g>
<!-- S4&#45;&gt;S0 -->
<g id="edge8" class="edge">
<title>S4&#45;&gt;S0</title>
<path fill="none" stroke="black" d="M147.44,-89.26C144.57,-83.52 141.72,-76.89 140.06,-70.5 138.18,-63.3 137.18,-55.36 136.69,-47.91"/>
<polygon fill="black" stroke="black" points="140.19,-47.8 136.32,-37.94 133.19,-48.06 140.19,-47.8"/>
<text text-anchor="middle" x="143.43" y="-57.2" font-family="Times,serif" font-size="14.00">0</text>
</g>
<!-- S4&#45;&gt;S0 -->
<g id="edge9" class="edge">
<title>S4&#45;&gt;S0</title>
<path fill="none" stroke="black" d="M152.86,-88.41C150.15,-76.68 146.48,-60.84 143.34,-47.25"/>
<polygon fill="black" stroke="black" points="146.76,-46.48 141.09,-37.53 139.94,-48.06 146.76,-46.48"/>
<text text-anchor="middle" x="151.97" y="-57.2" font-family="Times,serif" font-size="14.00">1</text>
</g>
</g>
</svg>
