<?xml version="1.0" encoding="UTF-8" standalone="no"?>
<!DOCTYPE svg PUBLIC "-//W3C//DTD SVG 1.1//EN"
 "http://www.w3.org/Graphics/SVG/1.1/DTD/svg11.dtd">
<!-- Generated by graphviz version 12.0.0 (20240704.0754)
 -->
<!-- Pages: 1 -->
<svg width="215pt" height="220pt"
 viewBox="0.00 0.00 215.00 219.50" xmlns="http://www.w3.org/2000/svg" xmlns:xlink="http://www.w3.org/1999/xlink">
<g id="graph0" class="graph" transform="scale(1 1) rotate(0) translate(4 215.5)">
<polygon fill="white" stroke="none" points="-4,4 -4,-215.5 211,-215.5 211,4 -4,4"/>
<!-- S0 -->
<g id="node1" class="node">
<title>S0</title>
<ellipse fill="none" stroke="black" cx="73" cy="-105.75" rx="27" ry="18"/>
<text text-anchor="middle" x="73" y="-100.33" font-family="Times New Roman,serif" font-size="14.00">S0</text>
</g>
<!-- S0&#45;&gt;S0 -->
<g id="edge1" class="edge">
<title>S0&#45;&gt;S0</title>
<path fill="none" stroke="black" d="M97.53,-113.85C108.51,-114.62 118,-111.92 118,-105.75 118,-101.89 114.29,-99.39 108.83,-98.25"/>
<polygon fill="black" stroke="black" points="109.21,-94.76 99.04,-97.73 108.85,-101.75 109.21,-94.76"/>
<text text-anchor="middle" x="126.62" y="-100.33" font-family="Times New Roman,serif" font-size="14.00">1/0</text>
</g>
<!-- S1 -->
<g id="node2" class="node">
<title>S1</title>
<ellipse fill="none" stroke="black" cx="27" cy="-18" rx="27" ry="18"/>
<text text-anchor="middle" x="27" y="-12.57" font-family="Times New Roman,serif" font-size="14.00">S1</text>
</g>
<!-- S1&#45;&gt;S1 -->
<g id="edge2" class="edge">
<title>S1&#45;&gt;S1</title>
<path fill="none" stroke="black" d="M51.53,-26.1C62.51,-26.87 72,-24.17 72,-18 72,-14.14 68.29,-11.64 62.83,-10.5"/>
<polygon fill="black" stroke="black" points="63.21,-7.01 53.04,-9.98 62.85,-14 63.21,-7.01"/>
<text text-anchor="middle" x="80.62" y="-12.57" font-family="Times New Roman,serif" font-size="14.00">0/0</text>
</g>
<!-- S2 -->
<g id="node3" class="node">
<title>S2</title>
<ellipse fill="none" stroke="black" cx="99" cy="-193.5" rx="27" ry="18"/>
<text text-anchor="middle" x="99" y="-188.07" font-family="Times New Roman,serif" font-size="14.00">S2</text>
</g>
<!-- S1&#45;&gt;S2 -->
<g id="edge3" class="edge">
<title>S1&#45;&gt;S2</title>
<path fill="none" stroke="black" d="M21.08,-35.85C14.57,-57.31 6.66,-95.06 19.75,-123.75 29.83,-145.84 50.9,-163.57 68.79,-175.49"/>
<polygon fill="black" stroke="black" points="66.7,-178.31 77.02,-180.69 70.44,-172.39 66.7,-178.31"/>
<text text-anchor="middle" x="28.62" y="-100.33" font-family="Times New Roman,serif" font-size="14.00">1/0</text>
</g>
<!-- S2&#45;&gt;S0 -->
<g id="edge5" class="edge">
<title>S2&#45;&gt;S0</title>
<path fill="none" stroke="black" d="M91.01,-176.03C88.43,-170.27 85.73,-163.69 83.75,-157.5 81.44,-150.29 79.49,-142.35 77.91,-134.94"/>
<polygon fill="black" stroke="black" points="81.4,-134.51 76.03,-125.38 74.53,-135.86 81.4,-134.51"/>
<text text-anchor="middle" x="91.62" y="-144.2" font-family="Times New Roman,serif" font-size="14.00">1/0</text>
</g>
<!-- S3 -->
<g id="node4" class="node">
<title>S3</title>
<ellipse fill="none" stroke="black" cx="180" cy="-105.75" rx="27" ry="18"/>
<text text-anchor="middle" x="180" y="-100.33" font-family="Times New Roman,serif" font-size="14.00">S3</text>
</g>
<!-- S2&#45;&gt;S3 -->
<g id="edge4" class="edge">
<title>S2&#45;&gt;S3</title>
<path fill="none" stroke="black" d="M109.29,-176.6C116.4,-166.17 126.41,-152.52 136.75,-141.75 141.84,-136.45 147.73,-131.2 153.49,-126.45"/>
<polygon fill="black" stroke="black" points="155.46,-129.35 161.12,-120.39 151.11,-123.87 155.46,-129.35"/>
<text text-anchor="middle" x="144.62" y="-144.2" font-family="Times New Roman,serif" font-size="14.00">0/1</text>
</g>
<!-- S3&#45;&gt;S1 -->
<g id="edge6" class="edge">
<title>S3&#45;&gt;S1</title>
<path fill="none" stroke="black" d="M159.68,-93.36C133.36,-78.61 87.26,-52.77 56.93,-35.77"/>
<polygon fill="black" stroke="black" points="58.67,-32.74 48.24,-30.9 55.25,-38.84 58.67,-32.74"/>
<text text-anchor="middle" x="125.62" y="-56.45" font-family="Times New Roman,serif" font-size="14.00">0/0</text>
</g>
<!-- S3&#45;&gt;S2 -->
<g id="edge7" class="edge">
<title>S3&#45;&gt;S2</title>
<path fill="none" stroke="black" d="M174,-123.66C169.64,-134.25 162.93,-147.69 154,-157.5 147.26,-164.9 138.62,-171.36 130.19,-176.65"/>
<polygon fill="black" stroke="black" points="128.69,-173.47 121.83,-181.54 132.22,-179.51 128.69,-173.47"/>
<text text-anchor="middle" x="172.62" y="-144.2" font-family="Times New Roman,serif" font-size="14.00">1/0</text>
</g>
</g>
</svg>
