<?xml version="1.0" encoding="UTF-8" standalone="no"?>
<!DOCTYPE svg PUBLIC "-//W3C//DTD SVG 1.1//EN"
 "http://www.w3.org/Graphics/SVG/1.1/DTD/svg11.dtd">
<!-- Generated by graphviz version 12.1.1 (20240910.0053)
 -->
<!-- Pages: 1 -->
<svg width="144pt" height="398pt"
 viewBox="0.00 0.00 144.37 398.00" xmlns="http://www.w3.org/2000/svg" xmlns:xlink="http://www.w3.org/1999/xlink">
<g id="graph0" class="graph" transform="scale(1 1) rotate(0) translate(4 394)">
<polygon fill="white" stroke="none" points="-4,4 -4,-394 140.37,-394 140.37,4 -4,4"/>
<!-- S0 -->
<g id="node1" class="node">
<title>S0</title>
<ellipse fill="none" stroke="black" cx="42.81" cy="-106.5" rx="27.81" ry="18"/>
<text text-anchor="middle" x="42.81" y="-101.45" font-family="Times,serif" font-size="14.00">S0/0</text>
</g>
<!-- S0&#45;&gt;S0 -->
<g id="edge1" class="edge">
<title>S0&#45;&gt;S0</title>
<path fill="none" stroke="black" d="M67.78,-114.67C78.95,-115.45 88.62,-112.72 88.62,-106.5 88.62,-102.51 84.65,-99.96 78.86,-98.85"/>
<polygon fill="black" stroke="black" points="79.45,-95.37 69.29,-98.4 79.12,-102.37 79.45,-95.37"/>
<text text-anchor="middle" x="91.99" y="-101.45" font-family="Times,serif" font-size="14.00">0</text>
</g>
<!-- S1 -->
<g id="node2" class="node">
<title>S1</title>
<ellipse fill="none" stroke="black" cx="83.81" cy="-18" rx="27.81" ry="18"/>
<text text-anchor="middle" x="83.81" y="-12.95" font-family="Times,serif" font-size="14.00">S1/0</text>
</g>
<!-- S0&#45;&gt;S1 -->
<g id="edge2" class="edge">
<title>S0&#45;&gt;S1</title>
<path fill="none" stroke="black" d="M50.71,-88.82C56.5,-76.62 64.47,-59.8 71.14,-45.73"/>
<polygon fill="black" stroke="black" points="74.16,-47.53 75.28,-36.99 67.83,-44.53 74.16,-47.53"/>
<text text-anchor="middle" x="70.36" y="-57.2" font-family="Times,serif" font-size="14.00">1</text>
</g>
<!-- S1&#45;&gt;S1 -->
<g id="edge3" class="edge">
<title>S1&#45;&gt;S1</title>
<path fill="none" stroke="black" d="M108.78,-26.17C119.95,-26.95 129.62,-24.22 129.62,-18 129.62,-14.01 125.65,-11.46 119.86,-10.35"/>
<polygon fill="black" stroke="black" points="120.45,-6.87 110.29,-9.9 120.12,-13.87 120.45,-6.87"/>
<text text-anchor="middle" x="132.99" y="-12.95" font-family="Times,serif" font-size="14.00">1</text>
</g>
<!-- S2 -->
<g id="node3" class="node">
<title>S2</title>
<ellipse fill="none" stroke="black" cx="27.81" cy="-372" rx="27.81" ry="18"/>
<text text-anchor="middle" x="27.81" y="-366.95" font-family="Times,serif" font-size="14.00">S2/0</text>
</g>
<!-- S2&#45;&gt;S0 -->
<g id="edge4" class="edge">
<title>S2&#45;&gt;S0</title>
<path fill="none" stroke="black" d="M27.17,-353.56C26.13,-319.52 24.74,-241.9 30.81,-177 32.08,-163.42 34.51,-148.5 36.86,-135.97"/>
<polygon fill="black" stroke="black" points="40.27,-136.79 38.75,-126.31 33.4,-135.45 40.27,-136.79"/>
<text text-anchor="middle" x="30.71" y="-234.2" font-family="Times,serif" font-size="14.00">0</text>
</g>
<!-- S3 -->
<g id="node4" class="node">
<title>S3</title>
<ellipse fill="none" stroke="black" cx="82.81" cy="-283.5" rx="27.81" ry="18"/>
<text text-anchor="middle" x="82.81" y="-278.45" font-family="Times,serif" font-size="14.00">S3/0</text>
</g>
<!-- S2&#45;&gt;S3 -->
<g id="edge5" class="edge">
<title>S2&#45;&gt;S3</title>
<path fill="none" stroke="black" d="M37.9,-355.13C45.91,-342.53 57.27,-324.66 66.56,-310.05"/>
<polygon fill="black" stroke="black" points="69.37,-312.15 71.79,-301.84 63.47,-308.4 69.37,-312.15"/>
<text text-anchor="middle" x="63.61" y="-322.7" font-family="Times,serif" font-size="14.00">1</text>
</g>
<!-- S3&#45;&gt;S1 -->
<g id="edge7" class="edge">
<title>S3&#45;&gt;S1</title>
<path fill="none" stroke="black" d="M89.72,-265.71C95.04,-251.85 101.95,-231.51 104.81,-213 113.26,-158.32 112.9,-143.24 104.81,-88.5 102.72,-74.37 98.37,-59.13 94.16,-46.54"/>
<polygon fill="black" stroke="black" points="97.52,-45.53 90.91,-37.25 90.91,-47.84 97.52,-45.53"/>
<text text-anchor="middle" x="114.39" y="-145.7" font-family="Times,serif" font-size="14.00">1</text>
</g>
<!-- S4 -->
<g id="node5" class="node">
<title>S4</title>
<ellipse fill="none" stroke="black" cx="67.81" cy="-195" rx="27.81" ry="18"/>
<text text-anchor="middle" x="67.81" y="-189.95" font-family="Times,serif" font-size="14.00">S4/1</text>
</g>
<!-- S3&#45;&gt;S4 -->
<g id="edge6" class="edge">
<title>S3&#45;&gt;S4</title>
<path fill="none" stroke="black" d="M76.16,-265.65C74.19,-259.97 72.24,-253.54 71.06,-247.5 69.63,-240.2 68.78,-232.22 68.3,-224.77"/>
<polygon fill="black" stroke="black" points="71.79,-224.65 67.85,-214.82 64.8,-224.97 71.79,-224.65"/>
<text text-anchor="middle" x="74.43" y="-234.2" font-family="Times,serif" font-size="14.00">0</text>
</g>
<!-- S4&#45;&gt;S0 -->
<g id="edge8" class="edge">
<title>S4&#45;&gt;S0</title>
<path fill="none" stroke="black" d="M62.87,-176.91C59.44,-165.06 54.81,-149.02 50.86,-135.34"/>
<polygon fill="black" stroke="black" points="54.3,-134.64 48.16,-126.01 47.57,-136.59 54.3,-134.64"/>
<text text-anchor="middle" x="60.92" y="-145.7" font-family="Times,serif" font-size="14.00">0</text>
</g>
<!-- S4&#45;&gt;S3 -->
<g id="edge9" class="edge">
<title>S4&#45;&gt;S3</title>
<path fill="none" stroke="black" d="M72.02,-213.03C73.34,-218.72 74.74,-225.11 75.81,-231 77.16,-238.46 78.38,-246.57 79.41,-254.09"/>
<polygon fill="black" stroke="black" points="75.91,-254.3 80.66,-263.77 82.85,-253.4 75.91,-254.3"/>
<text text-anchor="middle" x="81.71" y="-234.2" font-family="Times,serif" font-size="14.00">1</text>
</g>
</g>
</svg>
