<?xml version="1.0" encoding="UTF-8" standalone="no"?>
<!DOCTYPE svg PUBLIC "-//W3C//DTD SVG 1.1//EN"
 "http://www.w3.org/Graphics/SVG/1.1/DTD/svg11.dtd">
<!-- Generated by graphviz version 12.1.1 (20240910.0053)
 -->
<!-- Pages: 1 -->
<svg width="188pt" height="398pt"
 viewBox="0.00 0.00 187.56 398.00" xmlns="http://www.w3.org/2000/svg" xmlns:xlink="http://www.w3.org/1999/xlink">
<g id="graph0" class="graph" transform="scale(1 1) rotate(0) translate(4 394)">
<polygon fill="white" stroke="none" points="-4,4 -4,-394 183.56,-394 183.56,4 -4,4"/>
<!-- S0 -->
<g id="node1" class="node">
<title>S0</title>
<ellipse fill="none" stroke="black" cx="106.81" cy="-372" rx="27.81" ry="18"/>
<text text-anchor="middle" x="106.81" y="-366.95" font-family="Times,serif" font-size="14.00">S0/0</text>
</g>
<!-- S0&#45;&gt;S0 -->
<g id="edge1" class="edge">
<title>S0&#45;&gt;S0</title>
<path fill="none" stroke="black" d="M131.78,-380.17C142.95,-380.95 152.62,-378.22 152.62,-372 152.62,-368.01 148.65,-365.46 142.86,-364.35"/>
<polygon fill="black" stroke="black" points="143.45,-360.87 133.29,-363.9 143.12,-367.87 143.45,-360.87"/>
<text text-anchor="middle" x="155.99" y="-366.95" font-family="Times,serif" font-size="14.00">0</text>
</g>
<!-- S1 -->
<g id="node2" class="node">
<title>S1</title>
<ellipse fill="none" stroke="black" cx="27.81" cy="-283.5" rx="27.81" ry="18"/>
<text text-anchor="middle" x="27.81" y="-278.45" font-family="Times,serif" font-size="14.00">S1/0</text>
</g>
<!-- S0&#45;&gt;S1 -->
<g id="edge2" class="edge">
<title>S0&#45;&gt;S1</title>
<path fill="none" stroke="black" d="M88.32,-358.14C80.1,-351.96 70.6,-344.13 63.06,-336 55.85,-328.24 49.01,-318.89 43.31,-310.31"/>
<polygon fill="black" stroke="black" points="46.33,-308.54 37.99,-301.99 40.43,-312.31 46.33,-308.54"/>
<text text-anchor="middle" x="66.43" y="-322.7" font-family="Times,serif" font-size="14.00">1</text>
</g>
<!-- S2 -->
<g id="node3" class="node">
<title>S2</title>
<ellipse fill="none" stroke="black" cx="27.81" cy="-195" rx="27.81" ry="18"/>
<text text-anchor="middle" x="27.81" y="-189.95" font-family="Times,serif" font-size="14.00">S2/0</text>
</g>
<!-- S1&#45;&gt;S2 -->
<g id="edge3" class="edge">
<title>S1&#45;&gt;S2</title>
<path fill="none" stroke="black" d="M19.78,-265.79C17.45,-260.12 15.22,-253.66 14.06,-247.5 12.69,-240.29 12.69,-238.21 14.06,-231 14.53,-228.5 15.18,-225.95 15.94,-223.42"/>
<polygon fill="black" stroke="black" points="19.19,-224.73 19.27,-214.13 12.6,-222.37 19.19,-224.73"/>
<text text-anchor="middle" x="17.43" y="-234.2" font-family="Times,serif" font-size="14.00">0</text>
</g>
<!-- S2&#45;&gt;S1 -->
<g id="edge5" class="edge">
<title>S2&#45;&gt;S1</title>
<path fill="none" stroke="black" d="M27.81,-213.35C27.81,-225.06 27.81,-240.79 27.81,-254.28"/>
<polygon fill="black" stroke="black" points="24.31,-253.9 27.81,-263.9 31.31,-253.9 24.31,-253.9"/>
<text text-anchor="middle" x="31.18" y="-234.2" font-family="Times,serif" font-size="14.00">1</text>
</g>
<!-- S3 -->
<g id="node4" class="node">
<title>S3</title>
<ellipse fill="none" stroke="black" cx="73.81" cy="-106.5" rx="27.81" ry="18"/>
<text text-anchor="middle" x="73.81" y="-101.45" font-family="Times,serif" font-size="14.00">S3/0</text>
</g>
<!-- S2&#45;&gt;S3 -->
<g id="edge4" class="edge">
<title>S2&#45;&gt;S3</title>
<path fill="none" stroke="black" d="M36.46,-177.73C43.04,-165.36 52.22,-148.1 59.83,-133.78"/>
<polygon fill="black" stroke="black" points="62.72,-135.8 64.33,-125.33 56.54,-132.51 62.72,-135.8"/>
<text text-anchor="middle" x="58.3" y="-145.7" font-family="Times,serif" font-size="14.00">0</text>
</g>
<!-- S3&#45;&gt;S0 -->
<g id="edge6" class="edge">
<title>S3&#45;&gt;S0</title>
<path fill="none" stroke="black" d="M75.98,-124.85C81.55,-169.31 96.37,-287.64 103.23,-342.43"/>
<polygon fill="black" stroke="black" points="99.74,-342.72 104.45,-352.21 106.69,-341.85 99.74,-342.72"/>
<text text-anchor="middle" x="94.44" y="-234.2" font-family="Times,serif" font-size="14.00">0</text>
</g>
<!-- S4 -->
<g id="node5" class="node">
<title>S4</title>
<ellipse fill="none" stroke="black" cx="129.81" cy="-18" rx="27.81" ry="18"/>
<text text-anchor="middle" x="129.81" y="-12.95" font-family="Times,serif" font-size="14.00">S4/1</text>
</g>
<!-- S3&#45;&gt;S4 -->
<g id="edge7" class="edge">
<title>S3&#45;&gt;S4</title>
<path fill="none" stroke="black" d="M84.08,-89.63C92.24,-77.03 103.81,-59.16 113.27,-44.55"/>
<polygon fill="black" stroke="black" points="116.09,-46.62 118.59,-36.33 110.22,-42.82 116.09,-46.62"/>
<text text-anchor="middle" x="110.2" y="-57.2" font-family="Times,serif" font-size="14.00">1</text>
</g>
<!-- S4&#45;&gt;S0 -->
<g id="edge8" class="edge">
<title>S4&#45;&gt;S0</title>
<path fill="none" stroke="black" d="M129.81,-36.23C129.81,-53.69 129.81,-81.47 129.81,-105.5 129.81,-284.5 129.81,-284.5 129.81,-284.5 129.81,-304.83 123.8,-326.97 117.93,-343.76"/>
<polygon fill="black" stroke="black" points="114.69,-342.43 114.49,-353.02 121.25,-344.87 114.69,-342.43"/>
<text text-anchor="middle" x="133.18" y="-189.95" font-family="Times,serif" font-size="14.00">0</text>
</g>
<!-- S4&#45;&gt;S0 -->
<g id="edge9" class="edge">
<title>S4&#45;&gt;S0</title>
<path fill="none" stroke="black" d="M142.71,-34.13C155.38,-50.57 172.81,-78.16 172.81,-105.5 172.81,-284.5 172.81,-284.5 172.81,-284.5 172.81,-311.61 152.07,-335.51 133.84,-351.28"/>
<polygon fill="black" stroke="black" points="131.89,-348.35 126.36,-357.39 136.32,-353.77 131.89,-348.35"/>
<text text-anchor="middle" x="176.18" y="-189.95" font-family="Times,serif" font-size="14.00">1</text>
</g>
</g>
</svg>
