<?xml version="1.0" encoding="UTF-8" standalone="no"?>
<!DOCTYPE svg PUBLIC "-//W3C//DTD SVG 1.1//EN"
 "http://www.w3.org/Graphics/SVG/1.1/DTD/svg11.dtd">
<!-- Generated by graphviz version 12.1.1 (20240910.0053)
 -->
<!-- Pages: 1 -->
<svg width="170pt" height="310pt"
 viewBox="0.00 0.00 169.87 309.50" xmlns="http://www.w3.org/2000/svg" xmlns:xlink="http://www.w3.org/1999/xlink">
<g id="graph0" class="graph" transform="scale(1 1) rotate(0) translate(4 305.5)">
<polygon fill="white" stroke="none" points="-4,4 -4,-305.5 165.87,-305.5 165.87,4 -4,4"/>
<!-- S0 -->
<g id="node1" class="node">
<title>S0</title>
<ellipse fill="none" stroke="black" cx="117" cy="-283.5" rx="27" ry="18"/>
<text text-anchor="middle" x="117" y="-278.45" font-family="Times,serif" font-size="14.00">S0</text>
</g>
<!-- S1 -->
<g id="node2" class="node">
<title>S1</title>
<ellipse fill="none" stroke="black" cx="27" cy="-195" rx="27" ry="18"/>
<text text-anchor="middle" x="27" y="-189.95" font-family="Times,serif" font-size="14.00">S1</text>
</g>
<!-- S0&#45;&gt;S1 -->
<g id="edge1" class="edge">
<title>S0&#45;&gt;S1</title>
<path fill="none" stroke="black" d="M102.14,-268.22C87.94,-254.57 66.33,-233.8 49.92,-218.03"/>
<polygon fill="black" stroke="black" points="52.61,-215.76 42.97,-211.35 47.76,-220.81 52.61,-215.76"/>
<text text-anchor="middle" x="88.69" y="-234.2" font-family="Times,serif" font-size="14.00">0/0</text>
</g>
<!-- S1&#45;&gt;S1 -->
<g id="edge2" class="edge">
<title>S1&#45;&gt;S1</title>
<path fill="none" stroke="black" d="M51.53,-203.17C62.51,-203.95 72,-201.22 72,-195 72,-191.11 68.29,-188.59 62.83,-187.43"/>
<polygon fill="black" stroke="black" points="63.22,-183.95 53.04,-186.91 62.84,-190.94 63.22,-183.95"/>
<text text-anchor="middle" x="80.62" y="-189.95" font-family="Times,serif" font-size="14.00">0/0</text>
</g>
<!-- S2 -->
<g id="node3" class="node">
<title>S2</title>
<ellipse fill="none" stroke="black" cx="62" cy="-106.5" rx="27" ry="18"/>
<text text-anchor="middle" x="62" y="-101.45" font-family="Times,serif" font-size="14.00">S2</text>
</g>
<!-- S1&#45;&gt;S2 -->
<g id="edge3" class="edge">
<title>S1&#45;&gt;S2</title>
<path fill="none" stroke="black" d="M23.16,-177.11C21.61,-166.72 21.14,-153.37 25.75,-142.5 28.04,-137.1 31.62,-132.13 35.65,-127.73"/>
<polygon fill="black" stroke="black" points="37.82,-130.5 42.65,-121.07 33,-125.43 37.82,-130.5"/>
<text text-anchor="middle" x="34.38" y="-145.7" font-family="Times,serif" font-size="14.00">1/0</text>
</g>
<!-- S2&#45;&gt;S1 -->
<g id="edge4" class="edge">
<title>S2&#45;&gt;S1</title>
<path fill="none" stroke="black" d="M56.15,-124.32C52.55,-134.44 47.72,-147.55 43,-159 41.91,-161.65 40.73,-164.39 39.53,-167.12"/>
<polygon fill="black" stroke="black" points="36.45,-165.44 35.53,-176 42.83,-168.32 36.45,-165.44"/>
<text text-anchor="middle" x="57.71" y="-145.7" font-family="Times,serif" font-size="14.00">0/0</text>
</g>
<!-- S3 -->
<g id="node4" class="node">
<title>S3</title>
<ellipse fill="none" stroke="black" cx="117" cy="-18" rx="27" ry="18"/>
<text text-anchor="middle" x="117" y="-12.95" font-family="Times,serif" font-size="14.00">S3</text>
</g>
<!-- S2&#45;&gt;S3 -->
<g id="edge5" class="edge">
<title>S2&#45;&gt;S3</title>
<path fill="none" stroke="black" d="M68.3,-88.61C72.53,-78.22 78.62,-64.87 85.75,-54 88.41,-49.94 91.53,-45.87 94.75,-42.02"/>
<polygon fill="black" stroke="black" points="97.25,-44.47 101.26,-34.66 92.01,-39.83 97.25,-44.47"/>
<text text-anchor="middle" x="94.38" y="-57.2" font-family="Times,serif" font-size="14.00">1/1</text>
</g>
<!-- S3&#45;&gt;S0 -->
<g id="edge6" class="edge">
<title>S3&#45;&gt;S0</title>
<path fill="none" stroke="black" d="M117,-36.35C117,-80.81 117,-199.14 117,-253.93"/>
<polygon fill="black" stroke="black" points="113.5,-253.7 117,-263.7 120.5,-253.7 113.5,-253.7"/>
<text text-anchor="middle" x="125.62" y="-145.7" font-family="Times,serif" font-size="14.00">0/0</text>
</g>
<!-- S3&#45;&gt;S0 -->
<g id="edge7" class="edge">
<title>S3&#45;&gt;S0</title>
<path fill="none" stroke="black" d="M124.87,-35.38C127.28,-41.13 129.65,-47.73 131,-54 149.17,-138.06 149.17,-163.44 131,-247.5 130.43,-250.14 129.68,-252.85 128.82,-255.52"/>
<polygon fill="black" stroke="black" points="125.61,-254.11 125.4,-264.71 132.17,-256.56 125.61,-254.11"/>
<text text-anchor="middle" x="153.25" y="-145.7" font-family="Times,serif" font-size="14.00">1/0</text>
</g>
</g>
</svg>
