<?xml version="1.0" encoding="UTF-8" standalone="no"?>
<!DOCTYPE svg PUBLIC "-//W3C//DTD SVG 1.1//EN"
 "http://www.w3.org/Graphics/SVG/1.1/DTD/svg11.dtd">
<!-- Generated by graphviz version 12.1.1 (20240910.0053)
 -->
<!-- Pages: 1 -->
<svg width="137pt" height="398pt"
 viewBox="0.00 0.00 137.37 398.00" xmlns="http://www.w3.org/2000/svg" xmlns:xlink="http://www.w3.org/1999/xlink">
<g id="graph0" class="graph" transform="scale(1 1) rotate(0) translate(4 394)">
<polygon fill="white" stroke="none" points="-4,4 -4,-394 133.37,-394 133.37,4 -4,4"/>
<!-- S0 -->
<g id="node1" class="node">
<title>S0</title>
<ellipse fill="none" stroke="black" cx="76.81" cy="-283.5" rx="27.81" ry="18"/>
<text text-anchor="middle" x="76.81" y="-278.45" font-family="Times,serif" font-size="14.00">S0/0</text>
</g>
<!-- S0&#45;&gt;S0 -->
<g id="edge1" class="edge">
<title>S0&#45;&gt;S0</title>
<path fill="none" stroke="black" d="M101.78,-291.67C112.95,-292.45 122.62,-289.72 122.62,-283.5 122.62,-279.51 118.65,-276.96 112.86,-275.85"/>
<polygon fill="black" stroke="black" points="113.45,-272.37 103.29,-275.4 113.12,-279.37 113.45,-272.37"/>
<text text-anchor="middle" x="125.99" y="-278.45" font-family="Times,serif" font-size="14.00">0</text>
</g>
<!-- S1 -->
<g id="node2" class="node">
<title>S1</title>
<ellipse fill="none" stroke="black" cx="46.81" cy="-195" rx="27.81" ry="18"/>
<text text-anchor="middle" x="46.81" y="-189.95" font-family="Times,serif" font-size="14.00">S1/0</text>
</g>
<!-- S0&#45;&gt;S1 -->
<g id="edge2" class="edge">
<title>S0&#45;&gt;S1</title>
<path fill="none" stroke="black" d="M62.38,-267.67C57.59,-261.85 52.79,-254.81 50.06,-247.5 47.38,-240.34 46.13,-232.23 45.65,-224.61"/>
<polygon fill="black" stroke="black" points="49.15,-224.66 45.46,-214.73 42.15,-224.8 49.15,-224.66"/>
<text text-anchor="middle" x="53.43" y="-234.2" font-family="Times,serif" font-size="14.00">1</text>
</g>
<!-- S1&#45;&gt;S0 -->
<g id="edge3" class="edge">
<title>S1&#45;&gt;S0</title>
<path fill="none" stroke="black" d="M52.72,-213.05C56.83,-224.89 62.39,-240.93 67.14,-254.62"/>
<polygon fill="black" stroke="black" points="63.8,-255.68 70.39,-263.98 70.42,-253.39 63.8,-255.68"/>
<text text-anchor="middle" x="67.87" y="-234.2" font-family="Times,serif" font-size="14.00">0</text>
</g>
<!-- S2 -->
<g id="node3" class="node">
<title>S2</title>
<ellipse fill="none" stroke="black" cx="27.81" cy="-106.5" rx="27.81" ry="18"/>
<text text-anchor="middle" x="27.81" y="-101.45" font-family="Times,serif" font-size="14.00">S2/0</text>
</g>
<!-- S1&#45;&gt;S2 -->
<g id="edge4" class="edge">
<title>S1&#45;&gt;S2</title>
<path fill="none" stroke="black" d="M43.05,-176.91C40.48,-165.18 37,-149.34 34.01,-135.75"/>
<polygon fill="black" stroke="black" points="37.44,-135.05 31.88,-126.03 30.61,-136.55 37.44,-135.05"/>
<text text-anchor="middle" x="42.39" y="-145.7" font-family="Times,serif" font-size="14.00">1</text>
</g>
<!-- S2&#45;&gt;S2 -->
<g id="edge6" class="edge">
<title>S2&#45;&gt;S2</title>
<path fill="none" stroke="black" d="M52.78,-114.67C63.95,-115.45 73.62,-112.72 73.62,-106.5 73.62,-102.51 69.65,-99.96 63.86,-98.85"/>
<polygon fill="black" stroke="black" points="64.45,-95.37 54.29,-98.4 64.12,-102.37 64.45,-95.37"/>
<text text-anchor="middle" x="76.99" y="-101.45" font-family="Times,serif" font-size="14.00">1</text>
</g>
<!-- S3 -->
<g id="node4" class="node">
<title>S3</title>
<ellipse fill="none" stroke="black" cx="68.81" cy="-18" rx="27.81" ry="18"/>
<text text-anchor="middle" x="68.81" y="-12.95" font-family="Times,serif" font-size="14.00">S3/0</text>
</g>
<!-- S2&#45;&gt;S3 -->
<g id="edge5" class="edge">
<title>S2&#45;&gt;S3</title>
<path fill="none" stroke="black" d="M35.71,-88.82C41.5,-76.62 49.47,-59.8 56.14,-45.73"/>
<polygon fill="black" stroke="black" points="59.16,-47.53 60.28,-36.99 52.83,-44.53 59.16,-47.53"/>
<text text-anchor="middle" x="55.36" y="-57.2" font-family="Times,serif" font-size="14.00">0</text>
</g>
<!-- S3&#45;&gt;S0 -->
<g id="edge7" class="edge">
<title>S3&#45;&gt;S0</title>
<path fill="none" stroke="black" d="M75.41,-35.82C80.49,-49.7 87.08,-70.05 89.81,-88.5 98.45,-146.96 89.19,-216.18 82.48,-254.11"/>
<polygon fill="black" stroke="black" points="79.06,-253.32 80.69,-263.79 85.95,-254.59 79.06,-253.32"/>
<text text-anchor="middle" x="96.68" y="-145.7" font-family="Times,serif" font-size="14.00">0</text>
</g>
<!-- S4 -->
<g id="node5" class="node">
<title>S4</title>
<ellipse fill="none" stroke="black" cx="76.81" cy="-372" rx="27.81" ry="18"/>
<text text-anchor="middle" x="76.81" y="-366.95" font-family="Times,serif" font-size="14.00">S4/1</text>
</g>
<!-- S4&#45;&gt;S0 -->
<g id="edge8" class="edge">
<title>S4&#45;&gt;S0</title>
<path fill="none" stroke="black" d="M69.94,-354.19C67.95,-348.51 66.05,-342.07 65.06,-336 63.88,-328.76 63.88,-326.74 65.06,-319.5 65.45,-317.13 65.97,-314.7 66.59,-312.28"/>
<polygon fill="black" stroke="black" points="69.92,-313.34 69.5,-302.76 63.23,-311.3 69.92,-313.34"/>
<text text-anchor="middle" x="68.43" y="-322.7" font-family="Times,serif" font-size="14.00">0</text>
</g>
<!-- S4&#45;&gt;S0 -->
<g id="edge9" class="edge">
<title>S4&#45;&gt;S0</title>
<path fill="none" stroke="black" d="M76.81,-353.91C76.81,-342.26 76.81,-326.55 76.81,-313.02"/>
<polygon fill="black" stroke="black" points="80.31,-313.36 76.81,-303.36 73.31,-313.36 80.31,-313.36"/>
<text text-anchor="middle" x="80.18" y="-322.7" font-family="Times,serif" font-size="14.00">1</text>
</g>
</g>
</svg>
