<?xml version="1.0" encoding="UTF-8" standalone="no"?>
<!DOCTYPE svg PUBLIC "-//W3C//DTD SVG 1.1//EN"
 "http://www.w3.org/Graphics/SVG/1.1/DTD/svg11.dtd">
<!-- Generated by graphviz version 12.1.1 (20240910.0053)
 -->
<!-- Pages: 1 -->
<svg width="241pt" height="398pt"
 viewBox="0.00 0.00 241.25 398.00" xmlns="http://www.w3.org/2000/svg" xmlns:xlink="http://www.w3.org/1999/xlink">
<g id="graph0" class="graph" transform="scale(1 1) rotate(0) translate(4 394)">
<polygon fill="white" stroke="none" points="-4,4 -4,-394 237.25,-394 237.25,4 -4,4"/>
<!-- S0 -->
<g id="node1" class="node">
<title>S0</title>
<ellipse fill="none" stroke="black" cx="140" cy="-372" rx="27" ry="18"/>
<text text-anchor="middle" x="140" y="-366.95" font-family="Times,serif" font-size="14.00">S0</text>
</g>
<!-- S0&#45;&gt;S0 -->
<g id="edge1" class="edge">
<title>S0&#45;&gt;S0</title>
<path fill="none" stroke="black" d="M164.53,-380.17C175.51,-380.95 185,-378.22 185,-372 185,-368.11 181.29,-365.59 175.83,-364.43"/>
<polygon fill="black" stroke="black" points="176.22,-360.95 166.04,-363.91 175.84,-367.94 176.22,-360.95"/>
<text text-anchor="middle" x="193.62" y="-366.95" font-family="Times,serif" font-size="14.00">0/0</text>
</g>
<!-- S1 -->
<g id="node2" class="node">
<title>S1</title>
<ellipse fill="none" stroke="black" cx="27" cy="-283.5" rx="27" ry="18"/>
<text text-anchor="middle" x="27" y="-278.45" font-family="Times,serif" font-size="14.00">S1</text>
</g>
<!-- S0&#45;&gt;S1 -->
<g id="edge2" class="edge">
<title>S0&#45;&gt;S1</title>
<path fill="none" stroke="black" d="M120.2,-359.2C109.71,-352.71 96.76,-344.3 85.75,-336 73.57,-326.81 60.75,-315.75 50.2,-306.24"/>
<polygon fill="black" stroke="black" points="52.8,-303.88 43.06,-299.71 48.08,-309.04 52.8,-303.88"/>
<text text-anchor="middle" x="94.38" y="-322.7" font-family="Times,serif" font-size="14.00">1/0</text>
</g>
<!-- S1&#45;&gt;S1 -->
<g id="edge4" class="edge">
<title>S1&#45;&gt;S1</title>
<path fill="none" stroke="black" d="M51.53,-291.67C62.51,-292.45 72,-289.72 72,-283.5 72,-279.61 68.29,-277.09 62.83,-275.93"/>
<polygon fill="black" stroke="black" points="63.22,-272.45 53.04,-275.41 62.84,-279.44 63.22,-272.45"/>
<text text-anchor="middle" x="80.62" y="-278.45" font-family="Times,serif" font-size="14.00">1/0</text>
</g>
<!-- S2 -->
<g id="node3" class="node">
<title>S2</title>
<ellipse fill="none" stroke="black" cx="53" cy="-195" rx="27" ry="18"/>
<text text-anchor="middle" x="53" y="-189.95" font-family="Times,serif" font-size="14.00">S2</text>
</g>
<!-- S1&#45;&gt;S2 -->
<g id="edge3" class="edge">
<title>S1&#45;&gt;S2</title>
<path fill="none" stroke="black" d="M32.14,-265.41C35.7,-253.56 40.52,-237.52 44.63,-223.84"/>
<polygon fill="black" stroke="black" points="47.91,-225.09 47.44,-214.5 41.21,-223.07 47.91,-225.09"/>
<text text-anchor="middle" x="50.95" y="-234.2" font-family="Times,serif" font-size="14.00">0/0</text>
</g>
<!-- S3 -->
<g id="node4" class="node">
<title>S3</title>
<ellipse fill="none" stroke="black" cx="108" cy="-106.5" rx="27" ry="18"/>
<text text-anchor="middle" x="108" y="-101.45" font-family="Times,serif" font-size="14.00">S3</text>
</g>
<!-- S2&#45;&gt;S3 -->
<g id="edge5" class="edge">
<title>S2&#45;&gt;S3</title>
<path fill="none" stroke="black" d="M63.09,-178.13C71.1,-165.53 82.46,-147.66 91.75,-133.05"/>
<polygon fill="black" stroke="black" points="94.57,-135.15 96.98,-124.84 88.66,-131.4 94.57,-135.15"/>
<text text-anchor="middle" x="94.05" y="-145.7" font-family="Times,serif" font-size="14.00">0/0</text>
</g>
<!-- S3&#45;&gt;S0 -->
<g id="edge6" class="edge">
<title>S3&#45;&gt;S0</title>
<path fill="none" stroke="black" d="M110.11,-124.85C115.51,-169.31 129.88,-287.64 136.53,-342.43"/>
<polygon fill="black" stroke="black" points="133.04,-342.7 137.72,-352.21 139.99,-341.86 133.04,-342.7"/>
<text text-anchor="middle" x="133.36" y="-234.2" font-family="Times,serif" font-size="14.00">0/0</text>
</g>
<!-- S4 -->
<g id="node5" class="node">
<title>S4</title>
<ellipse fill="none" stroke="black" cx="163" cy="-18" rx="27" ry="18"/>
<text text-anchor="middle" x="163" y="-12.95" font-family="Times,serif" font-size="14.00">S4</text>
</g>
<!-- S3&#45;&gt;S4 -->
<g id="edge7" class="edge">
<title>S3&#45;&gt;S4</title>
<path fill="none" stroke="black" d="M114.3,-88.61C118.53,-78.22 124.62,-64.87 131.75,-54 134.41,-49.94 137.53,-45.87 140.75,-42.02"/>
<polygon fill="black" stroke="black" points="143.25,-44.47 147.26,-34.66 138.01,-39.83 143.25,-44.47"/>
<text text-anchor="middle" x="140.38" y="-57.2" font-family="Times,serif" font-size="14.00">1/1</text>
</g>
<!-- S4&#45;&gt;S0 -->
<g id="edge8" class="edge">
<title>S4&#45;&gt;S0</title>
<path fill="none" stroke="black" d="M163,-36.23C163,-53.69 163,-81.47 163,-105.5 163,-284.5 163,-284.5 163,-284.5 163,-304.83 156.99,-326.97 151.12,-343.76"/>
<polygon fill="black" stroke="black" points="147.88,-342.43 147.68,-353.02 154.44,-344.87 147.88,-342.43"/>
<text text-anchor="middle" x="171.62" y="-189.95" font-family="Times,serif" font-size="14.00">0/0</text>
</g>
<!-- S4&#45;&gt;S0 -->
<g id="edge9" class="edge">
<title>S4&#45;&gt;S0</title>
<path fill="none" stroke="black" d="M178.33,-33C193.98,-48.91 216,-76.44 216,-105.5 216,-284.5 216,-284.5 216,-284.5 216,-313.97 190.8,-338.18 169.42,-353.42"/>
<polygon fill="black" stroke="black" points="167.57,-350.45 161.22,-358.93 171.47,-356.26 167.57,-350.45"/>
<text text-anchor="middle" x="224.62" y="-189.95" font-family="Times,serif" font-size="14.00">1/0</text>
</g>
</g>
</svg>
