<?xml version="1.0" encoding="UTF-8" standalone="no"?>
<!DOCTYPE svg PUBLIC "-//W3C//DTD SVG 1.1//EN"
 "http://www.w3.org/Graphics/SVG/1.1/DTD/svg11.dtd">
<!-- Generated by graphviz version 12.0.0 (20240704.0754)
 -->
<!-- Pages: 1 -->
<svg width="147pt" height="395pt"
 viewBox="0.00 0.00 146.97 395.00" xmlns="http://www.w3.org/2000/svg" xmlns:xlink="http://www.w3.org/1999/xlink">
<g id="graph0" class="graph" transform="scale(1 1) rotate(0) translate(4 391)">
<polygon fill="white" stroke="none" points="-4,4 -4,-391 142.97,-391 142.97,4 -4,4"/>
<!-- S0 -->
<g id="node1" class="node">
<title>S0</title>
<ellipse fill="none" stroke="black" cx="86.61" cy="-193.5" rx="27.61" ry="18"/>
<text text-anchor="middle" x="86.61" y="-188.07" font-family="Times New Roman,serif" font-size="14.00">S0/0</text>
</g>
<!-- S0&#45;&gt;S0 -->
<g id="edge2" class="edge">
<title>S0&#45;&gt;S0</title>
<path fill="none" stroke="black" d="M111.48,-201.6C122.6,-202.37 132.22,-199.67 132.22,-193.5 132.22,-189.64 128.46,-187.14 122.93,-186"/>
<polygon fill="black" stroke="black" points="123.16,-182.51 112.99,-185.48 122.79,-189.5 123.16,-182.51"/>
<text text-anchor="middle" x="135.6" y="-188.07" font-family="Times New Roman,serif" font-size="14.00">1</text>
</g>
<!-- S1 -->
<g id="node2" class="node">
<title>S1</title>
<ellipse fill="none" stroke="black" cx="27.61" cy="-105.75" rx="27.61" ry="18"/>
<text text-anchor="middle" x="27.61" y="-100.33" font-family="Times New Roman,serif" font-size="14.00">S1/0</text>
</g>
<!-- S0&#45;&gt;S1 -->
<g id="edge1" class="edge">
<title>S0&#45;&gt;S1</title>
<path fill="none" stroke="black" d="M75.79,-176.77C67.19,-164.28 55,-146.56 45.04,-132.08"/>
<polygon fill="black" stroke="black" points="47.97,-130.17 39.42,-123.92 42.21,-134.14 47.97,-130.17"/>
<text text-anchor="middle" x="64.99" y="-144.2" font-family="Times New Roman,serif" font-size="14.00">0</text>
</g>
<!-- S1&#45;&gt;S1 -->
<g id="edge3" class="edge">
<title>S1&#45;&gt;S1</title>
<path fill="none" stroke="black" d="M52.48,-113.85C63.6,-114.62 73.22,-111.92 73.22,-105.75 73.22,-101.89 69.46,-99.39 63.93,-98.25"/>
<polygon fill="black" stroke="black" points="64.16,-94.76 53.99,-97.73 63.79,-101.75 64.16,-94.76"/>
<text text-anchor="middle" x="76.6" y="-100.33" font-family="Times New Roman,serif" font-size="14.00">0</text>
</g>
<!-- S2 -->
<g id="node3" class="node">
<title>S2</title>
<ellipse fill="none" stroke="black" cx="71.61" cy="-18" rx="27.61" ry="18"/>
<text text-anchor="middle" x="71.61" y="-12.57" font-family="Times New Roman,serif" font-size="14.00">S2/0</text>
</g>
<!-- S1&#45;&gt;S2 -->
<g id="edge4" class="edge">
<title>S1&#45;&gt;S2</title>
<path fill="none" stroke="black" d="M36.09,-88.22C42.3,-76.12 50.86,-59.45 58.01,-45.5"/>
<polygon fill="black" stroke="black" points="61.01,-47.32 62.46,-36.83 54.78,-44.13 61.01,-47.32"/>
<text text-anchor="middle" x="55.99" y="-56.45" font-family="Times New Roman,serif" font-size="14.00">1</text>
</g>
<!-- S2&#45;&gt;S0 -->
<g id="edge5" class="edge">
<title>S2&#45;&gt;S0</title>
<path fill="none" stroke="black" d="M77.04,-36.02C81.14,-49.8 86.43,-69.81 88.61,-87.75 91.74,-113.41 90.78,-142.86 89.3,-163.99"/>
<polygon fill="black" stroke="black" points="85.82,-163.62 88.52,-173.86 92.8,-164.17 85.82,-163.62"/>
<text text-anchor="middle" x="93.99" y="-100.33" font-family="Times New Roman,serif" font-size="14.00">1</text>
</g>
<!-- S3 -->
<g id="node4" class="node">
<title>S3</title>
<ellipse fill="none" stroke="black" cx="60.61" cy="-369" rx="27.61" ry="18"/>
<text text-anchor="middle" x="60.61" y="-363.57" font-family="Times New Roman,serif" font-size="14.00">S3/0</text>
</g>
<!-- S3&#45;&gt;S1 -->
<g id="edge6" class="edge">
<title>S3&#45;&gt;S1</title>
<path fill="none" stroke="black" d="M57.64,-350.8C55.29,-336.91 52.02,-316.85 49.61,-299.25 41.64,-241.06 34.3,-172.7 30.45,-135.11"/>
<polygon fill="black" stroke="black" points="33.97,-135.14 29.48,-125.54 27.01,-135.85 33.97,-135.14"/>
<text text-anchor="middle" x="44.99" y="-231.95" font-family="Times New Roman,serif" font-size="14.00">0</text>
</g>
<!-- S4 -->
<g id="node5" class="node">
<title>S4</title>
<ellipse fill="none" stroke="black" cx="86.61" cy="-281.25" rx="27.61" ry="18"/>
<text text-anchor="middle" x="86.61" y="-275.82" font-family="Times New Roman,serif" font-size="14.00">S4/1</text>
</g>
<!-- S3&#45;&gt;S4 -->
<g id="edge7" class="edge">
<title>S3&#45;&gt;S4</title>
<path fill="none" stroke="black" d="M59.57,-350.67C59.49,-340.66 60.3,-327.98 63.86,-317.25 64.97,-313.92 66.47,-310.59 68.18,-307.39"/>
<polygon fill="black" stroke="black" points="71.06,-309.38 73.31,-299.03 65.1,-305.72 71.06,-309.38"/>
<text text-anchor="middle" x="66.99" y="-319.7" font-family="Times New Roman,serif" font-size="14.00">1</text>
</g>
<!-- S4&#45;&gt;S0 -->
<g id="edge9" class="edge">
<title>S4&#45;&gt;S0</title>
<path fill="none" stroke="black" d="M86.61,-262.9C86.61,-251.51 86.61,-236.34 86.61,-223.18"/>
<polygon fill="black" stroke="black" points="90.11,-223.34 86.61,-213.34 83.11,-223.34 90.11,-223.34"/>
<text text-anchor="middle" x="89.99" y="-231.95" font-family="Times New Roman,serif" font-size="14.00">1</text>
</g>
<!-- S4&#45;&gt;S3 -->
<g id="edge8" class="edge">
<title>S4&#45;&gt;S3</title>
<path fill="none" stroke="black" d="M81.49,-299.16C77.93,-310.89 73.11,-326.79 68.99,-340.36"/>
<polygon fill="black" stroke="black" points="65.74,-339.02 66.19,-349.61 72.44,-341.06 65.74,-339.02"/>
<text text-anchor="middle" x="78.99" y="-319.7" font-family="Times New Roman,serif" font-size="14.00">0</text>
</g>
</g>
</svg>
