<?xml version="1.0" encoding="UTF-8" standalone="no"?>
<!DOCTYPE svg PUBLIC "-//W3C//DTD SVG 1.1//EN"
 "http://www.w3.org/Graphics/SVG/1.1/DTD/svg11.dtd">
<!-- Generated by graphviz version 12.1.1 (20240910.0053)
 -->
<!-- Pages: 1 -->
<svg width="133pt" height="310pt"
 viewBox="0.00 0.00 133.37 309.50" xmlns="http://www.w3.org/2000/svg" xmlns:xlink="http://www.w3.org/1999/xlink">
<g id="graph0" class="graph" transform="scale(1 1) rotate(0) translate(4 305.5)">
<polygon fill="white" stroke="none" points="-4,4 -4,-305.5 129.37,-305.5 129.37,4 -4,4"/>
<!-- S0 -->
<g id="node1" class="node">
<title>S0</title>
<ellipse fill="none" stroke="black" cx="72.81" cy="-195" rx="27.81" ry="18"/>
<text text-anchor="middle" x="72.81" y="-189.95" font-family="Times,serif" font-size="14.00">S0/0</text>
</g>
<!-- S0&#45;&gt;S0 -->
<g id="edge1" class="edge">
<title>S0&#45;&gt;S0</title>
<path fill="none" stroke="black" d="M97.78,-203.17C108.95,-203.95 118.62,-201.22 118.62,-195 118.62,-191.01 114.65,-188.46 108.86,-187.35"/>
<polygon fill="black" stroke="black" points="109.45,-183.87 99.29,-186.9 109.12,-190.87 109.45,-183.87"/>
<text text-anchor="middle" x="121.99" y="-189.95" font-family="Times,serif" font-size="14.00">0</text>
</g>
<!-- S1 -->
<g id="node2" class="node">
<title>S1</title>
<ellipse fill="none" stroke="black" cx="27.81" cy="-106.5" rx="27.81" ry="18"/>
<text text-anchor="middle" x="27.81" y="-101.45" font-family="Times,serif" font-size="14.00">S1/0</text>
</g>
<!-- S0&#45;&gt;S1 -->
<g id="edge2" class="edge">
<title>S0&#45;&gt;S1</title>
<path fill="none" stroke="black" d="M64.34,-177.73C57.97,-165.48 49.1,-148.43 41.7,-134.2"/>
<polygon fill="black" stroke="black" points="44.81,-132.59 37.09,-125.33 38.6,-135.82 44.81,-132.59"/>
<text text-anchor="middle" x="57.71" y="-145.7" font-family="Times,serif" font-size="14.00">1</text>
</g>
<!-- S1&#45;&gt;S1 -->
<g id="edge4" class="edge">
<title>S1&#45;&gt;S1</title>
<path fill="none" stroke="black" d="M52.78,-114.67C63.95,-115.45 73.62,-112.72 73.62,-106.5 73.62,-102.51 69.65,-99.96 63.86,-98.85"/>
<polygon fill="black" stroke="black" points="64.45,-95.37 54.29,-98.4 64.12,-102.37 64.45,-95.37"/>
<text text-anchor="middle" x="76.99" y="-101.45" font-family="Times,serif" font-size="14.00">1</text>
</g>
<!-- S2 -->
<g id="node3" class="node">
<title>S2</title>
<ellipse fill="none" stroke="black" cx="72.81" cy="-18" rx="27.81" ry="18"/>
<text text-anchor="middle" x="72.81" y="-12.95" font-family="Times,serif" font-size="14.00">S2/0</text>
</g>
<!-- S1&#45;&gt;S2 -->
<g id="edge3" class="edge">
<title>S1&#45;&gt;S2</title>
<path fill="none" stroke="black" d="M36.27,-89.23C42.64,-76.98 51.51,-59.93 58.92,-45.7"/>
<polygon fill="black" stroke="black" points="62.02,-47.32 63.53,-36.83 55.81,-44.09 62.02,-47.32"/>
<text text-anchor="middle" x="57.71" y="-57.2" font-family="Times,serif" font-size="14.00">0</text>
</g>
<!-- S2&#45;&gt;S0 -->
<g id="edge5" class="edge">
<title>S2&#45;&gt;S0</title>
<path fill="none" stroke="black" d="M78.16,-35.93C82.27,-49.87 87.61,-70.25 89.81,-88.5 91.72,-104.39 91.72,-108.61 89.81,-124.5 88.12,-138.47 84.6,-153.69 81.2,-166.32"/>
<polygon fill="black" stroke="black" points="77.92,-165.04 78.57,-175.62 84.66,-166.94 77.92,-165.04"/>
<text text-anchor="middle" x="94.62" y="-101.45" font-family="Times,serif" font-size="14.00">0</text>
</g>
<!-- S3 -->
<g id="node4" class="node">
<title>S3</title>
<ellipse fill="none" stroke="black" cx="72.81" cy="-283.5" rx="27.81" ry="18"/>
<text text-anchor="middle" x="72.81" y="-278.45" font-family="Times,serif" font-size="14.00">S3/1</text>
</g>
<!-- S3&#45;&gt;S0 -->
<g id="edge6" class="edge">
<title>S3&#45;&gt;S0</title>
<path fill="none" stroke="black" d="M65.94,-265.69C63.95,-260.01 62.05,-253.57 61.06,-247.5 59.88,-240.26 59.88,-238.24 61.06,-231 61.45,-228.63 61.97,-226.2 62.59,-223.78"/>
<polygon fill="black" stroke="black" points="65.92,-224.84 65.5,-214.26 59.23,-222.8 65.92,-224.84"/>
<text text-anchor="middle" x="64.43" y="-234.2" font-family="Times,serif" font-size="14.00">0</text>
</g>
<!-- S3&#45;&gt;S0 -->
<g id="edge7" class="edge">
<title>S3&#45;&gt;S0</title>
<path fill="none" stroke="black" d="M72.81,-265.41C72.81,-253.76 72.81,-238.05 72.81,-224.52"/>
<polygon fill="black" stroke="black" points="76.31,-224.86 72.81,-214.86 69.31,-224.86 76.31,-224.86"/>
<text text-anchor="middle" x="76.18" y="-234.2" font-family="Times,serif" font-size="14.00">1</text>
</g>
</g>
</svg>
