<?xml version="1.0" encoding="UTF-8" standalone="no"?>
<!DOCTYPE svg PUBLIC "-//W3C//DTD SVG 1.1//EN"
 "http://www.w3.org/Graphics/SVG/1.1/DTD/svg11.dtd">
<!-- Generated by graphviz version 12.1.1 (20240910.0053)
 -->
<!-- Pages: 1 -->
<svg width="161pt" height="398pt"
 viewBox="0.00 0.00 161.25 398.00" xmlns="http://www.w3.org/2000/svg" xmlns:xlink="http://www.w3.org/1999/xlink">
<g id="graph0" class="graph" transform="scale(1 1) rotate(0) translate(4 394)">
<polygon fill="white" stroke="none" points="-4,4 -4,-394 157.25,-394 157.25,4 -4,4"/>
<!-- S0 -->
<g id="node1" class="node">
<title>S0</title>
<ellipse fill="none" stroke="black" cx="91" cy="-195" rx="27" ry="18"/>
<text text-anchor="middle" x="91" y="-189.95" font-family="Times,serif" font-size="14.00">S0</text>
</g>
<!-- S0&#45;&gt;S0 -->
<g id="edge2" class="edge">
<title>S0&#45;&gt;S0</title>
<path fill="none" stroke="black" d="M115.53,-203.17C126.51,-203.95 136,-201.22 136,-195 136,-191.11 132.29,-188.59 126.83,-187.43"/>
<polygon fill="black" stroke="black" points="127.22,-183.95 117.04,-186.91 126.84,-190.94 127.22,-183.95"/>
<text text-anchor="middle" x="144.62" y="-189.95" font-family="Times,serif" font-size="14.00">1/0</text>
</g>
<!-- S1 -->
<g id="node2" class="node">
<title>S1</title>
<ellipse fill="none" stroke="black" cx="27" cy="-106.5" rx="27" ry="18"/>
<text text-anchor="middle" x="27" y="-101.45" font-family="Times,serif" font-size="14.00">S1</text>
</g>
<!-- S0&#45;&gt;S1 -->
<g id="edge1" class="edge">
<title>S0&#45;&gt;S1</title>
<path fill="none" stroke="black" d="M79.56,-178.54C70.06,-165.7 56.37,-147.2 45.35,-132.3"/>
<polygon fill="black" stroke="black" points="48.22,-130.3 39.46,-124.34 42.59,-134.46 48.22,-130.3"/>
<text text-anchor="middle" x="73.36" y="-145.7" font-family="Times,serif" font-size="14.00">0/0</text>
</g>
<!-- S1&#45;&gt;S1 -->
<g id="edge3" class="edge">
<title>S1&#45;&gt;S1</title>
<path fill="none" stroke="black" d="M51.53,-114.67C62.51,-115.45 72,-112.72 72,-106.5 72,-102.61 68.29,-100.09 62.83,-98.93"/>
<polygon fill="black" stroke="black" points="63.22,-95.45 53.04,-98.41 62.84,-102.44 63.22,-95.45"/>
<text text-anchor="middle" x="80.62" y="-101.45" font-family="Times,serif" font-size="14.00">0/0</text>
</g>
<!-- S2 -->
<g id="node3" class="node">
<title>S2</title>
<ellipse fill="none" stroke="black" cx="76" cy="-18" rx="27" ry="18"/>
<text text-anchor="middle" x="76" y="-12.95" font-family="Times,serif" font-size="14.00">S2</text>
</g>
<!-- S1&#45;&gt;S2 -->
<g id="edge4" class="edge">
<title>S1&#45;&gt;S2</title>
<path fill="none" stroke="black" d="M36.22,-89.23C43.27,-76.79 53.13,-59.38 61.27,-45.01"/>
<polygon fill="black" stroke="black" points="64.2,-46.94 66.08,-36.51 58.1,-43.49 64.2,-46.94"/>
<text text-anchor="middle" x="64.51" y="-57.2" font-family="Times,serif" font-size="14.00">1/0</text>
</g>
<!-- S2&#45;&gt;S0 -->
<g id="edge5" class="edge">
<title>S2&#45;&gt;S0</title>
<path fill="none" stroke="black" d="M82.92,-35.79C88.23,-49.65 95.14,-69.99 98,-88.5 102,-114.4 99.36,-144.23 96.25,-165.54"/>
<polygon fill="black" stroke="black" points="92.82,-164.8 94.69,-175.23 99.73,-165.91 92.82,-164.8"/>
<text text-anchor="middle" x="108.65" y="-101.45" font-family="Times,serif" font-size="14.00">1/0</text>
</g>
<!-- S3 -->
<g id="node4" class="node">
<title>S3</title>
<ellipse fill="none" stroke="black" cx="60" cy="-372" rx="27" ry="18"/>
<text text-anchor="middle" x="60" y="-366.95" font-family="Times,serif" font-size="14.00">S3</text>
</g>
<!-- S3&#45;&gt;S1 -->
<g id="edge6" class="edge">
<title>S3&#45;&gt;S1</title>
<path fill="none" stroke="black" d="M56.29,-353.96C55.13,-348.27 53.92,-341.88 53,-336 41.79,-264.4 33.4,-179.46 29.47,-136.1"/>
<polygon fill="black" stroke="black" points="32.97,-135.92 28.6,-126.27 26,-136.54 32.97,-135.92"/>
<text text-anchor="middle" x="49.59" y="-234.2" font-family="Times,serif" font-size="14.00">0/0</text>
</g>
<!-- S4 -->
<g id="node5" class="node">
<title>S4</title>
<ellipse fill="none" stroke="black" cx="91" cy="-283.5" rx="27" ry="18"/>
<text text-anchor="middle" x="91" y="-278.45" font-family="Times,serif" font-size="14.00">S4</text>
</g>
<!-- S3&#45;&gt;S4 -->
<g id="edge7" class="edge">
<title>S3&#45;&gt;S4</title>
<path fill="none" stroke="black" d="M57.36,-353.75C56.49,-343.48 56.62,-330.36 60.75,-319.5 62.45,-315.02 65,-310.74 67.92,-306.79"/>
<polygon fill="black" stroke="black" points="70.36,-309.32 74.15,-299.43 65.02,-304.79 70.36,-309.32"/>
<text text-anchor="middle" x="69.38" y="-322.7" font-family="Times,serif" font-size="14.00">1/1</text>
</g>
<!-- S4&#45;&gt;S0 -->
<g id="edge9" class="edge">
<title>S4&#45;&gt;S0</title>
<path fill="none" stroke="black" d="M91,-265.41C91,-253.76 91,-238.05 91,-224.52"/>
<polygon fill="black" stroke="black" points="94.5,-224.86 91,-214.86 87.5,-224.86 94.5,-224.86"/>
<text text-anchor="middle" x="99.62" y="-234.2" font-family="Times,serif" font-size="14.00">1/0</text>
</g>
<!-- S4&#45;&gt;S3 -->
<g id="edge8" class="edge">
<title>S4&#45;&gt;S3</title>
<path fill="none" stroke="black" d="M87.73,-301.5C85.52,-311.68 82.24,-324.79 78,-336 76.96,-338.74 75.77,-341.54 74.5,-344.31"/>
<polygon fill="black" stroke="black" points="71.37,-342.75 70.07,-353.26 77.65,-345.85 71.37,-342.75"/>
<text text-anchor="middle" x="91.59" y="-322.7" font-family="Times,serif" font-size="14.00">0/0</text>
</g>
</g>
</svg>
