<?xml version="1.0" encoding="UTF-8" standalone="no"?>
<!DOCTYPE svg PUBLIC "-//W3C//DTD SVG 1.1//EN"
 "http://www.w3.org/Graphics/SVG/1.1/DTD/svg11.dtd">
<!-- Generated by graphviz version 12.1.1 (20240910.0053)
 -->
<!-- Pages: 1 -->
<svg width="146pt" height="310pt"
 viewBox="0.00 0.00 146.25 309.50" xmlns="http://www.w3.org/2000/svg" xmlns:xlink="http://www.w3.org/1999/xlink">
<g id="graph0" class="graph" transform="scale(1 1) rotate(0) translate(4 305.5)">
<polygon fill="white" stroke="none" points="-4,4 -4,-305.5 142.25,-305.5 142.25,4 -4,4"/>
<!-- S0 -->
<g id="node1" class="node">
<title>S0</title>
<ellipse fill="none" stroke="black" cx="76" cy="-195" rx="27" ry="18"/>
<text text-anchor="middle" x="76" y="-189.95" font-family="Times,serif" font-size="14.00">S0</text>
</g>
<!-- S0&#45;&gt;S0 -->
<g id="edge2" class="edge">
<title>S0&#45;&gt;S0</title>
<path fill="none" stroke="black" d="M100.53,-203.17C111.51,-203.95 121,-201.22 121,-195 121,-191.11 117.29,-188.59 111.83,-187.43"/>
<polygon fill="black" stroke="black" points="112.22,-183.95 102.04,-186.91 111.84,-190.94 112.22,-183.95"/>
<text text-anchor="middle" x="129.62" y="-189.95" font-family="Times,serif" font-size="14.00">1/0</text>
</g>
<!-- S1 -->
<g id="node2" class="node">
<title>S1</title>
<ellipse fill="none" stroke="black" cx="27" cy="-106.5" rx="27" ry="18"/>
<text text-anchor="middle" x="27" y="-101.45" font-family="Times,serif" font-size="14.00">S1</text>
</g>
<!-- S0&#45;&gt;S1 -->
<g id="edge1" class="edge">
<title>S0&#45;&gt;S1</title>
<path fill="none" stroke="black" d="M66.78,-177.73C59.73,-165.29 49.87,-147.88 41.73,-133.51"/>
<polygon fill="black" stroke="black" points="44.9,-131.99 36.92,-125.01 38.8,-135.44 44.9,-131.99"/>
<text text-anchor="middle" x="64.51" y="-145.7" font-family="Times,serif" font-size="14.00">0/0</text>
</g>
<!-- S1&#45;&gt;S1 -->
<g id="edge3" class="edge">
<title>S1&#45;&gt;S1</title>
<path fill="none" stroke="black" d="M51.53,-114.67C62.51,-115.45 72,-112.72 72,-106.5 72,-102.61 68.29,-100.09 62.83,-98.93"/>
<polygon fill="black" stroke="black" points="63.22,-95.45 53.04,-98.41 62.84,-102.44 63.22,-95.45"/>
<text text-anchor="middle" x="80.62" y="-101.45" font-family="Times,serif" font-size="14.00">0/0</text>
</g>
<!-- S2 -->
<g id="node3" class="node">
<title>S2</title>
<ellipse fill="none" stroke="black" cx="76" cy="-18" rx="27" ry="18"/>
<text text-anchor="middle" x="76" y="-12.95" font-family="Times,serif" font-size="14.00">S2</text>
</g>
<!-- S1&#45;&gt;S2 -->
<g id="edge4" class="edge">
<title>S1&#45;&gt;S2</title>
<path fill="none" stroke="black" d="M36.22,-89.23C43.27,-76.79 53.13,-59.38 61.27,-45.01"/>
<polygon fill="black" stroke="black" points="64.2,-46.94 66.08,-36.51 58.1,-43.49 64.2,-46.94"/>
<text text-anchor="middle" x="64.51" y="-57.2" font-family="Times,serif" font-size="14.00">1/0</text>
</g>
<!-- S2&#45;&gt;S0 -->
<g id="edge5" class="edge">
<title>S2&#45;&gt;S0</title>
<path fill="none" stroke="black" d="M82.92,-35.79C88.23,-49.65 95.14,-69.99 98,-88.5 100.44,-104.31 100.44,-108.69 98,-124.5 95.81,-138.67 91.25,-153.92 86.84,-166.5"/>
<polygon fill="black" stroke="black" points="83.6,-165.2 83.44,-175.79 90.17,-167.61 83.6,-165.2"/>
<text text-anchor="middle" x="108.46" y="-101.45" font-family="Times,serif" font-size="14.00">1/0</text>
</g>
<!-- S3 -->
<g id="node4" class="node">
<title>S3</title>
<ellipse fill="none" stroke="black" cx="76" cy="-283.5" rx="27" ry="18"/>
<text text-anchor="middle" x="76" y="-278.45" font-family="Times,serif" font-size="14.00">S3</text>
</g>
<!-- S3&#45;&gt;S0 -->
<g id="edge6" class="edge">
<title>S3&#45;&gt;S0</title>
<path fill="none" stroke="black" d="M65.19,-266.83C61.79,-261.03 58.48,-254.22 56.75,-247.5 54.93,-240.4 54.93,-238.1 56.75,-231 57.56,-227.85 58.72,-224.68 60.07,-221.61"/>
<polygon fill="black" stroke="black" points="63.03,-223.51 64.5,-213.01 56.8,-220.3 63.03,-223.51"/>
<text text-anchor="middle" x="65.38" y="-234.2" font-family="Times,serif" font-size="14.00">0/0</text>
</g>
<!-- S3&#45;&gt;S0 -->
<g id="edge7" class="edge">
<title>S3&#45;&gt;S0</title>
<path fill="none" stroke="black" d="M76,-265.41C76,-253.76 76,-238.05 76,-224.52"/>
<polygon fill="black" stroke="black" points="79.5,-224.86 76,-214.86 72.5,-224.86 79.5,-224.86"/>
<text text-anchor="middle" x="84.62" y="-234.2" font-family="Times,serif" font-size="14.00">1/0</text>
</g>
</g>
</svg>
