<?xml version="1.0" encoding="UTF-8" standalone="no"?>
<!DOCTYPE svg PUBLIC "-//W3C//DTD SVG 1.1//EN"
 "http://www.w3.org/Graphics/SVG/1.1/DTD/svg11.dtd">
<!-- Generated by graphviz version 12.1.1 (20240910.0053)
 -->
<!-- Pages: 1 -->
<svg width="218pt" height="310pt"
 viewBox="0.00 0.00 217.63 309.50" xmlns="http://www.w3.org/2000/svg" xmlns:xlink="http://www.w3.org/1999/xlink">
<g id="graph0" class="graph" transform="scale(1 1) rotate(0) translate(4 305.5)">
<polygon fill="white" stroke="none" points="-4,4 -4,-305.5 213.63,-305.5 213.63,4 -4,4"/>
<!-- S0 -->
<g id="node1" class="node">
<title>S0</title>
<ellipse fill="none" stroke="black" cx="147" cy="-283.5" rx="27" ry="18"/>
<text text-anchor="middle" x="147" y="-278.45" font-family="Times,serif" font-size="14.00">S0</text>
</g>
<!-- S1 -->
<g id="node2" class="node">
<title>S1</title>
<ellipse fill="none" stroke="black" cx="27" cy="-195" rx="27" ry="18"/>
<text text-anchor="middle" x="27" y="-189.95" font-family="Times,serif" font-size="14.00">S1</text>
</g>
<!-- S0&#45;&gt;S1 -->
<g id="edge1" class="edge">
<title>S0&#45;&gt;S1</title>
<path fill="none" stroke="black" d="M128.04,-270.53C117.76,-263.92 104.92,-255.46 93.75,-247.5 79.88,-237.62 64.83,-226.08 52.54,-216.43"/>
<polygon fill="black" stroke="black" points="54.95,-213.87 44.93,-210.42 50.61,-219.37 54.95,-213.87"/>
<text text-anchor="middle" x="102.38" y="-234.2" font-family="Times,serif" font-size="14.00">1/0</text>
</g>
<!-- S1&#45;&gt;S1 -->
<g id="edge3" class="edge">
<title>S1&#45;&gt;S1</title>
<path fill="none" stroke="black" d="M51.53,-203.17C62.51,-203.95 72,-201.22 72,-195 72,-191.11 68.29,-188.59 62.83,-187.43"/>
<polygon fill="black" stroke="black" points="63.22,-183.95 53.04,-186.91 62.84,-190.94 63.22,-183.95"/>
<text text-anchor="middle" x="80.62" y="-189.95" font-family="Times,serif" font-size="14.00">1/0</text>
</g>
<!-- S2 -->
<g id="node3" class="node">
<title>S2</title>
<ellipse fill="none" stroke="black" cx="115" cy="-106.5" rx="27" ry="18"/>
<text text-anchor="middle" x="115" y="-101.45" font-family="Times,serif" font-size="14.00">S2</text>
</g>
<!-- S1&#45;&gt;S2 -->
<g id="edge2" class="edge">
<title>S1&#45;&gt;S2</title>
<path fill="none" stroke="black" d="M41.53,-179.72C55.42,-166.07 76.55,-145.3 92.59,-129.53"/>
<polygon fill="black" stroke="black" points="94.69,-132.37 99.37,-122.87 89.78,-127.38 94.69,-132.37"/>
<text text-anchor="middle" x="87.51" y="-145.7" font-family="Times,serif" font-size="14.00">0/0</text>
</g>
<!-- S2&#45;&gt;S0 -->
<g id="edge4" class="edge">
<title>S2&#45;&gt;S0</title>
<path fill="none" stroke="black" d="M118.14,-124.67C123.67,-154.91 135.19,-217.92 141.88,-254.52"/>
<polygon fill="black" stroke="black" points="138.36,-254.71 143.6,-263.91 145.25,-253.45 138.36,-254.71"/>
<text text-anchor="middle" x="142.81" y="-189.95" font-family="Times,serif" font-size="14.00">0/0</text>
</g>
<!-- S3 -->
<g id="node4" class="node">
<title>S3</title>
<ellipse fill="none" stroke="black" cx="170" cy="-18" rx="27" ry="18"/>
<text text-anchor="middle" x="170" y="-12.95" font-family="Times,serif" font-size="14.00">S3</text>
</g>
<!-- S2&#45;&gt;S3 -->
<g id="edge5" class="edge">
<title>S2&#45;&gt;S3</title>
<path fill="none" stroke="black" d="M121.3,-88.61C125.53,-78.22 131.62,-64.87 138.75,-54 141.41,-49.94 144.53,-45.87 147.75,-42.02"/>
<polygon fill="black" stroke="black" points="150.25,-44.47 154.26,-34.66 145.01,-39.83 150.25,-44.47"/>
<text text-anchor="middle" x="147.38" y="-57.2" font-family="Times,serif" font-size="14.00">1/1</text>
</g>
<!-- S3&#45;&gt;S0 -->
<g id="edge6" class="edge">
<title>S3&#45;&gt;S0</title>
<path fill="none" stroke="black" d="M169.28,-36.25C167.56,-74.44 162.64,-168.93 153,-247.5 152.73,-249.7 152.42,-251.98 152.08,-254.26"/>
<polygon fill="black" stroke="black" points="148.65,-253.53 150.5,-263.96 155.56,-254.66 148.65,-253.53"/>
<text text-anchor="middle" x="171.48" y="-145.7" font-family="Times,serif" font-size="14.00">0/0</text>
</g>
<!-- S3&#45;&gt;S0 -->
<g id="edge7" class="edge">
<title>S3&#45;&gt;S0</title>
<path fill="none" stroke="black" d="M176.93,-35.81C178.96,-41.49 180.92,-47.93 182,-54 197.14,-138.89 198.35,-166.79 168,-247.5 166.83,-250.61 165.39,-253.75 163.81,-256.82"/>
<polygon fill="black" stroke="black" points="160.81,-255.01 158.87,-265.43 166.88,-258.49 160.81,-255.01"/>
<text text-anchor="middle" x="201" y="-145.7" font-family="Times,serif" font-size="14.00">1/0</text>
</g>
</g>
</svg>
