<?xml version="1.0" encoding="UTF-8" standalone="no"?>
<!DOCTYPE svg PUBLIC "-//W3C//DTD SVG 1.1//EN"
 "http://www.w3.org/Graphics/SVG/1.1/DTD/svg11.dtd">
<!-- Generated by graphviz version 12.1.1 (20240910.0053)
 -->
<!-- Pages: 1 -->
<svg width="97pt" height="310pt"
 viewBox="0.00 0.00 97.25 309.50" xmlns="http://www.w3.org/2000/svg" xmlns:xlink="http://www.w3.org/1999/xlink">
<g id="graph0" class="graph" transform="scale(1 1) rotate(0) translate(4 305.5)">
<polygon fill="white" stroke="none" points="-4,4 -4,-305.5 93.25,-305.5 93.25,4 -4,4"/>
<!-- S0 -->
<g id="node1" class="node">
<title>S0</title>
<ellipse fill="none" stroke="black" cx="27" cy="-195" rx="27" ry="18"/>
<text text-anchor="middle" x="27" y="-189.95" font-family="Times,serif" font-size="14.00">S0</text>
</g>
<!-- S0&#45;&gt;S0 -->
<g id="edge2" class="edge">
<title>S0&#45;&gt;S0</title>
<path fill="none" stroke="black" d="M51.53,-203.17C62.51,-203.95 72,-201.22 72,-195 72,-191.11 68.29,-188.59 62.83,-187.43"/>
<polygon fill="black" stroke="black" points="63.22,-183.95 53.04,-186.91 62.84,-190.94 63.22,-183.95"/>
<text text-anchor="middle" x="80.62" y="-189.95" font-family="Times,serif" font-size="14.00">1/0</text>
</g>
<!-- S1 -->
<g id="node2" class="node">
<title>S1</title>
<ellipse fill="none" stroke="black" cx="27" cy="-106.5" rx="27" ry="18"/>
<text text-anchor="middle" x="27" y="-101.45" font-family="Times,serif" font-size="14.00">S1</text>
</g>
<!-- S0&#45;&gt;S1 -->
<g id="edge1" class="edge">
<title>S0&#45;&gt;S1</title>
<path fill="none" stroke="black" d="M27,-176.91C27,-165.26 27,-149.55 27,-136.02"/>
<polygon fill="black" stroke="black" points="30.5,-136.36 27,-126.36 23.5,-136.36 30.5,-136.36"/>
<text text-anchor="middle" x="35.62" y="-145.7" font-family="Times,serif" font-size="14.00">0/0</text>
</g>
<!-- S1&#45;&gt;S1 -->
<g id="edge3" class="edge">
<title>S1&#45;&gt;S1</title>
<path fill="none" stroke="black" d="M51.53,-114.67C62.51,-115.45 72,-112.72 72,-106.5 72,-102.61 68.29,-100.09 62.83,-98.93"/>
<polygon fill="black" stroke="black" points="63.22,-95.45 53.04,-98.41 62.84,-102.44 63.22,-95.45"/>
<text text-anchor="middle" x="80.62" y="-101.45" font-family="Times,serif" font-size="14.00">0/0</text>
</g>
<!-- S2 -->
<g id="node3" class="node">
<title>S2</title>
<ellipse fill="none" stroke="black" cx="27" cy="-18" rx="27" ry="18"/>
<text text-anchor="middle" x="27" y="-12.95" font-family="Times,serif" font-size="14.00">S2</text>
</g>
<!-- S1&#45;&gt;S2 -->
<g id="edge4" class="edge">
<title>S1&#45;&gt;S2</title>
<path fill="none" stroke="black" d="M16.19,-89.83C12.79,-84.03 9.48,-77.22 7.75,-70.5 5.93,-63.4 5.93,-61.1 7.75,-54 8.56,-50.85 9.72,-47.68 11.07,-44.61"/>
<polygon fill="black" stroke="black" points="14.03,-46.51 15.5,-36.01 7.8,-43.3 14.03,-46.51"/>
<text text-anchor="middle" x="16.38" y="-57.2" font-family="Times,serif" font-size="14.00">1/0</text>
</g>
<!-- S2&#45;&gt;S1 -->
<g id="edge5" class="edge">
<title>S2&#45;&gt;S1</title>
<path fill="none" stroke="black" d="M27,-36.35C27,-48.06 27,-63.79 27,-77.28"/>
<polygon fill="black" stroke="black" points="23.5,-76.9 27,-86.9 30.5,-76.9 23.5,-76.9"/>
<text text-anchor="middle" x="35.62" y="-57.2" font-family="Times,serif" font-size="14.00">0/0</text>
</g>
<!-- S3 -->
<g id="node4" class="node">
<title>S3</title>
<ellipse fill="none" stroke="black" cx="27" cy="-283.5" rx="27" ry="18"/>
<text text-anchor="middle" x="27" y="-278.45" font-family="Times,serif" font-size="14.00">S3</text>
</g>
<!-- S3&#45;&gt;S0 -->
<g id="edge6" class="edge">
<title>S3&#45;&gt;S0</title>
<path fill="none" stroke="black" d="M16.19,-266.83C12.79,-261.03 9.48,-254.22 7.75,-247.5 5.93,-240.4 5.93,-238.1 7.75,-231 8.56,-227.85 9.72,-224.68 11.07,-221.61"/>
<polygon fill="black" stroke="black" points="14.03,-223.51 15.5,-213.01 7.8,-220.3 14.03,-223.51"/>
<text text-anchor="middle" x="16.38" y="-234.2" font-family="Times,serif" font-size="14.00">0/0</text>
</g>
<!-- S3&#45;&gt;S0 -->
<g id="edge7" class="edge">
<title>S3&#45;&gt;S0</title>
<path fill="none" stroke="black" d="M27,-265.41C27,-253.76 27,-238.05 27,-224.52"/>
<polygon fill="black" stroke="black" points="30.5,-224.86 27,-214.86 23.5,-224.86 30.5,-224.86"/>
<text text-anchor="middle" x="35.62" y="-234.2" font-family="Times,serif" font-size="14.00">1/0</text>
</g>
</g>
</svg>
