<?xml version="1.0" encoding="UTF-8" standalone="no"?>
<!DOCTYPE svg PUBLIC "-//W3C//DTD SVG 1.1//EN"
 "http://www.w3.org/Graphics/SVG/1.1/DTD/svg11.dtd">
<!-- Generated by graphviz version 12.1.1 (20240910.0053)
 -->
<!-- Pages: 1 -->
<svg width="215pt" height="221pt"
 viewBox="0.00 0.00 215.00 221.00" xmlns="http://www.w3.org/2000/svg" xmlns:xlink="http://www.w3.org/1999/xlink">
<g id="graph0" class="graph" transform="scale(1 1) rotate(0) translate(4 217)">
<polygon fill="white" stroke="none" points="-4,4 -4,-217 211,-217 211,4 -4,4"/>
<!-- S0 -->
<g id="node1" class="node">
<title>S0</title>
<ellipse fill="none" stroke="black" cx="73" cy="-106.5" rx="27" ry="18"/>
<text text-anchor="middle" x="73" y="-101.45" font-family="Times,serif" font-size="14.00">S0</text>
</g>
<!-- S0&#45;&gt;S0 -->
<g id="edge1" class="edge">
<title>S0&#45;&gt;S0</title>
<path fill="none" stroke="black" d="M97.53,-114.67C108.51,-115.45 118,-112.72 118,-106.5 118,-102.61 114.29,-100.09 108.83,-98.93"/>
<polygon fill="black" stroke="black" points="109.22,-95.45 99.04,-98.41 108.84,-102.44 109.22,-95.45"/>
<text text-anchor="middle" x="126.62" y="-101.45" font-family="Times,serif" font-size="14.00">0/0</text>
</g>
<!-- S1 -->
<g id="node2" class="node">
<title>S1</title>
<ellipse fill="none" stroke="black" cx="27" cy="-18" rx="27" ry="18"/>
<text text-anchor="middle" x="27" y="-12.95" font-family="Times,serif" font-size="14.00">S1</text>
</g>
<!-- S1&#45;&gt;S1 -->
<g id="edge3" class="edge">
<title>S1&#45;&gt;S1</title>
<path fill="none" stroke="black" d="M51.53,-26.17C62.51,-26.95 72,-24.22 72,-18 72,-14.11 68.29,-11.59 62.83,-10.43"/>
<polygon fill="black" stroke="black" points="63.22,-6.95 53.04,-9.91 62.84,-13.94 63.22,-6.95"/>
<text text-anchor="middle" x="80.62" y="-12.95" font-family="Times,serif" font-size="14.00">1/0</text>
</g>
<!-- S2 -->
<g id="node3" class="node">
<title>S2</title>
<ellipse fill="none" stroke="black" cx="99" cy="-195" rx="27" ry="18"/>
<text text-anchor="middle" x="99" y="-189.95" font-family="Times,serif" font-size="14.00">S2</text>
</g>
<!-- S1&#45;&gt;S2 -->
<g id="edge2" class="edge">
<title>S1&#45;&gt;S2</title>
<path fill="none" stroke="black" d="M21.07,-35.96C14.56,-57.56 6.64,-95.57 19.75,-124.5 29.88,-146.86 51.16,-164.87 69.12,-176.95"/>
<polygon fill="black" stroke="black" points="67.07,-179.8 77.38,-182.23 70.84,-173.9 67.07,-179.8"/>
<text text-anchor="middle" x="28.38" y="-101.45" font-family="Times,serif" font-size="14.00">0/0</text>
</g>
<!-- S2&#45;&gt;S0 -->
<g id="edge4" class="edge">
<title>S2&#45;&gt;S0</title>
<path fill="none" stroke="black" d="M91,-177.53C88.42,-171.77 85.72,-165.19 83.75,-159 81.42,-151.69 79.46,-143.63 77.88,-136.1"/>
<polygon fill="black" stroke="black" points="81.34,-135.53 76,-126.38 74.47,-136.86 81.34,-135.53"/>
<text text-anchor="middle" x="92.38" y="-145.7" font-family="Times,serif" font-size="14.00">0/0</text>
</g>
<!-- S3 -->
<g id="node4" class="node">
<title>S3</title>
<ellipse fill="none" stroke="black" cx="180" cy="-106.5" rx="27" ry="18"/>
<text text-anchor="middle" x="180" y="-101.45" font-family="Times,serif" font-size="14.00">S3</text>
</g>
<!-- S2&#45;&gt;S3 -->
<g id="edge5" class="edge">
<title>S2&#45;&gt;S3</title>
<path fill="none" stroke="black" d="M109.25,-177.85C116.34,-167.27 126.35,-153.41 136.75,-142.5 141.82,-137.18 147.7,-131.93 153.46,-127.17"/>
<polygon fill="black" stroke="black" points="155.44,-130.08 161.09,-121.12 151.08,-124.59 155.44,-130.08"/>
<text text-anchor="middle" x="145.38" y="-145.7" font-family="Times,serif" font-size="14.00">1/1</text>
</g>
<!-- S3&#45;&gt;S1 -->
<g id="edge7" class="edge">
<title>S3&#45;&gt;S1</title>
<path fill="none" stroke="black" d="M160,-94.19C133.65,-79.3 87.11,-52.99 56.66,-35.77"/>
<polygon fill="black" stroke="black" points="58.75,-32.93 48.32,-31.06 55.31,-39.02 58.75,-32.93"/>
<text text-anchor="middle" x="125.83" y="-57.2" font-family="Times,serif" font-size="14.00">1/0</text>
</g>
<!-- S3&#45;&gt;S2 -->
<g id="edge6" class="edge">
<title>S3&#45;&gt;S2</title>
<path fill="none" stroke="black" d="M174.24,-124.18C169.91,-135 163.14,-148.9 154,-159 147.28,-166.42 138.65,-172.89 130.22,-178.18"/>
<polygon fill="black" stroke="black" points="128.72,-175 121.85,-183.07 132.25,-181.04 128.72,-175"/>
<text text-anchor="middle" x="173.56" y="-145.7" font-family="Times,serif" font-size="14.00">0/0</text>
</g>
</g>
</svg>
