<?xml version="1.0" encoding="UTF-8" standalone="no"?>
<!DOCTYPE svg PUBLIC "-//W3C//DTD SVG 1.1//EN"
 "http://www.w3.org/Graphics/SVG/1.1/DTD/svg11.dtd">
<!-- Generated by graphviz version 12.1.1 (20240910.0053)
 -->
<!-- Pages: 1 -->
<svg width="185pt" height="398pt"
 viewBox="0.00 0.00 184.56 398.00" xmlns="http://www.w3.org/2000/svg" xmlns:xlink="http://www.w3.org/1999/xlink">
<g id="graph0" class="graph" transform="scale(1 1) rotate(0) translate(4 394)">
<polygon fill="white" stroke="none" points="-4,4 -4,-394 180.56,-394 180.56,4 -4,4"/>
<!-- S0 -->
<g id="node1" class="node">
<title>S0</title>
<ellipse fill="none" stroke="black" cx="108.81" cy="-372" rx="27.81" ry="18"/>
<text text-anchor="middle" x="108.81" y="-366.95" font-family="Times,serif" font-size="14.00">S0/0</text>
</g>
<!-- S0&#45;&gt;S0 -->
<g id="edge2" class="edge">
<title>S0&#45;&gt;S0</title>
<path fill="none" stroke="black" d="M133.78,-380.17C144.95,-380.95 154.62,-378.22 154.62,-372 154.62,-368.01 150.65,-365.46 144.86,-364.35"/>
<polygon fill="black" stroke="black" points="145.45,-360.87 135.29,-363.9 145.12,-367.87 145.45,-360.87"/>
<text text-anchor="middle" x="157.99" y="-366.95" font-family="Times,serif" font-size="14.00">1</text>
</g>
<!-- S1 -->
<g id="node2" class="node">
<title>S1</title>
<ellipse fill="none" stroke="black" cx="27.81" cy="-283.5" rx="27.81" ry="18"/>
<text text-anchor="middle" x="27.81" y="-278.45" font-family="Times,serif" font-size="14.00">S1/0</text>
</g>
<!-- S0&#45;&gt;S1 -->
<g id="edge1" class="edge">
<title>S0&#45;&gt;S1</title>
<path fill="none" stroke="black" d="M92.96,-357.12C86.05,-350.85 77.96,-343.25 71.06,-336 62.81,-327.34 54.24,-317.37 46.93,-308.51"/>
<polygon fill="black" stroke="black" points="49.81,-306.51 40.78,-300.97 44.38,-310.94 49.81,-306.51"/>
<text text-anchor="middle" x="74.43" y="-322.7" font-family="Times,serif" font-size="14.00">0</text>
</g>
<!-- S2 -->
<g id="node3" class="node">
<title>S2</title>
<ellipse fill="none" stroke="black" cx="62.81" cy="-195" rx="27.81" ry="18"/>
<text text-anchor="middle" x="62.81" y="-189.95" font-family="Times,serif" font-size="14.00">S2/0</text>
</g>
<!-- S1&#45;&gt;S2 -->
<g id="edge3" class="edge">
<title>S1&#45;&gt;S2</title>
<path fill="none" stroke="black" d="M34.56,-265.82C39.42,-253.81 46.08,-237.34 51.72,-223.41"/>
<polygon fill="black" stroke="black" points="54.89,-224.91 55.39,-214.33 48.4,-222.28 54.89,-224.91"/>
<text text-anchor="middle" x="51.82" y="-234.2" font-family="Times,serif" font-size="14.00">1</text>
</g>
<!-- S2&#45;&gt;S0 -->
<g id="edge5" class="edge">
<title>S2&#45;&gt;S0</title>
<path fill="none" stroke="black" d="M67.32,-213.17C75.27,-243.41 91.83,-306.42 101.45,-343.02"/>
<polygon fill="black" stroke="black" points="98,-343.66 103.93,-352.44 104.77,-341.88 98,-343.66"/>
<text text-anchor="middle" x="93.76" y="-278.45" font-family="Times,serif" font-size="14.00">1</text>
</g>
<!-- S3 -->
<g id="node4" class="node">
<title>S3</title>
<ellipse fill="none" stroke="black" cx="62.81" cy="-106.5" rx="27.81" ry="18"/>
<text text-anchor="middle" x="62.81" y="-101.45" font-family="Times,serif" font-size="14.00">S3/0</text>
</g>
<!-- S2&#45;&gt;S3 -->
<g id="edge4" class="edge">
<title>S2&#45;&gt;S3</title>
<path fill="none" stroke="black" d="M62.81,-176.91C62.81,-165.26 62.81,-149.55 62.81,-136.02"/>
<polygon fill="black" stroke="black" points="66.31,-136.36 62.81,-126.36 59.31,-136.36 66.31,-136.36"/>
<text text-anchor="middle" x="66.18" y="-145.7" font-family="Times,serif" font-size="14.00">0</text>
</g>
<!-- S3&#45;&gt;S1 -->
<g id="edge6" class="edge">
<title>S3&#45;&gt;S1</title>
<path fill="none" stroke="black" d="M49.57,-122.81C38.99,-136.12 24.99,-156.45 19.06,-177 11.71,-202.48 15.42,-232.75 20.06,-254.32"/>
<polygon fill="black" stroke="black" points="16.61,-254.92 22.32,-263.85 23.42,-253.31 16.61,-254.92"/>
<text text-anchor="middle" x="22.43" y="-189.95" font-family="Times,serif" font-size="14.00">0</text>
</g>
<!-- S4 -->
<g id="node5" class="node">
<title>S4</title>
<ellipse fill="none" stroke="black" cx="126.81" cy="-18" rx="27.81" ry="18"/>
<text text-anchor="middle" x="126.81" y="-12.95" font-family="Times,serif" font-size="14.00">S4/1</text>
</g>
<!-- S3&#45;&gt;S4 -->
<g id="edge7" class="edge">
<title>S3&#45;&gt;S4</title>
<path fill="none" stroke="black" d="M74.25,-90.04C83.75,-77.2 97.43,-58.7 108.46,-43.8"/>
<polygon fill="black" stroke="black" points="111.22,-45.96 114.35,-35.84 105.59,-41.8 111.22,-45.96"/>
<text text-anchor="middle" x="103.92" y="-57.2" font-family="Times,serif" font-size="14.00">1</text>
</g>
<!-- S4&#45;&gt;S0 -->
<g id="edge8" class="edge">
<title>S4&#45;&gt;S0</title>
<path fill="none" stroke="black" d="M126.81,-36.23C126.81,-53.69 126.81,-81.47 126.81,-105.5 126.81,-284.5 126.81,-284.5 126.81,-284.5 126.81,-304.44 122.17,-326.44 117.6,-343.26"/>
<polygon fill="black" stroke="black" points="114.33,-341.95 114.92,-352.53 121.06,-343.89 114.33,-341.95"/>
<text text-anchor="middle" x="130.18" y="-189.95" font-family="Times,serif" font-size="14.00">0</text>
</g>
<!-- S4&#45;&gt;S0 -->
<g id="edge9" class="edge">
<title>S4&#45;&gt;S0</title>
<path fill="none" stroke="black" d="M139.71,-34.13C152.38,-50.57 169.81,-78.16 169.81,-105.5 169.81,-284.5 169.81,-284.5 169.81,-284.5 169.81,-310.48 151.21,-334.14 134.55,-350.12"/>
<polygon fill="black" stroke="black" points="132.31,-347.43 127.25,-356.74 137.01,-352.62 132.31,-347.43"/>
<text text-anchor="middle" x="173.18" y="-189.95" font-family="Times,serif" font-size="14.00">1</text>
</g>
</g>
</svg>
