<?xml version="1.0" encoding="UTF-8" standalone="no"?>
<!DOCTYPE svg PUBLIC "-//W3C//DTD SVG 1.1//EN"
 "http://www.w3.org/Graphics/SVG/1.1/DTD/svg11.dtd">
<!-- Generated by graphviz version 12.1.1 (20240910.0053)
 -->
<!-- Pages: 1 -->
<svg width="164pt" height="398pt"
 viewBox="0.00 0.00 164.25 398.00" xmlns="http://www.w3.org/2000/svg" xmlns:xlink="http://www.w3.org/1999/xlink">
<g id="graph0" class="graph" transform="scale(1 1) rotate(0) translate(4 394)">
<polygon fill="white" stroke="none" points="-4,4 -4,-394 160.25,-394 160.25,4 -4,4"/>
<!-- S0 -->
<g id="node1" class="node">
<title>S0</title>
<ellipse fill="none" stroke="black" cx="94" cy="-372" rx="27" ry="18"/>
<text text-anchor="middle" x="94" y="-366.95" font-family="Times,serif" font-size="14.00">S0</text>
</g>
<!-- S0&#45;&gt;S0 -->
<g id="edge2" class="edge">
<title>S0&#45;&gt;S0</title>
<path fill="none" stroke="black" d="M118.53,-380.17C129.51,-380.95 139,-378.22 139,-372 139,-368.11 135.29,-365.59 129.83,-364.43"/>
<polygon fill="black" stroke="black" points="130.22,-360.95 120.04,-363.91 129.84,-367.94 130.22,-360.95"/>
<text text-anchor="middle" x="147.62" y="-366.95" font-family="Times,serif" font-size="14.00">1/0</text>
</g>
<!-- S1 -->
<g id="node2" class="node">
<title>S1</title>
<ellipse fill="none" stroke="black" cx="27" cy="-283.5" rx="27" ry="18"/>
<text text-anchor="middle" x="27" y="-278.45" font-family="Times,serif" font-size="14.00">S1</text>
</g>
<!-- S0&#45;&gt;S1 -->
<g id="edge1" class="edge">
<title>S0&#45;&gt;S1</title>
<path fill="none" stroke="black" d="M82.02,-355.54C71.92,-342.5 57.3,-323.62 45.66,-308.6"/>
<polygon fill="black" stroke="black" points="48.69,-306.79 39.8,-301.03 43.16,-311.08 48.69,-306.79"/>
<text text-anchor="middle" x="75.13" y="-322.7" font-family="Times,serif" font-size="14.00">0/0</text>
</g>
<!-- S1&#45;&gt;S1 -->
<g id="edge3" class="edge">
<title>S1&#45;&gt;S1</title>
<path fill="none" stroke="black" d="M51.53,-291.67C62.51,-292.45 72,-289.72 72,-283.5 72,-279.61 68.29,-277.09 62.83,-275.93"/>
<polygon fill="black" stroke="black" points="63.22,-272.45 53.04,-275.41 62.84,-279.44 63.22,-272.45"/>
<text text-anchor="middle" x="80.62" y="-278.45" font-family="Times,serif" font-size="14.00">0/0</text>
</g>
<!-- S2 -->
<g id="node3" class="node">
<title>S2</title>
<ellipse fill="none" stroke="black" cx="61" cy="-195" rx="27" ry="18"/>
<text text-anchor="middle" x="61" y="-189.95" font-family="Times,serif" font-size="14.00">S2</text>
</g>
<!-- S1&#45;&gt;S2 -->
<g id="edge4" class="edge">
<title>S1&#45;&gt;S2</title>
<path fill="none" stroke="black" d="M33.56,-265.82C38.28,-253.81 44.75,-237.34 50.22,-223.41"/>
<polygon fill="black" stroke="black" points="53.39,-224.92 53.79,-214.33 46.88,-222.36 53.39,-224.92"/>
<text text-anchor="middle" x="55.67" y="-234.2" font-family="Times,serif" font-size="14.00">1/0</text>
</g>
<!-- S3 -->
<g id="node4" class="node">
<title>S3</title>
<ellipse fill="none" stroke="black" cx="114" cy="-106.5" rx="27" ry="18"/>
<text text-anchor="middle" x="114" y="-101.45" font-family="Times,serif" font-size="14.00">S3</text>
</g>
<!-- S2&#45;&gt;S3 -->
<g id="edge5" class="edge">
<title>S2&#45;&gt;S3</title>
<path fill="none" stroke="black" d="M67.87,-177.25C72.39,-166.92 78.76,-153.57 85.75,-142.5 88.05,-138.85 90.68,-135.15 93.38,-131.58"/>
<polygon fill="black" stroke="black" points="96.1,-133.79 99.59,-123.79 90.62,-129.43 96.1,-133.79"/>
<text text-anchor="middle" x="94.38" y="-145.7" font-family="Times,serif" font-size="14.00">1/0</text>
</g>
<!-- S3&#45;&gt;S0 -->
<g id="edge7" class="edge">
<title>S3&#45;&gt;S0</title>
<path fill="none" stroke="black" d="M112.68,-124.85C109.31,-169.31 100.33,-287.64 96.17,-342.43"/>
<polygon fill="black" stroke="black" points="92.69,-341.97 95.43,-352.2 99.67,-342.5 92.69,-341.97"/>
<text text-anchor="middle" x="113.09" y="-234.2" font-family="Times,serif" font-size="14.00">1/0</text>
</g>
<!-- S4 -->
<g id="node5" class="node">
<title>S4</title>
<ellipse fill="none" stroke="black" cx="52" cy="-18" rx="27" ry="18"/>
<text text-anchor="middle" x="52" y="-12.95" font-family="Times,serif" font-size="14.00">S4</text>
</g>
<!-- S3&#45;&gt;S4 -->
<g id="edge6" class="edge">
<title>S3&#45;&gt;S4</title>
<path fill="none" stroke="black" d="M102.92,-90.04C93.72,-77.2 80.46,-58.7 69.78,-43.8"/>
<polygon fill="black" stroke="black" points="72.75,-41.94 64.08,-35.85 67.06,-46.02 72.75,-41.94"/>
<text text-anchor="middle" x="97.18" y="-57.2" font-family="Times,serif" font-size="14.00">0/1</text>
</g>
<!-- S4&#45;&gt;S1 -->
<g id="edge8" class="edge">
<title>S4&#45;&gt;S1</title>
<path fill="none" stroke="black" d="M48.13,-35.95C41.78,-64.74 29.4,-125.15 25,-177 23.65,-192.94 24.77,-197 25,-213 25.19,-226.45 25.6,-241.35 25.99,-253.9"/>
<polygon fill="black" stroke="black" points="22.48,-253.69 26.31,-263.57 29.48,-253.46 22.48,-253.69"/>
<text text-anchor="middle" x="37.34" y="-145.7" font-family="Times,serif" font-size="14.00">0/0</text>
</g>
<!-- S4&#45;&gt;S2 -->
<g id="edge9" class="edge">
<title>S4&#45;&gt;S2</title>
<path fill="none" stroke="black" d="M52.89,-36.35C54.44,-66.44 57.64,-128.58 59.52,-165.22"/>
<polygon fill="black" stroke="black" points="56.02,-165.26 60.03,-175.07 63.01,-164.9 56.02,-165.26"/>
<text text-anchor="middle" x="66.02" y="-101.45" font-family="Times,serif" font-size="14.00">1/0</text>
</g>
</g>
</svg>
