<?xml version="1.0" encoding="UTF-8" standalone="no"?>
<!DOCTYPE svg PUBLIC "-//W3C//DTD SVG 1.1//EN"
 "http://www.w3.org/Graphics/SVG/1.1/DTD/svg11.dtd">
<!-- Generated by graphviz version 12.1.1 (20240910.0053)
 -->
<!-- Pages: 1 -->
<svg width="105pt" height="398pt"
 viewBox="0.00 0.00 105.37 398.00" xmlns="http://www.w3.org/2000/svg" xmlns:xlink="http://www.w3.org/1999/xlink">
<g id="graph0" class="graph" transform="scale(1 1) rotate(0) translate(4 394)">
<polygon fill="white" stroke="none" points="-4,4 -4,-394 101.37,-394 101.37,4 -4,4"/>
<!-- S0 -->
<g id="node1" class="node">
<title>S0</title>
<ellipse fill="none" stroke="black" cx="44.81" cy="-195" rx="27.81" ry="18"/>
<text text-anchor="middle" x="44.81" y="-189.95" font-family="Times,serif" font-size="14.00">S0/0</text>
</g>
<!-- S0&#45;&gt;S0 -->
<g id="edge1" class="edge">
<title>S0&#45;&gt;S0</title>
<path fill="none" stroke="black" d="M69.78,-203.17C80.95,-203.95 90.62,-201.22 90.62,-195 90.62,-191.01 86.65,-188.46 80.86,-187.35"/>
<polygon fill="black" stroke="black" points="81.45,-183.87 71.29,-186.9 81.12,-190.87 81.45,-183.87"/>
<text text-anchor="middle" x="93.99" y="-189.95" font-family="Times,serif" font-size="14.00">0</text>
</g>
<!-- S1 -->
<g id="node2" class="node">
<title>S1</title>
<ellipse fill="none" stroke="black" cx="44.81" cy="-106.5" rx="27.81" ry="18"/>
<text text-anchor="middle" x="44.81" y="-101.45" font-family="Times,serif" font-size="14.00">S1/0</text>
</g>
<!-- S0&#45;&gt;S1 -->
<g id="edge2" class="edge">
<title>S0&#45;&gt;S1</title>
<path fill="none" stroke="black" d="M44.81,-176.91C44.81,-165.26 44.81,-149.55 44.81,-136.02"/>
<polygon fill="black" stroke="black" points="48.31,-136.36 44.81,-126.36 41.31,-136.36 48.31,-136.36"/>
<text text-anchor="middle" x="48.18" y="-145.7" font-family="Times,serif" font-size="14.00">1</text>
</g>
<!-- S1&#45;&gt;S1 -->
<g id="edge4" class="edge">
<title>S1&#45;&gt;S1</title>
<path fill="none" stroke="black" d="M69.78,-114.67C80.95,-115.45 90.62,-112.72 90.62,-106.5 90.62,-102.51 86.65,-99.96 80.86,-98.85"/>
<polygon fill="black" stroke="black" points="81.45,-95.37 71.29,-98.4 81.12,-102.37 81.45,-95.37"/>
<text text-anchor="middle" x="93.99" y="-101.45" font-family="Times,serif" font-size="14.00">1</text>
</g>
<!-- S2 -->
<g id="node3" class="node">
<title>S2</title>
<ellipse fill="none" stroke="black" cx="44.81" cy="-18" rx="27.81" ry="18"/>
<text text-anchor="middle" x="44.81" y="-12.95" font-family="Times,serif" font-size="14.00">S2/0</text>
</g>
<!-- S1&#45;&gt;S2 -->
<g id="edge3" class="edge">
<title>S1&#45;&gt;S2</title>
<path fill="none" stroke="black" d="M37.94,-88.69C35.95,-83.01 34.05,-76.57 33.06,-70.5 31.88,-63.26 31.88,-61.24 33.06,-54 33.45,-51.63 33.97,-49.2 34.59,-46.78"/>
<polygon fill="black" stroke="black" points="37.92,-47.84 37.5,-37.26 31.23,-45.8 37.92,-47.84"/>
<text text-anchor="middle" x="36.43" y="-57.2" font-family="Times,serif" font-size="14.00">0</text>
</g>
<!-- S2&#45;&gt;S1 -->
<g id="edge5" class="edge">
<title>S2&#45;&gt;S1</title>
<path fill="none" stroke="black" d="M44.81,-36.35C44.81,-48.06 44.81,-63.79 44.81,-77.28"/>
<polygon fill="black" stroke="black" points="41.31,-76.9 44.81,-86.9 48.31,-76.9 41.31,-76.9"/>
<text text-anchor="middle" x="48.18" y="-57.2" font-family="Times,serif" font-size="14.00">1</text>
</g>
<!-- S3 -->
<g id="node4" class="node">
<title>S3</title>
<ellipse fill="none" stroke="black" cx="27.81" cy="-372" rx="27.81" ry="18"/>
<text text-anchor="middle" x="27.81" y="-366.95" font-family="Times,serif" font-size="14.00">S3/0</text>
</g>
<!-- S3&#45;&gt;S0 -->
<g id="edge6" class="edge">
<title>S3&#45;&gt;S0</title>
<path fill="none" stroke="black" d="M24.3,-353.7C20.6,-332.7 15.94,-296.28 21.06,-265.5 23.43,-251.25 28.35,-236 33.11,-223.42"/>
<polygon fill="black" stroke="black" points="36.35,-224.72 36.79,-214.14 29.85,-222.14 36.35,-224.72"/>
<text text-anchor="middle" x="24.43" y="-278.45" font-family="Times,serif" font-size="14.00">0</text>
</g>
<!-- S4 -->
<g id="node5" class="node">
<title>S4</title>
<ellipse fill="none" stroke="black" cx="64.81" cy="-283.5" rx="27.81" ry="18"/>
<text text-anchor="middle" x="64.81" y="-278.45" font-family="Times,serif" font-size="14.00">S4/1</text>
</g>
<!-- S3&#45;&gt;S4 -->
<g id="edge7" class="edge">
<title>S3&#45;&gt;S4</title>
<path fill="none" stroke="black" d="M34.94,-354.32C40.11,-342.24 47.22,-325.63 53.2,-311.64"/>
<polygon fill="black" stroke="black" points="56.39,-313.09 57.1,-302.52 49.95,-310.34 56.39,-313.09"/>
<text text-anchor="middle" x="53" y="-322.7" font-family="Times,serif" font-size="14.00">1</text>
</g>
<!-- S4&#45;&gt;S0 -->
<g id="edge8" class="edge">
<title>S4&#45;&gt;S0</title>
<path fill="none" stroke="black" d="M55.44,-266.26C52.57,-260.52 49.72,-253.89 48.06,-247.5 46.18,-240.3 45.18,-232.36 44.69,-224.91"/>
<polygon fill="black" stroke="black" points="48.19,-224.8 44.32,-214.94 41.19,-225.06 48.19,-224.8"/>
<text text-anchor="middle" x="51.43" y="-234.2" font-family="Times,serif" font-size="14.00">0</text>
</g>
<!-- S4&#45;&gt;S0 -->
<g id="edge9" class="edge">
<title>S4&#45;&gt;S0</title>
<path fill="none" stroke="black" d="M60.86,-265.41C58.15,-253.68 54.48,-237.84 51.34,-224.25"/>
<polygon fill="black" stroke="black" points="54.76,-223.48 49.09,-214.53 47.94,-225.06 54.76,-223.48"/>
<text text-anchor="middle" x="59.97" y="-234.2" font-family="Times,serif" font-size="14.00">1</text>
</g>
</g>
</svg>
