<?xml version="1.0" encoding="UTF-8" standalone="no"?>
<!DOCTYPE svg PUBLIC "-//W3C//DTD SVG 1.1//EN"
 "http://www.w3.org/Graphics/SVG/1.1/DTD/svg11.dtd">
<!-- Generated by graphviz version 12.1.1 (20240910.0053)
 -->
<!-- Pages: 1 -->
<svg width="130pt" height="398pt"
 viewBox="0.00 0.00 130.47 398.00" xmlns="http://www.w3.org/2000/svg" xmlns:xlink="http://www.w3.org/1999/xlink">
<g id="graph0" class="graph" transform="scale(1 1) rotate(0) translate(4 394)">
<polygon fill="white" stroke="none" points="-4,4 -4,-394 126.47,-394 126.47,4 -4,4"/>
<!-- S0 -->
<g id="node1" class="node">
<title>S0</title>
<ellipse fill="none" stroke="black" cx="69.92" cy="-372" rx="27.81" ry="18"/>
<text text-anchor="middle" x="69.92" y="-366.95" font-family="Times,serif" font-size="14.00">S0/0</text>
</g>
<!-- S0&#45;&gt;S0 -->
<g id="edge2" class="edge">
<title>S0&#45;&gt;S0</title>
<path fill="none" stroke="black" d="M94.89,-380.17C106.06,-380.95 115.72,-378.22 115.72,-372 115.72,-368.01 111.76,-365.46 105.97,-364.35"/>
<polygon fill="black" stroke="black" points="106.55,-360.87 96.4,-363.9 106.23,-367.87 106.55,-360.87"/>
<text text-anchor="middle" x="119.1" y="-366.95" font-family="Times,serif" font-size="14.00">1</text>
</g>
<!-- S1 -->
<g id="node2" class="node">
<title>S1</title>
<ellipse fill="none" stroke="black" cx="39.92" cy="-283.5" rx="27.81" ry="18"/>
<text text-anchor="middle" x="39.92" y="-278.45" font-family="Times,serif" font-size="14.00">S1/0</text>
</g>
<!-- S0&#45;&gt;S1 -->
<g id="edge1" class="edge">
<title>S0&#45;&gt;S1</title>
<path fill="none" stroke="black" d="M63.99,-353.91C59.88,-342.06 54.32,-326.02 49.57,-312.34"/>
<polygon fill="black" stroke="black" points="52.91,-311.29 46.33,-302.98 46.3,-313.58 52.91,-311.29"/>
<text text-anchor="middle" x="60.98" y="-322.7" font-family="Times,serif" font-size="14.00">0</text>
</g>
<!-- S2 -->
<g id="node3" class="node">
<title>S2</title>
<ellipse fill="none" stroke="black" cx="41.92" cy="-195" rx="27.81" ry="18"/>
<text text-anchor="middle" x="41.92" y="-189.95" font-family="Times,serif" font-size="14.00">S2/0</text>
</g>
<!-- S1&#45;&gt;S2 -->
<g id="edge3" class="edge">
<title>S1&#45;&gt;S2</title>
<path fill="none" stroke="black" d="M40.31,-265.41C40.58,-253.76 40.94,-238.05 41.26,-224.52"/>
<polygon fill="black" stroke="black" points="44.75,-224.94 41.48,-214.86 37.75,-224.78 44.75,-224.94"/>
<text text-anchor="middle" x="44.47" y="-234.2" font-family="Times,serif" font-size="14.00">1</text>
</g>
<!-- S2&#45;&gt;S1 -->
<g id="edge4" class="edge">
<title>S2&#45;&gt;S1</title>
<path fill="none" stroke="black" d="M36.21,-212.89C34.56,-218.58 32.99,-225 32.17,-231 31.14,-238.53 31.62,-246.66 32.73,-254.19"/>
<polygon fill="black" stroke="black" points="29.26,-254.7 34.58,-263.86 36.14,-253.38 29.26,-254.7"/>
<text text-anchor="middle" x="35.54" y="-234.2" font-family="Times,serif" font-size="14.00">0</text>
</g>
<!-- S3 -->
<g id="node4" class="node">
<title>S3</title>
<ellipse fill="none" stroke="black" cx="87.92" cy="-106.5" rx="27.81" ry="18"/>
<text text-anchor="middle" x="87.92" y="-101.45" font-family="Times,serif" font-size="14.00">S3/0</text>
</g>
<!-- S2&#45;&gt;S3 -->
<g id="edge5" class="edge">
<title>S2&#45;&gt;S3</title>
<path fill="none" stroke="black" d="M50.57,-177.73C57.14,-165.36 66.33,-148.1 73.94,-133.78"/>
<polygon fill="black" stroke="black" points="76.83,-135.8 78.44,-125.33 70.65,-132.51 76.83,-135.8"/>
<text text-anchor="middle" x="72.41" y="-145.7" font-family="Times,serif" font-size="14.00">1</text>
</g>
<!-- S3&#45;&gt;S0 -->
<g id="edge7" class="edge">
<title>S3&#45;&gt;S0</title>
<path fill="none" stroke="black" d="M87.18,-124.91C85.7,-158.89 82.04,-236.42 76.92,-301.5 75.86,-314.97 74.39,-329.87 73.08,-342.42"/>
<polygon fill="black" stroke="black" points="69.63,-341.78 72.04,-352.09 76.59,-342.52 69.63,-341.78"/>
<text text-anchor="middle" x="85.05" y="-234.2" font-family="Times,serif" font-size="14.00">1</text>
</g>
<!-- S4 -->
<g id="node5" class="node">
<title>S4</title>
<ellipse fill="none" stroke="black" cx="34.92" cy="-18" rx="27.81" ry="18"/>
<text text-anchor="middle" x="34.92" y="-12.95" font-family="Times,serif" font-size="14.00">S4/1</text>
</g>
<!-- S3&#45;&gt;S4 -->
<g id="edge6" class="edge">
<title>S3&#45;&gt;S4</title>
<path fill="none" stroke="black" d="M77.95,-89.23C70.32,-76.79 59.66,-59.38 50.85,-45.01"/>
<polygon fill="black" stroke="black" points="53.84,-43.19 45.63,-36.49 47.87,-46.84 53.84,-43.19"/>
<text text-anchor="middle" x="69.54" y="-57.2" font-family="Times,serif" font-size="14.00">0</text>
</g>
<!-- S4&#45;&gt;S1 -->
<g id="edge8" class="edge">
<title>S4&#45;&gt;S1</title>
<path fill="none" stroke="black" d="M28,-35.78C15,-69.62 -10.45,-148.34 4.92,-213 8.55,-228.3 16.12,-244.06 23.29,-256.69"/>
<polygon fill="black" stroke="black" points="20.22,-258.39 28.35,-265.19 26.24,-254.81 20.22,-258.39"/>
<text text-anchor="middle" x="4.74" y="-145.7" font-family="Times,serif" font-size="14.00">0</text>
</g>
<!-- S4&#45;&gt;S2 -->
<g id="edge9" class="edge">
<title>S4&#45;&gt;S2</title>
<path fill="none" stroke="black" d="M35.61,-36.35C36.81,-66.44 39.3,-128.58 40.76,-165.22"/>
<polygon fill="black" stroke="black" points="37.26,-165.22 41.16,-175.07 44.26,-164.94 37.26,-165.22"/>
<text text-anchor="middle" x="42.49" y="-101.45" font-family="Times,serif" font-size="14.00">1</text>
</g>
</g>
</svg>
