<?xml version="1.0" encoding="UTF-8" standalone="no"?>
<!DOCTYPE svg PUBLIC "-//W3C//DTD SVG 1.1//EN"
 "http://www.w3.org/Graphics/SVG/1.1/DTD/svg11.dtd">
<!-- Generated by graphviz version 12.0.0 (20240704.0754)
 -->
<!-- Pages: 1 -->
<svg width="148pt" height="395pt"
 viewBox="0.00 0.00 148.25 395.00" xmlns="http://www.w3.org/2000/svg" xmlns:xlink="http://www.w3.org/1999/xlink">
<g id="graph0" class="graph" transform="scale(1 1) rotate(0) translate(4 391)">
<polygon fill="white" stroke="none" points="-4,4 -4,-391 144.25,-391 144.25,4 -4,4"/>
<!-- S0 -->
<g id="node1" class="node">
<title>S0</title>
<ellipse fill="none" stroke="black" cx="33" cy="-105.75" rx="27" ry="18"/>
<text text-anchor="middle" x="33" y="-100.33" font-family="Times New Roman,serif" font-size="14.00">S0</text>
</g>
<!-- S0&#45;&gt;S0 -->
<g id="edge1" class="edge">
<title>S0&#45;&gt;S0</title>
<path fill="none" stroke="black" d="M57.53,-113.85C68.51,-114.62 78,-111.92 78,-105.75 78,-101.89 74.29,-99.39 68.83,-98.25"/>
<polygon fill="black" stroke="black" points="69.21,-94.76 59.04,-97.73 68.85,-101.75 69.21,-94.76"/>
<text text-anchor="middle" x="86.62" y="-100.33" font-family="Times New Roman,serif" font-size="14.00">0/0</text>
</g>
<!-- S1 -->
<g id="node2" class="node">
<title>S1</title>
<ellipse fill="none" stroke="black" cx="78" cy="-18" rx="27" ry="18"/>
<text text-anchor="middle" x="78" y="-12.57" font-family="Times New Roman,serif" font-size="14.00">S1</text>
</g>
<!-- S0&#45;&gt;S1 -->
<g id="edge2" class="edge">
<title>S0&#45;&gt;S1</title>
<path fill="none" stroke="black" d="M41.68,-88.22C48.03,-76.12 56.77,-59.45 64.09,-45.5"/>
<polygon fill="black" stroke="black" points="67.1,-47.3 68.65,-36.82 60.9,-44.05 67.1,-47.3"/>
<text text-anchor="middle" x="67.62" y="-56.45" font-family="Times New Roman,serif" font-size="14.00">1/0</text>
</g>
<!-- S1&#45;&gt;S1 -->
<g id="edge3" class="edge">
<title>S1&#45;&gt;S1</title>
<path fill="none" stroke="black" d="M102.53,-26.1C113.51,-26.87 123,-24.17 123,-18 123,-14.14 119.29,-11.64 113.83,-10.5"/>
<polygon fill="black" stroke="black" points="114.21,-7.01 104.04,-9.98 113.85,-14 114.21,-7.01"/>
<text text-anchor="middle" x="131.62" y="-12.57" font-family="Times New Roman,serif" font-size="14.00">1/0</text>
</g>
<!-- S2 -->
<g id="node3" class="node">
<title>S2</title>
<ellipse fill="none" stroke="black" cx="27" cy="-369" rx="27" ry="18"/>
<text text-anchor="middle" x="27" y="-363.57" font-family="Times New Roman,serif" font-size="14.00">S2</text>
</g>
<!-- S2&#45;&gt;S0 -->
<g id="edge4" class="edge">
<title>S2&#45;&gt;S0</title>
<path fill="none" stroke="black" d="M27.06,-350.74C27.23,-317.04 27.84,-240.14 30,-175.5 30.44,-162.34 31.06,-147.76 31.62,-135.43"/>
<polygon fill="black" stroke="black" points="35.11,-135.65 32.08,-125.49 28.12,-135.32 35.11,-135.65"/>
<text text-anchor="middle" x="36.62" y="-231.95" font-family="Times New Roman,serif" font-size="14.00">0/0</text>
</g>
<!-- S3 -->
<g id="node4" class="node">
<title>S3</title>
<ellipse fill="none" stroke="black" cx="78" cy="-281.25" rx="27" ry="18"/>
<text text-anchor="middle" x="78" y="-275.82" font-family="Times New Roman,serif" font-size="14.00">S3</text>
</g>
<!-- S2&#45;&gt;S3 -->
<g id="edge5" class="edge">
<title>S2&#45;&gt;S3</title>
<path fill="none" stroke="black" d="M36.59,-351.87C43.93,-339.53 54.19,-322.28 62.66,-308.03"/>
<polygon fill="black" stroke="black" points="65.57,-309.99 67.68,-299.61 59.56,-306.41 65.57,-309.99"/>
<text text-anchor="middle" x="65.62" y="-319.7" font-family="Times New Roman,serif" font-size="14.00">1/0</text>
</g>
<!-- S3&#45;&gt;S1 -->
<g id="edge7" class="edge">
<title>S3&#45;&gt;S1</title>
<path fill="none" stroke="black" d="M86.33,-263.79C89.03,-258.02 91.87,-251.44 94,-245.25 116.78,-178.91 116.61,-156.75 104,-87.75 101.37,-73.38 95.9,-58.12 90.65,-45.63"/>
<polygon fill="black" stroke="black" points="94.01,-44.59 86.78,-36.85 87.61,-47.41 94.01,-44.59"/>
<text text-anchor="middle" x="120.62" y="-144.2" font-family="Times New Roman,serif" font-size="14.00">1/0</text>
</g>
<!-- S4 -->
<g id="node5" class="node">
<title>S4</title>
<ellipse fill="none" stroke="black" cx="66" cy="-193.5" rx="27" ry="18"/>
<text text-anchor="middle" x="66" y="-188.07" font-family="Times New Roman,serif" font-size="14.00">S4</text>
</g>
<!-- S3&#45;&gt;S4 -->
<g id="edge6" class="edge">
<title>S3&#45;&gt;S4</title>
<path fill="none" stroke="black" d="M63.87,-265.81C59.05,-259.93 54.25,-252.74 51.75,-245.25 49.18,-237.55 50.11,-229.09 52.41,-221.33"/>
<polygon fill="black" stroke="black" points="55.66,-222.62 55.98,-212.03 49.13,-220.11 55.66,-222.62"/>
<text text-anchor="middle" x="59.62" y="-231.95" font-family="Times New Roman,serif" font-size="14.00">0/1</text>
</g>
<!-- S4&#45;&gt;S0 -->
<g id="edge8" class="edge">
<title>S4&#45;&gt;S0</title>
<path fill="none" stroke="black" d="M59.48,-175.56C54.96,-163.81 48.84,-147.91 43.62,-134.35"/>
<polygon fill="black" stroke="black" points="46.91,-133.14 40.05,-125.07 40.38,-135.66 46.91,-133.14"/>
<text text-anchor="middle" x="60.62" y="-144.2" font-family="Times New Roman,serif" font-size="14.00">0/0</text>
</g>
<!-- S4&#45;&gt;S3 -->
<g id="edge9" class="edge">
<title>S4&#45;&gt;S3</title>
<path fill="none" stroke="black" d="M68.42,-211.83C70.02,-223.21 72.14,-238.38 73.98,-251.54"/>
<polygon fill="black" stroke="black" points="70.51,-251.98 75.36,-261.4 77.44,-251.01 70.51,-251.98"/>
<text text-anchor="middle" x="81.62" y="-231.95" font-family="Times New Roman,serif" font-size="14.00">1/0</text>
</g>
</g>
</svg>
