<?xml version="1.0" encoding="UTF-8" standalone="no"?>
<!DOCTYPE svg PUBLIC "-//W3C//DTD SVG 1.1//EN"
 "http://www.w3.org/Graphics/SVG/1.1/DTD/svg11.dtd">
<!-- Generated by graphviz version 12.1.1 (20240910.0053)
 -->
<!-- Pages: 1 -->
<svg width="169pt" height="310pt"
 viewBox="0.00 0.00 169.37 309.50" xmlns="http://www.w3.org/2000/svg" xmlns:xlink="http://www.w3.org/1999/xlink">
<g id="graph0" class="graph" transform="scale(1 1) rotate(0) translate(4 305.5)">
<polygon fill="white" stroke="none" points="-4,4 -4,-305.5 165.37,-305.5 165.37,4 -4,4"/>
<!-- S0 -->
<g id="node1" class="node">
<title>S0</title>
<ellipse fill="none" stroke="black" cx="108.81" cy="-283.5" rx="27.81" ry="18"/>
<text text-anchor="middle" x="108.81" y="-278.45" font-family="Times,serif" font-size="14.00">S0/0</text>
</g>
<!-- S0&#45;&gt;S0 -->
<g id="edge1" class="edge">
<title>S0&#45;&gt;S0</title>
<path fill="none" stroke="black" d="M133.78,-291.67C144.95,-292.45 154.62,-289.72 154.62,-283.5 154.62,-279.51 150.65,-276.96 144.86,-275.85"/>
<polygon fill="black" stroke="black" points="145.45,-272.37 135.29,-275.4 145.12,-279.37 145.45,-272.37"/>
<text text-anchor="middle" x="157.99" y="-278.45" font-family="Times,serif" font-size="14.00">0</text>
</g>
<!-- S1 -->
<g id="node2" class="node">
<title>S1</title>
<ellipse fill="none" stroke="black" cx="27.81" cy="-195" rx="27.81" ry="18"/>
<text text-anchor="middle" x="27.81" y="-189.95" font-family="Times,serif" font-size="14.00">S1/0</text>
</g>
<!-- S0&#45;&gt;S1 -->
<g id="edge2" class="edge">
<title>S0&#45;&gt;S1</title>
<path fill="none" stroke="black" d="M95.07,-267.83C82.58,-254.49 63.94,-234.58 49.45,-219.11"/>
<polygon fill="black" stroke="black" points="52.31,-217.05 42.92,-212.14 47.2,-221.83 52.31,-217.05"/>
<text text-anchor="middle" x="78.94" y="-234.2" font-family="Times,serif" font-size="14.00">1</text>
</g>
<!-- S1&#45;&gt;S1 -->
<g id="edge4" class="edge">
<title>S1&#45;&gt;S1</title>
<path fill="none" stroke="black" d="M52.78,-203.17C63.95,-203.95 73.62,-201.22 73.62,-195 73.62,-191.01 69.65,-188.46 63.86,-187.35"/>
<polygon fill="black" stroke="black" points="64.45,-183.87 54.29,-186.9 64.12,-190.87 64.45,-183.87"/>
<text text-anchor="middle" x="76.99" y="-189.95" font-family="Times,serif" font-size="14.00">1</text>
</g>
<!-- S2 -->
<g id="node3" class="node">
<title>S2</title>
<ellipse fill="none" stroke="black" cx="46.81" cy="-106.5" rx="27.81" ry="18"/>
<text text-anchor="middle" x="46.81" y="-101.45" font-family="Times,serif" font-size="14.00">S2/0</text>
</g>
<!-- S1&#45;&gt;S2 -->
<g id="edge3" class="edge">
<title>S1&#45;&gt;S2</title>
<path fill="none" stroke="black" d="M31.56,-176.91C34.14,-165.18 37.62,-149.34 40.6,-135.75"/>
<polygon fill="black" stroke="black" points="44.01,-136.55 42.74,-126.03 37.17,-135.05 44.01,-136.55"/>
<text text-anchor="middle" x="42.39" y="-145.7" font-family="Times,serif" font-size="14.00">0</text>
</g>
<!-- S3 -->
<g id="node4" class="node">
<title>S3</title>
<ellipse fill="none" stroke="black" cx="108.81" cy="-18" rx="27.81" ry="18"/>
<text text-anchor="middle" x="108.81" y="-12.95" font-family="Times,serif" font-size="14.00">S3/1</text>
</g>
<!-- S2&#45;&gt;S3 -->
<g id="edge5" class="edge">
<title>S2&#45;&gt;S3</title>
<path fill="none" stroke="black" d="M58.18,-89.63C67.36,-76.83 80.43,-58.59 91,-43.85"/>
<polygon fill="black" stroke="black" points="93.65,-46.16 96.63,-36 87.96,-42.08 93.65,-46.16"/>
<text text-anchor="middle" x="86.74" y="-57.2" font-family="Times,serif" font-size="14.00">1</text>
</g>
<!-- S3&#45;&gt;S0 -->
<g id="edge6" class="edge">
<title>S3&#45;&gt;S0</title>
<path fill="none" stroke="black" d="M108.81,-36.35C108.81,-80.81 108.81,-199.14 108.81,-253.93"/>
<polygon fill="black" stroke="black" points="105.31,-253.7 108.81,-263.7 112.31,-253.7 105.31,-253.7"/>
<text text-anchor="middle" x="112.18" y="-145.7" font-family="Times,serif" font-size="14.00">0</text>
</g>
<!-- S3&#45;&gt;S0 -->
<g id="edge7" class="edge">
<title>S3&#45;&gt;S0</title>
<path fill="none" stroke="black" d="M116.99,-35.7C119.35,-41.37 121.62,-47.83 122.81,-54 139.07,-138.45 139.07,-163.05 122.81,-247.5 122.33,-250.01 121.67,-252.56 120.89,-255.09"/>
<polygon fill="black" stroke="black" points="117.64,-253.79 117.5,-264.38 124.22,-256.19 117.64,-253.79"/>
<text text-anchor="middle" x="138.38" y="-145.7" font-family="Times,serif" font-size="14.00">1</text>
</g>
</g>
</svg>
