<?xml version="1.0" encoding="UTF-8" standalone="no"?>
<!DOCTYPE svg PUBLIC "-//W3C//DTD SVG 1.1//EN"
 "http://www.w3.org/Graphics/SVG/1.1/DTD/svg11.dtd">
<!-- Generated by graphviz version 12.1.1 (20240910.0053)
 -->
<!-- Pages: 1 -->
<svg width="136pt" height="310pt"
 viewBox="0.00 0.00 136.25 309.50" xmlns="http://www.w3.org/2000/svg" xmlns:xlink="http://www.w3.org/1999/xlink">
<g id="graph0" class="graph" transform="scale(1 1) rotate(0) translate(4 305.5)">
<polygon fill="white" stroke="none" points="-4,4 -4,-305.5 132.25,-305.5 132.25,4 -4,4"/>
<!-- S0 -->
<g id="node1" class="node">
<title>S0</title>
<ellipse fill="none" stroke="black" cx="66" cy="-106.5" rx="27" ry="18"/>
<text text-anchor="middle" x="66" y="-101.45" font-family="Times,serif" font-size="14.00">S0</text>
</g>
<!-- S0&#45;&gt;S0 -->
<g id="edge2" class="edge">
<title>S0&#45;&gt;S0</title>
<path fill="none" stroke="black" d="M90.53,-114.67C101.51,-115.45 111,-112.72 111,-106.5 111,-102.61 107.29,-100.09 101.83,-98.93"/>
<polygon fill="black" stroke="black" points="102.22,-95.45 92.04,-98.41 101.84,-102.44 102.22,-95.45"/>
<text text-anchor="middle" x="119.62" y="-101.45" font-family="Times,serif" font-size="14.00">1/0</text>
</g>
<!-- S1 -->
<g id="node2" class="node">
<title>S1</title>
<ellipse fill="none" stroke="black" cx="27" cy="-18" rx="27" ry="18"/>
<text text-anchor="middle" x="27" y="-12.95" font-family="Times,serif" font-size="14.00">S1</text>
</g>
<!-- S0&#45;&gt;S1 -->
<g id="edge1" class="edge">
<title>S0&#45;&gt;S1</title>
<path fill="none" stroke="black" d="M58.48,-88.82C52.98,-76.62 45.4,-59.8 39.05,-45.73"/>
<polygon fill="black" stroke="black" points="42.42,-44.68 35.12,-37.01 36.04,-47.56 42.42,-44.68"/>
<text text-anchor="middle" x="58.62" y="-57.2" font-family="Times,serif" font-size="14.00">0/0</text>
</g>
<!-- S1&#45;&gt;S1 -->
<g id="edge3" class="edge">
<title>S1&#45;&gt;S1</title>
<path fill="none" stroke="black" d="M51.53,-26.17C62.51,-26.95 72,-24.22 72,-18 72,-14.11 68.29,-11.59 62.83,-10.43"/>
<polygon fill="black" stroke="black" points="63.22,-6.95 53.04,-9.91 62.84,-13.94 63.22,-6.95"/>
<text text-anchor="middle" x="80.62" y="-12.95" font-family="Times,serif" font-size="14.00">0/0</text>
</g>
<!-- S2 -->
<g id="node3" class="node">
<title>S2</title>
<ellipse fill="none" stroke="black" cx="27" cy="-283.5" rx="27" ry="18"/>
<text text-anchor="middle" x="27" y="-278.45" font-family="Times,serif" font-size="14.00">S2</text>
</g>
<!-- S2&#45;&gt;S1 -->
<g id="edge4" class="edge">
<title>S2&#45;&gt;S1</title>
<path fill="none" stroke="black" d="M27,-265.21C27,-220.82 27,-102.49 27,-47.65"/>
<polygon fill="black" stroke="black" points="30.5,-47.87 27,-37.87 23.5,-47.87 30.5,-47.87"/>
<text text-anchor="middle" x="35.62" y="-145.7" font-family="Times,serif" font-size="14.00">0/0</text>
</g>
<!-- S3 -->
<g id="node4" class="node">
<title>S3</title>
<ellipse fill="none" stroke="black" cx="66" cy="-195" rx="27" ry="18"/>
<text text-anchor="middle" x="66" y="-189.95" font-family="Times,serif" font-size="14.00">S3</text>
</g>
<!-- S2&#45;&gt;S3 -->
<g id="edge5" class="edge">
<title>S2&#45;&gt;S3</title>
<path fill="none" stroke="black" d="M34.52,-265.82C40.02,-253.62 47.6,-236.8 53.95,-222.73"/>
<polygon fill="black" stroke="black" points="56.96,-224.56 57.88,-214.01 50.58,-221.68 56.96,-224.56"/>
<text text-anchor="middle" x="58.62" y="-234.2" font-family="Times,serif" font-size="14.00">1/1</text>
</g>
<!-- S3&#45;&gt;S0 -->
<g id="edge6" class="edge">
<title>S3&#45;&gt;S0</title>
<path fill="none" stroke="black" d="M61.76,-177.02C60.53,-171.33 59.36,-164.93 58.75,-159 58,-151.7 58,-149.8 58.75,-142.5 58.98,-140.28 59.28,-137.99 59.64,-135.69"/>
<polygon fill="black" stroke="black" points="63.06,-136.44 61.48,-125.97 56.19,-135.15 63.06,-136.44"/>
<text text-anchor="middle" x="67.38" y="-145.7" font-family="Times,serif" font-size="14.00">0/0</text>
</g>
<!-- S3&#45;&gt;S0 -->
<g id="edge7" class="edge">
<title>S3&#45;&gt;S0</title>
<path fill="none" stroke="black" d="M71.85,-177.11C73.54,-171.43 75.16,-165.01 76,-159 77.02,-151.74 77.02,-149.76 76,-142.5 75.67,-140.15 75.22,-137.74 74.7,-135.34"/>
<polygon fill="black" stroke="black" points="78.14,-134.65 72.23,-125.85 71.36,-136.41 78.14,-134.65"/>
<text text-anchor="middle" x="85.39" y="-145.7" font-family="Times,serif" font-size="14.00">1/0</text>
</g>
</g>
</svg>
