<?xml version="1.0" encoding="UTF-8" standalone="no"?>
<!DOCTYPE svg PUBLIC "-//W3C//DTD SVG 1.1//EN"
 "http://www.w3.org/Graphics/SVG/1.1/DTD/svg11.dtd">
<!-- Generated by graphviz version 12.0.0 (20240704.0754)
 -->
<!-- Pages: 1 -->
<svg width="187pt" height="307pt"
 viewBox="0.00 0.00 187.25 307.25" xmlns="http://www.w3.org/2000/svg" xmlns:xlink="http://www.w3.org/1999/xlink">
<g id="graph0" class="graph" transform="scale(1 1) rotate(0) translate(4 303.25)">
<polygon fill="white" stroke="none" points="-4,4 -4,-303.25 183.25,-303.25 183.25,4 -4,4"/>
<!-- S0 -->
<g id="node1" class="node">
<title>S0</title>
<ellipse fill="none" stroke="black" cx="117" cy="-281.25" rx="27" ry="18"/>
<text text-anchor="middle" x="117" y="-275.82" font-family="Times New Roman,serif" font-size="14.00">S0</text>
</g>
<!-- S0&#45;&gt;S0 -->
<g id="edge2" class="edge">
<title>S0&#45;&gt;S0</title>
<path fill="none" stroke="black" d="M141.53,-289.35C152.51,-290.12 162,-287.42 162,-281.25 162,-277.39 158.29,-274.89 152.83,-273.75"/>
<polygon fill="black" stroke="black" points="153.21,-270.26 143.04,-273.23 152.85,-277.25 153.21,-270.26"/>
<text text-anchor="middle" x="170.62" y="-275.82" font-family="Times New Roman,serif" font-size="14.00">1/0</text>
</g>
<!-- S1 -->
<g id="node2" class="node">
<title>S1</title>
<ellipse fill="none" stroke="black" cx="27" cy="-193.5" rx="27" ry="18"/>
<text text-anchor="middle" x="27" y="-188.07" font-family="Times New Roman,serif" font-size="14.00">S1</text>
</g>
<!-- S0&#45;&gt;S1 -->
<g id="edge1" class="edge">
<title>S0&#45;&gt;S1</title>
<path fill="none" stroke="black" d="M102.14,-266.09C87.94,-252.56 66.33,-231.97 49.92,-216.34"/>
<polygon fill="black" stroke="black" points="52.63,-214.09 42.98,-209.72 47.81,-219.16 52.63,-214.09"/>
<text text-anchor="middle" x="89.62" y="-231.95" font-family="Times New Roman,serif" font-size="14.00">0/0</text>
</g>
<!-- S1&#45;&gt;S1 -->
<g id="edge3" class="edge">
<title>S1&#45;&gt;S1</title>
<path fill="none" stroke="black" d="M51.53,-201.6C62.51,-202.37 72,-199.67 72,-193.5 72,-189.64 68.29,-187.14 62.83,-186"/>
<polygon fill="black" stroke="black" points="63.21,-182.51 53.04,-185.48 62.85,-189.5 63.21,-182.51"/>
<text text-anchor="middle" x="80.62" y="-188.07" font-family="Times New Roman,serif" font-size="14.00">0/0</text>
</g>
<!-- S2 -->
<g id="node3" class="node">
<title>S2</title>
<ellipse fill="none" stroke="black" cx="53" cy="-105.75" rx="27" ry="18"/>
<text text-anchor="middle" x="53" y="-100.33" font-family="Times New Roman,serif" font-size="14.00">S2</text>
</g>
<!-- S1&#45;&gt;S2 -->
<g id="edge4" class="edge">
<title>S1&#45;&gt;S2</title>
<path fill="none" stroke="black" d="M32.14,-175.56C35.7,-163.81 40.52,-147.91 44.63,-134.35"/>
<polygon fill="black" stroke="black" points="47.88,-135.69 47.43,-125.1 41.18,-133.66 47.88,-135.69"/>
<text text-anchor="middle" x="51.62" y="-144.2" font-family="Times New Roman,serif" font-size="14.00">1/0</text>
</g>
<!-- S3 -->
<g id="node4" class="node">
<title>S3</title>
<ellipse fill="none" stroke="black" cx="117" cy="-18" rx="27" ry="18"/>
<text text-anchor="middle" x="117" y="-12.57" font-family="Times New Roman,serif" font-size="14.00">S3</text>
</g>
<!-- S2&#45;&gt;S3 -->
<g id="edge5" class="edge">
<title>S2&#45;&gt;S3</title>
<path fill="none" stroke="black" d="M62.42,-88.77C68.66,-78.56 77.24,-65.18 85.75,-54 88.83,-49.95 92.27,-45.8 95.71,-41.83"/>
<polygon fill="black" stroke="black" points="98.04,-44.47 102.08,-34.68 92.81,-39.82 98.04,-44.47"/>
<text text-anchor="middle" x="94.62" y="-56.45" font-family="Times New Roman,serif" font-size="14.00">1/1</text>
</g>
<!-- S3&#45;&gt;S0 -->
<g id="edge6" class="edge">
<title>S3&#45;&gt;S0</title>
<path fill="none" stroke="black" d="M117,-36.2C117,-80.28 117,-197.61 117,-251.92"/>
<polygon fill="black" stroke="black" points="113.5,-251.6 117,-261.6 120.5,-251.6 113.5,-251.6"/>
<text text-anchor="middle" x="125.62" y="-144.2" font-family="Times New Roman,serif" font-size="14.00">0/0</text>
</g>
<!-- S3&#45;&gt;S0 -->
<g id="edge7" class="edge">
<title>S3&#45;&gt;S0</title>
<path fill="none" stroke="black" d="M124.87,-35.38C127.27,-41.13 129.64,-47.73 131,-54 148.97,-137.08 148.97,-162.17 131,-245.25 130.43,-247.89 129.68,-250.6 128.82,-253.27"/>
<polygon fill="black" stroke="black" points="125.61,-251.86 125.39,-262.46 132.17,-254.31 125.61,-251.86"/>
<text text-anchor="middle" x="152.62" y="-144.2" font-family="Times New Roman,serif" font-size="14.00">1/0</text>
</g>
</g>
</svg>
