<?xml version="1.0" encoding="UTF-8" standalone="no"?>
<!DOCTYPE svg PUBLIC "-//W3C//DTD SVG 1.1//EN"
 "http://www.w3.org/Graphics/SVG/1.1/DTD/svg11.dtd">
<!-- Generated by graphviz version 12.1.1 (20240910.0053)
 -->
<!-- Pages: 1 -->
<svg width="213pt" height="398pt"
 viewBox="0.00 0.00 213.25 398.00" xmlns="http://www.w3.org/2000/svg" xmlns:xlink="http://www.w3.org/1999/xlink">
<g id="graph0" class="graph" transform="scale(1 1) rotate(0) translate(4 394)">
<polygon fill="white" stroke="none" points="-4,4 -4,-394 209.25,-394 209.25,4 -4,4"/>
<!-- S0 -->
<g id="node1" class="node">
<title>S0</title>
<ellipse fill="none" stroke="black" cx="112" cy="-372" rx="27" ry="18"/>
<text text-anchor="middle" x="112" y="-366.95" font-family="Times,serif" font-size="14.00">S0</text>
</g>
<!-- S0&#45;&gt;S0 -->
<g id="edge2" class="edge">
<title>S0&#45;&gt;S0</title>
<path fill="none" stroke="black" d="M136.53,-380.17C147.51,-380.95 157,-378.22 157,-372 157,-368.11 153.29,-365.59 147.83,-364.43"/>
<polygon fill="black" stroke="black" points="148.22,-360.95 138.04,-363.91 147.84,-367.94 148.22,-360.95"/>
<text text-anchor="middle" x="165.62" y="-366.95" font-family="Times,serif" font-size="14.00">1/0</text>
</g>
<!-- S1 -->
<g id="node2" class="node">
<title>S1</title>
<ellipse fill="none" stroke="black" cx="27" cy="-283.5" rx="27" ry="18"/>
<text text-anchor="middle" x="27" y="-278.45" font-family="Times,serif" font-size="14.00">S1</text>
</g>
<!-- S0&#45;&gt;S1 -->
<g id="edge1" class="edge">
<title>S0&#45;&gt;S1</title>
<path fill="none" stroke="black" d="M90.97,-360.08C80.48,-353.95 68.08,-345.6 58.75,-336 51.67,-328.72 45.41,-319.59 40.36,-311.05"/>
<polygon fill="black" stroke="black" points="43.48,-309.45 35.56,-302.41 37.36,-312.85 43.48,-309.45"/>
<text text-anchor="middle" x="67.38" y="-322.7" font-family="Times,serif" font-size="14.00">0/0</text>
</g>
<!-- S2 -->
<g id="node3" class="node">
<title>S2</title>
<ellipse fill="none" stroke="black" cx="72" cy="-195" rx="27" ry="18"/>
<text text-anchor="middle" x="72" y="-189.95" font-family="Times,serif" font-size="14.00">S2</text>
</g>
<!-- S1&#45;&gt;S2 -->
<g id="edge3" class="edge">
<title>S1&#45;&gt;S2</title>
<path fill="none" stroke="black" d="M35.46,-266.23C41.83,-253.98 50.7,-236.93 58.11,-222.7"/>
<polygon fill="black" stroke="black" points="61.21,-224.32 62.72,-213.83 55,-221.09 61.21,-224.32"/>
<text text-anchor="middle" x="62.16" y="-234.2" font-family="Times,serif" font-size="14.00">1/0</text>
</g>
<!-- S2&#45;&gt;S0 -->
<g id="edge5" class="edge">
<title>S2&#45;&gt;S0</title>
<path fill="none" stroke="black" d="M75.92,-213.17C82.84,-243.41 97.24,-306.42 105.6,-343.02"/>
<polygon fill="black" stroke="black" points="102.11,-343.46 107.75,-352.43 108.94,-341.9 102.11,-343.46"/>
<text text-anchor="middle" x="104.6" y="-278.45" font-family="Times,serif" font-size="14.00">1/0</text>
</g>
<!-- S3 -->
<g id="node4" class="node">
<title>S3</title>
<ellipse fill="none" stroke="black" cx="72" cy="-106.5" rx="27" ry="18"/>
<text text-anchor="middle" x="72" y="-101.45" font-family="Times,serif" font-size="14.00">S3</text>
</g>
<!-- S2&#45;&gt;S3 -->
<g id="edge4" class="edge">
<title>S2&#45;&gt;S3</title>
<path fill="none" stroke="black" d="M72,-176.91C72,-165.26 72,-149.55 72,-136.02"/>
<polygon fill="black" stroke="black" points="75.5,-136.36 72,-126.36 68.5,-136.36 75.5,-136.36"/>
<text text-anchor="middle" x="80.62" y="-145.7" font-family="Times,serif" font-size="14.00">0/0</text>
</g>
<!-- S3&#45;&gt;S1 -->
<g id="edge6" class="edge">
<title>S3&#45;&gt;S1</title>
<path fill="none" stroke="black" d="M56.45,-121.76C43.55,-134.72 26.17,-155.12 18.75,-177 10.19,-202.25 13.99,-232.78 18.88,-254.48"/>
<polygon fill="black" stroke="black" points="15.46,-255.22 21.27,-264.08 22.25,-253.53 15.46,-255.22"/>
<text text-anchor="middle" x="27.38" y="-189.95" font-family="Times,serif" font-size="14.00">0/0</text>
</g>
<!-- S4 -->
<g id="node5" class="node">
<title>S4</title>
<ellipse fill="none" stroke="black" cx="135" cy="-18" rx="27" ry="18"/>
<text text-anchor="middle" x="135" y="-12.95" font-family="Times,serif" font-size="14.00">S4</text>
</g>
<!-- S3&#45;&gt;S4 -->
<g id="edge7" class="edge">
<title>S3&#45;&gt;S4</title>
<path fill="none" stroke="black" d="M81.03,-89.25C87.03,-78.87 95.34,-65.28 103.75,-54 106.79,-49.92 110.21,-45.75 113.63,-41.78"/>
<polygon fill="black" stroke="black" points="115.97,-44.42 120.01,-34.63 110.74,-39.76 115.97,-44.42"/>
<text text-anchor="middle" x="112.38" y="-57.2" font-family="Times,serif" font-size="14.00">1/1</text>
</g>
<!-- S4&#45;&gt;S0 -->
<g id="edge8" class="edge">
<title>S4&#45;&gt;S0</title>
<path fill="none" stroke="black" d="M135,-36.23C135,-53.69 135,-81.47 135,-105.5 135,-284.5 135,-284.5 135,-284.5 135,-304.83 128.99,-326.97 123.12,-343.76"/>
<polygon fill="black" stroke="black" points="119.88,-342.43 119.68,-353.02 126.44,-344.87 119.88,-342.43"/>
<text text-anchor="middle" x="143.62" y="-189.95" font-family="Times,serif" font-size="14.00">0/0</text>
</g>
<!-- S4&#45;&gt;S0 -->
<g id="edge9" class="edge">
<title>S4&#45;&gt;S0</title>
<path fill="none" stroke="black" d="M150.33,-33C165.98,-48.91 188,-76.44 188,-105.5 188,-284.5 188,-284.5 188,-284.5 188,-313.97 162.8,-338.18 141.42,-353.42"/>
<polygon fill="black" stroke="black" points="139.57,-350.45 133.22,-358.93 143.47,-356.26 139.57,-350.45"/>
<text text-anchor="middle" x="196.62" y="-189.95" font-family="Times,serif" font-size="14.00">1/0</text>
</g>
</g>
</svg>
