<?xml version="1.0" encoding="UTF-8" standalone="no"?>
<!DOCTYPE svg PUBLIC "-//W3C//DTD SVG 1.1//EN"
 "http://www.w3.org/Graphics/SVG/1.1/DTD/svg11.dtd">
<!-- Generated by graphviz version 12.1.1 (20240910.0053)
 -->
<!-- Pages: 1 -->
<svg width="141pt" height="398pt"
 viewBox="0.00 0.00 141.37 398.00" xmlns="http://www.w3.org/2000/svg" xmlns:xlink="http://www.w3.org/1999/xlink">
<g id="graph0" class="graph" transform="scale(1 1) rotate(0) translate(4 394)">
<polygon fill="white" stroke="none" points="-4,4 -4,-394 137.37,-394 137.37,4 -4,4"/>
<!-- S0 -->
<g id="node1" class="node">
<title>S0</title>
<ellipse fill="none" stroke="black" cx="27.81" cy="-195" rx="27.81" ry="18"/>
<text text-anchor="middle" x="27.81" y="-189.95" font-family="Times,serif" font-size="14.00">S0/0</text>
</g>
<!-- S0&#45;&gt;S0 -->
<g id="edge1" class="edge">
<title>S0&#45;&gt;S0</title>
<path fill="none" stroke="black" d="M52.78,-203.17C63.95,-203.95 73.62,-201.22 73.62,-195 73.62,-191.01 69.65,-188.46 63.86,-187.35"/>
<polygon fill="black" stroke="black" points="64.45,-183.87 54.29,-186.9 64.12,-190.87 64.45,-183.87"/>
<text text-anchor="middle" x="76.99" y="-189.95" font-family="Times,serif" font-size="14.00">0</text>
</g>
<!-- S1 -->
<g id="node2" class="node">
<title>S1</title>
<ellipse fill="none" stroke="black" cx="52.81" cy="-106.5" rx="27.81" ry="18"/>
<text text-anchor="middle" x="52.81" y="-101.45" font-family="Times,serif" font-size="14.00">S1/0</text>
</g>
<!-- S0&#45;&gt;S1 -->
<g id="edge2" class="edge">
<title>S0&#45;&gt;S1</title>
<path fill="none" stroke="black" d="M25.84,-176.9C25.24,-166.68 25.51,-153.57 29.06,-142.5 30.14,-139.11 31.67,-135.75 33.43,-132.54"/>
<polygon fill="black" stroke="black" points="36.36,-134.45 38.78,-124.14 30.46,-130.69 36.36,-134.45"/>
<text text-anchor="middle" x="32.43" y="-145.7" font-family="Times,serif" font-size="14.00">1</text>
</g>
<!-- S1&#45;&gt;S0 -->
<g id="edge3" class="edge">
<title>S1&#45;&gt;S0</title>
<path fill="none" stroke="black" d="M47.88,-124.55C44.46,-136.39 39.82,-152.43 35.87,-166.12"/>
<polygon fill="black" stroke="black" points="32.58,-164.88 33.17,-175.46 39.31,-166.82 32.58,-164.88"/>
<text text-anchor="middle" x="45.92" y="-145.7" font-family="Times,serif" font-size="14.00">0</text>
</g>
<!-- S2 -->
<g id="node3" class="node">
<title>S2</title>
<ellipse fill="none" stroke="black" cx="80.81" cy="-18" rx="27.81" ry="18"/>
<text text-anchor="middle" x="80.81" y="-12.95" font-family="Times,serif" font-size="14.00">S2/0</text>
</g>
<!-- S1&#45;&gt;S2 -->
<g id="edge4" class="edge">
<title>S1&#45;&gt;S2</title>
<path fill="none" stroke="black" d="M58.34,-88.41C62.18,-76.56 67.37,-60.52 71.8,-46.84"/>
<polygon fill="black" stroke="black" points="75.07,-48.09 74.82,-37.49 68.41,-45.93 75.07,-48.09"/>
<text text-anchor="middle" x="72.69" y="-57.2" font-family="Times,serif" font-size="14.00">1</text>
</g>
<!-- S2&#45;&gt;S2 -->
<g id="edge5" class="edge">
<title>S2&#45;&gt;S2</title>
<path fill="none" stroke="black" d="M105.78,-26.17C116.95,-26.95 126.62,-24.22 126.62,-18 126.62,-14.01 122.65,-11.46 116.86,-10.35"/>
<polygon fill="black" stroke="black" points="117.45,-6.87 107.29,-9.9 117.12,-13.87 117.45,-6.87"/>
<text text-anchor="middle" x="129.99" y="-12.95" font-family="Times,serif" font-size="14.00">1</text>
</g>
<!-- S3 -->
<g id="node4" class="node">
<title>S3</title>
<ellipse fill="none" stroke="black" cx="43.81" cy="-372" rx="27.81" ry="18"/>
<text text-anchor="middle" x="43.81" y="-366.95" font-family="Times,serif" font-size="14.00">S3/0</text>
</g>
<!-- S3&#45;&gt;S0 -->
<g id="edge6" class="edge">
<title>S3&#45;&gt;S0</title>
<path fill="none" stroke="black" d="M42.07,-353.58C40.68,-339.53 38.7,-319.24 37.06,-301.5 34.65,-275.48 32.07,-245.84 30.24,-224.61"/>
<polygon fill="black" stroke="black" points="33.73,-224.35 29.39,-214.69 26.76,-224.95 33.73,-224.35"/>
<text text-anchor="middle" x="40.43" y="-278.45" font-family="Times,serif" font-size="14.00">0</text>
</g>
<!-- S4 -->
<g id="node5" class="node">
<title>S4</title>
<ellipse fill="none" stroke="black" cx="80.81" cy="-283.5" rx="27.81" ry="18"/>
<text text-anchor="middle" x="80.81" y="-278.45" font-family="Times,serif" font-size="14.00">S4/1</text>
</g>
<!-- S3&#45;&gt;S4 -->
<g id="edge7" class="edge">
<title>S3&#45;&gt;S4</title>
<path fill="none" stroke="black" d="M50.94,-354.32C56.11,-342.24 63.22,-325.63 69.2,-311.64"/>
<polygon fill="black" stroke="black" points="72.39,-313.09 73.1,-302.52 65.95,-310.34 72.39,-313.09"/>
<text text-anchor="middle" x="69" y="-322.7" font-family="Times,serif" font-size="14.00">1</text>
</g>
<!-- S4&#45;&gt;S0 -->
<g id="edge8" class="edge">
<title>S4&#45;&gt;S0</title>
<path fill="none" stroke="black" d="M70.84,-266.23C63.21,-253.79 52.55,-236.38 43.74,-222.01"/>
<polygon fill="black" stroke="black" points="46.73,-220.19 38.52,-213.49 40.76,-223.84 46.73,-220.19"/>
<text text-anchor="middle" x="62.43" y="-234.2" font-family="Times,serif" font-size="14.00">0</text>
</g>
<!-- S4&#45;&gt;S2 -->
<g id="edge9" class="edge">
<title>S4&#45;&gt;S2</title>
<path fill="none" stroke="black" d="M83.69,-265.14C85.86,-251.11 88.66,-230.85 89.81,-213 93.37,-157.78 93.37,-143.72 89.81,-88.5 88.94,-74.97 87.12,-60.06 85.34,-47.53"/>
<polygon fill="black" stroke="black" points="88.84,-47.24 83.91,-37.86 81.92,-48.27 88.84,-47.24"/>
<text text-anchor="middle" x="95.85" y="-145.7" font-family="Times,serif" font-size="14.00">1</text>
</g>
</g>
</svg>
