<?xml version="1.0" encoding="UTF-8" standalone="no"?>
<!DOCTYPE svg PUBLIC "-//W3C//DTD SVG 1.1//EN"
 "http://www.w3.org/Graphics/SVG/1.1/DTD/svg11.dtd">
<!-- Generated by graphviz version 12.1.1 (20240910.0053)
 -->
<!-- Pages: 1 -->
<svg width="161pt" height="398pt"
 viewBox="0.00 0.00 161.00 398.00" xmlns="http://www.w3.org/2000/svg" xmlns:xlink="http://www.w3.org/1999/xlink">
<g id="graph0" class="graph" transform="scale(1 1) rotate(0) translate(4 394)">
<polygon fill="white" stroke="none" points="-4,4 -4,-394 157,-394 157,4 -4,4"/>
<!-- S0 -->
<g id="node1" class="node">
<title>S0</title>
<ellipse fill="none" stroke="black" cx="81" cy="-106.5" rx="27" ry="18"/>
<text text-anchor="middle" x="81" y="-101.45" font-family="Times,serif" font-size="14.00">S0</text>
</g>
<!-- S0&#45;&gt;S0 -->
<g id="edge2" class="edge">
<title>S0&#45;&gt;S0</title>
<path fill="none" stroke="black" d="M105.53,-114.67C116.51,-115.45 126,-112.72 126,-106.5 126,-102.61 122.29,-100.09 116.83,-98.93"/>
<polygon fill="black" stroke="black" points="117.22,-95.45 107.04,-98.41 116.84,-102.44 117.22,-95.45"/>
<text text-anchor="middle" x="134.62" y="-101.45" font-family="Times,serif" font-size="14.00">1/0</text>
</g>
<!-- S1 -->
<g id="node2" class="node">
<title>S1</title>
<ellipse fill="none" stroke="black" cx="27" cy="-18" rx="27" ry="18"/>
<text text-anchor="middle" x="27" y="-12.95" font-family="Times,serif" font-size="14.00">S1</text>
</g>
<!-- S0&#45;&gt;S1 -->
<g id="edge1" class="edge">
<title>S0&#45;&gt;S1</title>
<path fill="none" stroke="black" d="M71.1,-89.63C63.23,-77.03 52.07,-59.16 42.95,-44.55"/>
<polygon fill="black" stroke="black" points="46.09,-42.97 37.83,-36.34 40.15,-46.68 46.09,-42.97"/>
<text text-anchor="middle" x="67.46" y="-57.2" font-family="Times,serif" font-size="14.00">0/0</text>
</g>
<!-- S1&#45;&gt;S1 -->
<g id="edge3" class="edge">
<title>S1&#45;&gt;S1</title>
<path fill="none" stroke="black" d="M51.53,-26.17C62.51,-26.95 72,-24.22 72,-18 72,-14.11 68.29,-11.59 62.83,-10.43"/>
<polygon fill="black" stroke="black" points="63.22,-6.95 53.04,-9.91 62.84,-13.94 63.22,-6.95"/>
<text text-anchor="middle" x="80.62" y="-12.95" font-family="Times,serif" font-size="14.00">0/0</text>
</g>
<!-- S2 -->
<g id="node3" class="node">
<title>S2</title>
<ellipse fill="none" stroke="black" cx="27" cy="-372" rx="27" ry="18"/>
<text text-anchor="middle" x="27" y="-366.95" font-family="Times,serif" font-size="14.00">S2</text>
</g>
<!-- S2&#45;&gt;S1 -->
<g id="edge4" class="edge">
<title>S2&#45;&gt;S1</title>
<path fill="none" stroke="black" d="M21.94,-353.94C17.25,-336.62 11,-308.94 11,-284.5 11,-284.5 11,-284.5 11,-105.5 11,-85.65 15.13,-63.65 19.19,-46.81"/>
<polygon fill="black" stroke="black" points="22.47,-48.08 21.56,-37.53 15.69,-46.35 22.47,-48.08"/>
<text text-anchor="middle" x="19.62" y="-189.95" font-family="Times,serif" font-size="14.00">0/0</text>
</g>
<!-- S3 -->
<g id="node4" class="node">
<title>S3</title>
<ellipse fill="none" stroke="black" cx="66" cy="-283.5" rx="27" ry="18"/>
<text text-anchor="middle" x="66" y="-278.45" font-family="Times,serif" font-size="14.00">S3</text>
</g>
<!-- S2&#45;&gt;S3 -->
<g id="edge5" class="edge">
<title>S2&#45;&gt;S3</title>
<path fill="none" stroke="black" d="M34.52,-354.32C40.02,-342.12 47.6,-325.3 53.95,-311.23"/>
<polygon fill="black" stroke="black" points="56.96,-313.06 57.88,-302.51 50.58,-310.18 56.96,-313.06"/>
<text text-anchor="middle" x="58.62" y="-322.7" font-family="Times,serif" font-size="14.00">1/0</text>
</g>
<!-- S3&#45;&gt;S0 -->
<g id="edge7" class="edge">
<title>S3&#45;&gt;S0</title>
<path fill="none" stroke="black" d="M66.81,-265.3C67.87,-244.4 69.91,-208.07 72.75,-177 73.98,-163.52 75.7,-148.61 77.25,-136.07"/>
<polygon fill="black" stroke="black" points="80.7,-136.76 78.48,-126.4 73.75,-135.88 80.7,-136.76"/>
<text text-anchor="middle" x="81.38" y="-189.95" font-family="Times,serif" font-size="14.00">1/0</text>
</g>
<!-- S4 -->
<g id="node5" class="node">
<title>S4</title>
<ellipse fill="none" stroke="black" cx="126" cy="-195" rx="27" ry="18"/>
<text text-anchor="middle" x="126" y="-189.95" font-family="Times,serif" font-size="14.00">S4</text>
</g>
<!-- S3&#45;&gt;S4 -->
<g id="edge6" class="edge">
<title>S3&#45;&gt;S4</title>
<path fill="none" stroke="black" d="M77,-266.63C85.89,-253.83 98.54,-235.59 108.76,-220.85"/>
<polygon fill="black" stroke="black" points="111.38,-223.22 114.2,-213.01 105.63,-219.23 111.38,-223.22"/>
<text text-anchor="middle" x="110" y="-234.2" font-family="Times,serif" font-size="14.00">0/1</text>
</g>
<!-- S4&#45;&gt;S0 -->
<g id="edge8" class="edge">
<title>S4&#45;&gt;S0</title>
<path fill="none" stroke="black" d="M112.04,-179.19C107.01,-173.25 101.62,-166.14 97.75,-159 93.78,-151.67 90.55,-143.24 88.02,-135.35"/>
<polygon fill="black" stroke="black" points="91.4,-134.44 85.24,-125.82 84.68,-136.4 91.4,-134.44"/>
<text text-anchor="middle" x="106.38" y="-145.7" font-family="Times,serif" font-size="14.00">0/0</text>
</g>
<!-- S4&#45;&gt;S0 -->
<g id="edge9" class="edge">
<title>S4&#45;&gt;S0</title>
<path fill="none" stroke="black" d="M124.76,-176.95C123.43,-166.5 120.69,-153.14 115,-142.5 112.44,-137.71 109.03,-133.12 105.35,-128.94"/>
<polygon fill="black" stroke="black" points="108.16,-126.8 98.68,-122.06 103.14,-131.68 108.16,-126.8"/>
<text text-anchor="middle" x="129.81" y="-145.7" font-family="Times,serif" font-size="14.00">1/0</text>
</g>
</g>
</svg>
