<?xml version="1.0" encoding="UTF-8" standalone="no"?>
<!DOCTYPE svg PUBLIC "-//W3C//DTD SVG 1.1//EN"
 "http://www.w3.org/Graphics/SVG/1.1/DTD/svg11.dtd">
<!-- Generated by graphviz version 12.1.1 (20240910.0053)
 -->
<!-- Pages: 1 -->
<svg width="188pt" height="398pt"
 viewBox="0.00 0.00 187.56 398.00" xmlns="http://www.w3.org/2000/svg" xmlns:xlink="http://www.w3.org/1999/xlink">
<g id="graph0" class="graph" transform="scale(1 1) rotate(0) translate(4 394)">
<polygon fill="white" stroke="none" points="-4,4 -4,-394 183.56,-394 183.56,4 -4,4"/>
<!-- S0 -->
<g id="node1" class="node">
<title>S0</title>
<ellipse fill="none" stroke="black" cx="83.81" cy="-372" rx="27.81" ry="18"/>
<text text-anchor="middle" x="83.81" y="-366.95" font-family="Times,serif" font-size="14.00">S0/0</text>
</g>
<!-- S0&#45;&gt;S0 -->
<g id="edge1" class="edge">
<title>S0&#45;&gt;S0</title>
<path fill="none" stroke="black" d="M108.78,-380.17C119.95,-380.95 129.62,-378.22 129.62,-372 129.62,-368.01 125.65,-365.46 119.86,-364.35"/>
<polygon fill="black" stroke="black" points="120.45,-360.87 110.29,-363.9 120.12,-367.87 120.45,-360.87"/>
<text text-anchor="middle" x="132.99" y="-366.95" font-family="Times,serif" font-size="14.00">0</text>
</g>
<!-- S1 -->
<g id="node2" class="node">
<title>S1</title>
<ellipse fill="none" stroke="black" cx="27.81" cy="-283.5" rx="27.81" ry="18"/>
<text text-anchor="middle" x="27.81" y="-278.45" font-family="Times,serif" font-size="14.00">S1/0</text>
</g>
<!-- S0&#45;&gt;S1 -->
<g id="edge2" class="edge">
<title>S0&#45;&gt;S1</title>
<path fill="none" stroke="black" d="M60.81,-361.23C50.21,-355.49 38.57,-347.14 32.06,-336 28.09,-329.21 26.34,-321.03 25.75,-313.21"/>
<polygon fill="black" stroke="black" points="29.26,-313.32 25.64,-303.36 22.26,-313.4 29.26,-313.32"/>
<text text-anchor="middle" x="35.43" y="-322.7" font-family="Times,serif" font-size="14.00">1</text>
</g>
<!-- S1&#45;&gt;S0 -->
<g id="edge3" class="edge">
<title>S1&#45;&gt;S0</title>
<path fill="none" stroke="black" d="M38.2,-300.56C46.4,-313.21 57.97,-331.09 67.41,-345.67"/>
<polygon fill="black" stroke="black" points="64.34,-347.37 72.71,-353.86 70.22,-343.57 64.34,-347.37"/>
<text text-anchor="middle" x="64.2" y="-322.7" font-family="Times,serif" font-size="14.00">0</text>
</g>
<!-- S2 -->
<g id="node3" class="node">
<title>S2</title>
<ellipse fill="none" stroke="black" cx="27.81" cy="-195" rx="27.81" ry="18"/>
<text text-anchor="middle" x="27.81" y="-189.95" font-family="Times,serif" font-size="14.00">S2/0</text>
</g>
<!-- S1&#45;&gt;S2 -->
<g id="edge4" class="edge">
<title>S1&#45;&gt;S2</title>
<path fill="none" stroke="black" d="M27.81,-265.41C27.81,-253.76 27.81,-238.05 27.81,-224.52"/>
<polygon fill="black" stroke="black" points="31.31,-224.86 27.81,-214.86 24.31,-224.86 31.31,-224.86"/>
<text text-anchor="middle" x="31.18" y="-234.2" font-family="Times,serif" font-size="14.00">1</text>
</g>
<!-- S3 -->
<g id="node4" class="node">
<title>S3</title>
<ellipse fill="none" stroke="black" cx="73.81" cy="-106.5" rx="27.81" ry="18"/>
<text text-anchor="middle" x="73.81" y="-101.45" font-family="Times,serif" font-size="14.00">S3/0</text>
</g>
<!-- S2&#45;&gt;S3 -->
<g id="edge5" class="edge">
<title>S2&#45;&gt;S3</title>
<path fill="none" stroke="black" d="M36.46,-177.73C43.04,-165.36 52.22,-148.1 59.83,-133.78"/>
<polygon fill="black" stroke="black" points="62.72,-135.8 64.33,-125.33 56.54,-132.51 62.72,-135.8"/>
<text text-anchor="middle" x="58.3" y="-145.7" font-family="Times,serif" font-size="14.00">0</text>
</g>
<!-- S3&#45;&gt;S0 -->
<g id="edge6" class="edge">
<title>S3&#45;&gt;S0</title>
<path fill="none" stroke="black" d="M74.47,-124.85C76.15,-169.31 80.64,-287.64 82.72,-342.43"/>
<polygon fill="black" stroke="black" points="79.22,-342.34 83.09,-352.2 86.21,-342.07 79.22,-342.34"/>
<text text-anchor="middle" x="82.41" y="-234.2" font-family="Times,serif" font-size="14.00">0</text>
</g>
<!-- S4 -->
<g id="node5" class="node">
<title>S4</title>
<ellipse fill="none" stroke="black" cx="129.81" cy="-18" rx="27.81" ry="18"/>
<text text-anchor="middle" x="129.81" y="-12.95" font-family="Times,serif" font-size="14.00">S4/1</text>
</g>
<!-- S3&#45;&gt;S4 -->
<g id="edge7" class="edge">
<title>S3&#45;&gt;S4</title>
<path fill="none" stroke="black" d="M84.08,-89.63C92.24,-77.03 103.81,-59.16 113.27,-44.55"/>
<polygon fill="black" stroke="black" points="116.09,-46.62 118.59,-36.33 110.22,-42.82 116.09,-46.62"/>
<text text-anchor="middle" x="110.2" y="-57.2" font-family="Times,serif" font-size="14.00">1</text>
</g>
<!-- S4&#45;&gt;S0 -->
<g id="edge8" class="edge">
<title>S4&#45;&gt;S0</title>
<path fill="none" stroke="black" d="M129.81,-36.23C129.81,-53.69 129.81,-81.47 129.81,-105.5 129.81,-284.5 129.81,-284.5 129.81,-284.5 129.81,-307.68 116.78,-330.69 104.59,-347.14"/>
<polygon fill="black" stroke="black" points="101.97,-344.81 98.54,-354.83 107.47,-349.13 101.97,-344.81"/>
<text text-anchor="middle" x="133.18" y="-189.95" font-family="Times,serif" font-size="14.00">0</text>
</g>
<!-- S4&#45;&gt;S0 -->
<g id="edge9" class="edge">
<title>S4&#45;&gt;S0</title>
<path fill="none" stroke="black" d="M142.71,-34.13C155.38,-50.57 172.81,-78.16 172.81,-105.5 172.81,-284.5 172.81,-284.5 172.81,-284.5 172.81,-317.07 141.77,-341.34 116.36,-355.75"/>
<polygon fill="black" stroke="black" points="114.77,-352.63 107.6,-360.43 118.07,-358.8 114.77,-352.63"/>
<text text-anchor="middle" x="176.18" y="-189.95" font-family="Times,serif" font-size="14.00">1</text>
</g>
</g>
</svg>
