<?xml version="1.0" encoding="UTF-8" standalone="no"?>
<!DOCTYPE svg PUBLIC "-//W3C//DTD SVG 1.1//EN"
 "http://www.w3.org/Graphics/SVG/1.1/DTD/svg11.dtd">
<!-- Generated by graphviz version 12.1.1 (20240910.0053)
 -->
<!-- Pages: 1 -->
<svg width="147pt" height="398pt"
 viewBox="0.00 0.00 146.62 398.00" xmlns="http://www.w3.org/2000/svg" xmlns:xlink="http://www.w3.org/1999/xlink">
<g id="graph0" class="graph" transform="scale(1 1) rotate(0) translate(4 394)">
<polygon fill="white" stroke="none" points="-4,4 -4,-394 142.62,-394 142.62,4 -4,4"/>
<!-- S0 -->
<g id="node1" class="node">
<title>S0</title>
<ellipse fill="none" stroke="black" cx="73.81" cy="-18" rx="27.81" ry="18"/>
<text text-anchor="middle" x="73.81" y="-12.95" font-family="Times,serif" font-size="14.00">S0/0</text>
</g>
<!-- S0&#45;&gt;S0 -->
<g id="edge1" class="edge">
<title>S0&#45;&gt;S0</title>
<path fill="none" stroke="black" d="M98.78,-26.17C109.95,-26.95 119.62,-24.22 119.62,-18 119.62,-14.01 115.65,-11.46 109.86,-10.35"/>
<polygon fill="black" stroke="black" points="110.45,-6.87 100.29,-9.9 110.12,-13.87 110.45,-6.87"/>
<text text-anchor="middle" x="122.99" y="-12.95" font-family="Times,serif" font-size="14.00">0</text>
</g>
<!-- S1 -->
<g id="node2" class="node">
<title>S1</title>
<ellipse fill="none" stroke="black" cx="27.81" cy="-372" rx="27.81" ry="18"/>
<text text-anchor="middle" x="27.81" y="-366.95" font-family="Times,serif" font-size="14.00">S1/0</text>
</g>
<!-- S1&#45;&gt;S0 -->
<g id="edge2" class="edge">
<title>S1&#45;&gt;S0</title>
<path fill="none" stroke="black" d="M22.75,-353.94C18.06,-336.62 11.81,-308.94 11.81,-284.5 11.81,-284.5 11.81,-284.5 11.81,-105.5 11.81,-79.38 30.71,-55.73 47.64,-39.79"/>
<polygon fill="black" stroke="black" points="49.92,-42.45 55.08,-33.19 45.28,-37.21 49.92,-42.45"/>
<text text-anchor="middle" x="15.18" y="-189.95" font-family="Times,serif" font-size="14.00">0</text>
</g>
<!-- S2 -->
<g id="node3" class="node">
<title>S2</title>
<ellipse fill="none" stroke="black" cx="67.81" cy="-283.5" rx="27.81" ry="18"/>
<text text-anchor="middle" x="67.81" y="-278.45" font-family="Times,serif" font-size="14.00">S2/0</text>
</g>
<!-- S1&#45;&gt;S2 -->
<g id="edge3" class="edge">
<title>S1&#45;&gt;S2</title>
<path fill="none" stroke="black" d="M35.52,-354.32C41.16,-342.12 48.94,-325.3 55.45,-311.23"/>
<polygon fill="black" stroke="black" points="58.46,-313.05 59.48,-302.5 52.11,-310.11 58.46,-313.05"/>
<text text-anchor="middle" x="54.77" y="-322.7" font-family="Times,serif" font-size="14.00">1</text>
</g>
<!-- S2&#45;&gt;S2 -->
<g id="edge5" class="edge">
<title>S2&#45;&gt;S2</title>
<path fill="none" stroke="black" d="M92.78,-291.67C103.95,-292.45 113.62,-289.72 113.62,-283.5 113.62,-279.51 109.65,-276.96 103.86,-275.85"/>
<polygon fill="black" stroke="black" points="104.45,-272.37 94.29,-275.4 104.12,-279.37 104.45,-272.37"/>
<text text-anchor="middle" x="116.99" y="-278.45" font-family="Times,serif" font-size="14.00">1</text>
</g>
<!-- S3 -->
<g id="node4" class="node">
<title>S3</title>
<ellipse fill="none" stroke="black" cx="67.81" cy="-195" rx="27.81" ry="18"/>
<text text-anchor="middle" x="67.81" y="-189.95" font-family="Times,serif" font-size="14.00">S3/0</text>
</g>
<!-- S2&#45;&gt;S3 -->
<g id="edge4" class="edge">
<title>S2&#45;&gt;S3</title>
<path fill="none" stroke="black" d="M67.81,-265.41C67.81,-253.76 67.81,-238.05 67.81,-224.52"/>
<polygon fill="black" stroke="black" points="71.31,-224.86 67.81,-214.86 64.31,-224.86 71.31,-224.86"/>
<text text-anchor="middle" x="71.18" y="-234.2" font-family="Times,serif" font-size="14.00">0</text>
</g>
<!-- S3&#45;&gt;S0 -->
<g id="edge6" class="edge">
<title>S3&#45;&gt;S0</title>
<path fill="none" stroke="black" d="M67.1,-176.81C66.38,-155.92 65.55,-119.6 67.06,-88.5 67.71,-75.01 69.07,-60.1 70.41,-47.56"/>
<polygon fill="black" stroke="black" points="73.85,-48.22 71.48,-37.89 66.9,-47.45 73.85,-48.22"/>
<text text-anchor="middle" x="70.43" y="-101.45" font-family="Times,serif" font-size="14.00">0</text>
</g>
<!-- S4 -->
<g id="node5" class="node">
<title>S4</title>
<ellipse fill="none" stroke="black" cx="110.81" cy="-106.5" rx="27.81" ry="18"/>
<text text-anchor="middle" x="110.81" y="-101.45" font-family="Times,serif" font-size="14.00">S4/1</text>
</g>
<!-- S3&#45;&gt;S4 -->
<g id="edge7" class="edge">
<title>S3&#45;&gt;S4</title>
<path fill="none" stroke="black" d="M76.1,-177.32C82.17,-165.12 90.53,-148.3 97.52,-134.23"/>
<polygon fill="black" stroke="black" points="100.55,-135.99 101.87,-125.48 94.28,-132.88 100.55,-135.99"/>
<text text-anchor="middle" x="96.53" y="-145.7" font-family="Times,serif" font-size="14.00">1</text>
</g>
<!-- S4&#45;&gt;S0 -->
<g id="edge8" class="edge">
<title>S4&#45;&gt;S0</title>
<path fill="none" stroke="black" d="M102.55,-88.88C99.76,-83.1 96.69,-76.55 94.06,-70.5 90.67,-62.72 87.21,-54.17 84.13,-46.32"/>
<polygon fill="black" stroke="black" points="87.49,-45.3 80.62,-37.24 80.96,-47.83 87.49,-45.3"/>
<text text-anchor="middle" x="97.43" y="-57.2" font-family="Times,serif" font-size="14.00">0</text>
</g>
<!-- S4&#45;&gt;S0 -->
<g id="edge9" class="edge">
<title>S4&#45;&gt;S0</title>
<path fill="none" stroke="black" d="M108.52,-88.26C106.74,-77.99 103.72,-64.87 98.81,-54 97.19,-50.42 95.18,-46.84 93.01,-43.4"/>
<polygon fill="black" stroke="black" points="96.09,-41.7 87.52,-35.47 90.34,-45.68 96.09,-41.7"/>
<text text-anchor="middle" x="107.95" y="-57.2" font-family="Times,serif" font-size="14.00">1</text>
</g>
</g>
</svg>
