<?xml version="1.0" encoding="UTF-8" standalone="no"?>
<!DOCTYPE svg PUBLIC "-//W3C//DTD SVG 1.1//EN"
 "http://www.w3.org/Graphics/SVG/1.1/DTD/svg11.dtd">
<!-- Generated by graphviz version 12.1.1 (20240910.0053)
 -->
<!-- Pages: 1 -->
<svg width="169pt" height="310pt"
 viewBox="0.00 0.00 169.37 309.50" xmlns="http://www.w3.org/2000/svg" xmlns:xlink="http://www.w3.org/1999/xlink">
<g id="graph0" class="graph" transform="scale(1 1) rotate(0) translate(4 305.5)">
<polygon fill="white" stroke="none" points="-4,4 -4,-305.5 165.37,-305.5 165.37,4 -4,4"/>
<!-- S0 -->
<g id="node1" class="node">
<title>S0</title>
<ellipse fill="none" stroke="black" cx="108.81" cy="-283.5" rx="27.81" ry="18"/>
<text text-anchor="middle" x="108.81" y="-278.45" font-family="Times,serif" font-size="14.00">S0/0</text>
</g>
<!-- S0&#45;&gt;S0 -->
<g id="edge2" class="edge">
<title>S0&#45;&gt;S0</title>
<path fill="none" stroke="black" d="M133.78,-291.67C144.95,-292.45 154.62,-289.72 154.62,-283.5 154.62,-279.51 150.65,-276.96 144.86,-275.85"/>
<polygon fill="black" stroke="black" points="145.45,-272.37 135.29,-275.4 145.12,-279.37 145.45,-272.37"/>
<text text-anchor="middle" x="157.99" y="-278.45" font-family="Times,serif" font-size="14.00">1</text>
</g>
<!-- S1 -->
<g id="node2" class="node">
<title>S1</title>
<ellipse fill="none" stroke="black" cx="27.81" cy="-195" rx="27.81" ry="18"/>
<text text-anchor="middle" x="27.81" y="-189.95" font-family="Times,serif" font-size="14.00">S1/0</text>
</g>
<!-- S0&#45;&gt;S1 -->
<g id="edge1" class="edge">
<title>S0&#45;&gt;S1</title>
<path fill="none" stroke="black" d="M92.96,-268.62C86.05,-262.35 77.96,-254.75 71.06,-247.5 62.81,-238.84 54.24,-228.87 46.93,-220.01"/>
<polygon fill="black" stroke="black" points="49.81,-218.01 40.78,-212.47 44.38,-222.44 49.81,-218.01"/>
<text text-anchor="middle" x="74.43" y="-234.2" font-family="Times,serif" font-size="14.00">0</text>
</g>
<!-- S2 -->
<g id="node3" class="node">
<title>S2</title>
<ellipse fill="none" stroke="black" cx="70.81" cy="-106.5" rx="27.81" ry="18"/>
<text text-anchor="middle" x="70.81" y="-101.45" font-family="Times,serif" font-size="14.00">S2/0</text>
</g>
<!-- S1&#45;&gt;S2 -->
<g id="edge3" class="edge">
<title>S1&#45;&gt;S2</title>
<path fill="none" stroke="black" d="M36.1,-177.32C42.17,-165.12 50.53,-148.3 57.52,-134.23"/>
<polygon fill="black" stroke="black" points="60.55,-135.99 61.87,-125.48 54.28,-132.88 60.55,-135.99"/>
<text text-anchor="middle" x="56.53" y="-145.7" font-family="Times,serif" font-size="14.00">1</text>
</g>
<!-- S2&#45;&gt;S0 -->
<g id="edge5" class="edge">
<title>S2&#45;&gt;S0</title>
<path fill="none" stroke="black" d="M74.54,-124.67C81.1,-154.91 94.79,-217.92 102.73,-254.52"/>
<polygon fill="black" stroke="black" points="99.23,-254.89 104.77,-263.92 106.07,-253.41 99.23,-254.89"/>
<text text-anchor="middle" x="96.96" y="-189.95" font-family="Times,serif" font-size="14.00">1</text>
</g>
<!-- S3 -->
<g id="node4" class="node">
<title>S3</title>
<ellipse fill="none" stroke="black" cx="126.81" cy="-18" rx="27.81" ry="18"/>
<text text-anchor="middle" x="126.81" y="-12.95" font-family="Times,serif" font-size="14.00">S3/1</text>
</g>
<!-- S2&#45;&gt;S3 -->
<g id="edge4" class="edge">
<title>S2&#45;&gt;S3</title>
<path fill="none" stroke="black" d="M81.08,-89.63C89.24,-77.03 100.81,-59.16 110.27,-44.55"/>
<polygon fill="black" stroke="black" points="113.09,-46.62 115.59,-36.33 107.22,-42.82 113.09,-46.62"/>
<text text-anchor="middle" x="107.2" y="-57.2" font-family="Times,serif" font-size="14.00">0</text>
</g>
<!-- S3&#45;&gt;S0 -->
<g id="edge6" class="edge">
<title>S3&#45;&gt;S0</title>
<path fill="none" stroke="black" d="M126.06,-36.22C124.35,-74.34 119.72,-168.71 112.81,-247.5 112.63,-249.56 112.43,-251.68 112.21,-253.82"/>
<polygon fill="black" stroke="black" points="108.75,-253.25 111.15,-263.57 115.71,-254.01 108.75,-253.25"/>
<text text-anchor="middle" x="123.72" y="-145.7" font-family="Times,serif" font-size="14.00">0</text>
</g>
<!-- S3&#45;&gt;S0 -->
<g id="edge7" class="edge">
<title>S3&#45;&gt;S0</title>
<path fill="none" stroke="black" d="M133.82,-35.8C135.85,-41.47 137.79,-47.92 138.81,-54 140.01,-61.23 138.94,-63.17 138.81,-70.5 137.35,-149.3 150.5,-172.02 127.81,-247.5 126.92,-250.44 125.78,-253.41 124.48,-256.32"/>
<polygon fill="black" stroke="black" points="121.46,-254.53 120.04,-265.03 127.7,-257.7 121.46,-254.53"/>
<text text-anchor="middle" x="144.61" y="-145.7" font-family="Times,serif" font-size="14.00">1</text>
</g>
</g>
</svg>
