<?xml version="1.0" encoding="UTF-8" standalone="no"?>
<!DOCTYPE svg PUBLIC "-//W3C//DTD SVG 1.1//EN"
 "http://www.w3.org/Graphics/SVG/1.1/DTD/svg11.dtd">
<!-- Generated by graphviz version 12.1.1 (20240910.0053)
 -->
<!-- Pages: 1 -->
<svg width="152pt" height="398pt"
 viewBox="0.00 0.00 152.37 398.00" xmlns="http://www.w3.org/2000/svg" xmlns:xlink="http://www.w3.org/1999/xlink">
<g id="graph0" class="graph" transform="scale(1 1) rotate(0) translate(4 394)">
<polygon fill="white" stroke="none" points="-4,4 -4,-394 148.37,-394 148.37,4 -4,4"/>
<!-- S0 -->
<g id="node1" class="node">
<title>S0</title>
<ellipse fill="none" stroke="black" cx="91.81" cy="-195" rx="27.81" ry="18"/>
<text text-anchor="middle" x="91.81" y="-189.95" font-family="Times,serif" font-size="14.00">S0/0</text>
</g>
<!-- S0&#45;&gt;S0 -->
<g id="edge2" class="edge">
<title>S0&#45;&gt;S0</title>
<path fill="none" stroke="black" d="M116.78,-203.17C127.95,-203.95 137.62,-201.22 137.62,-195 137.62,-191.01 133.65,-188.46 127.86,-187.35"/>
<polygon fill="black" stroke="black" points="128.45,-183.87 118.29,-186.9 128.12,-190.87 128.45,-183.87"/>
<text text-anchor="middle" x="140.99" y="-189.95" font-family="Times,serif" font-size="14.00">1</text>
</g>
<!-- S1 -->
<g id="node2" class="node">
<title>S1</title>
<ellipse fill="none" stroke="black" cx="27.81" cy="-106.5" rx="27.81" ry="18"/>
<text text-anchor="middle" x="27.81" y="-101.45" font-family="Times,serif" font-size="14.00">S1/0</text>
</g>
<!-- S0&#45;&gt;S1 -->
<g id="edge1" class="edge">
<title>S0&#45;&gt;S1</title>
<path fill="none" stroke="black" d="M80.37,-178.54C70.87,-165.7 57.18,-147.2 46.16,-132.3"/>
<polygon fill="black" stroke="black" points="49.03,-130.3 40.27,-124.34 43.4,-134.46 49.03,-130.3"/>
<text text-anchor="middle" x="68.92" y="-145.7" font-family="Times,serif" font-size="14.00">0</text>
</g>
<!-- S1&#45;&gt;S1 -->
<g id="edge3" class="edge">
<title>S1&#45;&gt;S1</title>
<path fill="none" stroke="black" d="M52.78,-114.67C63.95,-115.45 73.62,-112.72 73.62,-106.5 73.62,-102.51 69.65,-99.96 63.86,-98.85"/>
<polygon fill="black" stroke="black" points="64.45,-95.37 54.29,-98.4 64.12,-102.37 64.45,-95.37"/>
<text text-anchor="middle" x="76.99" y="-101.45" font-family="Times,serif" font-size="14.00">0</text>
</g>
<!-- S2 -->
<g id="node3" class="node">
<title>S2</title>
<ellipse fill="none" stroke="black" cx="72.81" cy="-18" rx="27.81" ry="18"/>
<text text-anchor="middle" x="72.81" y="-12.95" font-family="Times,serif" font-size="14.00">S2/0</text>
</g>
<!-- S1&#45;&gt;S2 -->
<g id="edge4" class="edge">
<title>S1&#45;&gt;S2</title>
<path fill="none" stroke="black" d="M36.27,-89.23C42.64,-76.98 51.51,-59.93 58.92,-45.7"/>
<polygon fill="black" stroke="black" points="62.02,-47.32 63.53,-36.83 55.81,-44.09 62.02,-47.32"/>
<text text-anchor="middle" x="57.71" y="-57.2" font-family="Times,serif" font-size="14.00">1</text>
</g>
<!-- S2&#45;&gt;S0 -->
<g id="edge5" class="edge">
<title>S2&#45;&gt;S0</title>
<path fill="none" stroke="black" d="M78.07,-35.94C82.12,-49.89 87.44,-70.27 89.81,-88.5 93.17,-114.32 93.41,-143.98 92.97,-165.27"/>
<polygon fill="black" stroke="black" points="89.47,-165.13 92.69,-175.22 96.47,-165.33 89.47,-165.13"/>
<text text-anchor="middle" x="96.02" y="-101.45" font-family="Times,serif" font-size="14.00">1</text>
</g>
<!-- S3 -->
<g id="node4" class="node">
<title>S3</title>
<ellipse fill="none" stroke="black" cx="43.81" cy="-372" rx="27.81" ry="18"/>
<text text-anchor="middle" x="43.81" y="-366.95" font-family="Times,serif" font-size="14.00">S3/0</text>
</g>
<!-- S3&#45;&gt;S1 -->
<g id="edge6" class="edge">
<title>S3&#45;&gt;S1</title>
<path fill="none" stroke="black" d="M42.76,-353.71C40.06,-309.32 32.88,-190.99 29.55,-136.15"/>
<polygon fill="black" stroke="black" points="33.05,-136.13 28.95,-126.36 26.07,-136.56 33.05,-136.13"/>
<text text-anchor="middle" x="39.55" y="-234.2" font-family="Times,serif" font-size="14.00">0</text>
</g>
<!-- S4 -->
<g id="node5" class="node">
<title>S4</title>
<ellipse fill="none" stroke="black" cx="83.81" cy="-283.5" rx="27.81" ry="18"/>
<text text-anchor="middle" x="83.81" y="-278.45" font-family="Times,serif" font-size="14.00">S4/1</text>
</g>
<!-- S3&#45;&gt;S4 -->
<g id="edge7" class="edge">
<title>S3&#45;&gt;S4</title>
<path fill="none" stroke="black" d="M51.52,-354.32C57.16,-342.12 64.94,-325.3 71.45,-311.23"/>
<polygon fill="black" stroke="black" points="74.46,-313.05 75.48,-302.5 68.11,-310.11 74.46,-313.05"/>
<text text-anchor="middle" x="70.77" y="-322.7" font-family="Times,serif" font-size="14.00">1</text>
</g>
<!-- S4&#45;&gt;S0 -->
<g id="edge8" class="edge">
<title>S4&#45;&gt;S0</title>
<path fill="none" stroke="black" d="M80.55,-265.24C79.15,-255.2 78.21,-242.32 80.06,-231 80.45,-228.63 80.97,-226.2 81.59,-223.78"/>
<polygon fill="black" stroke="black" points="84.92,-224.84 84.5,-214.26 78.23,-222.8 84.92,-224.84"/>
<text text-anchor="middle" x="83.43" y="-234.2" font-family="Times,serif" font-size="14.00">0</text>
</g>
<!-- S4&#45;&gt;S0 -->
<g id="edge9" class="edge">
<title>S4&#45;&gt;S0</title>
<path fill="none" stroke="black" d="M85.39,-265.41C86.47,-253.76 87.92,-238.05 89.17,-224.52"/>
<polygon fill="black" stroke="black" points="92.63,-225.14 90.06,-214.86 85.66,-224.49 92.63,-225.14"/>
<text text-anchor="middle" x="91.9" y="-234.2" font-family="Times,serif" font-size="14.00">1</text>
</g>
</g>
</svg>
