<?xml version="1.0" encoding="UTF-8" standalone="no"?>
<!DOCTYPE svg PUBLIC "-//W3C//DTD SVG 1.1//EN"
 "http://www.w3.org/Graphics/SVG/1.1/DTD/svg11.dtd">
<!-- Generated by graphviz version 12.1.1 (20240910.0053)
 -->
<!-- Pages: 1 -->
<svg width="133pt" height="310pt"
 viewBox="0.00 0.00 133.37 309.50" xmlns="http://www.w3.org/2000/svg" xmlns:xlink="http://www.w3.org/1999/xlink">
<g id="graph0" class="graph" transform="scale(1 1) rotate(0) translate(4 305.5)">
<polygon fill="white" stroke="none" points="-4,4 -4,-305.5 129.37,-305.5 129.37,4 -4,4"/>
<!-- S0 -->
<g id="node1" class="node">
<title>S0</title>
<ellipse fill="none" stroke="black" cx="27.81" cy="-195" rx="27.81" ry="18"/>
<text text-anchor="middle" x="27.81" y="-189.95" font-family="Times,serif" font-size="14.00">S0/0</text>
</g>
<!-- S0&#45;&gt;S0 -->
<g id="edge2" class="edge">
<title>S0&#45;&gt;S0</title>
<path fill="none" stroke="black" d="M52.78,-203.17C63.95,-203.95 73.62,-201.22 73.62,-195 73.62,-191.01 69.65,-188.46 63.86,-187.35"/>
<polygon fill="black" stroke="black" points="64.45,-183.87 54.29,-186.9 64.12,-190.87 64.45,-183.87"/>
<text text-anchor="middle" x="76.99" y="-189.95" font-family="Times,serif" font-size="14.00">1</text>
</g>
<!-- S1 -->
<g id="node2" class="node">
<title>S1</title>
<ellipse fill="none" stroke="black" cx="72.81" cy="-106.5" rx="27.81" ry="18"/>
<text text-anchor="middle" x="72.81" y="-101.45" font-family="Times,serif" font-size="14.00">S1/0</text>
</g>
<!-- S0&#45;&gt;S1 -->
<g id="edge1" class="edge">
<title>S0&#45;&gt;S1</title>
<path fill="none" stroke="black" d="M36.27,-177.73C42.64,-165.48 51.51,-148.43 58.92,-134.2"/>
<polygon fill="black" stroke="black" points="62.02,-135.82 63.53,-125.33 55.81,-132.59 62.02,-135.82"/>
<text text-anchor="middle" x="57.71" y="-145.7" font-family="Times,serif" font-size="14.00">0</text>
</g>
<!-- S1&#45;&gt;S1 -->
<g id="edge3" class="edge">
<title>S1&#45;&gt;S1</title>
<path fill="none" stroke="black" d="M97.78,-114.67C108.95,-115.45 118.62,-112.72 118.62,-106.5 118.62,-102.51 114.65,-99.96 108.86,-98.85"/>
<polygon fill="black" stroke="black" points="109.45,-95.37 99.29,-98.4 109.12,-102.37 109.45,-95.37"/>
<text text-anchor="middle" x="121.99" y="-101.45" font-family="Times,serif" font-size="14.00">0</text>
</g>
<!-- S2 -->
<g id="node3" class="node">
<title>S2</title>
<ellipse fill="none" stroke="black" cx="72.81" cy="-18" rx="27.81" ry="18"/>
<text text-anchor="middle" x="72.81" y="-12.95" font-family="Times,serif" font-size="14.00">S2/0</text>
</g>
<!-- S1&#45;&gt;S2 -->
<g id="edge4" class="edge">
<title>S1&#45;&gt;S2</title>
<path fill="none" stroke="black" d="M65.94,-88.69C63.95,-83.01 62.05,-76.57 61.06,-70.5 59.88,-63.26 59.88,-61.24 61.06,-54 61.45,-51.63 61.97,-49.2 62.59,-46.78"/>
<polygon fill="black" stroke="black" points="65.92,-47.84 65.5,-37.26 59.23,-45.8 65.92,-47.84"/>
<text text-anchor="middle" x="64.43" y="-57.2" font-family="Times,serif" font-size="14.00">1</text>
</g>
<!-- S2&#45;&gt;S1 -->
<g id="edge5" class="edge">
<title>S2&#45;&gt;S1</title>
<path fill="none" stroke="black" d="M72.81,-36.35C72.81,-48.06 72.81,-63.79 72.81,-77.28"/>
<polygon fill="black" stroke="black" points="69.31,-76.9 72.81,-86.9 76.31,-76.9 69.31,-76.9"/>
<text text-anchor="middle" x="76.18" y="-57.2" font-family="Times,serif" font-size="14.00">0</text>
</g>
<!-- S3 -->
<g id="node4" class="node">
<title>S3</title>
<ellipse fill="none" stroke="black" cx="72.81" cy="-283.5" rx="27.81" ry="18"/>
<text text-anchor="middle" x="72.81" y="-278.45" font-family="Times,serif" font-size="14.00">S3/1</text>
</g>
<!-- S3&#45;&gt;S0 -->
<g id="edge7" class="edge">
<title>S3&#45;&gt;S0</title>
<path fill="none" stroke="black" d="M64.34,-266.23C57.97,-253.98 49.1,-236.93 41.7,-222.7"/>
<polygon fill="black" stroke="black" points="44.81,-221.09 37.09,-213.83 38.6,-224.32 44.81,-221.09"/>
<text text-anchor="middle" x="57.71" y="-234.2" font-family="Times,serif" font-size="14.00">1</text>
</g>
<!-- S3&#45;&gt;S1 -->
<g id="edge6" class="edge">
<title>S3&#45;&gt;S1</title>
<path fill="none" stroke="black" d="M78.16,-265.57C82.27,-251.63 87.61,-231.25 89.81,-213 91.72,-197.11 91.72,-192.89 89.81,-177 88.12,-163.03 84.6,-147.81 81.2,-135.18"/>
<polygon fill="black" stroke="black" points="84.66,-134.56 78.57,-125.88 77.92,-136.46 84.66,-134.56"/>
<text text-anchor="middle" x="94.62" y="-189.95" font-family="Times,serif" font-size="14.00">0</text>
</g>
</g>
</svg>
