<?xml version="1.0" encoding="UTF-8" standalone="no"?>
<!DOCTYPE svg PUBLIC "-//W3C//DTD SVG 1.1//EN"
 "http://www.w3.org/Graphics/SVG/1.1/DTD/svg11.dtd">
<!-- Generated by graphviz version 12.1.1 (20240910.0053)
 -->
<!-- Pages: 1 -->
<svg width="184pt" height="310pt"
 viewBox="0.00 0.00 183.68 309.50" xmlns="http://www.w3.org/2000/svg" xmlns:xlink="http://www.w3.org/1999/xlink">
<g id="graph0" class="graph" transform="scale(1 1) rotate(0) translate(4 305.5)">
<polygon fill="white" stroke="none" points="-4,4 -4,-305.5 179.68,-305.5 179.68,4 -4,4"/>
<!-- S0 -->
<g id="node1" class="node">
<title>S0</title>
<ellipse fill="none" stroke="black" cx="117.87" cy="-18" rx="27.81" ry="18"/>
<text text-anchor="middle" x="117.87" y="-12.95" font-family="Times,serif" font-size="14.00">S0/0</text>
</g>
<!-- S0&#45;&gt;S0 -->
<g id="edge1" class="edge">
<title>S0&#45;&gt;S0</title>
<path fill="none" stroke="black" d="M142.85,-26.17C154.02,-26.95 163.68,-24.22 163.68,-18 163.68,-14.01 159.72,-11.46 153.93,-10.35"/>
<polygon fill="black" stroke="black" points="154.51,-6.87 144.36,-9.9 154.19,-13.87 154.51,-6.87"/>
<text text-anchor="middle" x="167.06" y="-12.95" font-family="Times,serif" font-size="14.00">0</text>
</g>
<!-- S1 -->
<g id="node2" class="node">
<title>S1</title>
<ellipse fill="none" stroke="black" cx="49.87" cy="-106.5" rx="27.81" ry="18"/>
<text text-anchor="middle" x="49.87" y="-101.45" font-family="Times,serif" font-size="14.00">S1/0</text>
</g>
<!-- S1&#45;&gt;S1 -->
<g id="edge3" class="edge">
<title>S1&#45;&gt;S1</title>
<path fill="none" stroke="black" d="M74.85,-114.67C86.02,-115.45 95.68,-112.72 95.68,-106.5 95.68,-102.51 91.72,-99.96 85.93,-98.85"/>
<polygon fill="black" stroke="black" points="86.51,-95.37 76.36,-98.4 86.19,-102.37 86.51,-95.37"/>
<text text-anchor="middle" x="99.06" y="-101.45" font-family="Times,serif" font-size="14.00">1</text>
</g>
<!-- S2 -->
<g id="node3" class="node">
<title>S2</title>
<ellipse fill="none" stroke="black" cx="44.87" cy="-283.5" rx="27.81" ry="18"/>
<text text-anchor="middle" x="44.87" y="-278.45" font-family="Times,serif" font-size="14.00">S2/0</text>
</g>
<!-- S1&#45;&gt;S2 -->
<g id="edge2" class="edge">
<title>S1&#45;&gt;S2</title>
<path fill="none" stroke="black" d="M49.38,-124.85C48.52,-154.94 46.74,-217.08 45.7,-253.72"/>
<polygon fill="black" stroke="black" points="42.2,-253.47 45.42,-263.57 49.2,-253.67 42.2,-253.47"/>
<text text-anchor="middle" x="51.25" y="-189.95" font-family="Times,serif" font-size="14.00">0</text>
</g>
<!-- S2&#45;&gt;S0 -->
<g id="edge4" class="edge">
<title>S2&#45;&gt;S0</title>
<path fill="none" stroke="black" d="M35.63,-266.04C17.34,-231.11 -19.04,-147.89 12.87,-88.5 27.66,-60.99 58.64,-42.54 83.14,-31.61"/>
<polygon fill="black" stroke="black" points="84.26,-34.93 92.12,-27.83 81.54,-28.48 84.26,-34.93"/>
<text text-anchor="middle" x="4.29" y="-145.7" font-family="Times,serif" font-size="14.00">0</text>
</g>
<!-- S3 -->
<g id="node4" class="node">
<title>S3</title>
<ellipse fill="none" stroke="black" cx="97.87" cy="-195" rx="27.81" ry="18"/>
<text text-anchor="middle" x="97.87" y="-189.95" font-family="Times,serif" font-size="14.00">S3/0</text>
</g>
<!-- S2&#45;&gt;S3 -->
<g id="edge5" class="edge">
<title>S2&#45;&gt;S3</title>
<path fill="none" stroke="black" d="M54.84,-266.23C62.47,-253.79 73.13,-236.38 81.94,-222.01"/>
<polygon fill="black" stroke="black" points="84.92,-223.84 87.16,-213.49 78.95,-220.19 84.92,-223.84"/>
<text text-anchor="middle" x="79.5" y="-234.2" font-family="Times,serif" font-size="14.00">1</text>
</g>
<!-- S3&#45;&gt;S1 -->
<g id="edge7" class="edge">
<title>S3&#45;&gt;S1</title>
<path fill="none" stroke="black" d="M88.85,-177.73C81.98,-165.36 72.4,-148.1 64.46,-133.78"/>
<polygon fill="black" stroke="black" points="67.67,-132.36 59.76,-125.31 61.55,-135.76 67.67,-132.36"/>
<text text-anchor="middle" x="81.55" y="-145.7" font-family="Times,serif" font-size="14.00">1</text>
</g>
<!-- S4 -->
<g id="node5" class="node">
<title>S4</title>
<ellipse fill="none" stroke="black" cx="147.87" cy="-106.5" rx="27.81" ry="18"/>
<text text-anchor="middle" x="147.87" y="-101.45" font-family="Times,serif" font-size="14.00">S4/1</text>
</g>
<!-- S3&#45;&gt;S4 -->
<g id="edge6" class="edge">
<title>S3&#45;&gt;S4</title>
<path fill="none" stroke="black" d="M107.28,-177.73C114.47,-165.29 124.53,-147.88 132.84,-133.51"/>
<polygon fill="black" stroke="black" points="135.78,-135.42 137.75,-125.01 129.72,-131.91 135.78,-135.42"/>
<text text-anchor="middle" x="130.73" y="-145.7" font-family="Times,serif" font-size="14.00">0</text>
</g>
<!-- S4&#45;&gt;S0 -->
<g id="edge8" class="edge">
<title>S4&#45;&gt;S0</title>
<path fill="none" stroke="black" d="M141.95,-88.41C137.84,-76.56 132.28,-60.52 127.53,-46.84"/>
<polygon fill="black" stroke="black" points="130.87,-45.79 124.29,-37.48 124.26,-48.08 130.87,-45.79"/>
<text text-anchor="middle" x="138.94" y="-57.2" font-family="Times,serif" font-size="14.00">0</text>
</g>
<!-- S4&#45;&gt;S0 -->
<g id="edge9" class="edge">
<title>S4&#45;&gt;S0</title>
<path fill="none" stroke="black" d="M133.45,-90.67C128.66,-84.85 123.86,-77.81 121.12,-70.5 118.45,-63.34 117.19,-55.23 116.71,-47.61"/>
<polygon fill="black" stroke="black" points="120.21,-47.66 116.53,-37.73 113.22,-47.8 120.21,-47.66"/>
<text text-anchor="middle" x="124.5" y="-57.2" font-family="Times,serif" font-size="14.00">1</text>
</g>
</g>
</svg>
