<?xml version="1.0" encoding="UTF-8" standalone="no"?>
<!DOCTYPE svg PUBLIC "-//W3C//DTD SVG 1.1//EN"
 "http://www.w3.org/Graphics/SVG/1.1/DTD/svg11.dtd">
<!-- Generated by graphviz version 12.1.1 (20240910.0053)
 -->
<!-- Pages: 1 -->
<svg width="212pt" height="398pt"
 viewBox="0.00 0.00 212.46 398.00" xmlns="http://www.w3.org/2000/svg" xmlns:xlink="http://www.w3.org/1999/xlink">
<g id="graph0" class="graph" transform="scale(1 1) rotate(0) translate(4 394)">
<polygon fill="white" stroke="none" points="-4,4 -4,-394 208.46,-394 208.46,4 -4,4"/>
<!-- S0 -->
<g id="node1" class="node">
<title>S0</title>
<ellipse fill="none" stroke="black" cx="111.21" cy="-372" rx="27" ry="18"/>
<text text-anchor="middle" x="111.21" y="-366.95" font-family="Times,serif" font-size="14.00">S0</text>
</g>
<!-- S0&#45;&gt;S0 -->
<g id="edge2" class="edge">
<title>S0&#45;&gt;S0</title>
<path fill="none" stroke="black" d="M135.74,-380.17C146.72,-380.95 156.21,-378.22 156.21,-372 156.21,-368.11 152.5,-365.59 147.04,-364.43"/>
<polygon fill="black" stroke="black" points="147.43,-360.95 137.25,-363.91 147.05,-367.94 147.43,-360.95"/>
<text text-anchor="middle" x="164.84" y="-366.95" font-family="Times,serif" font-size="14.00">1/0</text>
</g>
<!-- S1 -->
<g id="node2" class="node">
<title>S1</title>
<ellipse fill="none" stroke="black" cx="33.21" cy="-283.5" rx="27" ry="18"/>
<text text-anchor="middle" x="33.21" y="-278.45" font-family="Times,serif" font-size="14.00">S1</text>
</g>
<!-- S0&#45;&gt;S1 -->
<g id="edge1" class="edge">
<title>S0&#45;&gt;S1</title>
<path fill="none" stroke="black" d="M89.55,-360.76C78.67,-354.76 65.93,-346.33 56.96,-336 50.95,-329.07 46.16,-320.37 42.51,-312.09"/>
<polygon fill="black" stroke="black" points="45.87,-311.06 38.92,-303.06 39.36,-313.64 45.87,-311.06"/>
<text text-anchor="middle" x="65.59" y="-322.7" font-family="Times,serif" font-size="14.00">0/0</text>
</g>
<!-- S2 -->
<g id="node3" class="node">
<title>S2</title>
<ellipse fill="none" stroke="black" cx="33.21" cy="-195" rx="27" ry="18"/>
<text text-anchor="middle" x="33.21" y="-189.95" font-family="Times,serif" font-size="14.00">S2</text>
</g>
<!-- S1&#45;&gt;S2 -->
<g id="edge3" class="edge">
<title>S1&#45;&gt;S2</title>
<path fill="none" stroke="black" d="M16.77,-268.84C10.92,-262.95 5.04,-255.57 1.96,-247.5 -0.65,-240.65 -0.65,-237.85 1.96,-231 3.69,-226.46 6.31,-222.14 9.31,-218.18"/>
<polygon fill="black" stroke="black" points="11.82,-220.63 15.77,-210.8 6.55,-216.02 11.82,-220.63"/>
<text text-anchor="middle" x="10.59" y="-234.2" font-family="Times,serif" font-size="14.00">1/0</text>
</g>
<!-- S2&#45;&gt;S1 -->
<g id="edge4" class="edge">
<title>S2&#45;&gt;S1</title>
<path fill="none" stroke="black" d="M33.21,-213.35C33.21,-225.06 33.21,-240.79 33.21,-254.28"/>
<polygon fill="black" stroke="black" points="29.71,-253.9 33.21,-263.9 36.71,-253.9 29.71,-253.9"/>
<text text-anchor="middle" x="41.84" y="-234.2" font-family="Times,serif" font-size="14.00">0/0</text>
</g>
<!-- S3 -->
<g id="node4" class="node">
<title>S3</title>
<ellipse fill="none" stroke="black" cx="79.21" cy="-106.5" rx="27" ry="18"/>
<text text-anchor="middle" x="79.21" y="-101.45" font-family="Times,serif" font-size="14.00">S3</text>
</g>
<!-- S2&#45;&gt;S3 -->
<g id="edge5" class="edge">
<title>S2&#45;&gt;S3</title>
<path fill="none" stroke="black" d="M40.15,-177.49C44.62,-167.25 50.74,-153.91 56.96,-142.5 58.66,-139.38 60.54,-136.16 62.45,-132.99"/>
<polygon fill="black" stroke="black" points="65.41,-134.87 67.75,-124.54 59.48,-131.15 65.41,-134.87"/>
<text text-anchor="middle" x="65.59" y="-145.7" font-family="Times,serif" font-size="14.00">1/0</text>
</g>
<!-- S3&#45;&gt;S0 -->
<g id="edge7" class="edge">
<title>S3&#45;&gt;S0</title>
<path fill="none" stroke="black" d="M81.32,-124.85C86.72,-169.31 101.09,-287.64 107.74,-342.43"/>
<polygon fill="black" stroke="black" points="104.25,-342.7 108.93,-352.21 111.2,-341.86 104.25,-342.7"/>
<text text-anchor="middle" x="104.57" y="-234.2" font-family="Times,serif" font-size="14.00">1/0</text>
</g>
<!-- S4 -->
<g id="node5" class="node">
<title>S4</title>
<ellipse fill="none" stroke="black" cx="134.21" cy="-18" rx="27" ry="18"/>
<text text-anchor="middle" x="134.21" y="-12.95" font-family="Times,serif" font-size="14.00">S4</text>
</g>
<!-- S3&#45;&gt;S4 -->
<g id="edge6" class="edge">
<title>S3&#45;&gt;S4</title>
<path fill="none" stroke="black" d="M85.51,-88.61C89.74,-78.22 95.83,-64.87 102.96,-54 105.62,-49.94 108.74,-45.87 111.96,-42.02"/>
<polygon fill="black" stroke="black" points="114.46,-44.47 118.47,-34.66 109.22,-39.83 114.46,-44.47"/>
<text text-anchor="middle" x="111.59" y="-57.2" font-family="Times,serif" font-size="14.00">0/1</text>
</g>
<!-- S4&#45;&gt;S0 -->
<g id="edge8" class="edge">
<title>S4&#45;&gt;S0</title>
<path fill="none" stroke="black" d="M134.21,-36.23C134.21,-53.69 134.21,-81.47 134.21,-105.5 134.21,-284.5 134.21,-284.5 134.21,-284.5 134.21,-304.83 128.2,-326.97 122.33,-343.76"/>
<polygon fill="black" stroke="black" points="119.09,-342.43 118.89,-353.02 125.65,-344.87 119.09,-342.43"/>
<text text-anchor="middle" x="142.84" y="-189.95" font-family="Times,serif" font-size="14.00">0/0</text>
</g>
<!-- S4&#45;&gt;S0 -->
<g id="edge9" class="edge">
<title>S4&#45;&gt;S0</title>
<path fill="none" stroke="black" d="M149.54,-33C165.19,-48.91 187.21,-76.44 187.21,-105.5 187.21,-284.5 187.21,-284.5 187.21,-284.5 187.21,-313.97 162.01,-338.18 140.63,-353.42"/>
<polygon fill="black" stroke="black" points="138.78,-350.45 132.43,-358.93 142.69,-356.26 138.78,-350.45"/>
<text text-anchor="middle" x="195.84" y="-189.95" font-family="Times,serif" font-size="14.00">1/0</text>
</g>
</g>
</svg>
