<?xml version="1.0" encoding="utf-8" standalone="no"?>
<!DOCTYPE svg PUBLIC "-//W3C//DTD SVG 1.1//EN"
  "http://www.w3.org/Graphics/SVG/1.1/DTD/svg11.dtd">
<svg xmlns:xlink="http://www.w3.org/1999/xlink" width="321.6pt" height="193.86pt" viewBox="0 0 321.6 193.86" xmlns="http://www.w3.org/2000/svg" version="1.1">
 <metadata>
  <rdf:RDF xmlns:dc="http://purl.org/dc/elements/1.1/" xmlns:cc="http://creativecommons.org/ns#" xmlns:rdf="http://www.w3.org/1999/02/22-rdf-syntax-ns#">
   <cc:Work>
    <dc:type rdf:resource="http://purl.org/dc/dcmitype/StillImage"/>
    <dc:date>2024-10-10T23:13:52.001475</dc:date>
    <dc:format>image/svg+xml</dc:format>
    <dc:creator>
     <cc:Agent>
      <dc:title>Matplotlib v3.9.0, https://matplotlib.org/</dc:title>
     </cc:Agent>
    </dc:creator>
   </cc:Work>
  </rdf:RDF>
 </metadata>
 <defs>
  <style type="text/css">*{stroke-linejoin: round; stroke-linecap: butt}</style>
 </defs>
 <g id="figure_1">
  <g id="patch_1">
   <path d="M 0 193.86 
L 321.6 193.86 
L 321.6 0 
L 0 0 
L 0 193.86 
z
" style="fill: none"/>
  </g>
  <g id="axes_1">
   <g id="patch_2">
    <path d="M 151.14 155.25 
C 152.285677 155.25 153.384585 154.794818 154.194701 153.984701 
C 155.004818 153.174585 155.46 152.075677 155.46 150.93 
C 155.46 149.784323 155.004818 148.685415 154.194701 147.875299 
C 153.384585 147.065182 152.285677 146.61 151.14 146.61 
C 149.994323 146.61 148.895415 147.065182 148.085299 147.875299 
C 147.275182 148.685415 146.82 149.784323 146.82 150.93 
C 146.82 152.075677 147.275182 153.174585 148.085299 153.984701 
C 148.895415 154.794818 149.994323 155.25 151.14 155.25 
L 151.14 155.25 
z
" clip-path="url(#p0cacb4f044)" style="fill: none; stroke: #000000; stroke-width: 2; stroke-linejoin: miter"/>
   </g>
   <g id="patch_3">
    <path d="M 79.14 135 
C 80.285677 135 81.384585 134.544818 82.194701 133.734701 
C 83.004818 132.924585 83.46 131.825677 83.46 130.68 
C 83.46 129.534323 83.004818 128.435415 82.194701 127.625299 
C 81.384585 126.815182 80.285677 126.36 79.14 126.36 
C 77.994323 126.36 76.895415 126.815182 76.085299 127.625299 
C 75.275182 128.435415 74.82 129.534323 74.82 130.68 
C 74.82 131.825677 75.275182 132.924585 76.085299 133.734701 
C 76.895415 134.544818 77.994323 135 79.14 135 
L 79.14 135 
z
" clip-path="url(#p0cacb4f044)" style="fill: none; stroke: #000000; stroke-width: 2; stroke-linejoin: miter"/>
   </g>
   <g id="patch_4">
    <path d="M 63.12 175.5 
C 64.265677 175.5 65.364585 175.044818 66.174701 174.234701 
C 66.984818 173.424585 67.44 172.325677 67.44 171.18 
C 67.44 170.034323 66.984818 168.935415 66.174701 168.125299 
C 65.364585 167.315182 64.265677 166.86 63.12 166.86 
C 61.974323 166.86 60.875415 167.315182 60.065299 168.125299 
C 59.255182 168.935415 58.8 170.034323 58.8 171.18 
C 58.8 172.325677 59.255182 173.424585 60.065299 174.234701 
C 60.875415 175.044818 61.974323 175.5 63.12 175.5 
L 63.12 175.5 
z
" clip-path="url(#p0cacb4f044)" style="fill: none; stroke: #000000; stroke-width: 2; stroke-linejoin: miter"/>
   </g>
   <g id="line2d_1">
    <path d="M 175.62 117.945 
L 195.162857 117.878878 
L 197.22 117.585 
L 199.277143 117.05602 
L 201.334286 116.291939 
L 203.391429 115.292755 
L 205.448571 114.058469 
L 207.505714 112.589082 
L 209.562857 110.884592 
L 212.134286 108.423367 
L 214.705714 105.594796 
L 217.277143 102.398878 
L 218.82 100.305 
L 218.82 100.305 
L 216.248571 96.888673 
L 213.677143 93.839694 
L 211.105714 91.158061 
L 208.534286 88.843776 
L 206.477143 87.256837 
L 204.42 85.905 
L 202.362857 84.788265 
L 200.305714 83.906633 
L 198.248571 83.260102 
L 196.191429 82.848673 
L 194.134286 82.672347 
L 193.62 82.665 
L 175.62 82.665 
L 175.62 82.665 
L 177.6072 84.825 
L 179.3352 86.985 
L 180.804 89.145 
L 182.0136 91.305 
L 182.964 93.465 
L 183.6552 95.625 
L 184.0872 97.785 
L 184.26 99.945 
L 184.1736 102.105 
L 183.828 104.265 
L 183.2232 106.425 
L 182.3592 108.585 
L 181.236 110.745 
L 179.8536 112.905 
L 178.212 115.065 
L 176.3112 117.225 
L 175.62 117.945 
L 175.62 117.945 
" clip-path="url(#p0cacb4f044)" style="fill: none; stroke: #000000; stroke-width: 2; stroke-linecap: round"/>
   </g>
   <g id="line2d_2">
    <path d="M 163.02 109.305 
L 182.0136 109.305 
" clip-path="url(#p0cacb4f044)" style="fill: none; stroke: #000000; stroke-width: 2; stroke-linecap: round"/>
   </g>
   <g id="line2d_3">
    <path d="M 163.02 91.305 
L 182.0136 91.305 
" clip-path="url(#p0cacb4f044)" style="fill: none; stroke: #000000; stroke-width: 2; stroke-linecap: round"/>
   </g>
   <g id="line2d_4">
    <path d="M 218.82 100.305 
L 231.42 100.305 
" clip-path="url(#p0cacb4f044)" style="fill: none; stroke: #000000; stroke-width: 2; stroke-linecap: round"/>
   </g>
   <g id="line2d_5">
    <path d="M 128.82 67.68 
L 129.973264 67.643017 
L 131.121789 67.53222 
L 132.260855 67.348065 
L 133.385783 67.091308 
L 134.491948 66.763003 
L 135.574806 66.364502 
L 136.629907 65.89744 
L 137.652916 65.363737 
L 138.639628 64.765586 
L 139.58599 64.105445 
L 140.488111 63.386027 
L 141.342286 62.610288 
L 142.145004 61.781416 
L 142.892967 60.902816 
L 143.583101 59.9781 
L 144.21257 59.011066 
L 144.778788 58.005689 
L 145.279427 56.9661 
L 145.712432 55.896571 
L 146.076021 54.801497 
L 146.368702 53.685377 
L 146.589272 52.552798 
L 146.736824 51.408414 
L 146.810752 50.256928 
L 146.810752 49.103072 
L 146.736824 47.951586 
L 146.589272 46.807202 
L 146.368702 45.674623 
L 146.076021 44.558503 
L 145.712432 43.463429 
L 145.279427 42.3939 
L 144.778788 41.354311 
L 144.21257 40.348934 
L 143.583101 39.3819 
L 142.892967 38.457184 
L 142.145004 37.578584 
L 141.342286 36.749712 
L 140.488111 35.973973 
L 139.58599 35.254555 
L 138.639628 34.594414 
L 137.652916 33.996263 
L 136.629907 33.46256 
L 135.574806 32.995498 
L 134.491948 32.596997 
L 133.385783 32.268692 
L 132.260855 32.011935 
L 131.121789 31.82778 
L 129.973264 31.716983 
L 128.82 31.68 
L 128.82 31.68 
L 105.42 31.68 
L 105.42 49.68 
L 105.42 67.68 
L 128.82 67.68 
" clip-path="url(#p0cacb4f044)" style="fill: none; stroke: #000000; stroke-width: 2; stroke-linecap: round"/>
   </g>
   <g id="line2d_6">
    <path d="M 92.82 58.68 
L 105.42 58.68 
" clip-path="url(#p0cacb4f044)" style="fill: none; stroke: #000000; stroke-width: 2; stroke-linecap: round"/>
   </g>
   <g id="line2d_7">
    <path d="M 92.82 40.68 
L 105.42 40.68 
" clip-path="url(#p0cacb4f044)" style="fill: none; stroke: #000000; stroke-width: 2; stroke-linecap: round"/>
   </g>
   <g id="line2d_8">
    <path d="M 146.82 49.68 
L 159.42 49.68 
" clip-path="url(#p0cacb4f044)" style="fill: none; stroke: #000000; stroke-width: 2; stroke-linecap: round"/>
   </g>
   <g id="line2d_9">
    <path d="M 56.82 40.68 
L 57.973264 40.643017 
L 59.121789 40.53222 
L 60.260855 40.348065 
L 61.385783 40.091308 
L 62.491948 39.763003 
L 63.574806 39.364502 
L 64.629907 38.89744 
L 65.652916 38.363737 
L 66.639628 37.765586 
L 67.58599 37.105445 
L 68.488111 36.386027 
L 69.342286 35.610288 
L 70.145004 34.781416 
L 70.892967 33.902816 
L 71.583101 32.9781 
L 72.21257 32.011066 
L 72.778788 31.005689 
L 73.279427 29.9661 
L 73.712432 28.896571 
L 74.076021 27.801497 
L 74.368702 26.685377 
L 74.589272 25.552798 
L 74.736824 24.408414 
L 74.810752 23.256928 
L 74.810752 22.103072 
L 74.736824 20.951586 
L 74.589272 19.807202 
L 74.368702 18.674623 
L 74.076021 17.558503 
L 73.712432 16.463429 
L 73.279427 15.3939 
L 72.778788 14.354311 
L 72.21257 13.348934 
L 71.583101 12.3819 
L 70.892967 11.457184 
L 70.145004 10.578584 
L 69.342286 9.749712 
L 68.488111 8.973973 
L 67.58599 8.254555 
L 66.639628 7.594414 
L 65.652916 6.996263 
L 64.629907 6.46256 
L 63.574806 5.995498 
L 62.491948 5.596997 
L 61.385783 5.268692 
L 60.260855 5.011935 
L 59.121789 4.82778 
L 57.973264 4.716983 
L 56.82 4.68 
L 56.82 4.68 
L 33.42 4.68 
L 33.42 22.68 
L 33.42 40.68 
L 56.82 40.68 
" clip-path="url(#p0cacb4f044)" style="fill: none; stroke: #000000; stroke-width: 2; stroke-linecap: round"/>
   </g>
   <g id="line2d_10">
    <path d="M 20.82 31.68 
L 33.42 31.68 
" clip-path="url(#p0cacb4f044)" style="fill: none; stroke: #000000; stroke-width: 2; stroke-linecap: round"/>
   </g>
   <g id="line2d_11">
    <path d="M 20.82 13.68 
L 33.42 13.68 
" clip-path="url(#p0cacb4f044)" style="fill: none; stroke: #000000; stroke-width: 2; stroke-linecap: round"/>
   </g>
   <g id="line2d_12">
    <path d="M 74.82 22.68 
L 87.42 22.68 
" clip-path="url(#p0cacb4f044)" style="fill: none; stroke: #000000; stroke-width: 2; stroke-linecap: round"/>
   </g>
   <g id="line2d_13">
    <path d="M 92.82 40.68 
L 87.42 40.68 
L 87.42 22.68 
" clip-path="url(#p0cacb4f044)" style="fill: none; stroke: #000000; stroke-width: 2; stroke-linecap: round"/>
   </g>
   <g id="line2d_14">
    <path d="M 31.62 94.32 
L 51.162857 94.253878 
L 53.22 93.96 
L 55.277143 93.43102 
L 57.334286 92.666939 
L 59.391429 91.667755 
L 61.448571 90.433469 
L 63.505714 88.964082 
L 65.562857 87.259592 
L 68.134286 84.798367 
L 70.705714 81.969796 
L 73.277143 78.773878 
L 74.82 76.68 
L 74.82 76.68 
L 72.248571 73.263673 
L 69.677143 70.214694 
L 67.105714 67.533061 
L 64.534286 65.218776 
L 62.477143 63.631837 
L 60.42 62.28 
L 58.362857 61.163265 
L 56.305714 60.281633 
L 54.248571 59.635102 
L 52.191429 59.223673 
L 50.134286 59.047347 
L 49.62 59.04 
L 31.62 59.04 
L 31.62 59.04 
L 33.6072 61.2 
L 35.3352 63.36 
L 36.804 65.52 
L 38.0136 67.68 
L 38.964 69.84 
L 39.6552 72 
L 40.0872 74.16 
L 40.26 76.32 
L 40.1736 78.48 
L 39.828 80.64 
L 39.2232 82.8 
L 38.3592 84.96 
L 37.236 87.12 
L 35.8536 89.28 
L 34.212 91.44 
L 32.3112 93.6 
L 31.62 94.32 
L 31.62 94.32 
" clip-path="url(#p0cacb4f044)" style="fill: none; stroke: #000000; stroke-width: 2; stroke-linecap: round"/>
   </g>
   <g id="line2d_15">
    <path d="M 26.22 94.32 
L 26.9112 93.6 
L 27.5736 92.88 
L 28.2072 92.16 
L 28.812 91.44 
L 29.388 90.72 
L 29.9352 90 
L 30.4536 89.28 
L 30.9432 88.56 
L 31.404 87.84 
L 31.836 87.12 
L 32.2392 86.4 
L 32.6136 85.68 
L 32.9592 84.96 
L 33.276 84.24 
L 33.564 83.52 
L 33.8232 82.8 
L 34.0536 82.08 
L 34.2552 81.36 
L 34.428 80.64 
L 34.572 79.92 
L 34.6872 79.2 
L 34.7736 78.48 
L 34.8312 77.76 
L 34.86 77.04 
L 34.86 76.32 
L 34.8312 75.6 
L 34.7736 74.88 
L 34.6872 74.16 
L 34.572 73.44 
L 34.428 72.72 
L 34.2552 72 
L 34.0536 71.28 
L 33.8232 70.56 
L 33.564 69.84 
L 33.276 69.12 
L 32.9592 68.4 
L 32.6136 67.68 
L 32.2392 66.96 
L 31.836 66.24 
L 31.404 65.52 
L 30.9432 64.8 
L 30.4536 64.08 
L 29.9352 63.36 
L 29.388 62.64 
L 28.812 61.92 
L 28.2072 61.2 
L 27.5736 60.48 
L 26.9112 59.76 
L 26.22 59.04 
" clip-path="url(#p0cacb4f044)" style="fill: none; stroke: #000000; stroke-width: 2; stroke-linecap: round"/>
   </g>
   <g id="line2d_16">
    <path d="M 19.02 85.68 
L 32.6136 85.68 
" clip-path="url(#p0cacb4f044)" style="fill: none; stroke: #000000; stroke-width: 2; stroke-linecap: round"/>
   </g>
   <g id="line2d_17">
    <path d="M 19.02 67.68 
L 32.6136 67.68 
" clip-path="url(#p0cacb4f044)" style="fill: none; stroke: #000000; stroke-width: 2; stroke-linecap: round"/>
   </g>
   <g id="line2d_18">
    <path d="M 74.82 76.68 
L 87.42 76.68 
" clip-path="url(#p0cacb4f044)" style="fill: none; stroke: #000000; stroke-width: 2; stroke-linecap: round"/>
   </g>
   <g id="line2d_19">
    <path d="M 92.82 58.68 
L 87.42 58.68 
L 87.42 76.68 
" clip-path="url(#p0cacb4f044)" style="fill: none; stroke: #000000; stroke-width: 2; stroke-linecap: round"/>
   </g>
   <g id="line2d_20">
    <path d="M 163.02 91.305 
L 159.42 91.305 
L 159.42 49.68 
" clip-path="url(#p0cacb4f044)" style="fill: none; stroke: #000000; stroke-width: 2; stroke-linecap: round"/>
   </g>
   <g id="line2d_21">
    <path d="M 103.62 168.57 
L 123.162857 168.503878 
L 125.22 168.21 
L 127.277143 167.68102 
L 129.334286 166.916939 
L 131.391429 165.917755 
L 133.448571 164.683469 
L 135.505714 163.214082 
L 137.562857 161.509592 
L 140.134286 159.048367 
L 142.705714 156.219796 
L 145.277143 153.023878 
L 146.82 150.93 
L 146.82 150.93 
L 144.248571 147.513673 
L 141.677143 144.464694 
L 139.105714 141.783061 
L 136.534286 139.468776 
L 134.477143 137.881837 
L 132.42 136.53 
L 130.362857 135.413265 
L 128.305714 134.531633 
L 126.248571 133.885102 
L 124.191429 133.473673 
L 122.134286 133.297347 
L 121.62 133.29 
L 103.62 133.29 
L 103.62 133.29 
L 105.6072 135.45 
L 107.3352 137.61 
L 108.804 139.77 
L 110.0136 141.93 
L 110.964 144.09 
L 111.6552 146.25 
L 112.0872 148.41 
L 112.26 150.57 
L 112.1736 152.73 
L 111.828 154.89 
L 111.2232 157.05 
L 110.3592 159.21 
L 109.236 161.37 
L 107.8536 163.53 
L 106.212 165.69 
L 104.3112 167.85 
L 103.62 168.57 
L 103.62 168.57 
" clip-path="url(#p0cacb4f044)" style="fill: none; stroke: #000000; stroke-width: 2; stroke-linecap: round"/>
   </g>
   <g id="line2d_22">
    <path d="M 98.22 168.57 
L 98.9112 167.85 
L 99.5736 167.13 
L 100.2072 166.41 
L 100.812 165.69 
L 101.388 164.97 
L 101.9352 164.25 
L 102.4536 163.53 
L 102.9432 162.81 
L 103.404 162.09 
L 103.836 161.37 
L 104.2392 160.65 
L 104.6136 159.93 
L 104.9592 159.21 
L 105.276 158.49 
L 105.564 157.77 
L 105.8232 157.05 
L 106.0536 156.33 
L 106.2552 155.61 
L 106.428 154.89 
L 106.572 154.17 
L 106.6872 153.45 
L 106.7736 152.73 
L 106.8312 152.01 
L 106.86 151.29 
L 106.86 150.57 
L 106.8312 149.85 
L 106.7736 149.13 
L 106.6872 148.41 
L 106.572 147.69 
L 106.428 146.97 
L 106.2552 146.25 
L 106.0536 145.53 
L 105.8232 144.81 
L 105.564 144.09 
L 105.276 143.37 
L 104.9592 142.65 
L 104.6136 141.93 
L 104.2392 141.21 
L 103.836 140.49 
L 103.404 139.77 
L 102.9432 139.05 
L 102.4536 138.33 
L 101.9352 137.61 
L 101.388 136.89 
L 100.812 136.17 
L 100.2072 135.45 
L 99.5736 134.73 
L 98.9112 134.01 
L 98.22 133.29 
" clip-path="url(#p0cacb4f044)" style="fill: none; stroke: #000000; stroke-width: 2; stroke-linecap: round"/>
   </g>
   <g id="line2d_23">
    <path d="M 91.02 159.93 
L 104.6136 159.93 
" clip-path="url(#p0cacb4f044)" style="fill: none; stroke: #000000; stroke-width: 2; stroke-linecap: round"/>
   </g>
   <g id="line2d_24">
    <path d="M 91.02 141.93 
L 104.6136 141.93 
" clip-path="url(#p0cacb4f044)" style="fill: none; stroke: #000000; stroke-width: 2; stroke-linecap: round"/>
   </g>
   <g id="line2d_25">
    <path d="M 155.46 150.93 
L 159.42 150.93 
" clip-path="url(#p0cacb4f044)" style="fill: none; stroke: #000000; stroke-width: 2; stroke-linecap: round"/>
   </g>
   <g id="line2d_26">
    <path d="M 31.62 148.32 
L 51.162857 148.253878 
L 53.22 147.96 
L 55.277143 147.43102 
L 57.334286 146.666939 
L 59.391429 145.667755 
L 61.448571 144.433469 
L 63.505714 142.964082 
L 65.562857 141.259592 
L 68.134286 138.798367 
L 70.705714 135.969796 
L 73.277143 132.773878 
L 74.82 130.68 
L 74.82 130.68 
L 72.248571 127.263673 
L 69.677143 124.214694 
L 67.105714 121.533061 
L 64.534286 119.218776 
L 62.477143 117.631837 
L 60.42 116.28 
L 58.362857 115.163265 
L 56.305714 114.281633 
L 54.248571 113.635102 
L 52.191429 113.223673 
L 50.134286 113.047347 
L 49.62 113.04 
L 31.62 113.04 
L 31.62 113.04 
L 33.6072 115.2 
L 35.3352 117.36 
L 36.804 119.52 
L 38.0136 121.68 
L 38.964 123.84 
L 39.6552 126 
L 40.0872 128.16 
L 40.26 130.32 
L 40.1736 132.48 
L 39.828 134.64 
L 39.2232 136.8 
L 38.3592 138.96 
L 37.236 141.12 
L 35.8536 143.28 
L 34.212 145.44 
L 32.3112 147.6 
L 31.62 148.32 
L 31.62 148.32 
" clip-path="url(#p0cacb4f044)" style="fill: none; stroke: #000000; stroke-width: 2; stroke-linecap: round"/>
   </g>
   <g id="line2d_27">
    <path d="M 26.22 148.32 
L 26.9112 147.6 
L 27.5736 146.88 
L 28.2072 146.16 
L 28.812 145.44 
L 29.388 144.72 
L 29.9352 144 
L 30.4536 143.28 
L 30.9432 142.56 
L 31.404 141.84 
L 31.836 141.12 
L 32.2392 140.4 
L 32.6136 139.68 
L 32.9592 138.96 
L 33.276 138.24 
L 33.564 137.52 
L 33.8232 136.8 
L 34.0536 136.08 
L 34.2552 135.36 
L 34.428 134.64 
L 34.572 133.92 
L 34.6872 133.2 
L 34.7736 132.48 
L 34.8312 131.76 
L 34.86 131.04 
L 34.86 130.32 
L 34.8312 129.6 
L 34.7736 128.88 
L 34.6872 128.16 
L 34.572 127.44 
L 34.428 126.72 
L 34.2552 126 
L 34.0536 125.28 
L 33.8232 124.56 
L 33.564 123.84 
L 33.276 123.12 
L 32.9592 122.4 
L 32.6136 121.68 
L 32.2392 120.96 
L 31.836 120.24 
L 31.404 119.52 
L 30.9432 118.8 
L 30.4536 118.08 
L 29.9352 117.36 
L 29.388 116.64 
L 28.812 115.92 
L 28.2072 115.2 
L 27.5736 114.48 
L 26.9112 113.76 
L 26.22 113.04 
" clip-path="url(#p0cacb4f044)" style="fill: none; stroke: #000000; stroke-width: 2; stroke-linecap: round"/>
   </g>
   <g id="line2d_28">
    <path d="M 19.02 139.68 
L 32.6136 139.68 
" clip-path="url(#p0cacb4f044)" style="fill: none; stroke: #000000; stroke-width: 2; stroke-linecap: round"/>
   </g>
   <g id="line2d_29">
    <path d="M 19.02 121.68 
L 32.6136 121.68 
" clip-path="url(#p0cacb4f044)" style="fill: none; stroke: #000000; stroke-width: 2; stroke-linecap: round"/>
   </g>
   <g id="line2d_30">
    <path d="M 83.46 130.68 
L 87.42 130.68 
" clip-path="url(#p0cacb4f044)" style="fill: none; stroke: #000000; stroke-width: 2; stroke-linecap: round"/>
   </g>
   <g id="line2d_31">
    <path d="M 91.02 141.93 
L 87.42 141.93 
L 87.42 130.68 
" clip-path="url(#p0cacb4f044)" style="fill: none; stroke: #000000; stroke-width: 2; stroke-linecap: round"/>
   </g>
   <g id="line2d_32">
    <path d="M 15.42 171.18 
L 35.4 171.18 
M 67.44 171.18 
L 87.42 171.18 
" clip-path="url(#p0cacb4f044)" style="fill: none; stroke: #000000; stroke-width: 2; stroke-linecap: round"/>
   </g>
   <g id="line2d_33">
    <path d="M 35.4 153.18 
L 58.8 171.18 
L 35.4 189.18 
L 35.4 153.18 
" clip-path="url(#p0cacb4f044)" style="fill: none; stroke: #000000; stroke-width: 2; stroke-linecap: round"/>
   </g>
   <g id="line2d_34">
    <path d="M 91.02 159.93 
L 87.42 159.93 
L 87.42 171.18 
" clip-path="url(#p0cacb4f044)" style="fill: none; stroke: #000000; stroke-width: 2; stroke-linecap: round"/>
   </g>
   <g id="line2d_35">
    <path d="M 163.02 109.305 
L 159.42 109.305 
L 159.42 150.93 
" clip-path="url(#p0cacb4f044)" style="fill: none; stroke: #000000; stroke-width: 2; stroke-linecap: round"/>
   </g>
   <g id="text_1">
    <!-- $\text{Output}$ -->
    <g transform="translate(235.02 104.139687) scale(0.14 -0.14)">
     <defs>
      <path id="DejaVuSans-4f" d="M 2522 4238 
Q 1834 4238 1429 3725 
Q 1025 3213 1025 2328 
Q 1025 1447 1429 934 
Q 1834 422 2522 422 
Q 3209 422 3611 934 
Q 4013 1447 4013 2328 
Q 4013 3213 3611 3725 
Q 3209 4238 2522 4238 
z
M 2522 4750 
Q 3503 4750 4090 4092 
Q 4678 3434 4678 2328 
Q 4678 1225 4090 567 
Q 3503 -91 2522 -91 
Q 1538 -91 948 565 
Q 359 1222 359 2328 
Q 359 3434 948 4092 
Q 1538 4750 2522 4750 
z
" transform="scale(0.015625)"/>
      <path id="DejaVuSans-75" d="M 544 1381 
L 544 3500 
L 1119 3500 
L 1119 1403 
Q 1119 906 1312 657 
Q 1506 409 1894 409 
Q 2359 409 2629 706 
Q 2900 1003 2900 1516 
L 2900 3500 
L 3475 3500 
L 3475 0 
L 2900 0 
L 2900 538 
Q 2691 219 2414 64 
Q 2138 -91 1772 -91 
Q 1169 -91 856 284 
Q 544 659 544 1381 
z
M 1991 3584 
L 1991 3584 
z
" transform="scale(0.015625)"/>
      <path id="DejaVuSans-74" d="M 1172 4494 
L 1172 3500 
L 2356 3500 
L 2356 3053 
L 1172 3053 
L 1172 1153 
Q 1172 725 1289 603 
Q 1406 481 1766 481 
L 2356 481 
L 2356 0 
L 1766 0 
Q 1100 0 847 248 
Q 594 497 594 1153 
L 594 3053 
L 172 3053 
L 172 3500 
L 594 3500 
L 594 4494 
L 1172 4494 
z
" transform="scale(0.015625)"/>
      <path id="DejaVuSans-70" d="M 1159 525 
L 1159 -1331 
L 581 -1331 
L 581 3500 
L 1159 3500 
L 1159 2969 
Q 1341 3281 1617 3432 
Q 1894 3584 2278 3584 
Q 2916 3584 3314 3078 
Q 3713 2572 3713 1747 
Q 3713 922 3314 415 
Q 2916 -91 2278 -91 
Q 1894 -91 1617 61 
Q 1341 213 1159 525 
z
M 3116 1747 
Q 3116 2381 2855 2742 
Q 2594 3103 2138 3103 
Q 1681 3103 1420 2742 
Q 1159 2381 1159 1747 
Q 1159 1113 1420 752 
Q 1681 391 2138 391 
Q 2594 391 2855 752 
Q 3116 1113 3116 1747 
z
" transform="scale(0.015625)"/>
     </defs>
     <use xlink:href="#DejaVuSans-4f" transform="translate(0 0.78125)"/>
     <use xlink:href="#DejaVuSans-75" transform="translate(78.710938 0.78125)"/>
     <use xlink:href="#DejaVuSans-74" transform="translate(142.089844 0.78125)"/>
     <use xlink:href="#DejaVuSans-70" transform="translate(181.298828 0.78125)"/>
     <use xlink:href="#DejaVuSans-75" transform="translate(244.775391 0.78125)"/>
     <use xlink:href="#DejaVuSans-74" transform="translate(308.154297 0.78125)"/>
    </g>
   </g>
   <g id="text_2">
    <!-- a -->
    <g transform="translate(8.640625 17.543125) scale(0.14 -0.14)">
     <defs>
      <path id="DejaVuSans-61" d="M 2194 1759 
Q 1497 1759 1228 1600 
Q 959 1441 959 1056 
Q 959 750 1161 570 
Q 1363 391 1709 391 
Q 2188 391 2477 730 
Q 2766 1069 2766 1631 
L 2766 1759 
L 2194 1759 
z
M 3341 1997 
L 3341 0 
L 2766 0 
L 2766 531 
Q 2569 213 2275 61 
Q 1981 -91 1556 -91 
Q 1019 -91 701 211 
Q 384 513 384 1019 
Q 384 1609 779 1909 
Q 1175 2209 1959 2209 
L 2766 2209 
L 2766 2266 
Q 2766 2663 2505 2880 
Q 2244 3097 1772 3097 
Q 1472 3097 1187 3025 
Q 903 2953 641 2809 
L 641 3341 
Q 956 3463 1253 3523 
Q 1550 3584 1831 3584 
Q 2591 3584 2966 3190 
Q 3341 2797 3341 1997 
z
" transform="scale(0.015625)"/>
     </defs>
     <use xlink:href="#DejaVuSans-61"/>
    </g>
   </g>
   <g id="text_3">
    <!-- b -->
    <g transform="translate(8.332187 35.543125) scale(0.14 -0.14)">
     <defs>
      <path id="DejaVuSans-62" d="M 3116 1747 
Q 3116 2381 2855 2742 
Q 2594 3103 2138 3103 
Q 1681 3103 1420 2742 
Q 1159 2381 1159 1747 
Q 1159 1113 1420 752 
Q 1681 391 2138 391 
Q 2594 391 2855 752 
Q 3116 1113 3116 1747 
z
M 1159 2969 
Q 1341 3281 1617 3432 
Q 1894 3584 2278 3584 
Q 2916 3584 3314 3078 
Q 3713 2572 3713 1747 
Q 3713 922 3314 415 
Q 2916 -91 2278 -91 
Q 1894 -91 1617 61 
Q 1341 213 1159 525 
L 1159 0 
L 581 0 
L 581 4863 
L 1159 4863 
L 1159 2969 
z
" transform="scale(0.015625)"/>
     </defs>
     <use xlink:href="#DejaVuSans-62"/>
    </g>
   </g>
   <g id="text_4">
    <!-- a -->
    <g transform="translate(6.840625 71.543125) scale(0.14 -0.14)">
     <use xlink:href="#DejaVuSans-61"/>
    </g>
   </g>
   <g id="text_5">
    <!-- c -->
    <g transform="translate(7.722187 89.543125) scale(0.14 -0.14)">
     <defs>
      <path id="DejaVuSans-63" d="M 3122 3366 
L 3122 2828 
Q 2878 2963 2633 3030 
Q 2388 3097 2138 3097 
Q 1578 3097 1268 2742 
Q 959 2388 959 1747 
Q 959 1106 1268 751 
Q 1578 397 2138 397 
Q 2388 397 2633 464 
Q 2878 531 3122 666 
L 3122 134 
Q 2881 22 2623 -34 
Q 2366 -91 2075 -91 
Q 1284 -91 818 406 
Q 353 903 353 1747 
Q 353 2603 823 3093 
Q 1294 3584 2113 3584 
Q 2378 3584 2631 3529 
Q 2884 3475 3122 3366 
z
" transform="scale(0.015625)"/>
     </defs>
     <use xlink:href="#DejaVuSans-63"/>
    </g>
   </g>
   <g id="text_6">
    <!-- a -->
    <g transform="translate(6.840625 125.543125) scale(0.14 -0.14)">
     <use xlink:href="#DejaVuSans-61"/>
    </g>
   </g>
   <g id="text_7">
    <!-- c -->
    <g transform="translate(7.722187 143.543125) scale(0.14 -0.14)">
     <use xlink:href="#DejaVuSans-63"/>
    </g>
   </g>
   <g id="text_8">
    <!-- c -->
    <g transform="translate(4.122187 175.043125) scale(0.14 -0.14)">
     <use xlink:href="#DejaVuSans-63"/>
    </g>
   </g>
  </g>
 </g>
 <defs>
  <clipPath id="p0cacb4f044">
   <rect x="0" y="-0" width="321.6" height="193.86"/>
  </clipPath>
 </defs>
</svg>
