<svg xmlns="http://www.w3.org/2000/svg" xml:lang="en" height="99.2pt" width="244.88000000000005pt" viewBox="-154.78000000000003 -9.1 244.88000000000005 99.2"><circle cx="-8.28" cy="40.5" r="4.32" style="stroke:black;fill:none;stroke-width:2.0;" /><circle cx="-80.28" cy="67.5" r="4.32" style="stroke:black;fill:none;stroke-width:2.0;" /><path d="M -30.6,58.5 L -29.446736040347172,58.46301706950605 L -28.298211089678894,58.352220248818426 L -27.1591446833753,58.168064825839174 L -26.03421748962887,57.91130753470253 L -24.928052075574826,57.58300344619204 L -23.84519391217127,57.18450163222839 L -22.790092695883956,56.717439622243546 L -21.767084063929126,56.18373667422101 L -20.780371778210124,55.58558588805314 L -19.83401045115812,54.925445193623226 L -18.931888884459806,54.20602725064442 L -18.077714089137253,53.4302883017591 L -17.274996052644326,52.60141602470371 L -16.527033315575473,51.7228164334572 L -15.83689941725479,50.798099882199054 L -15.207430265903778,49.83106622958945 L -14.641212485286,48.825689224335036 L -14.140572785715374,47.786100176203085 L -13.70756840310431,46.71657097958354 L -13.343978645340105,45.62149655935858 L -13.05129758072718,44.50537681121366 L -12.830727898539898,43.372798110600826 L -12.683175966914435,42.22841446633828 L -12.609248108387625,41.0769283962898 L -12.609248108387625,39.92307160371021 L -12.683175966914435,38.771585533661735 L -12.830727898539898,37.627201889399174 L -13.05129758072718,36.49462318878634 L -13.343978645340105,35.37850344064142 L -13.70756840310431,34.28342902041646 L -14.140572785715374,33.213899823796915 L -14.641212485286,32.174310775664964 L -15.207430265903778,31.16893377041055 L -15.83689941725479,30.20190011780095 L -16.527033315575473,29.2771835665428 L -17.274996052644326,28.3985839752963 L -18.077714089137245,27.5697116982409 L -18.931888884459806,26.793972749355586 L -19.834010451158107,26.07455480637678 L -20.780371778210124,25.414414111946872 L -21.767084063929126,24.81626332577899 L -22.790092695883956,24.282560377756457 L -23.84519391217127,23.81549836777161 L -24.928052075574826,23.416996553807966 L -26.03421748962887,23.08869246529747 L -27.1591446833753,22.831935174160826 L -28.298211089678887,22.64777975118157 L -29.446736040347165,22.536982930493945 L -30.6,22.5 L -30.6,22.5 L -54.0,22.5 L -54.0,40.5 L -54.0,58.5 L -30.6,58.5" style="stroke:black;fill:none;stroke-width:2.0;stroke-linecap:round;stroke-linejoin:round;" /><path d="M -66.60000000000001,49.5 L -54.0,49.5" style="stroke:black;fill:none;stroke-width:2.0;stroke-linecap:round;stroke-linejoin:round;" /><path d="M -66.60000000000001,31.5 L -54.0,31.5" style="stroke:black;fill:none;stroke-width:2.0;stroke-linecap:round;stroke-linejoin:round;" /><path d="M -3.9600000000000035,40.5 L 0.0,40.5" style="stroke:black;fill:none;stroke-width:2.0;stroke-linecap:round;stroke-linejoin:round;" /><path d="M -102.60000000000001,31.5 L -101.44673604034718,31.463017069506055 L -100.29821108967889,31.35222024881843 L -99.1591446833753,31.168064825839174 L -98.03421748962887,30.91130753470253 L -96.92805207557483,30.583003446192034 L -95.84519391217127,30.18450163222839 L -94.79009269588396,29.717439622243543 L -93.76708406392912,29.18373667422101 L -92.78037177821012,28.58558588805313 L -91.83401045115812,27.925445193623222 L -90.93188888445981,27.206027250644418 L -90.07771408913726,26.4302883017591 L -89.27499605264433,25.601416024703703 L -88.52703331557547,24.7228164334572 L -87.83689941725478,23.798099882199054 L -87.20743026590378,22.83106622958945 L -86.641212485286,21.825689224335036 L -86.14057278571538,20.786100176203092 L -85.7075684031043,19.71657097958354 L -85.3439786453401,18.621496559358587 L -85.05129758072718,17.505376811213658 L -84.83072789853989,16.372798110600826 L -84.68317596691443,15.228414466338274 L -84.60924810838762,14.076928396289794 L -84.60924810838762,12.92307160371021 L -84.68317596691443,11.77158553366173 L -84.83072789853989,10.627201889399178 L -85.05129758072718,9.494623188786342 L -85.3439786453401,8.378503440641417 L -85.7075684031043,7.283429020416464 L -86.14057278571538,6.213899823796913 L -86.641212485286,5.174310775664967 L -87.20743026590378,4.168933770410549 L -87.83689941725478,3.20190011780095 L -88.52703331557547,2.2771835665427975 L -89.27499605264433,1.3985839752963019 L -90.07771408913723,0.5697116982409052 L -90.93188888445981,-0.20602725064441563 L -91.83401045115811,-0.9254451936232191 L -92.78037177821012,-1.5855858880531288 L -93.76708406392912,-2.1837366742210076 L -94.79009269588396,-2.7174396222435444 L -95.84519391217127,-3.1845016322283897 L -96.92805207557483,-3.5830034461920355 L -98.03421748962887,-3.9113075347025283 L -99.1591446833753,-4.168064825839176 L -100.29821108967889,-4.352220248818429 L -101.44673604034718,-4.463017069506054 L -102.60000000000001,-4.5 L -102.60000000000001,-4.5 L -126.0,-4.5 L -126.0,13.5 L -126.0,31.5 L -102.60000000000001,31.5" style="stroke:black;fill:none;stroke-width:2.0;stroke-linecap:round;stroke-linejoin:round;" /><path d="M -138.6,22.5 L -126.0,22.5" style="stroke:black;fill:none;stroke-width:2.0;stroke-linecap:round;stroke-linejoin:round;" /><path d="M -138.6,4.5 L -126.0,4.5" style="stroke:black;fill:none;stroke-width:2.0;stroke-linecap:round;stroke-linejoin:round;" /><path d="M -84.60000000000001,13.5 L -72.0,13.5" style="stroke:black;fill:none;stroke-width:2.0;stroke-linecap:round;stroke-linejoin:round;" /><path d="M -66.60000000000001,31.5 L -72.0,31.5 L -72.0,13.5" style="stroke:black;fill:none;stroke-width:2;stroke-linecap:round;stroke-linejoin:round;" /><path d="M -102.60000000000001,85.5 L -101.44673604034718,85.46301706950607 L -100.29821108967889,85.35222024881844 L -99.1591446833753,85.16806482583918 L -98.03421748962887,84.91130753470253 L -96.92805207557483,84.58300344619204 L -95.84519391217127,84.18450163222839 L -94.79009269588396,83.71743962224355 L -93.76708406392912,83.18373667422101 L -92.78037177821012,82.58558588805313 L -91.83401045115812,81.92544519362322 L -90.93188888445981,81.20602725064442 L -90.07771408913726,80.43028830175909 L -89.27499605264433,79.60141602470371 L -88.52703331557547,78.7228164334572 L -87.83689941725478,77.79809988219905 L -87.20743026590378,76.83106622958945 L -86.641212485286,75.82568922433504 L -86.14057278571538,74.78610017620309 L -85.7075684031043,73.71657097958354 L -85.3439786453401,72.62149655935858 L -85.05129758072718,71.50537681121367 L -84.83072789853989,70.37279811060083 L -84.68317596691443,69.22841446633828 L -84.60924810838762,68.0769283962898 L -84.60924810838762,66.92307160371021 L -84.68317596691443,65.77158553366174 L -84.83072789853989,64.62720188939917 L -85.05129758072718,63.49462318878634 L -85.3439786453401,62.37850344064142 L -85.7075684031043,61.28342902041646 L -86.14057278571538,60.213899823796915 L -86.641212485286,59.174310775664964 L -87.20743026590378,58.16893377041055 L -87.83689941725478,57.201900117800946 L -88.52703331557547,56.2771835665428 L -89.27499605264433,55.398583975296305 L -90.07771408913723,54.5697116982409 L -90.93188888445981,53.79397274935558 L -91.83401045115811,53.07455480637678 L -92.78037177821012,52.41441411194687 L -93.76708406392912,51.81626332577899 L -94.79009269588396,51.282560377756454 L -95.84519391217127,50.81549836777161 L -96.92805207557483,50.41699655380796 L -98.03421748962887,50.08869246529747 L -99.1591446833753,49.831935174160826 L -100.29821108967889,49.647779751181574 L -101.44673604034718,49.53698293049395 L -102.60000000000001,49.5 L -102.60000000000001,49.5 L -126.0,49.5 L -126.0,67.5 L -126.0,85.5 L -102.60000000000001,85.5" style="stroke:black;fill:none;stroke-width:2.0;stroke-linecap:round;stroke-linejoin:round;" /><path d="M -138.6,76.5 L -126.0,76.5" style="stroke:black;fill:none;stroke-width:2.0;stroke-linecap:round;stroke-linejoin:round;" /><path d="M -138.6,58.5 L -126.0,58.5" style="stroke:black;fill:none;stroke-width:2.0;stroke-linecap:round;stroke-linejoin:round;" /><path d="M -75.96000000000001,67.5 L -72.0,67.5" style="stroke:black;fill:none;stroke-width:2.0;stroke-linecap:round;stroke-linejoin:round;" /><path d="M -66.60000000000001,49.5 L -72.0,49.5 L -72.0,67.5" style="stroke:black;fill:none;stroke-width:2;stroke-linecap:round;stroke-linejoin:round;" /><text x="3.600000000000003" y="34.9" fill="black" font-size="14.0" font-family="sans" text-anchor="start"><tspan x="3.600000000000003" dy="14.0">\text{Output}</tspan></text><text x="-142.20000000000002" y="-1.0999999999999996" fill="black" font-size="14.0" font-family="sans" text-anchor="end"><tspan x="-142.20000000000002" dy="14.0">b</tspan></text><text x="-142.20000000000002" y="16.9" fill="black" font-size="14.0" font-family="sans" text-anchor="end"><tspan x="-142.20000000000002" dy="14.0">b</tspan></text><text x="-142.20000000000002" y="52.89999999999999" fill="black" font-size="14.0" font-family="sans" text-anchor="end"><tspan x="-142.20000000000002" dy="14.0">a</tspan></text><text x="-142.20000000000002" y="70.89999999999999" fill="black" font-size="14.0" font-family="sans" text-anchor="end"><tspan x="-142.20000000000002" dy="14.0">b</tspan></text></svg>