<?xml version="1.0" encoding="utf-8" standalone="no"?>
<!DOCTYPE svg PUBLIC "-//W3C//DTD SVG 1.1//EN"
  "http://www.w3.org/Graphics/SVG/1.1/DTD/svg11.dtd">
<svg xmlns:xlink="http://www.w3.org/1999/xlink" width="250.44pt" height="85.5pt" viewBox="0 0 250.44 85.5" xmlns="http://www.w3.org/2000/svg" version="1.1">
 <metadata>
  <rdf:RDF xmlns:dc="http://purl.org/dc/elements/1.1/" xmlns:cc="http://creativecommons.org/ns#" xmlns:rdf="http://www.w3.org/1999/02/22-rdf-syntax-ns#">
   <cc:Work>
    <dc:type rdf:resource="http://purl.org/dc/dcmitype/StillImage"/>
    <dc:date>2024-10-10T23:13:48.057427</dc:date>
    <dc:format>image/svg+xml</dc:format>
    <dc:creator>
     <cc:Agent>
      <dc:title>Matplotlib v3.9.0, https://matplotlib.org/</dc:title>
     </cc:Agent>
    </dc:creator>
   </cc:Work>
  </rdf:RDF>
 </metadata>
 <defs>
  <style type="text/css">*{stroke-linejoin: round; stroke-linecap: butt}</style>
 </defs>
 <g id="figure_1">
  <g id="patch_1">
   <path d="M 0 85.5 
L 250.44 85.5 
L 250.44 0 
L 0 0 
L 0 85.5 
z
" style="fill: none"/>
  </g>
  <g id="axes_1">
   <g id="patch_2">
    <path d="M 63.96 27 
C 65.105677 27 66.204585 26.544818 67.014701 25.734701 
C 67.824818 24.924585 68.28 23.825677 68.28 22.68 
C 68.28 21.534323 67.824818 20.435415 67.014701 19.625299 
C 66.204585 18.815182 65.105677 18.36 63.96 18.36 
C 62.814323 18.36 61.715415 18.815182 60.905299 19.625299 
C 60.095182 20.435415 59.64 21.534323 59.64 22.68 
C 59.64 23.825677 60.095182 24.924585 60.905299 25.734701 
C 61.715415 26.544818 62.814323 27 63.96 27 
L 63.96 27 
z
" clip-path="url(#pfe017be5cf)" style="fill: none; stroke: #000000; stroke-width: 2; stroke-linejoin: miter"/>
   </g>
   <g id="patch_3">
    <path d="M 79.98 67.5 
C 81.125677 67.5 82.224585 67.044818 83.034701 66.234701 
C 83.844818 65.424585 84.3 64.325677 84.3 63.18 
C 84.3 62.034323 83.844818 60.935415 83.034701 60.125299 
C 82.224585 59.315182 81.125677 58.86 79.98 58.86 
C 78.834323 58.86 77.735415 59.315182 76.925299 60.125299 
C 76.115182 60.935415 75.66 62.034323 75.66 63.18 
C 75.66 64.325677 76.115182 65.424585 76.925299 66.234701 
C 77.735415 67.044818 78.834323 67.5 79.98 67.5 
L 79.98 67.5 
z
" clip-path="url(#pfe017be5cf)" style="fill: none; stroke: #000000; stroke-width: 2; stroke-linejoin: miter"/>
   </g>
   <g id="line2d_1">
    <path d="M 104.46 60.57 
L 124.002857 60.503878 
L 126.06 60.21 
L 128.117143 59.68102 
L 130.174286 58.916939 
L 132.231429 57.917755 
L 134.288571 56.683469 
L 136.345714 55.214082 
L 138.402857 53.509592 
L 140.974286 51.048367 
L 143.545714 48.219796 
L 146.117143 45.023878 
L 147.66 42.93 
L 147.66 42.93 
L 145.088571 39.513673 
L 142.517143 36.464694 
L 139.945714 33.783061 
L 137.374286 31.468776 
L 135.317143 29.881837 
L 133.26 28.53 
L 131.202857 27.413265 
L 129.145714 26.531633 
L 127.088571 25.885102 
L 125.031429 25.473673 
L 122.974286 25.297347 
L 122.46 25.29 
L 104.46 25.29 
L 104.46 25.29 
L 106.4472 27.45 
L 108.1752 29.61 
L 109.644 31.77 
L 110.8536 33.93 
L 111.804 36.09 
L 112.4952 38.25 
L 112.9272 40.41 
L 113.1 42.57 
L 113.0136 44.73 
L 112.668 46.89 
L 112.0632 49.05 
L 111.1992 51.21 
L 110.076 53.37 
L 108.6936 55.53 
L 107.052 57.69 
L 105.1512 59.85 
L 104.46 60.57 
L 104.46 60.57 
" clip-path="url(#pfe017be5cf)" style="fill: none; stroke: #000000; stroke-width: 2; stroke-linecap: round"/>
   </g>
   <g id="line2d_2">
    <path d="M 91.86 51.93 
L 110.8536 51.93 
" clip-path="url(#pfe017be5cf)" style="fill: none; stroke: #000000; stroke-width: 2; stroke-linecap: round"/>
   </g>
   <g id="line2d_3">
    <path d="M 91.86 33.93 
L 110.8536 33.93 
" clip-path="url(#pfe017be5cf)" style="fill: none; stroke: #000000; stroke-width: 2; stroke-linecap: round"/>
   </g>
   <g id="line2d_4">
    <path d="M 147.66 42.93 
L 160.26 42.93 
" clip-path="url(#pfe017be5cf)" style="fill: none; stroke: #000000; stroke-width: 2; stroke-linecap: round"/>
   </g>
   <g id="line2d_5">
    <path d="M 16.26 22.68 
L 36.24 22.68 
M 68.28 22.68 
L 88.26 22.68 
" clip-path="url(#pfe017be5cf)" style="fill: none; stroke: #000000; stroke-width: 2; stroke-linecap: round"/>
   </g>
   <g id="line2d_6">
    <path d="M 36.24 4.68 
L 59.64 22.68 
L 36.24 40.68 
L 36.24 4.68 
" clip-path="url(#pfe017be5cf)" style="fill: none; stroke: #000000; stroke-width: 2; stroke-linecap: round"/>
   </g>
   <g id="line2d_7">
    <path d="M 91.86 33.93 
L 88.26 33.93 
L 88.26 22.68 
" clip-path="url(#pfe017be5cf)" style="fill: none; stroke: #000000; stroke-width: 2; stroke-linecap: round"/>
   </g>
   <g id="line2d_8">
    <path d="M 32.46 80.82 
L 52.002857 80.753878 
L 54.06 80.46 
L 56.117143 79.93102 
L 58.174286 79.166939 
L 60.231429 78.167755 
L 62.288571 76.933469 
L 64.345714 75.464082 
L 66.402857 73.759592 
L 68.974286 71.298367 
L 71.545714 68.469796 
L 74.117143 65.273878 
L 75.66 63.18 
L 75.66 63.18 
L 73.088571 59.763673 
L 70.517143 56.714694 
L 67.945714 54.033061 
L 65.374286 51.718776 
L 63.317143 50.131837 
L 61.26 48.78 
L 59.202857 47.663265 
L 57.145714 46.781633 
L 55.088571 46.135102 
L 53.031429 45.723673 
L 50.974286 45.547347 
L 50.46 45.54 
L 32.46 45.54 
L 32.46 45.54 
L 34.4472 47.7 
L 36.1752 49.86 
L 37.644 52.02 
L 38.8536 54.18 
L 39.804 56.34 
L 40.4952 58.5 
L 40.9272 60.66 
L 41.1 62.82 
L 41.0136 64.98 
L 40.668 67.14 
L 40.0632 69.3 
L 39.1992 71.46 
L 38.076 73.62 
L 36.6936 75.78 
L 35.052 77.94 
L 33.1512 80.1 
L 32.46 80.82 
L 32.46 80.82 
" clip-path="url(#pfe017be5cf)" style="fill: none; stroke: #000000; stroke-width: 2; stroke-linecap: round"/>
   </g>
   <g id="line2d_9">
    <path d="M 27.06 80.82 
L 27.7512 80.1 
L 28.4136 79.38 
L 29.0472 78.66 
L 29.652 77.94 
L 30.228 77.22 
L 30.7752 76.5 
L 31.2936 75.78 
L 31.7832 75.06 
L 32.244 74.34 
L 32.676 73.62 
L 33.0792 72.9 
L 33.4536 72.18 
L 33.7992 71.46 
L 34.116 70.74 
L 34.404 70.02 
L 34.6632 69.3 
L 34.8936 68.58 
L 35.0952 67.86 
L 35.268 67.14 
L 35.412 66.42 
L 35.5272 65.7 
L 35.6136 64.98 
L 35.6712 64.26 
L 35.7 63.54 
L 35.7 62.82 
L 35.6712 62.1 
L 35.6136 61.38 
L 35.5272 60.66 
L 35.412 59.94 
L 35.268 59.22 
L 35.0952 58.5 
L 34.8936 57.78 
L 34.6632 57.06 
L 34.404 56.34 
L 34.116 55.62 
L 33.7992 54.9 
L 33.4536 54.18 
L 33.0792 53.46 
L 32.676 52.74 
L 32.244 52.02 
L 31.7832 51.3 
L 31.2936 50.58 
L 30.7752 49.86 
L 30.228 49.14 
L 29.652 48.42 
L 29.0472 47.7 
L 28.4136 46.98 
L 27.7512 46.26 
L 27.06 45.54 
" clip-path="url(#pfe017be5cf)" style="fill: none; stroke: #000000; stroke-width: 2; stroke-linecap: round"/>
   </g>
   <g id="line2d_10">
    <path d="M 19.86 72.18 
L 33.4536 72.18 
" clip-path="url(#pfe017be5cf)" style="fill: none; stroke: #000000; stroke-width: 2; stroke-linecap: round"/>
   </g>
   <g id="line2d_11">
    <path d="M 19.86 54.18 
L 33.4536 54.18 
" clip-path="url(#pfe017be5cf)" style="fill: none; stroke: #000000; stroke-width: 2; stroke-linecap: round"/>
   </g>
   <g id="line2d_12">
    <path d="M 84.3 63.18 
L 88.26 63.18 
" clip-path="url(#pfe017be5cf)" style="fill: none; stroke: #000000; stroke-width: 2; stroke-linecap: round"/>
   </g>
   <g id="line2d_13">
    <path d="M 91.86 51.93 
L 88.26 51.93 
L 88.26 63.18 
" clip-path="url(#pfe017be5cf)" style="fill: none; stroke: #000000; stroke-width: 2; stroke-linecap: round"/>
   </g>
   <g id="text_1">
    <!-- $\text{Output}$ -->
    <g transform="translate(163.86 46.764688) scale(0.14 -0.14)">
     <defs>
      <path id="DejaVuSans-4f" d="M 2522 4238 
Q 1834 4238 1429 3725 
Q 1025 3213 1025 2328 
Q 1025 1447 1429 934 
Q 1834 422 2522 422 
Q 3209 422 3611 934 
Q 4013 1447 4013 2328 
Q 4013 3213 3611 3725 
Q 3209 4238 2522 4238 
z
M 2522 4750 
Q 3503 4750 4090 4092 
Q 4678 3434 4678 2328 
Q 4678 1225 4090 567 
Q 3503 -91 2522 -91 
Q 1538 -91 948 565 
Q 359 1222 359 2328 
Q 359 3434 948 4092 
Q 1538 4750 2522 4750 
z
" transform="scale(0.015625)"/>
      <path id="DejaVuSans-75" d="M 544 1381 
L 544 3500 
L 1119 3500 
L 1119 1403 
Q 1119 906 1312 657 
Q 1506 409 1894 409 
Q 2359 409 2629 706 
Q 2900 1003 2900 1516 
L 2900 3500 
L 3475 3500 
L 3475 0 
L 2900 0 
L 2900 538 
Q 2691 219 2414 64 
Q 2138 -91 1772 -91 
Q 1169 -91 856 284 
Q 544 659 544 1381 
z
M 1991 3584 
L 1991 3584 
z
" transform="scale(0.015625)"/>
      <path id="DejaVuSans-74" d="M 1172 4494 
L 1172 3500 
L 2356 3500 
L 2356 3053 
L 1172 3053 
L 1172 1153 
Q 1172 725 1289 603 
Q 1406 481 1766 481 
L 2356 481 
L 2356 0 
L 1766 0 
Q 1100 0 847 248 
Q 594 497 594 1153 
L 594 3053 
L 172 3053 
L 172 3500 
L 594 3500 
L 594 4494 
L 1172 4494 
z
" transform="scale(0.015625)"/>
      <path id="DejaVuSans-70" d="M 1159 525 
L 1159 -1331 
L 581 -1331 
L 581 3500 
L 1159 3500 
L 1159 2969 
Q 1341 3281 1617 3432 
Q 1894 3584 2278 3584 
Q 2916 3584 3314 3078 
Q 3713 2572 3713 1747 
Q 3713 922 3314 415 
Q 2916 -91 2278 -91 
Q 1894 -91 1617 61 
Q 1341 213 1159 525 
z
M 3116 1747 
Q 3116 2381 2855 2742 
Q 2594 3103 2138 3103 
Q 1681 3103 1420 2742 
Q 1159 2381 1159 1747 
Q 1159 1113 1420 752 
Q 1681 391 2138 391 
Q 2594 391 2855 752 
Q 3116 1113 3116 1747 
z
" transform="scale(0.015625)"/>
     </defs>
     <use xlink:href="#DejaVuSans-4f" transform="translate(0 0.78125)"/>
     <use xlink:href="#DejaVuSans-75" transform="translate(78.710938 0.78125)"/>
     <use xlink:href="#DejaVuSans-74" transform="translate(142.089844 0.78125)"/>
     <use xlink:href="#DejaVuSans-70" transform="translate(181.298828 0.78125)"/>
     <use xlink:href="#DejaVuSans-75" transform="translate(244.775391 0.78125)"/>
     <use xlink:href="#DejaVuSans-74" transform="translate(308.154297 0.78125)"/>
    </g>
   </g>
   <g id="text_2">
    <!-- a -->
    <g transform="translate(4.080625 26.543125) scale(0.14 -0.14)">
     <defs>
      <path id="DejaVuSans-61" d="M 2194 1759 
Q 1497 1759 1228 1600 
Q 959 1441 959 1056 
Q 959 750 1161 570 
Q 1363 391 1709 391 
Q 2188 391 2477 730 
Q 2766 1069 2766 1631 
L 2766 1759 
L 2194 1759 
z
M 3341 1997 
L 3341 0 
L 2766 0 
L 2766 531 
Q 2569 213 2275 61 
Q 1981 -91 1556 -91 
Q 1019 -91 701 211 
Q 384 513 384 1019 
Q 384 1609 779 1909 
Q 1175 2209 1959 2209 
L 2766 2209 
L 2766 2266 
Q 2766 2663 2505 2880 
Q 2244 3097 1772 3097 
Q 1472 3097 1187 3025 
Q 903 2953 641 2809 
L 641 3341 
Q 956 3463 1253 3523 
Q 1550 3584 1831 3584 
Q 2591 3584 2966 3190 
Q 3341 2797 3341 1997 
z
" transform="scale(0.015625)"/>
     </defs>
     <use xlink:href="#DejaVuSans-61"/>
    </g>
   </g>
   <g id="text_3">
    <!-- b -->
    <g transform="translate(7.372187 58.043125) scale(0.14 -0.14)">
     <defs>
      <path id="DejaVuSans-62" d="M 3116 1747 
Q 3116 2381 2855 2742 
Q 2594 3103 2138 3103 
Q 1681 3103 1420 2742 
Q 1159 2381 1159 1747 
Q 1159 1113 1420 752 
Q 1681 391 2138 391 
Q 2594 391 2855 752 
Q 3116 1113 3116 1747 
z
M 1159 2969 
Q 1341 3281 1617 3432 
Q 1894 3584 2278 3584 
Q 2916 3584 3314 3078 
Q 3713 2572 3713 1747 
Q 3713 922 3314 415 
Q 2916 -91 2278 -91 
Q 1894 -91 1617 61 
Q 1341 213 1159 525 
L 1159 0 
L 581 0 
L 581 4863 
L 1159 4863 
L 1159 2969 
z
" transform="scale(0.015625)"/>
     </defs>
     <use xlink:href="#DejaVuSans-62"/>
    </g>
   </g>
   <g id="text_4">
    <!-- a -->
    <g transform="translate(7.680625 76.043125) scale(0.14 -0.14)">
     <use xlink:href="#DejaVuSans-61"/>
    </g>
   </g>
  </g>
 </g>
 <defs>
  <clipPath id="pfe017be5cf">
   <rect x="0" y="0" width="250.44" height="85.5"/>
  </clipPath>
 </defs>
</svg>
