<svg xmlns="http://www.w3.org/2000/svg" xml:lang="en" height="193.70000000000005pt" width="322.28pt" viewBox="-232.17999999999998 -22.6 322.28 193.70000000000005"><circle cx="-8.28" cy="70.875" r="4.32" style="stroke:black;fill:none;stroke-width:2.0;" /><circle cx="-80.28" cy="20.25" r="4.32" style="stroke:black;fill:none;stroke-width:2.0;" /><circle cx="-168.29999999999998" cy="-0.0" r="4.32" style="stroke:black;fill:none;stroke-width:2.0;" /><circle cx="-152.28000000000003" cy="148.5" r="4.32" style="stroke:black;fill:none;stroke-width:2.0;" /><path d="M -55.80000000000001,88.51500000000001 L -37.80000000000001,88.51500000000001 L -37.2857142857143,88.50765306122449 L -36.77142857142859,88.48561224489796 L -36.257142857142874,88.44887755102042 L -35.742857142857154,88.39744897959184 L -35.22857142857144,88.33132653061224 L -34.71428571428573,88.25051020408164 L -34.20000000000002,88.155 L -33.6857142857143,88.04479591836736 L -33.171428571428585,87.91989795918369 L -32.65714285714287,87.78030612244898 L -32.14285714285715,87.62602040816327 L -31.628571428571444,87.45704081632653 L -31.11428571428573,87.27336734693878 L -30.60000000000002,87.075 L -30.0857142857143,86.8619387755102 L -29.571428571428577,86.6341836734694 L -29.057142857142864,86.39173469387754 L -28.54285714285715,86.13459183673469 L -28.02857142857144,85.86275510204082 L -27.514285714285727,85.57622448979592 L -27.000000000000014,85.27499999999999 L -26.4857142857143,84.95908163265305 L -25.971428571428582,84.6284693877551 L -25.45714285714287,84.28316326530613 L -24.94285714285715,83.92316326530612 L -24.428571428571438,83.54846938775509 L -23.914285714285725,83.15908163265307 L -23.400000000000013,82.755 L -22.8857142857143,82.33622448979592 L -22.371428571428588,81.90275510204083 L -21.857142857142875,81.45459183673469 L -21.342857142857156,80.99173469387755 L -20.828571428571436,80.51418367346939 L -20.314285714285724,80.02193877551021 L -19.80000000000001,79.51500000000001 L -19.2857142857143,78.99336734693878 L -18.771428571428586,78.45704081632653 L -18.257142857142874,77.90602040816326 L -17.74285714285716,77.34030612244898 L -17.22857142857143,76.75989795918366 L -16.71428571428572,76.16479591836735 L -16.200000000000006,75.55499999999999 L -15.685714285714294,74.93051020408163 L -15.171428571428581,74.29132653061224 L -14.657142857142869,73.63744897959184 L -14.142857142857157,72.9688775510204 L -13.628571428571444,72.28561224489796 L -13.114285714285732,71.5876530612245 L -12.600000000000003,70.875 L -12.600000000000003,70.875 L -13.114285714285732,70.1623469387755 L -13.628571428571444,69.46438775510204 L -14.142857142857157,68.7811224489796 L -14.657142857142869,68.11255102040816 L -15.171428571428581,67.45867346938776 L -15.685714285714294,66.81948979591837 L -16.200000000000006,66.19500000000001 L -16.71428571428572,65.58520408163265 L -17.22857142857143,64.99010204081632 L -17.74285714285716,64.40969387755102 L -18.257142857142874,63.843979591836735 L -18.771428571428586,63.29295918367347 L -19.2857142857143,62.75663265306122 L -19.80000000000001,62.23499999999999 L -20.314285714285724,61.72806122448979 L -20.828571428571436,61.23581632653061 L -21.342857142857156,60.75826530612245 L -21.857142857142875,60.29540816326531 L -22.371428571428588,59.847244897959186 L -22.8857142857143,59.41377551020408 L -23.400000000000013,58.995 L -23.914285714285725,58.59091836734694 L -24.428571428571438,58.201530612244895 L -24.94285714285715,57.82683673469387 L -25.45714285714287,57.46683673469387 L -25.971428571428582,57.1215306122449 L -26.4857142857143,56.79091836734693 L -27.000000000000014,56.474999999999994 L -27.514285714285727,56.17377551020408 L -28.02857142857144,55.88724489795918 L -28.54285714285715,55.6154081632653 L -29.057142857142864,55.35826530612245 L -29.571428571428577,55.11581632653061 L -30.0857142857143,54.888061224489796 L -30.60000000000002,54.675 L -31.11428571428573,54.476632653061216 L -31.628571428571444,54.29295918367347 L -32.14285714285715,54.123979591836736 L -32.65714285714287,53.96969387755102 L -33.171428571428585,53.83010204081632 L -33.6857142857143,53.70520408163265 L -34.20000000000002,53.595 L -34.71428571428573,53.499489795918365 L -35.22857142857144,53.418673469387755 L -35.742857142857154,53.35255102040816 L -36.257142857142874,53.30112244897959 L -36.77142857142859,53.264387755102035 L -37.2857142857143,53.242346938775505 L -37.80000000000001,53.23499999999999 L -55.80000000000001,53.23499999999999 L -55.80000000000001,53.23499999999999 L -55.108800000000016,53.95499999999999 L -54.44640000000001,54.675 L -53.81280000000001,55.394999999999996 L -53.208000000000006,56.114999999999995 L -52.632000000000005,56.834999999999994 L -52.08480000000001,57.55499999999999 L -51.566400000000016,58.275 L -51.07680000000001,58.995 L -50.616000000000014,59.714999999999996 L -50.18400000000001,60.435 L -49.780800000000006,61.155 L -49.40640000000001,61.875 L -49.060800000000015,62.595 L -48.744000000000014,63.315 L -48.45600000000001,64.035 L -48.19680000000002,64.755 L -47.96640000000001,65.47500000000001 L -47.764800000000015,66.19500000000001 L -47.59200000000001,66.915 L -47.44800000000001,67.635 L -47.33280000000001,68.355 L -47.24640000000001,69.075 L -47.188800000000015,69.795 L -47.16000000000001,70.515 L -47.16000000000001,71.235 L -47.188800000000015,71.955 L -47.24640000000001,72.675 L -47.33280000000001,73.395 L -47.44800000000001,74.115 L -47.59200000000001,74.835 L -47.764800000000015,75.55499999999999 L -47.96640000000001,76.27499999999999 L -48.19680000000002,76.995 L -48.45600000000001,77.715 L -48.744000000000014,78.435 L -49.06080000000001,79.155 L -49.40640000000001,79.875 L -49.780800000000006,80.595 L -50.18400000000001,81.315 L -50.616000000000014,82.035 L -51.07680000000001,82.755 L -51.566400000000016,83.47500000000001 L -52.08480000000001,84.19500000000001 L -52.632000000000005,84.915 L -53.20800000000001,85.635 L -53.81280000000001,86.355 L -54.44640000000001,87.075 L -55.108800000000016,87.795 L -55.80000000000001,88.51500000000001" style="stroke:black;fill:none;stroke-width:2.0;stroke-linecap:round;stroke-linejoin:round;" /><path d="M -61.20000000000002,88.51500000000001 L -60.50880000000001,87.795 L -59.84640000000001,87.075 L -59.212800000000016,86.355 L -58.60800000000001,85.635 L -58.03200000000001,84.915 L -57.484800000000014,84.19500000000001 L -56.96640000000001,83.47500000000001 L -56.47680000000001,82.755 L -56.01600000000001,82.035 L -55.58400000000002,81.315 L -55.18080000000001,80.595 L -54.80640000000001,79.875 L -54.46080000000001,79.155 L -54.14400000000002,78.435 L -53.856000000000016,77.715 L -53.596800000000016,76.995 L -53.366400000000006,76.27499999999999 L -53.164800000000014,75.55499999999999 L -52.99200000000002,74.835 L -52.84800000000001,74.115 L -52.73280000000001,73.395 L -52.64640000000001,72.675 L -52.58880000000001,71.955 L -52.56000000000002,71.235 L -52.56000000000002,70.515 L -52.58880000000001,69.795 L -52.64640000000001,69.075 L -52.73280000000001,68.355 L -52.84800000000001,67.635 L -52.99200000000002,66.915 L -53.164800000000014,66.19500000000001 L -53.366400000000006,65.47500000000001 L -53.596800000000016,64.755 L -53.856000000000016,64.035 L -54.14400000000002,63.315 L -54.46080000000001,62.595 L -54.80640000000001,61.875 L -55.18080000000001,61.155 L -55.58400000000002,60.435 L -56.01600000000001,59.714999999999996 L -56.47680000000001,58.995 L -56.96640000000001,58.275 L -57.484800000000014,57.55499999999999 L -58.03200000000001,56.834999999999994 L -58.60800000000001,56.114999999999995 L -59.212800000000016,55.394999999999996 L -59.84640000000001,54.675 L -60.50880000000001,53.95499999999999 L -61.20000000000002,53.23499999999999" style="stroke:black;fill:none;stroke-width:2.0;stroke-linecap:round;stroke-linejoin:round;" /><path d="M -68.4,79.875 L -54.80640000000001,79.875" style="stroke:black;fill:none;stroke-width:2.0;stroke-linecap:round;stroke-linejoin:round;" /><path d="M -68.4,61.875 L -54.80640000000001,61.875" style="stroke:black;fill:none;stroke-width:2.0;stroke-linecap:round;stroke-linejoin:round;" /><path d="M -3.9600000000000035,70.875 L 0.0,70.875" style="stroke:black;fill:none;stroke-width:2.0;stroke-linecap:round;stroke-linejoin:round;" /><path d="M -127.80000000000001,37.89000000000001 L -109.80000000000001,37.89000000000001 L -109.28571428571429,37.882653061224495 L -108.77142857142859,37.860612244897965 L -108.25714285714287,37.82387755102041 L -107.74285714285716,37.77244897959184 L -107.22857142857144,37.706326530612245 L -106.71428571428572,37.625510204081635 L -106.2,37.53 L -105.6857142857143,37.41979591836735 L -105.17142857142858,37.29489795918368 L -104.65714285714287,37.15530612244898 L -104.14285714285715,37.001020408163264 L -103.62857142857145,36.83204081632653 L -103.11428571428573,36.648367346938784 L -102.60000000000002,36.45 L -102.0857142857143,36.236938775510204 L -101.57142857142858,36.00918367346939 L -101.05714285714286,35.76673469387755 L -100.54285714285716,35.5095918367347 L -100.02857142857144,35.23775510204082 L -99.51428571428573,34.95122448979592 L -99.00000000000001,34.650000000000006 L -98.48571428571431,34.33408163265307 L -97.97142857142858,34.0034693877551 L -97.45714285714286,33.65816326530613 L -96.94285714285715,33.29816326530613 L -96.42857142857144,32.923469387755105 L -95.91428571428573,32.53408163265306 L -95.4,32.13 L -94.8857142857143,31.71122448979592 L -94.3714285714286,31.277755102040818 L -93.85714285714288,30.829591836734696 L -93.34285714285716,30.366734693877554 L -92.82857142857144,29.88918367346939 L -92.31428571428572,29.396938775510208 L -91.80000000000001,28.890000000000004 L -91.28571428571429,28.368367346938776 L -90.77142857142859,27.832040816326533 L -90.25714285714287,27.281020408163265 L -89.74285714285716,26.715306122448986 L -89.22857142857143,26.134897959183675 L -88.71428571428572,25.539795918367346 L -88.2,24.93 L -87.6857142857143,24.305510204081635 L -87.17142857142858,23.666326530612242 L -86.65714285714287,23.012448979591838 L -86.14285714285715,22.343877551020405 L -85.62857142857145,21.660612244897962 L -85.11428571428573,20.962653061224493 L -84.60000000000001,20.25 L -84.60000000000001,20.25 L -85.11428571428573,19.537346938775507 L -85.62857142857145,18.839387755102038 L -86.14285714285715,18.156122448979595 L -86.65714285714287,17.487551020408162 L -87.17142857142858,16.833673469387755 L -87.6857142857143,16.194489795918365 L -88.2,15.57 L -88.71428571428572,14.960204081632652 L -89.22857142857143,14.365102040816327 L -89.74285714285716,13.784693877551017 L -90.25714285714287,13.218979591836735 L -90.77142857142859,12.667959183673467 L -91.28571428571429,12.131632653061223 L -91.80000000000001,11.609999999999996 L -92.31428571428572,11.103061224489794 L -92.82857142857144,10.61081632653061 L -93.34285714285716,10.133265306122448 L -93.85714285714288,9.670408163265304 L -94.3714285714286,9.22224489795918 L -94.8857142857143,8.78877551020408 L -95.4,8.369999999999997 L -95.91428571428573,7.965918367346935 L -96.42857142857144,7.576530612244894 L -96.94285714285715,7.201836734693873 L -97.45714285714286,6.841836734693874 L -97.97142857142858,6.496530612244895 L -98.48571428571431,6.1659183673469355 L -99.00000000000001,5.849999999999997 L -99.51428571428573,5.548775510204079 L -100.02857142857144,5.26224489795918 L -100.54285714285716,4.990408163265303 L -101.05714285714286,4.733265306122447 L -101.57142857142858,4.490816326530609 L -102.0857142857143,4.2630612244897925 L -102.60000000000002,4.049999999999997 L -103.11428571428573,3.8516326530612215 L -103.62857142857145,3.6679591836734664 L -104.14285714285715,3.498979591836732 L -104.65714285714287,3.3446938775510175 L -105.17142857142858,3.205102040816322 L -105.6857142857143,3.0802040816326492 L -106.2,2.9699999999999966 L -106.71428571428572,2.874489795918363 L -107.22857142857144,2.793673469387752 L -107.74285714285716,2.7275510204081588 L -108.25714285714287,2.676122448979589 L -108.77142857142859,2.6393877551020375 L -109.28571428571429,2.6173469387755066 L -109.80000000000001,2.6099999999999963 L -127.80000000000001,2.6099999999999963 L -127.80000000000001,2.6099999999999963 L -127.1088,3.329999999999997 L -126.44640000000001,4.049999999999997 L -125.81280000000002,4.769999999999998 L -125.20800000000001,5.489999999999998 L -124.632,6.209999999999999 L -124.08480000000002,6.929999999999996 L -123.56640000000002,7.649999999999997 L -123.0768,8.369999999999997 L -122.61600000000001,9.089999999999998 L -122.184,9.809999999999999 L -121.78080000000001,10.53 L -121.4064,11.25 L -121.06080000000001,11.969999999999997 L -120.744,12.689999999999998 L -120.456,13.409999999999998 L -120.19680000000001,14.129999999999999 L -119.96640000000001,14.85 L -119.76480000000001,15.57 L -119.592,16.29 L -119.44800000000002,17.01 L -119.33280000000002,17.73 L -119.24640000000001,18.45 L -119.18880000000001,19.169999999999998 L -119.16000000000003,19.89 L -119.16000000000003,20.61 L -119.18880000000001,21.330000000000002 L -119.24640000000001,22.05 L -119.33280000000002,22.770000000000003 L -119.44800000000002,23.490000000000002 L -119.592,24.210000000000004 L -119.76480000000001,24.93 L -119.96640000000001,25.650000000000002 L -120.19680000000001,26.37 L -120.456,27.090000000000003 L -120.744,27.810000000000002 L -121.0608,28.53 L -121.4064,29.25 L -121.78080000000001,29.97 L -122.184,30.69 L -122.61600000000001,31.410000000000004 L -123.0768,32.13 L -123.56640000000002,32.85 L -124.08480000000002,33.57000000000001 L -124.632,34.290000000000006 L -125.20800000000003,35.010000000000005 L -125.81280000000002,35.730000000000004 L -126.44640000000001,36.45 L -127.1088,37.17000000000001 L -127.80000000000001,37.89000000000001" style="stroke:black;fill:none;stroke-width:2.0;stroke-linecap:round;stroke-linejoin:round;" /><path d="M -140.4,29.25 L -121.4064,29.25" style="stroke:black;fill:none;stroke-width:2.0;stroke-linecap:round;stroke-linejoin:round;" /><path d="M -140.4,11.25 L -121.4064,11.25" style="stroke:black;fill:none;stroke-width:2.0;stroke-linecap:round;stroke-linejoin:round;" /><path d="M -75.96000000000001,20.25 L -72.0,20.25" style="stroke:black;fill:none;stroke-width:2.0;stroke-linecap:round;stroke-linejoin:round;" /><path d="M -216.0,-0.0 L -196.02,-0.0 M -163.98,-0.0 L -144.0,-0.0" style="stroke:black;fill:none;stroke-width:2.0;stroke-linecap:round;stroke-linejoin:round;" /><path d="M -196.02,-18.0 L -172.62,-0.0 L -196.02,18.0 L -196.02,-18.0" style="stroke:black;fill:none;stroke-width:2.0;stroke-linecap:round;stroke-linejoin:round;" /><path d="M -140.4,11.25 L -144.0,11.25 L -144.0,-0.0" style="stroke:black;fill:none;stroke-width:2;stroke-linecap:round;stroke-linejoin:round;" /><path d="M -174.6,58.5 L -173.44673604034716,58.46301706950605 L -172.2982110896789,58.352220248818426 L -171.1591446833753,58.168064825839174 L -170.03421748962887,57.91130753470253 L -168.9280520755748,57.58300344619204 L -167.84519391217128,57.18450163222839 L -166.79009269588394,56.717439622243546 L -165.76708406392913,56.18373667422101 L -164.7803717782101,55.58558588805314 L -163.83401045115812,54.925445193623226 L -162.9318888844598,54.20602725064442 L -162.07771408913723,53.4302883017591 L -161.27499605264433,52.60141602470371 L -160.52703331557547,51.7228164334572 L -159.8368994172548,50.798099882199054 L -159.20743026590378,49.83106622958945 L -158.641212485286,48.825689224335036 L -158.14057278571536,47.786100176203085 L -157.70756840310432,46.71657097958354 L -157.34397864534012,45.62149655935858 L -157.05129758072718,44.50537681121366 L -156.8307278985399,43.372798110600826 L -156.6831759669144,42.22841446633828 L -156.60924810838762,41.0769283962898 L -156.60924810838762,39.92307160371021 L -156.6831759669144,38.771585533661735 L -156.8307278985399,37.627201889399174 L -157.05129758072718,36.49462318878634 L -157.34397864534012,35.37850344064142 L -157.70756840310432,34.28342902041646 L -158.14057278571536,33.213899823796915 L -158.641212485286,32.174310775664964 L -159.20743026590378,31.16893377041055 L -159.8368994172548,30.20190011780095 L -160.52703331557547,29.2771835665428 L -161.27499605264433,28.3985839752963 L -162.07771408913723,27.5697116982409 L -162.9318888844598,26.793972749355586 L -163.83401045115812,26.07455480637678 L -164.7803717782101,25.414414111946872 L -165.76708406392913,24.81626332577899 L -166.79009269588394,24.282560377756457 L -167.84519391217128,23.81549836777161 L -168.9280520755748,23.416996553807966 L -170.03421748962887,23.08869246529747 L -171.1591446833753,22.831935174160826 L -172.2982110896789,22.64777975118157 L -173.44673604034716,22.536982930493945 L -174.6,22.5 L -174.6,22.5 L -198.0,22.5 L -198.0,40.5 L -198.0,58.5 L -174.6,58.5" style="stroke:black;fill:none;stroke-width:2.0;stroke-linecap:round;stroke-linejoin:round;" /><path d="M -210.6,49.5 L -198.0,49.5" style="stroke:black;fill:none;stroke-width:2.0;stroke-linecap:round;stroke-linejoin:round;" /><path d="M -210.6,31.5 L -198.0,31.5" style="stroke:black;fill:none;stroke-width:2.0;stroke-linecap:round;stroke-linejoin:round;" /><path d="M -156.6,40.5 L -144.0,40.5" style="stroke:black;fill:none;stroke-width:2.0;stroke-linecap:round;stroke-linejoin:round;" /><path d="M -140.4,29.25 L -144.0,29.25 L -144.0,40.5" style="stroke:black;fill:none;stroke-width:2;stroke-linecap:round;stroke-linejoin:round;" /><path d="M -68.4,61.875 L -72.0,61.875 L -72.0,20.25" style="stroke:black;fill:none;stroke-width:2;stroke-linecap:round;stroke-linejoin:round;" /><path d="M -127.80000000000001,139.14000000000001 L -109.80000000000001,139.14000000000001 L -109.28571428571429,139.1326530612245 L -108.77142857142859,139.11061224489796 L -108.25714285714287,139.07387755102042 L -107.74285714285716,139.02244897959184 L -107.22857142857144,138.95632653061224 L -106.71428571428572,138.87551020408165 L -106.2,138.78 L -105.6857142857143,138.66979591836736 L -105.17142857142858,138.5448979591837 L -104.65714285714287,138.405306122449 L -104.14285714285715,138.25102040816327 L -103.62857142857145,138.08204081632653 L -103.11428571428573,137.89836734693878 L -102.60000000000002,137.70000000000002 L -102.0857142857143,137.4869387755102 L -101.57142857142858,137.25918367346938 L -101.05714285714286,137.01673469387754 L -100.54285714285716,136.7595918367347 L -100.02857142857144,136.4877551020408 L -99.51428571428573,136.20122448979592 L -99.00000000000001,135.9 L -98.48571428571431,135.58408163265307 L -97.97142857142858,135.2534693877551 L -97.45714285714286,134.90816326530611 L -96.94285714285715,134.54816326530613 L -96.42857142857144,134.1734693877551 L -95.91428571428573,133.78408163265306 L -95.4,133.38 L -94.8857142857143,132.96122448979594 L -94.3714285714286,132.52775510204083 L -93.85714285714288,132.0795918367347 L -93.34285714285716,131.61673469387756 L -92.82857142857144,131.1391836734694 L -92.31428571428572,130.6469387755102 L -91.80000000000001,130.14000000000001 L -91.28571428571429,129.61836734693878 L -90.77142857142859,129.08204081632653 L -90.25714285714287,128.53102040816327 L -89.74285714285716,127.96530612244898 L -89.22857142857143,127.38489795918366 L -88.71428571428572,126.78979591836735 L -88.2,126.17999999999999 L -87.6857142857143,125.55551020408163 L -87.17142857142858,124.91632653061224 L -86.65714285714287,124.26244897959184 L -86.14285714285715,123.5938775510204 L -85.62857142857145,122.91061224489796 L -85.11428571428573,122.21265306122449 L -84.60000000000001,121.5 L -84.60000000000001,121.5 L -85.11428571428573,120.78734693877551 L -85.62857142857145,120.08938775510204 L -86.14285714285715,119.4061224489796 L -86.65714285714287,118.73755102040816 L -87.17142857142858,118.08367346938776 L -87.6857142857143,117.44448979591837 L -88.2,116.82000000000001 L -88.71428571428572,116.21020408163265 L -89.22857142857143,115.61510204081634 L -89.74285714285716,115.03469387755102 L -90.25714285714287,114.46897959183674 L -90.77142857142859,113.91795918367347 L -91.28571428571429,113.38163265306122 L -91.80000000000001,112.85999999999999 L -92.31428571428572,112.35306122448979 L -92.82857142857144,111.86081632653061 L -93.34285714285716,111.38326530612245 L -93.85714285714288,110.92040816326531 L -94.3714285714286,110.47224489795917 L -94.8857142857143,110.03877551020408 L -95.4,109.62 L -95.91428571428573,109.21591836734693 L -96.42857142857144,108.82653061224491 L -96.94285714285715,108.45183673469388 L -97.45714285714286,108.09183673469387 L -97.97142857142858,107.7465306122449 L -98.48571428571431,107.41591836734695 L -99.00000000000001,107.10000000000001 L -99.51428571428573,106.79877551020408 L -100.02857142857144,106.51224489795918 L -100.54285714285716,106.24040816326531 L -101.05714285714286,105.98326530612246 L -101.57142857142858,105.7408163265306 L -102.0857142857143,105.5130612244898 L -102.60000000000002,105.3 L -103.11428571428573,105.10163265306122 L -103.62857142857145,104.91795918367347 L -104.14285714285715,104.74897959183673 L -104.65714285714287,104.59469387755102 L -105.17142857142858,104.45510204081631 L -105.6857142857143,104.33020408163264 L -106.2,104.22 L -106.71428571428572,104.12448979591836 L -107.22857142857144,104.04367346938776 L -107.74285714285716,103.97755102040816 L -108.25714285714287,103.92612244897958 L -108.77142857142859,103.88938775510204 L -109.28571428571429,103.86734693877551 L -109.80000000000001,103.85999999999999 L -127.80000000000001,103.85999999999999 L -127.80000000000001,103.85999999999999 L -127.1088,104.58 L -126.44640000000001,105.3 L -125.81280000000002,106.02 L -125.20800000000001,106.74 L -124.632,107.46 L -124.08480000000002,108.17999999999999 L -123.56640000000002,108.89999999999999 L -123.0768,109.62 L -122.61600000000001,110.34 L -122.184,111.06 L -121.78080000000001,111.78 L -121.4064,112.5 L -121.06080000000001,113.22 L -120.744,113.94 L -120.456,114.66 L -120.19680000000001,115.38 L -119.96640000000001,116.10000000000001 L -119.76480000000001,116.82000000000001 L -119.592,117.54 L -119.44800000000002,118.26 L -119.33280000000002,118.98 L -119.24640000000001,119.7 L -119.18880000000001,120.41999999999999 L -119.16000000000003,121.14000000000001 L -119.16000000000003,121.85999999999999 L -119.18880000000001,122.58000000000001 L -119.24640000000001,123.3 L -119.33280000000002,124.02 L -119.44800000000002,124.74 L -119.592,125.46 L -119.76480000000001,126.17999999999999 L -119.96640000000001,126.89999999999999 L -120.19680000000001,127.62 L -120.456,128.34 L -120.744,129.06 L -121.0608,129.78 L -121.4064,130.5 L -121.78080000000001,131.22 L -122.184,131.94 L -122.61600000000001,132.66 L -123.0768,133.38 L -123.56640000000002,134.1 L -124.08480000000002,134.82 L -124.632,135.54 L -125.20800000000003,136.26 L -125.81280000000002,136.98000000000002 L -126.44640000000001,137.70000000000002 L -127.1088,138.42000000000002 L -127.80000000000001,139.14000000000001" style="stroke:black;fill:none;stroke-width:2.0;stroke-linecap:round;stroke-linejoin:round;" /><path d="M -133.20000000000002,139.14000000000001 L -132.5088,138.42000000000002 L -131.84640000000002,137.70000000000002 L -131.21280000000002,136.98000000000002 L -130.608,136.26 L -130.032,135.54 L -129.4848,134.82 L -128.96640000000002,134.1 L -128.47680000000003,133.38 L -128.016,132.66 L -127.58400000000002,131.94 L -127.18080000000002,131.22 L -126.80640000000001,130.5 L -126.4608,129.78 L -126.14400000000002,129.06 L -125.85600000000002,128.34 L -125.59680000000002,127.62 L -125.3664,126.89999999999999 L -125.16480000000001,126.17999999999999 L -124.99200000000002,125.46 L -124.84800000000001,124.74 L -124.73280000000001,124.02 L -124.6464,123.3 L -124.5888,122.58000000000001 L -124.56000000000002,121.85999999999999 L -124.56000000000002,121.14000000000001 L -124.5888,120.41999999999999 L -124.6464,119.7 L -124.73280000000001,118.98 L -124.84800000000001,118.26 L -124.99200000000002,117.54 L -125.16480000000001,116.82000000000001 L -125.3664,116.10000000000001 L -125.59680000000002,115.38 L -125.85600000000002,114.66 L -126.14400000000002,113.94 L -126.4608,113.22 L -126.80640000000001,112.5 L -127.18080000000002,111.78 L -127.58400000000002,111.06 L -128.016,110.34 L -128.47680000000003,109.62 L -128.96640000000002,108.89999999999999 L -129.4848,108.17999999999999 L -130.032,107.46 L -130.608,106.74 L -131.21280000000002,106.02 L -131.84640000000002,105.3 L -132.5088,104.58 L -133.20000000000002,103.85999999999999" style="stroke:black;fill:none;stroke-width:2.0;stroke-linecap:round;stroke-linejoin:round;" /><path d="M -140.4,130.5 L -126.80640000000001,130.5" style="stroke:black;fill:none;stroke-width:2.0;stroke-linecap:round;stroke-linejoin:round;" /><path d="M -140.4,112.5 L -126.80640000000001,112.5" style="stroke:black;fill:none;stroke-width:2.0;stroke-linecap:round;stroke-linejoin:round;" /><path d="M -84.60000000000001,121.5 L -72.0,121.5" style="stroke:black;fill:none;stroke-width:2.0;stroke-linecap:round;stroke-linejoin:round;" /><path d="M -199.8,112.14000000000001 L -181.8,112.14000000000001 L -181.2857142857143,112.13265306122449 L -180.7714285714286,112.11061224489796 L -180.2571428571429,112.07387755102042 L -179.74285714285713,112.02244897959184 L -179.22857142857143,111.95632653061224 L -178.71428571428572,111.87551020408164 L -178.20000000000002,111.78 L -177.68571428571428,111.66979591836736 L -177.17142857142858,111.54489795918369 L -176.65714285714287,111.40530612244898 L -176.14285714285717,111.25102040816327 L -175.62857142857143,111.08204081632653 L -175.11428571428573,110.89836734693878 L -174.60000000000002,110.7 L -174.08571428571432,110.4869387755102 L -173.57142857142856,110.2591836734694 L -173.05714285714285,110.01673469387754 L -172.54285714285714,109.75959183673469 L -172.0285714285714,109.48775510204082 L -171.5142857142857,109.20122448979592 L -171.0,108.89999999999999 L -170.4857142857143,108.58408163265305 L -169.9714285714286,108.2534693877551 L -169.45714285714286,107.90816326530613 L -168.94285714285715,107.54816326530612 L -168.42857142857144,107.17346938775509 L -167.9142857142857,106.78408163265307 L -167.4,106.38 L -166.8857142857143,105.96122448979592 L -166.3714285714286,105.52775510204083 L -165.8571428571429,105.07959183673469 L -165.34285714285716,104.61673469387755 L -164.82857142857145,104.13918367346939 L -164.31428571428575,103.64693877551021 L -163.8,103.14000000000001 L -163.2857142857143,102.61836734693878 L -162.7714285714286,102.08204081632653 L -162.2571428571429,101.53102040816326 L -161.7428571428572,100.96530612244898 L -161.22857142857143,100.38489795918366 L -160.71428571428572,99.78979591836735 L -160.20000000000002,99.17999999999999 L -159.68571428571428,98.55551020408163 L -159.17142857142858,97.91632653061224 L -158.65714285714287,97.26244897959184 L -158.14285714285717,96.5938775510204 L -157.62857142857143,95.91061224489796 L -157.11428571428573,95.21265306122449 L -156.6,94.5 L -156.6,94.5 L -157.11428571428573,93.78734693877551 L -157.62857142857143,93.08938775510204 L -158.14285714285717,92.4061224489796 L -158.65714285714287,91.73755102040816 L -159.17142857142858,91.08367346938776 L -159.68571428571428,90.44448979591837 L -160.20000000000002,89.82000000000001 L -160.71428571428572,89.21020408163265 L -161.22857142857143,88.61510204081634 L -161.7428571428572,88.03469387755102 L -162.2571428571429,87.46897959183674 L -162.7714285714286,86.91795918367347 L -163.2857142857143,86.38163265306122 L -163.8,85.85999999999999 L -164.31428571428575,85.35306122448979 L -164.82857142857145,84.86081632653061 L -165.34285714285716,84.38326530612245 L -165.8571428571429,83.92040816326531 L -166.3714285714286,83.47224489795917 L -166.8857142857143,83.03877551020408 L -167.4,82.62 L -167.9142857142857,82.21591836734693 L -168.42857142857144,81.82653061224491 L -168.94285714285715,81.45183673469388 L -169.45714285714286,81.09183673469387 L -169.9714285714286,80.7465306122449 L -170.4857142857143,80.41591836734695 L -171.0,80.10000000000001 L -171.5142857142857,79.79877551020408 L -172.0285714285714,79.51224489795918 L -172.54285714285714,79.24040816326531 L -173.05714285714285,78.98326530612246 L -173.57142857142856,78.7408163265306 L -174.08571428571432,78.5130612244898 L -174.60000000000002,78.3 L -175.11428571428573,78.10163265306122 L -175.62857142857143,77.91795918367347 L -176.14285714285717,77.74897959183673 L -176.65714285714287,77.59469387755102 L -177.17142857142858,77.45510204081631 L -177.68571428571428,77.33020408163264 L -178.20000000000002,77.22 L -178.71428571428572,77.12448979591836 L -179.22857142857143,77.04367346938776 L -179.74285714285713,76.97755102040816 L -180.2571428571429,76.92612244897958 L -180.7714285714286,76.88938775510204 L -181.2857142857143,76.86734693877551 L -181.8,76.85999999999999 L -199.8,76.85999999999999 L -199.8,76.85999999999999 L -199.1088,77.58 L -198.4464,78.3 L -197.8128,79.02 L -197.208,79.74 L -196.632,80.46 L -196.08480000000003,81.17999999999999 L -195.56640000000002,81.89999999999999 L -195.0768,82.62 L -194.616,83.34 L -194.184,84.06 L -193.78080000000003,84.78 L -193.40640000000002,85.5 L -193.0608,86.22 L -192.744,86.94 L -192.45600000000002,87.66 L -192.19680000000002,88.38 L -191.9664,89.10000000000001 L -191.7648,89.82000000000001 L -191.592,90.54 L -191.448,91.26 L -191.3328,91.98 L -191.2464,92.7 L -191.18880000000001,93.41999999999999 L -191.16000000000003,94.14000000000001 L -191.16000000000003,94.85999999999999 L -191.18880000000001,95.58000000000001 L -191.2464,96.3 L -191.3328,97.02 L -191.448,97.74 L -191.592,98.46 L -191.7648,99.17999999999999 L -191.9664,99.89999999999999 L -192.19680000000002,100.62 L -192.45600000000002,101.34 L -192.744,102.06 L -193.0608,102.78 L -193.40640000000002,103.5 L -193.78080000000003,104.22 L -194.184,104.94 L -194.616,105.66 L -195.0768,106.38 L -195.56640000000002,107.10000000000001 L -196.08480000000003,107.82000000000001 L -196.632,108.54 L -197.20800000000003,109.26 L -197.8128,109.98 L -198.4464,110.7 L -199.1088,111.42 L -199.8,112.14000000000001" style="stroke:black;fill:none;stroke-width:2.0;stroke-linecap:round;stroke-linejoin:round;" /><path d="M -212.4,103.5 L -193.40640000000002,103.5" style="stroke:black;fill:none;stroke-width:2.0;stroke-linecap:round;stroke-linejoin:round;" /><path d="M -212.4,85.5 L -193.40640000000002,85.5" style="stroke:black;fill:none;stroke-width:2.0;stroke-linecap:round;stroke-linejoin:round;" /><path d="M -156.6,94.5 L -144.0,94.5" style="stroke:black;fill:none;stroke-width:2.0;stroke-linecap:round;stroke-linejoin:round;" /><path d="M -140.4,112.5 L -144.0,112.5 L -144.0,94.5" style="stroke:black;fill:none;stroke-width:2;stroke-linecap:round;stroke-linejoin:round;" /><path d="M -174.6,166.5 L -173.44673604034716,166.46301706950607 L -172.2982110896789,166.35222024881844 L -171.1591446833753,166.16806482583917 L -170.03421748962887,165.91130753470253 L -168.9280520755748,165.58300344619204 L -167.84519391217128,165.18450163222838 L -166.79009269588394,164.71743962224355 L -165.76708406392913,164.183736674221 L -164.7803717782101,163.58558588805312 L -163.83401045115812,162.9254451936232 L -162.9318888844598,162.2060272506444 L -162.07771408913723,161.4302883017591 L -161.27499605264433,160.6014160247037 L -160.52703331557547,159.7228164334572 L -159.8368994172548,158.79809988219904 L -159.20743026590378,157.83106622958945 L -158.641212485286,156.82568922433506 L -158.14057278571536,155.7861001762031 L -157.70756840310432,154.71657097958354 L -157.34397864534012,153.62149655935858 L -157.05129758072718,152.50537681121367 L -156.8307278985399,151.37279811060083 L -156.6831759669144,150.22841446633828 L -156.60924810838762,149.0769283962898 L -156.60924810838762,147.9230716037102 L -156.6831759669144,146.77158553366172 L -156.8307278985399,145.62720188939917 L -157.05129758072718,144.49462318878633 L -157.34397864534012,143.37850344064142 L -157.70756840310432,142.28342902041646 L -158.14057278571536,141.2138998237969 L -158.641212485286,140.17431077566496 L -159.20743026590378,139.16893377041055 L -159.8368994172548,138.20190011780096 L -160.52703331557547,137.2771835665428 L -161.27499605264433,136.3985839752963 L -162.07771408913723,135.5697116982409 L -162.9318888844598,134.7939727493556 L -163.83401045115812,134.0745548063768 L -164.7803717782101,133.41441411194688 L -165.76708406392913,132.816263325779 L -166.79009269588394,132.28256037775645 L -167.84519391217128,131.8154983677716 L -168.9280520755748,131.41699655380796 L -170.03421748962887,131.08869246529747 L -171.1591446833753,130.83193517416083 L -172.2982110896789,130.64777975118156 L -173.44673604034716,130.53698293049393 L -174.6,130.5 L -174.6,130.5 L -198.0,130.5 L -198.0,148.5 L -198.0,166.5 L -174.6,166.5" style="stroke:black;fill:none;stroke-width:2.0;stroke-linecap:round;stroke-linejoin:round;" /><path d="M -210.6,157.5 L -198.0,157.5" style="stroke:black;fill:none;stroke-width:2.0;stroke-linecap:round;stroke-linejoin:round;" /><path d="M -210.6,139.5 L -198.0,139.5" style="stroke:black;fill:none;stroke-width:2.0;stroke-linecap:round;stroke-linejoin:round;" /><path d="M -147.96,148.5 L -144.0,148.5" style="stroke:black;fill:none;stroke-width:2.0;stroke-linecap:round;stroke-linejoin:round;" /><path d="M -140.4,130.5 L -144.0,130.5 L -144.0,148.5" style="stroke:black;fill:none;stroke-width:2;stroke-linecap:round;stroke-linejoin:round;" /><path d="M -68.4,79.875 L -72.0,79.875 L -72.0,121.5" style="stroke:black;fill:none;stroke-width:2;stroke-linecap:round;stroke-linejoin:round;" /><text x="3.600000000000003" y="65.27499999999999" fill="black" font-size="14.0" font-family="sans" text-anchor="start"><tspan x="3.600000000000003" dy="14.0">\text{Output}</tspan></text><text x="-219.6" y="-5.6000000000000005" fill="black" font-size="14.0" font-family="sans" text-anchor="end"><tspan x="-219.6" dy="14.0">a</tspan></text><text x="-214.20000000000002" y="25.9" fill="black" font-size="14.0" font-family="sans" text-anchor="end"><tspan x="-214.20000000000002" dy="14.0">b</tspan></text><text x="-214.20000000000002" y="43.9" fill="black" font-size="14.0" font-family="sans" text-anchor="end"><tspan x="-214.20000000000002" dy="14.0">b</tspan></text><text x="-216.0" y="79.89999999999999" fill="black" font-size="14.0" font-family="sans" text-anchor="end"><tspan x="-216.0" dy="14.0">a</tspan></text><text x="-216.0" y="97.89999999999999" fill="black" font-size="14.0" font-family="sans" text-anchor="end"><tspan x="-216.0" dy="14.0">a</tspan></text><text x="-214.20000000000002" y="133.9" fill="black" font-size="14.0" font-family="sans" text-anchor="end"><tspan x="-214.20000000000002" dy="14.0">a</tspan></text><text x="-214.20000000000002" y="151.9" fill="black" font-size="14.0" font-family="sans" text-anchor="end"><tspan x="-214.20000000000002" dy="14.0">a</tspan></text></svg>