<svg xmlns="http://www.w3.org/2000/svg" xml:lang="en" height="85.34pt" width="250.27999999999997pt" viewBox="-160.17999999999998 -8.740000000000004 250.27999999999997 85.34"><circle cx="-8.28" cy="33.75" r="4.32" style="stroke:black;fill:none;stroke-width:2.0;" /><circle cx="-80.28" cy="13.5" r="4.32" style="stroke:black;fill:none;stroke-width:2.0;" /><circle cx="-96.3" cy="54.0" r="4.32" style="stroke:black;fill:none;stroke-width:2.0;" /><path d="M -55.80000000000001,51.39000000000001 L -37.80000000000001,51.39000000000001 L -37.2857142857143,51.382653061224495 L -36.77142857142859,51.360612244897965 L -36.257142857142874,51.32387755102041 L -35.742857142857154,51.27244897959184 L -35.22857142857144,51.206326530612245 L -34.71428571428573,51.125510204081635 L -34.20000000000002,51.03 L -33.6857142857143,50.91979591836735 L -33.171428571428585,50.79489795918368 L -32.65714285714287,50.65530612244898 L -32.14285714285715,50.501020408163264 L -31.628571428571444,50.33204081632653 L -31.11428571428573,50.148367346938784 L -30.60000000000002,49.95 L -30.0857142857143,49.736938775510204 L -29.571428571428577,49.50918367346939 L -29.057142857142864,49.26673469387755 L -28.54285714285715,49.0095918367347 L -28.02857142857144,48.73775510204082 L -27.514285714285727,48.45122448979592 L -27.000000000000014,48.150000000000006 L -26.4857142857143,47.83408163265307 L -25.971428571428582,47.5034693877551 L -25.45714285714287,47.15816326530613 L -24.94285714285715,46.79816326530613 L -24.428571428571438,46.423469387755105 L -23.914285714285725,46.03408163265306 L -23.400000000000013,45.63 L -22.8857142857143,45.21122448979592 L -22.371428571428588,44.777755102040814 L -21.857142857142875,44.32959183673469 L -21.342857142857156,43.86673469387755 L -20.828571428571436,43.38918367346939 L -20.314285714285724,42.89693877551021 L -19.80000000000001,42.39000000000001 L -19.2857142857143,41.86836734693878 L -18.771428571428586,41.33204081632653 L -18.257142857142874,40.781020408163265 L -17.74285714285716,40.215306122448986 L -17.22857142857143,39.634897959183675 L -16.71428571428572,39.039795918367346 L -16.200000000000006,38.42999999999999 L -15.685714285714294,37.805510204081635 L -15.171428571428581,37.16632653061224 L -14.657142857142869,36.51244897959184 L -14.142857142857157,35.843877551020405 L -13.628571428571444,35.16061224489796 L -13.114285714285732,34.46265306122449 L -12.600000000000003,33.75 L -12.600000000000003,33.75 L -13.114285714285732,33.03734693877551 L -13.628571428571444,32.33938775510204 L -14.142857142857157,31.656122448979595 L -14.657142857142869,30.987551020408162 L -15.171428571428581,30.333673469387758 L -15.685714285714294,29.694489795918365 L -16.200000000000006,29.07 L -16.71428571428572,28.460204081632654 L -17.22857142857143,27.865102040816325 L -17.74285714285716,27.284693877551014 L -18.257142857142874,26.718979591836735 L -18.771428571428586,26.167959183673467 L -19.2857142857143,25.631632653061224 L -19.80000000000001,25.109999999999996 L -20.314285714285724,24.603061224489792 L -20.828571428571436,24.11081632653061 L -21.342857142857156,23.633265306122446 L -21.857142857142875,23.170408163265304 L -22.371428571428588,22.722244897959182 L -22.8857142857143,22.28877551020408 L -23.400000000000013,21.869999999999997 L -23.914285714285725,21.465918367346937 L -24.428571428571438,21.076530612244895 L -24.94285714285715,20.701836734693874 L -25.45714285714287,20.34183673469387 L -25.971428571428582,19.996530612244893 L -26.4857142857143,19.665918367346933 L -27.000000000000014,19.349999999999994 L -27.514285714285727,19.048775510204077 L -28.02857142857144,18.762244897959178 L -28.54285714285715,18.490408163265304 L -29.057142857142864,18.233265306122448 L -29.571428571428577,17.99081632653061 L -30.0857142857143,17.763061224489793 L -30.60000000000002,17.549999999999997 L -31.11428571428573,17.351632653061223 L -31.628571428571444,17.167959183673467 L -32.14285714285715,16.998979591836733 L -32.65714285714287,16.844693877551016 L -33.171428571428585,16.70510204081632 L -33.6857142857143,16.580204081632647 L -34.20000000000002,16.469999999999995 L -34.71428571428573,16.374489795918365 L -35.22857142857144,16.293673469387752 L -35.742857142857154,16.22755102040816 L -36.257142857142874,16.17612244897959 L -36.77142857142859,16.13938775510204 L -37.2857142857143,16.117346938775505 L -37.80000000000001,16.109999999999996 L -55.80000000000001,16.109999999999996 L -55.80000000000001,16.109999999999996 L -55.108800000000016,16.83 L -54.44640000000001,17.549999999999997 L -53.81280000000001,18.27 L -53.208000000000006,18.99 L -52.632000000000005,19.71 L -52.08480000000001,20.429999999999996 L -51.566400000000016,21.15 L -51.07680000000001,21.869999999999997 L -50.616000000000014,22.589999999999996 L -50.18400000000001,23.31 L -49.780800000000006,24.03 L -49.40640000000001,24.75 L -49.060800000000015,25.469999999999995 L -48.744000000000014,26.189999999999998 L -48.45600000000001,26.909999999999997 L -48.19680000000002,27.63 L -47.96640000000001,28.349999999999998 L -47.764800000000015,29.07 L -47.59200000000001,29.79 L -47.44800000000001,30.51 L -47.33280000000001,31.23 L -47.24640000000001,31.95 L -47.188800000000015,32.67 L -47.16000000000001,33.39 L -47.16000000000001,34.11 L -47.188800000000015,34.83 L -47.24640000000001,35.550000000000004 L -47.33280000000001,36.27 L -47.44800000000001,36.99 L -47.59200000000001,37.71 L -47.764800000000015,38.42999999999999 L -47.96640000000001,39.15 L -48.19680000000002,39.87 L -48.45600000000001,40.589999999999996 L -48.744000000000014,41.31 L -49.06080000000001,42.03 L -49.40640000000001,42.75 L -49.780800000000006,43.47 L -50.18400000000001,44.19 L -50.616000000000014,44.910000000000004 L -51.07680000000001,45.63 L -51.566400000000016,46.35 L -52.08480000000001,47.07000000000001 L -52.632000000000005,47.790000000000006 L -53.20800000000001,48.510000000000005 L -53.81280000000001,49.230000000000004 L -54.44640000000001,49.95 L -55.108800000000016,50.67000000000001 L -55.80000000000001,51.39000000000001" style="stroke:black;fill:none;stroke-width:2.0;stroke-linecap:round;stroke-linejoin:round;" /><path d="M -61.20000000000002,51.39000000000001 L -60.50880000000001,50.67000000000001 L -59.84640000000001,49.95 L -59.212800000000016,49.230000000000004 L -58.60800000000001,48.510000000000005 L -58.03200000000001,47.790000000000006 L -57.484800000000014,47.07000000000001 L -56.96640000000001,46.35 L -56.47680000000001,45.63 L -56.01600000000001,44.910000000000004 L -55.58400000000002,44.19 L -55.18080000000001,43.47 L -54.80640000000001,42.75 L -54.46080000000001,42.03 L -54.14400000000002,41.31 L -53.856000000000016,40.589999999999996 L -53.596800000000016,39.87 L -53.366400000000006,39.15 L -53.164800000000014,38.42999999999999 L -52.99200000000002,37.71 L -52.84800000000001,36.99 L -52.73280000000001,36.27 L -52.64640000000001,35.550000000000004 L -52.58880000000001,34.83 L -52.56000000000002,34.11 L -52.56000000000002,33.39 L -52.58880000000001,32.67 L -52.64640000000001,31.95 L -52.73280000000001,31.23 L -52.84800000000001,30.51 L -52.99200000000002,29.79 L -53.164800000000014,29.07 L -53.366400000000006,28.349999999999998 L -53.596800000000016,27.63 L -53.856000000000016,26.909999999999997 L -54.14400000000002,26.189999999999998 L -54.46080000000001,25.469999999999995 L -54.80640000000001,24.75 L -55.18080000000001,24.03 L -55.58400000000002,23.31 L -56.01600000000001,22.589999999999996 L -56.47680000000001,21.869999999999997 L -56.96640000000001,21.15 L -57.484800000000014,20.429999999999996 L -58.03200000000001,19.71 L -58.60800000000001,18.99 L -59.212800000000016,18.27 L -59.84640000000001,17.549999999999997 L -60.50880000000001,16.83 L -61.20000000000002,16.109999999999996" style="stroke:black;fill:none;stroke-width:2.0;stroke-linecap:round;stroke-linejoin:round;" /><path d="M -68.4,42.75 L -54.80640000000001,42.75" style="stroke:black;fill:none;stroke-width:2.0;stroke-linecap:round;stroke-linejoin:round;" /><path d="M -68.4,24.75 L -54.80640000000001,24.75" style="stroke:black;fill:none;stroke-width:2.0;stroke-linecap:round;stroke-linejoin:round;" /><path d="M -3.9600000000000035,33.75 L 0.0,33.75" style="stroke:black;fill:none;stroke-width:2.0;stroke-linecap:round;stroke-linejoin:round;" /><path d="M -127.80000000000001,31.140000000000004 L -109.80000000000001,31.140000000000004 L -109.28571428571429,31.132653061224495 L -108.77142857142859,31.11061224489796 L -108.25714285714287,31.07387755102041 L -107.74285714285716,31.022448979591843 L -107.22857142857144,30.956326530612245 L -106.71428571428572,30.875510204081635 L -106.2,30.780000000000005 L -105.6857142857143,30.66979591836735 L -105.17142857142858,30.54489795918368 L -104.65714285714287,30.405306122448984 L -104.14285714285715,30.251020408163267 L -103.62857142857145,30.082040816326533 L -103.11428571428573,29.89836734693878 L -102.60000000000002,29.700000000000003 L -102.0857142857143,29.486938775510207 L -101.57142857142858,29.259183673469387 L -101.05714285714286,29.016734693877552 L -100.54285714285716,28.759591836734696 L -100.02857142857144,28.487755102040822 L -99.51428571428573,28.201224489795923 L -99.00000000000001,27.900000000000006 L -98.48571428571431,27.584081632653067 L -97.97142857142858,27.253469387755107 L -97.45714285714286,26.90816326530613 L -96.94285714285715,26.548163265306126 L -96.42857142857144,26.173469387755105 L -95.91428571428573,25.784081632653063 L -95.4,25.380000000000003 L -94.8857142857143,24.96122448979592 L -94.3714285714286,24.527755102040818 L -93.85714285714288,24.079591836734696 L -93.34285714285716,23.616734693877554 L -92.82857142857144,23.13918367346939 L -92.31428571428572,22.646938775510208 L -91.80000000000001,22.140000000000004 L -91.28571428571429,21.618367346938776 L -90.77142857142859,21.082040816326533 L -90.25714285714287,20.531020408163265 L -89.74285714285716,19.965306122448986 L -89.22857142857143,19.384897959183675 L -88.71428571428572,18.789795918367346 L -88.2,18.18 L -87.6857142857143,17.555510204081635 L -87.17142857142858,16.916326530612245 L -86.65714285714287,16.262448979591838 L -86.14285714285715,15.593877551020407 L -85.62857142857145,14.91061224489796 L -85.11428571428573,14.212653061224492 L -84.60000000000001,13.5 L -84.60000000000001,13.5 L -85.11428571428573,12.787346938775508 L -85.62857142857145,12.08938775510204 L -86.14285714285715,11.406122448979593 L -86.65714285714287,10.737551020408162 L -87.17142857142858,10.083673469387756 L -87.6857142857143,9.444489795918365 L -88.2,8.82 L -88.71428571428572,8.210204081632652 L -89.22857142857143,7.615102040816326 L -89.74285714285716,7.034693877551017 L -90.25714285714287,6.468979591836734 L -90.77142857142859,5.917959183673466 L -91.28571428571429,5.381632653061223 L -91.80000000000001,4.859999999999996 L -92.31428571428572,4.353061224489794 L -92.82857142857144,3.8608163265306104 L -93.34285714285716,3.3832653061224476 L -93.85714285714288,2.920408163265303 L -94.3714285714286,2.4722448979591816 L -94.8857142857143,2.03877551020408 L -95.4,1.6199999999999974 L -95.91428571428573,1.2159183673469354 L -96.42857142857144,0.8265306122448939 L -96.94285714285715,0.451836734693873 L -97.45714285714286,0.09183673469387466 L -97.97142857142858,-0.2534693877551051 L -98.48571428571431,-0.5840816326530642 L -99.00000000000001,-0.9000000000000028 L -99.51428571428573,-1.2012244897959208 L -100.02857142857144,-1.4877551020408202 L -100.54285714285716,-1.759591836734697 L -101.05714285714286,-2.016734693877553 L -101.57142857142858,-2.2591836734693906 L -102.0857142857143,-2.486938775510208 L -102.60000000000002,-2.7000000000000024 L -103.11428571428573,-2.8983673469387785 L -103.62857142857145,-3.0820408163265336 L -104.14285714285715,-3.251020408163268 L -104.65714285714287,-3.4053061224489825 L -105.17142857142858,-3.544897959183678 L -105.6857142857143,-3.6697959183673508 L -106.2,-3.7800000000000034 L -106.71428571428572,-3.875510204081637 L -107.22857142857144,-3.956326530612248 L -107.74285714285716,-4.022448979591841 L -108.25714285714287,-4.073877551020411 L -108.77142857142859,-4.110612244897963 L -109.28571428571429,-4.132653061224493 L -109.80000000000001,-4.140000000000004 L -127.80000000000001,-4.140000000000004 L -127.80000000000001,-4.140000000000004 L -127.1088,-3.420000000000003 L -126.44640000000001,-2.7000000000000024 L -125.81280000000002,-1.9800000000000018 L -125.20800000000001,-1.2600000000000011 L -124.632,-0.5400000000000005 L -124.08480000000002,0.17999999999999616 L -123.56640000000002,0.8999999999999968 L -123.0768,1.6199999999999974 L -122.61600000000001,2.339999999999998 L -122.184,3.0599999999999987 L -121.78080000000001,3.7799999999999994 L -121.4064,4.5 L -121.06080000000001,5.219999999999997 L -120.744,5.939999999999998 L -120.456,6.659999999999998 L -120.19680000000001,7.379999999999999 L -119.96640000000001,8.1 L -119.76480000000001,8.82 L -119.592,9.540000000000001 L -119.44800000000002,10.260000000000002 L -119.33280000000002,10.980000000000002 L -119.24640000000001,11.7 L -119.18880000000001,12.419999999999998 L -119.16000000000003,13.14 L -119.16000000000003,13.86 L -119.18880000000001,14.580000000000002 L -119.24640000000001,15.3 L -119.33280000000002,16.02 L -119.44800000000002,16.740000000000002 L -119.592,17.46 L -119.76480000000001,18.18 L -119.96640000000001,18.900000000000002 L -120.19680000000001,19.62 L -120.456,20.340000000000003 L -120.744,21.060000000000002 L -121.0608,21.78 L -121.4064,22.5 L -121.78080000000001,23.22 L -122.184,23.94 L -122.61600000000001,24.660000000000004 L -123.0768,25.380000000000003 L -123.56640000000002,26.1 L -124.08480000000002,26.820000000000004 L -124.632,27.540000000000006 L -125.20800000000003,28.260000000000005 L -125.81280000000002,28.980000000000004 L -126.44640000000001,29.700000000000003 L -127.1088,30.42 L -127.80000000000001,31.140000000000004" style="stroke:black;fill:none;stroke-width:2.0;stroke-linecap:round;stroke-linejoin:round;" /><path d="M -133.20000000000002,31.140000000000004 L -132.5088,30.42 L -131.84640000000002,29.700000000000003 L -131.21280000000002,28.980000000000004 L -130.608,28.260000000000005 L -130.032,27.540000000000006 L -129.4848,26.820000000000004 L -128.96640000000002,26.1 L -128.47680000000003,25.380000000000003 L -128.016,24.660000000000004 L -127.58400000000002,23.94 L -127.18080000000002,23.22 L -126.80640000000001,22.5 L -126.4608,21.78 L -126.14400000000002,21.060000000000002 L -125.85600000000002,20.340000000000003 L -125.59680000000002,19.62 L -125.3664,18.900000000000002 L -125.16480000000001,18.18 L -124.99200000000002,17.46 L -124.84800000000001,16.740000000000002 L -124.73280000000001,16.02 L -124.6464,15.3 L -124.5888,14.580000000000002 L -124.56000000000002,13.86 L -124.56000000000002,13.14 L -124.5888,12.419999999999998 L -124.6464,11.7 L -124.73280000000001,10.980000000000002 L -124.84800000000001,10.260000000000002 L -124.99200000000002,9.540000000000001 L -125.16480000000001,8.82 L -125.3664,8.1 L -125.59680000000002,7.379999999999999 L -125.85600000000002,6.659999999999998 L -126.14400000000002,5.939999999999998 L -126.4608,5.219999999999997 L -126.80640000000001,4.5 L -127.18080000000002,3.7799999999999994 L -127.58400000000002,3.0599999999999987 L -128.016,2.339999999999998 L -128.47680000000003,1.6199999999999974 L -128.96640000000002,0.8999999999999968 L -129.4848,0.17999999999999616 L -130.032,-0.5400000000000005 L -130.608,-1.2600000000000011 L -131.21280000000002,-1.9800000000000018 L -131.84640000000002,-2.7000000000000024 L -132.5088,-3.420000000000003 L -133.20000000000002,-4.140000000000004" style="stroke:black;fill:none;stroke-width:2.0;stroke-linecap:round;stroke-linejoin:round;" /><path d="M -140.4,22.5 L -126.80640000000001,22.5" style="stroke:black;fill:none;stroke-width:2.0;stroke-linecap:round;stroke-linejoin:round;" /><path d="M -140.4,4.5 L -126.80640000000001,4.5" style="stroke:black;fill:none;stroke-width:2.0;stroke-linecap:round;stroke-linejoin:round;" /><path d="M -75.96000000000001,13.5 L -72.0,13.5" style="stroke:black;fill:none;stroke-width:2.0;stroke-linecap:round;stroke-linejoin:round;" /><path d="M -68.4,24.75 L -72.0,24.75 L -72.0,13.5" style="stroke:black;fill:none;stroke-width:2;stroke-linecap:round;stroke-linejoin:round;" /><path d="M -144.0,54.0 L -124.02,54.0 M -91.97999999999999,54.0 L -72.0,54.0" style="stroke:black;fill:none;stroke-width:2.0;stroke-linecap:round;stroke-linejoin:round;" /><path d="M -124.02,36.0 L -100.62,54.0 L -124.02,72.0 L -124.02,36.0" style="stroke:black;fill:none;stroke-width:2.0;stroke-linecap:round;stroke-linejoin:round;" /><path d="M -68.4,42.75 L -72.0,42.75 L -72.0,54.0" style="stroke:black;fill:none;stroke-width:2;stroke-linecap:round;stroke-linejoin:round;" /><text x="3.600000000000003" y="28.15" fill="black" font-size="14.0" font-family="sans" text-anchor="start"><tspan x="3.600000000000003" dy="14.0">\text{Output}</tspan></text><text x="-144.0" y="-1.0999999999999996" fill="black" font-size="14.0" font-family="sans" text-anchor="end"><tspan x="-144.0" dy="14.0">c</tspan></text><text x="-144.0" y="16.9" fill="black" font-size="14.0" font-family="sans" text-anchor="end"><tspan x="-144.0" dy="14.0">a</tspan></text><text x="-147.6" y="48.4" fill="black" font-size="14.0" font-family="sans" text-anchor="end"><tspan x="-147.6" dy="14.0">a</tspan></text></svg>