<svg xmlns="http://www.w3.org/2000/svg" xml:lang="en" height="193.70000000000005pt" width="322.28pt" viewBox="-232.17999999999998 -22.6 322.28 193.70000000000005"><circle cx="-168.29999999999998" cy="-0.0" r="4.32" style="stroke:black;fill:none;stroke-width:2.0;" /><circle cx="-152.28000000000003" cy="40.5" r="4.32" style="stroke:black;fill:none;stroke-width:2.0;" /><circle cx="-80.28" cy="121.5" r="4.32" style="stroke:black;fill:none;stroke-width:2.0;" /><circle cx="-152.28000000000003" cy="94.5" r="4.32" style="stroke:black;fill:none;stroke-width:2.0;" /><path d="M -30.6,88.875 L -29.446736040347172,88.83801706950607 L -28.298211089678894,88.72722024881844 L -27.1591446833753,88.54306482583918 L -26.03421748962887,88.28630753470253 L -24.928052075574826,87.95800344619204 L -23.84519391217127,87.55950163222839 L -22.790092695883956,87.09243962224355 L -21.767084063929126,86.55873667422101 L -20.780371778210124,85.96058588805313 L -19.83401045115812,85.30044519362322 L -18.931888884459806,84.58102725064442 L -18.077714089137253,83.80528830175909 L -17.274996052644326,82.97641602470371 L -16.527033315575473,82.0978164334572 L -15.83689941725479,81.17309988219905 L -15.207430265903778,80.20606622958945 L -14.641212485286,79.20068922433504 L -14.140572785715374,78.16110017620309 L -13.70756840310431,77.09157097958354 L -13.343978645340105,75.99649655935858 L -13.05129758072718,74.88037681121367 L -12.830727898539898,73.74779811060083 L -12.683175966914435,72.60341446633828 L -12.609248108387625,71.4519283962898 L -12.609248108387625,70.29807160371021 L -12.683175966914435,69.14658553366174 L -12.830727898539898,68.00220188939917 L -13.05129758072718,66.86962318878633 L -13.343978645340105,65.75350344064142 L -13.70756840310431,64.65842902041646 L -14.140572785715374,63.588899823796915 L -14.641212485286,62.549310775664964 L -15.207430265903778,61.54393377041055 L -15.83689941725479,60.576900117800946 L -16.527033315575473,59.6521835665428 L -17.274996052644326,58.773583975296305 L -18.077714089137245,57.9447116982409 L -18.931888884459806,57.16897274935558 L -19.834010451158107,56.44955480637678 L -20.780371778210124,55.78941411194687 L -21.767084063929126,55.19126332577899 L -22.790092695883956,54.657560377756454 L -23.84519391217127,54.19049836777161 L -24.928052075574826,53.79199655380796 L -26.03421748962887,53.46369246529747 L -27.1591446833753,53.206935174160826 L -28.298211089678887,53.022779751181574 L -29.446736040347165,52.91198293049395 L -30.6,52.875 L -30.6,52.875 L -54.0,52.875 L -54.0,70.875 L -54.0,88.875 L -30.6,88.875" style="stroke:black;fill:none;stroke-width:2.0;stroke-linecap:round;stroke-linejoin:round;" /><path d="M -66.60000000000001,79.875 L -54.0,79.875" style="stroke:black;fill:none;stroke-width:2.0;stroke-linecap:round;stroke-linejoin:round;" /><path d="M -66.60000000000001,61.875 L -54.0,61.875" style="stroke:black;fill:none;stroke-width:2.0;stroke-linecap:round;stroke-linejoin:round;" /><path d="M -12.600000000000003,70.875 L 0.0,70.875" style="stroke:black;fill:none;stroke-width:2.0;stroke-linecap:round;stroke-linejoin:round;" /><path d="M -102.60000000000001,38.25 L -101.44673604034718,38.21301706950605 L -100.29821108967889,38.102220248818426 L -99.1591446833753,37.918064825839174 L -98.03421748962887,37.66130753470253 L -96.92805207557483,37.33300344619204 L -95.84519391217127,36.93450163222839 L -94.79009269588396,36.467439622243546 L -93.76708406392912,35.93373667422101 L -92.78037177821012,35.33558588805313 L -91.83401045115812,34.675445193623226 L -90.93188888445981,33.95602725064442 L -90.07771408913726,33.1802883017591 L -89.27499605264433,32.3514160247037 L -88.52703331557547,31.4728164334572 L -87.83689941725478,30.548099882199054 L -87.20743026590378,29.58106622958945 L -86.641212485286,28.575689224335036 L -86.14057278571538,27.536100176203092 L -85.7075684031043,26.46657097958354 L -85.3439786453401,25.371496559358587 L -85.05129758072718,24.255376811213658 L -84.83072789853989,23.122798110600826 L -84.68317596691443,21.978414466338272 L -84.60924810838762,20.826928396289794 L -84.60924810838762,19.67307160371021 L -84.68317596691443,18.52158553366173 L -84.83072789853989,17.377201889399178 L -85.05129758072718,16.244623188786342 L -85.3439786453401,15.128503440641417 L -85.7075684031043,14.033429020416463 L -86.14057278571538,12.963899823796913 L -86.641212485286,11.924310775664967 L -87.20743026590378,10.918933770410549 L -87.83689941725478,9.95190011780095 L -88.52703331557547,9.027183566542798 L -89.27499605264433,8.148583975296301 L -90.07771408913723,7.319711698240905 L -90.93188888445981,6.543972749355584 L -91.83401045115811,5.824554806376781 L -92.78037177821012,5.164414111946871 L -93.76708406392912,4.566263325778992 L -94.79009269588396,4.032560377756456 L -95.84519391217127,3.5654983677716103 L -96.92805207557483,3.1669965538079645 L -98.03421748962887,2.8386924652974717 L -99.1591446833753,2.581935174160824 L -100.29821108967889,2.397779751181571 L -101.44673604034718,2.286982930493946 L -102.60000000000001,2.25 L -102.60000000000001,2.25 L -126.0,2.25 L -126.0,20.25 L -126.0,38.25 L -102.60000000000001,38.25" style="stroke:black;fill:none;stroke-width:2.0;stroke-linecap:round;stroke-linejoin:round;" /><path d="M -138.6,29.25 L -126.0,29.25" style="stroke:black;fill:none;stroke-width:2.0;stroke-linecap:round;stroke-linejoin:round;" /><path d="M -138.6,11.25 L -126.0,11.25" style="stroke:black;fill:none;stroke-width:2.0;stroke-linecap:round;stroke-linejoin:round;" /><path d="M -84.60000000000001,20.25 L -72.0,20.25" style="stroke:black;fill:none;stroke-width:2.0;stroke-linecap:round;stroke-linejoin:round;" /><path d="M -216.0,-0.0 L -196.02,-0.0 M -163.98,-0.0 L -144.0,-0.0" style="stroke:black;fill:none;stroke-width:2.0;stroke-linecap:round;stroke-linejoin:round;" /><path d="M -196.02,-18.0 L -172.62,-0.0 L -196.02,18.0 L -196.02,-18.0" style="stroke:black;fill:none;stroke-width:2.0;stroke-linecap:round;stroke-linejoin:round;" /><path d="M -138.6,11.25 L -144.0,11.25 L -144.0,-0.0" style="stroke:black;fill:none;stroke-width:2;stroke-linecap:round;stroke-linejoin:round;" /><path d="M -174.6,58.5 L -173.44673604034716,58.46301706950605 L -172.2982110896789,58.352220248818426 L -171.1591446833753,58.168064825839174 L -170.03421748962887,57.91130753470253 L -168.9280520755748,57.58300344619204 L -167.84519391217128,57.18450163222839 L -166.79009269588394,56.717439622243546 L -165.76708406392913,56.18373667422101 L -164.7803717782101,55.58558588805314 L -163.83401045115812,54.925445193623226 L -162.9318888844598,54.20602725064442 L -162.07771408913723,53.4302883017591 L -161.27499605264433,52.60141602470371 L -160.52703331557547,51.7228164334572 L -159.8368994172548,50.798099882199054 L -159.20743026590378,49.83106622958945 L -158.641212485286,48.825689224335036 L -158.14057278571536,47.786100176203085 L -157.70756840310432,46.71657097958354 L -157.34397864534012,45.62149655935858 L -157.05129758072718,44.50537681121366 L -156.8307278985399,43.372798110600826 L -156.6831759669144,42.22841446633828 L -156.60924810838762,41.0769283962898 L -156.60924810838762,39.92307160371021 L -156.6831759669144,38.771585533661735 L -156.8307278985399,37.627201889399174 L -157.05129758072718,36.49462318878634 L -157.34397864534012,35.37850344064142 L -157.70756840310432,34.28342902041646 L -158.14057278571536,33.213899823796915 L -158.641212485286,32.174310775664964 L -159.20743026590378,31.16893377041055 L -159.8368994172548,30.20190011780095 L -160.52703331557547,29.2771835665428 L -161.27499605264433,28.3985839752963 L -162.07771408913723,27.5697116982409 L -162.9318888844598,26.793972749355586 L -163.83401045115812,26.07455480637678 L -164.7803717782101,25.414414111946872 L -165.76708406392913,24.81626332577899 L -166.79009269588394,24.282560377756457 L -167.84519391217128,23.81549836777161 L -168.9280520755748,23.416996553807966 L -170.03421748962887,23.08869246529747 L -171.1591446833753,22.831935174160826 L -172.2982110896789,22.64777975118157 L -173.44673604034716,22.536982930493945 L -174.6,22.5 L -174.6,22.5 L -198.0,22.5 L -198.0,40.5 L -198.0,58.5 L -174.6,58.5" style="stroke:black;fill:none;stroke-width:2.0;stroke-linecap:round;stroke-linejoin:round;" /><path d="M -210.6,49.5 L -198.0,49.5" style="stroke:black;fill:none;stroke-width:2.0;stroke-linecap:round;stroke-linejoin:round;" /><path d="M -210.6,31.5 L -198.0,31.5" style="stroke:black;fill:none;stroke-width:2.0;stroke-linecap:round;stroke-linejoin:round;" /><path d="M -147.96,40.5 L -144.0,40.5" style="stroke:black;fill:none;stroke-width:2.0;stroke-linecap:round;stroke-linejoin:round;" /><path d="M -138.6,29.25 L -144.0,29.25 L -144.0,40.5" style="stroke:black;fill:none;stroke-width:2;stroke-linecap:round;stroke-linejoin:round;" /><path d="M -66.60000000000001,61.875 L -72.0,61.875 L -72.0,20.25" style="stroke:black;fill:none;stroke-width:2;stroke-linecap:round;stroke-linejoin:round;" /><path d="M -127.80000000000001,139.14000000000001 L -109.80000000000001,139.14000000000001 L -109.28571428571429,139.1326530612245 L -108.77142857142859,139.11061224489796 L -108.25714285714287,139.07387755102042 L -107.74285714285716,139.02244897959184 L -107.22857142857144,138.95632653061224 L -106.71428571428572,138.87551020408165 L -106.2,138.78 L -105.6857142857143,138.66979591836736 L -105.17142857142858,138.5448979591837 L -104.65714285714287,138.405306122449 L -104.14285714285715,138.25102040816327 L -103.62857142857145,138.08204081632653 L -103.11428571428573,137.89836734693878 L -102.60000000000002,137.70000000000002 L -102.0857142857143,137.4869387755102 L -101.57142857142858,137.25918367346938 L -101.05714285714286,137.01673469387754 L -100.54285714285716,136.7595918367347 L -100.02857142857144,136.4877551020408 L -99.51428571428573,136.20122448979592 L -99.00000000000001,135.9 L -98.48571428571431,135.58408163265307 L -97.97142857142858,135.2534693877551 L -97.45714285714286,134.90816326530611 L -96.94285714285715,134.54816326530613 L -96.42857142857144,134.1734693877551 L -95.91428571428573,133.78408163265306 L -95.4,133.38 L -94.8857142857143,132.96122448979594 L -94.3714285714286,132.52775510204083 L -93.85714285714288,132.0795918367347 L -93.34285714285716,131.61673469387756 L -92.82857142857144,131.1391836734694 L -92.31428571428572,130.6469387755102 L -91.80000000000001,130.14000000000001 L -91.28571428571429,129.61836734693878 L -90.77142857142859,129.08204081632653 L -90.25714285714287,128.53102040816327 L -89.74285714285716,127.96530612244898 L -89.22857142857143,127.38489795918366 L -88.71428571428572,126.78979591836735 L -88.2,126.17999999999999 L -87.6857142857143,125.55551020408163 L -87.17142857142858,124.91632653061224 L -86.65714285714287,124.26244897959184 L -86.14285714285715,123.5938775510204 L -85.62857142857145,122.91061224489796 L -85.11428571428573,122.21265306122449 L -84.60000000000001,121.5 L -84.60000000000001,121.5 L -85.11428571428573,120.78734693877551 L -85.62857142857145,120.08938775510204 L -86.14285714285715,119.4061224489796 L -86.65714285714287,118.73755102040816 L -87.17142857142858,118.08367346938776 L -87.6857142857143,117.44448979591837 L -88.2,116.82000000000001 L -88.71428571428572,116.21020408163265 L -89.22857142857143,115.61510204081634 L -89.74285714285716,115.03469387755102 L -90.25714285714287,114.46897959183674 L -90.77142857142859,113.91795918367347 L -91.28571428571429,113.38163265306122 L -91.80000000000001,112.85999999999999 L -92.31428571428572,112.35306122448979 L -92.82857142857144,111.86081632653061 L -93.34285714285716,111.38326530612245 L -93.85714285714288,110.92040816326531 L -94.3714285714286,110.47224489795917 L -94.8857142857143,110.03877551020408 L -95.4,109.62 L -95.91428571428573,109.21591836734693 L -96.42857142857144,108.82653061224491 L -96.94285714285715,108.45183673469388 L -97.45714285714286,108.09183673469387 L -97.97142857142858,107.7465306122449 L -98.48571428571431,107.41591836734695 L -99.00000000000001,107.10000000000001 L -99.51428571428573,106.79877551020408 L -100.02857142857144,106.51224489795918 L -100.54285714285716,106.24040816326531 L -101.05714285714286,105.98326530612246 L -101.57142857142858,105.7408163265306 L -102.0857142857143,105.5130612244898 L -102.60000000000002,105.3 L -103.11428571428573,105.10163265306122 L -103.62857142857145,104.91795918367347 L -104.14285714285715,104.74897959183673 L -104.65714285714287,104.59469387755102 L -105.17142857142858,104.45510204081631 L -105.6857142857143,104.33020408163264 L -106.2,104.22 L -106.71428571428572,104.12448979591836 L -107.22857142857144,104.04367346938776 L -107.74285714285716,103.97755102040816 L -108.25714285714287,103.92612244897958 L -108.77142857142859,103.88938775510204 L -109.28571428571429,103.86734693877551 L -109.80000000000001,103.85999999999999 L -127.80000000000001,103.85999999999999 L -127.80000000000001,103.85999999999999 L -127.1088,104.58 L -126.44640000000001,105.3 L -125.81280000000002,106.02 L -125.20800000000001,106.74 L -124.632,107.46 L -124.08480000000002,108.17999999999999 L -123.56640000000002,108.89999999999999 L -123.0768,109.62 L -122.61600000000001,110.34 L -122.184,111.06 L -121.78080000000001,111.78 L -121.4064,112.5 L -121.06080000000001,113.22 L -120.744,113.94 L -120.456,114.66 L -120.19680000000001,115.38 L -119.96640000000001,116.10000000000001 L -119.76480000000001,116.82000000000001 L -119.592,117.54 L -119.44800000000002,118.26 L -119.33280000000002,118.98 L -119.24640000000001,119.7 L -119.18880000000001,120.41999999999999 L -119.16000000000003,121.14000000000001 L -119.16000000000003,121.85999999999999 L -119.18880000000001,122.58000000000001 L -119.24640000000001,123.3 L -119.33280000000002,124.02 L -119.44800000000002,124.74 L -119.592,125.46 L -119.76480000000001,126.17999999999999 L -119.96640000000001,126.89999999999999 L -120.19680000000001,127.62 L -120.456,128.34 L -120.744,129.06 L -121.0608,129.78 L -121.4064,130.5 L -121.78080000000001,131.22 L -122.184,131.94 L -122.61600000000001,132.66 L -123.0768,133.38 L -123.56640000000002,134.1 L -124.08480000000002,134.82 L -124.632,135.54 L -125.20800000000003,136.26 L -125.81280000000002,136.98000000000002 L -126.44640000000001,137.70000000000002 L -127.1088,138.42000000000002 L -127.80000000000001,139.14000000000001" style="stroke:black;fill:none;stroke-width:2.0;stroke-linecap:round;stroke-linejoin:round;" /><path d="M -133.20000000000002,139.14000000000001 L -132.5088,138.42000000000002 L -131.84640000000002,137.70000000000002 L -131.21280000000002,136.98000000000002 L -130.608,136.26 L -130.032,135.54 L -129.4848,134.82 L -128.96640000000002,134.1 L -128.47680000000003,133.38 L -128.016,132.66 L -127.58400000000002,131.94 L -127.18080000000002,131.22 L -126.80640000000001,130.5 L -126.4608,129.78 L -126.14400000000002,129.06 L -125.85600000000002,128.34 L -125.59680000000002,127.62 L -125.3664,126.89999999999999 L -125.16480000000001,126.17999999999999 L -124.99200000000002,125.46 L -124.84800000000001,124.74 L -124.73280000000001,124.02 L -124.6464,123.3 L -124.5888,122.58000000000001 L -124.56000000000002,121.85999999999999 L -124.56000000000002,121.14000000000001 L -124.5888,120.41999999999999 L -124.6464,119.7 L -124.73280000000001,118.98 L -124.84800000000001,118.26 L -124.99200000000002,117.54 L -125.16480000000001,116.82000000000001 L -125.3664,116.10000000000001 L -125.59680000000002,115.38 L -125.85600000000002,114.66 L -126.14400000000002,113.94 L -126.4608,113.22 L -126.80640000000001,112.5 L -127.18080000000002,111.78 L -127.58400000000002,111.06 L -128.016,110.34 L -128.47680000000003,109.62 L -128.96640000000002,108.89999999999999 L -129.4848,108.17999999999999 L -130.032,107.46 L -130.608,106.74 L -131.21280000000002,106.02 L -131.84640000000002,105.3 L -132.5088,104.58 L -133.20000000000002,103.85999999999999" style="stroke:black;fill:none;stroke-width:2.0;stroke-linecap:round;stroke-linejoin:round;" /><path d="M -140.4,130.5 L -126.80640000000001,130.5" style="stroke:black;fill:none;stroke-width:2.0;stroke-linecap:round;stroke-linejoin:round;" /><path d="M -140.4,112.5 L -126.80640000000001,112.5" style="stroke:black;fill:none;stroke-width:2.0;stroke-linecap:round;stroke-linejoin:round;" /><path d="M -75.96000000000001,121.5 L -72.0,121.5" style="stroke:black;fill:none;stroke-width:2.0;stroke-linecap:round;stroke-linejoin:round;" /><path d="M -174.6,112.5 L -173.44673604034716,112.46301706950607 L -172.2982110896789,112.35222024881844 L -171.1591446833753,112.16806482583918 L -170.03421748962887,111.91130753470253 L -168.9280520755748,111.58300344619204 L -167.84519391217128,111.18450163222839 L -166.79009269588394,110.71743962224355 L -165.76708406392913,110.18373667422101 L -164.7803717782101,109.58558588805313 L -163.83401045115812,108.92544519362322 L -162.9318888844598,108.20602725064442 L -162.07771408913723,107.43028830175909 L -161.27499605264433,106.60141602470371 L -160.52703331557547,105.7228164334572 L -159.8368994172548,104.79809988219905 L -159.20743026590378,103.83106622958945 L -158.641212485286,102.82568922433504 L -158.14057278571536,101.78610017620309 L -157.70756840310432,100.71657097958354 L -157.34397864534012,99.62149655935858 L -157.05129758072718,98.50537681121367 L -156.8307278985399,97.37279811060083 L -156.6831759669144,96.22841446633828 L -156.60924810838762,95.0769283962898 L -156.60924810838762,93.9230716037102 L -156.6831759669144,92.77158553366172 L -156.8307278985399,91.62720188939917 L -157.05129758072718,90.49462318878633 L -157.34397864534012,89.37850344064142 L -157.70756840310432,88.28342902041646 L -158.14057278571536,87.21389982379691 L -158.641212485286,86.17431077566496 L -159.20743026590378,85.16893377041055 L -159.8368994172548,84.20190011780095 L -160.52703331557547,83.2771835665428 L -161.27499605264433,82.39858397529629 L -162.07771408913723,81.56971169824091 L -162.9318888844598,80.79397274935558 L -163.83401045115812,80.07455480637678 L -164.7803717782101,79.41441411194688 L -165.76708406392913,78.81626332577899 L -166.79009269588394,78.28256037775645 L -167.84519391217128,77.81549836777161 L -168.9280520755748,77.41699655380796 L -170.03421748962887,77.08869246529747 L -171.1591446833753,76.83193517416082 L -172.2982110896789,76.64777975118156 L -173.44673604034716,76.53698293049393 L -174.6,76.5 L -174.6,76.5 L -198.0,76.5 L -198.0,94.5 L -198.0,112.5 L -174.6,112.5" style="stroke:black;fill:none;stroke-width:2.0;stroke-linecap:round;stroke-linejoin:round;" /><path d="M -210.6,103.5 L -198.0,103.5" style="stroke:black;fill:none;stroke-width:2.0;stroke-linecap:round;stroke-linejoin:round;" /><path d="M -210.6,85.5 L -198.0,85.5" style="stroke:black;fill:none;stroke-width:2.0;stroke-linecap:round;stroke-linejoin:round;" /><path d="M -147.96,94.5 L -144.0,94.5" style="stroke:black;fill:none;stroke-width:2.0;stroke-linecap:round;stroke-linejoin:round;" /><path d="M -140.4,112.5 L -144.0,112.5 L -144.0,94.5" style="stroke:black;fill:none;stroke-width:2;stroke-linecap:round;stroke-linejoin:round;" /><path d="M -174.6,166.5 L -173.44673604034716,166.46301706950607 L -172.2982110896789,166.35222024881844 L -171.1591446833753,166.16806482583917 L -170.03421748962887,165.91130753470253 L -168.9280520755748,165.58300344619204 L -167.84519391217128,165.18450163222838 L -166.79009269588394,164.71743962224355 L -165.76708406392913,164.183736674221 L -164.7803717782101,163.58558588805312 L -163.83401045115812,162.9254451936232 L -162.9318888844598,162.2060272506444 L -162.07771408913723,161.4302883017591 L -161.27499605264433,160.6014160247037 L -160.52703331557547,159.7228164334572 L -159.8368994172548,158.79809988219904 L -159.20743026590378,157.83106622958945 L -158.641212485286,156.82568922433506 L -158.14057278571536,155.7861001762031 L -157.70756840310432,154.71657097958354 L -157.34397864534012,153.62149655935858 L -157.05129758072718,152.50537681121367 L -156.8307278985399,151.37279811060083 L -156.6831759669144,150.22841446633828 L -156.60924810838762,149.0769283962898 L -156.60924810838762,147.9230716037102 L -156.6831759669144,146.77158553366172 L -156.8307278985399,145.62720188939917 L -157.05129758072718,144.49462318878633 L -157.34397864534012,143.37850344064142 L -157.70756840310432,142.28342902041646 L -158.14057278571536,141.2138998237969 L -158.641212485286,140.17431077566496 L -159.20743026590378,139.16893377041055 L -159.8368994172548,138.20190011780096 L -160.52703331557547,137.2771835665428 L -161.27499605264433,136.3985839752963 L -162.07771408913723,135.5697116982409 L -162.9318888844598,134.7939727493556 L -163.83401045115812,134.0745548063768 L -164.7803717782101,133.41441411194688 L -165.76708406392913,132.816263325779 L -166.79009269588394,132.28256037775645 L -167.84519391217128,131.8154983677716 L -168.9280520755748,131.41699655380796 L -170.03421748962887,131.08869246529747 L -171.1591446833753,130.83193517416083 L -172.2982110896789,130.64777975118156 L -173.44673604034716,130.53698293049393 L -174.6,130.5 L -174.6,130.5 L -198.0,130.5 L -198.0,148.5 L -198.0,166.5 L -174.6,166.5" style="stroke:black;fill:none;stroke-width:2.0;stroke-linecap:round;stroke-linejoin:round;" /><path d="M -210.6,157.5 L -198.0,157.5" style="stroke:black;fill:none;stroke-width:2.0;stroke-linecap:round;stroke-linejoin:round;" /><path d="M -210.6,139.5 L -198.0,139.5" style="stroke:black;fill:none;stroke-width:2.0;stroke-linecap:round;stroke-linejoin:round;" /><path d="M -156.6,148.5 L -144.0,148.5" style="stroke:black;fill:none;stroke-width:2.0;stroke-linecap:round;stroke-linejoin:round;" /><path d="M -140.4,130.5 L -144.0,130.5 L -144.0,148.5" style="stroke:black;fill:none;stroke-width:2;stroke-linecap:round;stroke-linejoin:round;" /><path d="M -66.60000000000001,79.875 L -72.0,79.875 L -72.0,121.5" style="stroke:black;fill:none;stroke-width:2;stroke-linecap:round;stroke-linejoin:round;" /><text x="3.600000000000003" y="65.27499999999999" fill="black" font-size="14.0" font-family="sans" text-anchor="start"><tspan x="3.600000000000003" dy="14.0">\text{Output}</tspan></text><text x="-219.6" y="-5.6000000000000005" fill="black" font-size="14.0" font-family="sans" text-anchor="end"><tspan x="-219.6" dy="14.0">a</tspan></text><text x="-214.20000000000002" y="25.9" fill="black" font-size="14.0" font-family="sans" text-anchor="end"><tspan x="-214.20000000000002" dy="14.0">e</tspan></text><text x="-214.20000000000002" y="43.9" fill="black" font-size="14.0" font-family="sans" text-anchor="end"><tspan x="-214.20000000000002" dy="14.0">b</tspan></text><text x="-214.20000000000002" y="79.89999999999999" fill="black" font-size="14.0" font-family="sans" text-anchor="end"><tspan x="-214.20000000000002" dy="14.0">e</tspan></text><text x="-214.20000000000002" y="97.89999999999999" fill="black" font-size="14.0" font-family="sans" text-anchor="end"><tspan x="-214.20000000000002" dy="14.0">a</tspan></text><text x="-214.20000000000002" y="133.9" fill="black" font-size="14.0" font-family="sans" text-anchor="end"><tspan x="-214.20000000000002" dy="14.0">b</tspan></text><text x="-214.20000000000002" y="151.9" fill="black" font-size="14.0" font-family="sans" text-anchor="end"><tspan x="-214.20000000000002" dy="14.0">e</tspan></text></svg>