<svg xmlns="http://www.w3.org/2000/svg" xml:lang="en" height="85.34pt" width="250.27999999999997pt" viewBox="-160.17999999999998 -22.6 250.27999999999997 85.34"><circle cx="-8.28" cy="20.25" r="4.32" style="stroke:black;fill:none;stroke-width:2.0;" /><circle cx="-96.3" cy="-0.0" r="4.32" style="stroke:black;fill:none;stroke-width:2.0;" /><circle cx="-80.28" cy="40.5" r="4.32" style="stroke:black;fill:none;stroke-width:2.0;" /><path d="M -30.6,38.25 L -29.446736040347172,38.21301706950605 L -28.298211089678894,38.102220248818426 L -27.1591446833753,37.918064825839174 L -26.03421748962887,37.66130753470253 L -24.928052075574826,37.33300344619204 L -23.84519391217127,36.93450163222839 L -22.790092695883956,36.467439622243546 L -21.767084063929126,35.93373667422101 L -20.780371778210124,35.33558588805313 L -19.83401045115812,34.675445193623226 L -18.931888884459806,33.95602725064442 L -18.077714089137253,33.1802883017591 L -17.274996052644326,32.3514160247037 L -16.527033315575473,31.4728164334572 L -15.83689941725479,30.548099882199054 L -15.207430265903778,29.58106622958945 L -14.641212485286,28.575689224335036 L -14.140572785715374,27.536100176203092 L -13.70756840310431,26.46657097958354 L -13.343978645340105,25.371496559358587 L -13.05129758072718,24.255376811213658 L -12.830727898539898,23.122798110600826 L -12.683175966914435,21.978414466338272 L -12.609248108387625,20.826928396289794 L -12.609248108387625,19.67307160371021 L -12.683175966914435,18.52158553366173 L -12.830727898539898,17.377201889399178 L -13.05129758072718,16.244623188786342 L -13.343978645340105,15.128503440641417 L -13.70756840310431,14.033429020416463 L -14.140572785715374,12.963899823796913 L -14.641212485286,11.924310775664967 L -15.207430265903778,10.918933770410549 L -15.83689941725479,9.95190011780095 L -16.527033315575473,9.027183566542798 L -17.274996052644326,8.148583975296301 L -18.077714089137245,7.319711698240905 L -18.931888884459806,6.543972749355584 L -19.834010451158107,5.824554806376781 L -20.780371778210124,5.164414111946871 L -21.767084063929126,4.566263325778992 L -22.790092695883956,4.032560377756456 L -23.84519391217127,3.5654983677716103 L -24.928052075574826,3.1669965538079645 L -26.03421748962887,2.8386924652974717 L -27.1591446833753,2.581935174160824 L -28.298211089678887,2.397779751181571 L -29.446736040347165,2.286982930493946 L -30.6,2.25 L -30.6,2.25 L -54.0,2.25 L -54.0,20.25 L -54.0,38.25 L -30.6,38.25" style="stroke:black;fill:none;stroke-width:2.0;stroke-linecap:round;stroke-linejoin:round;" /><path d="M -66.60000000000001,29.25 L -54.0,29.25" style="stroke:black;fill:none;stroke-width:2.0;stroke-linecap:round;stroke-linejoin:round;" /><path d="M -66.60000000000001,11.25 L -54.0,11.25" style="stroke:black;fill:none;stroke-width:2.0;stroke-linecap:round;stroke-linejoin:round;" /><path d="M -3.9600000000000035,20.25 L 0.0,20.25" style="stroke:black;fill:none;stroke-width:2.0;stroke-linecap:round;stroke-linejoin:round;" /><path d="M -144.0,-0.0 L -124.02,-0.0 M -91.97999999999999,-0.0 L -72.0,-0.0" style="stroke:black;fill:none;stroke-width:2.0;stroke-linecap:round;stroke-linejoin:round;" /><path d="M -124.02,-18.0 L -100.62,-0.0 L -124.02,18.0 L -124.02,-18.0" style="stroke:black;fill:none;stroke-width:2.0;stroke-linecap:round;stroke-linejoin:round;" /><path d="M -66.60000000000001,11.25 L -72.0,11.25 L -72.0,-0.0" style="stroke:black;fill:none;stroke-width:2;stroke-linecap:round;stroke-linejoin:round;" /><path d="M -127.80000000000001,58.14000000000001 L -109.80000000000001,58.14000000000001 L -109.28571428571429,58.132653061224495 L -108.77142857142859,58.110612244897965 L -108.25714285714287,58.07387755102041 L -107.74285714285716,58.02244897959184 L -107.22857142857144,57.956326530612245 L -106.71428571428572,57.875510204081635 L -106.2,57.78 L -105.6857142857143,57.66979591836735 L -105.17142857142858,57.54489795918368 L -104.65714285714287,57.40530612244898 L -104.14285714285715,57.251020408163264 L -103.62857142857145,57.08204081632653 L -103.11428571428573,56.898367346938784 L -102.60000000000002,56.7 L -102.0857142857143,56.486938775510204 L -101.57142857142858,56.25918367346939 L -101.05714285714286,56.01673469387755 L -100.54285714285716,55.7595918367347 L -100.02857142857144,55.48775510204082 L -99.51428571428573,55.20122448979592 L -99.00000000000001,54.900000000000006 L -98.48571428571431,54.58408163265307 L -97.97142857142858,54.2534693877551 L -97.45714285714286,53.90816326530613 L -96.94285714285715,53.54816326530613 L -96.42857142857144,53.173469387755105 L -95.91428571428573,52.78408163265306 L -95.4,52.38 L -94.8857142857143,51.96122448979592 L -94.3714285714286,51.527755102040814 L -93.85714285714288,51.07959183673469 L -93.34285714285716,50.61673469387755 L -92.82857142857144,50.13918367346939 L -92.31428571428572,49.64693877551021 L -91.80000000000001,49.14000000000001 L -91.28571428571429,48.61836734693878 L -90.77142857142859,48.08204081632653 L -90.25714285714287,47.531020408163265 L -89.74285714285716,46.965306122448986 L -89.22857142857143,46.384897959183675 L -88.71428571428572,45.789795918367346 L -88.2,45.17999999999999 L -87.6857142857143,44.555510204081635 L -87.17142857142858,43.91632653061224 L -86.65714285714287,43.26244897959184 L -86.14285714285715,42.593877551020405 L -85.62857142857145,41.91061224489796 L -85.11428571428573,41.21265306122449 L -84.60000000000001,40.5 L -84.60000000000001,40.5 L -85.11428571428573,39.78734693877551 L -85.62857142857145,39.08938775510204 L -86.14285714285715,38.406122448979595 L -86.65714285714287,37.73755102040816 L -87.17142857142858,37.08367346938776 L -87.6857142857143,36.444489795918365 L -88.2,35.82 L -88.71428571428572,35.210204081632654 L -89.22857142857143,34.615102040816325 L -89.74285714285716,34.034693877551014 L -90.25714285714287,33.468979591836735 L -90.77142857142859,32.91795918367347 L -91.28571428571429,32.381632653061224 L -91.80000000000001,31.859999999999996 L -92.31428571428572,31.353061224489792 L -92.82857142857144,30.86081632653061 L -93.34285714285716,30.383265306122446 L -93.85714285714288,29.920408163265304 L -94.3714285714286,29.472244897959182 L -94.8857142857143,29.03877551020408 L -95.4,28.619999999999997 L -95.91428571428573,28.215918367346937 L -96.42857142857144,27.826530612244895 L -96.94285714285715,27.451836734693874 L -97.45714285714286,27.09183673469387 L -97.97142857142858,26.746530612244893 L -98.48571428571431,26.415918367346933 L -99.00000000000001,26.099999999999994 L -99.51428571428573,25.798775510204077 L -100.02857142857144,25.512244897959178 L -100.54285714285716,25.240408163265304 L -101.05714285714286,24.983265306122448 L -101.57142857142858,24.740816326530613 L -102.0857142857143,24.513061224489793 L -102.60000000000002,24.299999999999997 L -103.11428571428573,24.10163265306122 L -103.62857142857145,23.917959183673467 L -104.14285714285715,23.748979591836733 L -104.65714285714287,23.594693877551016 L -105.17142857142858,23.45510204081632 L -105.6857142857143,23.33020408163265 L -106.2,23.219999999999995 L -106.71428571428572,23.124489795918365 L -107.22857142857144,23.043673469387755 L -107.74285714285716,22.977551020408157 L -108.25714285714287,22.92612244897959 L -108.77142857142859,22.88938775510204 L -109.28571428571429,22.867346938775505 L -109.80000000000001,22.859999999999996 L -127.80000000000001,22.859999999999996 L -127.80000000000001,22.859999999999996 L -127.1088,23.58 L -126.44640000000001,24.299999999999997 L -125.81280000000002,25.02 L -125.20800000000001,25.74 L -124.632,26.46 L -124.08480000000002,27.179999999999996 L -123.56640000000002,27.9 L -123.0768,28.619999999999997 L -122.61600000000001,29.339999999999996 L -122.184,30.06 L -121.78080000000001,30.78 L -121.4064,31.5 L -121.06080000000001,32.22 L -120.744,32.94 L -120.456,33.66 L -120.19680000000001,34.379999999999995 L -119.96640000000001,35.1 L -119.76480000000001,35.82 L -119.592,36.540000000000006 L -119.44800000000002,37.260000000000005 L -119.33280000000002,37.980000000000004 L -119.24640000000001,38.699999999999996 L -119.18880000000001,39.42 L -119.16000000000003,40.14 L -119.16000000000003,40.86 L -119.18880000000001,41.58 L -119.24640000000001,42.300000000000004 L -119.33280000000002,43.02 L -119.44800000000002,43.74 L -119.592,44.46 L -119.76480000000001,45.17999999999999 L -119.96640000000001,45.9 L -120.19680000000001,46.62 L -120.456,47.339999999999996 L -120.744,48.06 L -121.0608,48.78 L -121.4064,49.5 L -121.78080000000001,50.22 L -122.184,50.94 L -122.61600000000001,51.660000000000004 L -123.0768,52.38 L -123.56640000000002,53.1 L -124.08480000000002,53.82000000000001 L -124.632,54.540000000000006 L -125.20800000000003,55.260000000000005 L -125.81280000000002,55.980000000000004 L -126.44640000000001,56.7 L -127.1088,57.42000000000001 L -127.80000000000001,58.14000000000001" style="stroke:black;fill:none;stroke-width:2.0;stroke-linecap:round;stroke-linejoin:round;" /><path d="M -140.4,49.5 L -121.4064,49.5" style="stroke:black;fill:none;stroke-width:2.0;stroke-linecap:round;stroke-linejoin:round;" /><path d="M -140.4,31.5 L -121.4064,31.5" style="stroke:black;fill:none;stroke-width:2.0;stroke-linecap:round;stroke-linejoin:round;" /><path d="M -75.96000000000001,40.5 L -72.0,40.5" style="stroke:black;fill:none;stroke-width:2.0;stroke-linecap:round;stroke-linejoin:round;" /><path d="M -66.60000000000001,29.25 L -72.0,29.25 L -72.0,40.5" style="stroke:black;fill:none;stroke-width:2;stroke-linecap:round;stroke-linejoin:round;" /><text x="3.600000000000003" y="14.65" fill="black" font-size="14.0" font-family="sans" text-anchor="start"><tspan x="3.600000000000003" dy="14.0">\text{Output}</tspan></text><text x="-147.6" y="-5.6000000000000005" fill="black" font-size="14.0" font-family="sans" text-anchor="end"><tspan x="-147.6" dy="14.0">d</tspan></text><text x="-144.0" y="25.9" fill="black" font-size="14.0" font-family="sans" text-anchor="end"><tspan x="-144.0" dy="14.0">c</tspan></text><text x="-144.0" y="43.9" fill="black" font-size="14.0" font-family="sans" text-anchor="end"><tspan x="-144.0" dy="14.0">d</tspan></text></svg>