<svg xmlns="http://www.w3.org/2000/svg" xml:lang="en" height="179.48000000000002pt" width="322.28pt" viewBox="-232.17999999999998 -8.740000000000004 322.28 179.48000000000002"><circle cx="-152.28000000000003" cy="13.5" r="4.32" style="stroke:black;fill:none;stroke-width:2.0;" /><circle cx="-152.28000000000003" cy="67.5" r="4.32" style="stroke:black;fill:none;stroke-width:2.0;" /><circle cx="-80.28" cy="128.25" r="4.32" style="stroke:black;fill:none;stroke-width:2.0;" /><circle cx="-168.29999999999998" cy="108.0" r="4.32" style="stroke:black;fill:none;stroke-width:2.0;" /><path d="M -55.80000000000001,102.01500000000001 L -37.80000000000001,102.01500000000001 L -37.2857142857143,102.00765306122449 L -36.77142857142859,101.98561224489796 L -36.257142857142874,101.94887755102042 L -35.742857142857154,101.89744897959184 L -35.22857142857144,101.83132653061224 L -34.71428571428573,101.75051020408164 L -34.20000000000002,101.655 L -33.6857142857143,101.54479591836736 L -33.171428571428585,101.41989795918369 L -32.65714285714287,101.28030612244898 L -32.14285714285715,101.12602040816327 L -31.628571428571444,100.95704081632653 L -31.11428571428573,100.77336734693878 L -30.60000000000002,100.575 L -30.0857142857143,100.3619387755102 L -29.571428571428577,100.1341836734694 L -29.057142857142864,99.89173469387754 L -28.54285714285715,99.63459183673469 L -28.02857142857144,99.36275510204082 L -27.514285714285727,99.07622448979592 L -27.000000000000014,98.77499999999999 L -26.4857142857143,98.45908163265305 L -25.971428571428582,98.1284693877551 L -25.45714285714287,97.78316326530613 L -24.94285714285715,97.42316326530612 L -24.428571428571438,97.04846938775509 L -23.914285714285725,96.65908163265307 L -23.400000000000013,96.255 L -22.8857142857143,95.83622448979592 L -22.371428571428588,95.40275510204083 L -21.857142857142875,94.95459183673469 L -21.342857142857156,94.49173469387755 L -20.828571428571436,94.01418367346939 L -20.314285714285724,93.52193877551021 L -19.80000000000001,93.01500000000001 L -19.2857142857143,92.49336734693878 L -18.771428571428586,91.95704081632653 L -18.257142857142874,91.40602040816326 L -17.74285714285716,90.84030612244898 L -17.22857142857143,90.25989795918366 L -16.71428571428572,89.66479591836735 L -16.200000000000006,89.05499999999999 L -15.685714285714294,88.43051020408163 L -15.171428571428581,87.79132653061224 L -14.657142857142869,87.13744897959184 L -14.142857142857157,86.4688775510204 L -13.628571428571444,85.78561224489796 L -13.114285714285732,85.08765306122449 L -12.600000000000003,84.375 L -12.600000000000003,84.375 L -13.114285714285732,83.66234693877551 L -13.628571428571444,82.96438775510204 L -14.142857142857157,82.2811224489796 L -14.657142857142869,81.61255102040816 L -15.171428571428581,80.95867346938776 L -15.685714285714294,80.31948979591837 L -16.200000000000006,79.69500000000001 L -16.71428571428572,79.08520408163265 L -17.22857142857143,78.49010204081634 L -17.74285714285716,77.90969387755102 L -18.257142857142874,77.34397959183674 L -18.771428571428586,76.79295918367347 L -19.2857142857143,76.25663265306122 L -19.80000000000001,75.73499999999999 L -20.314285714285724,75.22806122448979 L -20.828571428571436,74.73581632653061 L -21.342857142857156,74.25826530612245 L -21.857142857142875,73.79540816326531 L -22.371428571428588,73.34724489795917 L -22.8857142857143,72.91377551020408 L -23.400000000000013,72.495 L -23.914285714285725,72.09091836734693 L -24.428571428571438,71.7015306122449 L -24.94285714285715,71.32683673469387 L -25.45714285714287,70.96683673469387 L -25.971428571428582,70.6215306122449 L -26.4857142857143,70.29091836734693 L -27.000000000000014,69.975 L -27.514285714285727,69.67377551020408 L -28.02857142857144,69.38724489795918 L -28.54285714285715,69.1154081632653 L -29.057142857142864,68.85826530612245 L -29.571428571428577,68.6158163265306 L -30.0857142857143,68.3880612244898 L -30.60000000000002,68.175 L -31.11428571428573,67.97663265306122 L -31.628571428571444,67.79295918367346 L -32.14285714285715,67.62397959183673 L -32.65714285714287,67.46969387755102 L -33.171428571428585,67.33010204081633 L -33.6857142857143,67.20520408163264 L -34.20000000000002,67.095 L -34.71428571428573,66.99948979591836 L -35.22857142857144,66.91867346938776 L -35.742857142857154,66.85255102040816 L -36.257142857142874,66.80112244897958 L -36.77142857142859,66.76438775510204 L -37.2857142857143,66.74234693877551 L -37.80000000000001,66.73499999999999 L -55.80000000000001,66.73499999999999 L -55.80000000000001,66.73499999999999 L -55.108800000000016,67.455 L -54.44640000000001,68.175 L -53.81280000000001,68.895 L -53.208000000000006,69.615 L -52.632000000000005,70.335 L -52.08480000000001,71.05499999999999 L -51.566400000000016,71.77499999999999 L -51.07680000000001,72.495 L -50.616000000000014,73.215 L -50.18400000000001,73.935 L -49.780800000000006,74.655 L -49.40640000000001,75.375 L -49.060800000000015,76.095 L -48.744000000000014,76.815 L -48.45600000000001,77.535 L -48.19680000000002,78.255 L -47.96640000000001,78.97500000000001 L -47.764800000000015,79.69500000000001 L -47.59200000000001,80.415 L -47.44800000000001,81.135 L -47.33280000000001,81.855 L -47.24640000000001,82.575 L -47.188800000000015,83.29499999999999 L -47.16000000000001,84.01500000000001 L -47.16000000000001,84.73499999999999 L -47.188800000000015,85.45500000000001 L -47.24640000000001,86.175 L -47.33280000000001,86.895 L -47.44800000000001,87.615 L -47.59200000000001,88.335 L -47.764800000000015,89.05499999999999 L -47.96640000000001,89.77499999999999 L -48.19680000000002,90.495 L -48.45600000000001,91.215 L -48.744000000000014,91.935 L -49.06080000000001,92.655 L -49.40640000000001,93.375 L -49.780800000000006,94.095 L -50.18400000000001,94.815 L -50.616000000000014,95.535 L -51.07680000000001,96.255 L -51.566400000000016,96.97500000000001 L -52.08480000000001,97.69500000000001 L -52.632000000000005,98.415 L -53.20800000000001,99.135 L -53.81280000000001,99.855 L -54.44640000000001,100.575 L -55.108800000000016,101.295 L -55.80000000000001,102.01500000000001" style="stroke:black;fill:none;stroke-width:2.0;stroke-linecap:round;stroke-linejoin:round;" /><path d="M -61.20000000000002,102.01500000000001 L -60.50880000000001,101.295 L -59.84640000000001,100.575 L -59.212800000000016,99.855 L -58.60800000000001,99.135 L -58.03200000000001,98.415 L -57.484800000000014,97.69500000000001 L -56.96640000000001,96.97500000000001 L -56.47680000000001,96.255 L -56.01600000000001,95.535 L -55.58400000000002,94.815 L -55.18080000000001,94.095 L -54.80640000000001,93.375 L -54.46080000000001,92.655 L -54.14400000000002,91.935 L -53.856000000000016,91.215 L -53.596800000000016,90.495 L -53.366400000000006,89.77499999999999 L -53.164800000000014,89.05499999999999 L -52.99200000000002,88.335 L -52.84800000000001,87.615 L -52.73280000000001,86.895 L -52.64640000000001,86.175 L -52.58880000000001,85.45500000000001 L -52.56000000000002,84.73499999999999 L -52.56000000000002,84.01500000000001 L -52.58880000000001,83.29499999999999 L -52.64640000000001,82.575 L -52.73280000000001,81.855 L -52.84800000000001,81.135 L -52.99200000000002,80.415 L -53.164800000000014,79.69500000000001 L -53.366400000000006,78.97500000000001 L -53.596800000000016,78.255 L -53.856000000000016,77.535 L -54.14400000000002,76.815 L -54.46080000000001,76.095 L -54.80640000000001,75.375 L -55.18080000000001,74.655 L -55.58400000000002,73.935 L -56.01600000000001,73.215 L -56.47680000000001,72.495 L -56.96640000000001,71.77499999999999 L -57.484800000000014,71.05499999999999 L -58.03200000000001,70.335 L -58.60800000000001,69.615 L -59.212800000000016,68.895 L -59.84640000000001,68.175 L -60.50880000000001,67.455 L -61.20000000000002,66.73499999999999" style="stroke:black;fill:none;stroke-width:2.0;stroke-linecap:round;stroke-linejoin:round;" /><path d="M -68.4,93.375 L -54.80640000000001,93.375" style="stroke:black;fill:none;stroke-width:2.0;stroke-linecap:round;stroke-linejoin:round;" /><path d="M -68.4,75.375 L -54.80640000000001,75.375" style="stroke:black;fill:none;stroke-width:2.0;stroke-linecap:round;stroke-linejoin:round;" /><path d="M -12.600000000000003,84.375 L 0.0,84.375" style="stroke:black;fill:none;stroke-width:2.0;stroke-linecap:round;stroke-linejoin:round;" /><path d="M -127.80000000000001,58.14000000000001 L -109.80000000000001,58.14000000000001 L -109.28571428571429,58.132653061224495 L -108.77142857142859,58.110612244897965 L -108.25714285714287,58.07387755102041 L -107.74285714285716,58.02244897959184 L -107.22857142857144,57.956326530612245 L -106.71428571428572,57.875510204081635 L -106.2,57.78 L -105.6857142857143,57.66979591836735 L -105.17142857142858,57.54489795918368 L -104.65714285714287,57.40530612244898 L -104.14285714285715,57.251020408163264 L -103.62857142857145,57.08204081632653 L -103.11428571428573,56.898367346938784 L -102.60000000000002,56.7 L -102.0857142857143,56.486938775510204 L -101.57142857142858,56.25918367346939 L -101.05714285714286,56.01673469387755 L -100.54285714285716,55.7595918367347 L -100.02857142857144,55.48775510204082 L -99.51428571428573,55.20122448979592 L -99.00000000000001,54.900000000000006 L -98.48571428571431,54.58408163265307 L -97.97142857142858,54.2534693877551 L -97.45714285714286,53.90816326530613 L -96.94285714285715,53.54816326530613 L -96.42857142857144,53.173469387755105 L -95.91428571428573,52.78408163265306 L -95.4,52.38 L -94.8857142857143,51.96122448979592 L -94.3714285714286,51.527755102040814 L -93.85714285714288,51.07959183673469 L -93.34285714285716,50.61673469387755 L -92.82857142857144,50.13918367346939 L -92.31428571428572,49.64693877551021 L -91.80000000000001,49.14000000000001 L -91.28571428571429,48.61836734693878 L -90.77142857142859,48.08204081632653 L -90.25714285714287,47.531020408163265 L -89.74285714285716,46.965306122448986 L -89.22857142857143,46.384897959183675 L -88.71428571428572,45.789795918367346 L -88.2,45.17999999999999 L -87.6857142857143,44.555510204081635 L -87.17142857142858,43.91632653061224 L -86.65714285714287,43.26244897959184 L -86.14285714285715,42.593877551020405 L -85.62857142857145,41.91061224489796 L -85.11428571428573,41.21265306122449 L -84.60000000000001,40.5 L -84.60000000000001,40.5 L -85.11428571428573,39.78734693877551 L -85.62857142857145,39.08938775510204 L -86.14285714285715,38.406122448979595 L -86.65714285714287,37.73755102040816 L -87.17142857142858,37.08367346938776 L -87.6857142857143,36.444489795918365 L -88.2,35.82 L -88.71428571428572,35.210204081632654 L -89.22857142857143,34.615102040816325 L -89.74285714285716,34.034693877551014 L -90.25714285714287,33.468979591836735 L -90.77142857142859,32.91795918367347 L -91.28571428571429,32.381632653061224 L -91.80000000000001,31.859999999999996 L -92.31428571428572,31.353061224489792 L -92.82857142857144,30.86081632653061 L -93.34285714285716,30.383265306122446 L -93.85714285714288,29.920408163265304 L -94.3714285714286,29.472244897959182 L -94.8857142857143,29.03877551020408 L -95.4,28.619999999999997 L -95.91428571428573,28.215918367346937 L -96.42857142857144,27.826530612244895 L -96.94285714285715,27.451836734693874 L -97.45714285714286,27.09183673469387 L -97.97142857142858,26.746530612244893 L -98.48571428571431,26.415918367346933 L -99.00000000000001,26.099999999999994 L -99.51428571428573,25.798775510204077 L -100.02857142857144,25.512244897959178 L -100.54285714285716,25.240408163265304 L -101.05714285714286,24.983265306122448 L -101.57142857142858,24.740816326530613 L -102.0857142857143,24.513061224489793 L -102.60000000000002,24.299999999999997 L -103.11428571428573,24.10163265306122 L -103.62857142857145,23.917959183673467 L -104.14285714285715,23.748979591836733 L -104.65714285714287,23.594693877551016 L -105.17142857142858,23.45510204081632 L -105.6857142857143,23.33020408163265 L -106.2,23.219999999999995 L -106.71428571428572,23.124489795918365 L -107.22857142857144,23.043673469387755 L -107.74285714285716,22.977551020408157 L -108.25714285714287,22.92612244897959 L -108.77142857142859,22.88938775510204 L -109.28571428571429,22.867346938775505 L -109.80000000000001,22.859999999999996 L -127.80000000000001,22.859999999999996 L -127.80000000000001,22.859999999999996 L -127.1088,23.58 L -126.44640000000001,24.299999999999997 L -125.81280000000002,25.02 L -125.20800000000001,25.74 L -124.632,26.46 L -124.08480000000002,27.179999999999996 L -123.56640000000002,27.9 L -123.0768,28.619999999999997 L -122.61600000000001,29.339999999999996 L -122.184,30.06 L -121.78080000000001,30.78 L -121.4064,31.5 L -121.06080000000001,32.22 L -120.744,32.94 L -120.456,33.66 L -120.19680000000001,34.379999999999995 L -119.96640000000001,35.1 L -119.76480000000001,35.82 L -119.592,36.540000000000006 L -119.44800000000002,37.260000000000005 L -119.33280000000002,37.980000000000004 L -119.24640000000001,38.699999999999996 L -119.18880000000001,39.42 L -119.16000000000003,40.14 L -119.16000000000003,40.86 L -119.18880000000001,41.58 L -119.24640000000001,42.300000000000004 L -119.33280000000002,43.02 L -119.44800000000002,43.74 L -119.592,44.46 L -119.76480000000001,45.17999999999999 L -119.96640000000001,45.9 L -120.19680000000001,46.62 L -120.456,47.339999999999996 L -120.744,48.06 L -121.0608,48.78 L -121.4064,49.5 L -121.78080000000001,50.22 L -122.184,50.94 L -122.61600000000001,51.660000000000004 L -123.0768,52.38 L -123.56640000000002,53.1 L -124.08480000000002,53.82000000000001 L -124.632,54.540000000000006 L -125.20800000000003,55.260000000000005 L -125.81280000000002,55.980000000000004 L -126.44640000000001,56.7 L -127.1088,57.42000000000001 L -127.80000000000001,58.14000000000001" style="stroke:black;fill:none;stroke-width:2.0;stroke-linecap:round;stroke-linejoin:round;" /><path d="M -133.20000000000002,58.14000000000001 L -132.5088,57.42000000000001 L -131.84640000000002,56.7 L -131.21280000000002,55.980000000000004 L -130.608,55.260000000000005 L -130.032,54.540000000000006 L -129.4848,53.82000000000001 L -128.96640000000002,53.1 L -128.47680000000003,52.38 L -128.016,51.660000000000004 L -127.58400000000002,50.94 L -127.18080000000002,50.22 L -126.80640000000001,49.5 L -126.4608,48.78 L -126.14400000000002,48.06 L -125.85600000000002,47.339999999999996 L -125.59680000000002,46.62 L -125.3664,45.9 L -125.16480000000001,45.17999999999999 L -124.99200000000002,44.46 L -124.84800000000001,43.74 L -124.73280000000001,43.02 L -124.6464,42.300000000000004 L -124.5888,41.58 L -124.56000000000002,40.86 L -124.56000000000002,40.14 L -124.5888,39.42 L -124.6464,38.699999999999996 L -124.73280000000001,37.980000000000004 L -124.84800000000001,37.260000000000005 L -124.99200000000002,36.540000000000006 L -125.16480000000001,35.82 L -125.3664,35.1 L -125.59680000000002,34.379999999999995 L -125.85600000000002,33.66 L -126.14400000000002,32.94 L -126.4608,32.22 L -126.80640000000001,31.5 L -127.18080000000002,30.78 L -127.58400000000002,30.06 L -128.016,29.339999999999996 L -128.47680000000003,28.619999999999997 L -128.96640000000002,27.9 L -129.4848,27.179999999999996 L -130.032,26.46 L -130.608,25.74 L -131.21280000000002,25.02 L -131.84640000000002,24.299999999999997 L -132.5088,23.58 L -133.20000000000002,22.859999999999996" style="stroke:black;fill:none;stroke-width:2.0;stroke-linecap:round;stroke-linejoin:round;" /><path d="M -140.4,49.5 L -126.80640000000001,49.5" style="stroke:black;fill:none;stroke-width:2.0;stroke-linecap:round;stroke-linejoin:round;" /><path d="M -140.4,31.5 L -126.80640000000001,31.5" style="stroke:black;fill:none;stroke-width:2.0;stroke-linecap:round;stroke-linejoin:round;" /><path d="M -84.60000000000001,40.5 L -72.0,40.5" style="stroke:black;fill:none;stroke-width:2.0;stroke-linecap:round;stroke-linejoin:round;" /><path d="M -199.8,31.140000000000004 L -181.8,31.140000000000004 L -181.2857142857143,31.132653061224495 L -180.7714285714286,31.11061224489796 L -180.2571428571429,31.07387755102041 L -179.74285714285713,31.022448979591843 L -179.22857142857143,30.956326530612245 L -178.71428571428572,30.875510204081635 L -178.20000000000002,30.780000000000005 L -177.68571428571428,30.66979591836735 L -177.17142857142858,30.54489795918368 L -176.65714285714287,30.405306122448984 L -176.14285714285717,30.251020408163267 L -175.62857142857143,30.082040816326533 L -175.11428571428573,29.89836734693878 L -174.60000000000002,29.700000000000003 L -174.08571428571432,29.486938775510207 L -173.57142857142856,29.259183673469387 L -173.05714285714285,29.016734693877552 L -172.54285714285714,28.759591836734696 L -172.0285714285714,28.487755102040822 L -171.5142857142857,28.201224489795923 L -171.0,27.900000000000006 L -170.4857142857143,27.584081632653067 L -169.9714285714286,27.253469387755107 L -169.45714285714286,26.90816326530613 L -168.94285714285715,26.548163265306126 L -168.42857142857144,26.173469387755105 L -167.9142857142857,25.784081632653063 L -167.4,25.380000000000003 L -166.8857142857143,24.96122448979592 L -166.3714285714286,24.527755102040818 L -165.8571428571429,24.079591836734696 L -165.34285714285716,23.616734693877554 L -164.82857142857145,23.13918367346939 L -164.31428571428575,22.646938775510208 L -163.8,22.140000000000004 L -163.2857142857143,21.618367346938776 L -162.7714285714286,21.082040816326533 L -162.2571428571429,20.531020408163265 L -161.7428571428572,19.965306122448986 L -161.22857142857143,19.384897959183675 L -160.71428571428572,18.789795918367346 L -160.20000000000002,18.18 L -159.68571428571428,17.555510204081635 L -159.17142857142858,16.916326530612245 L -158.65714285714287,16.262448979591838 L -158.14285714285717,15.593877551020407 L -157.62857142857143,14.91061224489796 L -157.11428571428573,14.212653061224492 L -156.6,13.5 L -156.6,13.5 L -157.11428571428573,12.787346938775508 L -157.62857142857143,12.08938775510204 L -158.14285714285717,11.406122448979593 L -158.65714285714287,10.737551020408162 L -159.17142857142858,10.083673469387756 L -159.68571428571428,9.444489795918365 L -160.20000000000002,8.82 L -160.71428571428572,8.210204081632652 L -161.22857142857143,7.615102040816326 L -161.7428571428572,7.034693877551017 L -162.2571428571429,6.468979591836734 L -162.7714285714286,5.917959183673466 L -163.2857142857143,5.381632653061223 L -163.8,4.859999999999996 L -164.31428571428575,4.353061224489794 L -164.82857142857145,3.8608163265306104 L -165.34285714285716,3.3832653061224476 L -165.8571428571429,2.920408163265303 L -166.3714285714286,2.4722448979591816 L -166.8857142857143,2.03877551020408 L -167.4,1.6199999999999974 L -167.9142857142857,1.2159183673469354 L -168.42857142857144,0.8265306122448939 L -168.94285714285715,0.451836734693873 L -169.45714285714286,0.09183673469387466 L -169.9714285714286,-0.2534693877551051 L -170.4857142857143,-0.5840816326530642 L -171.0,-0.9000000000000028 L -171.5142857142857,-1.2012244897959208 L -172.0285714285714,-1.4877551020408202 L -172.54285714285714,-1.759591836734697 L -173.05714285714285,-2.016734693877553 L -173.57142857142856,-2.2591836734693906 L -174.08571428571432,-2.486938775510208 L -174.60000000000002,-2.7000000000000024 L -175.11428571428573,-2.8983673469387785 L -175.62857142857143,-3.0820408163265336 L -176.14285714285717,-3.251020408163268 L -176.65714285714287,-3.4053061224489825 L -177.17142857142858,-3.544897959183678 L -177.68571428571428,-3.6697959183673508 L -178.20000000000002,-3.7800000000000034 L -178.71428571428572,-3.875510204081637 L -179.22857142857143,-3.956326530612248 L -179.74285714285713,-4.022448979591841 L -180.2571428571429,-4.073877551020411 L -180.7714285714286,-4.110612244897963 L -181.2857142857143,-4.132653061224493 L -181.8,-4.140000000000004 L -199.8,-4.140000000000004 L -199.8,-4.140000000000004 L -199.1088,-3.420000000000003 L -198.4464,-2.7000000000000024 L -197.8128,-1.9800000000000018 L -197.208,-1.2600000000000011 L -196.632,-0.5400000000000005 L -196.08480000000003,0.17999999999999616 L -195.56640000000002,0.8999999999999968 L -195.0768,1.6199999999999974 L -194.616,2.339999999999998 L -194.184,3.0599999999999987 L -193.78080000000003,3.7799999999999994 L -193.40640000000002,4.5 L -193.0608,5.219999999999997 L -192.744,5.939999999999998 L -192.45600000000002,6.659999999999998 L -192.19680000000002,7.379999999999999 L -191.9664,8.1 L -191.7648,8.82 L -191.592,9.540000000000001 L -191.448,10.260000000000002 L -191.3328,10.980000000000002 L -191.2464,11.7 L -191.18880000000001,12.419999999999998 L -191.16000000000003,13.14 L -191.16000000000003,13.86 L -191.18880000000001,14.580000000000002 L -191.2464,15.3 L -191.3328,16.02 L -191.448,16.740000000000002 L -191.592,17.46 L -191.7648,18.18 L -191.9664,18.900000000000002 L -192.19680000000002,19.62 L -192.45600000000002,20.340000000000003 L -192.744,21.060000000000002 L -193.0608,21.78 L -193.40640000000002,22.5 L -193.78080000000003,23.22 L -194.184,23.94 L -194.616,24.660000000000004 L -195.0768,25.380000000000003 L -195.56640000000002,26.1 L -196.08480000000003,26.820000000000004 L -196.632,27.540000000000006 L -197.20800000000003,28.260000000000005 L -197.8128,28.980000000000004 L -198.4464,29.700000000000003 L -199.1088,30.42 L -199.8,31.140000000000004" style="stroke:black;fill:none;stroke-width:2.0;stroke-linecap:round;stroke-linejoin:round;" /><path d="M -205.20000000000002,31.140000000000004 L -204.5088,30.42 L -203.8464,29.700000000000003 L -203.21280000000002,28.980000000000004 L -202.608,28.260000000000005 L -202.032,27.540000000000006 L -201.4848,26.820000000000004 L -200.9664,26.1 L -200.47680000000003,25.380000000000003 L -200.016,24.660000000000004 L -199.584,23.94 L -199.1808,23.22 L -198.8064,22.5 L -198.4608,21.78 L -198.144,21.060000000000002 L -197.85600000000002,20.340000000000003 L -197.5968,19.62 L -197.3664,18.900000000000002 L -197.1648,18.18 L -196.99200000000002,17.46 L -196.848,16.740000000000002 L -196.7328,16.02 L -196.64640000000003,15.3 L -196.58880000000002,14.580000000000002 L -196.56000000000003,13.86 L -196.56000000000003,13.14 L -196.58880000000002,12.419999999999998 L -196.64640000000003,11.7 L -196.7328,10.980000000000002 L -196.848,10.260000000000002 L -196.99200000000002,9.540000000000001 L -197.1648,8.82 L -197.3664,8.1 L -197.5968,7.379999999999999 L -197.85600000000002,6.659999999999998 L -198.144,5.939999999999998 L -198.4608,5.219999999999997 L -198.8064,4.5 L -199.1808,3.7799999999999994 L -199.584,3.0599999999999987 L -200.016,2.339999999999998 L -200.47680000000003,1.6199999999999974 L -200.9664,0.8999999999999968 L -201.4848,0.17999999999999616 L -202.032,-0.5400000000000005 L -202.608,-1.2600000000000011 L -203.21280000000002,-1.9800000000000018 L -203.8464,-2.7000000000000024 L -204.5088,-3.420000000000003 L -205.20000000000002,-4.140000000000004" style="stroke:black;fill:none;stroke-width:2.0;stroke-linecap:round;stroke-linejoin:round;" /><path d="M -212.4,22.5 L -198.8064,22.5" style="stroke:black;fill:none;stroke-width:2.0;stroke-linecap:round;stroke-linejoin:round;" /><path d="M -212.4,4.5 L -198.8064,4.5" style="stroke:black;fill:none;stroke-width:2.0;stroke-linecap:round;stroke-linejoin:round;" /><path d="M -147.96,13.5 L -144.0,13.5" style="stroke:black;fill:none;stroke-width:2.0;stroke-linecap:round;stroke-linejoin:round;" /><path d="M -140.4,31.5 L -144.0,31.5 L -144.0,13.5" style="stroke:black;fill:none;stroke-width:2;stroke-linecap:round;stroke-linejoin:round;" /><path d="M -199.8,85.14000000000001 L -181.8,85.14000000000001 L -181.2857142857143,85.13265306122449 L -180.7714285714286,85.11061224489796 L -180.2571428571429,85.07387755102042 L -179.74285714285713,85.02244897959184 L -179.22857142857143,84.95632653061224 L -178.71428571428572,84.87551020408164 L -178.20000000000002,84.78 L -177.68571428571428,84.66979591836736 L -177.17142857142858,84.54489795918369 L -176.65714285714287,84.40530612244898 L -176.14285714285717,84.25102040816327 L -175.62857142857143,84.08204081632653 L -175.11428571428573,83.89836734693878 L -174.60000000000002,83.7 L -174.08571428571432,83.4869387755102 L -173.57142857142856,83.2591836734694 L -173.05714285714285,83.01673469387754 L -172.54285714285714,82.75959183673469 L -172.0285714285714,82.48775510204082 L -171.5142857142857,82.20122448979592 L -171.0,81.89999999999999 L -170.4857142857143,81.58408163265305 L -169.9714285714286,81.2534693877551 L -169.45714285714286,80.90816326530613 L -168.94285714285715,80.54816326530612 L -168.42857142857144,80.17346938775509 L -167.9142857142857,79.78408163265307 L -167.4,79.38 L -166.8857142857143,78.96122448979592 L -166.3714285714286,78.52775510204083 L -165.8571428571429,78.07959183673469 L -165.34285714285716,77.61673469387755 L -164.82857142857145,77.13918367346939 L -164.31428571428575,76.64693877551021 L -163.8,76.14000000000001 L -163.2857142857143,75.61836734693878 L -162.7714285714286,75.08204081632653 L -162.2571428571429,74.53102040816326 L -161.7428571428572,73.96530612244898 L -161.22857142857143,73.38489795918366 L -160.71428571428572,72.78979591836735 L -160.20000000000002,72.17999999999999 L -159.68571428571428,71.55551020408163 L -159.17142857142858,70.91632653061224 L -158.65714285714287,70.26244897959184 L -158.14285714285717,69.5938775510204 L -157.62857142857143,68.91061224489796 L -157.11428571428573,68.2126530612245 L -156.6,67.5 L -156.6,67.5 L -157.11428571428573,66.7873469387755 L -157.62857142857143,66.08938775510204 L -158.14285714285717,65.4061224489796 L -158.65714285714287,64.73755102040816 L -159.17142857142858,64.08367346938776 L -159.68571428571428,63.444489795918365 L -160.20000000000002,62.82000000000001 L -160.71428571428572,62.210204081632654 L -161.22857142857143,61.615102040816325 L -161.7428571428572,61.034693877551014 L -162.2571428571429,60.468979591836735 L -162.7714285714286,59.91795918367347 L -163.2857142857143,59.38163265306122 L -163.8,58.85999999999999 L -164.31428571428575,58.35306122448979 L -164.82857142857145,57.86081632653061 L -165.34285714285716,57.38326530612245 L -165.8571428571429,56.92040816326531 L -166.3714285714286,56.472244897959186 L -166.8857142857143,56.03877551020408 L -167.4,55.62 L -167.9142857142857,55.21591836734694 L -168.42857142857144,54.826530612244895 L -168.94285714285715,54.45183673469387 L -169.45714285714286,54.09183673469387 L -169.9714285714286,53.7465306122449 L -170.4857142857143,53.41591836734693 L -171.0,53.099999999999994 L -171.5142857142857,52.79877551020408 L -172.0285714285714,52.51224489795918 L -172.54285714285714,52.2404081632653 L -173.05714285714285,51.98326530612245 L -173.57142857142856,51.74081632653061 L -174.08571428571432,51.513061224489796 L -174.60000000000002,51.3 L -175.11428571428573,51.101632653061216 L -175.62857142857143,50.91795918367347 L -176.14285714285717,50.748979591836736 L -176.65714285714287,50.59469387755102 L -177.17142857142858,50.45510204081632 L -177.68571428571428,50.33020408163265 L -178.20000000000002,50.22 L -178.71428571428572,50.124489795918365 L -179.22857142857143,50.043673469387755 L -179.74285714285713,49.97755102040816 L -180.2571428571429,49.92612244897959 L -180.7714285714286,49.889387755102035 L -181.2857142857143,49.867346938775505 L -181.8,49.85999999999999 L -199.8,49.85999999999999 L -199.8,49.85999999999999 L -199.1088,50.57999999999999 L -198.4464,51.3 L -197.8128,52.019999999999996 L -197.208,52.739999999999995 L -196.632,53.459999999999994 L -196.08480000000003,54.17999999999999 L -195.56640000000002,54.9 L -195.0768,55.62 L -194.616,56.339999999999996 L -194.184,57.06 L -193.78080000000003,57.78 L -193.40640000000002,58.5 L -193.0608,59.22 L -192.744,59.94 L -192.45600000000002,60.660000000000004 L -192.19680000000002,61.38 L -191.9664,62.1 L -191.7648,62.82000000000001 L -191.592,63.540000000000006 L -191.448,64.26 L -191.3328,64.98 L -191.2464,65.7 L -191.18880000000001,66.42 L -191.16000000000003,67.14 L -191.16000000000003,67.86 L -191.18880000000001,68.58 L -191.2464,69.3 L -191.3328,70.02 L -191.448,70.74000000000001 L -191.592,71.46000000000001 L -191.7648,72.17999999999999 L -191.9664,72.89999999999999 L -192.19680000000002,73.62 L -192.45600000000002,74.34 L -192.744,75.06 L -193.0608,75.78 L -193.40640000000002,76.5 L -193.78080000000003,77.22 L -194.184,77.94 L -194.616,78.66 L -195.0768,79.38 L -195.56640000000002,80.10000000000001 L -196.08480000000003,80.82000000000001 L -196.632,81.54 L -197.20800000000003,82.26 L -197.8128,82.98 L -198.4464,83.7 L -199.1088,84.42 L -199.8,85.14000000000001" style="stroke:black;fill:none;stroke-width:2.0;stroke-linecap:round;stroke-linejoin:round;" /><path d="M -212.4,76.5 L -193.40640000000002,76.5" style="stroke:black;fill:none;stroke-width:2.0;stroke-linecap:round;stroke-linejoin:round;" /><path d="M -212.4,58.5 L -193.40640000000002,58.5" style="stroke:black;fill:none;stroke-width:2.0;stroke-linecap:round;stroke-linejoin:round;" /><path d="M -147.96,67.5 L -144.0,67.5" style="stroke:black;fill:none;stroke-width:2.0;stroke-linecap:round;stroke-linejoin:round;" /><path d="M -140.4,49.5 L -144.0,49.5 L -144.0,67.5" style="stroke:black;fill:none;stroke-width:2;stroke-linecap:round;stroke-linejoin:round;" /><path d="M -68.4,75.375 L -72.0,75.375 L -72.0,40.5" style="stroke:black;fill:none;stroke-width:2;stroke-linecap:round;stroke-linejoin:round;" /><path d="M -127.80000000000001,145.89000000000001 L -109.80000000000001,145.89000000000001 L -109.28571428571429,145.88265306122452 L -108.77142857142859,145.86061224489794 L -108.25714285714287,145.8238775510204 L -107.74285714285716,145.77244897959184 L -107.22857142857144,145.70632653061227 L -106.71428571428572,145.62551020408162 L -106.2,145.53000000000003 L -105.6857142857143,145.41979591836736 L -105.17142857142858,145.2948979591837 L -104.65714285714287,145.155306122449 L -104.14285714285715,145.00102040816327 L -103.62857142857145,144.83204081632653 L -103.11428571428573,144.64836734693878 L -102.60000000000002,144.45000000000002 L -102.0857142857143,144.2369387755102 L -101.57142857142858,144.0091836734694 L -101.05714285714286,143.76673469387754 L -100.54285714285716,143.5095918367347 L -100.02857142857144,143.2377551020408 L -99.51428571428573,142.95122448979592 L -99.00000000000001,142.65 L -98.48571428571431,142.33408163265307 L -97.97142857142858,142.0034693877551 L -97.45714285714286,141.65816326530611 L -96.94285714285715,141.29816326530613 L -96.42857142857144,140.9234693877551 L -95.91428571428573,140.53408163265306 L -95.4,140.13 L -94.8857142857143,139.71122448979594 L -94.3714285714286,139.27775510204083 L -93.85714285714288,138.8295918367347 L -93.34285714285716,138.36673469387756 L -92.82857142857144,137.8891836734694 L -92.31428571428572,137.3969387755102 L -91.80000000000001,136.89000000000001 L -91.28571428571429,136.36836734693878 L -90.77142857142859,135.83204081632653 L -90.25714285714287,135.28102040816327 L -89.74285714285716,134.71530612244896 L -89.22857142857143,134.13489795918366 L -88.71428571428572,133.53979591836736 L -88.2,132.93 L -87.6857142857143,132.30551020408163 L -87.17142857142858,131.66632653061225 L -86.65714285714287,131.01244897959185 L -86.14285714285715,130.3438775510204 L -85.62857142857145,129.66061224489795 L -85.11428571428573,128.9626530612245 L -84.60000000000001,128.25 L -84.60000000000001,128.25 L -85.11428571428573,127.53734693877551 L -85.62857142857145,126.83938775510204 L -86.14285714285715,126.1561224489796 L -86.65714285714287,125.48755102040816 L -87.17142857142858,124.83367346938776 L -87.6857142857143,124.19448979591837 L -88.2,123.57000000000001 L -88.71428571428572,122.96020408163265 L -89.22857142857143,122.36510204081634 L -89.74285714285716,121.78469387755102 L -90.25714285714287,121.21897959183674 L -90.77142857142859,120.66795918367347 L -91.28571428571429,120.13163265306122 L -91.80000000000001,119.60999999999999 L -92.31428571428572,119.10306122448979 L -92.82857142857144,118.61081632653061 L -93.34285714285716,118.13326530612245 L -93.85714285714288,117.67040816326531 L -94.3714285714286,117.22224489795917 L -94.8857142857143,116.78877551020408 L -95.4,116.37 L -95.91428571428573,115.96591836734693 L -96.42857142857144,115.57653061224491 L -96.94285714285715,115.20183673469388 L -97.45714285714286,114.84183673469387 L -97.97142857142858,114.4965306122449 L -98.48571428571431,114.16591836734695 L -99.00000000000001,113.85000000000001 L -99.51428571428573,113.54877551020408 L -100.02857142857144,113.26224489795918 L -100.54285714285716,112.99040816326531 L -101.05714285714286,112.73326530612246 L -101.57142857142858,112.4908163265306 L -102.0857142857143,112.2630612244898 L -102.60000000000002,112.05 L -103.11428571428573,111.85163265306122 L -103.62857142857145,111.66795918367347 L -104.14285714285715,111.49897959183673 L -104.65714285714287,111.34469387755102 L -105.17142857142858,111.20510204081631 L -105.6857142857143,111.08020408163264 L -106.2,110.97 L -106.71428571428572,110.87448979591836 L -107.22857142857144,110.79367346938776 L -107.74285714285716,110.72755102040816 L -108.25714285714287,110.67612244897958 L -108.77142857142859,110.63938775510204 L -109.28571428571429,110.61734693877551 L -109.80000000000001,110.60999999999999 L -127.80000000000001,110.60999999999999 L -127.80000000000001,110.60999999999999 L -127.1088,111.33 L -126.44640000000001,112.05 L -125.81280000000002,112.77 L -125.20800000000001,113.49 L -124.632,114.21 L -124.08480000000002,114.92999999999999 L -123.56640000000002,115.64999999999999 L -123.0768,116.37 L -122.61600000000001,117.09 L -122.184,117.81 L -121.78080000000001,118.53 L -121.4064,119.25 L -121.06080000000001,119.97 L -120.744,120.69 L -120.456,121.41 L -120.19680000000001,122.13 L -119.96640000000001,122.85000000000001 L -119.76480000000001,123.57000000000001 L -119.592,124.29 L -119.44800000000002,125.01 L -119.33280000000002,125.73 L -119.24640000000001,126.45 L -119.18880000000001,127.16999999999999 L -119.16000000000003,127.89000000000001 L -119.16000000000003,128.60999999999999 L -119.18880000000001,129.33 L -119.24640000000001,130.04999999999998 L -119.33280000000002,130.76999999999998 L -119.44800000000002,131.49 L -119.592,132.21 L -119.76480000000001,132.93 L -119.96640000000001,133.65 L -120.19680000000001,134.37 L -120.456,135.09 L -120.744,135.81 L -121.0608,136.53 L -121.4064,137.25 L -121.78080000000001,137.97 L -122.184,138.69 L -122.61600000000001,139.41 L -123.0768,140.13 L -123.56640000000002,140.85 L -124.08480000000002,141.57 L -124.632,142.29 L -125.20800000000003,143.01 L -125.81280000000002,143.73000000000002 L -126.44640000000001,144.45000000000002 L -127.1088,145.17 L -127.80000000000001,145.89000000000001" style="stroke:black;fill:none;stroke-width:2.0;stroke-linecap:round;stroke-linejoin:round;" /><path d="M -133.20000000000002,145.89000000000001 L -132.5088,145.17 L -131.84640000000002,144.45000000000002 L -131.21280000000002,143.73000000000002 L -130.608,143.01 L -130.032,142.29 L -129.4848,141.57 L -128.96640000000002,140.85 L -128.47680000000003,140.13 L -128.016,139.41 L -127.58400000000002,138.69 L -127.18080000000002,137.97 L -126.80640000000001,137.25 L -126.4608,136.53 L -126.14400000000002,135.81 L -125.85600000000002,135.09 L -125.59680000000002,134.37 L -125.3664,133.65 L -125.16480000000001,132.93 L -124.99200000000002,132.21 L -124.84800000000001,131.49 L -124.73280000000001,130.76999999999998 L -124.6464,130.04999999999998 L -124.5888,129.33 L -124.56000000000002,128.60999999999999 L -124.56000000000002,127.89000000000001 L -124.5888,127.16999999999999 L -124.6464,126.45 L -124.73280000000001,125.73 L -124.84800000000001,125.01 L -124.99200000000002,124.29 L -125.16480000000001,123.57000000000001 L -125.3664,122.85000000000001 L -125.59680000000002,122.13 L -125.85600000000002,121.41 L -126.14400000000002,120.69 L -126.4608,119.97 L -126.80640000000001,119.25 L -127.18080000000002,118.53 L -127.58400000000002,117.81 L -128.016,117.09 L -128.47680000000003,116.37 L -128.96640000000002,115.64999999999999 L -129.4848,114.92999999999999 L -130.032,114.21 L -130.608,113.49 L -131.21280000000002,112.77 L -131.84640000000002,112.05 L -132.5088,111.33 L -133.20000000000002,110.60999999999999" style="stroke:black;fill:none;stroke-width:2.0;stroke-linecap:round;stroke-linejoin:round;" /><path d="M -140.4,137.25 L -126.80640000000001,137.25" style="stroke:black;fill:none;stroke-width:2.0;stroke-linecap:round;stroke-linejoin:round;" /><path d="M -140.4,119.25 L -126.80640000000001,119.25" style="stroke:black;fill:none;stroke-width:2.0;stroke-linecap:round;stroke-linejoin:round;" /><path d="M -75.96000000000001,128.25 L -72.0,128.25" style="stroke:black;fill:none;stroke-width:2.0;stroke-linecap:round;stroke-linejoin:round;" /><path d="M -216.0,108.0 L -196.02,108.0 M -163.98,108.0 L -144.0,108.0" style="stroke:black;fill:none;stroke-width:2.0;stroke-linecap:round;stroke-linejoin:round;" /><path d="M -196.02,90.0 L -172.62,108.0 L -196.02,126.0 L -196.02,90.0" style="stroke:black;fill:none;stroke-width:2.0;stroke-linecap:round;stroke-linejoin:round;" /><path d="M -140.4,119.25 L -144.0,119.25 L -144.0,108.0" style="stroke:black;fill:none;stroke-width:2;stroke-linecap:round;stroke-linejoin:round;" /><path d="M -199.8,166.14000000000001 L -181.8,166.14000000000001 L -181.2857142857143,166.13265306122452 L -180.7714285714286,166.11061224489794 L -180.2571428571429,166.0738775510204 L -179.74285714285713,166.02244897959184 L -179.22857142857143,165.95632653061227 L -178.71428571428572,165.87551020408162 L -178.20000000000002,165.78000000000003 L -177.68571428571428,165.66979591836736 L -177.17142857142858,165.5448979591837 L -176.65714285714287,165.405306122449 L -176.14285714285717,165.25102040816327 L -175.62857142857143,165.08204081632653 L -175.11428571428573,164.89836734693878 L -174.60000000000002,164.70000000000002 L -174.08571428571432,164.4869387755102 L -173.57142857142856,164.2591836734694 L -173.05714285714285,164.01673469387754 L -172.54285714285714,163.7595918367347 L -172.0285714285714,163.48775510204084 L -171.5142857142857,163.20122448979592 L -171.0,162.9 L -170.4857142857143,162.58408163265307 L -169.9714285714286,162.2534693877551 L -169.45714285714286,161.90816326530611 L -168.94285714285715,161.54816326530613 L -168.42857142857144,161.1734693877551 L -167.9142857142857,160.78408163265306 L -167.4,160.38 L -166.8857142857143,159.96122448979594 L -166.3714285714286,159.52775510204083 L -165.8571428571429,159.0795918367347 L -165.34285714285716,158.61673469387756 L -164.82857142857145,158.13918367346938 L -164.31428571428575,157.64693877551022 L -163.8,157.14000000000001 L -163.2857142857143,156.61836734693875 L -162.7714285714286,156.08204081632653 L -162.2571428571429,155.53102040816327 L -161.7428571428572,154.965306122449 L -161.22857142857143,154.38489795918366 L -160.71428571428572,153.78979591836736 L -160.20000000000002,153.18 L -159.68571428571428,152.55551020408166 L -159.17142857142858,151.91632653061225 L -158.65714285714287,151.26244897959185 L -158.14285714285717,150.5938775510204 L -157.62857142857143,149.91061224489798 L -157.11428571428573,149.2126530612245 L -156.6,148.5 L -156.6,148.5 L -157.11428571428573,147.7873469387755 L -157.62857142857143,147.08938775510202 L -158.14285714285717,146.4061224489796 L -158.65714285714287,145.73755102040815 L -159.17142857142858,145.08367346938775 L -159.68571428571428,144.44448979591834 L -160.20000000000002,143.82 L -160.71428571428572,143.21020408163264 L -161.22857142857143,142.61510204081634 L -161.7428571428572,142.03469387755104 L -162.2571428571429,141.46897959183673 L -162.7714285714286,140.91795918367347 L -163.2857142857143,140.38163265306122 L -163.8,139.85999999999999 L -164.31428571428575,139.3530612244898 L -164.82857142857145,138.8608163265306 L -165.34285714285716,138.38326530612244 L -165.8571428571429,137.9204081632653 L -166.3714285714286,137.47224489795917 L -166.8857142857143,137.03877551020406 L -167.4,136.62 L -167.9142857142857,136.21591836734694 L -168.42857142857144,135.8265306122449 L -168.94285714285715,135.45183673469387 L -169.45714285714286,135.09183673469389 L -169.9714285714286,134.7465306122449 L -170.4857142857143,134.41591836734693 L -171.0,134.1 L -171.5142857142857,133.79877551020408 L -172.0285714285714,133.5122448979592 L -172.54285714285714,133.2404081632653 L -173.05714285714285,132.98326530612246 L -173.57142857142856,132.74081632653062 L -174.08571428571432,132.5130612244898 L -174.60000000000002,132.29999999999998 L -175.11428571428573,132.10163265306122 L -175.62857142857143,131.91795918367347 L -176.14285714285717,131.74897959183673 L -176.65714285714287,131.594693877551 L -177.17142857142858,131.4551020408163 L -177.68571428571428,131.33020408163264 L -178.20000000000002,131.22 L -178.71428571428572,131.12448979591835 L -179.22857142857143,131.04367346938776 L -179.74285714285713,130.97755102040816 L -180.2571428571429,130.92612244897958 L -180.7714285714286,130.88938775510204 L -181.2857142857143,130.8673469387755 L -181.8,130.85999999999999 L -199.8,130.85999999999999 L -199.8,130.85999999999999 L -199.1088,131.57999999999998 L -198.4464,132.29999999999998 L -197.8128,133.01999999999998 L -197.208,133.74 L -196.632,134.46 L -196.08480000000003,135.18 L -195.56640000000002,135.9 L -195.0768,136.62 L -194.616,137.34 L -194.184,138.06 L -193.78080000000003,138.78 L -193.40640000000002,139.5 L -193.0608,140.22 L -192.744,140.94 L -192.45600000000002,141.66 L -192.19680000000002,142.38 L -191.9664,143.1 L -191.7648,143.82 L -191.592,144.54 L -191.448,145.26 L -191.3328,145.98 L -191.2464,146.70000000000002 L -191.18880000000001,147.42 L -191.16000000000003,148.14000000000001 L -191.16000000000003,148.85999999999999 L -191.18880000000001,149.58 L -191.2464,150.29999999999998 L -191.3328,151.02 L -191.448,151.74 L -191.592,152.46 L -191.7648,153.18 L -191.9664,153.9 L -192.19680000000002,154.62 L -192.45600000000002,155.34 L -192.744,156.06 L -193.0608,156.78000000000003 L -193.40640000000002,157.5 L -193.78080000000003,158.22000000000003 L -194.184,158.94 L -194.616,159.66000000000003 L -195.0768,160.38 L -195.56640000000002,161.1 L -196.08480000000003,161.82 L -196.632,162.54 L -197.20800000000003,163.26 L -197.8128,163.98 L -198.4464,164.70000000000002 L -199.1088,165.42 L -199.8,166.14000000000001" style="stroke:black;fill:none;stroke-width:2.0;stroke-linecap:round;stroke-linejoin:round;" /><path d="M -205.20000000000002,166.14000000000001 L -204.5088,165.42 L -203.8464,164.70000000000002 L -203.21280000000002,163.98 L -202.608,163.26 L -202.032,162.54 L -201.4848,161.82 L -200.9664,161.1 L -200.47680000000003,160.38 L -200.016,159.66000000000003 L -199.584,158.94 L -199.1808,158.22000000000003 L -198.8064,157.5 L -198.4608,156.78000000000003 L -198.144,156.06 L -197.85600000000002,155.34 L -197.5968,154.62 L -197.3664,153.9 L -197.1648,153.18 L -196.99200000000002,152.46 L -196.848,151.74 L -196.7328,151.02 L -196.64640000000003,150.29999999999998 L -196.58880000000002,149.58 L -196.56000000000003,148.85999999999999 L -196.56000000000003,148.14000000000001 L -196.58880000000002,147.42 L -196.64640000000003,146.70000000000002 L -196.7328,145.98 L -196.848,145.26 L -196.99200000000002,144.54 L -197.1648,143.82 L -197.3664,143.1 L -197.5968,142.38 L -197.85600000000002,141.66 L -198.144,140.94 L -198.4608,140.22 L -198.8064,139.5 L -199.1808,138.78 L -199.584,138.06 L -200.016,137.34 L -200.47680000000003,136.62 L -200.9664,135.9 L -201.4848,135.18 L -202.032,134.46 L -202.608,133.74 L -203.21280000000002,133.01999999999998 L -203.8464,132.29999999999998 L -204.5088,131.57999999999998 L -205.20000000000002,130.85999999999999" style="stroke:black;fill:none;stroke-width:2.0;stroke-linecap:round;stroke-linejoin:round;" /><path d="M -212.4,157.5 L -198.8064,157.5" style="stroke:black;fill:none;stroke-width:2.0;stroke-linecap:round;stroke-linejoin:round;" /><path d="M -212.4,139.5 L -198.8064,139.5" style="stroke:black;fill:none;stroke-width:2.0;stroke-linecap:round;stroke-linejoin:round;" /><path d="M -156.6,148.5 L -144.0,148.5" style="stroke:black;fill:none;stroke-width:2.0;stroke-linecap:round;stroke-linejoin:round;" /><path d="M -140.4,137.25 L -144.0,137.25 L -144.0,148.5" style="stroke:black;fill:none;stroke-width:2;stroke-linecap:round;stroke-linejoin:round;" /><path d="M -68.4,93.375 L -72.0,93.375 L -72.0,128.25" style="stroke:black;fill:none;stroke-width:2;stroke-linecap:round;stroke-linejoin:round;" /><text x="3.600000000000003" y="78.77499999999999" fill="black" font-size="14.0" font-family="sans" text-anchor="start"><tspan x="3.600000000000003" dy="14.0">\text{Output}</tspan></text><text x="-216.0" y="-1.0999999999999996" fill="black" font-size="14.0" font-family="sans" text-anchor="end"><tspan x="-216.0" dy="14.0">a</tspan></text><text x="-216.0" y="16.9" fill="black" font-size="14.0" font-family="sans" text-anchor="end"><tspan x="-216.0" dy="14.0">a</tspan></text><text x="-216.0" y="52.89999999999999" fill="black" font-size="14.0" font-family="sans" text-anchor="end"><tspan x="-216.0" dy="14.0">a</tspan></text><text x="-216.0" y="70.89999999999999" fill="black" font-size="14.0" font-family="sans" text-anchor="end"><tspan x="-216.0" dy="14.0">a</tspan></text><text x="-219.6" y="102.39999999999999" fill="black" font-size="14.0" font-family="sans" text-anchor="end"><tspan x="-219.6" dy="14.0">a</tspan></text><text x="-216.0" y="133.9" fill="black" font-size="14.0" font-family="sans" text-anchor="end"><tspan x="-216.0" dy="14.0">a</tspan></text><text x="-216.0" y="151.9" fill="black" font-size="14.0" font-family="sans" text-anchor="end"><tspan x="-216.0" dy="14.0">a</tspan></text></svg>