<svg xmlns="http://www.w3.org/2000/svg" xml:lang="en" height="139.34pt" width="318.68pt" viewBox="-228.57999999999998 -8.740000000000004 318.68 139.34"><circle cx="-8.28" cy="47.25" r="4.32" style="stroke:black;fill:none;stroke-width:2.0;" /><circle cx="-80.28" cy="13.5" r="4.32" style="stroke:black;fill:none;stroke-width:2.0;" /><circle cx="-80.28" cy="81.0" r="4.32" style="stroke:black;fill:none;stroke-width:2.0;" /><circle cx="-152.28000000000003" cy="54.0" r="4.32" style="stroke:black;fill:none;stroke-width:2.0;" /><path d="M -55.80000000000001,64.89000000000001 L -37.80000000000001,64.89000000000001 L -37.2857142857143,64.88265306122449 L -36.77142857142859,64.86061224489796 L -36.257142857142874,64.82387755102042 L -35.742857142857154,64.77244897959184 L -35.22857142857144,64.70632653061224 L -34.71428571428573,64.62551020408164 L -34.20000000000002,64.53 L -33.6857142857143,64.41979591836736 L -33.171428571428585,64.29489795918367 L -32.65714285714287,64.15530612244898 L -32.14285714285715,64.00102040816327 L -31.628571428571444,63.83204081632653 L -31.11428571428573,63.648367346938784 L -30.60000000000002,63.45 L -30.0857142857143,63.236938775510204 L -29.571428571428577,63.00918367346939 L -29.057142857142864,62.76673469387755 L -28.54285714285715,62.5095918367347 L -28.02857142857144,62.23775510204082 L -27.514285714285727,61.95122448979592 L -27.000000000000014,61.650000000000006 L -26.4857142857143,61.33408163265307 L -25.971428571428582,61.0034693877551 L -25.45714285714287,60.65816326530613 L -24.94285714285715,60.29816326530613 L -24.428571428571438,59.923469387755105 L -23.914285714285725,59.53408163265306 L -23.400000000000013,59.13 L -22.8857142857143,58.71122448979592 L -22.371428571428588,58.277755102040814 L -21.857142857142875,57.82959183673469 L -21.342857142857156,57.36673469387755 L -20.828571428571436,56.88918367346939 L -20.314285714285724,56.39693877551021 L -19.80000000000001,55.89000000000001 L -19.2857142857143,55.36836734693878 L -18.771428571428586,54.83204081632653 L -18.257142857142874,54.281020408163265 L -17.74285714285716,53.715306122448986 L -17.22857142857143,53.134897959183675 L -16.71428571428572,52.539795918367346 L -16.200000000000006,51.92999999999999 L -15.685714285714294,51.305510204081635 L -15.171428571428581,50.66632653061224 L -14.657142857142869,50.01244897959184 L -14.142857142857157,49.343877551020405 L -13.628571428571444,48.66061224489796 L -13.114285714285732,47.96265306122449 L -12.600000000000003,47.25 L -12.600000000000003,47.25 L -13.114285714285732,46.53734693877551 L -13.628571428571444,45.83938775510204 L -14.142857142857157,45.156122448979595 L -14.657142857142869,44.48755102040816 L -15.171428571428581,43.83367346938776 L -15.685714285714294,43.194489795918365 L -16.200000000000006,42.57000000000001 L -16.71428571428572,41.960204081632654 L -17.22857142857143,41.365102040816325 L -17.74285714285716,40.784693877551014 L -18.257142857142874,40.218979591836735 L -18.771428571428586,39.66795918367347 L -19.2857142857143,39.13163265306122 L -19.80000000000001,38.60999999999999 L -20.314285714285724,38.10306122448979 L -20.828571428571436,37.61081632653061 L -21.342857142857156,37.13326530612245 L -21.857142857142875,36.67040816326531 L -22.371428571428588,36.222244897959186 L -22.8857142857143,35.78877551020408 L -23.400000000000013,35.37 L -23.914285714285725,34.96591836734694 L -24.428571428571438,34.576530612244895 L -24.94285714285715,34.20183673469387 L -25.45714285714287,33.84183673469387 L -25.971428571428582,33.4965306122449 L -26.4857142857143,33.16591836734693 L -27.000000000000014,32.849999999999994 L -27.514285714285727,32.54877551020408 L -28.02857142857144,32.26224489795918 L -28.54285714285715,31.990408163265304 L -29.057142857142864,31.733265306122448 L -29.571428571428577,31.490816326530613 L -30.0857142857143,31.263061224489793 L -30.60000000000002,31.049999999999997 L -31.11428571428573,30.85163265306122 L -31.628571428571444,30.667959183673467 L -32.14285714285715,30.498979591836733 L -32.65714285714287,30.344693877551016 L -33.171428571428585,30.20510204081632 L -33.6857142857143,30.08020408163265 L -34.20000000000002,29.969999999999995 L -34.71428571428573,29.874489795918365 L -35.22857142857144,29.793673469387755 L -35.742857142857154,29.727551020408157 L -36.257142857142874,29.67612244897959 L -36.77142857142859,29.63938775510204 L -37.2857142857143,29.617346938775505 L -37.80000000000001,29.609999999999996 L -55.80000000000001,29.609999999999996 L -55.80000000000001,29.609999999999996 L -55.108800000000016,30.33 L -54.44640000000001,31.049999999999997 L -53.81280000000001,31.77 L -53.208000000000006,32.49 L -52.632000000000005,33.21 L -52.08480000000001,33.92999999999999 L -51.566400000000016,34.65 L -51.07680000000001,35.37 L -50.616000000000014,36.089999999999996 L -50.18400000000001,36.81 L -49.780800000000006,37.53 L -49.40640000000001,38.25 L -49.060800000000015,38.97 L -48.744000000000014,39.69 L -48.45600000000001,40.410000000000004 L -48.19680000000002,41.13 L -47.96640000000001,41.85 L -47.764800000000015,42.57000000000001 L -47.59200000000001,43.290000000000006 L -47.44800000000001,44.010000000000005 L -47.33280000000001,44.730000000000004 L -47.24640000000001,45.449999999999996 L -47.188800000000015,46.17 L -47.16000000000001,46.89 L -47.16000000000001,47.61 L -47.188800000000015,48.33 L -47.24640000000001,49.050000000000004 L -47.33280000000001,49.77 L -47.44800000000001,50.49 L -47.59200000000001,51.21 L -47.764800000000015,51.92999999999999 L -47.96640000000001,52.65 L -48.19680000000002,53.37 L -48.45600000000001,54.089999999999996 L -48.744000000000014,54.81 L -49.06080000000001,55.53 L -49.40640000000001,56.25 L -49.780800000000006,56.97 L -50.18400000000001,57.69 L -50.616000000000014,58.410000000000004 L -51.07680000000001,59.13 L -51.566400000000016,59.85 L -52.08480000000001,60.57000000000001 L -52.632000000000005,61.290000000000006 L -53.20800000000001,62.010000000000005 L -53.81280000000001,62.730000000000004 L -54.44640000000001,63.45 L -55.108800000000016,64.17 L -55.80000000000001,64.89000000000001" style="stroke:black;fill:none;stroke-width:2.0;stroke-linecap:round;stroke-linejoin:round;" /><path d="M -68.4,56.25 L -49.40640000000001,56.25" style="stroke:black;fill:none;stroke-width:2.0;stroke-linecap:round;stroke-linejoin:round;" /><path d="M -68.4,38.25 L -49.40640000000001,38.25" style="stroke:black;fill:none;stroke-width:2.0;stroke-linecap:round;stroke-linejoin:round;" /><path d="M -3.9600000000000035,47.25 L 0.0,47.25" style="stroke:black;fill:none;stroke-width:2.0;stroke-linecap:round;stroke-linejoin:round;" /><path d="M -127.80000000000001,31.140000000000004 L -109.80000000000001,31.140000000000004 L -109.28571428571429,31.132653061224495 L -108.77142857142859,31.11061224489796 L -108.25714285714287,31.07387755102041 L -107.74285714285716,31.022448979591843 L -107.22857142857144,30.956326530612245 L -106.71428571428572,30.875510204081635 L -106.2,30.780000000000005 L -105.6857142857143,30.66979591836735 L -105.17142857142858,30.54489795918368 L -104.65714285714287,30.405306122448984 L -104.14285714285715,30.251020408163267 L -103.62857142857145,30.082040816326533 L -103.11428571428573,29.89836734693878 L -102.60000000000002,29.700000000000003 L -102.0857142857143,29.486938775510207 L -101.57142857142858,29.259183673469387 L -101.05714285714286,29.016734693877552 L -100.54285714285716,28.759591836734696 L -100.02857142857144,28.487755102040822 L -99.51428571428573,28.201224489795923 L -99.00000000000001,27.900000000000006 L -98.48571428571431,27.584081632653067 L -97.97142857142858,27.253469387755107 L -97.45714285714286,26.90816326530613 L -96.94285714285715,26.548163265306126 L -96.42857142857144,26.173469387755105 L -95.91428571428573,25.784081632653063 L -95.4,25.380000000000003 L -94.8857142857143,24.96122448979592 L -94.3714285714286,24.527755102040818 L -93.85714285714288,24.079591836734696 L -93.34285714285716,23.616734693877554 L -92.82857142857144,23.13918367346939 L -92.31428571428572,22.646938775510208 L -91.80000000000001,22.140000000000004 L -91.28571428571429,21.618367346938776 L -90.77142857142859,21.082040816326533 L -90.25714285714287,20.531020408163265 L -89.74285714285716,19.965306122448986 L -89.22857142857143,19.384897959183675 L -88.71428571428572,18.789795918367346 L -88.2,18.18 L -87.6857142857143,17.555510204081635 L -87.17142857142858,16.916326530612245 L -86.65714285714287,16.262448979591838 L -86.14285714285715,15.593877551020407 L -85.62857142857145,14.91061224489796 L -85.11428571428573,14.212653061224492 L -84.60000000000001,13.5 L -84.60000000000001,13.5 L -85.11428571428573,12.787346938775508 L -85.62857142857145,12.08938775510204 L -86.14285714285715,11.406122448979593 L -86.65714285714287,10.737551020408162 L -87.17142857142858,10.083673469387756 L -87.6857142857143,9.444489795918365 L -88.2,8.82 L -88.71428571428572,8.210204081632652 L -89.22857142857143,7.615102040816326 L -89.74285714285716,7.034693877551017 L -90.25714285714287,6.468979591836734 L -90.77142857142859,5.917959183673466 L -91.28571428571429,5.381632653061223 L -91.80000000000001,4.859999999999996 L -92.31428571428572,4.353061224489794 L -92.82857142857144,3.8608163265306104 L -93.34285714285716,3.3832653061224476 L -93.85714285714288,2.920408163265303 L -94.3714285714286,2.4722448979591816 L -94.8857142857143,2.03877551020408 L -95.4,1.6199999999999974 L -95.91428571428573,1.2159183673469354 L -96.42857142857144,0.8265306122448939 L -96.94285714285715,0.451836734693873 L -97.45714285714286,0.09183673469387466 L -97.97142857142858,-0.2534693877551051 L -98.48571428571431,-0.5840816326530642 L -99.00000000000001,-0.9000000000000028 L -99.51428571428573,-1.2012244897959208 L -100.02857142857144,-1.4877551020408202 L -100.54285714285716,-1.759591836734697 L -101.05714285714286,-2.016734693877553 L -101.57142857142858,-2.2591836734693906 L -102.0857142857143,-2.486938775510208 L -102.60000000000002,-2.7000000000000024 L -103.11428571428573,-2.8983673469387785 L -103.62857142857145,-3.0820408163265336 L -104.14285714285715,-3.251020408163268 L -104.65714285714287,-3.4053061224489825 L -105.17142857142858,-3.544897959183678 L -105.6857142857143,-3.6697959183673508 L -106.2,-3.7800000000000034 L -106.71428571428572,-3.875510204081637 L -107.22857142857144,-3.956326530612248 L -107.74285714285716,-4.022448979591841 L -108.25714285714287,-4.073877551020411 L -108.77142857142859,-4.110612244897963 L -109.28571428571429,-4.132653061224493 L -109.80000000000001,-4.140000000000004 L -127.80000000000001,-4.140000000000004 L -127.80000000000001,-4.140000000000004 L -127.1088,-3.420000000000003 L -126.44640000000001,-2.7000000000000024 L -125.81280000000002,-1.9800000000000018 L -125.20800000000001,-1.2600000000000011 L -124.632,-0.5400000000000005 L -124.08480000000002,0.17999999999999616 L -123.56640000000002,0.8999999999999968 L -123.0768,1.6199999999999974 L -122.61600000000001,2.339999999999998 L -122.184,3.0599999999999987 L -121.78080000000001,3.7799999999999994 L -121.4064,4.5 L -121.06080000000001,5.219999999999997 L -120.744,5.939999999999998 L -120.456,6.659999999999998 L -120.19680000000001,7.379999999999999 L -119.96640000000001,8.1 L -119.76480000000001,8.82 L -119.592,9.540000000000001 L -119.44800000000002,10.260000000000002 L -119.33280000000002,10.980000000000002 L -119.24640000000001,11.7 L -119.18880000000001,12.419999999999998 L -119.16000000000003,13.14 L -119.16000000000003,13.86 L -119.18880000000001,14.580000000000002 L -119.24640000000001,15.3 L -119.33280000000002,16.02 L -119.44800000000002,16.740000000000002 L -119.592,17.46 L -119.76480000000001,18.18 L -119.96640000000001,18.900000000000002 L -120.19680000000001,19.62 L -120.456,20.340000000000003 L -120.744,21.060000000000002 L -121.0608,21.78 L -121.4064,22.5 L -121.78080000000001,23.22 L -122.184,23.94 L -122.61600000000001,24.660000000000004 L -123.0768,25.380000000000003 L -123.56640000000002,26.1 L -124.08480000000002,26.820000000000004 L -124.632,27.540000000000006 L -125.20800000000003,28.260000000000005 L -125.81280000000002,28.980000000000004 L -126.44640000000001,29.700000000000003 L -127.1088,30.42 L -127.80000000000001,31.140000000000004" style="stroke:black;fill:none;stroke-width:2.0;stroke-linecap:round;stroke-linejoin:round;" /><path d="M -133.20000000000002,31.140000000000004 L -132.5088,30.42 L -131.84640000000002,29.700000000000003 L -131.21280000000002,28.980000000000004 L -130.608,28.260000000000005 L -130.032,27.540000000000006 L -129.4848,26.820000000000004 L -128.96640000000002,26.1 L -128.47680000000003,25.380000000000003 L -128.016,24.660000000000004 L -127.58400000000002,23.94 L -127.18080000000002,23.22 L -126.80640000000001,22.5 L -126.4608,21.78 L -126.14400000000002,21.060000000000002 L -125.85600000000002,20.340000000000003 L -125.59680000000002,19.62 L -125.3664,18.900000000000002 L -125.16480000000001,18.18 L -124.99200000000002,17.46 L -124.84800000000001,16.740000000000002 L -124.73280000000001,16.02 L -124.6464,15.3 L -124.5888,14.580000000000002 L -124.56000000000002,13.86 L -124.56000000000002,13.14 L -124.5888,12.419999999999998 L -124.6464,11.7 L -124.73280000000001,10.980000000000002 L -124.84800000000001,10.260000000000002 L -124.99200000000002,9.540000000000001 L -125.16480000000001,8.82 L -125.3664,8.1 L -125.59680000000002,7.379999999999999 L -125.85600000000002,6.659999999999998 L -126.14400000000002,5.939999999999998 L -126.4608,5.219999999999997 L -126.80640000000001,4.5 L -127.18080000000002,3.7799999999999994 L -127.58400000000002,3.0599999999999987 L -128.016,2.339999999999998 L -128.47680000000003,1.6199999999999974 L -128.96640000000002,0.8999999999999968 L -129.4848,0.17999999999999616 L -130.032,-0.5400000000000005 L -130.608,-1.2600000000000011 L -131.21280000000002,-1.9800000000000018 L -131.84640000000002,-2.7000000000000024 L -132.5088,-3.420000000000003 L -133.20000000000002,-4.140000000000004" style="stroke:black;fill:none;stroke-width:2.0;stroke-linecap:round;stroke-linejoin:round;" /><path d="M -140.4,22.5 L -126.80640000000001,22.5" style="stroke:black;fill:none;stroke-width:2.0;stroke-linecap:round;stroke-linejoin:round;" /><path d="M -140.4,4.5 L -126.80640000000001,4.5" style="stroke:black;fill:none;stroke-width:2.0;stroke-linecap:round;stroke-linejoin:round;" /><path d="M -75.96000000000001,13.5 L -72.0,13.5" style="stroke:black;fill:none;stroke-width:2.0;stroke-linecap:round;stroke-linejoin:round;" /><path d="M -68.4,38.25 L -72.0,38.25 L -72.0,13.5" style="stroke:black;fill:none;stroke-width:2;stroke-linecap:round;stroke-linejoin:round;" /><path d="M -127.80000000000001,98.64000000000001 L -109.80000000000001,98.64000000000001 L -109.28571428571429,98.63265306122449 L -108.77142857142859,98.61061224489796 L -108.25714285714287,98.57387755102042 L -107.74285714285716,98.52244897959184 L -107.22857142857144,98.45632653061224 L -106.71428571428572,98.37551020408164 L -106.2,98.28 L -105.6857142857143,98.16979591836736 L -105.17142857142858,98.04489795918369 L -104.65714285714287,97.90530612244898 L -104.14285714285715,97.75102040816327 L -103.62857142857145,97.58204081632653 L -103.11428571428573,97.39836734693878 L -102.60000000000002,97.2 L -102.0857142857143,96.9869387755102 L -101.57142857142858,96.7591836734694 L -101.05714285714286,96.51673469387754 L -100.54285714285716,96.25959183673469 L -100.02857142857144,95.98775510204082 L -99.51428571428573,95.70122448979592 L -99.00000000000001,95.39999999999999 L -98.48571428571431,95.08408163265305 L -97.97142857142858,94.7534693877551 L -97.45714285714286,94.40816326530613 L -96.94285714285715,94.04816326530612 L -96.42857142857144,93.67346938775509 L -95.91428571428573,93.28408163265307 L -95.4,92.88 L -94.8857142857143,92.46122448979592 L -94.3714285714286,92.02775510204083 L -93.85714285714288,91.57959183673469 L -93.34285714285716,91.11673469387755 L -92.82857142857144,90.63918367346939 L -92.31428571428572,90.14693877551021 L -91.80000000000001,89.64000000000001 L -91.28571428571429,89.11836734693878 L -90.77142857142859,88.58204081632653 L -90.25714285714287,88.03102040816326 L -89.74285714285716,87.46530612244898 L -89.22857142857143,86.88489795918366 L -88.71428571428572,86.28979591836735 L -88.2,85.67999999999999 L -87.6857142857143,85.05551020408163 L -87.17142857142858,84.41632653061224 L -86.65714285714287,83.76244897959184 L -86.14285714285715,83.0938775510204 L -85.62857142857145,82.41061224489796 L -85.11428571428573,81.71265306122449 L -84.60000000000001,81.0 L -84.60000000000001,81.0 L -85.11428571428573,80.28734693877551 L -85.62857142857145,79.58938775510204 L -86.14285714285715,78.9061224489796 L -86.65714285714287,78.23755102040816 L -87.17142857142858,77.58367346938776 L -87.6857142857143,76.94448979591837 L -88.2,76.32000000000001 L -88.71428571428572,75.71020408163265 L -89.22857142857143,75.11510204081634 L -89.74285714285716,74.53469387755102 L -90.25714285714287,73.96897959183674 L -90.77142857142859,73.41795918367347 L -91.28571428571429,72.88163265306122 L -91.80000000000001,72.35999999999999 L -92.31428571428572,71.85306122448979 L -92.82857142857144,71.36081632653061 L -93.34285714285716,70.88326530612245 L -93.85714285714288,70.42040816326531 L -94.3714285714286,69.97224489795919 L -94.8857142857143,69.53877551020408 L -95.4,69.12 L -95.91428571428573,68.71591836734693 L -96.42857142857144,68.3265306122449 L -96.94285714285715,67.95183673469387 L -97.45714285714286,67.59183673469387 L -97.97142857142858,67.2465306122449 L -98.48571428571431,66.91591836734693 L -99.00000000000001,66.6 L -99.51428571428573,66.29877551020408 L -100.02857142857144,66.01224489795918 L -100.54285714285716,65.7404081632653 L -101.05714285714286,65.48326530612245 L -101.57142857142858,65.2408163265306 L -102.0857142857143,65.0130612244898 L -102.60000000000002,64.8 L -103.11428571428573,64.60163265306122 L -103.62857142857145,64.41795918367346 L -104.14285714285715,64.24897959183673 L -104.65714285714287,64.09469387755102 L -105.17142857142858,63.95510204081632 L -105.6857142857143,63.83020408163265 L -106.2,63.72 L -106.71428571428572,63.624489795918365 L -107.22857142857144,63.543673469387755 L -107.74285714285716,63.47755102040816 L -108.25714285714287,63.42612244897959 L -108.77142857142859,63.389387755102035 L -109.28571428571429,63.367346938775505 L -109.80000000000001,63.35999999999999 L -127.80000000000001,63.35999999999999 L -127.80000000000001,63.35999999999999 L -127.1088,64.08 L -126.44640000000001,64.8 L -125.81280000000002,65.52 L -125.20800000000001,66.24 L -124.632,66.96 L -124.08480000000002,67.67999999999999 L -123.56640000000002,68.39999999999999 L -123.0768,69.12 L -122.61600000000001,69.84 L -122.184,70.56 L -121.78080000000001,71.28 L -121.4064,72.0 L -121.06080000000001,72.72 L -120.744,73.44 L -120.456,74.16 L -120.19680000000001,74.88 L -119.96640000000001,75.60000000000001 L -119.76480000000001,76.32000000000001 L -119.592,77.04 L -119.44800000000002,77.76 L -119.33280000000002,78.48 L -119.24640000000001,79.2 L -119.18880000000001,79.91999999999999 L -119.16000000000003,80.64000000000001 L -119.16000000000003,81.35999999999999 L -119.18880000000001,82.08000000000001 L -119.24640000000001,82.8 L -119.33280000000002,83.52 L -119.44800000000002,84.24 L -119.592,84.96 L -119.76480000000001,85.67999999999999 L -119.96640000000001,86.39999999999999 L -120.19680000000001,87.12 L -120.456,87.84 L -120.744,88.56 L -121.0608,89.28 L -121.4064,90.0 L -121.78080000000001,90.72 L -122.184,91.44 L -122.61600000000001,92.16 L -123.0768,92.88 L -123.56640000000002,93.60000000000001 L -124.08480000000002,94.32000000000001 L -124.632,95.04 L -125.20800000000003,95.76 L -125.81280000000002,96.48 L -126.44640000000001,97.2 L -127.1088,97.92 L -127.80000000000001,98.64000000000001" style="stroke:black;fill:none;stroke-width:2.0;stroke-linecap:round;stroke-linejoin:round;" /><path d="M -133.20000000000002,98.64000000000001 L -132.5088,97.92 L -131.84640000000002,97.2 L -131.21280000000002,96.48 L -130.608,95.76 L -130.032,95.04 L -129.4848,94.32000000000001 L -128.96640000000002,93.60000000000001 L -128.47680000000003,92.88 L -128.016,92.16 L -127.58400000000002,91.44 L -127.18080000000002,90.72 L -126.80640000000001,90.0 L -126.4608,89.28 L -126.14400000000002,88.56 L -125.85600000000002,87.84 L -125.59680000000002,87.12 L -125.3664,86.39999999999999 L -125.16480000000001,85.67999999999999 L -124.99200000000002,84.96 L -124.84800000000001,84.24 L -124.73280000000001,83.52 L -124.6464,82.8 L -124.5888,82.08000000000001 L -124.56000000000002,81.35999999999999 L -124.56000000000002,80.64000000000001 L -124.5888,79.91999999999999 L -124.6464,79.2 L -124.73280000000001,78.48 L -124.84800000000001,77.76 L -124.99200000000002,77.04 L -125.16480000000001,76.32000000000001 L -125.3664,75.60000000000001 L -125.59680000000002,74.88 L -125.85600000000002,74.16 L -126.14400000000002,73.44 L -126.4608,72.72 L -126.80640000000001,72.0 L -127.18080000000002,71.28 L -127.58400000000002,70.56 L -128.016,69.84 L -128.47680000000003,69.12 L -128.96640000000002,68.39999999999999 L -129.4848,67.67999999999999 L -130.032,66.96 L -130.608,66.24 L -131.21280000000002,65.52 L -131.84640000000002,64.8 L -132.5088,64.08 L -133.20000000000002,63.35999999999999" style="stroke:black;fill:none;stroke-width:2.0;stroke-linecap:round;stroke-linejoin:round;" /><path d="M -140.4,90.0 L -126.80640000000001,90.0" style="stroke:black;fill:none;stroke-width:2.0;stroke-linecap:round;stroke-linejoin:round;" /><path d="M -140.4,72.0 L -126.80640000000001,72.0" style="stroke:black;fill:none;stroke-width:2.0;stroke-linecap:round;stroke-linejoin:round;" /><path d="M -75.96000000000001,81.0 L -72.0,81.0" style="stroke:black;fill:none;stroke-width:2.0;stroke-linecap:round;stroke-linejoin:round;" /><path d="M -199.8,71.64000000000001 L -181.8,71.64000000000001 L -181.2857142857143,71.63265306122449 L -180.7714285714286,71.61061224489796 L -180.2571428571429,71.57387755102042 L -179.74285714285713,71.52244897959184 L -179.22857142857143,71.45632653061224 L -178.71428571428572,71.37551020408164 L -178.20000000000002,71.28 L -177.68571428571428,71.16979591836736 L -177.17142857142858,71.04489795918367 L -176.65714285714287,70.90530612244898 L -176.14285714285717,70.75102040816327 L -175.62857142857143,70.58204081632654 L -175.11428571428573,70.39836734693878 L -174.60000000000002,70.2 L -174.08571428571432,69.9869387755102 L -173.57142857142856,69.7591836734694 L -173.05714285714285,69.51673469387755 L -172.54285714285714,69.2595918367347 L -172.0285714285714,68.98775510204082 L -171.5142857142857,68.70122448979592 L -171.0,68.4 L -170.4857142857143,68.08408163265307 L -169.9714285714286,67.7534693877551 L -169.45714285714286,67.40816326530613 L -168.94285714285715,67.04816326530613 L -168.42857142857144,66.6734693877551 L -167.9142857142857,66.28408163265307 L -167.4,65.88 L -166.8857142857143,65.46122448979592 L -166.3714285714286,65.02775510204081 L -165.8571428571429,64.57959183673469 L -165.34285714285716,64.11673469387755 L -164.82857142857145,63.63918367346939 L -164.31428571428575,63.14693877551021 L -163.8,62.64000000000001 L -163.2857142857143,62.11836734693878 L -162.7714285714286,61.58204081632653 L -162.2571428571429,61.031020408163265 L -161.7428571428572,60.465306122448986 L -161.22857142857143,59.884897959183675 L -160.71428571428572,59.289795918367346 L -160.20000000000002,58.67999999999999 L -159.68571428571428,58.055510204081635 L -159.17142857142858,57.41632653061224 L -158.65714285714287,56.76244897959184 L -158.14285714285717,56.093877551020405 L -157.62857142857143,55.41061224489796 L -157.11428571428573,54.71265306122449 L -156.6,54.0 L -156.6,54.0 L -157.11428571428573,53.28734693877551 L -157.62857142857143,52.58938775510204 L -158.14285714285717,51.906122448979595 L -158.65714285714287,51.23755102040816 L -159.17142857142858,50.58367346938776 L -159.68571428571428,49.944489795918365 L -160.20000000000002,49.32000000000001 L -160.71428571428572,48.710204081632654 L -161.22857142857143,48.115102040816325 L -161.7428571428572,47.534693877551014 L -162.2571428571429,46.968979591836735 L -162.7714285714286,46.41795918367347 L -163.2857142857143,45.88163265306122 L -163.8,45.35999999999999 L -164.31428571428575,44.85306122448979 L -164.82857142857145,44.36081632653061 L -165.34285714285716,43.88326530612245 L -165.8571428571429,43.42040816326531 L -166.3714285714286,42.972244897959186 L -166.8857142857143,42.53877551020408 L -167.4,42.12 L -167.9142857142857,41.71591836734694 L -168.42857142857144,41.326530612244895 L -168.94285714285715,40.95183673469387 L -169.45714285714286,40.59183673469387 L -169.9714285714286,40.2465306122449 L -170.4857142857143,39.91591836734693 L -171.0,39.599999999999994 L -171.5142857142857,39.29877551020408 L -172.0285714285714,39.01224489795918 L -172.54285714285714,38.7404081632653 L -173.05714285714285,38.48326530612245 L -173.57142857142856,38.24081632653061 L -174.08571428571432,38.013061224489796 L -174.60000000000002,37.8 L -175.11428571428573,37.601632653061216 L -175.62857142857143,37.41795918367347 L -176.14285714285717,37.248979591836736 L -176.65714285714287,37.09469387755102 L -177.17142857142858,36.95510204081632 L -177.68571428571428,36.83020408163265 L -178.20000000000002,36.72 L -178.71428571428572,36.624489795918365 L -179.22857142857143,36.543673469387755 L -179.74285714285713,36.47755102040816 L -180.2571428571429,36.42612244897959 L -180.7714285714286,36.389387755102035 L -181.2857142857143,36.367346938775505 L -181.8,36.35999999999999 L -199.8,36.35999999999999 L -199.8,36.35999999999999 L -199.1088,37.07999999999999 L -198.4464,37.8 L -197.8128,38.519999999999996 L -197.208,39.239999999999995 L -196.632,39.959999999999994 L -196.08480000000003,40.67999999999999 L -195.56640000000002,41.4 L -195.0768,42.12 L -194.616,42.839999999999996 L -194.184,43.56 L -193.78080000000003,44.28 L -193.40640000000002,45.0 L -193.0608,45.72 L -192.744,46.44 L -192.45600000000002,47.160000000000004 L -192.19680000000002,47.88 L -191.9664,48.6 L -191.7648,49.32000000000001 L -191.592,50.040000000000006 L -191.448,50.760000000000005 L -191.3328,51.480000000000004 L -191.2464,52.199999999999996 L -191.18880000000001,52.92 L -191.16000000000003,53.64 L -191.16000000000003,54.36 L -191.18880000000001,55.08 L -191.2464,55.800000000000004 L -191.3328,56.52 L -191.448,57.24 L -191.592,57.96 L -191.7648,58.67999999999999 L -191.9664,59.4 L -192.19680000000002,60.12 L -192.45600000000002,60.839999999999996 L -192.744,61.56 L -193.0608,62.28 L -193.40640000000002,63.0 L -193.78080000000003,63.72 L -194.184,64.44 L -194.616,65.16 L -195.0768,65.88 L -195.56640000000002,66.60000000000001 L -196.08480000000003,67.32000000000001 L -196.632,68.04 L -197.20800000000003,68.76 L -197.8128,69.48 L -198.4464,70.2 L -199.1088,70.92 L -199.8,71.64000000000001" style="stroke:black;fill:none;stroke-width:2.0;stroke-linecap:round;stroke-linejoin:round;" /><path d="M -205.20000000000002,71.64000000000001 L -204.5088,70.92 L -203.8464,70.2 L -203.21280000000002,69.48 L -202.608,68.76 L -202.032,68.04 L -201.4848,67.32000000000001 L -200.9664,66.60000000000001 L -200.47680000000003,65.88 L -200.016,65.16 L -199.584,64.44 L -199.1808,63.72 L -198.8064,63.0 L -198.4608,62.28 L -198.144,61.56 L -197.85600000000002,60.839999999999996 L -197.5968,60.12 L -197.3664,59.4 L -197.1648,58.67999999999999 L -196.99200000000002,57.96 L -196.848,57.24 L -196.7328,56.52 L -196.64640000000003,55.800000000000004 L -196.58880000000002,55.08 L -196.56000000000003,54.36 L -196.56000000000003,53.64 L -196.58880000000002,52.92 L -196.64640000000003,52.199999999999996 L -196.7328,51.480000000000004 L -196.848,50.760000000000005 L -196.99200000000002,50.040000000000006 L -197.1648,49.32000000000001 L -197.3664,48.6 L -197.5968,47.88 L -197.85600000000002,47.160000000000004 L -198.144,46.44 L -198.4608,45.72 L -198.8064,45.0 L -199.1808,44.28 L -199.584,43.56 L -200.016,42.839999999999996 L -200.47680000000003,42.12 L -200.9664,41.4 L -201.4848,40.67999999999999 L -202.032,39.959999999999994 L -202.608,39.239999999999995 L -203.21280000000002,38.519999999999996 L -203.8464,37.8 L -204.5088,37.07999999999999 L -205.20000000000002,36.35999999999999" style="stroke:black;fill:none;stroke-width:2.0;stroke-linecap:round;stroke-linejoin:round;" /><path d="M -212.4,63.0 L -198.8064,63.0" style="stroke:black;fill:none;stroke-width:2.0;stroke-linecap:round;stroke-linejoin:round;" /><path d="M -212.4,45.0 L -198.8064,45.0" style="stroke:black;fill:none;stroke-width:2.0;stroke-linecap:round;stroke-linejoin:round;" /><path d="M -147.96,54.0 L -144.0,54.0" style="stroke:black;fill:none;stroke-width:2.0;stroke-linecap:round;stroke-linejoin:round;" /><path d="M -140.4,72.0 L -144.0,72.0 L -144.0,54.0" style="stroke:black;fill:none;stroke-width:2;stroke-linecap:round;stroke-linejoin:round;" /><path d="M -174.6,126.0 L -173.44673604034716,125.96301706950607 L -172.2982110896789,125.85222024881844 L -171.1591446833753,125.66806482583918 L -170.03421748962887,125.41130753470253 L -168.9280520755748,125.08300344619204 L -167.84519391217128,124.68450163222839 L -166.79009269588394,124.21743962224355 L -165.76708406392913,123.68373667422101 L -164.7803717782101,123.08558588805313 L -163.83401045115812,122.42544519362322 L -162.9318888844598,121.70602725064442 L -162.07771408913723,120.93028830175909 L -161.27499605264433,120.10141602470371 L -160.52703331557547,119.2228164334572 L -159.8368994172548,118.29809988219905 L -159.20743026590378,117.33106622958945 L -158.641212485286,116.32568922433504 L -158.14057278571536,115.28610017620309 L -157.70756840310432,114.21657097958354 L -157.34397864534012,113.12149655935858 L -157.05129758072718,112.00537681121367 L -156.8307278985399,110.87279811060083 L -156.6831759669144,109.72841446633828 L -156.60924810838762,108.5769283962898 L -156.60924810838762,107.4230716037102 L -156.6831759669144,106.27158553366172 L -156.8307278985399,105.12720188939917 L -157.05129758072718,103.99462318878633 L -157.34397864534012,102.87850344064142 L -157.70756840310432,101.78342902041646 L -158.14057278571536,100.71389982379691 L -158.641212485286,99.67431077566496 L -159.20743026590378,98.66893377041055 L -159.8368994172548,97.70190011780095 L -160.52703331557547,96.7771835665428 L -161.27499605264433,95.89858397529629 L -162.07771408913723,95.06971169824091 L -162.9318888844598,94.29397274935558 L -163.83401045115812,93.57455480637678 L -164.7803717782101,92.91441411194688 L -165.76708406392913,92.31626332577899 L -166.79009269588394,91.78256037775645 L -167.84519391217128,91.31549836777161 L -168.9280520755748,90.91699655380796 L -170.03421748962887,90.58869246529747 L -171.1591446833753,90.33193517416082 L -172.2982110896789,90.14777975118156 L -173.44673604034716,90.03698293049393 L -174.6,90.0 L -174.6,90.0 L -198.0,90.0 L -198.0,108.0 L -198.0,126.0 L -174.6,126.0" style="stroke:black;fill:none;stroke-width:2.0;stroke-linecap:round;stroke-linejoin:round;" /><path d="M -210.6,117.0 L -198.0,117.0" style="stroke:black;fill:none;stroke-width:2.0;stroke-linecap:round;stroke-linejoin:round;" /><path d="M -210.6,99.0 L -198.0,99.0" style="stroke:black;fill:none;stroke-width:2.0;stroke-linecap:round;stroke-linejoin:round;" /><path d="M -156.6,108.0 L -144.0,108.0" style="stroke:black;fill:none;stroke-width:2.0;stroke-linecap:round;stroke-linejoin:round;" /><path d="M -140.4,90.0 L -144.0,90.0 L -144.0,108.0" style="stroke:black;fill:none;stroke-width:2;stroke-linecap:round;stroke-linejoin:round;" /><path d="M -68.4,56.25 L -72.0,56.25 L -72.0,81.0" style="stroke:black;fill:none;stroke-width:2;stroke-linecap:round;stroke-linejoin:round;" /><text x="3.600000000000003" y="41.65" fill="black" font-size="14.0" font-family="sans" text-anchor="start"><tspan x="3.600000000000003" dy="14.0">\text{Output}</tspan></text><text x="-144.0" y="-1.0999999999999996" fill="black" font-size="14.0" font-family="sans" text-anchor="end"><tspan x="-144.0" dy="14.0">e</tspan></text><text x="-144.0" y="16.9" fill="black" font-size="14.0" font-family="sans" text-anchor="end"><tspan x="-144.0" dy="14.0">c</tspan></text><text x="-216.0" y="39.4" fill="black" font-size="14.0" font-family="sans" text-anchor="end"><tspan x="-216.0" dy="14.0">a</tspan></text><text x="-216.0" y="57.39999999999999" fill="black" font-size="14.0" font-family="sans" text-anchor="end"><tspan x="-216.0" dy="14.0">c</tspan></text><text x="-214.20000000000002" y="93.39999999999999" fill="black" font-size="14.0" font-family="sans" text-anchor="end"><tspan x="-214.20000000000002" dy="14.0">a</tspan></text><text x="-214.20000000000002" y="111.39999999999999" fill="black" font-size="14.0" font-family="sans" text-anchor="end"><tspan x="-214.20000000000002" dy="14.0">d</tspan></text></svg>