<?xml version="1.0" encoding="utf-8" standalone="no"?>
<!DOCTYPE svg PUBLIC "-//W3C//DTD SVG 1.1//EN"
  "http://www.w3.org/Graphics/SVG/1.1/DTD/svg11.dtd">
<svg xmlns:xlink="http://www.w3.org/1999/xlink" width="249.6pt" height="85.86pt" viewBox="0 0 249.6 85.86" xmlns="http://www.w3.org/2000/svg" version="1.1">
 <metadata>
  <rdf:RDF xmlns:dc="http://purl.org/dc/elements/1.1/" xmlns:cc="http://creativecommons.org/ns#" xmlns:rdf="http://www.w3.org/1999/02/22-rdf-syntax-ns#">
   <cc:Work>
    <dc:type rdf:resource="http://purl.org/dc/dcmitype/StillImage"/>
    <dc:date>2024-10-10T23:13:52.288883</dc:date>
    <dc:format>image/svg+xml</dc:format>
    <dc:creator>
     <cc:Agent>
      <dc:title>Matplotlib v3.9.0, https://matplotlib.org/</dc:title>
     </cc:Agent>
    </dc:creator>
   </cc:Work>
  </rdf:RDF>
 </metadata>
 <defs>
  <style type="text/css">*{stroke-linejoin: round; stroke-linecap: butt}</style>
 </defs>
 <g id="figure_1">
  <g id="patch_1">
   <path d="M 0 85.86 
L 249.6 85.86 
L 249.6 0 
L 0 0 
L 0 85.86 
z
" style="fill: none"/>
  </g>
  <g id="axes_1">
   <g id="patch_2">
    <path d="M 79.14 27 
C 80.285677 27 81.384585 26.544818 82.194701 25.734701 
C 83.004818 24.924585 83.46 23.825677 83.46 22.68 
C 83.46 21.534323 83.004818 20.435415 82.194701 19.625299 
C 81.384585 18.815182 80.285677 18.36 79.14 18.36 
C 77.994323 18.36 76.895415 18.815182 76.085299 19.625299 
C 75.275182 20.435415 74.82 21.534323 74.82 22.68 
C 74.82 23.825677 75.275182 24.924585 76.085299 25.734701 
C 76.895415 26.544818 77.994323 27 79.14 27 
L 79.14 27 
z
" clip-path="url(#pdcbad476e0)" style="fill: none; stroke: #000000; stroke-width: 2; stroke-linejoin: miter"/>
   </g>
   <g id="patch_3">
    <path d="M 63.12 67.5 
C 64.265677 67.5 65.364585 67.044818 66.174701 66.234701 
C 66.984818 65.424585 67.44 64.325677 67.44 63.18 
C 67.44 62.034323 66.984818 60.935415 66.174701 60.125299 
C 65.364585 59.315182 64.265677 58.86 63.12 58.86 
C 61.974323 58.86 60.875415 59.315182 60.065299 60.125299 
C 59.255182 60.935415 58.8 62.034323 58.8 63.18 
C 58.8 64.325677 59.255182 65.424585 60.065299 66.234701 
C 60.875415 67.044818 61.974323 67.5 63.12 67.5 
L 63.12 67.5 
z
" clip-path="url(#pdcbad476e0)" style="fill: none; stroke: #000000; stroke-width: 2; stroke-linejoin: miter"/>
   </g>
   <g id="line2d_1">
    <path d="M 128.82 60.93 
L 129.973264 60.893017 
L 131.121789 60.78222 
L 132.260855 60.598065 
L 133.385783 60.341308 
L 134.491948 60.013003 
L 135.574806 59.614502 
L 136.629907 59.14744 
L 137.652916 58.613737 
L 138.639628 58.015586 
L 139.58599 57.355445 
L 140.488111 56.636027 
L 141.342286 55.860288 
L 142.145004 55.031416 
L 142.892967 54.152816 
L 143.583101 53.2281 
L 144.21257 52.261066 
L 144.778788 51.255689 
L 145.279427 50.2161 
L 145.712432 49.146571 
L 146.076021 48.051497 
L 146.368702 46.935377 
L 146.589272 45.802798 
L 146.736824 44.658414 
L 146.810752 43.506928 
L 146.810752 42.353072 
L 146.736824 41.201586 
L 146.589272 40.057202 
L 146.368702 38.924623 
L 146.076021 37.808503 
L 145.712432 36.713429 
L 145.279427 35.6439 
L 144.778788 34.604311 
L 144.21257 33.598934 
L 143.583101 32.6319 
L 142.892967 31.707184 
L 142.145004 30.828584 
L 141.342286 29.999712 
L 140.488111 29.223973 
L 139.58599 28.504555 
L 138.639628 27.844414 
L 137.652916 27.246263 
L 136.629907 26.71256 
L 135.574806 26.245498 
L 134.491948 25.846997 
L 133.385783 25.518692 
L 132.260855 25.261935 
L 131.121789 25.07778 
L 129.973264 24.966983 
L 128.82 24.93 
L 128.82 24.93 
L 105.42 24.93 
L 105.42 42.93 
L 105.42 60.93 
L 128.82 60.93 
" clip-path="url(#pdcbad476e0)" style="fill: none; stroke: #000000; stroke-width: 2; stroke-linecap: round"/>
   </g>
   <g id="line2d_2">
    <path d="M 92.82 51.93 
L 105.42 51.93 
" clip-path="url(#pdcbad476e0)" style="fill: none; stroke: #000000; stroke-width: 2; stroke-linecap: round"/>
   </g>
   <g id="line2d_3">
    <path d="M 92.82 33.93 
L 105.42 33.93 
" clip-path="url(#pdcbad476e0)" style="fill: none; stroke: #000000; stroke-width: 2; stroke-linecap: round"/>
   </g>
   <g id="line2d_4">
    <path d="M 146.82 42.93 
L 159.42 42.93 
" clip-path="url(#pdcbad476e0)" style="fill: none; stroke: #000000; stroke-width: 2; stroke-linecap: round"/>
   </g>
   <g id="line2d_5">
    <path d="M 56.82 40.68 
L 57.973264 40.643017 
L 59.121789 40.53222 
L 60.260855 40.348065 
L 61.385783 40.091308 
L 62.491948 39.763003 
L 63.574806 39.364502 
L 64.629907 38.89744 
L 65.652916 38.363737 
L 66.639628 37.765586 
L 67.58599 37.105445 
L 68.488111 36.386027 
L 69.342286 35.610288 
L 70.145004 34.781416 
L 70.892967 33.902816 
L 71.583101 32.9781 
L 72.21257 32.011066 
L 72.778788 31.005689 
L 73.279427 29.9661 
L 73.712432 28.896571 
L 74.076021 27.801497 
L 74.368702 26.685377 
L 74.589272 25.552798 
L 74.736824 24.408414 
L 74.810752 23.256928 
L 74.810752 22.103072 
L 74.736824 20.951586 
L 74.589272 19.807202 
L 74.368702 18.674623 
L 74.076021 17.558503 
L 73.712432 16.463429 
L 73.279427 15.3939 
L 72.778788 14.354311 
L 72.21257 13.348934 
L 71.583101 12.3819 
L 70.892967 11.457184 
L 70.145004 10.578584 
L 69.342286 9.749712 
L 68.488111 8.973973 
L 67.58599 8.254555 
L 66.639628 7.594414 
L 65.652916 6.996263 
L 64.629907 6.46256 
L 63.574806 5.995498 
L 62.491948 5.596997 
L 61.385783 5.268692 
L 60.260855 5.011935 
L 59.121789 4.82778 
L 57.973264 4.716983 
L 56.82 4.68 
L 56.82 4.68 
L 33.42 4.68 
L 33.42 22.68 
L 33.42 40.68 
L 56.82 40.68 
" clip-path="url(#pdcbad476e0)" style="fill: none; stroke: #000000; stroke-width: 2; stroke-linecap: round"/>
   </g>
   <g id="line2d_6">
    <path d="M 20.82 31.68 
L 33.42 31.68 
" clip-path="url(#pdcbad476e0)" style="fill: none; stroke: #000000; stroke-width: 2; stroke-linecap: round"/>
   </g>
   <g id="line2d_7">
    <path d="M 20.82 13.68 
L 33.42 13.68 
" clip-path="url(#pdcbad476e0)" style="fill: none; stroke: #000000; stroke-width: 2; stroke-linecap: round"/>
   </g>
   <g id="line2d_8">
    <path d="M 83.46 22.68 
L 87.42 22.68 
" clip-path="url(#pdcbad476e0)" style="fill: none; stroke: #000000; stroke-width: 2; stroke-linecap: round"/>
   </g>
   <g id="line2d_9">
    <path d="M 92.82 33.93 
L 87.42 33.93 
L 87.42 22.68 
" clip-path="url(#pdcbad476e0)" style="fill: none; stroke: #000000; stroke-width: 2; stroke-linecap: round"/>
   </g>
   <g id="line2d_10">
    <path d="M 15.42 63.18 
L 35.4 63.18 
M 67.44 63.18 
L 87.42 63.18 
" clip-path="url(#pdcbad476e0)" style="fill: none; stroke: #000000; stroke-width: 2; stroke-linecap: round"/>
   </g>
   <g id="line2d_11">
    <path d="M 35.4 45.18 
L 58.8 63.18 
L 35.4 81.18 
L 35.4 45.18 
" clip-path="url(#pdcbad476e0)" style="fill: none; stroke: #000000; stroke-width: 2; stroke-linecap: round"/>
   </g>
   <g id="line2d_12">
    <path d="M 92.82 51.93 
L 87.42 51.93 
L 87.42 63.18 
" clip-path="url(#pdcbad476e0)" style="fill: none; stroke: #000000; stroke-width: 2; stroke-linecap: round"/>
   </g>
   <g id="text_1">
    <!-- $\text{Output}$ -->
    <g transform="translate(163.02 46.764687) scale(0.14 -0.14)">
     <defs>
      <path id="DejaVuSans-4f" d="M 2522 4238 
Q 1834 4238 1429 3725 
Q 1025 3213 1025 2328 
Q 1025 1447 1429 934 
Q 1834 422 2522 422 
Q 3209 422 3611 934 
Q 4013 1447 4013 2328 
Q 4013 3213 3611 3725 
Q 3209 4238 2522 4238 
z
M 2522 4750 
Q 3503 4750 4090 4092 
Q 4678 3434 4678 2328 
Q 4678 1225 4090 567 
Q 3503 -91 2522 -91 
Q 1538 -91 948 565 
Q 359 1222 359 2328 
Q 359 3434 948 4092 
Q 1538 4750 2522 4750 
z
" transform="scale(0.015625)"/>
      <path id="DejaVuSans-75" d="M 544 1381 
L 544 3500 
L 1119 3500 
L 1119 1403 
Q 1119 906 1312 657 
Q 1506 409 1894 409 
Q 2359 409 2629 706 
Q 2900 1003 2900 1516 
L 2900 3500 
L 3475 3500 
L 3475 0 
L 2900 0 
L 2900 538 
Q 2691 219 2414 64 
Q 2138 -91 1772 -91 
Q 1169 -91 856 284 
Q 544 659 544 1381 
z
M 1991 3584 
L 1991 3584 
z
" transform="scale(0.015625)"/>
      <path id="DejaVuSans-74" d="M 1172 4494 
L 1172 3500 
L 2356 3500 
L 2356 3053 
L 1172 3053 
L 1172 1153 
Q 1172 725 1289 603 
Q 1406 481 1766 481 
L 2356 481 
L 2356 0 
L 1766 0 
Q 1100 0 847 248 
Q 594 497 594 1153 
L 594 3053 
L 172 3053 
L 172 3500 
L 594 3500 
L 594 4494 
L 1172 4494 
z
" transform="scale(0.015625)"/>
      <path id="DejaVuSans-70" d="M 1159 525 
L 1159 -1331 
L 581 -1331 
L 581 3500 
L 1159 3500 
L 1159 2969 
Q 1341 3281 1617 3432 
Q 1894 3584 2278 3584 
Q 2916 3584 3314 3078 
Q 3713 2572 3713 1747 
Q 3713 922 3314 415 
Q 2916 -91 2278 -91 
Q 1894 -91 1617 61 
Q 1341 213 1159 525 
z
M 3116 1747 
Q 3116 2381 2855 2742 
Q 2594 3103 2138 3103 
Q 1681 3103 1420 2742 
Q 1159 2381 1159 1747 
Q 1159 1113 1420 752 
Q 1681 391 2138 391 
Q 2594 391 2855 752 
Q 3116 1113 3116 1747 
z
" transform="scale(0.015625)"/>
     </defs>
     <use xlink:href="#DejaVuSans-4f" transform="translate(0 0.78125)"/>
     <use xlink:href="#DejaVuSans-75" transform="translate(78.710938 0.78125)"/>
     <use xlink:href="#DejaVuSans-74" transform="translate(142.089844 0.78125)"/>
     <use xlink:href="#DejaVuSans-70" transform="translate(181.298828 0.78125)"/>
     <use xlink:href="#DejaVuSans-75" transform="translate(244.775391 0.78125)"/>
     <use xlink:href="#DejaVuSans-74" transform="translate(308.154297 0.78125)"/>
    </g>
   </g>
   <g id="text_2">
    <!-- a -->
    <g transform="translate(8.640625 17.543125) scale(0.14 -0.14)">
     <defs>
      <path id="DejaVuSans-61" d="M 2194 1759 
Q 1497 1759 1228 1600 
Q 959 1441 959 1056 
Q 959 750 1161 570 
Q 1363 391 1709 391 
Q 2188 391 2477 730 
Q 2766 1069 2766 1631 
L 2766 1759 
L 2194 1759 
z
M 3341 1997 
L 3341 0 
L 2766 0 
L 2766 531 
Q 2569 213 2275 61 
Q 1981 -91 1556 -91 
Q 1019 -91 701 211 
Q 384 513 384 1019 
Q 384 1609 779 1909 
Q 1175 2209 1959 2209 
L 2766 2209 
L 2766 2266 
Q 2766 2663 2505 2880 
Q 2244 3097 1772 3097 
Q 1472 3097 1187 3025 
Q 903 2953 641 2809 
L 641 3341 
Q 956 3463 1253 3523 
Q 1550 3584 1831 3584 
Q 2591 3584 2966 3190 
Q 3341 2797 3341 1997 
z
" transform="scale(0.015625)"/>
     </defs>
     <use xlink:href="#DejaVuSans-61"/>
    </g>
   </g>
   <g id="text_3">
    <!-- b -->
    <g transform="translate(8.332187 35.543125) scale(0.14 -0.14)">
     <defs>
      <path id="DejaVuSans-62" d="M 3116 1747 
Q 3116 2381 2855 2742 
Q 2594 3103 2138 3103 
Q 1681 3103 1420 2742 
Q 1159 2381 1159 1747 
Q 1159 1113 1420 752 
Q 1681 391 2138 391 
Q 2594 391 2855 752 
Q 3116 1113 3116 1747 
z
M 1159 2969 
Q 1341 3281 1617 3432 
Q 1894 3584 2278 3584 
Q 2916 3584 3314 3078 
Q 3713 2572 3713 1747 
Q 3713 922 3314 415 
Q 2916 -91 2278 -91 
Q 1894 -91 1617 61 
Q 1341 213 1159 525 
L 1159 0 
L 581 0 
L 581 4863 
L 1159 4863 
L 1159 2969 
z
" transform="scale(0.015625)"/>
     </defs>
     <use xlink:href="#DejaVuSans-62"/>
    </g>
   </g>
   <g id="text_4">
    <!-- c -->
    <g transform="translate(4.122187 67.043125) scale(0.14 -0.14)">
     <defs>
      <path id="DejaVuSans-63" d="M 3122 3366 
L 3122 2828 
Q 2878 2963 2633 3030 
Q 2388 3097 2138 3097 
Q 1578 3097 1268 2742 
Q 959 2388 959 1747 
Q 959 1106 1268 751 
Q 1578 397 2138 397 
Q 2388 397 2633 464 
Q 2878 531 3122 666 
L 3122 134 
Q 2881 22 2623 -34 
Q 2366 -91 2075 -91 
Q 1284 -91 818 406 
Q 353 903 353 1747 
Q 353 2603 823 3093 
Q 1294 3584 2113 3584 
Q 2378 3584 2631 3529 
Q 2884 3475 3122 3366 
z
" transform="scale(0.015625)"/>
     </defs>
     <use xlink:href="#DejaVuSans-63"/>
    </g>
   </g>
  </g>
 </g>
 <defs>
  <clipPath id="pdcbad476e0">
   <rect x="0" y="-0" width="249.6" height="85.86"/>
  </clipPath>
 </defs>
</svg>
