<svg xmlns="http://www.w3.org/2000/svg" xml:lang="en" height="98.48000000000002pt" width="246.68pt" viewBox="-156.57999999999998 -8.740000000000004 246.68 98.48000000000002"><circle cx="-8.28" cy="40.5" r="4.32" style="stroke:black;fill:none;stroke-width:2.0;" /><path d="M -55.80000000000001,58.14000000000001 L -37.80000000000001,58.14000000000001 L -37.2857142857143,58.132653061224495 L -36.77142857142859,58.110612244897965 L -36.257142857142874,58.07387755102041 L -35.742857142857154,58.02244897959184 L -35.22857142857144,57.956326530612245 L -34.71428571428573,57.875510204081635 L -34.20000000000002,57.78 L -33.6857142857143,57.66979591836735 L -33.171428571428585,57.54489795918368 L -32.65714285714287,57.40530612244898 L -32.14285714285715,57.251020408163264 L -31.628571428571444,57.08204081632653 L -31.11428571428573,56.898367346938784 L -30.60000000000002,56.7 L -30.0857142857143,56.486938775510204 L -29.571428571428577,56.25918367346939 L -29.057142857142864,56.01673469387755 L -28.54285714285715,55.7595918367347 L -28.02857142857144,55.48775510204082 L -27.514285714285727,55.20122448979592 L -27.000000000000014,54.900000000000006 L -26.4857142857143,54.58408163265307 L -25.971428571428582,54.2534693877551 L -25.45714285714287,53.90816326530613 L -24.94285714285715,53.54816326530613 L -24.428571428571438,53.173469387755105 L -23.914285714285725,52.78408163265306 L -23.400000000000013,52.38 L -22.8857142857143,51.96122448979592 L -22.371428571428588,51.527755102040814 L -21.857142857142875,51.07959183673469 L -21.342857142857156,50.61673469387755 L -20.828571428571436,50.13918367346939 L -20.314285714285724,49.64693877551021 L -19.80000000000001,49.14000000000001 L -19.2857142857143,48.61836734693878 L -18.771428571428586,48.08204081632653 L -18.257142857142874,47.531020408163265 L -17.74285714285716,46.965306122448986 L -17.22857142857143,46.384897959183675 L -16.71428571428572,45.789795918367346 L -16.200000000000006,45.17999999999999 L -15.685714285714294,44.555510204081635 L -15.171428571428581,43.91632653061224 L -14.657142857142869,43.26244897959184 L -14.142857142857157,42.593877551020405 L -13.628571428571444,41.91061224489796 L -13.114285714285732,41.21265306122449 L -12.600000000000003,40.5 L -12.600000000000003,40.5 L -13.114285714285732,39.78734693877551 L -13.628571428571444,39.08938775510204 L -14.142857142857157,38.406122448979595 L -14.657142857142869,37.73755102040816 L -15.171428571428581,37.08367346938776 L -15.685714285714294,36.444489795918365 L -16.200000000000006,35.82 L -16.71428571428572,35.210204081632654 L -17.22857142857143,34.615102040816325 L -17.74285714285716,34.034693877551014 L -18.257142857142874,33.468979591836735 L -18.771428571428586,32.91795918367347 L -19.2857142857143,32.381632653061224 L -19.80000000000001,31.859999999999996 L -20.314285714285724,31.353061224489792 L -20.828571428571436,30.86081632653061 L -21.342857142857156,30.383265306122446 L -21.857142857142875,29.920408163265304 L -22.371428571428588,29.472244897959182 L -22.8857142857143,29.03877551020408 L -23.400000000000013,28.619999999999997 L -23.914285714285725,28.215918367346937 L -24.428571428571438,27.826530612244895 L -24.94285714285715,27.451836734693874 L -25.45714285714287,27.09183673469387 L -25.971428571428582,26.746530612244893 L -26.4857142857143,26.415918367346933 L -27.000000000000014,26.099999999999994 L -27.514285714285727,25.798775510204077 L -28.02857142857144,25.512244897959178 L -28.54285714285715,25.240408163265304 L -29.057142857142864,24.983265306122448 L -29.571428571428577,24.740816326530613 L -30.0857142857143,24.513061224489793 L -30.60000000000002,24.299999999999997 L -31.11428571428573,24.10163265306122 L -31.628571428571444,23.917959183673467 L -32.14285714285715,23.748979591836733 L -32.65714285714287,23.594693877551016 L -33.171428571428585,23.45510204081632 L -33.6857142857143,23.33020408163265 L -34.20000000000002,23.219999999999995 L -34.71428571428573,23.124489795918365 L -35.22857142857144,23.043673469387755 L -35.742857142857154,22.977551020408157 L -36.257142857142874,22.92612244897959 L -36.77142857142859,22.88938775510204 L -37.2857142857143,22.867346938775505 L -37.80000000000001,22.859999999999996 L -55.80000000000001,22.859999999999996 L -55.80000000000001,22.859999999999996 L -55.108800000000016,23.58 L -54.44640000000001,24.299999999999997 L -53.81280000000001,25.02 L -53.208000000000006,25.74 L -52.632000000000005,26.46 L -52.08480000000001,27.179999999999996 L -51.566400000000016,27.9 L -51.07680000000001,28.619999999999997 L -50.616000000000014,29.339999999999996 L -50.18400000000001,30.06 L -49.780800000000006,30.78 L -49.40640000000001,31.5 L -49.060800000000015,32.22 L -48.744000000000014,32.94 L -48.45600000000001,33.66 L -48.19680000000002,34.379999999999995 L -47.96640000000001,35.1 L -47.764800000000015,35.82 L -47.59200000000001,36.540000000000006 L -47.44800000000001,37.260000000000005 L -47.33280000000001,37.980000000000004 L -47.24640000000001,38.699999999999996 L -47.188800000000015,39.42 L -47.16000000000001,40.14 L -47.16000000000001,40.86 L -47.188800000000015,41.58 L -47.24640000000001,42.300000000000004 L -47.33280000000001,43.02 L -47.44800000000001,43.74 L -47.59200000000001,44.46 L -47.764800000000015,45.17999999999999 L -47.96640000000001,45.9 L -48.19680000000002,46.62 L -48.45600000000001,47.339999999999996 L -48.744000000000014,48.06 L -49.06080000000001,48.78 L -49.40640000000001,49.5 L -49.780800000000006,50.22 L -50.18400000000001,50.94 L -50.616000000000014,51.660000000000004 L -51.07680000000001,52.38 L -51.566400000000016,53.1 L -52.08480000000001,53.82000000000001 L -52.632000000000005,54.540000000000006 L -53.20800000000001,55.260000000000005 L -53.81280000000001,55.980000000000004 L -54.44640000000001,56.7 L -55.108800000000016,57.42000000000001 L -55.80000000000001,58.14000000000001" style="stroke:black;fill:none;stroke-width:2.0;stroke-linecap:round;stroke-linejoin:round;" /><path d="M -68.4,49.5 L -49.40640000000001,49.5" style="stroke:black;fill:none;stroke-width:2.0;stroke-linecap:round;stroke-linejoin:round;" /><path d="M -68.4,31.5 L -49.40640000000001,31.5" style="stroke:black;fill:none;stroke-width:2.0;stroke-linecap:round;stroke-linejoin:round;" /><path d="M -3.9600000000000035,40.5 L 0.0,40.5" style="stroke:black;fill:none;stroke-width:2.0;stroke-linecap:round;stroke-linejoin:round;" /><path d="M -127.80000000000001,31.140000000000004 L -109.80000000000001,31.140000000000004 L -109.28571428571429,31.132653061224495 L -108.77142857142859,31.11061224489796 L -108.25714285714287,31.07387755102041 L -107.74285714285716,31.022448979591843 L -107.22857142857144,30.956326530612245 L -106.71428571428572,30.875510204081635 L -106.2,30.780000000000005 L -105.6857142857143,30.66979591836735 L -105.17142857142858,30.54489795918368 L -104.65714285714287,30.405306122448984 L -104.14285714285715,30.251020408163267 L -103.62857142857145,30.082040816326533 L -103.11428571428573,29.89836734693878 L -102.60000000000002,29.700000000000003 L -102.0857142857143,29.486938775510207 L -101.57142857142858,29.259183673469387 L -101.05714285714286,29.016734693877552 L -100.54285714285716,28.759591836734696 L -100.02857142857144,28.487755102040822 L -99.51428571428573,28.201224489795923 L -99.00000000000001,27.900000000000006 L -98.48571428571431,27.584081632653067 L -97.97142857142858,27.253469387755107 L -97.45714285714286,26.90816326530613 L -96.94285714285715,26.548163265306126 L -96.42857142857144,26.173469387755105 L -95.91428571428573,25.784081632653063 L -95.4,25.380000000000003 L -94.8857142857143,24.96122448979592 L -94.3714285714286,24.527755102040818 L -93.85714285714288,24.079591836734696 L -93.34285714285716,23.616734693877554 L -92.82857142857144,23.13918367346939 L -92.31428571428572,22.646938775510208 L -91.80000000000001,22.140000000000004 L -91.28571428571429,21.618367346938776 L -90.77142857142859,21.082040816326533 L -90.25714285714287,20.531020408163265 L -89.74285714285716,19.965306122448986 L -89.22857142857143,19.384897959183675 L -88.71428571428572,18.789795918367346 L -88.2,18.18 L -87.6857142857143,17.555510204081635 L -87.17142857142858,16.916326530612245 L -86.65714285714287,16.262448979591838 L -86.14285714285715,15.593877551020407 L -85.62857142857145,14.91061224489796 L -85.11428571428573,14.212653061224492 L -84.60000000000001,13.5 L -84.60000000000001,13.5 L -85.11428571428573,12.787346938775508 L -85.62857142857145,12.08938775510204 L -86.14285714285715,11.406122448979593 L -86.65714285714287,10.737551020408162 L -87.17142857142858,10.083673469387756 L -87.6857142857143,9.444489795918365 L -88.2,8.82 L -88.71428571428572,8.210204081632652 L -89.22857142857143,7.615102040816326 L -89.74285714285716,7.034693877551017 L -90.25714285714287,6.468979591836734 L -90.77142857142859,5.917959183673466 L -91.28571428571429,5.381632653061223 L -91.80000000000001,4.859999999999996 L -92.31428571428572,4.353061224489794 L -92.82857142857144,3.8608163265306104 L -93.34285714285716,3.3832653061224476 L -93.85714285714288,2.920408163265303 L -94.3714285714286,2.4722448979591816 L -94.8857142857143,2.03877551020408 L -95.4,1.6199999999999974 L -95.91428571428573,1.2159183673469354 L -96.42857142857144,0.8265306122448939 L -96.94285714285715,0.451836734693873 L -97.45714285714286,0.09183673469387466 L -97.97142857142858,-0.2534693877551051 L -98.48571428571431,-0.5840816326530642 L -99.00000000000001,-0.9000000000000028 L -99.51428571428573,-1.2012244897959208 L -100.02857142857144,-1.4877551020408202 L -100.54285714285716,-1.759591836734697 L -101.05714285714286,-2.016734693877553 L -101.57142857142858,-2.2591836734693906 L -102.0857142857143,-2.486938775510208 L -102.60000000000002,-2.7000000000000024 L -103.11428571428573,-2.8983673469387785 L -103.62857142857145,-3.0820408163265336 L -104.14285714285715,-3.251020408163268 L -104.65714285714287,-3.4053061224489825 L -105.17142857142858,-3.544897959183678 L -105.6857142857143,-3.6697959183673508 L -106.2,-3.7800000000000034 L -106.71428571428572,-3.875510204081637 L -107.22857142857144,-3.956326530612248 L -107.74285714285716,-4.022448979591841 L -108.25714285714287,-4.073877551020411 L -108.77142857142859,-4.110612244897963 L -109.28571428571429,-4.132653061224493 L -109.80000000000001,-4.140000000000004 L -127.80000000000001,-4.140000000000004 L -127.80000000000001,-4.140000000000004 L -127.1088,-3.420000000000003 L -126.44640000000001,-2.7000000000000024 L -125.81280000000002,-1.9800000000000018 L -125.20800000000001,-1.2600000000000011 L -124.632,-0.5400000000000005 L -124.08480000000002,0.17999999999999616 L -123.56640000000002,0.8999999999999968 L -123.0768,1.6199999999999974 L -122.61600000000001,2.339999999999998 L -122.184,3.0599999999999987 L -121.78080000000001,3.7799999999999994 L -121.4064,4.5 L -121.06080000000001,5.219999999999997 L -120.744,5.939999999999998 L -120.456,6.659999999999998 L -120.19680000000001,7.379999999999999 L -119.96640000000001,8.1 L -119.76480000000001,8.82 L -119.592,9.540000000000001 L -119.44800000000002,10.260000000000002 L -119.33280000000002,10.980000000000002 L -119.24640000000001,11.7 L -119.18880000000001,12.419999999999998 L -119.16000000000003,13.14 L -119.16000000000003,13.86 L -119.18880000000001,14.580000000000002 L -119.24640000000001,15.3 L -119.33280000000002,16.02 L -119.44800000000002,16.740000000000002 L -119.592,17.46 L -119.76480000000001,18.18 L -119.96640000000001,18.900000000000002 L -120.19680000000001,19.62 L -120.456,20.340000000000003 L -120.744,21.060000000000002 L -121.0608,21.78 L -121.4064,22.5 L -121.78080000000001,23.22 L -122.184,23.94 L -122.61600000000001,24.660000000000004 L -123.0768,25.380000000000003 L -123.56640000000002,26.1 L -124.08480000000002,26.820000000000004 L -124.632,27.540000000000006 L -125.20800000000003,28.260000000000005 L -125.81280000000002,28.980000000000004 L -126.44640000000001,29.700000000000003 L -127.1088,30.42 L -127.80000000000001,31.140000000000004" style="stroke:black;fill:none;stroke-width:2.0;stroke-linecap:round;stroke-linejoin:round;" /><path d="M -133.20000000000002,31.140000000000004 L -132.5088,30.42 L -131.84640000000002,29.700000000000003 L -131.21280000000002,28.980000000000004 L -130.608,28.260000000000005 L -130.032,27.540000000000006 L -129.4848,26.820000000000004 L -128.96640000000002,26.1 L -128.47680000000003,25.380000000000003 L -128.016,24.660000000000004 L -127.58400000000002,23.94 L -127.18080000000002,23.22 L -126.80640000000001,22.5 L -126.4608,21.78 L -126.14400000000002,21.060000000000002 L -125.85600000000002,20.340000000000003 L -125.59680000000002,19.62 L -125.3664,18.900000000000002 L -125.16480000000001,18.18 L -124.99200000000002,17.46 L -124.84800000000001,16.740000000000002 L -124.73280000000001,16.02 L -124.6464,15.3 L -124.5888,14.580000000000002 L -124.56000000000002,13.86 L -124.56000000000002,13.14 L -124.5888,12.419999999999998 L -124.6464,11.7 L -124.73280000000001,10.980000000000002 L -124.84800000000001,10.260000000000002 L -124.99200000000002,9.540000000000001 L -125.16480000000001,8.82 L -125.3664,8.1 L -125.59680000000002,7.379999999999999 L -125.85600000000002,6.659999999999998 L -126.14400000000002,5.939999999999998 L -126.4608,5.219999999999997 L -126.80640000000001,4.5 L -127.18080000000002,3.7799999999999994 L -127.58400000000002,3.0599999999999987 L -128.016,2.339999999999998 L -128.47680000000003,1.6199999999999974 L -128.96640000000002,0.8999999999999968 L -129.4848,0.17999999999999616 L -130.032,-0.5400000000000005 L -130.608,-1.2600000000000011 L -131.21280000000002,-1.9800000000000018 L -131.84640000000002,-2.7000000000000024 L -132.5088,-3.420000000000003 L -133.20000000000002,-4.140000000000004" style="stroke:black;fill:none;stroke-width:2.0;stroke-linecap:round;stroke-linejoin:round;" /><path d="M -140.4,22.5 L -126.80640000000001,22.5" style="stroke:black;fill:none;stroke-width:2.0;stroke-linecap:round;stroke-linejoin:round;" /><path d="M -140.4,4.5 L -126.80640000000001,4.5" style="stroke:black;fill:none;stroke-width:2.0;stroke-linecap:round;stroke-linejoin:round;" /><path d="M -84.60000000000001,13.5 L -72.0,13.5" style="stroke:black;fill:none;stroke-width:2.0;stroke-linecap:round;stroke-linejoin:round;" /><path d="M -68.4,31.5 L -72.0,31.5 L -72.0,13.5" style="stroke:black;fill:none;stroke-width:2;stroke-linecap:round;stroke-linejoin:round;" /><path d="M -127.80000000000001,85.14000000000001 L -109.80000000000001,85.14000000000001 L -109.28571428571429,85.13265306122449 L -108.77142857142859,85.11061224489796 L -108.25714285714287,85.07387755102042 L -107.74285714285716,85.02244897959184 L -107.22857142857144,84.95632653061224 L -106.71428571428572,84.87551020408164 L -106.2,84.78 L -105.6857142857143,84.66979591836736 L -105.17142857142858,84.54489795918369 L -104.65714285714287,84.40530612244898 L -104.14285714285715,84.25102040816327 L -103.62857142857145,84.08204081632653 L -103.11428571428573,83.89836734693878 L -102.60000000000002,83.7 L -102.0857142857143,83.4869387755102 L -101.57142857142858,83.2591836734694 L -101.05714285714286,83.01673469387754 L -100.54285714285716,82.75959183673469 L -100.02857142857144,82.48775510204082 L -99.51428571428573,82.20122448979592 L -99.00000000000001,81.89999999999999 L -98.48571428571431,81.58408163265305 L -97.97142857142858,81.2534693877551 L -97.45714285714286,80.90816326530613 L -96.94285714285715,80.54816326530612 L -96.42857142857144,80.17346938775509 L -95.91428571428573,79.78408163265307 L -95.4,79.38 L -94.8857142857143,78.96122448979592 L -94.3714285714286,78.52775510204083 L -93.85714285714288,78.07959183673469 L -93.34285714285716,77.61673469387755 L -92.82857142857144,77.13918367346939 L -92.31428571428572,76.64693877551021 L -91.80000000000001,76.14000000000001 L -91.28571428571429,75.61836734693878 L -90.77142857142859,75.08204081632653 L -90.25714285714287,74.53102040816326 L -89.74285714285716,73.96530612244898 L -89.22857142857143,73.38489795918366 L -88.71428571428572,72.78979591836735 L -88.2,72.17999999999999 L -87.6857142857143,71.55551020408163 L -87.17142857142858,70.91632653061224 L -86.65714285714287,70.26244897959184 L -86.14285714285715,69.5938775510204 L -85.62857142857145,68.91061224489796 L -85.11428571428573,68.2126530612245 L -84.60000000000001,67.5 L -84.60000000000001,67.5 L -85.11428571428573,66.7873469387755 L -85.62857142857145,66.08938775510204 L -86.14285714285715,65.4061224489796 L -86.65714285714287,64.73755102040816 L -87.17142857142858,64.08367346938776 L -87.6857142857143,63.444489795918365 L -88.2,62.82000000000001 L -88.71428571428572,62.210204081632654 L -89.22857142857143,61.615102040816325 L -89.74285714285716,61.034693877551014 L -90.25714285714287,60.468979591836735 L -90.77142857142859,59.91795918367347 L -91.28571428571429,59.38163265306122 L -91.80000000000001,58.85999999999999 L -92.31428571428572,58.35306122448979 L -92.82857142857144,57.86081632653061 L -93.34285714285716,57.38326530612245 L -93.85714285714288,56.92040816326531 L -94.3714285714286,56.472244897959186 L -94.8857142857143,56.03877551020408 L -95.4,55.62 L -95.91428571428573,55.21591836734694 L -96.42857142857144,54.826530612244895 L -96.94285714285715,54.45183673469387 L -97.45714285714286,54.09183673469387 L -97.97142857142858,53.7465306122449 L -98.48571428571431,53.41591836734693 L -99.00000000000001,53.099999999999994 L -99.51428571428573,52.79877551020408 L -100.02857142857144,52.51224489795918 L -100.54285714285716,52.2404081632653 L -101.05714285714286,51.98326530612245 L -101.57142857142858,51.74081632653061 L -102.0857142857143,51.513061224489796 L -102.60000000000002,51.3 L -103.11428571428573,51.101632653061216 L -103.62857142857145,50.91795918367347 L -104.14285714285715,50.748979591836736 L -104.65714285714287,50.59469387755102 L -105.17142857142858,50.45510204081632 L -105.6857142857143,50.33020408163265 L -106.2,50.22 L -106.71428571428572,50.124489795918365 L -107.22857142857144,50.043673469387755 L -107.74285714285716,49.97755102040816 L -108.25714285714287,49.92612244897959 L -108.77142857142859,49.889387755102035 L -109.28571428571429,49.867346938775505 L -109.80000000000001,49.85999999999999 L -127.80000000000001,49.85999999999999 L -127.80000000000001,49.85999999999999 L -127.1088,50.57999999999999 L -126.44640000000001,51.3 L -125.81280000000002,52.019999999999996 L -125.20800000000001,52.739999999999995 L -124.632,53.459999999999994 L -124.08480000000002,54.17999999999999 L -123.56640000000002,54.9 L -123.0768,55.62 L -122.61600000000001,56.339999999999996 L -122.184,57.06 L -121.78080000000001,57.78 L -121.4064,58.5 L -121.06080000000001,59.22 L -120.744,59.94 L -120.456,60.660000000000004 L -120.19680000000001,61.38 L -119.96640000000001,62.1 L -119.76480000000001,62.82000000000001 L -119.592,63.540000000000006 L -119.44800000000002,64.26 L -119.33280000000002,64.98 L -119.24640000000001,65.7 L -119.18880000000001,66.42 L -119.16000000000003,67.14 L -119.16000000000003,67.86 L -119.18880000000001,68.58 L -119.24640000000001,69.3 L -119.33280000000002,70.02 L -119.44800000000002,70.74000000000001 L -119.592,71.46000000000001 L -119.76480000000001,72.17999999999999 L -119.96640000000001,72.89999999999999 L -120.19680000000001,73.62 L -120.456,74.34 L -120.744,75.06 L -121.0608,75.78 L -121.4064,76.5 L -121.78080000000001,77.22 L -122.184,77.94 L -122.61600000000001,78.66 L -123.0768,79.38 L -123.56640000000002,80.10000000000001 L -124.08480000000002,80.82000000000001 L -124.632,81.54 L -125.20800000000003,82.26 L -125.81280000000002,82.98 L -126.44640000000001,83.7 L -127.1088,84.42 L -127.80000000000001,85.14000000000001" style="stroke:black;fill:none;stroke-width:2.0;stroke-linecap:round;stroke-linejoin:round;" /><path d="M -140.4,76.5 L -121.4064,76.5" style="stroke:black;fill:none;stroke-width:2.0;stroke-linecap:round;stroke-linejoin:round;" /><path d="M -140.4,58.5 L -121.4064,58.5" style="stroke:black;fill:none;stroke-width:2.0;stroke-linecap:round;stroke-linejoin:round;" /><path d="M -84.60000000000001,67.5 L -72.0,67.5" style="stroke:black;fill:none;stroke-width:2.0;stroke-linecap:round;stroke-linejoin:round;" /><path d="M -68.4,49.5 L -72.0,49.5 L -72.0,67.5" style="stroke:black;fill:none;stroke-width:2;stroke-linecap:round;stroke-linejoin:round;" /><text x="3.600000000000003" y="34.9" fill="black" font-size="14.0" font-family="sans" text-anchor="start"><tspan x="3.600000000000003" dy="14.0">\text{Output}</tspan></text><text x="-144.0" y="-1.0999999999999996" fill="black" font-size="14.0" font-family="sans" text-anchor="end"><tspan x="-144.0" dy="14.0">e</tspan></text><text x="-144.0" y="16.9" fill="black" font-size="14.0" font-family="sans" text-anchor="end"><tspan x="-144.0" dy="14.0">b</tspan></text><text x="-144.0" y="52.89999999999999" fill="black" font-size="14.0" font-family="sans" text-anchor="end"><tspan x="-144.0" dy="14.0">a</tspan></text><text x="-144.0" y="70.89999999999999" fill="black" font-size="14.0" font-family="sans" text-anchor="end"><tspan x="-144.0" dy="14.0">a</tspan></text></svg>