<?xml version="1.0" encoding="utf-8" standalone="no"?>
<!DOCTYPE svg PUBLIC "-//W3C//DTD SVG 1.1//EN"
  "http://www.w3.org/Graphics/SVG/1.1/DTD/svg11.dtd">
<svg xmlns:xlink="http://www.w3.org/1999/xlink" width="250.44pt" height="85.86pt" viewBox="0 0 250.44 85.86" xmlns="http://www.w3.org/2000/svg" version="1.1">
 <metadata>
  <rdf:RDF xmlns:dc="http://purl.org/dc/elements/1.1/" xmlns:cc="http://creativecommons.org/ns#" xmlns:rdf="http://www.w3.org/1999/02/22-rdf-syntax-ns#">
   <cc:Work>
    <dc:type rdf:resource="http://purl.org/dc/dcmitype/StillImage"/>
    <dc:date>2024-10-01T15:12:39.475517</dc:date>
    <dc:format>image/svg+xml</dc:format>
    <dc:creator>
     <cc:Agent>
      <dc:title>Matplotlib v3.9.0, https://matplotlib.org/</dc:title>
     </cc:Agent>
    </dc:creator>
   </cc:Work>
  </rdf:RDF>
 </metadata>
 <defs>
  <style type="text/css">*{stroke-linejoin: round; stroke-linecap: butt}</style>
 </defs>
 <g id="figure_1">
  <g id="patch_1">
   <path d="M 0 85.86 
L 250.44 85.86 
L 250.44 0 
L 0 0 
L 0 85.86 
z
" style="fill: none"/>
  </g>
  <g id="axes_1">
   <g id="patch_2">
    <path d="M 63.96 27 
C 65.105677 27 66.204585 26.544818 67.014701 25.734701 
C 67.824818 24.924585 68.28 23.825677 68.28 22.68 
C 68.28 21.534323 67.824818 20.435415 67.014701 19.625299 
C 66.204585 18.815182 65.105677 18.36 63.96 18.36 
C 62.814323 18.36 61.715415 18.815182 60.905299 19.625299 
C 60.095182 20.435415 59.64 21.534323 59.64 22.68 
C 59.64 23.825677 60.095182 24.924585 60.905299 25.734701 
C 61.715415 26.544818 62.814323 27 63.96 27 
L 63.96 27 
z
" clip-path="url(#pe31cf2b5bc)" style="fill: none; stroke: #000000; stroke-width: 2; stroke-linejoin: miter"/>
   </g>
   <g id="patch_3">
    <path d="M 79.98 67.5 
C 81.125677 67.5 82.224585 67.044818 83.034701 66.234701 
C 83.844818 65.424585 84.3 64.325677 84.3 63.18 
C 84.3 62.034323 83.844818 60.935415 83.034701 60.125299 
C 82.224585 59.315182 81.125677 58.86 79.98 58.86 
C 78.834323 58.86 77.735415 59.315182 76.925299 60.125299 
C 76.115182 60.935415 75.66 62.034323 75.66 63.18 
C 75.66 64.325677 76.115182 65.424585 76.925299 66.234701 
C 77.735415 67.044818 78.834323 67.5 79.98 67.5 
L 79.98 67.5 
z
" clip-path="url(#pe31cf2b5bc)" style="fill: none; stroke: #000000; stroke-width: 2; stroke-linejoin: miter"/>
   </g>
   <g id="line2d_1">
    <path d="M 129.66 60.93 
L 130.813264 60.893017 
L 131.961789 60.78222 
L 133.100855 60.598065 
L 134.225783 60.341308 
L 135.331948 60.013003 
L 136.414806 59.614502 
L 137.469907 59.14744 
L 138.492916 58.613737 
L 139.479628 58.015586 
L 140.42599 57.355445 
L 141.328111 56.636027 
L 142.182286 55.860288 
L 142.985004 55.031416 
L 143.732967 54.152816 
L 144.423101 53.2281 
L 145.05257 52.261066 
L 145.618788 51.255689 
L 146.119427 50.2161 
L 146.552432 49.146571 
L 146.916021 48.051497 
L 147.208702 46.935377 
L 147.429272 45.802798 
L 147.576824 44.658414 
L 147.650752 43.506928 
L 147.650752 42.353072 
L 147.576824 41.201586 
L 147.429272 40.057202 
L 147.208702 38.924623 
L 146.916021 37.808503 
L 146.552432 36.713429 
L 146.119427 35.6439 
L 145.618788 34.604311 
L 145.05257 33.598934 
L 144.423101 32.6319 
L 143.732967 31.707184 
L 142.985004 30.828584 
L 142.182286 29.999712 
L 141.328111 29.223973 
L 140.42599 28.504555 
L 139.479628 27.844414 
L 138.492916 27.246263 
L 137.469907 26.71256 
L 136.414806 26.245498 
L 135.331948 25.846997 
L 134.225783 25.518692 
L 133.100855 25.261935 
L 131.961789 25.07778 
L 130.813264 24.966983 
L 129.66 24.93 
L 129.66 24.93 
L 106.26 24.93 
L 106.26 42.93 
L 106.26 60.93 
L 129.66 60.93 
" clip-path="url(#pe31cf2b5bc)" style="fill: none; stroke: #000000; stroke-width: 2; stroke-linecap: round"/>
   </g>
   <g id="line2d_2">
    <path d="M 93.66 51.93 
L 106.26 51.93 
" clip-path="url(#pe31cf2b5bc)" style="fill: none; stroke: #000000; stroke-width: 2; stroke-linecap: round"/>
   </g>
   <g id="line2d_3">
    <path d="M 93.66 33.93 
L 106.26 33.93 
" clip-path="url(#pe31cf2b5bc)" style="fill: none; stroke: #000000; stroke-width: 2; stroke-linecap: round"/>
   </g>
   <g id="line2d_4">
    <path d="M 147.66 42.93 
L 160.26 42.93 
" clip-path="url(#pe31cf2b5bc)" style="fill: none; stroke: #000000; stroke-width: 2; stroke-linecap: round"/>
   </g>
   <g id="line2d_5">
    <path d="M 16.26 22.68 
L 36.24 22.68 
M 68.28 22.68 
L 88.26 22.68 
" clip-path="url(#pe31cf2b5bc)" style="fill: none; stroke: #000000; stroke-width: 2; stroke-linecap: round"/>
   </g>
   <g id="line2d_6">
    <path d="M 36.24 4.68 
L 59.64 22.68 
L 36.24 40.68 
L 36.24 4.68 
" clip-path="url(#pe31cf2b5bc)" style="fill: none; stroke: #000000; stroke-width: 2; stroke-linecap: round"/>
   </g>
   <g id="line2d_7">
    <path d="M 93.66 33.93 
L 88.26 33.93 
L 88.26 22.68 
" clip-path="url(#pe31cf2b5bc)" style="fill: none; stroke: #000000; stroke-width: 2; stroke-linecap: round"/>
   </g>
   <g id="line2d_8">
    <path d="M 57.66 81.18 
L 58.813264 81.143017 
L 59.961789 81.03222 
L 61.100855 80.848065 
L 62.225783 80.591308 
L 63.331948 80.263003 
L 64.414806 79.864502 
L 65.469907 79.39744 
L 66.492916 78.863737 
L 67.479628 78.265586 
L 68.42599 77.605445 
L 69.328111 76.886027 
L 70.182286 76.110288 
L 70.985004 75.281416 
L 71.732967 74.402816 
L 72.423101 73.4781 
L 73.05257 72.511066 
L 73.618788 71.505689 
L 74.119427 70.4661 
L 74.552432 69.396571 
L 74.916021 68.301497 
L 75.208702 67.185377 
L 75.429272 66.052798 
L 75.576824 64.908414 
L 75.650752 63.756928 
L 75.650752 62.603072 
L 75.576824 61.451586 
L 75.429272 60.307202 
L 75.208702 59.174623 
L 74.916021 58.058503 
L 74.552432 56.963429 
L 74.119427 55.8939 
L 73.618788 54.854311 
L 73.05257 53.848934 
L 72.423101 52.8819 
L 71.732967 51.957184 
L 70.985004 51.078584 
L 70.182286 50.249712 
L 69.328111 49.473973 
L 68.42599 48.754555 
L 67.479628 48.094414 
L 66.492916 47.496263 
L 65.469907 46.96256 
L 64.414806 46.495498 
L 63.331948 46.096997 
L 62.225783 45.768692 
L 61.100855 45.511935 
L 59.961789 45.32778 
L 58.813264 45.216983 
L 57.66 45.18 
L 57.66 45.18 
L 34.26 45.18 
L 34.26 63.18 
L 34.26 81.18 
L 57.66 81.18 
" clip-path="url(#pe31cf2b5bc)" style="fill: none; stroke: #000000; stroke-width: 2; stroke-linecap: round"/>
   </g>
   <g id="line2d_9">
    <path d="M 21.66 72.18 
L 34.26 72.18 
" clip-path="url(#pe31cf2b5bc)" style="fill: none; stroke: #000000; stroke-width: 2; stroke-linecap: round"/>
   </g>
   <g id="line2d_10">
    <path d="M 21.66 54.18 
L 34.26 54.18 
" clip-path="url(#pe31cf2b5bc)" style="fill: none; stroke: #000000; stroke-width: 2; stroke-linecap: round"/>
   </g>
   <g id="line2d_11">
    <path d="M 84.3 63.18 
L 88.26 63.18 
" clip-path="url(#pe31cf2b5bc)" style="fill: none; stroke: #000000; stroke-width: 2; stroke-linecap: round"/>
   </g>
   <g id="line2d_12">
    <path d="M 93.66 51.93 
L 88.26 51.93 
L 88.26 63.18 
" clip-path="url(#pe31cf2b5bc)" style="fill: none; stroke: #000000; stroke-width: 2; stroke-linecap: round"/>
   </g>
   <g id="text_1">
    <!-- $\text{Output}$ -->
    <g transform="translate(163.86 46.764687) scale(0.14 -0.14)">
     <defs>
      <path id="DejaVuSans-4f" d="M 2522 4238 
Q 1834 4238 1429 3725 
Q 1025 3213 1025 2328 
Q 1025 1447 1429 934 
Q 1834 422 2522 422 
Q 3209 422 3611 934 
Q 4013 1447 4013 2328 
Q 4013 3213 3611 3725 
Q 3209 4238 2522 4238 
z
M 2522 4750 
Q 3503 4750 4090 4092 
Q 4678 3434 4678 2328 
Q 4678 1225 4090 567 
Q 3503 -91 2522 -91 
Q 1538 -91 948 565 
Q 359 1222 359 2328 
Q 359 3434 948 4092 
Q 1538 4750 2522 4750 
z
" transform="scale(0.015625)"/>
      <path id="DejaVuSans-75" d="M 544 1381 
L 544 3500 
L 1119 3500 
L 1119 1403 
Q 1119 906 1312 657 
Q 1506 409 1894 409 
Q 2359 409 2629 706 
Q 2900 1003 2900 1516 
L 2900 3500 
L 3475 3500 
L 3475 0 
L 2900 0 
L 2900 538 
Q 2691 219 2414 64 
Q 2138 -91 1772 -91 
Q 1169 -91 856 284 
Q 544 659 544 1381 
z
M 1991 3584 
L 1991 3584 
z
" transform="scale(0.015625)"/>
      <path id="DejaVuSans-74" d="M 1172 4494 
L 1172 3500 
L 2356 3500 
L 2356 3053 
L 1172 3053 
L 1172 1153 
Q 1172 725 1289 603 
Q 1406 481 1766 481 
L 2356 481 
L 2356 0 
L 1766 0 
Q 1100 0 847 248 
Q 594 497 594 1153 
L 594 3053 
L 172 3053 
L 172 3500 
L 594 3500 
L 594 4494 
L 1172 4494 
z
" transform="scale(0.015625)"/>
      <path id="DejaVuSans-70" d="M 1159 525 
L 1159 -1331 
L 581 -1331 
L 581 3500 
L 1159 3500 
L 1159 2969 
Q 1341 3281 1617 3432 
Q 1894 3584 2278 3584 
Q 2916 3584 3314 3078 
Q 3713 2572 3713 1747 
Q 3713 922 3314 415 
Q 2916 -91 2278 -91 
Q 1894 -91 1617 61 
Q 1341 213 1159 525 
z
M 3116 1747 
Q 3116 2381 2855 2742 
Q 2594 3103 2138 3103 
Q 1681 3103 1420 2742 
Q 1159 2381 1159 1747 
Q 1159 1113 1420 752 
Q 1681 391 2138 391 
Q 2594 391 2855 752 
Q 3116 1113 3116 1747 
z
" transform="scale(0.015625)"/>
     </defs>
     <use xlink:href="#DejaVuSans-4f" transform="translate(0 0.78125)"/>
     <use xlink:href="#DejaVuSans-75" transform="translate(78.710938 0.78125)"/>
     <use xlink:href="#DejaVuSans-74" transform="translate(142.089844 0.78125)"/>
     <use xlink:href="#DejaVuSans-70" transform="translate(181.298828 0.78125)"/>
     <use xlink:href="#DejaVuSans-75" transform="translate(244.775391 0.78125)"/>
     <use xlink:href="#DejaVuSans-74" transform="translate(308.154297 0.78125)"/>
    </g>
   </g>
   <g id="text_2">
    <!-- a -->
    <g transform="translate(4.080625 26.543125) scale(0.14 -0.14)">
     <defs>
      <path id="DejaVuSans-61" d="M 2194 1759 
Q 1497 1759 1228 1600 
Q 959 1441 959 1056 
Q 959 750 1161 570 
Q 1363 391 1709 391 
Q 2188 391 2477 730 
Q 2766 1069 2766 1631 
L 2766 1759 
L 2194 1759 
z
M 3341 1997 
L 3341 0 
L 2766 0 
L 2766 531 
Q 2569 213 2275 61 
Q 1981 -91 1556 -91 
Q 1019 -91 701 211 
Q 384 513 384 1019 
Q 384 1609 779 1909 
Q 1175 2209 1959 2209 
L 2766 2209 
L 2766 2266 
Q 2766 2663 2505 2880 
Q 2244 3097 1772 3097 
Q 1472 3097 1187 3025 
Q 903 2953 641 2809 
L 641 3341 
Q 956 3463 1253 3523 
Q 1550 3584 1831 3584 
Q 2591 3584 2966 3190 
Q 3341 2797 3341 1997 
z
" transform="scale(0.015625)"/>
     </defs>
     <use xlink:href="#DejaVuSans-61"/>
    </g>
   </g>
   <g id="text_3">
    <!-- a -->
    <g transform="translate(9.480625 58.043125) scale(0.14 -0.14)">
     <use xlink:href="#DejaVuSans-61"/>
    </g>
   </g>
   <g id="text_4">
    <!-- a -->
    <g transform="translate(9.480625 76.043125) scale(0.14 -0.14)">
     <use xlink:href="#DejaVuSans-61"/>
    </g>
   </g>
  </g>
 </g>
 <defs>
  <clipPath id="pe31cf2b5bc">
   <rect x="0" y="-0" width="250.44" height="85.86"/>
  </clipPath>
 </defs>
</svg>
