<?xml version="1.0" encoding="utf-8" standalone="no"?>
<!DOCTYPE svg PUBLIC "-//W3C//DTD SVG 1.1//EN"
  "http://www.w3.org/Graphics/SVG/1.1/DTD/svg11.dtd">
<svg xmlns:xlink="http://www.w3.org/1999/xlink" width="246.84pt" height="99pt" viewBox="0 0 246.84 99" xmlns="http://www.w3.org/2000/svg" version="1.1">
 <metadata>
  <rdf:RDF xmlns:dc="http://purl.org/dc/elements/1.1/" xmlns:cc="http://creativecommons.org/ns#" xmlns:rdf="http://www.w3.org/1999/02/22-rdf-syntax-ns#">
   <cc:Work>
    <dc:type rdf:resource="http://purl.org/dc/dcmitype/StillImage"/>
    <dc:date>2024-10-10T17:13:10.911556</dc:date>
    <dc:format>image/svg+xml</dc:format>
    <dc:creator>
     <cc:Agent>
      <dc:title>Matplotlib v3.9.0, https://matplotlib.org/</dc:title>
     </cc:Agent>
    </dc:creator>
   </cc:Work>
  </rdf:RDF>
 </metadata>
 <defs>
  <style type="text/css">*{stroke-linejoin: round; stroke-linecap: butt}</style>
 </defs>
 <g id="figure_1">
  <g id="patch_1">
   <path d="M 0 99 
L 246.84 99 
L 246.84 0 
L 0 0 
L 0 99 
z
" style="fill: none"/>
  </g>
  <g id="axes_1">
   <g id="patch_2">
    <path d="M 76.38 26.64 
C 77.525677 26.64 78.624585 26.184818 79.434701 25.374701 
C 80.244818 24.564585 80.7 23.465677 80.7 22.32 
C 80.7 21.174323 80.244818 20.075415 79.434701 19.265299 
C 78.624585 18.455182 77.525677 18 76.38 18 
C 75.234323 18 74.135415 18.455182 73.325299 19.265299 
C 72.515182 20.075415 72.06 21.174323 72.06 22.32 
C 72.06 23.465677 72.515182 24.564585 73.325299 25.374701 
C 74.135415 26.184818 75.234323 26.64 76.38 26.64 
L 76.38 26.64 
z
" clip-path="url(#p40cf516301)" style="fill: none; stroke: #000000; stroke-width: 2; stroke-linejoin: miter"/>
   </g>
   <g id="patch_3">
    <path d="M 76.38 80.64 
C 77.525677 80.64 78.624585 80.184818 79.434701 79.374701 
C 80.244818 78.564585 80.7 77.465677 80.7 76.32 
C 80.7 75.174323 80.244818 74.075415 79.434701 73.265299 
C 78.624585 72.455182 77.525677 72 76.38 72 
C 75.234323 72 74.135415 72.455182 73.325299 73.265299 
C 72.515182 74.075415 72.06 75.174323 72.06 76.32 
C 72.06 77.465677 72.515182 78.564585 73.325299 79.374701 
C 74.135415 80.184818 75.234323 80.64 76.38 80.64 
L 76.38 80.64 
z
" clip-path="url(#p40cf516301)" style="fill: none; stroke: #000000; stroke-width: 2; stroke-linejoin: miter"/>
   </g>
   <g id="line2d_1">
    <path d="M 126.06 67.32 
L 127.213264 67.283017 
L 128.361789 67.17222 
L 129.500855 66.988065 
L 130.625783 66.731308 
L 131.731948 66.403003 
L 132.814806 66.004502 
L 133.869907 65.53744 
L 134.892916 65.003737 
L 135.879628 64.405586 
L 136.82599 63.745445 
L 137.728111 63.026027 
L 138.582286 62.250288 
L 139.385004 61.421416 
L 140.132967 60.542816 
L 140.823101 59.6181 
L 141.45257 58.651066 
L 142.018788 57.645689 
L 142.519427 56.6061 
L 142.952432 55.536571 
L 143.316021 54.441497 
L 143.608702 53.325377 
L 143.829272 52.192798 
L 143.976824 51.048414 
L 144.050752 49.896928 
L 144.050752 48.743072 
L 143.976824 47.591586 
L 143.829272 46.447202 
L 143.608702 45.314623 
L 143.316021 44.198503 
L 142.952432 43.103429 
L 142.519427 42.0339 
L 142.018788 40.994311 
L 141.45257 39.988934 
L 140.823101 39.0219 
L 140.132967 38.097184 
L 139.385004 37.218584 
L 138.582286 36.389712 
L 137.728111 35.613973 
L 136.82599 34.894555 
L 135.879628 34.234414 
L 134.892916 33.636263 
L 133.869907 33.10256 
L 132.814806 32.635498 
L 131.731948 32.236997 
L 130.625783 31.908692 
L 129.500855 31.651935 
L 128.361789 31.46778 
L 127.213264 31.356983 
L 126.06 31.32 
L 126.06 31.32 
L 102.66 31.32 
L 102.66 49.32 
L 102.66 67.32 
L 126.06 67.32 
" clip-path="url(#p40cf516301)" style="fill: none; stroke: #000000; stroke-width: 2; stroke-linecap: round"/>
   </g>
   <g id="line2d_2">
    <path d="M 90.06 58.32 
L 102.66 58.32 
" clip-path="url(#p40cf516301)" style="fill: none; stroke: #000000; stroke-width: 2; stroke-linecap: round"/>
   </g>
   <g id="line2d_3">
    <path d="M 90.06 40.32 
L 102.66 40.32 
" clip-path="url(#p40cf516301)" style="fill: none; stroke: #000000; stroke-width: 2; stroke-linecap: round"/>
   </g>
   <g id="line2d_4">
    <path d="M 144.06 49.32 
L 156.66 49.32 
" clip-path="url(#p40cf516301)" style="fill: none; stroke: #000000; stroke-width: 2; stroke-linecap: round"/>
   </g>
   <g id="line2d_5">
    <path d="M 28.86 39.96 
L 48.402857 39.893878 
L 50.46 39.6 
L 52.517143 39.07102 
L 54.574286 38.306939 
L 56.631429 37.307755 
L 58.688571 36.073469 
L 60.745714 34.604082 
L 62.802857 32.899592 
L 65.374286 30.438367 
L 67.945714 27.609796 
L 70.517143 24.413878 
L 72.06 22.32 
L 72.06 22.32 
L 69.488571 18.903673 
L 66.917143 15.854694 
L 64.345714 13.173061 
L 61.774286 10.858776 
L 59.717143 9.271837 
L 57.66 7.92 
L 55.602857 6.803265 
L 53.545714 5.921633 
L 51.488571 5.275102 
L 49.431429 4.863673 
L 47.374286 4.687347 
L 46.86 4.68 
L 28.86 4.68 
L 28.86 4.68 
L 30.8472 6.84 
L 32.5752 9 
L 34.044 11.16 
L 35.2536 13.32 
L 36.204 15.48 
L 36.8952 17.64 
L 37.3272 19.8 
L 37.5 21.96 
L 37.4136 24.12 
L 37.068 26.28 
L 36.4632 28.44 
L 35.5992 30.6 
L 34.476 32.76 
L 33.0936 34.92 
L 31.452 37.08 
L 29.5512 39.24 
L 28.86 39.96 
L 28.86 39.96 
" clip-path="url(#p40cf516301)" style="fill: none; stroke: #000000; stroke-width: 2; stroke-linecap: round"/>
   </g>
   <g id="line2d_6">
    <path d="M 16.26 31.32 
L 35.2536 31.32 
" clip-path="url(#p40cf516301)" style="fill: none; stroke: #000000; stroke-width: 2; stroke-linecap: round"/>
   </g>
   <g id="line2d_7">
    <path d="M 16.26 13.32 
L 35.2536 13.32 
" clip-path="url(#p40cf516301)" style="fill: none; stroke: #000000; stroke-width: 2; stroke-linecap: round"/>
   </g>
   <g id="line2d_8">
    <path d="M 80.7 22.32 
L 84.66 22.32 
" clip-path="url(#p40cf516301)" style="fill: none; stroke: #000000; stroke-width: 2; stroke-linecap: round"/>
   </g>
   <g id="line2d_9">
    <path d="M 90.06 40.32 
L 84.66 40.32 
L 84.66 22.32 
" clip-path="url(#p40cf516301)" style="fill: none; stroke: #000000; stroke-width: 2; stroke-linecap: round"/>
   </g>
   <g id="line2d_10">
    <path d="M 54.06 94.32 
L 55.213264 94.283017 
L 56.361789 94.17222 
L 57.500855 93.988065 
L 58.625783 93.731308 
L 59.731948 93.403003 
L 60.814806 93.004502 
L 61.869907 92.53744 
L 62.892916 92.003737 
L 63.879628 91.405586 
L 64.82599 90.745445 
L 65.728111 90.026027 
L 66.582286 89.250288 
L 67.385004 88.421416 
L 68.132967 87.542816 
L 68.823101 86.6181 
L 69.45257 85.651066 
L 70.018788 84.645689 
L 70.519427 83.6061 
L 70.952432 82.536571 
L 71.316021 81.441497 
L 71.608702 80.325377 
L 71.829272 79.192798 
L 71.976824 78.048414 
L 72.050752 76.896928 
L 72.050752 75.743072 
L 71.976824 74.591586 
L 71.829272 73.447202 
L 71.608702 72.314623 
L 71.316021 71.198503 
L 70.952432 70.103429 
L 70.519427 69.0339 
L 70.018788 67.994311 
L 69.45257 66.988934 
L 68.823101 66.0219 
L 68.132967 65.097184 
L 67.385004 64.218584 
L 66.582286 63.389712 
L 65.728111 62.613973 
L 64.82599 61.894555 
L 63.879628 61.234414 
L 62.892916 60.636263 
L 61.869907 60.10256 
L 60.814806 59.635498 
L 59.731948 59.236997 
L 58.625783 58.908692 
L 57.500855 58.651935 
L 56.361789 58.46778 
L 55.213264 58.356983 
L 54.06 58.32 
L 54.06 58.32 
L 30.66 58.32 
L 30.66 76.32 
L 30.66 94.32 
L 54.06 94.32 
" clip-path="url(#p40cf516301)" style="fill: none; stroke: #000000; stroke-width: 2; stroke-linecap: round"/>
   </g>
   <g id="line2d_11">
    <path d="M 18.06 85.32 
L 30.66 85.32 
" clip-path="url(#p40cf516301)" style="fill: none; stroke: #000000; stroke-width: 2; stroke-linecap: round"/>
   </g>
   <g id="line2d_12">
    <path d="M 18.06 67.32 
L 30.66 67.32 
" clip-path="url(#p40cf516301)" style="fill: none; stroke: #000000; stroke-width: 2; stroke-linecap: round"/>
   </g>
   <g id="line2d_13">
    <path d="M 80.7 76.32 
L 84.66 76.32 
" clip-path="url(#p40cf516301)" style="fill: none; stroke: #000000; stroke-width: 2; stroke-linecap: round"/>
   </g>
   <g id="line2d_14">
    <path d="M 90.06 58.32 
L 84.66 58.32 
L 84.66 76.32 
" clip-path="url(#p40cf516301)" style="fill: none; stroke: #000000; stroke-width: 2; stroke-linecap: round"/>
   </g>
   <g id="text_1">
    <!-- $\text{Output}$ -->
    <g transform="translate(160.26 53.154688) scale(0.14 -0.14)">
     <defs>
      <path id="DejaVuSans-4f" d="M 2522 4238 
Q 1834 4238 1429 3725 
Q 1025 3213 1025 2328 
Q 1025 1447 1429 934 
Q 1834 422 2522 422 
Q 3209 422 3611 934 
Q 4013 1447 4013 2328 
Q 4013 3213 3611 3725 
Q 3209 4238 2522 4238 
z
M 2522 4750 
Q 3503 4750 4090 4092 
Q 4678 3434 4678 2328 
Q 4678 1225 4090 567 
Q 3503 -91 2522 -91 
Q 1538 -91 948 565 
Q 359 1222 359 2328 
Q 359 3434 948 4092 
Q 1538 4750 2522 4750 
z
" transform="scale(0.015625)"/>
      <path id="DejaVuSans-75" d="M 544 1381 
L 544 3500 
L 1119 3500 
L 1119 1403 
Q 1119 906 1312 657 
Q 1506 409 1894 409 
Q 2359 409 2629 706 
Q 2900 1003 2900 1516 
L 2900 3500 
L 3475 3500 
L 3475 0 
L 2900 0 
L 2900 538 
Q 2691 219 2414 64 
Q 2138 -91 1772 -91 
Q 1169 -91 856 284 
Q 544 659 544 1381 
z
M 1991 3584 
L 1991 3584 
z
" transform="scale(0.015625)"/>
      <path id="DejaVuSans-74" d="M 1172 4494 
L 1172 3500 
L 2356 3500 
L 2356 3053 
L 1172 3053 
L 1172 1153 
Q 1172 725 1289 603 
Q 1406 481 1766 481 
L 2356 481 
L 2356 0 
L 1766 0 
Q 1100 0 847 248 
Q 594 497 594 1153 
L 594 3053 
L 172 3053 
L 172 3500 
L 594 3500 
L 594 4494 
L 1172 4494 
z
" transform="scale(0.015625)"/>
      <path id="DejaVuSans-70" d="M 1159 525 
L 1159 -1331 
L 581 -1331 
L 581 3500 
L 1159 3500 
L 1159 2969 
Q 1341 3281 1617 3432 
Q 1894 3584 2278 3584 
Q 2916 3584 3314 3078 
Q 3713 2572 3713 1747 
Q 3713 922 3314 415 
Q 2916 -91 2278 -91 
Q 1894 -91 1617 61 
Q 1341 213 1159 525 
z
M 3116 1747 
Q 3116 2381 2855 2742 
Q 2594 3103 2138 3103 
Q 1681 3103 1420 2742 
Q 1159 2381 1159 1747 
Q 1159 1113 1420 752 
Q 1681 391 2138 391 
Q 2594 391 2855 752 
Q 3116 1113 3116 1747 
z
" transform="scale(0.015625)"/>
     </defs>
     <use xlink:href="#DejaVuSans-4f" transform="translate(0 0.78125)"/>
     <use xlink:href="#DejaVuSans-75" transform="translate(78.710938 0.78125)"/>
     <use xlink:href="#DejaVuSans-74" transform="translate(142.089844 0.78125)"/>
     <use xlink:href="#DejaVuSans-70" transform="translate(181.298828 0.78125)"/>
     <use xlink:href="#DejaVuSans-75" transform="translate(244.775391 0.78125)"/>
     <use xlink:href="#DejaVuSans-74" transform="translate(308.154297 0.78125)"/>
    </g>
   </g>
   <g id="text_2">
    <!-- a -->
    <g transform="translate(4.080625 17.183125) scale(0.14 -0.14)">
     <defs>
      <path id="DejaVuSans-61" d="M 2194 1759 
Q 1497 1759 1228 1600 
Q 959 1441 959 1056 
Q 959 750 1161 570 
Q 1363 391 1709 391 
Q 2188 391 2477 730 
Q 2766 1069 2766 1631 
L 2766 1759 
L 2194 1759 
z
M 3341 1997 
L 3341 0 
L 2766 0 
L 2766 531 
Q 2569 213 2275 61 
Q 1981 -91 1556 -91 
Q 1019 -91 701 211 
Q 384 513 384 1019 
Q 384 1609 779 1909 
Q 1175 2209 1959 2209 
L 2766 2209 
L 2766 2266 
Q 2766 2663 2505 2880 
Q 2244 3097 1772 3097 
Q 1472 3097 1187 3025 
Q 903 2953 641 2809 
L 641 3341 
Q 956 3463 1253 3523 
Q 1550 3584 1831 3584 
Q 2591 3584 2966 3190 
Q 3341 2797 3341 1997 
z
" transform="scale(0.015625)"/>
     </defs>
     <use xlink:href="#DejaVuSans-61"/>
    </g>
   </g>
   <g id="text_3">
    <!-- a -->
    <g transform="translate(4.080625 35.183125) scale(0.14 -0.14)">
     <use xlink:href="#DejaVuSans-61"/>
    </g>
   </g>
   <g id="text_4">
    <!-- a -->
    <g transform="translate(5.880625 71.183125) scale(0.14 -0.14)">
     <use xlink:href="#DejaVuSans-61"/>
    </g>
   </g>
   <g id="text_5">
    <!-- a -->
    <g transform="translate(5.880625 89.183125) scale(0.14 -0.14)">
     <use xlink:href="#DejaVuSans-61"/>
    </g>
   </g>
  </g>
 </g>
 <defs>
  <clipPath id="p40cf516301">
   <rect x="0" y="0" width="246.84" height="99"/>
  </clipPath>
 </defs>
</svg>
