<svg xmlns="http://www.w3.org/2000/svg" xml:lang="en" height="85.7pt" width="250.27999999999997pt" viewBox="-160.17999999999998 -22.6 250.27999999999997 85.7"><circle cx="-8.28" cy="20.25" r="4.32" style="stroke:black;fill:none;stroke-width:2.0;" /><circle cx="-96.3" cy="-0.0" r="4.32" style="stroke:black;fill:none;stroke-width:2.0;" /><path d="M -55.80000000000001,37.89000000000001 L -37.80000000000001,37.89000000000001 L -37.2857142857143,37.882653061224495 L -36.77142857142859,37.860612244897965 L -36.257142857142874,37.82387755102041 L -35.742857142857154,37.77244897959184 L -35.22857142857144,37.706326530612245 L -34.71428571428573,37.625510204081635 L -34.20000000000002,37.53 L -33.6857142857143,37.41979591836735 L -33.171428571428585,37.29489795918368 L -32.65714285714287,37.15530612244898 L -32.14285714285715,37.001020408163264 L -31.628571428571444,36.83204081632653 L -31.11428571428573,36.648367346938784 L -30.60000000000002,36.45 L -30.0857142857143,36.236938775510204 L -29.571428571428577,36.00918367346939 L -29.057142857142864,35.76673469387755 L -28.54285714285715,35.5095918367347 L -28.02857142857144,35.23775510204082 L -27.514285714285727,34.95122448979592 L -27.000000000000014,34.650000000000006 L -26.4857142857143,34.33408163265307 L -25.971428571428582,34.0034693877551 L -25.45714285714287,33.65816326530613 L -24.94285714285715,33.29816326530613 L -24.428571428571438,32.923469387755105 L -23.914285714285725,32.53408163265306 L -23.400000000000013,32.13 L -22.8857142857143,31.71122448979592 L -22.371428571428588,31.277755102040818 L -21.857142857142875,30.829591836734696 L -21.342857142857156,30.366734693877554 L -20.828571428571436,29.88918367346939 L -20.314285714285724,29.396938775510208 L -19.80000000000001,28.890000000000004 L -19.2857142857143,28.368367346938776 L -18.771428571428586,27.832040816326533 L -18.257142857142874,27.281020408163265 L -17.74285714285716,26.715306122448986 L -17.22857142857143,26.134897959183675 L -16.71428571428572,25.539795918367346 L -16.200000000000006,24.93 L -15.685714285714294,24.305510204081635 L -15.171428571428581,23.666326530612242 L -14.657142857142869,23.012448979591838 L -14.142857142857157,22.343877551020405 L -13.628571428571444,21.660612244897962 L -13.114285714285732,20.962653061224493 L -12.600000000000003,20.25 L -12.600000000000003,20.25 L -13.114285714285732,19.537346938775507 L -13.628571428571444,18.839387755102038 L -14.142857142857157,18.156122448979595 L -14.657142857142869,17.487551020408162 L -15.171428571428581,16.833673469387755 L -15.685714285714294,16.194489795918365 L -16.200000000000006,15.57 L -16.71428571428572,14.960204081632652 L -17.22857142857143,14.365102040816327 L -17.74285714285716,13.784693877551017 L -18.257142857142874,13.218979591836735 L -18.771428571428586,12.667959183673467 L -19.2857142857143,12.131632653061223 L -19.80000000000001,11.609999999999996 L -20.314285714285724,11.103061224489794 L -20.828571428571436,10.61081632653061 L -21.342857142857156,10.133265306122448 L -21.857142857142875,9.670408163265304 L -22.371428571428588,9.22224489795918 L -22.8857142857143,8.78877551020408 L -23.400000000000013,8.369999999999997 L -23.914285714285725,7.965918367346935 L -24.428571428571438,7.576530612244894 L -24.94285714285715,7.201836734693873 L -25.45714285714287,6.841836734693874 L -25.971428571428582,6.496530612244895 L -26.4857142857143,6.1659183673469355 L -27.000000000000014,5.849999999999997 L -27.514285714285727,5.548775510204079 L -28.02857142857144,5.26224489795918 L -28.54285714285715,4.990408163265303 L -29.057142857142864,4.733265306122447 L -29.571428571428577,4.490816326530609 L -30.0857142857143,4.2630612244897925 L -30.60000000000002,4.049999999999997 L -31.11428571428573,3.8516326530612215 L -31.628571428571444,3.6679591836734664 L -32.14285714285715,3.498979591836732 L -32.65714285714287,3.3446938775510175 L -33.171428571428585,3.205102040816322 L -33.6857142857143,3.0802040816326492 L -34.20000000000002,2.9699999999999966 L -34.71428571428573,2.874489795918363 L -35.22857142857144,2.793673469387752 L -35.742857142857154,2.7275510204081588 L -36.257142857142874,2.676122448979589 L -36.77142857142859,2.6393877551020375 L -37.2857142857143,2.6173469387755066 L -37.80000000000001,2.6099999999999963 L -55.80000000000001,2.6099999999999963 L -55.80000000000001,2.6099999999999963 L -55.108800000000016,3.329999999999997 L -54.44640000000001,4.049999999999997 L -53.81280000000001,4.769999999999998 L -53.208000000000006,5.489999999999998 L -52.632000000000005,6.209999999999999 L -52.08480000000001,6.929999999999996 L -51.566400000000016,7.649999999999997 L -51.07680000000001,8.369999999999997 L -50.616000000000014,9.089999999999998 L -50.18400000000001,9.809999999999999 L -49.780800000000006,10.53 L -49.40640000000001,11.25 L -49.060800000000015,11.969999999999997 L -48.744000000000014,12.689999999999998 L -48.45600000000001,13.409999999999998 L -48.19680000000002,14.129999999999999 L -47.96640000000001,14.85 L -47.764800000000015,15.57 L -47.59200000000001,16.29 L -47.44800000000001,17.01 L -47.33280000000001,17.73 L -47.24640000000001,18.45 L -47.188800000000015,19.169999999999998 L -47.16000000000001,19.89 L -47.16000000000001,20.61 L -47.188800000000015,21.330000000000002 L -47.24640000000001,22.05 L -47.33280000000001,22.770000000000003 L -47.44800000000001,23.490000000000002 L -47.59200000000001,24.210000000000004 L -47.764800000000015,24.93 L -47.96640000000001,25.650000000000002 L -48.19680000000002,26.37 L -48.45600000000001,27.090000000000003 L -48.744000000000014,27.810000000000002 L -49.06080000000001,28.53 L -49.40640000000001,29.25 L -49.780800000000006,29.97 L -50.18400000000001,30.69 L -50.616000000000014,31.410000000000004 L -51.07680000000001,32.13 L -51.566400000000016,32.85 L -52.08480000000001,33.57000000000001 L -52.632000000000005,34.290000000000006 L -53.20800000000001,35.010000000000005 L -53.81280000000001,35.730000000000004 L -54.44640000000001,36.45 L -55.108800000000016,37.17000000000001 L -55.80000000000001,37.89000000000001" style="stroke:black;fill:none;stroke-width:2.0;stroke-linecap:round;stroke-linejoin:round;" /><path d="M -61.20000000000002,37.89000000000001 L -60.50880000000001,37.17000000000001 L -59.84640000000001,36.45 L -59.212800000000016,35.730000000000004 L -58.60800000000001,35.010000000000005 L -58.03200000000001,34.290000000000006 L -57.484800000000014,33.57000000000001 L -56.96640000000001,32.85 L -56.47680000000001,32.13 L -56.01600000000001,31.410000000000004 L -55.58400000000002,30.69 L -55.18080000000001,29.97 L -54.80640000000001,29.25 L -54.46080000000001,28.53 L -54.14400000000002,27.810000000000002 L -53.856000000000016,27.090000000000003 L -53.596800000000016,26.37 L -53.366400000000006,25.650000000000002 L -53.164800000000014,24.93 L -52.99200000000002,24.210000000000004 L -52.84800000000001,23.490000000000002 L -52.73280000000001,22.770000000000003 L -52.64640000000001,22.05 L -52.58880000000001,21.330000000000002 L -52.56000000000002,20.61 L -52.56000000000002,19.89 L -52.58880000000001,19.169999999999998 L -52.64640000000001,18.45 L -52.73280000000001,17.73 L -52.84800000000001,17.01 L -52.99200000000002,16.29 L -53.164800000000014,15.57 L -53.366400000000006,14.85 L -53.596800000000016,14.129999999999999 L -53.856000000000016,13.409999999999998 L -54.14400000000002,12.689999999999998 L -54.46080000000001,11.969999999999997 L -54.80640000000001,11.25 L -55.18080000000001,10.53 L -55.58400000000002,9.809999999999999 L -56.01600000000001,9.089999999999998 L -56.47680000000001,8.369999999999997 L -56.96640000000001,7.649999999999997 L -57.484800000000014,6.929999999999996 L -58.03200000000001,6.209999999999999 L -58.60800000000001,5.489999999999998 L -59.212800000000016,4.769999999999998 L -59.84640000000001,4.049999999999997 L -60.50880000000001,3.329999999999997 L -61.20000000000002,2.6099999999999963" style="stroke:black;fill:none;stroke-width:2.0;stroke-linecap:round;stroke-linejoin:round;" /><path d="M -68.4,29.25 L -54.80640000000001,29.25" style="stroke:black;fill:none;stroke-width:2.0;stroke-linecap:round;stroke-linejoin:round;" /><path d="M -68.4,11.25 L -54.80640000000001,11.25" style="stroke:black;fill:none;stroke-width:2.0;stroke-linecap:round;stroke-linejoin:round;" /><path d="M -3.9600000000000035,20.25 L 0.0,20.25" style="stroke:black;fill:none;stroke-width:2.0;stroke-linecap:round;stroke-linejoin:round;" /><path d="M -144.0,-0.0 L -124.02,-0.0 M -91.97999999999999,-0.0 L -72.0,-0.0" style="stroke:black;fill:none;stroke-width:2.0;stroke-linecap:round;stroke-linejoin:round;" /><path d="M -124.02,-18.0 L -100.62,-0.0 L -124.02,18.0 L -124.02,-18.0" style="stroke:black;fill:none;stroke-width:2.0;stroke-linecap:round;stroke-linejoin:round;" /><path d="M -68.4,11.25 L -72.0,11.25 L -72.0,-0.0" style="stroke:black;fill:none;stroke-width:2;stroke-linecap:round;stroke-linejoin:round;" /><path d="M -102.60000000000001,58.5 L -101.44673604034718,58.46301706950605 L -100.29821108967889,58.352220248818426 L -99.1591446833753,58.168064825839174 L -98.03421748962887,57.91130753470253 L -96.92805207557483,57.58300344619204 L -95.84519391217127,57.18450163222839 L -94.79009269588396,56.717439622243546 L -93.76708406392912,56.18373667422101 L -92.78037177821012,55.58558588805314 L -91.83401045115812,54.925445193623226 L -90.93188888445981,54.20602725064442 L -90.07771408913726,53.4302883017591 L -89.27499605264433,52.60141602470371 L -88.52703331557547,51.7228164334572 L -87.83689941725478,50.798099882199054 L -87.20743026590378,49.83106622958945 L -86.641212485286,48.825689224335036 L -86.14057278571538,47.786100176203085 L -85.7075684031043,46.71657097958354 L -85.3439786453401,45.62149655935858 L -85.05129758072718,44.50537681121366 L -84.83072789853989,43.372798110600826 L -84.68317596691443,42.22841446633828 L -84.60924810838762,41.0769283962898 L -84.60924810838762,39.92307160371021 L -84.68317596691443,38.771585533661735 L -84.83072789853989,37.627201889399174 L -85.05129758072718,36.49462318878634 L -85.3439786453401,35.37850344064142 L -85.7075684031043,34.28342902041646 L -86.14057278571538,33.213899823796915 L -86.641212485286,32.174310775664964 L -87.20743026590378,31.16893377041055 L -87.83689941725478,30.20190011780095 L -88.52703331557547,29.2771835665428 L -89.27499605264433,28.3985839752963 L -90.07771408913723,27.5697116982409 L -90.93188888445981,26.793972749355586 L -91.83401045115811,26.07455480637678 L -92.78037177821012,25.414414111946872 L -93.76708406392912,24.81626332577899 L -94.79009269588396,24.282560377756457 L -95.84519391217127,23.81549836777161 L -96.92805207557483,23.416996553807966 L -98.03421748962887,23.08869246529747 L -99.1591446833753,22.831935174160826 L -100.29821108967889,22.64777975118157 L -101.44673604034718,22.536982930493945 L -102.60000000000001,22.5 L -102.60000000000001,22.5 L -126.0,22.5 L -126.0,40.5 L -126.0,58.5 L -102.60000000000001,58.5" style="stroke:black;fill:none;stroke-width:2.0;stroke-linecap:round;stroke-linejoin:round;" /><path d="M -138.6,49.5 L -126.0,49.5" style="stroke:black;fill:none;stroke-width:2.0;stroke-linecap:round;stroke-linejoin:round;" /><path d="M -138.6,31.5 L -126.0,31.5" style="stroke:black;fill:none;stroke-width:2.0;stroke-linecap:round;stroke-linejoin:round;" /><path d="M -84.60000000000001,40.5 L -72.0,40.5" style="stroke:black;fill:none;stroke-width:2.0;stroke-linecap:round;stroke-linejoin:round;" /><path d="M -68.4,29.25 L -72.0,29.25 L -72.0,40.5" style="stroke:black;fill:none;stroke-width:2;stroke-linecap:round;stroke-linejoin:round;" /><text x="3.600000000000003" y="14.65" fill="black" font-size="14.0" font-family="sans" text-anchor="start"><tspan x="3.600000000000003" dy="14.0">\text{Output}</tspan></text><text x="-147.6" y="-5.6000000000000005" fill="black" font-size="14.0" font-family="sans" text-anchor="end"><tspan x="-147.6" dy="14.0">a</tspan></text><text x="-142.20000000000002" y="25.9" fill="black" font-size="14.0" font-family="sans" text-anchor="end"><tspan x="-142.20000000000002" dy="14.0">a</tspan></text><text x="-142.20000000000002" y="43.9" fill="black" font-size="14.0" font-family="sans" text-anchor="end"><tspan x="-142.20000000000002" dy="14.0">b</tspan></text></svg>