<?xml version="1.0" encoding="utf-8" standalone="no"?>
<!DOCTYPE svg PUBLIC "-//W3C//DTD SVG 1.1//EN"
  "http://www.w3.org/Graphics/SVG/1.1/DTD/svg11.dtd">
<svg xmlns:xlink="http://www.w3.org/1999/xlink" width="318.84pt" height="207pt" viewBox="0 0 318.84 207" xmlns="http://www.w3.org/2000/svg" version="1.1">
 <metadata>
  <rdf:RDF xmlns:dc="http://purl.org/dc/elements/1.1/" xmlns:cc="http://creativecommons.org/ns#" xmlns:rdf="http://www.w3.org/1999/02/22-rdf-syntax-ns#">
   <cc:Work>
    <dc:type rdf:resource="http://purl.org/dc/dcmitype/StillImage"/>
    <dc:date>2024-10-01T14:34:27.869475</dc:date>
    <dc:format>image/svg+xml</dc:format>
    <dc:creator>
     <cc:Agent>
      <dc:title>Matplotlib v3.9.0, https://matplotlib.org/</dc:title>
     </cc:Agent>
    </dc:creator>
   </cc:Work>
  </rdf:RDF>
 </metadata>
 <defs>
  <style type="text/css">*{stroke-linejoin: round; stroke-linecap: butt}</style>
 </defs>
 <g id="figure_1">
  <g id="patch_1">
   <path d="M 0 207 
L 318.84 207 
L 318.84 0 
L 0 0 
L 0 207 
z
" style="fill: none"/>
  </g>
  <g id="axes_1">
   <g id="patch_2">
    <path d="M 76.38 27 
C 77.525677 27 78.624585 26.544818 79.434701 25.734701 
C 80.244818 24.924585 80.7 23.825677 80.7 22.68 
C 80.7 21.534323 80.244818 20.435415 79.434701 19.625299 
C 78.624585 18.815182 77.525677 18.36 76.38 18.36 
C 75.234323 18.36 74.135415 18.815182 73.325299 19.625299 
C 72.515182 20.435415 72.06 21.534323 72.06 22.68 
C 72.06 23.825677 72.515182 24.924585 73.325299 25.734701 
C 74.135415 26.544818 75.234323 27 76.38 27 
L 76.38 27 
z
" clip-path="url(#p6a9c76f4bc)" style="fill: none; stroke: #000000; stroke-width: 2; stroke-linejoin: miter"/>
   </g>
   <g id="patch_3">
    <path d="M 148.38 162 
C 149.525677 162 150.624585 161.544818 151.434701 160.734701 
C 152.244818 159.924585 152.7 158.825677 152.7 157.68 
C 152.7 156.534323 152.244818 155.435415 151.434701 154.625299 
C 150.624585 153.815182 149.525677 153.36 148.38 153.36 
C 147.234323 153.36 146.135415 153.815182 145.325299 154.625299 
C 144.515182 155.435415 144.06 156.534323 144.06 157.68 
C 144.06 158.825677 144.515182 159.924585 145.325299 160.734701 
C 146.135415 161.544818 147.234323 162 148.38 162 
L 148.38 162 
z
" clip-path="url(#p6a9c76f4bc)" style="fill: none; stroke: #000000; stroke-width: 2; stroke-linejoin: miter"/>
   </g>
   <g id="patch_4">
    <path d="M 76.38 189 
C 77.525677 189 78.624585 188.544818 79.434701 187.734701 
C 80.244818 186.924585 80.7 185.825677 80.7 184.68 
C 80.7 183.534323 80.244818 182.435415 79.434701 181.625299 
C 78.624585 180.815182 77.525677 180.36 76.38 180.36 
C 75.234323 180.36 74.135415 180.815182 73.325299 181.625299 
C 72.515182 182.435415 72.06 183.534323 72.06 184.68 
C 72.06 185.825677 72.515182 186.924585 73.325299 187.734701 
C 74.135415 188.544818 75.234323 189 76.38 189 
L 76.38 189 
z
" clip-path="url(#p6a9c76f4bc)" style="fill: none; stroke: #000000; stroke-width: 2; stroke-linejoin: miter"/>
   </g>
   <g id="line2d_1">
    <path d="M 172.86 121.32 
L 192.402857 121.253878 
L 194.46 120.96 
L 196.517143 120.43102 
L 198.574286 119.666939 
L 200.631429 118.667755 
L 202.688571 117.433469 
L 204.745714 115.964082 
L 206.802857 114.259592 
L 209.374286 111.798367 
L 211.945714 108.969796 
L 214.517143 105.773878 
L 216.06 103.68 
L 216.06 103.68 
L 213.488571 100.263673 
L 210.917143 97.214694 
L 208.345714 94.533061 
L 205.774286 92.218776 
L 203.717143 90.631837 
L 201.66 89.28 
L 199.602857 88.163265 
L 197.545714 87.281633 
L 195.488571 86.635102 
L 193.431429 86.223673 
L 191.374286 86.047347 
L 190.86 86.04 
L 172.86 86.04 
L 172.86 86.04 
L 174.8472 88.2 
L 176.5752 90.36 
L 178.044 92.52 
L 179.2536 94.68 
L 180.204 96.84 
L 180.8952 99 
L 181.3272 101.16 
L 181.5 103.32 
L 181.4136 105.48 
L 181.068 107.64 
L 180.4632 109.8 
L 179.5992 111.96 
L 178.476 114.12 
L 177.0936 116.28 
L 175.452 118.44 
L 173.5512 120.6 
L 172.86 121.32 
L 172.86 121.32 
" clip-path="url(#p6a9c76f4bc)" style="fill: none; stroke: #000000; stroke-width: 2; stroke-linecap: round"/>
   </g>
   <g id="line2d_2">
    <path d="M 167.46 121.32 
L 168.1512 120.6 
L 168.8136 119.88 
L 169.4472 119.16 
L 170.052 118.44 
L 170.628 117.72 
L 171.1752 117 
L 171.6936 116.28 
L 172.1832 115.56 
L 172.644 114.84 
L 173.076 114.12 
L 173.4792 113.4 
L 173.8536 112.68 
L 174.1992 111.96 
L 174.516 111.24 
L 174.804 110.52 
L 175.0632 109.8 
L 175.2936 109.08 
L 175.4952 108.36 
L 175.668 107.64 
L 175.812 106.92 
L 175.9272 106.2 
L 176.0136 105.48 
L 176.0712 104.76 
L 176.1 104.04 
L 176.1 103.32 
L 176.0712 102.6 
L 176.0136 101.88 
L 175.9272 101.16 
L 175.812 100.44 
L 175.668 99.72 
L 175.4952 99 
L 175.2936 98.28 
L 175.0632 97.56 
L 174.804 96.84 
L 174.516 96.12 
L 174.1992 95.4 
L 173.8536 94.68 
L 173.4792 93.96 
L 173.076 93.24 
L 172.644 92.52 
L 172.1832 91.8 
L 171.6936 91.08 
L 171.1752 90.36 
L 170.628 89.64 
L 170.052 88.92 
L 169.4472 88.2 
L 168.8136 87.48 
L 168.1512 86.76 
L 167.46 86.04 
" clip-path="url(#p6a9c76f4bc)" style="fill: none; stroke: #000000; stroke-width: 2; stroke-linecap: round"/>
   </g>
   <g id="line2d_3">
    <path d="M 160.26 112.68 
L 173.8536 112.68 
" clip-path="url(#p6a9c76f4bc)" style="fill: none; stroke: #000000; stroke-width: 2; stroke-linecap: round"/>
   </g>
   <g id="line2d_4">
    <path d="M 160.26 94.68 
L 173.8536 94.68 
" clip-path="url(#p6a9c76f4bc)" style="fill: none; stroke: #000000; stroke-width: 2; stroke-linecap: round"/>
   </g>
   <g id="line2d_5">
    <path d="M 216.06 103.68 
L 228.66 103.68 
" clip-path="url(#p6a9c76f4bc)" style="fill: none; stroke: #000000; stroke-width: 2; stroke-linecap: round"/>
   </g>
   <g id="line2d_6">
    <path d="M 126.06 67.68 
L 127.213264 67.643017 
L 128.361789 67.53222 
L 129.500855 67.348065 
L 130.625783 67.091308 
L 131.731948 66.763003 
L 132.814806 66.364502 
L 133.869907 65.89744 
L 134.892916 65.363737 
L 135.879628 64.765586 
L 136.82599 64.105445 
L 137.728111 63.386027 
L 138.582286 62.610288 
L 139.385004 61.781416 
L 140.132967 60.902816 
L 140.823101 59.9781 
L 141.45257 59.011066 
L 142.018788 58.005689 
L 142.519427 56.9661 
L 142.952432 55.896571 
L 143.316021 54.801497 
L 143.608702 53.685377 
L 143.829272 52.552798 
L 143.976824 51.408414 
L 144.050752 50.256928 
L 144.050752 49.103072 
L 143.976824 47.951586 
L 143.829272 46.807202 
L 143.608702 45.674623 
L 143.316021 44.558503 
L 142.952432 43.463429 
L 142.519427 42.3939 
L 142.018788 41.354311 
L 141.45257 40.348934 
L 140.823101 39.3819 
L 140.132967 38.457184 
L 139.385004 37.578584 
L 138.582286 36.749712 
L 137.728111 35.973973 
L 136.82599 35.254555 
L 135.879628 34.594414 
L 134.892916 33.996263 
L 133.869907 33.46256 
L 132.814806 32.995498 
L 131.731948 32.596997 
L 130.625783 32.268692 
L 129.500855 32.011935 
L 128.361789 31.82778 
L 127.213264 31.716983 
L 126.06 31.68 
L 126.06 31.68 
L 102.66 31.68 
L 102.66 49.68 
L 102.66 67.68 
L 126.06 67.68 
" clip-path="url(#p6a9c76f4bc)" style="fill: none; stroke: #000000; stroke-width: 2; stroke-linecap: round"/>
   </g>
   <g id="line2d_7">
    <path d="M 90.06 58.68 
L 102.66 58.68 
" clip-path="url(#p6a9c76f4bc)" style="fill: none; stroke: #000000; stroke-width: 2; stroke-linecap: round"/>
   </g>
   <g id="line2d_8">
    <path d="M 90.06 40.68 
L 102.66 40.68 
" clip-path="url(#p6a9c76f4bc)" style="fill: none; stroke: #000000; stroke-width: 2; stroke-linecap: round"/>
   </g>
   <g id="line2d_9">
    <path d="M 144.06 49.68 
L 156.66 49.68 
" clip-path="url(#p6a9c76f4bc)" style="fill: none; stroke: #000000; stroke-width: 2; stroke-linecap: round"/>
   </g>
   <g id="line2d_10">
    <path d="M 54.06 40.68 
L 55.213264 40.643017 
L 56.361789 40.53222 
L 57.500855 40.348065 
L 58.625783 40.091308 
L 59.731948 39.763003 
L 60.814806 39.364502 
L 61.869907 38.89744 
L 62.892916 38.363737 
L 63.879628 37.765586 
L 64.82599 37.105445 
L 65.728111 36.386027 
L 66.582286 35.610288 
L 67.385004 34.781416 
L 68.132967 33.902816 
L 68.823101 32.9781 
L 69.45257 32.011066 
L 70.018788 31.005689 
L 70.519427 29.9661 
L 70.952432 28.896571 
L 71.316021 27.801497 
L 71.608702 26.685377 
L 71.829272 25.552798 
L 71.976824 24.408414 
L 72.050752 23.256928 
L 72.050752 22.103072 
L 71.976824 20.951586 
L 71.829272 19.807202 
L 71.608702 18.674623 
L 71.316021 17.558503 
L 70.952432 16.463429 
L 70.519427 15.3939 
L 70.018788 14.354311 
L 69.45257 13.348934 
L 68.823101 12.3819 
L 68.132967 11.457184 
L 67.385004 10.578584 
L 66.582286 9.749712 
L 65.728111 8.973973 
L 64.82599 8.254555 
L 63.879628 7.594414 
L 62.892916 6.996263 
L 61.869907 6.46256 
L 60.814806 5.995498 
L 59.731948 5.596997 
L 58.625783 5.268692 
L 57.500855 5.011935 
L 56.361789 4.82778 
L 55.213264 4.716983 
L 54.06 4.68 
L 54.06 4.68 
L 30.66 4.68 
L 30.66 22.68 
L 30.66 40.68 
L 54.06 40.68 
" clip-path="url(#p6a9c76f4bc)" style="fill: none; stroke: #000000; stroke-width: 2; stroke-linecap: round"/>
   </g>
   <g id="line2d_11">
    <path d="M 18.06 31.68 
L 30.66 31.68 
" clip-path="url(#p6a9c76f4bc)" style="fill: none; stroke: #000000; stroke-width: 2; stroke-linecap: round"/>
   </g>
   <g id="line2d_12">
    <path d="M 18.06 13.68 
L 30.66 13.68 
" clip-path="url(#p6a9c76f4bc)" style="fill: none; stroke: #000000; stroke-width: 2; stroke-linecap: round"/>
   </g>
   <g id="line2d_13">
    <path d="M 80.7 22.68 
L 84.66 22.68 
" clip-path="url(#p6a9c76f4bc)" style="fill: none; stroke: #000000; stroke-width: 2; stroke-linecap: round"/>
   </g>
   <g id="line2d_14">
    <path d="M 90.06 40.68 
L 84.66 40.68 
L 84.66 22.68 
" clip-path="url(#p6a9c76f4bc)" style="fill: none; stroke: #000000; stroke-width: 2; stroke-linecap: round"/>
   </g>
   <g id="line2d_15">
    <path d="M 28.86 94.32 
L 48.402857 94.253878 
L 50.46 93.96 
L 52.517143 93.43102 
L 54.574286 92.666939 
L 56.631429 91.667755 
L 58.688571 90.433469 
L 60.745714 88.964082 
L 62.802857 87.259592 
L 65.374286 84.798367 
L 67.945714 81.969796 
L 70.517143 78.773878 
L 72.06 76.68 
L 72.06 76.68 
L 69.488571 73.263673 
L 66.917143 70.214694 
L 64.345714 67.533061 
L 61.774286 65.218776 
L 59.717143 63.631837 
L 57.66 62.28 
L 55.602857 61.163265 
L 53.545714 60.281633 
L 51.488571 59.635102 
L 49.431429 59.223673 
L 47.374286 59.047347 
L 46.86 59.04 
L 28.86 59.04 
L 28.86 59.04 
L 30.8472 61.2 
L 32.5752 63.36 
L 34.044 65.52 
L 35.2536 67.68 
L 36.204 69.84 
L 36.8952 72 
L 37.3272 74.16 
L 37.5 76.32 
L 37.4136 78.48 
L 37.068 80.64 
L 36.4632 82.8 
L 35.5992 84.96 
L 34.476 87.12 
L 33.0936 89.28 
L 31.452 91.44 
L 29.5512 93.6 
L 28.86 94.32 
L 28.86 94.32 
" clip-path="url(#p6a9c76f4bc)" style="fill: none; stroke: #000000; stroke-width: 2; stroke-linecap: round"/>
   </g>
   <g id="line2d_16">
    <path d="M 16.26 85.68 
L 35.2536 85.68 
" clip-path="url(#p6a9c76f4bc)" style="fill: none; stroke: #000000; stroke-width: 2; stroke-linecap: round"/>
   </g>
   <g id="line2d_17">
    <path d="M 16.26 67.68 
L 35.2536 67.68 
" clip-path="url(#p6a9c76f4bc)" style="fill: none; stroke: #000000; stroke-width: 2; stroke-linecap: round"/>
   </g>
   <g id="line2d_18">
    <path d="M 72.06 76.68 
L 84.66 76.68 
" clip-path="url(#p6a9c76f4bc)" style="fill: none; stroke: #000000; stroke-width: 2; stroke-linecap: round"/>
   </g>
   <g id="line2d_19">
    <path d="M 90.06 58.68 
L 84.66 58.68 
L 84.66 76.68 
" clip-path="url(#p6a9c76f4bc)" style="fill: none; stroke: #000000; stroke-width: 2; stroke-linecap: round"/>
   </g>
   <g id="line2d_20">
    <path d="M 160.26 94.68 
L 156.66 94.68 
L 156.66 49.68 
" clip-path="url(#p6a9c76f4bc)" style="fill: none; stroke: #000000; stroke-width: 2; stroke-linecap: round"/>
   </g>
   <g id="line2d_21">
    <path d="M 100.86 175.32 
L 120.402857 175.253878 
L 122.46 174.96 
L 124.517143 174.43102 
L 126.574286 173.666939 
L 128.631429 172.667755 
L 130.688571 171.433469 
L 132.745714 169.964082 
L 134.802857 168.259592 
L 137.374286 165.798367 
L 139.945714 162.969796 
L 142.517143 159.773878 
L 144.06 157.68 
L 144.06 157.68 
L 141.488571 154.263673 
L 138.917143 151.214694 
L 136.345714 148.533061 
L 133.774286 146.218776 
L 131.717143 144.631837 
L 129.66 143.28 
L 127.602857 142.163265 
L 125.545714 141.281633 
L 123.488571 140.635102 
L 121.431429 140.223673 
L 119.374286 140.047347 
L 118.86 140.04 
L 100.86 140.04 
L 100.86 140.04 
L 102.8472 142.2 
L 104.5752 144.36 
L 106.044 146.52 
L 107.2536 148.68 
L 108.204 150.84 
L 108.8952 153 
L 109.3272 155.16 
L 109.5 157.32 
L 109.4136 159.48 
L 109.068 161.64 
L 108.4632 163.8 
L 107.5992 165.96 
L 106.476 168.12 
L 105.0936 170.28 
L 103.452 172.44 
L 101.5512 174.6 
L 100.86 175.32 
L 100.86 175.32 
" clip-path="url(#p6a9c76f4bc)" style="fill: none; stroke: #000000; stroke-width: 2; stroke-linecap: round"/>
   </g>
   <g id="line2d_22">
    <path d="M 95.46 175.32 
L 96.1512 174.6 
L 96.8136 173.88 
L 97.4472 173.16 
L 98.052 172.44 
L 98.628 171.72 
L 99.1752 171 
L 99.6936 170.28 
L 100.1832 169.56 
L 100.644 168.84 
L 101.076 168.12 
L 101.4792 167.4 
L 101.8536 166.68 
L 102.1992 165.96 
L 102.516 165.24 
L 102.804 164.52 
L 103.0632 163.8 
L 103.2936 163.08 
L 103.4952 162.36 
L 103.668 161.64 
L 103.812 160.92 
L 103.9272 160.2 
L 104.0136 159.48 
L 104.0712 158.76 
L 104.1 158.04 
L 104.1 157.32 
L 104.0712 156.6 
L 104.0136 155.88 
L 103.9272 155.16 
L 103.812 154.44 
L 103.668 153.72 
L 103.4952 153 
L 103.2936 152.28 
L 103.0632 151.56 
L 102.804 150.84 
L 102.516 150.12 
L 102.1992 149.4 
L 101.8536 148.68 
L 101.4792 147.96 
L 101.076 147.24 
L 100.644 146.52 
L 100.1832 145.8 
L 99.6936 145.08 
L 99.1752 144.36 
L 98.628 143.64 
L 98.052 142.92 
L 97.4472 142.2 
L 96.8136 141.48 
L 96.1512 140.76 
L 95.46 140.04 
" clip-path="url(#p6a9c76f4bc)" style="fill: none; stroke: #000000; stroke-width: 2; stroke-linecap: round"/>
   </g>
   <g id="line2d_23">
    <path d="M 88.26 166.68 
L 101.8536 166.68 
" clip-path="url(#p6a9c76f4bc)" style="fill: none; stroke: #000000; stroke-width: 2; stroke-linecap: round"/>
   </g>
   <g id="line2d_24">
    <path d="M 88.26 148.68 
L 101.8536 148.68 
" clip-path="url(#p6a9c76f4bc)" style="fill: none; stroke: #000000; stroke-width: 2; stroke-linecap: round"/>
   </g>
   <g id="line2d_25">
    <path d="M 152.7 157.68 
L 156.66 157.68 
" clip-path="url(#p6a9c76f4bc)" style="fill: none; stroke: #000000; stroke-width: 2; stroke-linecap: round"/>
   </g>
   <g id="line2d_26">
    <path d="M 54.06 148.68 
L 55.213264 148.643017 
L 56.361789 148.53222 
L 57.500855 148.348065 
L 58.625783 148.091308 
L 59.731948 147.763003 
L 60.814806 147.364502 
L 61.869907 146.89744 
L 62.892916 146.363737 
L 63.879628 145.765586 
L 64.82599 145.105445 
L 65.728111 144.386027 
L 66.582286 143.610288 
L 67.385004 142.781416 
L 68.132967 141.902816 
L 68.823101 140.9781 
L 69.45257 140.011066 
L 70.018788 139.005689 
L 70.519427 137.9661 
L 70.952432 136.896571 
L 71.316021 135.801497 
L 71.608702 134.685377 
L 71.829272 133.552798 
L 71.976824 132.408414 
L 72.050752 131.256928 
L 72.050752 130.103072 
L 71.976824 128.951586 
L 71.829272 127.807202 
L 71.608702 126.674623 
L 71.316021 125.558503 
L 70.952432 124.463429 
L 70.519427 123.3939 
L 70.018788 122.354311 
L 69.45257 121.348934 
L 68.823101 120.3819 
L 68.132967 119.457184 
L 67.385004 118.578584 
L 66.582286 117.749712 
L 65.728111 116.973973 
L 64.82599 116.254555 
L 63.879628 115.594414 
L 62.892916 114.996263 
L 61.869907 114.46256 
L 60.814806 113.995498 
L 59.731948 113.596997 
L 58.625783 113.268692 
L 57.500855 113.011935 
L 56.361789 112.82778 
L 55.213264 112.716983 
L 54.06 112.68 
L 54.06 112.68 
L 30.66 112.68 
L 30.66 130.68 
L 30.66 148.68 
L 54.06 148.68 
" clip-path="url(#p6a9c76f4bc)" style="fill: none; stroke: #000000; stroke-width: 2; stroke-linecap: round"/>
   </g>
   <g id="line2d_27">
    <path d="M 18.06 139.68 
L 30.66 139.68 
" clip-path="url(#p6a9c76f4bc)" style="fill: none; stroke: #000000; stroke-width: 2; stroke-linecap: round"/>
   </g>
   <g id="line2d_28">
    <path d="M 18.06 121.68 
L 30.66 121.68 
" clip-path="url(#p6a9c76f4bc)" style="fill: none; stroke: #000000; stroke-width: 2; stroke-linecap: round"/>
   </g>
   <g id="line2d_29">
    <path d="M 72.06 130.68 
L 84.66 130.68 
" clip-path="url(#p6a9c76f4bc)" style="fill: none; stroke: #000000; stroke-width: 2; stroke-linecap: round"/>
   </g>
   <g id="line2d_30">
    <path d="M 88.26 148.68 
L 84.66 148.68 
L 84.66 130.68 
" clip-path="url(#p6a9c76f4bc)" style="fill: none; stroke: #000000; stroke-width: 2; stroke-linecap: round"/>
   </g>
   <g id="line2d_31">
    <path d="M 28.86 202.32 
L 48.402857 202.253878 
L 50.46 201.96 
L 52.517143 201.43102 
L 54.574286 200.666939 
L 56.631429 199.667755 
L 58.688571 198.433469 
L 60.745714 196.964082 
L 62.802857 195.259592 
L 65.374286 192.798367 
L 67.945714 189.969796 
L 70.517143 186.773878 
L 72.06 184.68 
L 72.06 184.68 
L 69.488571 181.263673 
L 66.917143 178.214694 
L 64.345714 175.533061 
L 61.774286 173.218776 
L 59.717143 171.631837 
L 57.66 170.28 
L 55.602857 169.163265 
L 53.545714 168.281633 
L 51.488571 167.635102 
L 49.431429 167.223673 
L 47.374286 167.047347 
L 46.86 167.04 
L 28.86 167.04 
L 28.86 167.04 
L 30.8472 169.2 
L 32.5752 171.36 
L 34.044 173.52 
L 35.2536 175.68 
L 36.204 177.84 
L 36.8952 180 
L 37.3272 182.16 
L 37.5 184.32 
L 37.4136 186.48 
L 37.068 188.64 
L 36.4632 190.8 
L 35.5992 192.96 
L 34.476 195.12 
L 33.0936 197.28 
L 31.452 199.44 
L 29.5512 201.6 
L 28.86 202.32 
L 28.86 202.32 
" clip-path="url(#p6a9c76f4bc)" style="fill: none; stroke: #000000; stroke-width: 2; stroke-linecap: round"/>
   </g>
   <g id="line2d_32">
    <path d="M 16.26 193.68 
L 35.2536 193.68 
" clip-path="url(#p6a9c76f4bc)" style="fill: none; stroke: #000000; stroke-width: 2; stroke-linecap: round"/>
   </g>
   <g id="line2d_33">
    <path d="M 16.26 175.68 
L 35.2536 175.68 
" clip-path="url(#p6a9c76f4bc)" style="fill: none; stroke: #000000; stroke-width: 2; stroke-linecap: round"/>
   </g>
   <g id="line2d_34">
    <path d="M 80.7 184.68 
L 84.66 184.68 
" clip-path="url(#p6a9c76f4bc)" style="fill: none; stroke: #000000; stroke-width: 2; stroke-linecap: round"/>
   </g>
   <g id="line2d_35">
    <path d="M 88.26 166.68 
L 84.66 166.68 
L 84.66 184.68 
" clip-path="url(#p6a9c76f4bc)" style="fill: none; stroke: #000000; stroke-width: 2; stroke-linecap: round"/>
   </g>
   <g id="line2d_36">
    <path d="M 160.26 112.68 
L 156.66 112.68 
L 156.66 157.68 
" clip-path="url(#p6a9c76f4bc)" style="fill: none; stroke: #000000; stroke-width: 2; stroke-linecap: round"/>
   </g>
   <g id="text_1">
    <!-- $\text{Output}$ -->
    <g transform="translate(232.26 107.514688) scale(0.14 -0.14)">
     <defs>
      <path id="DejaVuSans-4f" d="M 2522 4238 
Q 1834 4238 1429 3725 
Q 1025 3213 1025 2328 
Q 1025 1447 1429 934 
Q 1834 422 2522 422 
Q 3209 422 3611 934 
Q 4013 1447 4013 2328 
Q 4013 3213 3611 3725 
Q 3209 4238 2522 4238 
z
M 2522 4750 
Q 3503 4750 4090 4092 
Q 4678 3434 4678 2328 
Q 4678 1225 4090 567 
Q 3503 -91 2522 -91 
Q 1538 -91 948 565 
Q 359 1222 359 2328 
Q 359 3434 948 4092 
Q 1538 4750 2522 4750 
z
" transform="scale(0.015625)"/>
      <path id="DejaVuSans-75" d="M 544 1381 
L 544 3500 
L 1119 3500 
L 1119 1403 
Q 1119 906 1312 657 
Q 1506 409 1894 409 
Q 2359 409 2629 706 
Q 2900 1003 2900 1516 
L 2900 3500 
L 3475 3500 
L 3475 0 
L 2900 0 
L 2900 538 
Q 2691 219 2414 64 
Q 2138 -91 1772 -91 
Q 1169 -91 856 284 
Q 544 659 544 1381 
z
M 1991 3584 
L 1991 3584 
z
" transform="scale(0.015625)"/>
      <path id="DejaVuSans-74" d="M 1172 4494 
L 1172 3500 
L 2356 3500 
L 2356 3053 
L 1172 3053 
L 1172 1153 
Q 1172 725 1289 603 
Q 1406 481 1766 481 
L 2356 481 
L 2356 0 
L 1766 0 
Q 1100 0 847 248 
Q 594 497 594 1153 
L 594 3053 
L 172 3053 
L 172 3500 
L 594 3500 
L 594 4494 
L 1172 4494 
z
" transform="scale(0.015625)"/>
      <path id="DejaVuSans-70" d="M 1159 525 
L 1159 -1331 
L 581 -1331 
L 581 3500 
L 1159 3500 
L 1159 2969 
Q 1341 3281 1617 3432 
Q 1894 3584 2278 3584 
Q 2916 3584 3314 3078 
Q 3713 2572 3713 1747 
Q 3713 922 3314 415 
Q 2916 -91 2278 -91 
Q 1894 -91 1617 61 
Q 1341 213 1159 525 
z
M 3116 1747 
Q 3116 2381 2855 2742 
Q 2594 3103 2138 3103 
Q 1681 3103 1420 2742 
Q 1159 2381 1159 1747 
Q 1159 1113 1420 752 
Q 1681 391 2138 391 
Q 2594 391 2855 752 
Q 3116 1113 3116 1747 
z
" transform="scale(0.015625)"/>
     </defs>
     <use xlink:href="#DejaVuSans-4f" transform="translate(0 0.78125)"/>
     <use xlink:href="#DejaVuSans-75" transform="translate(78.710938 0.78125)"/>
     <use xlink:href="#DejaVuSans-74" transform="translate(142.089844 0.78125)"/>
     <use xlink:href="#DejaVuSans-70" transform="translate(181.298828 0.78125)"/>
     <use xlink:href="#DejaVuSans-75" transform="translate(244.775391 0.78125)"/>
     <use xlink:href="#DejaVuSans-74" transform="translate(308.154297 0.78125)"/>
    </g>
   </g>
   <g id="text_2">
    <!-- c -->
    <g transform="translate(6.762188 17.543125) scale(0.14 -0.14)">
     <defs>
      <path id="DejaVuSans-63" d="M 3122 3366 
L 3122 2828 
Q 2878 2963 2633 3030 
Q 2388 3097 2138 3097 
Q 1578 3097 1268 2742 
Q 959 2388 959 1747 
Q 959 1106 1268 751 
Q 1578 397 2138 397 
Q 2388 397 2633 464 
Q 2878 531 3122 666 
L 3122 134 
Q 2881 22 2623 -34 
Q 2366 -91 2075 -91 
Q 1284 -91 818 406 
Q 353 903 353 1747 
Q 353 2603 823 3093 
Q 1294 3584 2113 3584 
Q 2378 3584 2631 3529 
Q 2884 3475 3122 3366 
z
" transform="scale(0.015625)"/>
     </defs>
     <use xlink:href="#DejaVuSans-63"/>
    </g>
   </g>
   <g id="text_3">
    <!-- a -->
    <g transform="translate(5.880625 35.543125) scale(0.14 -0.14)">
     <defs>
      <path id="DejaVuSans-61" d="M 2194 1759 
Q 1497 1759 1228 1600 
Q 959 1441 959 1056 
Q 959 750 1161 570 
Q 1363 391 1709 391 
Q 2188 391 2477 730 
Q 2766 1069 2766 1631 
L 2766 1759 
L 2194 1759 
z
M 3341 1997 
L 3341 0 
L 2766 0 
L 2766 531 
Q 2569 213 2275 61 
Q 1981 -91 1556 -91 
Q 1019 -91 701 211 
Q 384 513 384 1019 
Q 384 1609 779 1909 
Q 1175 2209 1959 2209 
L 2766 2209 
L 2766 2266 
Q 2766 2663 2505 2880 
Q 2244 3097 1772 3097 
Q 1472 3097 1187 3025 
Q 903 2953 641 2809 
L 641 3341 
Q 956 3463 1253 3523 
Q 1550 3584 1831 3584 
Q 2591 3584 2966 3190 
Q 3341 2797 3341 1997 
z
" transform="scale(0.015625)"/>
     </defs>
     <use xlink:href="#DejaVuSans-61"/>
    </g>
   </g>
   <g id="text_4">
    <!-- a -->
    <g transform="translate(4.080625 71.543125) scale(0.14 -0.14)">
     <use xlink:href="#DejaVuSans-61"/>
    </g>
   </g>
   <g id="text_5">
    <!-- c -->
    <g transform="translate(4.962188 89.543125) scale(0.14 -0.14)">
     <use xlink:href="#DejaVuSans-63"/>
    </g>
   </g>
   <g id="text_6">
    <!-- b -->
    <g transform="translate(5.572188 125.543125) scale(0.14 -0.14)">
     <defs>
      <path id="DejaVuSans-62" d="M 3116 1747 
Q 3116 2381 2855 2742 
Q 2594 3103 2138 3103 
Q 1681 3103 1420 2742 
Q 1159 2381 1159 1747 
Q 1159 1113 1420 752 
Q 1681 391 2138 391 
Q 2594 391 2855 752 
Q 3116 1113 3116 1747 
z
M 1159 2969 
Q 1341 3281 1617 3432 
Q 1894 3584 2278 3584 
Q 2916 3584 3314 3078 
Q 3713 2572 3713 1747 
Q 3713 922 3314 415 
Q 2916 -91 2278 -91 
Q 1894 -91 1617 61 
Q 1341 213 1159 525 
L 1159 0 
L 581 0 
L 581 4863 
L 1159 4863 
L 1159 2969 
z
" transform="scale(0.015625)"/>
     </defs>
     <use xlink:href="#DejaVuSans-62"/>
    </g>
   </g>
   <g id="text_7">
    <!-- a -->
    <g transform="translate(5.880625 143.543125) scale(0.14 -0.14)">
     <use xlink:href="#DejaVuSans-61"/>
    </g>
   </g>
   <g id="text_8">
    <!-- b -->
    <g transform="translate(3.772188 179.543125) scale(0.14 -0.14)">
     <use xlink:href="#DejaVuSans-62"/>
    </g>
   </g>
   <g id="text_9">
    <!-- b -->
    <g transform="translate(3.772188 197.543125) scale(0.14 -0.14)">
     <use xlink:href="#DejaVuSans-62"/>
    </g>
   </g>
  </g>
 </g>
 <defs>
  <clipPath id="p6a9c76f4bc">
   <rect x="0" y="0" width="318.84" height="207"/>
  </clipPath>
 </defs>
</svg>
