<?xml version="1.0" encoding="utf-8" standalone="no"?>
<!DOCTYPE svg PUBLIC "-//W3C//DTD SVG 1.1//EN"
  "http://www.w3.org/Graphics/SVG/1.1/DTD/svg11.dtd">
<svg xmlns:xlink="http://www.w3.org/1999/xlink" width="318.84pt" height="139.5pt" viewBox="0 0 318.84 139.5" xmlns="http://www.w3.org/2000/svg" version="1.1">
 <metadata>
  <rdf:RDF xmlns:dc="http://purl.org/dc/elements/1.1/" xmlns:cc="http://creativecommons.org/ns#" xmlns:rdf="http://www.w3.org/1999/02/22-rdf-syntax-ns#">
   <cc:Work>
    <dc:type rdf:resource="http://purl.org/dc/dcmitype/StillImage"/>
    <dc:date>2024-10-01T14:00:02.304912</dc:date>
    <dc:format>image/svg+xml</dc:format>
    <dc:creator>
     <cc:Agent>
      <dc:title>Matplotlib v3.9.0, https://matplotlib.org/</dc:title>
     </cc:Agent>
    </dc:creator>
   </cc:Work>
  </rdf:RDF>
 </metadata>
 <defs>
  <style type="text/css">*{stroke-linejoin: round; stroke-linecap: butt}</style>
 </defs>
 <g id="figure_1">
  <g id="patch_1">
   <path d="M 0 139.5 
L 318.84 139.5 
L 318.84 0 
L 0 0 
L 0 139.5 
z
" style="fill: none"/>
  </g>
  <g id="axes_1">
   <g id="patch_2">
    <path d="M 220.38 87.75 
C 221.525677 87.75 222.624585 87.294818 223.434701 86.484701 
C 224.244818 85.674585 224.7 84.575677 224.7 83.43 
C 224.7 82.284323 224.244818 81.185415 223.434701 80.375299 
C 222.624585 79.565182 221.525677 79.11 220.38 79.11 
C 219.234323 79.11 218.135415 79.565182 217.325299 80.375299 
C 216.515182 81.185415 216.06 82.284323 216.06 83.43 
C 216.06 84.575677 216.515182 85.674585 217.325299 86.484701 
C 218.135415 87.294818 219.234323 87.75 220.38 87.75 
L 220.38 87.75 
z
" clip-path="url(#pef3867d9e9)" style="fill: none; stroke: #000000; stroke-width: 2; stroke-linejoin: miter"/>
   </g>
   <g id="patch_3">
    <path d="M 76.38 27 
C 77.525677 27 78.624585 26.544818 79.434701 25.734701 
C 80.244818 24.924585 80.7 23.825677 80.7 22.68 
C 80.7 21.534323 80.244818 20.435415 79.434701 19.625299 
C 78.624585 18.815182 77.525677 18.36 76.38 18.36 
C 75.234323 18.36 74.135415 18.815182 73.325299 19.625299 
C 72.515182 20.435415 72.06 21.534323 72.06 22.68 
C 72.06 23.825677 72.515182 24.924585 73.325299 25.734701 
C 74.135415 26.544818 75.234323 27 76.38 27 
L 76.38 27 
z
" clip-path="url(#pef3867d9e9)" style="fill: none; stroke: #000000; stroke-width: 2; stroke-linejoin: miter"/>
   </g>
   <g id="patch_4">
    <path d="M 148.38 121.5 
C 149.525677 121.5 150.624585 121.044818 151.434701 120.234701 
C 152.244818 119.424585 152.7 118.325677 152.7 117.18 
C 152.7 116.034323 152.244818 114.935415 151.434701 114.125299 
C 150.624585 113.315182 149.525677 112.86 148.38 112.86 
C 147.234323 112.86 146.135415 113.315182 145.325299 114.125299 
C 144.515182 114.935415 144.06 116.034323 144.06 117.18 
C 144.06 118.325677 144.515182 119.424585 145.325299 120.234701 
C 146.135415 121.044818 147.234323 121.5 148.38 121.5 
L 148.38 121.5 
z
" clip-path="url(#pef3867d9e9)" style="fill: none; stroke: #000000; stroke-width: 2; stroke-linejoin: miter"/>
   </g>
   <g id="line2d_1">
    <path d="M 172.86 101.07 
L 192.402857 101.003878 
L 194.46 100.71 
L 196.517143 100.18102 
L 198.574286 99.416939 
L 200.631429 98.417755 
L 202.688571 97.183469 
L 204.745714 95.714082 
L 206.802857 94.009592 
L 209.374286 91.548367 
L 211.945714 88.719796 
L 214.517143 85.523878 
L 216.06 83.43 
L 216.06 83.43 
L 213.488571 80.013673 
L 210.917143 76.964694 
L 208.345714 74.283061 
L 205.774286 71.968776 
L 203.717143 70.381837 
L 201.66 69.03 
L 199.602857 67.913265 
L 197.545714 67.031633 
L 195.488571 66.385102 
L 193.431429 65.973673 
L 191.374286 65.797347 
L 190.86 65.79 
L 172.86 65.79 
L 172.86 65.79 
L 174.8472 67.95 
L 176.5752 70.11 
L 178.044 72.27 
L 179.2536 74.43 
L 180.204 76.59 
L 180.8952 78.75 
L 181.3272 80.91 
L 181.5 83.07 
L 181.4136 85.23 
L 181.068 87.39 
L 180.4632 89.55 
L 179.5992 91.71 
L 178.476 93.87 
L 177.0936 96.03 
L 175.452 98.19 
L 173.5512 100.35 
L 172.86 101.07 
L 172.86 101.07 
" clip-path="url(#pef3867d9e9)" style="fill: none; stroke: #000000; stroke-width: 2; stroke-linecap: round"/>
   </g>
   <g id="line2d_2">
    <path d="M 167.46 101.07 
L 168.1512 100.35 
L 168.8136 99.63 
L 169.4472 98.91 
L 170.052 98.19 
L 170.628 97.47 
L 171.1752 96.75 
L 171.6936 96.03 
L 172.1832 95.31 
L 172.644 94.59 
L 173.076 93.87 
L 173.4792 93.15 
L 173.8536 92.43 
L 174.1992 91.71 
L 174.516 90.99 
L 174.804 90.27 
L 175.0632 89.55 
L 175.2936 88.83 
L 175.4952 88.11 
L 175.668 87.39 
L 175.812 86.67 
L 175.9272 85.95 
L 176.0136 85.23 
L 176.0712 84.51 
L 176.1 83.79 
L 176.1 83.07 
L 176.0712 82.35 
L 176.0136 81.63 
L 175.9272 80.91 
L 175.812 80.19 
L 175.668 79.47 
L 175.4952 78.75 
L 175.2936 78.03 
L 175.0632 77.31 
L 174.804 76.59 
L 174.516 75.87 
L 174.1992 75.15 
L 173.8536 74.43 
L 173.4792 73.71 
L 173.076 72.99 
L 172.644 72.27 
L 172.1832 71.55 
L 171.6936 70.83 
L 171.1752 70.11 
L 170.628 69.39 
L 170.052 68.67 
L 169.4472 67.95 
L 168.8136 67.23 
L 168.1512 66.51 
L 167.46 65.79 
" clip-path="url(#pef3867d9e9)" style="fill: none; stroke: #000000; stroke-width: 2; stroke-linecap: round"/>
   </g>
   <g id="line2d_3">
    <path d="M 160.26 92.43 
L 173.8536 92.43 
" clip-path="url(#pef3867d9e9)" style="fill: none; stroke: #000000; stroke-width: 2; stroke-linecap: round"/>
   </g>
   <g id="line2d_4">
    <path d="M 160.26 74.43 
L 173.8536 74.43 
" clip-path="url(#pef3867d9e9)" style="fill: none; stroke: #000000; stroke-width: 2; stroke-linecap: round"/>
   </g>
   <g id="line2d_5">
    <path d="M 224.7 83.43 
L 228.66 83.43 
" clip-path="url(#pef3867d9e9)" style="fill: none; stroke: #000000; stroke-width: 2; stroke-linecap: round"/>
   </g>
   <g id="line2d_6">
    <path d="M 100.86 67.32 
L 120.402857 67.253878 
L 122.46 66.96 
L 124.517143 66.43102 
L 126.574286 65.666939 
L 128.631429 64.667755 
L 130.688571 63.433469 
L 132.745714 61.964082 
L 134.802857 60.259592 
L 137.374286 57.798367 
L 139.945714 54.969796 
L 142.517143 51.773878 
L 144.06 49.68 
L 144.06 49.68 
L 141.488571 46.263673 
L 138.917143 43.214694 
L 136.345714 40.533061 
L 133.774286 38.218776 
L 131.717143 36.631837 
L 129.66 35.28 
L 127.602857 34.163265 
L 125.545714 33.281633 
L 123.488571 32.635102 
L 121.431429 32.223673 
L 119.374286 32.047347 
L 118.86 32.04 
L 100.86 32.04 
L 100.86 32.04 
L 102.8472 34.2 
L 104.5752 36.36 
L 106.044 38.52 
L 107.2536 40.68 
L 108.204 42.84 
L 108.8952 45 
L 109.3272 47.16 
L 109.5 49.32 
L 109.4136 51.48 
L 109.068 53.64 
L 108.4632 55.8 
L 107.5992 57.96 
L 106.476 60.12 
L 105.0936 62.28 
L 103.452 64.44 
L 101.5512 66.6 
L 100.86 67.32 
L 100.86 67.32 
" clip-path="url(#pef3867d9e9)" style="fill: none; stroke: #000000; stroke-width: 2; stroke-linecap: round"/>
   </g>
   <g id="line2d_7">
    <path d="M 88.26 58.68 
L 107.2536 58.68 
" clip-path="url(#pef3867d9e9)" style="fill: none; stroke: #000000; stroke-width: 2; stroke-linecap: round"/>
   </g>
   <g id="line2d_8">
    <path d="M 88.26 40.68 
L 107.2536 40.68 
" clip-path="url(#pef3867d9e9)" style="fill: none; stroke: #000000; stroke-width: 2; stroke-linecap: round"/>
   </g>
   <g id="line2d_9">
    <path d="M 144.06 49.68 
L 156.66 49.68 
" clip-path="url(#pef3867d9e9)" style="fill: none; stroke: #000000; stroke-width: 2; stroke-linecap: round"/>
   </g>
   <g id="line2d_10">
    <path d="M 54.06 40.68 
L 55.213264 40.643017 
L 56.361789 40.53222 
L 57.500855 40.348065 
L 58.625783 40.091308 
L 59.731948 39.763003 
L 60.814806 39.364502 
L 61.869907 38.89744 
L 62.892916 38.363737 
L 63.879628 37.765586 
L 64.82599 37.105445 
L 65.728111 36.386027 
L 66.582286 35.610288 
L 67.385004 34.781416 
L 68.132967 33.902816 
L 68.823101 32.9781 
L 69.45257 32.011066 
L 70.018788 31.005689 
L 70.519427 29.9661 
L 70.952432 28.896571 
L 71.316021 27.801497 
L 71.608702 26.685377 
L 71.829272 25.552798 
L 71.976824 24.408414 
L 72.050752 23.256928 
L 72.050752 22.103072 
L 71.976824 20.951586 
L 71.829272 19.807202 
L 71.608702 18.674623 
L 71.316021 17.558503 
L 70.952432 16.463429 
L 70.519427 15.3939 
L 70.018788 14.354311 
L 69.45257 13.348934 
L 68.823101 12.3819 
L 68.132967 11.457184 
L 67.385004 10.578584 
L 66.582286 9.749712 
L 65.728111 8.973973 
L 64.82599 8.254555 
L 63.879628 7.594414 
L 62.892916 6.996263 
L 61.869907 6.46256 
L 60.814806 5.995498 
L 59.731948 5.596997 
L 58.625783 5.268692 
L 57.500855 5.011935 
L 56.361789 4.82778 
L 55.213264 4.716983 
L 54.06 4.68 
L 54.06 4.68 
L 30.66 4.68 
L 30.66 22.68 
L 30.66 40.68 
L 54.06 40.68 
" clip-path="url(#pef3867d9e9)" style="fill: none; stroke: #000000; stroke-width: 2; stroke-linecap: round"/>
   </g>
   <g id="line2d_11">
    <path d="M 18.06 31.68 
L 30.66 31.68 
" clip-path="url(#pef3867d9e9)" style="fill: none; stroke: #000000; stroke-width: 2; stroke-linecap: round"/>
   </g>
   <g id="line2d_12">
    <path d="M 18.06 13.68 
L 30.66 13.68 
" clip-path="url(#pef3867d9e9)" style="fill: none; stroke: #000000; stroke-width: 2; stroke-linecap: round"/>
   </g>
   <g id="line2d_13">
    <path d="M 80.7 22.68 
L 84.66 22.68 
" clip-path="url(#pef3867d9e9)" style="fill: none; stroke: #000000; stroke-width: 2; stroke-linecap: round"/>
   </g>
   <g id="line2d_14">
    <path d="M 88.26 40.68 
L 84.66 40.68 
L 84.66 22.68 
" clip-path="url(#pef3867d9e9)" style="fill: none; stroke: #000000; stroke-width: 2; stroke-linecap: round"/>
   </g>
   <g id="line2d_15">
    <path d="M 28.86 94.32 
L 48.402857 94.253878 
L 50.46 93.96 
L 52.517143 93.43102 
L 54.574286 92.666939 
L 56.631429 91.667755 
L 58.688571 90.433469 
L 60.745714 88.964082 
L 62.802857 87.259592 
L 65.374286 84.798367 
L 67.945714 81.969796 
L 70.517143 78.773878 
L 72.06 76.68 
L 72.06 76.68 
L 69.488571 73.263673 
L 66.917143 70.214694 
L 64.345714 67.533061 
L 61.774286 65.218776 
L 59.717143 63.631837 
L 57.66 62.28 
L 55.602857 61.163265 
L 53.545714 60.281633 
L 51.488571 59.635102 
L 49.431429 59.223673 
L 47.374286 59.047347 
L 46.86 59.04 
L 28.86 59.04 
L 28.86 59.04 
L 30.8472 61.2 
L 32.5752 63.36 
L 34.044 65.52 
L 35.2536 67.68 
L 36.204 69.84 
L 36.8952 72 
L 37.3272 74.16 
L 37.5 76.32 
L 37.4136 78.48 
L 37.068 80.64 
L 36.4632 82.8 
L 35.5992 84.96 
L 34.476 87.12 
L 33.0936 89.28 
L 31.452 91.44 
L 29.5512 93.6 
L 28.86 94.32 
L 28.86 94.32 
" clip-path="url(#pef3867d9e9)" style="fill: none; stroke: #000000; stroke-width: 2; stroke-linecap: round"/>
   </g>
   <g id="line2d_16">
    <path d="M 16.26 85.68 
L 35.2536 85.68 
" clip-path="url(#pef3867d9e9)" style="fill: none; stroke: #000000; stroke-width: 2; stroke-linecap: round"/>
   </g>
   <g id="line2d_17">
    <path d="M 16.26 67.68 
L 35.2536 67.68 
" clip-path="url(#pef3867d9e9)" style="fill: none; stroke: #000000; stroke-width: 2; stroke-linecap: round"/>
   </g>
   <g id="line2d_18">
    <path d="M 72.06 76.68 
L 84.66 76.68 
" clip-path="url(#pef3867d9e9)" style="fill: none; stroke: #000000; stroke-width: 2; stroke-linecap: round"/>
   </g>
   <g id="line2d_19">
    <path d="M 88.26 58.68 
L 84.66 58.68 
L 84.66 76.68 
" clip-path="url(#pef3867d9e9)" style="fill: none; stroke: #000000; stroke-width: 2; stroke-linecap: round"/>
   </g>
   <g id="line2d_20">
    <path d="M 160.26 74.43 
L 156.66 74.43 
L 156.66 49.68 
" clip-path="url(#pef3867d9e9)" style="fill: none; stroke: #000000; stroke-width: 2; stroke-linecap: round"/>
   </g>
   <g id="line2d_21">
    <path d="M 100.86 134.82 
L 120.402857 134.753878 
L 122.46 134.46 
L 124.517143 133.93102 
L 126.574286 133.166939 
L 128.631429 132.167755 
L 130.688571 130.933469 
L 132.745714 129.464082 
L 134.802857 127.759592 
L 137.374286 125.298367 
L 139.945714 122.469796 
L 142.517143 119.273878 
L 144.06 117.18 
L 144.06 117.18 
L 141.488571 113.763673 
L 138.917143 110.714694 
L 136.345714 108.033061 
L 133.774286 105.718776 
L 131.717143 104.131837 
L 129.66 102.78 
L 127.602857 101.663265 
L 125.545714 100.781633 
L 123.488571 100.135102 
L 121.431429 99.723673 
L 119.374286 99.547347 
L 118.86 99.54 
L 100.86 99.54 
L 100.86 99.54 
L 102.8472 101.7 
L 104.5752 103.86 
L 106.044 106.02 
L 107.2536 108.18 
L 108.204 110.34 
L 108.8952 112.5 
L 109.3272 114.66 
L 109.5 116.82 
L 109.4136 118.98 
L 109.068 121.14 
L 108.4632 123.3 
L 107.5992 125.46 
L 106.476 127.62 
L 105.0936 129.78 
L 103.452 131.94 
L 101.5512 134.1 
L 100.86 134.82 
L 100.86 134.82 
" clip-path="url(#pef3867d9e9)" style="fill: none; stroke: #000000; stroke-width: 2; stroke-linecap: round"/>
   </g>
   <g id="line2d_22">
    <path d="M 88.26 126.18 
L 107.2536 126.18 
" clip-path="url(#pef3867d9e9)" style="fill: none; stroke: #000000; stroke-width: 2; stroke-linecap: round"/>
   </g>
   <g id="line2d_23">
    <path d="M 88.26 108.18 
L 107.2536 108.18 
" clip-path="url(#pef3867d9e9)" style="fill: none; stroke: #000000; stroke-width: 2; stroke-linecap: round"/>
   </g>
   <g id="line2d_24">
    <path d="M 152.7 117.18 
L 156.66 117.18 
" clip-path="url(#pef3867d9e9)" style="fill: none; stroke: #000000; stroke-width: 2; stroke-linecap: round"/>
   </g>
   <g id="line2d_25">
    <path d="M 160.26 92.43 
L 156.66 92.43 
L 156.66 117.18 
" clip-path="url(#pef3867d9e9)" style="fill: none; stroke: #000000; stroke-width: 2; stroke-linecap: round"/>
   </g>
   <g id="text_1">
    <!-- $\text{Output}$ -->
    <g transform="translate(232.26 87.264688) scale(0.14 -0.14)">
     <defs>
      <path id="DejaVuSans-4f" d="M 2522 4238 
Q 1834 4238 1429 3725 
Q 1025 3213 1025 2328 
Q 1025 1447 1429 934 
Q 1834 422 2522 422 
Q 3209 422 3611 934 
Q 4013 1447 4013 2328 
Q 4013 3213 3611 3725 
Q 3209 4238 2522 4238 
z
M 2522 4750 
Q 3503 4750 4090 4092 
Q 4678 3434 4678 2328 
Q 4678 1225 4090 567 
Q 3503 -91 2522 -91 
Q 1538 -91 948 565 
Q 359 1222 359 2328 
Q 359 3434 948 4092 
Q 1538 4750 2522 4750 
z
" transform="scale(0.015625)"/>
      <path id="DejaVuSans-75" d="M 544 1381 
L 544 3500 
L 1119 3500 
L 1119 1403 
Q 1119 906 1312 657 
Q 1506 409 1894 409 
Q 2359 409 2629 706 
Q 2900 1003 2900 1516 
L 2900 3500 
L 3475 3500 
L 3475 0 
L 2900 0 
L 2900 538 
Q 2691 219 2414 64 
Q 2138 -91 1772 -91 
Q 1169 -91 856 284 
Q 544 659 544 1381 
z
M 1991 3584 
L 1991 3584 
z
" transform="scale(0.015625)"/>
      <path id="DejaVuSans-74" d="M 1172 4494 
L 1172 3500 
L 2356 3500 
L 2356 3053 
L 1172 3053 
L 1172 1153 
Q 1172 725 1289 603 
Q 1406 481 1766 481 
L 2356 481 
L 2356 0 
L 1766 0 
Q 1100 0 847 248 
Q 594 497 594 1153 
L 594 3053 
L 172 3053 
L 172 3500 
L 594 3500 
L 594 4494 
L 1172 4494 
z
" transform="scale(0.015625)"/>
      <path id="DejaVuSans-70" d="M 1159 525 
L 1159 -1331 
L 581 -1331 
L 581 3500 
L 1159 3500 
L 1159 2969 
Q 1341 3281 1617 3432 
Q 1894 3584 2278 3584 
Q 2916 3584 3314 3078 
Q 3713 2572 3713 1747 
Q 3713 922 3314 415 
Q 2916 -91 2278 -91 
Q 1894 -91 1617 61 
Q 1341 213 1159 525 
z
M 3116 1747 
Q 3116 2381 2855 2742 
Q 2594 3103 2138 3103 
Q 1681 3103 1420 2742 
Q 1159 2381 1159 1747 
Q 1159 1113 1420 752 
Q 1681 391 2138 391 
Q 2594 391 2855 752 
Q 3116 1113 3116 1747 
z
" transform="scale(0.015625)"/>
     </defs>
     <use xlink:href="#DejaVuSans-4f" transform="translate(0 0.78125)"/>
     <use xlink:href="#DejaVuSans-75" transform="translate(78.710938 0.78125)"/>
     <use xlink:href="#DejaVuSans-74" transform="translate(142.089844 0.78125)"/>
     <use xlink:href="#DejaVuSans-70" transform="translate(181.298828 0.78125)"/>
     <use xlink:href="#DejaVuSans-75" transform="translate(244.775391 0.78125)"/>
     <use xlink:href="#DejaVuSans-74" transform="translate(308.154297 0.78125)"/>
    </g>
   </g>
   <g id="text_2">
    <!-- a -->
    <g transform="translate(5.880625 17.543125) scale(0.14 -0.14)">
     <defs>
      <path id="DejaVuSans-61" d="M 2194 1759 
Q 1497 1759 1228 1600 
Q 959 1441 959 1056 
Q 959 750 1161 570 
Q 1363 391 1709 391 
Q 2188 391 2477 730 
Q 2766 1069 2766 1631 
L 2766 1759 
L 2194 1759 
z
M 3341 1997 
L 3341 0 
L 2766 0 
L 2766 531 
Q 2569 213 2275 61 
Q 1981 -91 1556 -91 
Q 1019 -91 701 211 
Q 384 513 384 1019 
Q 384 1609 779 1909 
Q 1175 2209 1959 2209 
L 2766 2209 
L 2766 2266 
Q 2766 2663 2505 2880 
Q 2244 3097 1772 3097 
Q 1472 3097 1187 3025 
Q 903 2953 641 2809 
L 641 3341 
Q 956 3463 1253 3523 
Q 1550 3584 1831 3584 
Q 2591 3584 2966 3190 
Q 3341 2797 3341 1997 
z
" transform="scale(0.015625)"/>
     </defs>
     <use xlink:href="#DejaVuSans-61"/>
    </g>
   </g>
   <g id="text_3">
    <!-- a -->
    <g transform="translate(5.880625 35.543125) scale(0.14 -0.14)">
     <use xlink:href="#DejaVuSans-61"/>
    </g>
   </g>
   <g id="text_4">
    <!-- a -->
    <g transform="translate(4.080625 71.543125) scale(0.14 -0.14)">
     <use xlink:href="#DejaVuSans-61"/>
    </g>
   </g>
   <g id="text_5">
    <!-- a -->
    <g transform="translate(4.080625 89.543125) scale(0.14 -0.14)">
     <use xlink:href="#DejaVuSans-61"/>
    </g>
   </g>
   <g id="text_6">
    <!-- a -->
    <g transform="translate(76.080625 112.043125) scale(0.14 -0.14)">
     <use xlink:href="#DejaVuSans-61"/>
    </g>
   </g>
   <g id="text_7">
    <!-- a -->
    <g transform="translate(76.080625 130.043125) scale(0.14 -0.14)">
     <use xlink:href="#DejaVuSans-61"/>
    </g>
   </g>
  </g>
 </g>
 <defs>
  <clipPath id="pef3867d9e9">
   <rect x="0" y="0" width="318.84" height="139.5"/>
  </clipPath>
 </defs>
</svg>
