<?xml version="1.0" encoding="utf-8" standalone="no"?>
<!DOCTYPE svg PUBLIC "-//W3C//DTD SVG 1.1//EN"
  "http://www.w3.org/Graphics/SVG/1.1/DTD/svg11.dtd">
<svg xmlns:xlink="http://www.w3.org/1999/xlink" width="318.84pt" height="139.5pt" viewBox="0 0 318.84 139.5" xmlns="http://www.w3.org/2000/svg" version="1.1">
 <metadata>
  <rdf:RDF xmlns:dc="http://purl.org/dc/elements/1.1/" xmlns:cc="http://creativecommons.org/ns#" xmlns:rdf="http://www.w3.org/1999/02/22-rdf-syntax-ns#">
   <cc:Work>
    <dc:type rdf:resource="http://purl.org/dc/dcmitype/StillImage"/>
    <dc:date>2024-10-01T14:00:02.774121</dc:date>
    <dc:format>image/svg+xml</dc:format>
    <dc:creator>
     <cc:Agent>
      <dc:title>Matplotlib v3.9.0, https://matplotlib.org/</dc:title>
     </cc:Agent>
    </dc:creator>
   </cc:Work>
  </rdf:RDF>
 </metadata>
 <defs>
  <style type="text/css">*{stroke-linejoin: round; stroke-linecap: butt}</style>
 </defs>
 <g id="figure_1">
  <g id="patch_1">
   <path d="M 0 139.5 
L 318.84 139.5 
L 318.84 0 
L 0 0 
L 0 139.5 
z
" style="fill: none"/>
  </g>
  <g id="axes_1">
   <g id="patch_2">
    <path d="M 220.38 87.75 
C 221.525677 87.75 222.624585 87.294818 223.434701 86.484701 
C 224.244818 85.674585 224.7 84.575677 224.7 83.43 
C 224.7 82.284323 224.244818 81.185415 223.434701 80.375299 
C 222.624585 79.565182 221.525677 79.11 220.38 79.11 
C 219.234323 79.11 218.135415 79.565182 217.325299 80.375299 
C 216.515182 81.185415 216.06 82.284323 216.06 83.43 
C 216.06 84.575677 216.515182 85.674585 217.325299 86.484701 
C 218.135415 87.294818 219.234323 87.75 220.38 87.75 
L 220.38 87.75 
z
" clip-path="url(#pf2651deac9)" style="fill: none; stroke: #000000; stroke-width: 2; stroke-linejoin: miter"/>
   </g>
   <g id="patch_3">
    <path d="M 76.38 81 
C 77.525677 81 78.624585 80.544818 79.434701 79.734701 
C 80.244818 78.924585 80.7 77.825677 80.7 76.68 
C 80.7 75.534323 80.244818 74.435415 79.434701 73.625299 
C 78.624585 72.815182 77.525677 72.36 76.38 72.36 
C 75.234323 72.36 74.135415 72.815182 73.325299 73.625299 
C 72.515182 74.435415 72.06 75.534323 72.06 76.68 
C 72.06 77.825677 72.515182 78.924585 73.325299 79.734701 
C 74.135415 80.544818 75.234323 81 76.38 81 
L 76.38 81 
z
" clip-path="url(#pf2651deac9)" style="fill: none; stroke: #000000; stroke-width: 2; stroke-linejoin: miter"/>
   </g>
   <g id="line2d_1">
    <path d="M 198.06 101.43 
L 199.213264 101.393017 
L 200.361789 101.28222 
L 201.500855 101.098065 
L 202.625783 100.841308 
L 203.731948 100.513003 
L 204.814806 100.114502 
L 205.869907 99.64744 
L 206.892916 99.113737 
L 207.879628 98.515586 
L 208.82599 97.855445 
L 209.728111 97.136027 
L 210.582286 96.360288 
L 211.385004 95.531416 
L 212.132967 94.652816 
L 212.823101 93.7281 
L 213.45257 92.761066 
L 214.018788 91.755689 
L 214.519427 90.7161 
L 214.952432 89.646571 
L 215.316021 88.551497 
L 215.608702 87.435377 
L 215.829272 86.302798 
L 215.976824 85.158414 
L 216.050752 84.006928 
L 216.050752 82.853072 
L 215.976824 81.701586 
L 215.829272 80.557202 
L 215.608702 79.424623 
L 215.316021 78.308503 
L 214.952432 77.213429 
L 214.519427 76.1439 
L 214.018788 75.104311 
L 213.45257 74.098934 
L 212.823101 73.1319 
L 212.132967 72.207184 
L 211.385004 71.328584 
L 210.582286 70.499712 
L 209.728111 69.723973 
L 208.82599 69.004555 
L 207.879628 68.344414 
L 206.892916 67.746263 
L 205.869907 67.21256 
L 204.814806 66.745498 
L 203.731948 66.346997 
L 202.625783 66.018692 
L 201.500855 65.761935 
L 200.361789 65.57778 
L 199.213264 65.466983 
L 198.06 65.43 
L 198.06 65.43 
L 174.66 65.43 
L 174.66 83.43 
L 174.66 101.43 
L 198.06 101.43 
" clip-path="url(#pf2651deac9)" style="fill: none; stroke: #000000; stroke-width: 2; stroke-linecap: round"/>
   </g>
   <g id="line2d_2">
    <path d="M 162.06 92.43 
L 174.66 92.43 
" clip-path="url(#pf2651deac9)" style="fill: none; stroke: #000000; stroke-width: 2; stroke-linecap: round"/>
   </g>
   <g id="line2d_3">
    <path d="M 162.06 74.43 
L 174.66 74.43 
" clip-path="url(#pf2651deac9)" style="fill: none; stroke: #000000; stroke-width: 2; stroke-linecap: round"/>
   </g>
   <g id="line2d_4">
    <path d="M 224.7 83.43 
L 228.66 83.43 
" clip-path="url(#pf2651deac9)" style="fill: none; stroke: #000000; stroke-width: 2; stroke-linecap: round"/>
   </g>
   <g id="line2d_5">
    <path d="M 126.06 67.68 
L 127.213264 67.643017 
L 128.361789 67.53222 
L 129.500855 67.348065 
L 130.625783 67.091308 
L 131.731948 66.763003 
L 132.814806 66.364502 
L 133.869907 65.89744 
L 134.892916 65.363737 
L 135.879628 64.765586 
L 136.82599 64.105445 
L 137.728111 63.386027 
L 138.582286 62.610288 
L 139.385004 61.781416 
L 140.132967 60.902816 
L 140.823101 59.9781 
L 141.45257 59.011066 
L 142.018788 58.005689 
L 142.519427 56.9661 
L 142.952432 55.896571 
L 143.316021 54.801497 
L 143.608702 53.685377 
L 143.829272 52.552798 
L 143.976824 51.408414 
L 144.050752 50.256928 
L 144.050752 49.103072 
L 143.976824 47.951586 
L 143.829272 46.807202 
L 143.608702 45.674623 
L 143.316021 44.558503 
L 142.952432 43.463429 
L 142.519427 42.3939 
L 142.018788 41.354311 
L 141.45257 40.348934 
L 140.823101 39.3819 
L 140.132967 38.457184 
L 139.385004 37.578584 
L 138.582286 36.749712 
L 137.728111 35.973973 
L 136.82599 35.254555 
L 135.879628 34.594414 
L 134.892916 33.996263 
L 133.869907 33.46256 
L 132.814806 32.995498 
L 131.731948 32.596997 
L 130.625783 32.268692 
L 129.500855 32.011935 
L 128.361789 31.82778 
L 127.213264 31.716983 
L 126.06 31.68 
L 126.06 31.68 
L 102.66 31.68 
L 102.66 49.68 
L 102.66 67.68 
L 126.06 67.68 
" clip-path="url(#pf2651deac9)" style="fill: none; stroke: #000000; stroke-width: 2; stroke-linecap: round"/>
   </g>
   <g id="line2d_6">
    <path d="M 90.06 58.68 
L 102.66 58.68 
" clip-path="url(#pf2651deac9)" style="fill: none; stroke: #000000; stroke-width: 2; stroke-linecap: round"/>
   </g>
   <g id="line2d_7">
    <path d="M 90.06 40.68 
L 102.66 40.68 
" clip-path="url(#pf2651deac9)" style="fill: none; stroke: #000000; stroke-width: 2; stroke-linecap: round"/>
   </g>
   <g id="line2d_8">
    <path d="M 144.06 49.68 
L 156.66 49.68 
" clip-path="url(#pf2651deac9)" style="fill: none; stroke: #000000; stroke-width: 2; stroke-linecap: round"/>
   </g>
   <g id="line2d_9">
    <path d="M 54.06 40.68 
L 55.213264 40.643017 
L 56.361789 40.53222 
L 57.500855 40.348065 
L 58.625783 40.091308 
L 59.731948 39.763003 
L 60.814806 39.364502 
L 61.869907 38.89744 
L 62.892916 38.363737 
L 63.879628 37.765586 
L 64.82599 37.105445 
L 65.728111 36.386027 
L 66.582286 35.610288 
L 67.385004 34.781416 
L 68.132967 33.902816 
L 68.823101 32.9781 
L 69.45257 32.011066 
L 70.018788 31.005689 
L 70.519427 29.9661 
L 70.952432 28.896571 
L 71.316021 27.801497 
L 71.608702 26.685377 
L 71.829272 25.552798 
L 71.976824 24.408414 
L 72.050752 23.256928 
L 72.050752 22.103072 
L 71.976824 20.951586 
L 71.829272 19.807202 
L 71.608702 18.674623 
L 71.316021 17.558503 
L 70.952432 16.463429 
L 70.519427 15.3939 
L 70.018788 14.354311 
L 69.45257 13.348934 
L 68.823101 12.3819 
L 68.132967 11.457184 
L 67.385004 10.578584 
L 66.582286 9.749712 
L 65.728111 8.973973 
L 64.82599 8.254555 
L 63.879628 7.594414 
L 62.892916 6.996263 
L 61.869907 6.46256 
L 60.814806 5.995498 
L 59.731948 5.596997 
L 58.625783 5.268692 
L 57.500855 5.011935 
L 56.361789 4.82778 
L 55.213264 4.716983 
L 54.06 4.68 
L 54.06 4.68 
L 30.66 4.68 
L 30.66 22.68 
L 30.66 40.68 
L 54.06 40.68 
" clip-path="url(#pf2651deac9)" style="fill: none; stroke: #000000; stroke-width: 2; stroke-linecap: round"/>
   </g>
   <g id="line2d_10">
    <path d="M 18.06 31.68 
L 30.66 31.68 
" clip-path="url(#pf2651deac9)" style="fill: none; stroke: #000000; stroke-width: 2; stroke-linecap: round"/>
   </g>
   <g id="line2d_11">
    <path d="M 18.06 13.68 
L 30.66 13.68 
" clip-path="url(#pf2651deac9)" style="fill: none; stroke: #000000; stroke-width: 2; stroke-linecap: round"/>
   </g>
   <g id="line2d_12">
    <path d="M 72.06 22.68 
L 84.66 22.68 
" clip-path="url(#pf2651deac9)" style="fill: none; stroke: #000000; stroke-width: 2; stroke-linecap: round"/>
   </g>
   <g id="line2d_13">
    <path d="M 90.06 40.68 
L 84.66 40.68 
L 84.66 22.68 
" clip-path="url(#pf2651deac9)" style="fill: none; stroke: #000000; stroke-width: 2; stroke-linecap: round"/>
   </g>
   <g id="line2d_14">
    <path d="M 28.86 94.32 
L 48.402857 94.253878 
L 50.46 93.96 
L 52.517143 93.43102 
L 54.574286 92.666939 
L 56.631429 91.667755 
L 58.688571 90.433469 
L 60.745714 88.964082 
L 62.802857 87.259592 
L 65.374286 84.798367 
L 67.945714 81.969796 
L 70.517143 78.773878 
L 72.06 76.68 
L 72.06 76.68 
L 69.488571 73.263673 
L 66.917143 70.214694 
L 64.345714 67.533061 
L 61.774286 65.218776 
L 59.717143 63.631837 
L 57.66 62.28 
L 55.602857 61.163265 
L 53.545714 60.281633 
L 51.488571 59.635102 
L 49.431429 59.223673 
L 47.374286 59.047347 
L 46.86 59.04 
L 28.86 59.04 
L 28.86 59.04 
L 30.8472 61.2 
L 32.5752 63.36 
L 34.044 65.52 
L 35.2536 67.68 
L 36.204 69.84 
L 36.8952 72 
L 37.3272 74.16 
L 37.5 76.32 
L 37.4136 78.48 
L 37.068 80.64 
L 36.4632 82.8 
L 35.5992 84.96 
L 34.476 87.12 
L 33.0936 89.28 
L 31.452 91.44 
L 29.5512 93.6 
L 28.86 94.32 
L 28.86 94.32 
" clip-path="url(#pf2651deac9)" style="fill: none; stroke: #000000; stroke-width: 2; stroke-linecap: round"/>
   </g>
   <g id="line2d_15">
    <path d="M 23.46 94.32 
L 24.1512 93.6 
L 24.8136 92.88 
L 25.4472 92.16 
L 26.052 91.44 
L 26.628 90.72 
L 27.1752 90 
L 27.6936 89.28 
L 28.1832 88.56 
L 28.644 87.84 
L 29.076 87.12 
L 29.4792 86.4 
L 29.8536 85.68 
L 30.1992 84.96 
L 30.516 84.24 
L 30.804 83.52 
L 31.0632 82.8 
L 31.2936 82.08 
L 31.4952 81.36 
L 31.668 80.64 
L 31.812 79.92 
L 31.9272 79.2 
L 32.0136 78.48 
L 32.0712 77.76 
L 32.1 77.04 
L 32.1 76.32 
L 32.0712 75.6 
L 32.0136 74.88 
L 31.9272 74.16 
L 31.812 73.44 
L 31.668 72.72 
L 31.4952 72 
L 31.2936 71.28 
L 31.0632 70.56 
L 30.804 69.84 
L 30.516 69.12 
L 30.1992 68.4 
L 29.8536 67.68 
L 29.4792 66.96 
L 29.076 66.24 
L 28.644 65.52 
L 28.1832 64.8 
L 27.6936 64.08 
L 27.1752 63.36 
L 26.628 62.64 
L 26.052 61.92 
L 25.4472 61.2 
L 24.8136 60.48 
L 24.1512 59.76 
L 23.46 59.04 
" clip-path="url(#pf2651deac9)" style="fill: none; stroke: #000000; stroke-width: 2; stroke-linecap: round"/>
   </g>
   <g id="line2d_16">
    <path d="M 16.26 85.68 
L 29.8536 85.68 
" clip-path="url(#pf2651deac9)" style="fill: none; stroke: #000000; stroke-width: 2; stroke-linecap: round"/>
   </g>
   <g id="line2d_17">
    <path d="M 16.26 67.68 
L 29.8536 67.68 
" clip-path="url(#pf2651deac9)" style="fill: none; stroke: #000000; stroke-width: 2; stroke-linecap: round"/>
   </g>
   <g id="line2d_18">
    <path d="M 80.7 76.68 
L 84.66 76.68 
" clip-path="url(#pf2651deac9)" style="fill: none; stroke: #000000; stroke-width: 2; stroke-linecap: round"/>
   </g>
   <g id="line2d_19">
    <path d="M 90.06 58.68 
L 84.66 58.68 
L 84.66 76.68 
" clip-path="url(#pf2651deac9)" style="fill: none; stroke: #000000; stroke-width: 2; stroke-linecap: round"/>
   </g>
   <g id="line2d_20">
    <path d="M 162.06 74.43 
L 156.66 74.43 
L 156.66 49.68 
" clip-path="url(#pf2651deac9)" style="fill: none; stroke: #000000; stroke-width: 2; stroke-linecap: round"/>
   </g>
   <g id="line2d_21">
    <path d="M 100.86 134.82 
L 120.402857 134.753878 
L 122.46 134.46 
L 124.517143 133.93102 
L 126.574286 133.166939 
L 128.631429 132.167755 
L 130.688571 130.933469 
L 132.745714 129.464082 
L 134.802857 127.759592 
L 137.374286 125.298367 
L 139.945714 122.469796 
L 142.517143 119.273878 
L 144.06 117.18 
L 144.06 117.18 
L 141.488571 113.763673 
L 138.917143 110.714694 
L 136.345714 108.033061 
L 133.774286 105.718776 
L 131.717143 104.131837 
L 129.66 102.78 
L 127.602857 101.663265 
L 125.545714 100.781633 
L 123.488571 100.135102 
L 121.431429 99.723673 
L 119.374286 99.547347 
L 118.86 99.54 
L 100.86 99.54 
L 100.86 99.54 
L 102.8472 101.7 
L 104.5752 103.86 
L 106.044 106.02 
L 107.2536 108.18 
L 108.204 110.34 
L 108.8952 112.5 
L 109.3272 114.66 
L 109.5 116.82 
L 109.4136 118.98 
L 109.068 121.14 
L 108.4632 123.3 
L 107.5992 125.46 
L 106.476 127.62 
L 105.0936 129.78 
L 103.452 131.94 
L 101.5512 134.1 
L 100.86 134.82 
L 100.86 134.82 
" clip-path="url(#pf2651deac9)" style="fill: none; stroke: #000000; stroke-width: 2; stroke-linecap: round"/>
   </g>
   <g id="line2d_22">
    <path d="M 95.46 134.82 
L 96.1512 134.1 
L 96.8136 133.38 
L 97.4472 132.66 
L 98.052 131.94 
L 98.628 131.22 
L 99.1752 130.5 
L 99.6936 129.78 
L 100.1832 129.06 
L 100.644 128.34 
L 101.076 127.62 
L 101.4792 126.9 
L 101.8536 126.18 
L 102.1992 125.46 
L 102.516 124.74 
L 102.804 124.02 
L 103.0632 123.3 
L 103.2936 122.58 
L 103.4952 121.86 
L 103.668 121.14 
L 103.812 120.42 
L 103.9272 119.7 
L 104.0136 118.98 
L 104.0712 118.26 
L 104.1 117.54 
L 104.1 116.82 
L 104.0712 116.1 
L 104.0136 115.38 
L 103.9272 114.66 
L 103.812 113.94 
L 103.668 113.22 
L 103.4952 112.5 
L 103.2936 111.78 
L 103.0632 111.06 
L 102.804 110.34 
L 102.516 109.62 
L 102.1992 108.9 
L 101.8536 108.18 
L 101.4792 107.46 
L 101.076 106.74 
L 100.644 106.02 
L 100.1832 105.3 
L 99.6936 104.58 
L 99.1752 103.86 
L 98.628 103.14 
L 98.052 102.42 
L 97.4472 101.7 
L 96.8136 100.98 
L 96.1512 100.26 
L 95.46 99.54 
" clip-path="url(#pf2651deac9)" style="fill: none; stroke: #000000; stroke-width: 2; stroke-linecap: round"/>
   </g>
   <g id="line2d_23">
    <path d="M 88.26 126.18 
L 101.8536 126.18 
" clip-path="url(#pf2651deac9)" style="fill: none; stroke: #000000; stroke-width: 2; stroke-linecap: round"/>
   </g>
   <g id="line2d_24">
    <path d="M 88.26 108.18 
L 101.8536 108.18 
" clip-path="url(#pf2651deac9)" style="fill: none; stroke: #000000; stroke-width: 2; stroke-linecap: round"/>
   </g>
   <g id="line2d_25">
    <path d="M 144.06 117.18 
L 156.66 117.18 
" clip-path="url(#pf2651deac9)" style="fill: none; stroke: #000000; stroke-width: 2; stroke-linecap: round"/>
   </g>
   <g id="line2d_26">
    <path d="M 162.06 92.43 
L 156.66 92.43 
L 156.66 117.18 
" clip-path="url(#pf2651deac9)" style="fill: none; stroke: #000000; stroke-width: 2; stroke-linecap: round"/>
   </g>
   <g id="text_1">
    <!-- $\text{Output}$ -->
    <g transform="translate(232.26 87.264688) scale(0.14 -0.14)">
     <defs>
      <path id="DejaVuSans-4f" d="M 2522 4238 
Q 1834 4238 1429 3725 
Q 1025 3213 1025 2328 
Q 1025 1447 1429 934 
Q 1834 422 2522 422 
Q 3209 422 3611 934 
Q 4013 1447 4013 2328 
Q 4013 3213 3611 3725 
Q 3209 4238 2522 4238 
z
M 2522 4750 
Q 3503 4750 4090 4092 
Q 4678 3434 4678 2328 
Q 4678 1225 4090 567 
Q 3503 -91 2522 -91 
Q 1538 -91 948 565 
Q 359 1222 359 2328 
Q 359 3434 948 4092 
Q 1538 4750 2522 4750 
z
" transform="scale(0.015625)"/>
      <path id="DejaVuSans-75" d="M 544 1381 
L 544 3500 
L 1119 3500 
L 1119 1403 
Q 1119 906 1312 657 
Q 1506 409 1894 409 
Q 2359 409 2629 706 
Q 2900 1003 2900 1516 
L 2900 3500 
L 3475 3500 
L 3475 0 
L 2900 0 
L 2900 538 
Q 2691 219 2414 64 
Q 2138 -91 1772 -91 
Q 1169 -91 856 284 
Q 544 659 544 1381 
z
M 1991 3584 
L 1991 3584 
z
" transform="scale(0.015625)"/>
      <path id="DejaVuSans-74" d="M 1172 4494 
L 1172 3500 
L 2356 3500 
L 2356 3053 
L 1172 3053 
L 1172 1153 
Q 1172 725 1289 603 
Q 1406 481 1766 481 
L 2356 481 
L 2356 0 
L 1766 0 
Q 1100 0 847 248 
Q 594 497 594 1153 
L 594 3053 
L 172 3053 
L 172 3500 
L 594 3500 
L 594 4494 
L 1172 4494 
z
" transform="scale(0.015625)"/>
      <path id="DejaVuSans-70" d="M 1159 525 
L 1159 -1331 
L 581 -1331 
L 581 3500 
L 1159 3500 
L 1159 2969 
Q 1341 3281 1617 3432 
Q 1894 3584 2278 3584 
Q 2916 3584 3314 3078 
Q 3713 2572 3713 1747 
Q 3713 922 3314 415 
Q 2916 -91 2278 -91 
Q 1894 -91 1617 61 
Q 1341 213 1159 525 
z
M 3116 1747 
Q 3116 2381 2855 2742 
Q 2594 3103 2138 3103 
Q 1681 3103 1420 2742 
Q 1159 2381 1159 1747 
Q 1159 1113 1420 752 
Q 1681 391 2138 391 
Q 2594 391 2855 752 
Q 3116 1113 3116 1747 
z
" transform="scale(0.015625)"/>
     </defs>
     <use xlink:href="#DejaVuSans-4f" transform="translate(0 0.78125)"/>
     <use xlink:href="#DejaVuSans-75" transform="translate(78.710938 0.78125)"/>
     <use xlink:href="#DejaVuSans-74" transform="translate(142.089844 0.78125)"/>
     <use xlink:href="#DejaVuSans-70" transform="translate(181.298828 0.78125)"/>
     <use xlink:href="#DejaVuSans-75" transform="translate(244.775391 0.78125)"/>
     <use xlink:href="#DejaVuSans-74" transform="translate(308.154297 0.78125)"/>
    </g>
   </g>
   <g id="text_2">
    <!-- a -->
    <g transform="translate(5.880625 17.543125) scale(0.14 -0.14)">
     <defs>
      <path id="DejaVuSans-61" d="M 2194 1759 
Q 1497 1759 1228 1600 
Q 959 1441 959 1056 
Q 959 750 1161 570 
Q 1363 391 1709 391 
Q 2188 391 2477 730 
Q 2766 1069 2766 1631 
L 2766 1759 
L 2194 1759 
z
M 3341 1997 
L 3341 0 
L 2766 0 
L 2766 531 
Q 2569 213 2275 61 
Q 1981 -91 1556 -91 
Q 1019 -91 701 211 
Q 384 513 384 1019 
Q 384 1609 779 1909 
Q 1175 2209 1959 2209 
L 2766 2209 
L 2766 2266 
Q 2766 2663 2505 2880 
Q 2244 3097 1772 3097 
Q 1472 3097 1187 3025 
Q 903 2953 641 2809 
L 641 3341 
Q 956 3463 1253 3523 
Q 1550 3584 1831 3584 
Q 2591 3584 2966 3190 
Q 3341 2797 3341 1997 
z
" transform="scale(0.015625)"/>
     </defs>
     <use xlink:href="#DejaVuSans-61"/>
    </g>
   </g>
   <g id="text_3">
    <!-- a -->
    <g transform="translate(5.880625 35.543125) scale(0.14 -0.14)">
     <use xlink:href="#DejaVuSans-61"/>
    </g>
   </g>
   <g id="text_4">
    <!-- a -->
    <g transform="translate(4.080625 71.543125) scale(0.14 -0.14)">
     <use xlink:href="#DejaVuSans-61"/>
    </g>
   </g>
   <g id="text_5">
    <!-- a -->
    <g transform="translate(4.080625 89.543125) scale(0.14 -0.14)">
     <use xlink:href="#DejaVuSans-61"/>
    </g>
   </g>
   <g id="text_6">
    <!-- a -->
    <g transform="translate(76.080625 112.043125) scale(0.14 -0.14)">
     <use xlink:href="#DejaVuSans-61"/>
    </g>
   </g>
   <g id="text_7">
    <!-- a -->
    <g transform="translate(76.080625 130.043125) scale(0.14 -0.14)">
     <use xlink:href="#DejaVuSans-61"/>
    </g>
   </g>
  </g>
 </g>
 <defs>
  <clipPath id="pf2651deac9">
   <rect x="0" y="0" width="318.84" height="139.5"/>
  </clipPath>
 </defs>
</svg>
