<svg xmlns="http://www.w3.org/2000/svg" xml:lang="en" height="45.2pt" width="238.70000000000005pt" viewBox="-148.60000000000002 -22.6 238.70000000000005 45.2"><circle cx="-96.3" cy="-0.0" r="4.32" style="stroke:black;fill:none;stroke-width:2.0;" /><path d="M -30.6,18.0 L -29.446736040347172,17.963017069506055 L -28.298211089678894,17.85222024881843 L -27.1591446833753,17.668064825839174 L -26.03421748962887,17.41130753470253 L -24.928052075574826,17.083003446192034 L -23.84519391217127,16.68450163222839 L -22.790092695883956,16.217439622243546 L -21.767084063929126,15.68373667422101 L -20.780371778210124,15.085585888053133 L -19.83401045115812,14.42544519362322 L -18.931888884459806,13.70602725064442 L -18.077714089137253,12.930288301759097 L -17.274996052644326,12.101416024703703 L -16.527033315575473,11.222816433457202 L -15.83689941725479,10.298099882199054 L -15.207430265903778,9.331066229589451 L -14.641212485286,8.325689224335036 L -14.140572785715374,7.286100176203091 L -13.70756840310431,6.2165709795835395 L -13.343978645340105,5.121496559358587 L -13.05129758072718,4.005376811213659 L -12.830727898539898,2.8727981106008262 L -12.683175966914435,1.7284144663382728 L -12.609248108387625,0.5769283962897949 L -12.609248108387625,-0.5769283962897909 L -12.683175966914435,-1.728414466338269 L -12.830727898539898,-2.8727981106008227 L -13.05129758072718,-4.005376811213659 L -13.343978645340105,-5.121496559358583 L -13.70756840310431,-6.216570979583536 L -14.140572785715374,-7.286100176203087 L -14.641212485286,-8.325689224335033 L -15.207430265903778,-9.331066229589451 L -15.83689941725479,-10.29809988219905 L -16.527033315575473,-11.222816433457202 L -17.274996052644326,-12.101416024703699 L -18.077714089137245,-12.930288301759095 L -18.931888884459806,-13.706027250644416 L -19.834010451158107,-14.425445193623219 L -20.780371778210124,-15.085585888053128 L -21.767084063929126,-15.683736674221008 L -22.790092695883956,-16.217439622243546 L -23.84519391217127,-16.68450163222839 L -24.928052075574826,-17.083003446192034 L -26.03421748962887,-17.411307534702527 L -27.1591446833753,-17.668064825839174 L -28.298211089678887,-17.85222024881843 L -29.446736040347165,-17.963017069506055 L -30.6,-18.0 L -30.6,-18.0 L -54.0,-18.0 L -54.0,-0.0 L -54.0,18.0 L -30.6,18.0" style="stroke:black;fill:none;stroke-width:2.0;stroke-linecap:round;stroke-linejoin:round;" /><path d="M -66.60000000000001,-0.0 L -54.0,-0.0" style="stroke:black;fill:none;stroke-width:2.0;stroke-linecap:round;stroke-linejoin:round;" /><path d="M -12.600000000000003,-0.0 L 0.0,-0.0" style="stroke:black;fill:none;stroke-width:2.0;stroke-linecap:round;stroke-linejoin:round;" /><path d="M -144.0,-0.0 L -124.02,-0.0 M -91.97999999999999,-0.0 L -72.0,-0.0" style="stroke:black;fill:none;stroke-width:2.0;stroke-linecap:round;stroke-linejoin:round;" /><path d="M -124.02,-18.0 L -100.62,-0.0 L -124.02,18.0 L -124.02,-18.0" style="stroke:black;fill:none;stroke-width:2.0;stroke-linecap:round;stroke-linejoin:round;" /><path d="M -66.60000000000001,-0.0 L -72.0,-0.0 L -72.0,-0.0" style="stroke:black;fill:none;stroke-width:2;stroke-linecap:round;stroke-linejoin:round;" /><text x="3.600000000000003" y="-5.6000000000000005" fill="black" font-size="14.0" font-family="sans" text-anchor="start"><tspan x="3.600000000000003" dy="14.0">\text{Output}</tspan></text></svg>