<svg xmlns="http://www.w3.org/2000/svg" xml:lang="en" height="206.84pt" width="318.68pt" viewBox="-228.57999999999998 -8.740000000000004 318.68 206.84"><circle cx="-80.28" cy="148.5" r="4.32" style="stroke:black;fill:none;stroke-width:2.0;" /><circle cx="-152.28000000000003" cy="121.5" r="4.32" style="stroke:black;fill:none;stroke-width:2.0;" /><path d="M -30.6,112.5 L -29.446736040347172,112.46301706950607 L -28.298211089678894,112.35222024881844 L -27.1591446833753,112.16806482583918 L -26.03421748962887,111.91130753470253 L -24.928052075574826,111.58300344619204 L -23.84519391217127,111.18450163222839 L -22.790092695883956,110.71743962224355 L -21.767084063929126,110.18373667422101 L -20.780371778210124,109.58558588805313 L -19.83401045115812,108.92544519362322 L -18.931888884459806,108.20602725064442 L -18.077714089137253,107.43028830175909 L -17.274996052644326,106.60141602470371 L -16.527033315575473,105.7228164334572 L -15.83689941725479,104.79809988219905 L -15.207430265903778,103.83106622958945 L -14.641212485286,102.82568922433504 L -14.140572785715374,101.78610017620309 L -13.70756840310431,100.71657097958354 L -13.343978645340105,99.62149655935858 L -13.05129758072718,98.50537681121367 L -12.830727898539898,97.37279811060083 L -12.683175966914435,96.22841446633828 L -12.609248108387625,95.0769283962898 L -12.609248108387625,93.9230716037102 L -12.683175966914435,92.77158553366172 L -12.830727898539898,91.62720188939917 L -13.05129758072718,90.49462318878633 L -13.343978645340105,89.37850344064142 L -13.70756840310431,88.28342902041646 L -14.140572785715374,87.21389982379691 L -14.641212485286,86.17431077566496 L -15.207430265903778,85.16893377041055 L -15.83689941725479,84.20190011780095 L -16.527033315575473,83.2771835665428 L -17.274996052644326,82.39858397529629 L -18.077714089137245,81.56971169824091 L -18.931888884459806,80.79397274935558 L -19.834010451158107,80.07455480637678 L -20.780371778210124,79.41441411194688 L -21.767084063929126,78.81626332577899 L -22.790092695883956,78.28256037775645 L -23.84519391217127,77.81549836777161 L -24.928052075574826,77.41699655380796 L -26.03421748962887,77.08869246529747 L -27.1591446833753,76.83193517416082 L -28.298211089678887,76.64777975118156 L -29.446736040347165,76.53698293049393 L -30.6,76.5 L -30.6,76.5 L -54.0,76.5 L -54.0,94.5 L -54.0,112.5 L -30.6,112.5" style="stroke:black;fill:none;stroke-width:2.0;stroke-linecap:round;stroke-linejoin:round;" /><path d="M -66.60000000000001,103.5 L -54.0,103.5" style="stroke:black;fill:none;stroke-width:2.0;stroke-linecap:round;stroke-linejoin:round;" /><path d="M -66.60000000000001,85.5 L -54.0,85.5" style="stroke:black;fill:none;stroke-width:2.0;stroke-linecap:round;stroke-linejoin:round;" /><path d="M -12.600000000000003,94.5 L 0.0,94.5" style="stroke:black;fill:none;stroke-width:2.0;stroke-linecap:round;stroke-linejoin:round;" /><path d="M -127.80000000000001,58.14000000000001 L -109.80000000000001,58.14000000000001 L -109.28571428571429,58.132653061224495 L -108.77142857142859,58.110612244897965 L -108.25714285714287,58.07387755102041 L -107.74285714285716,58.02244897959184 L -107.22857142857144,57.956326530612245 L -106.71428571428572,57.875510204081635 L -106.2,57.78 L -105.6857142857143,57.66979591836735 L -105.17142857142858,57.54489795918368 L -104.65714285714287,57.40530612244898 L -104.14285714285715,57.251020408163264 L -103.62857142857145,57.08204081632653 L -103.11428571428573,56.898367346938784 L -102.60000000000002,56.7 L -102.0857142857143,56.486938775510204 L -101.57142857142858,56.25918367346939 L -101.05714285714286,56.01673469387755 L -100.54285714285716,55.7595918367347 L -100.02857142857144,55.48775510204082 L -99.51428571428573,55.20122448979592 L -99.00000000000001,54.900000000000006 L -98.48571428571431,54.58408163265307 L -97.97142857142858,54.2534693877551 L -97.45714285714286,53.90816326530613 L -96.94285714285715,53.54816326530613 L -96.42857142857144,53.173469387755105 L -95.91428571428573,52.78408163265306 L -95.4,52.38 L -94.8857142857143,51.96122448979592 L -94.3714285714286,51.527755102040814 L -93.85714285714288,51.07959183673469 L -93.34285714285716,50.61673469387755 L -92.82857142857144,50.13918367346939 L -92.31428571428572,49.64693877551021 L -91.80000000000001,49.14000000000001 L -91.28571428571429,48.61836734693878 L -90.77142857142859,48.08204081632653 L -90.25714285714287,47.531020408163265 L -89.74285714285716,46.965306122448986 L -89.22857142857143,46.384897959183675 L -88.71428571428572,45.789795918367346 L -88.2,45.17999999999999 L -87.6857142857143,44.555510204081635 L -87.17142857142858,43.91632653061224 L -86.65714285714287,43.26244897959184 L -86.14285714285715,42.593877551020405 L -85.62857142857145,41.91061224489796 L -85.11428571428573,41.21265306122449 L -84.60000000000001,40.5 L -84.60000000000001,40.5 L -85.11428571428573,39.78734693877551 L -85.62857142857145,39.08938775510204 L -86.14285714285715,38.406122448979595 L -86.65714285714287,37.73755102040816 L -87.17142857142858,37.08367346938776 L -87.6857142857143,36.444489795918365 L -88.2,35.82 L -88.71428571428572,35.210204081632654 L -89.22857142857143,34.615102040816325 L -89.74285714285716,34.034693877551014 L -90.25714285714287,33.468979591836735 L -90.77142857142859,32.91795918367347 L -91.28571428571429,32.381632653061224 L -91.80000000000001,31.859999999999996 L -92.31428571428572,31.353061224489792 L -92.82857142857144,30.86081632653061 L -93.34285714285716,30.383265306122446 L -93.85714285714288,29.920408163265304 L -94.3714285714286,29.472244897959182 L -94.8857142857143,29.03877551020408 L -95.4,28.619999999999997 L -95.91428571428573,28.215918367346937 L -96.42857142857144,27.826530612244895 L -96.94285714285715,27.451836734693874 L -97.45714285714286,27.09183673469387 L -97.97142857142858,26.746530612244893 L -98.48571428571431,26.415918367346933 L -99.00000000000001,26.099999999999994 L -99.51428571428573,25.798775510204077 L -100.02857142857144,25.512244897959178 L -100.54285714285716,25.240408163265304 L -101.05714285714286,24.983265306122448 L -101.57142857142858,24.740816326530613 L -102.0857142857143,24.513061224489793 L -102.60000000000002,24.299999999999997 L -103.11428571428573,24.10163265306122 L -103.62857142857145,23.917959183673467 L -104.14285714285715,23.748979591836733 L -104.65714285714287,23.594693877551016 L -105.17142857142858,23.45510204081632 L -105.6857142857143,23.33020408163265 L -106.2,23.219999999999995 L -106.71428571428572,23.124489795918365 L -107.22857142857144,23.043673469387755 L -107.74285714285716,22.977551020408157 L -108.25714285714287,22.92612244897959 L -108.77142857142859,22.88938775510204 L -109.28571428571429,22.867346938775505 L -109.80000000000001,22.859999999999996 L -127.80000000000001,22.859999999999996 L -127.80000000000001,22.859999999999996 L -127.1088,23.58 L -126.44640000000001,24.299999999999997 L -125.81280000000002,25.02 L -125.20800000000001,25.74 L -124.632,26.46 L -124.08480000000002,27.179999999999996 L -123.56640000000002,27.9 L -123.0768,28.619999999999997 L -122.61600000000001,29.339999999999996 L -122.184,30.06 L -121.78080000000001,30.78 L -121.4064,31.5 L -121.06080000000001,32.22 L -120.744,32.94 L -120.456,33.66 L -120.19680000000001,34.379999999999995 L -119.96640000000001,35.1 L -119.76480000000001,35.82 L -119.592,36.540000000000006 L -119.44800000000002,37.260000000000005 L -119.33280000000002,37.980000000000004 L -119.24640000000001,38.699999999999996 L -119.18880000000001,39.42 L -119.16000000000003,40.14 L -119.16000000000003,40.86 L -119.18880000000001,41.58 L -119.24640000000001,42.300000000000004 L -119.33280000000002,43.02 L -119.44800000000002,43.74 L -119.592,44.46 L -119.76480000000001,45.17999999999999 L -119.96640000000001,45.9 L -120.19680000000001,46.62 L -120.456,47.339999999999996 L -120.744,48.06 L -121.0608,48.78 L -121.4064,49.5 L -121.78080000000001,50.22 L -122.184,50.94 L -122.61600000000001,51.660000000000004 L -123.0768,52.38 L -123.56640000000002,53.1 L -124.08480000000002,53.82000000000001 L -124.632,54.540000000000006 L -125.20800000000003,55.260000000000005 L -125.81280000000002,55.980000000000004 L -126.44640000000001,56.7 L -127.1088,57.42000000000001 L -127.80000000000001,58.14000000000001" style="stroke:black;fill:none;stroke-width:2.0;stroke-linecap:round;stroke-linejoin:round;" /><path d="M -133.20000000000002,58.14000000000001 L -132.5088,57.42000000000001 L -131.84640000000002,56.7 L -131.21280000000002,55.980000000000004 L -130.608,55.260000000000005 L -130.032,54.540000000000006 L -129.4848,53.82000000000001 L -128.96640000000002,53.1 L -128.47680000000003,52.38 L -128.016,51.660000000000004 L -127.58400000000002,50.94 L -127.18080000000002,50.22 L -126.80640000000001,49.5 L -126.4608,48.78 L -126.14400000000002,48.06 L -125.85600000000002,47.339999999999996 L -125.59680000000002,46.62 L -125.3664,45.9 L -125.16480000000001,45.17999999999999 L -124.99200000000002,44.46 L -124.84800000000001,43.74 L -124.73280000000001,43.02 L -124.6464,42.300000000000004 L -124.5888,41.58 L -124.56000000000002,40.86 L -124.56000000000002,40.14 L -124.5888,39.42 L -124.6464,38.699999999999996 L -124.73280000000001,37.980000000000004 L -124.84800000000001,37.260000000000005 L -124.99200000000002,36.540000000000006 L -125.16480000000001,35.82 L -125.3664,35.1 L -125.59680000000002,34.379999999999995 L -125.85600000000002,33.66 L -126.14400000000002,32.94 L -126.4608,32.22 L -126.80640000000001,31.5 L -127.18080000000002,30.78 L -127.58400000000002,30.06 L -128.016,29.339999999999996 L -128.47680000000003,28.619999999999997 L -128.96640000000002,27.9 L -129.4848,27.179999999999996 L -130.032,26.46 L -130.608,25.74 L -131.21280000000002,25.02 L -131.84640000000002,24.299999999999997 L -132.5088,23.58 L -133.20000000000002,22.859999999999996" style="stroke:black;fill:none;stroke-width:2.0;stroke-linecap:round;stroke-linejoin:round;" /><path d="M -140.4,49.5 L -126.80640000000001,49.5" style="stroke:black;fill:none;stroke-width:2.0;stroke-linecap:round;stroke-linejoin:round;" /><path d="M -140.4,31.5 L -126.80640000000001,31.5" style="stroke:black;fill:none;stroke-width:2.0;stroke-linecap:round;stroke-linejoin:round;" /><path d="M -84.60000000000001,40.5 L -72.0,40.5" style="stroke:black;fill:none;stroke-width:2.0;stroke-linecap:round;stroke-linejoin:round;" /><path d="M -199.8,31.140000000000004 L -181.8,31.140000000000004 L -181.2857142857143,31.132653061224495 L -180.7714285714286,31.11061224489796 L -180.2571428571429,31.07387755102041 L -179.74285714285713,31.022448979591843 L -179.22857142857143,30.956326530612245 L -178.71428571428572,30.875510204081635 L -178.20000000000002,30.780000000000005 L -177.68571428571428,30.66979591836735 L -177.17142857142858,30.54489795918368 L -176.65714285714287,30.405306122448984 L -176.14285714285717,30.251020408163267 L -175.62857142857143,30.082040816326533 L -175.11428571428573,29.89836734693878 L -174.60000000000002,29.700000000000003 L -174.08571428571432,29.486938775510207 L -173.57142857142856,29.259183673469387 L -173.05714285714285,29.016734693877552 L -172.54285714285714,28.759591836734696 L -172.0285714285714,28.487755102040822 L -171.5142857142857,28.201224489795923 L -171.0,27.900000000000006 L -170.4857142857143,27.584081632653067 L -169.9714285714286,27.253469387755107 L -169.45714285714286,26.90816326530613 L -168.94285714285715,26.548163265306126 L -168.42857142857144,26.173469387755105 L -167.9142857142857,25.784081632653063 L -167.4,25.380000000000003 L -166.8857142857143,24.96122448979592 L -166.3714285714286,24.527755102040818 L -165.8571428571429,24.079591836734696 L -165.34285714285716,23.616734693877554 L -164.82857142857145,23.13918367346939 L -164.31428571428575,22.646938775510208 L -163.8,22.140000000000004 L -163.2857142857143,21.618367346938776 L -162.7714285714286,21.082040816326533 L -162.2571428571429,20.531020408163265 L -161.7428571428572,19.965306122448986 L -161.22857142857143,19.384897959183675 L -160.71428571428572,18.789795918367346 L -160.20000000000002,18.18 L -159.68571428571428,17.555510204081635 L -159.17142857142858,16.916326530612245 L -158.65714285714287,16.262448979591838 L -158.14285714285717,15.593877551020407 L -157.62857142857143,14.91061224489796 L -157.11428571428573,14.212653061224492 L -156.6,13.5 L -156.6,13.5 L -157.11428571428573,12.787346938775508 L -157.62857142857143,12.08938775510204 L -158.14285714285717,11.406122448979593 L -158.65714285714287,10.737551020408162 L -159.17142857142858,10.083673469387756 L -159.68571428571428,9.444489795918365 L -160.20000000000002,8.82 L -160.71428571428572,8.210204081632652 L -161.22857142857143,7.615102040816326 L -161.7428571428572,7.034693877551017 L -162.2571428571429,6.468979591836734 L -162.7714285714286,5.917959183673466 L -163.2857142857143,5.381632653061223 L -163.8,4.859999999999996 L -164.31428571428575,4.353061224489794 L -164.82857142857145,3.8608163265306104 L -165.34285714285716,3.3832653061224476 L -165.8571428571429,2.920408163265303 L -166.3714285714286,2.4722448979591816 L -166.8857142857143,2.03877551020408 L -167.4,1.6199999999999974 L -167.9142857142857,1.2159183673469354 L -168.42857142857144,0.8265306122448939 L -168.94285714285715,0.451836734693873 L -169.45714285714286,0.09183673469387466 L -169.9714285714286,-0.2534693877551051 L -170.4857142857143,-0.5840816326530642 L -171.0,-0.9000000000000028 L -171.5142857142857,-1.2012244897959208 L -172.0285714285714,-1.4877551020408202 L -172.54285714285714,-1.759591836734697 L -173.05714285714285,-2.016734693877553 L -173.57142857142856,-2.2591836734693906 L -174.08571428571432,-2.486938775510208 L -174.60000000000002,-2.7000000000000024 L -175.11428571428573,-2.8983673469387785 L -175.62857142857143,-3.0820408163265336 L -176.14285714285717,-3.251020408163268 L -176.65714285714287,-3.4053061224489825 L -177.17142857142858,-3.544897959183678 L -177.68571428571428,-3.6697959183673508 L -178.20000000000002,-3.7800000000000034 L -178.71428571428572,-3.875510204081637 L -179.22857142857143,-3.956326530612248 L -179.74285714285713,-4.022448979591841 L -180.2571428571429,-4.073877551020411 L -180.7714285714286,-4.110612244897963 L -181.2857142857143,-4.132653061224493 L -181.8,-4.140000000000004 L -199.8,-4.140000000000004 L -199.8,-4.140000000000004 L -199.1088,-3.420000000000003 L -198.4464,-2.7000000000000024 L -197.8128,-1.9800000000000018 L -197.208,-1.2600000000000011 L -196.632,-0.5400000000000005 L -196.08480000000003,0.17999999999999616 L -195.56640000000002,0.8999999999999968 L -195.0768,1.6199999999999974 L -194.616,2.339999999999998 L -194.184,3.0599999999999987 L -193.78080000000003,3.7799999999999994 L -193.40640000000002,4.5 L -193.0608,5.219999999999997 L -192.744,5.939999999999998 L -192.45600000000002,6.659999999999998 L -192.19680000000002,7.379999999999999 L -191.9664,8.1 L -191.7648,8.82 L -191.592,9.540000000000001 L -191.448,10.260000000000002 L -191.3328,10.980000000000002 L -191.2464,11.7 L -191.18880000000001,12.419999999999998 L -191.16000000000003,13.14 L -191.16000000000003,13.86 L -191.18880000000001,14.580000000000002 L -191.2464,15.3 L -191.3328,16.02 L -191.448,16.740000000000002 L -191.592,17.46 L -191.7648,18.18 L -191.9664,18.900000000000002 L -192.19680000000002,19.62 L -192.45600000000002,20.340000000000003 L -192.744,21.060000000000002 L -193.0608,21.78 L -193.40640000000002,22.5 L -193.78080000000003,23.22 L -194.184,23.94 L -194.616,24.660000000000004 L -195.0768,25.380000000000003 L -195.56640000000002,26.1 L -196.08480000000003,26.820000000000004 L -196.632,27.540000000000006 L -197.20800000000003,28.260000000000005 L -197.8128,28.980000000000004 L -198.4464,29.700000000000003 L -199.1088,30.42 L -199.8,31.140000000000004" style="stroke:black;fill:none;stroke-width:2.0;stroke-linecap:round;stroke-linejoin:round;" /><path d="M -212.4,22.5 L -193.40640000000002,22.5" style="stroke:black;fill:none;stroke-width:2.0;stroke-linecap:round;stroke-linejoin:round;" /><path d="M -212.4,4.5 L -193.40640000000002,4.5" style="stroke:black;fill:none;stroke-width:2.0;stroke-linecap:round;stroke-linejoin:round;" /><path d="M -156.6,13.5 L -144.0,13.5" style="stroke:black;fill:none;stroke-width:2.0;stroke-linecap:round;stroke-linejoin:round;" /><path d="M -140.4,31.5 L -144.0,31.5 L -144.0,13.5" style="stroke:black;fill:none;stroke-width:2;stroke-linecap:round;stroke-linejoin:round;" /><path d="M -174.6,85.5 L -173.44673604034716,85.46301706950607 L -172.2982110896789,85.35222024881844 L -171.1591446833753,85.16806482583918 L -170.03421748962887,84.91130753470253 L -168.9280520755748,84.58300344619204 L -167.84519391217128,84.18450163222839 L -166.79009269588394,83.71743962224355 L -165.76708406392913,83.18373667422101 L -164.7803717782101,82.58558588805313 L -163.83401045115812,81.92544519362322 L -162.9318888844598,81.20602725064442 L -162.07771408913723,80.43028830175909 L -161.27499605264433,79.60141602470371 L -160.52703331557547,78.7228164334572 L -159.8368994172548,77.79809988219905 L -159.20743026590378,76.83106622958945 L -158.641212485286,75.82568922433504 L -158.14057278571536,74.78610017620309 L -157.70756840310432,73.71657097958354 L -157.34397864534012,72.62149655935858 L -157.05129758072718,71.50537681121367 L -156.8307278985399,70.37279811060083 L -156.6831759669144,69.22841446633828 L -156.60924810838762,68.0769283962898 L -156.60924810838762,66.92307160371021 L -156.6831759669144,65.77158553366174 L -156.8307278985399,64.62720188939917 L -157.05129758072718,63.49462318878634 L -157.34397864534012,62.37850344064142 L -157.70756840310432,61.28342902041646 L -158.14057278571536,60.213899823796915 L -158.641212485286,59.174310775664964 L -159.20743026590378,58.16893377041055 L -159.8368994172548,57.201900117800946 L -160.52703331557547,56.2771835665428 L -161.27499605264433,55.398583975296305 L -162.07771408913723,54.5697116982409 L -162.9318888844598,53.79397274935558 L -163.83401045115812,53.07455480637678 L -164.7803717782101,52.41441411194687 L -165.76708406392913,51.81626332577899 L -166.79009269588394,51.282560377756454 L -167.84519391217128,50.81549836777161 L -168.9280520755748,50.41699655380796 L -170.03421748962887,50.08869246529747 L -171.1591446833753,49.831935174160826 L -172.2982110896789,49.647779751181574 L -173.44673604034716,49.53698293049395 L -174.6,49.5 L -174.6,49.5 L -198.0,49.5 L -198.0,67.5 L -198.0,85.5 L -174.6,85.5" style="stroke:black;fill:none;stroke-width:2.0;stroke-linecap:round;stroke-linejoin:round;" /><path d="M -210.6,76.5 L -198.0,76.5" style="stroke:black;fill:none;stroke-width:2.0;stroke-linecap:round;stroke-linejoin:round;" /><path d="M -210.6,58.5 L -198.0,58.5" style="stroke:black;fill:none;stroke-width:2.0;stroke-linecap:round;stroke-linejoin:round;" /><path d="M -156.6,67.5 L -144.0,67.5" style="stroke:black;fill:none;stroke-width:2.0;stroke-linecap:round;stroke-linejoin:round;" /><path d="M -140.4,49.5 L -144.0,49.5 L -144.0,67.5" style="stroke:black;fill:none;stroke-width:2;stroke-linecap:round;stroke-linejoin:round;" /><path d="M -66.60000000000001,85.5 L -72.0,85.5 L -72.0,40.5" style="stroke:black;fill:none;stroke-width:2;stroke-linecap:round;stroke-linejoin:round;" /><path d="M -127.80000000000001,166.14000000000001 L -109.80000000000001,166.14000000000001 L -109.28571428571429,166.13265306122452 L -108.77142857142859,166.11061224489794 L -108.25714285714287,166.0738775510204 L -107.74285714285716,166.02244897959184 L -107.22857142857144,165.95632653061227 L -106.71428571428572,165.87551020408162 L -106.2,165.78000000000003 L -105.6857142857143,165.66979591836736 L -105.17142857142858,165.5448979591837 L -104.65714285714287,165.405306122449 L -104.14285714285715,165.25102040816327 L -103.62857142857145,165.08204081632653 L -103.11428571428573,164.89836734693878 L -102.60000000000002,164.70000000000002 L -102.0857142857143,164.4869387755102 L -101.57142857142858,164.2591836734694 L -101.05714285714286,164.01673469387754 L -100.54285714285716,163.7595918367347 L -100.02857142857144,163.48775510204084 L -99.51428571428573,163.20122448979592 L -99.00000000000001,162.9 L -98.48571428571431,162.58408163265307 L -97.97142857142858,162.2534693877551 L -97.45714285714286,161.90816326530611 L -96.94285714285715,161.54816326530613 L -96.42857142857144,161.1734693877551 L -95.91428571428573,160.78408163265306 L -95.4,160.38 L -94.8857142857143,159.96122448979594 L -94.3714285714286,159.52775510204083 L -93.85714285714288,159.0795918367347 L -93.34285714285716,158.61673469387756 L -92.82857142857144,158.13918367346938 L -92.31428571428572,157.64693877551022 L -91.80000000000001,157.14000000000001 L -91.28571428571429,156.61836734693875 L -90.77142857142859,156.08204081632653 L -90.25714285714287,155.53102040816327 L -89.74285714285716,154.965306122449 L -89.22857142857143,154.38489795918366 L -88.71428571428572,153.78979591836736 L -88.2,153.18 L -87.6857142857143,152.55551020408166 L -87.17142857142858,151.91632653061225 L -86.65714285714287,151.26244897959185 L -86.14285714285715,150.5938775510204 L -85.62857142857145,149.91061224489798 L -85.11428571428573,149.2126530612245 L -84.60000000000001,148.5 L -84.60000000000001,148.5 L -85.11428571428573,147.7873469387755 L -85.62857142857145,147.08938775510202 L -86.14285714285715,146.4061224489796 L -86.65714285714287,145.73755102040815 L -87.17142857142858,145.08367346938775 L -87.6857142857143,144.44448979591834 L -88.2,143.82 L -88.71428571428572,143.21020408163264 L -89.22857142857143,142.61510204081634 L -89.74285714285716,142.03469387755104 L -90.25714285714287,141.46897959183673 L -90.77142857142859,140.91795918367347 L -91.28571428571429,140.38163265306122 L -91.80000000000001,139.85999999999999 L -92.31428571428572,139.3530612244898 L -92.82857142857144,138.8608163265306 L -93.34285714285716,138.38326530612244 L -93.85714285714288,137.9204081632653 L -94.3714285714286,137.47224489795917 L -94.8857142857143,137.03877551020406 L -95.4,136.62 L -95.91428571428573,136.21591836734694 L -96.42857142857144,135.8265306122449 L -96.94285714285715,135.45183673469387 L -97.45714285714286,135.09183673469389 L -97.97142857142858,134.7465306122449 L -98.48571428571431,134.41591836734693 L -99.00000000000001,134.1 L -99.51428571428573,133.79877551020408 L -100.02857142857144,133.5122448979592 L -100.54285714285716,133.2404081632653 L -101.05714285714286,132.98326530612246 L -101.57142857142858,132.74081632653062 L -102.0857142857143,132.5130612244898 L -102.60000000000002,132.29999999999998 L -103.11428571428573,132.10163265306122 L -103.62857142857145,131.91795918367347 L -104.14285714285715,131.74897959183673 L -104.65714285714287,131.594693877551 L -105.17142857142858,131.4551020408163 L -105.6857142857143,131.33020408163264 L -106.2,131.22 L -106.71428571428572,131.12448979591835 L -107.22857142857144,131.04367346938776 L -107.74285714285716,130.97755102040816 L -108.25714285714287,130.92612244897958 L -108.77142857142859,130.88938775510204 L -109.28571428571429,130.8673469387755 L -109.80000000000001,130.85999999999999 L -127.80000000000001,130.85999999999999 L -127.80000000000001,130.85999999999999 L -127.1088,131.57999999999998 L -126.44640000000001,132.29999999999998 L -125.81280000000002,133.01999999999998 L -125.20800000000001,133.74 L -124.632,134.46 L -124.08480000000002,135.18 L -123.56640000000002,135.9 L -123.0768,136.62 L -122.61600000000001,137.34 L -122.184,138.06 L -121.78080000000001,138.78 L -121.4064,139.5 L -121.06080000000001,140.22 L -120.744,140.94 L -120.456,141.66 L -120.19680000000001,142.38 L -119.96640000000001,143.1 L -119.76480000000001,143.82 L -119.592,144.54 L -119.44800000000002,145.26 L -119.33280000000002,145.98 L -119.24640000000001,146.70000000000002 L -119.18880000000001,147.42 L -119.16000000000003,148.14000000000001 L -119.16000000000003,148.85999999999999 L -119.18880000000001,149.58 L -119.24640000000001,150.29999999999998 L -119.33280000000002,151.02 L -119.44800000000002,151.74 L -119.592,152.46 L -119.76480000000001,153.18 L -119.96640000000001,153.9 L -120.19680000000001,154.62 L -120.456,155.34 L -120.744,156.06 L -121.0608,156.78000000000003 L -121.4064,157.5 L -121.78080000000001,158.22000000000003 L -122.184,158.94 L -122.61600000000001,159.66000000000003 L -123.0768,160.38 L -123.56640000000002,161.1 L -124.08480000000002,161.82 L -124.632,162.54 L -125.20800000000003,163.26 L -125.81280000000002,163.98 L -126.44640000000001,164.70000000000002 L -127.1088,165.42 L -127.80000000000001,166.14000000000001" style="stroke:black;fill:none;stroke-width:2.0;stroke-linecap:round;stroke-linejoin:round;" /><path d="M -140.4,157.5 L -121.4064,157.5" style="stroke:black;fill:none;stroke-width:2.0;stroke-linecap:round;stroke-linejoin:round;" /><path d="M -140.4,139.5 L -121.4064,139.5" style="stroke:black;fill:none;stroke-width:2.0;stroke-linecap:round;stroke-linejoin:round;" /><path d="M -75.96000000000001,148.5 L -72.0,148.5" style="stroke:black;fill:none;stroke-width:2.0;stroke-linecap:round;stroke-linejoin:round;" /><path d="M -199.8,139.14000000000001 L -181.8,139.14000000000001 L -181.2857142857143,139.1326530612245 L -180.7714285714286,139.11061224489796 L -180.2571428571429,139.07387755102042 L -179.74285714285713,139.02244897959184 L -179.22857142857143,138.95632653061224 L -178.71428571428572,138.87551020408165 L -178.20000000000002,138.78 L -177.68571428571428,138.66979591836736 L -177.17142857142858,138.5448979591837 L -176.65714285714287,138.405306122449 L -176.14285714285717,138.25102040816327 L -175.62857142857143,138.08204081632653 L -175.11428571428573,137.89836734693878 L -174.60000000000002,137.70000000000002 L -174.08571428571432,137.4869387755102 L -173.57142857142856,137.25918367346938 L -173.05714285714285,137.01673469387754 L -172.54285714285714,136.7595918367347 L -172.0285714285714,136.4877551020408 L -171.5142857142857,136.20122448979592 L -171.0,135.9 L -170.4857142857143,135.58408163265307 L -169.9714285714286,135.2534693877551 L -169.45714285714286,134.90816326530611 L -168.94285714285715,134.54816326530613 L -168.42857142857144,134.1734693877551 L -167.9142857142857,133.78408163265306 L -167.4,133.38 L -166.8857142857143,132.96122448979594 L -166.3714285714286,132.52775510204083 L -165.8571428571429,132.0795918367347 L -165.34285714285716,131.61673469387756 L -164.82857142857145,131.1391836734694 L -164.31428571428575,130.6469387755102 L -163.8,130.14000000000001 L -163.2857142857143,129.61836734693878 L -162.7714285714286,129.08204081632653 L -162.2571428571429,128.53102040816327 L -161.7428571428572,127.96530612244898 L -161.22857142857143,127.38489795918366 L -160.71428571428572,126.78979591836735 L -160.20000000000002,126.17999999999999 L -159.68571428571428,125.55551020408163 L -159.17142857142858,124.91632653061224 L -158.65714285714287,124.26244897959184 L -158.14285714285717,123.5938775510204 L -157.62857142857143,122.91061224489796 L -157.11428571428573,122.21265306122449 L -156.6,121.5 L -156.6,121.5 L -157.11428571428573,120.78734693877551 L -157.62857142857143,120.08938775510204 L -158.14285714285717,119.4061224489796 L -158.65714285714287,118.73755102040816 L -159.17142857142858,118.08367346938776 L -159.68571428571428,117.44448979591837 L -160.20000000000002,116.82000000000001 L -160.71428571428572,116.21020408163265 L -161.22857142857143,115.61510204081634 L -161.7428571428572,115.03469387755102 L -162.2571428571429,114.46897959183674 L -162.7714285714286,113.91795918367347 L -163.2857142857143,113.38163265306122 L -163.8,112.85999999999999 L -164.31428571428575,112.35306122448979 L -164.82857142857145,111.86081632653061 L -165.34285714285716,111.38326530612245 L -165.8571428571429,110.92040816326531 L -166.3714285714286,110.47224489795917 L -166.8857142857143,110.03877551020408 L -167.4,109.62 L -167.9142857142857,109.21591836734693 L -168.42857142857144,108.82653061224491 L -168.94285714285715,108.45183673469388 L -169.45714285714286,108.09183673469387 L -169.9714285714286,107.7465306122449 L -170.4857142857143,107.41591836734695 L -171.0,107.10000000000001 L -171.5142857142857,106.79877551020408 L -172.0285714285714,106.51224489795918 L -172.54285714285714,106.24040816326531 L -173.05714285714285,105.98326530612246 L -173.57142857142856,105.7408163265306 L -174.08571428571432,105.5130612244898 L -174.60000000000002,105.3 L -175.11428571428573,105.10163265306122 L -175.62857142857143,104.91795918367347 L -176.14285714285717,104.74897959183673 L -176.65714285714287,104.59469387755102 L -177.17142857142858,104.45510204081631 L -177.68571428571428,104.33020408163264 L -178.20000000000002,104.22 L -178.71428571428572,104.12448979591836 L -179.22857142857143,104.04367346938776 L -179.74285714285713,103.97755102040816 L -180.2571428571429,103.92612244897958 L -180.7714285714286,103.88938775510204 L -181.2857142857143,103.86734693877551 L -181.8,103.85999999999999 L -199.8,103.85999999999999 L -199.8,103.85999999999999 L -199.1088,104.58 L -198.4464,105.3 L -197.8128,106.02 L -197.208,106.74 L -196.632,107.46 L -196.08480000000003,108.17999999999999 L -195.56640000000002,108.89999999999999 L -195.0768,109.62 L -194.616,110.34 L -194.184,111.06 L -193.78080000000003,111.78 L -193.40640000000002,112.5 L -193.0608,113.22 L -192.744,113.94 L -192.45600000000002,114.66 L -192.19680000000002,115.38 L -191.9664,116.10000000000001 L -191.7648,116.82000000000001 L -191.592,117.54 L -191.448,118.26 L -191.3328,118.98 L -191.2464,119.7 L -191.18880000000001,120.41999999999999 L -191.16000000000003,121.14000000000001 L -191.16000000000003,121.85999999999999 L -191.18880000000001,122.58000000000001 L -191.2464,123.3 L -191.3328,124.02 L -191.448,124.74 L -191.592,125.46 L -191.7648,126.17999999999999 L -191.9664,126.89999999999999 L -192.19680000000002,127.62 L -192.45600000000002,128.34 L -192.744,129.06 L -193.0608,129.78 L -193.40640000000002,130.5 L -193.78080000000003,131.22 L -194.184,131.94 L -194.616,132.66 L -195.0768,133.38 L -195.56640000000002,134.1 L -196.08480000000003,134.82 L -196.632,135.54 L -197.20800000000003,136.26 L -197.8128,136.98000000000002 L -198.4464,137.70000000000002 L -199.1088,138.42000000000002 L -199.8,139.14000000000001" style="stroke:black;fill:none;stroke-width:2.0;stroke-linecap:round;stroke-linejoin:round;" /><path d="M -205.20000000000002,139.14000000000001 L -204.5088,138.42000000000002 L -203.8464,137.70000000000002 L -203.21280000000002,136.98000000000002 L -202.608,136.26 L -202.032,135.54 L -201.4848,134.82 L -200.9664,134.1 L -200.47680000000003,133.38 L -200.016,132.66 L -199.584,131.94 L -199.1808,131.22 L -198.8064,130.5 L -198.4608,129.78 L -198.144,129.06 L -197.85600000000002,128.34 L -197.5968,127.62 L -197.3664,126.89999999999999 L -197.1648,126.17999999999999 L -196.99200000000002,125.46 L -196.848,124.74 L -196.7328,124.02 L -196.64640000000003,123.3 L -196.58880000000002,122.58000000000001 L -196.56000000000003,121.85999999999999 L -196.56000000000003,121.14000000000001 L -196.58880000000002,120.41999999999999 L -196.64640000000003,119.7 L -196.7328,118.98 L -196.848,118.26 L -196.99200000000002,117.54 L -197.1648,116.82000000000001 L -197.3664,116.10000000000001 L -197.5968,115.38 L -197.85600000000002,114.66 L -198.144,113.94 L -198.4608,113.22 L -198.8064,112.5 L -199.1808,111.78 L -199.584,111.06 L -200.016,110.34 L -200.47680000000003,109.62 L -200.9664,108.89999999999999 L -201.4848,108.17999999999999 L -202.032,107.46 L -202.608,106.74 L -203.21280000000002,106.02 L -203.8464,105.3 L -204.5088,104.58 L -205.20000000000002,103.85999999999999" style="stroke:black;fill:none;stroke-width:2.0;stroke-linecap:round;stroke-linejoin:round;" /><path d="M -212.4,130.5 L -198.8064,130.5" style="stroke:black;fill:none;stroke-width:2.0;stroke-linecap:round;stroke-linejoin:round;" /><path d="M -212.4,112.5 L -198.8064,112.5" style="stroke:black;fill:none;stroke-width:2.0;stroke-linecap:round;stroke-linejoin:round;" /><path d="M -147.96,121.5 L -144.0,121.5" style="stroke:black;fill:none;stroke-width:2.0;stroke-linecap:round;stroke-linejoin:round;" /><path d="M -140.4,139.5 L -144.0,139.5 L -144.0,121.5" style="stroke:black;fill:none;stroke-width:2;stroke-linecap:round;stroke-linejoin:round;" /><path d="M -174.6,193.5 L -173.44673604034716,193.46301706950607 L -172.2982110896789,193.35222024881844 L -171.1591446833753,193.16806482583917 L -170.03421748962887,192.91130753470253 L -168.9280520755748,192.58300344619204 L -167.84519391217128,192.18450163222838 L -166.79009269588394,191.71743962224355 L -165.76708406392913,191.183736674221 L -164.7803717782101,190.58558588805312 L -163.83401045115812,189.9254451936232 L -162.9318888844598,189.2060272506444 L -162.07771408913723,188.4302883017591 L -161.27499605264433,187.6014160247037 L -160.52703331557547,186.7228164334572 L -159.8368994172548,185.79809988219904 L -159.20743026590378,184.83106622958945 L -158.641212485286,183.82568922433506 L -158.14057278571536,182.7861001762031 L -157.70756840310432,181.71657097958354 L -157.34397864534012,180.62149655935858 L -157.05129758072718,179.50537681121367 L -156.8307278985399,178.37279811060083 L -156.6831759669144,177.22841446633828 L -156.60924810838762,176.0769283962898 L -156.60924810838762,174.9230716037102 L -156.6831759669144,173.77158553366172 L -156.8307278985399,172.62720188939917 L -157.05129758072718,171.49462318878633 L -157.34397864534012,170.37850344064142 L -157.70756840310432,169.28342902041646 L -158.14057278571536,168.21389982379694 L -158.641212485286,167.174310775665 L -159.20743026590378,166.16893377041055 L -159.8368994172548,165.20190011780096 L -160.52703331557547,164.2771835665428 L -161.27499605264433,163.3985839752963 L -162.07771408913723,162.56971169824092 L -162.9318888844598,161.7939727493556 L -163.83401045115812,161.0745548063768 L -164.7803717782101,160.41441411194688 L -165.76708406392913,159.816263325779 L -166.79009269588394,159.28256037775645 L -167.84519391217128,158.81549836777162 L -168.9280520755748,158.41699655380796 L -170.03421748962887,158.08869246529747 L -171.1591446833753,157.83193517416083 L -172.2982110896789,157.64777975118156 L -173.44673604034716,157.53698293049393 L -174.6,157.5 L -174.6,157.5 L -198.0,157.5 L -198.0,175.5 L -198.0,193.5 L -174.6,193.5" style="stroke:black;fill:none;stroke-width:2.0;stroke-linecap:round;stroke-linejoin:round;" /><path d="M -210.6,184.5 L -198.0,184.5" style="stroke:black;fill:none;stroke-width:2.0;stroke-linecap:round;stroke-linejoin:round;" /><path d="M -210.6,166.5 L -198.0,166.5" style="stroke:black;fill:none;stroke-width:2.0;stroke-linecap:round;stroke-linejoin:round;" /><path d="M -156.6,175.5 L -144.0,175.5" style="stroke:black;fill:none;stroke-width:2.0;stroke-linecap:round;stroke-linejoin:round;" /><path d="M -140.4,157.5 L -144.0,157.5 L -144.0,175.5" style="stroke:black;fill:none;stroke-width:2;stroke-linecap:round;stroke-linejoin:round;" /><path d="M -66.60000000000001,103.5 L -72.0,103.5 L -72.0,148.5" style="stroke:black;fill:none;stroke-width:2;stroke-linecap:round;stroke-linejoin:round;" /><text x="3.600000000000003" y="88.89999999999999" fill="black" font-size="14.0" font-family="sans" text-anchor="start"><tspan x="3.600000000000003" dy="14.0">\text{Output}</tspan></text><text x="-216.0" y="-1.0999999999999996" fill="black" font-size="14.0" font-family="sans" text-anchor="end"><tspan x="-216.0" dy="14.0">b</tspan></text><text x="-216.0" y="16.9" fill="black" font-size="14.0" font-family="sans" text-anchor="end"><tspan x="-216.0" dy="14.0">c</tspan></text><text x="-214.20000000000002" y="52.89999999999999" fill="black" font-size="14.0" font-family="sans" text-anchor="end"><tspan x="-214.20000000000002" dy="14.0">b</tspan></text><text x="-214.20000000000002" y="70.89999999999999" fill="black" font-size="14.0" font-family="sans" text-anchor="end"><tspan x="-214.20000000000002" dy="14.0">c</tspan></text><text x="-216.0" y="106.89999999999999" fill="black" font-size="14.0" font-family="sans" text-anchor="end"><tspan x="-216.0" dy="14.0">b</tspan></text><text x="-216.0" y="124.89999999999999" fill="black" font-size="14.0" font-family="sans" text-anchor="end"><tspan x="-216.0" dy="14.0">c</tspan></text><text x="-214.20000000000002" y="160.9" fill="black" font-size="14.0" font-family="sans" text-anchor="end"><tspan x="-214.20000000000002" dy="14.0">a</tspan></text><text x="-214.20000000000002" y="178.9" fill="black" font-size="14.0" font-family="sans" text-anchor="end"><tspan x="-214.20000000000002" dy="14.0">a</tspan></text></svg>