<svg xmlns="http://www.w3.org/2000/svg" xml:lang="en" height="166.34pt" width="322.28pt" viewBox="-232.17999999999998 -8.740000000000004 322.28 166.34"><circle cx="-8.28" cy="74.25" r="4.32" style="stroke:black;fill:none;stroke-width:2.0;" /><circle cx="-168.29999999999998" cy="54.0" r="4.32" style="stroke:black;fill:none;stroke-width:2.0;" /><circle cx="-80.28" cy="114.75" r="4.32" style="stroke:black;fill:none;stroke-width:2.0;" /><circle cx="-168.29999999999998" cy="135.0" r="4.32" style="stroke:black;fill:none;stroke-width:2.0;" /><path d="M -30.6,92.25 L -29.446736040347172,92.21301706950607 L -28.298211089678894,92.10222024881844 L -27.1591446833753,91.91806482583918 L -26.03421748962887,91.66130753470253 L -24.928052075574826,91.33300344619204 L -23.84519391217127,90.93450163222839 L -22.790092695883956,90.46743962224355 L -21.767084063929126,89.93373667422101 L -20.780371778210124,89.33558588805313 L -19.83401045115812,88.67544519362322 L -18.931888884459806,87.95602725064442 L -18.077714089137253,87.18028830175909 L -17.274996052644326,86.35141602470371 L -16.527033315575473,85.4728164334572 L -15.83689941725479,84.54809988219905 L -15.207430265903778,83.58106622958945 L -14.641212485286,82.57568922433504 L -14.140572785715374,81.53610017620309 L -13.70756840310431,80.46657097958354 L -13.343978645340105,79.37149655935858 L -13.05129758072718,78.25537681121367 L -12.830727898539898,77.12279811060083 L -12.683175966914435,75.97841446633828 L -12.609248108387625,74.8269283962898 L -12.609248108387625,73.6730716037102 L -12.683175966914435,72.52158553366172 L -12.830727898539898,71.37720188939917 L -13.05129758072718,70.24462318878633 L -13.343978645340105,69.12850344064142 L -13.70756840310431,68.03342902041646 L -14.140572785715374,66.96389982379691 L -14.641212485286,65.92431077566496 L -15.207430265903778,64.91893377041055 L -15.83689941725479,63.951900117800946 L -16.527033315575473,63.0271835665428 L -17.274996052644326,62.148583975296305 L -18.077714089137245,61.3197116982409 L -18.931888884459806,60.54397274935558 L -19.834010451158107,59.82455480637678 L -20.780371778210124,59.16441411194687 L -21.767084063929126,58.56626332577899 L -22.790092695883956,58.032560377756454 L -23.84519391217127,57.56549836777161 L -24.928052075574826,57.16699655380796 L -26.03421748962887,56.83869246529747 L -27.1591446833753,56.581935174160826 L -28.298211089678887,56.397779751181574 L -29.446736040347165,56.28698293049395 L -30.6,56.25 L -30.6,56.25 L -54.0,56.25 L -54.0,74.25 L -54.0,92.25 L -30.6,92.25" style="stroke:black;fill:none;stroke-width:2.0;stroke-linecap:round;stroke-linejoin:round;" /><path d="M -66.60000000000001,83.25 L -54.0,83.25" style="stroke:black;fill:none;stroke-width:2.0;stroke-linecap:round;stroke-linejoin:round;" /><path d="M -66.60000000000001,65.25 L -54.0,65.25" style="stroke:black;fill:none;stroke-width:2.0;stroke-linecap:round;stroke-linejoin:round;" /><path d="M -3.9600000000000035,74.25 L 0.0,74.25" style="stroke:black;fill:none;stroke-width:2.0;stroke-linecap:round;stroke-linejoin:round;" /><path d="M -127.80000000000001,51.39000000000001 L -109.80000000000001,51.39000000000001 L -109.28571428571429,51.382653061224495 L -108.77142857142859,51.360612244897965 L -108.25714285714287,51.32387755102041 L -107.74285714285716,51.27244897959184 L -107.22857142857144,51.206326530612245 L -106.71428571428572,51.125510204081635 L -106.2,51.03 L -105.6857142857143,50.91979591836735 L -105.17142857142858,50.79489795918368 L -104.65714285714287,50.65530612244898 L -104.14285714285715,50.501020408163264 L -103.62857142857145,50.33204081632653 L -103.11428571428573,50.148367346938784 L -102.60000000000002,49.95 L -102.0857142857143,49.736938775510204 L -101.57142857142858,49.50918367346939 L -101.05714285714286,49.26673469387755 L -100.54285714285716,49.0095918367347 L -100.02857142857144,48.73775510204082 L -99.51428571428573,48.45122448979592 L -99.00000000000001,48.150000000000006 L -98.48571428571431,47.83408163265307 L -97.97142857142858,47.5034693877551 L -97.45714285714286,47.15816326530613 L -96.94285714285715,46.79816326530613 L -96.42857142857144,46.423469387755105 L -95.91428571428573,46.03408163265306 L -95.4,45.63 L -94.8857142857143,45.21122448979592 L -94.3714285714286,44.777755102040814 L -93.85714285714288,44.32959183673469 L -93.34285714285716,43.86673469387755 L -92.82857142857144,43.38918367346939 L -92.31428571428572,42.89693877551021 L -91.80000000000001,42.39000000000001 L -91.28571428571429,41.86836734693878 L -90.77142857142859,41.33204081632653 L -90.25714285714287,40.781020408163265 L -89.74285714285716,40.215306122448986 L -89.22857142857143,39.634897959183675 L -88.71428571428572,39.039795918367346 L -88.2,38.42999999999999 L -87.6857142857143,37.805510204081635 L -87.17142857142858,37.16632653061224 L -86.65714285714287,36.51244897959184 L -86.14285714285715,35.843877551020405 L -85.62857142857145,35.16061224489796 L -85.11428571428573,34.46265306122449 L -84.60000000000001,33.75 L -84.60000000000001,33.75 L -85.11428571428573,33.03734693877551 L -85.62857142857145,32.33938775510204 L -86.14285714285715,31.656122448979595 L -86.65714285714287,30.987551020408162 L -87.17142857142858,30.333673469387758 L -87.6857142857143,29.694489795918365 L -88.2,29.07 L -88.71428571428572,28.460204081632654 L -89.22857142857143,27.865102040816325 L -89.74285714285716,27.284693877551014 L -90.25714285714287,26.718979591836735 L -90.77142857142859,26.167959183673467 L -91.28571428571429,25.631632653061224 L -91.80000000000001,25.109999999999996 L -92.31428571428572,24.603061224489792 L -92.82857142857144,24.11081632653061 L -93.34285714285716,23.633265306122446 L -93.85714285714288,23.170408163265304 L -94.3714285714286,22.722244897959182 L -94.8857142857143,22.28877551020408 L -95.4,21.869999999999997 L -95.91428571428573,21.465918367346937 L -96.42857142857144,21.076530612244895 L -96.94285714285715,20.701836734693874 L -97.45714285714286,20.34183673469387 L -97.97142857142858,19.996530612244893 L -98.48571428571431,19.665918367346933 L -99.00000000000001,19.349999999999994 L -99.51428571428573,19.048775510204077 L -100.02857142857144,18.762244897959178 L -100.54285714285716,18.490408163265304 L -101.05714285714286,18.233265306122448 L -101.57142857142858,17.99081632653061 L -102.0857142857143,17.763061224489793 L -102.60000000000002,17.549999999999997 L -103.11428571428573,17.351632653061223 L -103.62857142857145,17.167959183673467 L -104.14285714285715,16.998979591836733 L -104.65714285714287,16.844693877551016 L -105.17142857142858,16.70510204081632 L -105.6857142857143,16.580204081632647 L -106.2,16.469999999999995 L -106.71428571428572,16.374489795918365 L -107.22857142857144,16.293673469387752 L -107.74285714285716,16.22755102040816 L -108.25714285714287,16.17612244897959 L -108.77142857142859,16.13938775510204 L -109.28571428571429,16.117346938775505 L -109.80000000000001,16.109999999999996 L -127.80000000000001,16.109999999999996 L -127.80000000000001,16.109999999999996 L -127.1088,16.83 L -126.44640000000001,17.549999999999997 L -125.81280000000002,18.27 L -125.20800000000001,18.99 L -124.632,19.71 L -124.08480000000002,20.429999999999996 L -123.56640000000002,21.15 L -123.0768,21.869999999999997 L -122.61600000000001,22.589999999999996 L -122.184,23.31 L -121.78080000000001,24.03 L -121.4064,24.75 L -121.06080000000001,25.469999999999995 L -120.744,26.189999999999998 L -120.456,26.909999999999997 L -120.19680000000001,27.63 L -119.96640000000001,28.349999999999998 L -119.76480000000001,29.07 L -119.592,29.79 L -119.44800000000002,30.51 L -119.33280000000002,31.23 L -119.24640000000001,31.95 L -119.18880000000001,32.67 L -119.16000000000003,33.39 L -119.16000000000003,34.11 L -119.18880000000001,34.83 L -119.24640000000001,35.550000000000004 L -119.33280000000002,36.27 L -119.44800000000002,36.99 L -119.592,37.71 L -119.76480000000001,38.42999999999999 L -119.96640000000001,39.15 L -120.19680000000001,39.87 L -120.456,40.589999999999996 L -120.744,41.31 L -121.0608,42.03 L -121.4064,42.75 L -121.78080000000001,43.47 L -122.184,44.19 L -122.61600000000001,44.910000000000004 L -123.0768,45.63 L -123.56640000000002,46.35 L -124.08480000000002,47.07000000000001 L -124.632,47.790000000000006 L -125.20800000000003,48.510000000000005 L -125.81280000000002,49.230000000000004 L -126.44640000000001,49.95 L -127.1088,50.67000000000001 L -127.80000000000001,51.39000000000001" style="stroke:black;fill:none;stroke-width:2.0;stroke-linecap:round;stroke-linejoin:round;" /><path d="M -133.20000000000002,51.39000000000001 L -132.5088,50.67000000000001 L -131.84640000000002,49.95 L -131.21280000000002,49.230000000000004 L -130.608,48.510000000000005 L -130.032,47.790000000000006 L -129.4848,47.07000000000001 L -128.96640000000002,46.35 L -128.47680000000003,45.63 L -128.016,44.910000000000004 L -127.58400000000002,44.19 L -127.18080000000002,43.47 L -126.80640000000001,42.75 L -126.4608,42.03 L -126.14400000000002,41.31 L -125.85600000000002,40.589999999999996 L -125.59680000000002,39.87 L -125.3664,39.15 L -125.16480000000001,38.42999999999999 L -124.99200000000002,37.71 L -124.84800000000001,36.99 L -124.73280000000001,36.27 L -124.6464,35.550000000000004 L -124.5888,34.83 L -124.56000000000002,34.11 L -124.56000000000002,33.39 L -124.5888,32.67 L -124.6464,31.95 L -124.73280000000001,31.23 L -124.84800000000001,30.51 L -124.99200000000002,29.79 L -125.16480000000001,29.07 L -125.3664,28.349999999999998 L -125.59680000000002,27.63 L -125.85600000000002,26.909999999999997 L -126.14400000000002,26.189999999999998 L -126.4608,25.469999999999995 L -126.80640000000001,24.75 L -127.18080000000002,24.03 L -127.58400000000002,23.31 L -128.016,22.589999999999996 L -128.47680000000003,21.869999999999997 L -128.96640000000002,21.15 L -129.4848,20.429999999999996 L -130.032,19.71 L -130.608,18.99 L -131.21280000000002,18.27 L -131.84640000000002,17.549999999999997 L -132.5088,16.83 L -133.20000000000002,16.109999999999996" style="stroke:black;fill:none;stroke-width:2.0;stroke-linecap:round;stroke-linejoin:round;" /><path d="M -140.4,42.75 L -126.80640000000001,42.75" style="stroke:black;fill:none;stroke-width:2.0;stroke-linecap:round;stroke-linejoin:round;" /><path d="M -140.4,24.75 L -126.80640000000001,24.75" style="stroke:black;fill:none;stroke-width:2.0;stroke-linecap:round;stroke-linejoin:round;" /><path d="M -84.60000000000001,33.75 L -72.0,33.75" style="stroke:black;fill:none;stroke-width:2.0;stroke-linecap:round;stroke-linejoin:round;" /><path d="M -199.8,31.140000000000004 L -181.8,31.140000000000004 L -181.2857142857143,31.132653061224495 L -180.7714285714286,31.11061224489796 L -180.2571428571429,31.07387755102041 L -179.74285714285713,31.022448979591843 L -179.22857142857143,30.956326530612245 L -178.71428571428572,30.875510204081635 L -178.20000000000002,30.780000000000005 L -177.68571428571428,30.66979591836735 L -177.17142857142858,30.54489795918368 L -176.65714285714287,30.405306122448984 L -176.14285714285717,30.251020408163267 L -175.62857142857143,30.082040816326533 L -175.11428571428573,29.89836734693878 L -174.60000000000002,29.700000000000003 L -174.08571428571432,29.486938775510207 L -173.57142857142856,29.259183673469387 L -173.05714285714285,29.016734693877552 L -172.54285714285714,28.759591836734696 L -172.0285714285714,28.487755102040822 L -171.5142857142857,28.201224489795923 L -171.0,27.900000000000006 L -170.4857142857143,27.584081632653067 L -169.9714285714286,27.253469387755107 L -169.45714285714286,26.90816326530613 L -168.94285714285715,26.548163265306126 L -168.42857142857144,26.173469387755105 L -167.9142857142857,25.784081632653063 L -167.4,25.380000000000003 L -166.8857142857143,24.96122448979592 L -166.3714285714286,24.527755102040818 L -165.8571428571429,24.079591836734696 L -165.34285714285716,23.616734693877554 L -164.82857142857145,23.13918367346939 L -164.31428571428575,22.646938775510208 L -163.8,22.140000000000004 L -163.2857142857143,21.618367346938776 L -162.7714285714286,21.082040816326533 L -162.2571428571429,20.531020408163265 L -161.7428571428572,19.965306122448986 L -161.22857142857143,19.384897959183675 L -160.71428571428572,18.789795918367346 L -160.20000000000002,18.18 L -159.68571428571428,17.555510204081635 L -159.17142857142858,16.916326530612245 L -158.65714285714287,16.262448979591838 L -158.14285714285717,15.593877551020407 L -157.62857142857143,14.91061224489796 L -157.11428571428573,14.212653061224492 L -156.6,13.5 L -156.6,13.5 L -157.11428571428573,12.787346938775508 L -157.62857142857143,12.08938775510204 L -158.14285714285717,11.406122448979593 L -158.65714285714287,10.737551020408162 L -159.17142857142858,10.083673469387756 L -159.68571428571428,9.444489795918365 L -160.20000000000002,8.82 L -160.71428571428572,8.210204081632652 L -161.22857142857143,7.615102040816326 L -161.7428571428572,7.034693877551017 L -162.2571428571429,6.468979591836734 L -162.7714285714286,5.917959183673466 L -163.2857142857143,5.381632653061223 L -163.8,4.859999999999996 L -164.31428571428575,4.353061224489794 L -164.82857142857145,3.8608163265306104 L -165.34285714285716,3.3832653061224476 L -165.8571428571429,2.920408163265303 L -166.3714285714286,2.4722448979591816 L -166.8857142857143,2.03877551020408 L -167.4,1.6199999999999974 L -167.9142857142857,1.2159183673469354 L -168.42857142857144,0.8265306122448939 L -168.94285714285715,0.451836734693873 L -169.45714285714286,0.09183673469387466 L -169.9714285714286,-0.2534693877551051 L -170.4857142857143,-0.5840816326530642 L -171.0,-0.9000000000000028 L -171.5142857142857,-1.2012244897959208 L -172.0285714285714,-1.4877551020408202 L -172.54285714285714,-1.759591836734697 L -173.05714285714285,-2.016734693877553 L -173.57142857142856,-2.2591836734693906 L -174.08571428571432,-2.486938775510208 L -174.60000000000002,-2.7000000000000024 L -175.11428571428573,-2.8983673469387785 L -175.62857142857143,-3.0820408163265336 L -176.14285714285717,-3.251020408163268 L -176.65714285714287,-3.4053061224489825 L -177.17142857142858,-3.544897959183678 L -177.68571428571428,-3.6697959183673508 L -178.20000000000002,-3.7800000000000034 L -178.71428571428572,-3.875510204081637 L -179.22857142857143,-3.956326530612248 L -179.74285714285713,-4.022448979591841 L -180.2571428571429,-4.073877551020411 L -180.7714285714286,-4.110612244897963 L -181.2857142857143,-4.132653061224493 L -181.8,-4.140000000000004 L -199.8,-4.140000000000004 L -199.8,-4.140000000000004 L -199.1088,-3.420000000000003 L -198.4464,-2.7000000000000024 L -197.8128,-1.9800000000000018 L -197.208,-1.2600000000000011 L -196.632,-0.5400000000000005 L -196.08480000000003,0.17999999999999616 L -195.56640000000002,0.8999999999999968 L -195.0768,1.6199999999999974 L -194.616,2.339999999999998 L -194.184,3.0599999999999987 L -193.78080000000003,3.7799999999999994 L -193.40640000000002,4.5 L -193.0608,5.219999999999997 L -192.744,5.939999999999998 L -192.45600000000002,6.659999999999998 L -192.19680000000002,7.379999999999999 L -191.9664,8.1 L -191.7648,8.82 L -191.592,9.540000000000001 L -191.448,10.260000000000002 L -191.3328,10.980000000000002 L -191.2464,11.7 L -191.18880000000001,12.419999999999998 L -191.16000000000003,13.14 L -191.16000000000003,13.86 L -191.18880000000001,14.580000000000002 L -191.2464,15.3 L -191.3328,16.02 L -191.448,16.740000000000002 L -191.592,17.46 L -191.7648,18.18 L -191.9664,18.900000000000002 L -192.19680000000002,19.62 L -192.45600000000002,20.340000000000003 L -192.744,21.060000000000002 L -193.0608,21.78 L -193.40640000000002,22.5 L -193.78080000000003,23.22 L -194.184,23.94 L -194.616,24.660000000000004 L -195.0768,25.380000000000003 L -195.56640000000002,26.1 L -196.08480000000003,26.820000000000004 L -196.632,27.540000000000006 L -197.20800000000003,28.260000000000005 L -197.8128,28.980000000000004 L -198.4464,29.700000000000003 L -199.1088,30.42 L -199.8,31.140000000000004" style="stroke:black;fill:none;stroke-width:2.0;stroke-linecap:round;stroke-linejoin:round;" /><path d="M -205.20000000000002,31.140000000000004 L -204.5088,30.42 L -203.8464,29.700000000000003 L -203.21280000000002,28.980000000000004 L -202.608,28.260000000000005 L -202.032,27.540000000000006 L -201.4848,26.820000000000004 L -200.9664,26.1 L -200.47680000000003,25.380000000000003 L -200.016,24.660000000000004 L -199.584,23.94 L -199.1808,23.22 L -198.8064,22.5 L -198.4608,21.78 L -198.144,21.060000000000002 L -197.85600000000002,20.340000000000003 L -197.5968,19.62 L -197.3664,18.900000000000002 L -197.1648,18.18 L -196.99200000000002,17.46 L -196.848,16.740000000000002 L -196.7328,16.02 L -196.64640000000003,15.3 L -196.58880000000002,14.580000000000002 L -196.56000000000003,13.86 L -196.56000000000003,13.14 L -196.58880000000002,12.419999999999998 L -196.64640000000003,11.7 L -196.7328,10.980000000000002 L -196.848,10.260000000000002 L -196.99200000000002,9.540000000000001 L -197.1648,8.82 L -197.3664,8.1 L -197.5968,7.379999999999999 L -197.85600000000002,6.659999999999998 L -198.144,5.939999999999998 L -198.4608,5.219999999999997 L -198.8064,4.5 L -199.1808,3.7799999999999994 L -199.584,3.0599999999999987 L -200.016,2.339999999999998 L -200.47680000000003,1.6199999999999974 L -200.9664,0.8999999999999968 L -201.4848,0.17999999999999616 L -202.032,-0.5400000000000005 L -202.608,-1.2600000000000011 L -203.21280000000002,-1.9800000000000018 L -203.8464,-2.7000000000000024 L -204.5088,-3.420000000000003 L -205.20000000000002,-4.140000000000004" style="stroke:black;fill:none;stroke-width:2.0;stroke-linecap:round;stroke-linejoin:round;" /><path d="M -212.4,22.5 L -198.8064,22.5" style="stroke:black;fill:none;stroke-width:2.0;stroke-linecap:round;stroke-linejoin:round;" /><path d="M -212.4,4.5 L -198.8064,4.5" style="stroke:black;fill:none;stroke-width:2.0;stroke-linecap:round;stroke-linejoin:round;" /><path d="M -156.6,13.5 L -144.0,13.5" style="stroke:black;fill:none;stroke-width:2.0;stroke-linecap:round;stroke-linejoin:round;" /><path d="M -140.4,24.75 L -144.0,24.75 L -144.0,13.5" style="stroke:black;fill:none;stroke-width:2;stroke-linecap:round;stroke-linejoin:round;" /><path d="M -216.0,54.0 L -196.02,54.0 M -163.98,54.0 L -144.0,54.0" style="stroke:black;fill:none;stroke-width:2.0;stroke-linecap:round;stroke-linejoin:round;" /><path d="M -196.02,36.0 L -172.62,54.0 L -196.02,72.0 L -196.02,36.0" style="stroke:black;fill:none;stroke-width:2.0;stroke-linecap:round;stroke-linejoin:round;" /><path d="M -140.4,42.75 L -144.0,42.75 L -144.0,54.0" style="stroke:black;fill:none;stroke-width:2;stroke-linecap:round;stroke-linejoin:round;" /><path d="M -66.60000000000001,65.25 L -72.0,65.25 L -72.0,33.75" style="stroke:black;fill:none;stroke-width:2;stroke-linecap:round;stroke-linejoin:round;" /><path d="M -127.80000000000001,132.39000000000001 L -109.80000000000001,132.39000000000001 L -109.28571428571429,132.3826530612245 L -108.77142857142859,132.36061224489796 L -108.25714285714287,132.32387755102042 L -107.74285714285716,132.27244897959184 L -107.22857142857144,132.20632653061224 L -106.71428571428572,132.12551020408165 L -106.2,132.03 L -105.6857142857143,131.91979591836736 L -105.17142857142858,131.7948979591837 L -104.65714285714287,131.655306122449 L -104.14285714285715,131.50102040816327 L -103.62857142857145,131.33204081632653 L -103.11428571428573,131.14836734693878 L -102.60000000000002,130.95000000000002 L -102.0857142857143,130.7369387755102 L -101.57142857142858,130.50918367346938 L -101.05714285714286,130.26673469387754 L -100.54285714285716,130.0095918367347 L -100.02857142857144,129.7377551020408 L -99.51428571428573,129.45122448979592 L -99.00000000000001,129.15 L -98.48571428571431,128.83408163265307 L -97.97142857142858,128.5034693877551 L -97.45714285714286,128.15816326530611 L -96.94285714285715,127.79816326530612 L -96.42857142857144,127.42346938775509 L -95.91428571428573,127.03408163265307 L -95.4,126.63 L -94.8857142857143,126.21122448979592 L -94.3714285714286,125.77775510204083 L -93.85714285714288,125.32959183673469 L -93.34285714285716,124.86673469387755 L -92.82857142857144,124.38918367346939 L -92.31428571428572,123.89693877551021 L -91.80000000000001,123.39000000000001 L -91.28571428571429,122.86836734693878 L -90.77142857142859,122.33204081632653 L -90.25714285714287,121.78102040816326 L -89.74285714285716,121.21530612244898 L -89.22857142857143,120.63489795918366 L -88.71428571428572,120.03979591836735 L -88.2,119.42999999999999 L -87.6857142857143,118.80551020408163 L -87.17142857142858,118.16632653061224 L -86.65714285714287,117.51244897959184 L -86.14285714285715,116.8438775510204 L -85.62857142857145,116.16061224489796 L -85.11428571428573,115.46265306122449 L -84.60000000000001,114.75 L -84.60000000000001,114.75 L -85.11428571428573,114.03734693877551 L -85.62857142857145,113.33938775510204 L -86.14285714285715,112.6561224489796 L -86.65714285714287,111.98755102040816 L -87.17142857142858,111.33367346938776 L -87.6857142857143,110.69448979591837 L -88.2,110.07000000000001 L -88.71428571428572,109.46020408163265 L -89.22857142857143,108.86510204081634 L -89.74285714285716,108.28469387755102 L -90.25714285714287,107.71897959183674 L -90.77142857142859,107.16795918367347 L -91.28571428571429,106.63163265306122 L -91.80000000000001,106.10999999999999 L -92.31428571428572,105.60306122448979 L -92.82857142857144,105.11081632653061 L -93.34285714285716,104.63326530612245 L -93.85714285714288,104.17040816326531 L -94.3714285714286,103.72224489795917 L -94.8857142857143,103.28877551020408 L -95.4,102.87 L -95.91428571428573,102.46591836734693 L -96.42857142857144,102.07653061224491 L -96.94285714285715,101.70183673469388 L -97.45714285714286,101.34183673469387 L -97.97142857142858,100.9965306122449 L -98.48571428571431,100.66591836734695 L -99.00000000000001,100.35000000000001 L -99.51428571428573,100.04877551020408 L -100.02857142857144,99.76224489795918 L -100.54285714285716,99.49040816326531 L -101.05714285714286,99.23326530612246 L -101.57142857142858,98.9908163265306 L -102.0857142857143,98.7630612244898 L -102.60000000000002,98.55 L -103.11428571428573,98.35163265306122 L -103.62857142857145,98.16795918367347 L -104.14285714285715,97.99897959183673 L -104.65714285714287,97.84469387755102 L -105.17142857142858,97.70510204081631 L -105.6857142857143,97.58020408163264 L -106.2,97.47 L -106.71428571428572,97.37448979591836 L -107.22857142857144,97.29367346938776 L -107.74285714285716,97.22755102040816 L -108.25714285714287,97.17612244897958 L -108.77142857142859,97.13938775510204 L -109.28571428571429,97.11734693877551 L -109.80000000000001,97.10999999999999 L -127.80000000000001,97.10999999999999 L -127.80000000000001,97.10999999999999 L -127.1088,97.83 L -126.44640000000001,98.55 L -125.81280000000002,99.27 L -125.20800000000001,99.99 L -124.632,100.71 L -124.08480000000002,101.42999999999999 L -123.56640000000002,102.14999999999999 L -123.0768,102.87 L -122.61600000000001,103.59 L -122.184,104.31 L -121.78080000000001,105.03 L -121.4064,105.75 L -121.06080000000001,106.47 L -120.744,107.19 L -120.456,107.91 L -120.19680000000001,108.63 L -119.96640000000001,109.35000000000001 L -119.76480000000001,110.07000000000001 L -119.592,110.79 L -119.44800000000002,111.51 L -119.33280000000002,112.23 L -119.24640000000001,112.95 L -119.18880000000001,113.66999999999999 L -119.16000000000003,114.39000000000001 L -119.16000000000003,115.10999999999999 L -119.18880000000001,115.83000000000001 L -119.24640000000001,116.55 L -119.33280000000002,117.27 L -119.44800000000002,117.99 L -119.592,118.71 L -119.76480000000001,119.42999999999999 L -119.96640000000001,120.14999999999999 L -120.19680000000001,120.87 L -120.456,121.59 L -120.744,122.31 L -121.0608,123.03 L -121.4064,123.75 L -121.78080000000001,124.47 L -122.184,125.19 L -122.61600000000001,125.91 L -123.0768,126.63 L -123.56640000000002,127.35000000000001 L -124.08480000000002,128.07 L -124.632,128.79 L -125.20800000000003,129.51 L -125.81280000000002,130.23000000000002 L -126.44640000000001,130.95000000000002 L -127.1088,131.67000000000002 L -127.80000000000001,132.39000000000001" style="stroke:black;fill:none;stroke-width:2.0;stroke-linecap:round;stroke-linejoin:round;" /><path d="M -133.20000000000002,132.39000000000001 L -132.5088,131.67000000000002 L -131.84640000000002,130.95000000000002 L -131.21280000000002,130.23000000000002 L -130.608,129.51 L -130.032,128.79 L -129.4848,128.07 L -128.96640000000002,127.35000000000001 L -128.47680000000003,126.63 L -128.016,125.91 L -127.58400000000002,125.19 L -127.18080000000002,124.47 L -126.80640000000001,123.75 L -126.4608,123.03 L -126.14400000000002,122.31 L -125.85600000000002,121.59 L -125.59680000000002,120.87 L -125.3664,120.14999999999999 L -125.16480000000001,119.42999999999999 L -124.99200000000002,118.71 L -124.84800000000001,117.99 L -124.73280000000001,117.27 L -124.6464,116.55 L -124.5888,115.83000000000001 L -124.56000000000002,115.10999999999999 L -124.56000000000002,114.39000000000001 L -124.5888,113.66999999999999 L -124.6464,112.95 L -124.73280000000001,112.23 L -124.84800000000001,111.51 L -124.99200000000002,110.79 L -125.16480000000001,110.07000000000001 L -125.3664,109.35000000000001 L -125.59680000000002,108.63 L -125.85600000000002,107.91 L -126.14400000000002,107.19 L -126.4608,106.47 L -126.80640000000001,105.75 L -127.18080000000002,105.03 L -127.58400000000002,104.31 L -128.016,103.59 L -128.47680000000003,102.87 L -128.96640000000002,102.14999999999999 L -129.4848,101.42999999999999 L -130.032,100.71 L -130.608,99.99 L -131.21280000000002,99.27 L -131.84640000000002,98.55 L -132.5088,97.83 L -133.20000000000002,97.10999999999999" style="stroke:black;fill:none;stroke-width:2.0;stroke-linecap:round;stroke-linejoin:round;" /><path d="M -140.4,123.75 L -126.80640000000001,123.75" style="stroke:black;fill:none;stroke-width:2.0;stroke-linecap:round;stroke-linejoin:round;" /><path d="M -140.4,105.75 L -126.80640000000001,105.75" style="stroke:black;fill:none;stroke-width:2.0;stroke-linecap:round;stroke-linejoin:round;" /><path d="M -75.96000000000001,114.75 L -72.0,114.75" style="stroke:black;fill:none;stroke-width:2.0;stroke-linecap:round;stroke-linejoin:round;" /><path d="M -199.8,112.14000000000001 L -181.8,112.14000000000001 L -181.2857142857143,112.13265306122449 L -180.7714285714286,112.11061224489796 L -180.2571428571429,112.07387755102042 L -179.74285714285713,112.02244897959184 L -179.22857142857143,111.95632653061224 L -178.71428571428572,111.87551020408164 L -178.20000000000002,111.78 L -177.68571428571428,111.66979591836736 L -177.17142857142858,111.54489795918369 L -176.65714285714287,111.40530612244898 L -176.14285714285717,111.25102040816327 L -175.62857142857143,111.08204081632653 L -175.11428571428573,110.89836734693878 L -174.60000000000002,110.7 L -174.08571428571432,110.4869387755102 L -173.57142857142856,110.2591836734694 L -173.05714285714285,110.01673469387754 L -172.54285714285714,109.75959183673469 L -172.0285714285714,109.48775510204082 L -171.5142857142857,109.20122448979592 L -171.0,108.89999999999999 L -170.4857142857143,108.58408163265305 L -169.9714285714286,108.2534693877551 L -169.45714285714286,107.90816326530613 L -168.94285714285715,107.54816326530612 L -168.42857142857144,107.17346938775509 L -167.9142857142857,106.78408163265307 L -167.4,106.38 L -166.8857142857143,105.96122448979592 L -166.3714285714286,105.52775510204083 L -165.8571428571429,105.07959183673469 L -165.34285714285716,104.61673469387755 L -164.82857142857145,104.13918367346939 L -164.31428571428575,103.64693877551021 L -163.8,103.14000000000001 L -163.2857142857143,102.61836734693878 L -162.7714285714286,102.08204081632653 L -162.2571428571429,101.53102040816326 L -161.7428571428572,100.96530612244898 L -161.22857142857143,100.38489795918366 L -160.71428571428572,99.78979591836735 L -160.20000000000002,99.17999999999999 L -159.68571428571428,98.55551020408163 L -159.17142857142858,97.91632653061224 L -158.65714285714287,97.26244897959184 L -158.14285714285717,96.5938775510204 L -157.62857142857143,95.91061224489796 L -157.11428571428573,95.21265306122449 L -156.6,94.5 L -156.6,94.5 L -157.11428571428573,93.78734693877551 L -157.62857142857143,93.08938775510204 L -158.14285714285717,92.4061224489796 L -158.65714285714287,91.73755102040816 L -159.17142857142858,91.08367346938776 L -159.68571428571428,90.44448979591837 L -160.20000000000002,89.82000000000001 L -160.71428571428572,89.21020408163265 L -161.22857142857143,88.61510204081634 L -161.7428571428572,88.03469387755102 L -162.2571428571429,87.46897959183674 L -162.7714285714286,86.91795918367347 L -163.2857142857143,86.38163265306122 L -163.8,85.85999999999999 L -164.31428571428575,85.35306122448979 L -164.82857142857145,84.86081632653061 L -165.34285714285716,84.38326530612245 L -165.8571428571429,83.92040816326531 L -166.3714285714286,83.47224489795917 L -166.8857142857143,83.03877551020408 L -167.4,82.62 L -167.9142857142857,82.21591836734693 L -168.42857142857144,81.82653061224491 L -168.94285714285715,81.45183673469388 L -169.45714285714286,81.09183673469387 L -169.9714285714286,80.7465306122449 L -170.4857142857143,80.41591836734695 L -171.0,80.10000000000001 L -171.5142857142857,79.79877551020408 L -172.0285714285714,79.51224489795918 L -172.54285714285714,79.24040816326531 L -173.05714285714285,78.98326530612246 L -173.57142857142856,78.7408163265306 L -174.08571428571432,78.5130612244898 L -174.60000000000002,78.3 L -175.11428571428573,78.10163265306122 L -175.62857142857143,77.91795918367347 L -176.14285714285717,77.74897959183673 L -176.65714285714287,77.59469387755102 L -177.17142857142858,77.45510204081631 L -177.68571428571428,77.33020408163264 L -178.20000000000002,77.22 L -178.71428571428572,77.12448979591836 L -179.22857142857143,77.04367346938776 L -179.74285714285713,76.97755102040816 L -180.2571428571429,76.92612244897958 L -180.7714285714286,76.88938775510204 L -181.2857142857143,76.86734693877551 L -181.8,76.85999999999999 L -199.8,76.85999999999999 L -199.8,76.85999999999999 L -199.1088,77.58 L -198.4464,78.3 L -197.8128,79.02 L -197.208,79.74 L -196.632,80.46 L -196.08480000000003,81.17999999999999 L -195.56640000000002,81.89999999999999 L -195.0768,82.62 L -194.616,83.34 L -194.184,84.06 L -193.78080000000003,84.78 L -193.40640000000002,85.5 L -193.0608,86.22 L -192.744,86.94 L -192.45600000000002,87.66 L -192.19680000000002,88.38 L -191.9664,89.10000000000001 L -191.7648,89.82000000000001 L -191.592,90.54 L -191.448,91.26 L -191.3328,91.98 L -191.2464,92.7 L -191.18880000000001,93.41999999999999 L -191.16000000000003,94.14000000000001 L -191.16000000000003,94.85999999999999 L -191.18880000000001,95.58000000000001 L -191.2464,96.3 L -191.3328,97.02 L -191.448,97.74 L -191.592,98.46 L -191.7648,99.17999999999999 L -191.9664,99.89999999999999 L -192.19680000000002,100.62 L -192.45600000000002,101.34 L -192.744,102.06 L -193.0608,102.78 L -193.40640000000002,103.5 L -193.78080000000003,104.22 L -194.184,104.94 L -194.616,105.66 L -195.0768,106.38 L -195.56640000000002,107.10000000000001 L -196.08480000000003,107.82000000000001 L -196.632,108.54 L -197.20800000000003,109.26 L -197.8128,109.98 L -198.4464,110.7 L -199.1088,111.42 L -199.8,112.14000000000001" style="stroke:black;fill:none;stroke-width:2.0;stroke-linecap:round;stroke-linejoin:round;" /><path d="M -205.20000000000002,112.14000000000001 L -204.5088,111.42 L -203.8464,110.7 L -203.21280000000002,109.98 L -202.608,109.26 L -202.032,108.54 L -201.4848,107.82000000000001 L -200.9664,107.10000000000001 L -200.47680000000003,106.38 L -200.016,105.66 L -199.584,104.94 L -199.1808,104.22 L -198.8064,103.5 L -198.4608,102.78 L -198.144,102.06 L -197.85600000000002,101.34 L -197.5968,100.62 L -197.3664,99.89999999999999 L -197.1648,99.17999999999999 L -196.99200000000002,98.46 L -196.848,97.74 L -196.7328,97.02 L -196.64640000000003,96.3 L -196.58880000000002,95.58000000000001 L -196.56000000000003,94.85999999999999 L -196.56000000000003,94.14000000000001 L -196.58880000000002,93.41999999999999 L -196.64640000000003,92.7 L -196.7328,91.98 L -196.848,91.26 L -196.99200000000002,90.54 L -197.1648,89.82000000000001 L -197.3664,89.10000000000001 L -197.5968,88.38 L -197.85600000000002,87.66 L -198.144,86.94 L -198.4608,86.22 L -198.8064,85.5 L -199.1808,84.78 L -199.584,84.06 L -200.016,83.34 L -200.47680000000003,82.62 L -200.9664,81.89999999999999 L -201.4848,81.17999999999999 L -202.032,80.46 L -202.608,79.74 L -203.21280000000002,79.02 L -203.8464,78.3 L -204.5088,77.58 L -205.20000000000002,76.85999999999999" style="stroke:black;fill:none;stroke-width:2.0;stroke-linecap:round;stroke-linejoin:round;" /><path d="M -212.4,103.5 L -198.8064,103.5" style="stroke:black;fill:none;stroke-width:2.0;stroke-linecap:round;stroke-linejoin:round;" /><path d="M -212.4,85.5 L -198.8064,85.5" style="stroke:black;fill:none;stroke-width:2.0;stroke-linecap:round;stroke-linejoin:round;" /><path d="M -156.6,94.5 L -144.0,94.5" style="stroke:black;fill:none;stroke-width:2.0;stroke-linecap:round;stroke-linejoin:round;" /><path d="M -140.4,105.75 L -144.0,105.75 L -144.0,94.5" style="stroke:black;fill:none;stroke-width:2;stroke-linecap:round;stroke-linejoin:round;" /><path d="M -216.0,135.0 L -196.02,135.0 M -163.98,135.0 L -144.0,135.0" style="stroke:black;fill:none;stroke-width:2.0;stroke-linecap:round;stroke-linejoin:round;" /><path d="M -196.02,117.0 L -172.62,135.0 L -196.02,153.0 L -196.02,117.0" style="stroke:black;fill:none;stroke-width:2.0;stroke-linecap:round;stroke-linejoin:round;" /><path d="M -140.4,123.75 L -144.0,123.75 L -144.0,135.0" style="stroke:black;fill:none;stroke-width:2;stroke-linecap:round;stroke-linejoin:round;" /><path d="M -66.60000000000001,83.25 L -72.0,83.25 L -72.0,114.75" style="stroke:black;fill:none;stroke-width:2;stroke-linecap:round;stroke-linejoin:round;" /><text x="3.600000000000003" y="68.64999999999999" fill="black" font-size="14.0" font-family="sans" text-anchor="start"><tspan x="3.600000000000003" dy="14.0">\text{Output}</tspan></text><text x="-216.0" y="-1.0999999999999996" fill="black" font-size="14.0" font-family="sans" text-anchor="end"><tspan x="-216.0" dy="14.0">c</tspan></text><text x="-216.0" y="16.9" fill="black" font-size="14.0" font-family="sans" text-anchor="end"><tspan x="-216.0" dy="14.0">e</tspan></text><text x="-219.6" y="48.4" fill="black" font-size="14.0" font-family="sans" text-anchor="end"><tspan x="-219.6" dy="14.0">e</tspan></text><text x="-216.0" y="79.89999999999999" fill="black" font-size="14.0" font-family="sans" text-anchor="end"><tspan x="-216.0" dy="14.0">b</tspan></text><text x="-216.0" y="97.89999999999999" fill="black" font-size="14.0" font-family="sans" text-anchor="end"><tspan x="-216.0" dy="14.0">c</tspan></text><text x="-219.6" y="129.4" fill="black" font-size="14.0" font-family="sans" text-anchor="end"><tspan x="-219.6" dy="14.0">e</tspan></text></svg>