<?xml version="1.0" encoding="utf-8" standalone="no"?>
<!DOCTYPE svg PUBLIC "-//W3C//DTD SVG 1.1//EN"
  "http://www.w3.org/Graphics/SVG/1.1/DTD/svg11.dtd">
<svg xmlns:xlink="http://www.w3.org/1999/xlink" width="322.44pt" height="139.5pt" viewBox="0 0 322.44 139.5" xmlns="http://www.w3.org/2000/svg" version="1.1">
 <metadata>
  <rdf:RDF xmlns:dc="http://purl.org/dc/elements/1.1/" xmlns:cc="http://creativecommons.org/ns#" xmlns:rdf="http://www.w3.org/1999/02/22-rdf-syntax-ns#">
   <cc:Work>
    <dc:type rdf:resource="http://purl.org/dc/dcmitype/StillImage"/>
    <dc:date>2024-10-10T23:13:49.806168</dc:date>
    <dc:format>image/svg+xml</dc:format>
    <dc:creator>
     <cc:Agent>
      <dc:title>Matplotlib v3.9.0, https://matplotlib.org/</dc:title>
     </cc:Agent>
    </dc:creator>
   </cc:Work>
  </rdf:RDF>
 </metadata>
 <defs>
  <style type="text/css">*{stroke-linejoin: round; stroke-linecap: butt}</style>
 </defs>
 <g id="figure_1">
  <g id="patch_1">
   <path d="M 0 139.5 
L 322.44 139.5 
L 322.44 0 
L 0 0 
L 0 139.5 
z
" style="fill: none"/>
  </g>
  <g id="axes_1">
   <g id="patch_2">
    <path d="M 223.98 77.265 
C 225.125677 77.265 226.224585 76.809818 227.034701 75.999701 
C 227.844818 75.189585 228.3 74.090677 228.3 72.945 
C 228.3 71.799323 227.844818 70.700415 227.034701 69.890299 
C 226.224585 69.080182 225.125677 68.625 223.98 68.625 
C 222.834323 68.625 221.735415 69.080182 220.925299 69.890299 
C 220.115182 70.700415 219.66 71.799323 219.66 72.945 
C 219.66 74.090677 220.115182 75.189585 220.925299 75.999701 
C 221.735415 76.809818 222.834323 77.265 223.98 77.265 
L 223.98 77.265 
z
" clip-path="url(#p2388aa39cc)" style="fill: none; stroke: #000000; stroke-width: 2; stroke-linejoin: miter"/>
   </g>
   <g id="patch_3">
    <path d="M 151.98 46.89 
C 153.125677 46.89 154.224585 46.434818 155.034701 45.624701 
C 155.844818 44.814585 156.3 43.715677 156.3 42.57 
C 156.3 41.424323 155.844818 40.325415 155.034701 39.515299 
C 154.224585 38.705182 153.125677 38.25 151.98 38.25 
C 150.834323 38.25 149.735415 38.705182 148.925299 39.515299 
C 148.115182 40.325415 147.66 41.424323 147.66 42.57 
C 147.66 43.715677 148.115182 44.814585 148.925299 45.624701 
C 149.735415 46.434818 150.834323 46.89 151.98 46.89 
L 151.98 46.89 
z
" clip-path="url(#p2388aa39cc)" style="fill: none; stroke: #000000; stroke-width: 2; stroke-linejoin: miter"/>
   </g>
   <g id="patch_4">
    <path d="M 63.96 67.14 
C 65.105677 67.14 66.204585 66.684818 67.014701 65.874701 
C 67.824818 65.064585 68.28 63.965677 68.28 62.82 
C 68.28 61.674323 67.824818 60.575415 67.014701 59.765299 
C 66.204585 58.955182 65.105677 58.5 63.96 58.5 
C 62.814323 58.5 61.715415 58.955182 60.905299 59.765299 
C 60.095182 60.575415 59.64 61.674323 59.64 62.82 
C 59.64 63.965677 60.095182 65.064585 60.905299 65.874701 
C 61.715415 66.684818 62.814323 67.14 63.96 67.14 
L 63.96 67.14 
z
" clip-path="url(#p2388aa39cc)" style="fill: none; stroke: #000000; stroke-width: 2; stroke-linejoin: miter"/>
   </g>
   <g id="patch_5">
    <path d="M 63.96 94.14 
C 65.105677 94.14 66.204585 93.684818 67.014701 92.874701 
C 67.824818 92.064585 68.28 90.965677 68.28 89.82 
C 68.28 88.674323 67.824818 87.575415 67.014701 86.765299 
C 66.204585 85.955182 65.105677 85.5 63.96 85.5 
C 62.814323 85.5 61.715415 85.955182 60.905299 86.765299 
C 60.095182 87.575415 59.64 88.674323 59.64 89.82 
C 59.64 90.965677 60.095182 92.064585 60.905299 92.874701 
C 61.715415 93.684818 62.814323 94.14 63.96 94.14 
L 63.96 94.14 
z
" clip-path="url(#p2388aa39cc)" style="fill: none; stroke: #000000; stroke-width: 2; stroke-linejoin: miter"/>
   </g>
   <g id="patch_6">
    <path d="M 63.96 121.14 
C 65.105677 121.14 66.204585 120.684818 67.014701 119.874701 
C 67.824818 119.064585 68.28 117.965677 68.28 116.82 
C 68.28 115.674323 67.824818 114.575415 67.014701 113.765299 
C 66.204585 112.955182 65.105677 112.5 63.96 112.5 
C 62.814323 112.5 61.715415 112.955182 60.905299 113.765299 
C 60.095182 114.575415 59.64 115.674323 59.64 116.82 
C 59.64 117.965677 60.095182 119.064585 60.905299 119.874701 
C 61.715415 120.684818 62.814323 121.14 63.96 121.14 
L 63.96 121.14 
z
" clip-path="url(#p2388aa39cc)" style="fill: none; stroke: #000000; stroke-width: 2; stroke-linejoin: miter"/>
   </g>
   <g id="line2d_1">
    <path d="M 176.46 90.585 
L 196.002857 90.518878 
L 198.06 90.225 
L 200.117143 89.69602 
L 202.174286 88.931939 
L 204.231429 87.932755 
L 206.288571 86.698469 
L 208.345714 85.229082 
L 210.402857 83.524592 
L 212.974286 81.063367 
L 215.545714 78.234796 
L 218.117143 75.038878 
L 219.66 72.945 
L 219.66 72.945 
L 217.088571 69.528673 
L 214.517143 66.479694 
L 211.945714 63.798061 
L 209.374286 61.483776 
L 207.317143 59.896837 
L 205.26 58.545 
L 203.202857 57.428265 
L 201.145714 56.546633 
L 199.088571 55.900102 
L 197.031429 55.488673 
L 194.974286 55.312347 
L 194.46 55.305 
L 176.46 55.305 
L 176.46 55.305 
L 178.4472 57.465 
L 180.1752 59.625 
L 181.644 61.785 
L 182.8536 63.945 
L 183.804 66.105 
L 184.4952 68.265 
L 184.9272 70.425 
L 185.1 72.585 
L 185.0136 74.745 
L 184.668 76.905 
L 184.0632 79.065 
L 183.1992 81.225 
L 182.076 83.385 
L 180.6936 85.545 
L 179.052 87.705 
L 177.1512 89.865 
L 176.46 90.585 
L 176.46 90.585 
" clip-path="url(#p2388aa39cc)" style="fill: none; stroke: #000000; stroke-width: 2; stroke-linecap: round"/>
   </g>
   <g id="line2d_2">
    <path d="M 171.06 90.585 
L 171.7512 89.865 
L 172.4136 89.145 
L 173.0472 88.425 
L 173.652 87.705 
L 174.228 86.985 
L 174.7752 86.265 
L 175.2936 85.545 
L 175.7832 84.825 
L 176.244 84.105 
L 176.676 83.385 
L 177.0792 82.665 
L 177.4536 81.945 
L 177.7992 81.225 
L 178.116 80.505 
L 178.404 79.785 
L 178.6632 79.065 
L 178.8936 78.345 
L 179.0952 77.625 
L 179.268 76.905 
L 179.412 76.185 
L 179.5272 75.465 
L 179.6136 74.745 
L 179.6712 74.025 
L 179.7 73.305 
L 179.7 72.585 
L 179.6712 71.865 
L 179.6136 71.145 
L 179.5272 70.425 
L 179.412 69.705 
L 179.268 68.985 
L 179.0952 68.265 
L 178.8936 67.545 
L 178.6632 66.825 
L 178.404 66.105 
L 178.116 65.385 
L 177.7992 64.665 
L 177.4536 63.945 
L 177.0792 63.225 
L 176.676 62.505 
L 176.244 61.785 
L 175.7832 61.065 
L 175.2936 60.345 
L 174.7752 59.625 
L 174.228 58.905 
L 173.652 58.185 
L 173.0472 57.465 
L 172.4136 56.745 
L 171.7512 56.025 
L 171.06 55.305 
" clip-path="url(#p2388aa39cc)" style="fill: none; stroke: #000000; stroke-width: 2; stroke-linecap: round"/>
   </g>
   <g id="line2d_3">
    <path d="M 163.86 81.945 
L 177.4536 81.945 
" clip-path="url(#p2388aa39cc)" style="fill: none; stroke: #000000; stroke-width: 2; stroke-linecap: round"/>
   </g>
   <g id="line2d_4">
    <path d="M 163.86 63.945 
L 177.4536 63.945 
" clip-path="url(#p2388aa39cc)" style="fill: none; stroke: #000000; stroke-width: 2; stroke-linecap: round"/>
   </g>
   <g id="line2d_5">
    <path d="M 228.3 72.945 
L 232.26 72.945 
" clip-path="url(#p2388aa39cc)" style="fill: none; stroke: #000000; stroke-width: 2; stroke-linecap: round"/>
   </g>
   <g id="line2d_6">
    <path d="M 104.46 60.21 
L 124.002857 60.143878 
L 126.06 59.85 
L 128.117143 59.32102 
L 130.174286 58.556939 
L 132.231429 57.557755 
L 134.288571 56.323469 
L 136.345714 54.854082 
L 138.402857 53.149592 
L 140.974286 50.688367 
L 143.545714 47.859796 
L 146.117143 44.663878 
L 147.66 42.57 
L 147.66 42.57 
L 145.088571 39.153673 
L 142.517143 36.104694 
L 139.945714 33.423061 
L 137.374286 31.108776 
L 135.317143 29.521837 
L 133.26 28.17 
L 131.202857 27.053265 
L 129.145714 26.171633 
L 127.088571 25.525102 
L 125.031429 25.113673 
L 122.974286 24.937347 
L 122.46 24.93 
L 104.46 24.93 
L 104.46 24.93 
L 106.4472 27.09 
L 108.1752 29.25 
L 109.644 31.41 
L 110.8536 33.57 
L 111.804 35.73 
L 112.4952 37.89 
L 112.9272 40.05 
L 113.1 42.21 
L 113.0136 44.37 
L 112.668 46.53 
L 112.0632 48.69 
L 111.1992 50.85 
L 110.076 53.01 
L 108.6936 55.17 
L 107.052 57.33 
L 105.1512 59.49 
L 104.46 60.21 
L 104.46 60.21 
" clip-path="url(#p2388aa39cc)" style="fill: none; stroke: #000000; stroke-width: 2; stroke-linecap: round"/>
   </g>
   <g id="line2d_7">
    <path d="M 91.86 51.57 
L 110.8536 51.57 
" clip-path="url(#p2388aa39cc)" style="fill: none; stroke: #000000; stroke-width: 2; stroke-linecap: round"/>
   </g>
   <g id="line2d_8">
    <path d="M 91.86 33.57 
L 110.8536 33.57 
" clip-path="url(#p2388aa39cc)" style="fill: none; stroke: #000000; stroke-width: 2; stroke-linecap: round"/>
   </g>
   <g id="line2d_9">
    <path d="M 156.3 42.57 
L 160.26 42.57 
" clip-path="url(#p2388aa39cc)" style="fill: none; stroke: #000000; stroke-width: 2; stroke-linecap: round"/>
   </g>
   <g id="line2d_10">
    <path d="M 32.46 39.96 
L 52.002857 39.893878 
L 54.06 39.6 
L 56.117143 39.07102 
L 58.174286 38.306939 
L 60.231429 37.307755 
L 62.288571 36.073469 
L 64.345714 34.604082 
L 66.402857 32.899592 
L 68.974286 30.438367 
L 71.545714 27.609796 
L 74.117143 24.413878 
L 75.66 22.32 
L 75.66 22.32 
L 73.088571 18.903673 
L 70.517143 15.854694 
L 67.945714 13.173061 
L 65.374286 10.858776 
L 63.317143 9.271837 
L 61.26 7.92 
L 59.202857 6.803265 
L 57.145714 5.921633 
L 55.088571 5.275102 
L 53.031429 4.863673 
L 50.974286 4.687347 
L 50.46 4.68 
L 32.46 4.68 
L 32.46 4.68 
L 34.4472 6.84 
L 36.1752 9 
L 37.644 11.16 
L 38.8536 13.32 
L 39.804 15.48 
L 40.4952 17.64 
L 40.9272 19.8 
L 41.1 21.96 
L 41.0136 24.12 
L 40.668 26.28 
L 40.0632 28.44 
L 39.1992 30.6 
L 38.076 32.76 
L 36.6936 34.92 
L 35.052 37.08 
L 33.1512 39.24 
L 32.46 39.96 
L 32.46 39.96 
" clip-path="url(#p2388aa39cc)" style="fill: none; stroke: #000000; stroke-width: 2; stroke-linecap: round"/>
   </g>
   <g id="line2d_11">
    <path d="M 27.06 39.96 
L 27.7512 39.24 
L 28.4136 38.52 
L 29.0472 37.8 
L 29.652 37.08 
L 30.228 36.36 
L 30.7752 35.64 
L 31.2936 34.92 
L 31.7832 34.2 
L 32.244 33.48 
L 32.676 32.76 
L 33.0792 32.04 
L 33.4536 31.32 
L 33.7992 30.6 
L 34.116 29.88 
L 34.404 29.16 
L 34.6632 28.44 
L 34.8936 27.72 
L 35.0952 27 
L 35.268 26.28 
L 35.412 25.56 
L 35.5272 24.84 
L 35.6136 24.12 
L 35.6712 23.4 
L 35.7 22.68 
L 35.7 21.96 
L 35.6712 21.24 
L 35.6136 20.52 
L 35.5272 19.8 
L 35.412 19.08 
L 35.268 18.36 
L 35.0952 17.64 
L 34.8936 16.92 
L 34.6632 16.2 
L 34.404 15.48 
L 34.116 14.76 
L 33.7992 14.04 
L 33.4536 13.32 
L 33.0792 12.6 
L 32.676 11.88 
L 32.244 11.16 
L 31.7832 10.44 
L 31.2936 9.72 
L 30.7752 9 
L 30.228 8.28 
L 29.652 7.56 
L 29.0472 6.84 
L 28.4136 6.12 
L 27.7512 5.4 
L 27.06 4.68 
" clip-path="url(#p2388aa39cc)" style="fill: none; stroke: #000000; stroke-width: 2; stroke-linecap: round"/>
   </g>
   <g id="line2d_12">
    <path d="M 19.86 31.32 
L 33.4536 31.32 
" clip-path="url(#p2388aa39cc)" style="fill: none; stroke: #000000; stroke-width: 2; stroke-linecap: round"/>
   </g>
   <g id="line2d_13">
    <path d="M 19.86 13.32 
L 33.4536 13.32 
" clip-path="url(#p2388aa39cc)" style="fill: none; stroke: #000000; stroke-width: 2; stroke-linecap: round"/>
   </g>
   <g id="line2d_14">
    <path d="M 75.66 22.32 
L 88.26 22.32 
" clip-path="url(#p2388aa39cc)" style="fill: none; stroke: #000000; stroke-width: 2; stroke-linecap: round"/>
   </g>
   <g id="line2d_15">
    <path d="M 91.86 33.57 
L 88.26 33.57 
L 88.26 22.32 
" clip-path="url(#p2388aa39cc)" style="fill: none; stroke: #000000; stroke-width: 2; stroke-linecap: round"/>
   </g>
   <g id="line2d_16">
    <path d="M 16.26 62.82 
L 36.24 62.82 
M 68.28 62.82 
L 88.26 62.82 
" clip-path="url(#p2388aa39cc)" style="fill: none; stroke: #000000; stroke-width: 2; stroke-linecap: round"/>
   </g>
   <g id="line2d_17">
    <path d="M 36.24 44.82 
L 59.64 62.82 
L 36.24 80.82 
L 36.24 44.82 
" clip-path="url(#p2388aa39cc)" style="fill: none; stroke: #000000; stroke-width: 2; stroke-linecap: round"/>
   </g>
   <g id="line2d_18">
    <path d="M 91.86 51.57 
L 88.26 51.57 
L 88.26 62.82 
" clip-path="url(#p2388aa39cc)" style="fill: none; stroke: #000000; stroke-width: 2; stroke-linecap: round"/>
   </g>
   <g id="line2d_19">
    <path d="M 163.86 63.945 
L 160.26 63.945 
L 160.26 42.57 
" clip-path="url(#p2388aa39cc)" style="fill: none; stroke: #000000; stroke-width: 2; stroke-linecap: round"/>
   </g>
   <g id="line2d_20">
    <path d="M 104.46 120.96 
L 124.002857 120.893878 
L 126.06 120.6 
L 128.117143 120.07102 
L 130.174286 119.306939 
L 132.231429 118.307755 
L 134.288571 117.073469 
L 136.345714 115.604082 
L 138.402857 113.899592 
L 140.974286 111.438367 
L 143.545714 108.609796 
L 146.117143 105.413878 
L 147.66 103.32 
L 147.66 103.32 
L 145.088571 99.903673 
L 142.517143 96.854694 
L 139.945714 94.173061 
L 137.374286 91.858776 
L 135.317143 90.271837 
L 133.26 88.92 
L 131.202857 87.803265 
L 129.145714 86.921633 
L 127.088571 86.275102 
L 125.031429 85.863673 
L 122.974286 85.687347 
L 122.46 85.68 
L 104.46 85.68 
L 104.46 85.68 
L 106.4472 87.84 
L 108.1752 90 
L 109.644 92.16 
L 110.8536 94.32 
L 111.804 96.48 
L 112.4952 98.64 
L 112.9272 100.8 
L 113.1 102.96 
L 113.0136 105.12 
L 112.668 107.28 
L 112.0632 109.44 
L 111.1992 111.6 
L 110.076 113.76 
L 108.6936 115.92 
L 107.052 118.08 
L 105.1512 120.24 
L 104.46 120.96 
L 104.46 120.96 
" clip-path="url(#p2388aa39cc)" style="fill: none; stroke: #000000; stroke-width: 2; stroke-linecap: round"/>
   </g>
   <g id="line2d_21">
    <path d="M 99.06 120.96 
L 99.7512 120.24 
L 100.4136 119.52 
L 101.0472 118.8 
L 101.652 118.08 
L 102.228 117.36 
L 102.7752 116.64 
L 103.2936 115.92 
L 103.7832 115.2 
L 104.244 114.48 
L 104.676 113.76 
L 105.0792 113.04 
L 105.4536 112.32 
L 105.7992 111.6 
L 106.116 110.88 
L 106.404 110.16 
L 106.6632 109.44 
L 106.8936 108.72 
L 107.0952 108 
L 107.268 107.28 
L 107.412 106.56 
L 107.5272 105.84 
L 107.6136 105.12 
L 107.6712 104.4 
L 107.7 103.68 
L 107.7 102.96 
L 107.6712 102.24 
L 107.6136 101.52 
L 107.5272 100.8 
L 107.412 100.08 
L 107.268 99.36 
L 107.0952 98.64 
L 106.8936 97.92 
L 106.6632 97.2 
L 106.404 96.48 
L 106.116 95.76 
L 105.7992 95.04 
L 105.4536 94.32 
L 105.0792 93.6 
L 104.676 92.88 
L 104.244 92.16 
L 103.7832 91.44 
L 103.2936 90.72 
L 102.7752 90 
L 102.228 89.28 
L 101.652 88.56 
L 101.0472 87.84 
L 100.4136 87.12 
L 99.7512 86.4 
L 99.06 85.68 
" clip-path="url(#p2388aa39cc)" style="fill: none; stroke: #000000; stroke-width: 2; stroke-linecap: round"/>
   </g>
   <g id="line2d_22">
    <path d="M 91.86 112.32 
L 105.4536 112.32 
" clip-path="url(#p2388aa39cc)" style="fill: none; stroke: #000000; stroke-width: 2; stroke-linecap: round"/>
   </g>
   <g id="line2d_23">
    <path d="M 91.86 94.32 
L 105.4536 94.32 
" clip-path="url(#p2388aa39cc)" style="fill: none; stroke: #000000; stroke-width: 2; stroke-linecap: round"/>
   </g>
   <g id="line2d_24">
    <path d="M 147.66 103.32 
L 160.26 103.32 
" clip-path="url(#p2388aa39cc)" style="fill: none; stroke: #000000; stroke-width: 2; stroke-linecap: round"/>
   </g>
   <g id="line2d_25">
    <path d="M 16.26 89.82 
L 36.24 89.82 
M 68.28 89.82 
L 88.26 89.82 
" clip-path="url(#p2388aa39cc)" style="fill: none; stroke: #000000; stroke-width: 2; stroke-linecap: round"/>
   </g>
   <g id="line2d_26">
    <path d="M 36.24 71.82 
L 59.64 89.82 
L 36.24 107.82 
L 36.24 71.82 
" clip-path="url(#p2388aa39cc)" style="fill: none; stroke: #000000; stroke-width: 2; stroke-linecap: round"/>
   </g>
   <g id="line2d_27">
    <path d="M 91.86 94.32 
L 88.26 94.32 
L 88.26 89.82 
" clip-path="url(#p2388aa39cc)" style="fill: none; stroke: #000000; stroke-width: 2; stroke-linecap: round"/>
   </g>
   <g id="line2d_28">
    <path d="M 16.26 116.82 
L 36.24 116.82 
M 68.28 116.82 
L 88.26 116.82 
" clip-path="url(#p2388aa39cc)" style="fill: none; stroke: #000000; stroke-width: 2; stroke-linecap: round"/>
   </g>
   <g id="line2d_29">
    <path d="M 36.24 98.82 
L 59.64 116.82 
L 36.24 134.82 
L 36.24 98.82 
" clip-path="url(#p2388aa39cc)" style="fill: none; stroke: #000000; stroke-width: 2; stroke-linecap: round"/>
   </g>
   <g id="line2d_30">
    <path d="M 91.86 112.32 
L 88.26 112.32 
L 88.26 116.82 
" clip-path="url(#p2388aa39cc)" style="fill: none; stroke: #000000; stroke-width: 2; stroke-linecap: round"/>
   </g>
   <g id="line2d_31">
    <path d="M 163.86 81.945 
L 160.26 81.945 
L 160.26 103.32 
" clip-path="url(#p2388aa39cc)" style="fill: none; stroke: #000000; stroke-width: 2; stroke-linecap: round"/>
   </g>
   <g id="text_1">
    <!-- $\text{Output}$ -->
    <g transform="translate(235.86 76.779687) scale(0.14 -0.14)">
     <defs>
      <path id="DejaVuSans-4f" d="M 2522 4238 
Q 1834 4238 1429 3725 
Q 1025 3213 1025 2328 
Q 1025 1447 1429 934 
Q 1834 422 2522 422 
Q 3209 422 3611 934 
Q 4013 1447 4013 2328 
Q 4013 3213 3611 3725 
Q 3209 4238 2522 4238 
z
M 2522 4750 
Q 3503 4750 4090 4092 
Q 4678 3434 4678 2328 
Q 4678 1225 4090 567 
Q 3503 -91 2522 -91 
Q 1538 -91 948 565 
Q 359 1222 359 2328 
Q 359 3434 948 4092 
Q 1538 4750 2522 4750 
z
" transform="scale(0.015625)"/>
      <path id="DejaVuSans-75" d="M 544 1381 
L 544 3500 
L 1119 3500 
L 1119 1403 
Q 1119 906 1312 657 
Q 1506 409 1894 409 
Q 2359 409 2629 706 
Q 2900 1003 2900 1516 
L 2900 3500 
L 3475 3500 
L 3475 0 
L 2900 0 
L 2900 538 
Q 2691 219 2414 64 
Q 2138 -91 1772 -91 
Q 1169 -91 856 284 
Q 544 659 544 1381 
z
M 1991 3584 
L 1991 3584 
z
" transform="scale(0.015625)"/>
      <path id="DejaVuSans-74" d="M 1172 4494 
L 1172 3500 
L 2356 3500 
L 2356 3053 
L 1172 3053 
L 1172 1153 
Q 1172 725 1289 603 
Q 1406 481 1766 481 
L 2356 481 
L 2356 0 
L 1766 0 
Q 1100 0 847 248 
Q 594 497 594 1153 
L 594 3053 
L 172 3053 
L 172 3500 
L 594 3500 
L 594 4494 
L 1172 4494 
z
" transform="scale(0.015625)"/>
      <path id="DejaVuSans-70" d="M 1159 525 
L 1159 -1331 
L 581 -1331 
L 581 3500 
L 1159 3500 
L 1159 2969 
Q 1341 3281 1617 3432 
Q 1894 3584 2278 3584 
Q 2916 3584 3314 3078 
Q 3713 2572 3713 1747 
Q 3713 922 3314 415 
Q 2916 -91 2278 -91 
Q 1894 -91 1617 61 
Q 1341 213 1159 525 
z
M 3116 1747 
Q 3116 2381 2855 2742 
Q 2594 3103 2138 3103 
Q 1681 3103 1420 2742 
Q 1159 2381 1159 1747 
Q 1159 1113 1420 752 
Q 1681 391 2138 391 
Q 2594 391 2855 752 
Q 3116 1113 3116 1747 
z
" transform="scale(0.015625)"/>
     </defs>
     <use xlink:href="#DejaVuSans-4f" transform="translate(0 0.78125)"/>
     <use xlink:href="#DejaVuSans-75" transform="translate(78.710938 0.78125)"/>
     <use xlink:href="#DejaVuSans-74" transform="translate(142.089844 0.78125)"/>
     <use xlink:href="#DejaVuSans-70" transform="translate(181.298828 0.78125)"/>
     <use xlink:href="#DejaVuSans-75" transform="translate(244.775391 0.78125)"/>
     <use xlink:href="#DejaVuSans-74" transform="translate(308.154297 0.78125)"/>
    </g>
   </g>
   <g id="text_2">
    <!-- c -->
    <g transform="translate(8.562187 17.183125) scale(0.14 -0.14)">
     <defs>
      <path id="DejaVuSans-63" d="M 3122 3366 
L 3122 2828 
Q 2878 2963 2633 3030 
Q 2388 3097 2138 3097 
Q 1578 3097 1268 2742 
Q 959 2388 959 1747 
Q 959 1106 1268 751 
Q 1578 397 2138 397 
Q 2388 397 2633 464 
Q 2878 531 3122 666 
L 3122 134 
Q 2881 22 2623 -34 
Q 2366 -91 2075 -91 
Q 1284 -91 818 406 
Q 353 903 353 1747 
Q 353 2603 823 3093 
Q 1294 3584 2113 3584 
Q 2378 3584 2631 3529 
Q 2884 3475 3122 3366 
z
" transform="scale(0.015625)"/>
     </defs>
     <use xlink:href="#DejaVuSans-63"/>
    </g>
   </g>
   <g id="text_3">
    <!-- a -->
    <g transform="translate(7.680625 35.183125) scale(0.14 -0.14)">
     <defs>
      <path id="DejaVuSans-61" d="M 2194 1759 
Q 1497 1759 1228 1600 
Q 959 1441 959 1056 
Q 959 750 1161 570 
Q 1363 391 1709 391 
Q 2188 391 2477 730 
Q 2766 1069 2766 1631 
L 2766 1759 
L 2194 1759 
z
M 3341 1997 
L 3341 0 
L 2766 0 
L 2766 531 
Q 2569 213 2275 61 
Q 1981 -91 1556 -91 
Q 1019 -91 701 211 
Q 384 513 384 1019 
Q 384 1609 779 1909 
Q 1175 2209 1959 2209 
L 2766 2209 
L 2766 2266 
Q 2766 2663 2505 2880 
Q 2244 3097 1772 3097 
Q 1472 3097 1187 3025 
Q 903 2953 641 2809 
L 641 3341 
Q 956 3463 1253 3523 
Q 1550 3584 1831 3584 
Q 2591 3584 2966 3190 
Q 3341 2797 3341 1997 
z
" transform="scale(0.015625)"/>
     </defs>
     <use xlink:href="#DejaVuSans-61"/>
    </g>
   </g>
   <g id="text_4">
    <!-- b -->
    <g transform="translate(3.772187 66.683125) scale(0.14 -0.14)">
     <defs>
      <path id="DejaVuSans-62" d="M 3116 1747 
Q 3116 2381 2855 2742 
Q 2594 3103 2138 3103 
Q 1681 3103 1420 2742 
Q 1159 2381 1159 1747 
Q 1159 1113 1420 752 
Q 1681 391 2138 391 
Q 2594 391 2855 752 
Q 3116 1113 3116 1747 
z
M 1159 2969 
Q 1341 3281 1617 3432 
Q 1894 3584 2278 3584 
Q 2916 3584 3314 3078 
Q 3713 2572 3713 1747 
Q 3713 922 3314 415 
Q 2916 -91 2278 -91 
Q 1894 -91 1617 61 
Q 1341 213 1159 525 
L 1159 0 
L 581 0 
L 581 4863 
L 1159 4863 
L 1159 2969 
z
" transform="scale(0.015625)"/>
     </defs>
     <use xlink:href="#DejaVuSans-62"/>
    </g>
   </g>
   <g id="text_5">
    <!-- b -->
    <g transform="translate(3.772187 93.683125) scale(0.14 -0.14)">
     <use xlink:href="#DejaVuSans-62"/>
    </g>
   </g>
   <g id="text_6">
    <!-- a -->
    <g transform="translate(4.080625 120.683125) scale(0.14 -0.14)">
     <use xlink:href="#DejaVuSans-61"/>
    </g>
   </g>
  </g>
 </g>
 <defs>
  <clipPath id="p2388aa39cc">
   <rect x="0" y="0" width="322.44" height="139.5"/>
  </clipPath>
 </defs>
</svg>
