<?xml version="1.0" encoding="utf-8" standalone="no"?>
<!DOCTYPE svg PUBLIC "-//W3C//DTD SVG 1.1//EN"
  "http://www.w3.org/Graphics/SVG/1.1/DTD/svg11.dtd">
<svg xmlns:xlink="http://www.w3.org/1999/xlink" width="320.268pt" height="139.14pt" viewBox="0 0 320.268 139.14" xmlns="http://www.w3.org/2000/svg" version="1.1">
 <metadata>
  <rdf:RDF xmlns:dc="http://purl.org/dc/elements/1.1/" xmlns:cc="http://creativecommons.org/ns#" xmlns:rdf="http://www.w3.org/1999/02/22-rdf-syntax-ns#">
   <cc:Work>
    <dc:type rdf:resource="http://purl.org/dc/dcmitype/StillImage"/>
    <dc:date>2024-10-01T14:30:22.574468</dc:date>
    <dc:format>image/svg+xml</dc:format>
    <dc:creator>
     <cc:Agent>
      <dc:title>Matplotlib v3.9.0, https://matplotlib.org/</dc:title>
     </cc:Agent>
    </dc:creator>
   </cc:Work>
  </rdf:RDF>
 </metadata>
 <defs>
  <style type="text/css">*{stroke-linejoin: round; stroke-linecap: butt}</style>
 </defs>
 <g id="figure_1">
  <g id="patch_1">
   <path d="M 0 139.14 
L 320.268 139.14 
L 320.268 0 
L 0 0 
L 0 139.14 
z
" style="fill: none"/>
  </g>
  <g id="axes_1">
   <g id="patch_2">
    <path d="M 221.808 60.39 
C 222.953677 60.39 224.052585 59.934818 224.862701 59.124701 
C 225.672818 58.314585 226.128 57.215677 226.128 56.07 
C 226.128 54.924323 225.672818 53.825415 224.862701 53.015299 
C 224.052585 52.205182 222.953677 51.75 221.808 51.75 
C 220.662323 51.75 219.563415 52.205182 218.753299 53.015299 
C 217.943182 53.825415 217.488 54.924323 217.488 56.07 
C 217.488 57.215677 217.943182 58.314585 218.753299 59.124701 
C 219.563415 59.934818 220.662323 60.39 221.808 60.39 
L 221.808 60.39 
z
" clip-path="url(#p2e8b941ee9)" style="fill: none; stroke: #000000; stroke-width: 2; stroke-linejoin: miter"/>
   </g>
   <g id="patch_3">
    <path d="M 77.808 67.14 
C 78.953677 67.14 80.052585 66.684818 80.862701 65.874701 
C 81.672818 65.064585 82.128 63.965677 82.128 62.82 
C 82.128 61.674323 81.672818 60.575415 80.862701 59.765299 
C 80.052585 58.955182 78.953677 58.5 77.808 58.5 
C 76.662323 58.5 75.563415 58.955182 74.753299 59.765299 
C 73.943182 60.575415 73.488 61.674323 73.488 62.82 
C 73.488 63.965677 73.943182 65.064585 74.753299 65.874701 
C 75.563415 66.684818 76.662323 67.14 77.808 67.14 
L 77.808 67.14 
z
" clip-path="url(#p2e8b941ee9)" style="fill: none; stroke: #000000; stroke-width: 2; stroke-linejoin: miter"/>
   </g>
   <g id="line2d_1">
    <path d="M 174.288 73.71 
L 193.830857 73.643878 
L 195.888 73.35 
L 197.945143 72.82102 
L 200.002286 72.056939 
L 202.059429 71.057755 
L 204.116571 69.823469 
L 206.173714 68.354082 
L 208.230857 66.649592 
L 210.802286 64.188367 
L 213.373714 61.359796 
L 215.945143 58.163878 
L 217.488 56.07 
L 217.488 56.07 
L 214.916571 52.653673 
L 212.345143 49.604694 
L 209.773714 46.923061 
L 207.202286 44.608776 
L 205.145143 43.021837 
L 203.088 41.67 
L 201.030857 40.553265 
L 198.973714 39.671633 
L 196.916571 39.025102 
L 194.859429 38.613673 
L 192.802286 38.437347 
L 192.288 38.43 
L 174.288 38.43 
L 174.288 38.43 
L 176.2752 40.59 
L 178.0032 42.75 
L 179.472 44.91 
L 180.6816 47.07 
L 181.632 49.23 
L 182.3232 51.39 
L 182.7552 53.55 
L 182.928 55.71 
L 182.8416 57.87 
L 182.496 60.03 
L 181.8912 62.19 
L 181.0272 64.35 
L 179.904 66.51 
L 178.5216 68.67 
L 176.88 70.83 
L 174.9792 72.99 
L 174.288 73.71 
L 174.288 73.71 
" clip-path="url(#p2e8b941ee9)" style="fill: none; stroke: #000000; stroke-width: 2; stroke-linecap: round"/>
   </g>
   <g id="line2d_2">
    <path d="M 168.888 73.71 
L 169.5792 72.99 
L 170.2416 72.27 
L 170.8752 71.55 
L 171.48 70.83 
L 172.056 70.11 
L 172.6032 69.39 
L 173.1216 68.67 
L 173.6112 67.95 
L 174.072 67.23 
L 174.504 66.51 
L 174.9072 65.79 
L 175.2816 65.07 
L 175.6272 64.35 
L 175.944 63.63 
L 176.232 62.91 
L 176.4912 62.19 
L 176.7216 61.47 
L 176.9232 60.75 
L 177.096 60.03 
L 177.24 59.31 
L 177.3552 58.59 
L 177.4416 57.87 
L 177.4992 57.15 
L 177.528 56.43 
L 177.528 55.71 
L 177.4992 54.99 
L 177.4416 54.27 
L 177.3552 53.55 
L 177.24 52.83 
L 177.096 52.11 
L 176.9232 51.39 
L 176.7216 50.67 
L 176.4912 49.95 
L 176.232 49.23 
L 175.944 48.51 
L 175.6272 47.79 
L 175.2816 47.07 
L 174.9072 46.35 
L 174.504 45.63 
L 174.072 44.91 
L 173.6112 44.19 
L 173.1216 43.47 
L 172.6032 42.75 
L 172.056 42.03 
L 171.48 41.31 
L 170.8752 40.59 
L 170.2416 39.87 
L 169.5792 39.15 
L 168.888 38.43 
" clip-path="url(#p2e8b941ee9)" style="fill: none; stroke: #000000; stroke-width: 2; stroke-linecap: round"/>
   </g>
   <g id="line2d_3">
    <path d="M 161.688 65.07 
L 175.2816 65.07 
" clip-path="url(#p2e8b941ee9)" style="fill: none; stroke: #000000; stroke-width: 2; stroke-linecap: round"/>
   </g>
   <g id="line2d_4">
    <path d="M 161.688 47.07 
L 175.2816 47.07 
" clip-path="url(#p2e8b941ee9)" style="fill: none; stroke: #000000; stroke-width: 2; stroke-linecap: round"/>
   </g>
   <g id="line2d_5">
    <path d="M 226.128 56.07 
L 230.088 56.07 
" clip-path="url(#p2e8b941ee9)" style="fill: none; stroke: #000000; stroke-width: 2; stroke-linecap: round"/>
   </g>
   <g id="line2d_6">
    <path d="M 102.288 39.96 
L 121.830857 39.893878 
L 123.888 39.6 
L 125.945143 39.07102 
L 128.002286 38.306939 
L 130.059429 37.307755 
L 132.116571 36.073469 
L 134.173714 34.604082 
L 136.230857 32.899592 
L 138.802286 30.438367 
L 141.373714 27.609796 
L 143.945143 24.413878 
L 145.488 22.32 
L 145.488 22.32 
L 142.916571 18.903673 
L 140.345143 15.854694 
L 137.773714 13.173061 
L 135.202286 10.858776 
L 133.145143 9.271837 
L 131.088 7.92 
L 129.030857 6.803265 
L 126.973714 5.921633 
L 124.916571 5.275102 
L 122.859429 4.863673 
L 120.802286 4.687347 
L 120.288 4.68 
L 102.288 4.68 
L 102.288 4.68 
L 104.2752 6.84 
L 106.0032 9 
L 107.472 11.16 
L 108.6816 13.32 
L 109.632 15.48 
L 110.3232 17.64 
L 110.7552 19.8 
L 110.928 21.96 
L 110.8416 24.12 
L 110.496 26.28 
L 109.8912 28.44 
L 109.0272 30.6 
L 107.904 32.76 
L 106.5216 34.92 
L 104.88 37.08 
L 102.9792 39.24 
L 102.288 39.96 
L 102.288 39.96 
" clip-path="url(#p2e8b941ee9)" style="fill: none; stroke: #000000; stroke-width: 2; stroke-linecap: round"/>
   </g>
   <g id="line2d_7">
    <path d="M 89.688 31.32 
L 108.6816 31.32 
" clip-path="url(#p2e8b941ee9)" style="fill: none; stroke: #000000; stroke-width: 2; stroke-linecap: round"/>
   </g>
   <g id="line2d_8">
    <path d="M 89.688 13.32 
L 108.6816 13.32 
" clip-path="url(#p2e8b941ee9)" style="fill: none; stroke: #000000; stroke-width: 2; stroke-linecap: round"/>
   </g>
   <g id="line2d_9">
    <path d="M 145.488 22.32 
L 158.088 22.32 
" clip-path="url(#p2e8b941ee9)" style="fill: none; stroke: #000000; stroke-width: 2; stroke-linecap: round"/>
   </g>
   <g id="line2d_10">
    <path d="M 161.688 47.07 
L 158.088 47.07 
L 158.088 22.32 
" clip-path="url(#p2e8b941ee9)" style="fill: none; stroke: #000000; stroke-width: 2; stroke-linecap: round"/>
   </g>
   <g id="line2d_11">
    <path d="M 102.288 107.46 
L 121.830857 107.393878 
L 123.888 107.1 
L 125.945143 106.57102 
L 128.002286 105.806939 
L 130.059429 104.807755 
L 132.116571 103.573469 
L 134.173714 102.104082 
L 136.230857 100.399592 
L 138.802286 97.938367 
L 141.373714 95.109796 
L 143.945143 91.913878 
L 145.488 89.82 
L 145.488 89.82 
L 142.916571 86.403673 
L 140.345143 83.354694 
L 137.773714 80.673061 
L 135.202286 78.358776 
L 133.145143 76.771837 
L 131.088 75.42 
L 129.030857 74.303265 
L 126.973714 73.421633 
L 124.916571 72.775102 
L 122.859429 72.363673 
L 120.802286 72.187347 
L 120.288 72.18 
L 102.288 72.18 
L 102.288 72.18 
L 104.2752 74.34 
L 106.0032 76.5 
L 107.472 78.66 
L 108.6816 80.82 
L 109.632 82.98 
L 110.3232 85.14 
L 110.7552 87.3 
L 110.928 89.46 
L 110.8416 91.62 
L 110.496 93.78 
L 109.8912 95.94 
L 109.0272 98.1 
L 107.904 100.26 
L 106.5216 102.42 
L 104.88 104.58 
L 102.9792 106.74 
L 102.288 107.46 
L 102.288 107.46 
" clip-path="url(#p2e8b941ee9)" style="fill: none; stroke: #000000; stroke-width: 2; stroke-linecap: round"/>
   </g>
   <g id="line2d_12">
    <path d="M 96.888 107.46 
L 97.5792 106.74 
L 98.2416 106.02 
L 98.8752 105.3 
L 99.48 104.58 
L 100.056 103.86 
L 100.6032 103.14 
L 101.1216 102.42 
L 101.6112 101.7 
L 102.072 100.98 
L 102.504 100.26 
L 102.9072 99.54 
L 103.2816 98.82 
L 103.6272 98.1 
L 103.944 97.38 
L 104.232 96.66 
L 104.4912 95.94 
L 104.7216 95.22 
L 104.9232 94.5 
L 105.096 93.78 
L 105.24 93.06 
L 105.3552 92.34 
L 105.4416 91.62 
L 105.4992 90.9 
L 105.528 90.18 
L 105.528 89.46 
L 105.4992 88.74 
L 105.4416 88.02 
L 105.3552 87.3 
L 105.24 86.58 
L 105.096 85.86 
L 104.9232 85.14 
L 104.7216 84.42 
L 104.4912 83.7 
L 104.232 82.98 
L 103.944 82.26 
L 103.6272 81.54 
L 103.2816 80.82 
L 102.9072 80.1 
L 102.504 79.38 
L 102.072 78.66 
L 101.6112 77.94 
L 101.1216 77.22 
L 100.6032 76.5 
L 100.056 75.78 
L 99.48 75.06 
L 98.8752 74.34 
L 98.2416 73.62 
L 97.5792 72.9 
L 96.888 72.18 
" clip-path="url(#p2e8b941ee9)" style="fill: none; stroke: #000000; stroke-width: 2; stroke-linecap: round"/>
   </g>
   <g id="line2d_13">
    <path d="M 89.688 98.82 
L 103.2816 98.82 
" clip-path="url(#p2e8b941ee9)" style="fill: none; stroke: #000000; stroke-width: 2; stroke-linecap: round"/>
   </g>
   <g id="line2d_14">
    <path d="M 89.688 80.82 
L 103.2816 80.82 
" clip-path="url(#p2e8b941ee9)" style="fill: none; stroke: #000000; stroke-width: 2; stroke-linecap: round"/>
   </g>
   <g id="line2d_15">
    <path d="M 145.488 89.82 
L 158.088 89.82 
" clip-path="url(#p2e8b941ee9)" style="fill: none; stroke: #000000; stroke-width: 2; stroke-linecap: round"/>
   </g>
   <g id="line2d_16">
    <path d="M 55.488 80.82 
L 56.641264 80.783017 
L 57.789789 80.67222 
L 58.928855 80.488065 
L 60.053783 80.231308 
L 61.159948 79.903003 
L 62.242806 79.504502 
L 63.297907 79.03744 
L 64.320916 78.503737 
L 65.307628 77.905586 
L 66.25399 77.245445 
L 67.156111 76.526027 
L 68.010286 75.750288 
L 68.813004 74.921416 
L 69.560967 74.042816 
L 70.251101 73.1181 
L 70.88057 72.151066 
L 71.446788 71.145689 
L 71.947427 70.1061 
L 72.380432 69.036571 
L 72.744021 67.941497 
L 73.036702 66.825377 
L 73.257272 65.692798 
L 73.404824 64.548414 
L 73.478752 63.396928 
L 73.478752 62.243072 
L 73.404824 61.091586 
L 73.257272 59.947202 
L 73.036702 58.814623 
L 72.744021 57.698503 
L 72.380432 56.603429 
L 71.947427 55.5339 
L 71.446788 54.494311 
L 70.88057 53.488934 
L 70.251101 52.5219 
L 69.560967 51.597184 
L 68.813004 50.718584 
L 68.010286 49.889712 
L 67.156111 49.113973 
L 66.25399 48.394555 
L 65.307628 47.734414 
L 64.320916 47.136263 
L 63.297907 46.60256 
L 62.242806 46.135498 
L 61.159948 45.736997 
L 60.053783 45.408692 
L 58.928855 45.151935 
L 57.789789 44.96778 
L 56.641264 44.856983 
L 55.488 44.82 
L 55.488 44.82 
L 32.088 44.82 
L 32.088 62.82 
L 32.088 80.82 
L 55.488 80.82 
" clip-path="url(#p2e8b941ee9)" style="fill: none; stroke: #000000; stroke-width: 2; stroke-linecap: round"/>
   </g>
   <g id="line2d_17">
    <path d="M 19.488 71.82 
L 32.088 71.82 
" clip-path="url(#p2e8b941ee9)" style="fill: none; stroke: #000000; stroke-width: 2; stroke-linecap: round"/>
   </g>
   <g id="line2d_18">
    <path d="M 19.488 53.82 
L 32.088 53.82 
" clip-path="url(#p2e8b941ee9)" style="fill: none; stroke: #000000; stroke-width: 2; stroke-linecap: round"/>
   </g>
   <g id="line2d_19">
    <path d="M 82.128 62.82 
L 86.088 62.82 
" clip-path="url(#p2e8b941ee9)" style="fill: none; stroke: #000000; stroke-width: 2; stroke-linecap: round"/>
   </g>
   <g id="line2d_20">
    <path d="M 89.688 80.82 
L 86.088 80.82 
L 86.088 62.82 
" clip-path="url(#p2e8b941ee9)" style="fill: none; stroke: #000000; stroke-width: 2; stroke-linecap: round"/>
   </g>
   <g id="line2d_21">
    <path d="M 30.288 134.46 
L 49.830857 134.393878 
L 51.888 134.1 
L 53.945143 133.57102 
L 56.002286 132.806939 
L 58.059429 131.807755 
L 60.116571 130.573469 
L 62.173714 129.104082 
L 64.230857 127.399592 
L 66.802286 124.938367 
L 69.373714 122.109796 
L 71.945143 118.913878 
L 73.488 116.82 
L 73.488 116.82 
L 70.916571 113.403673 
L 68.345143 110.354694 
L 65.773714 107.673061 
L 63.202286 105.358776 
L 61.145143 103.771837 
L 59.088 102.42 
L 57.030857 101.303265 
L 54.973714 100.421633 
L 52.916571 99.775102 
L 50.859429 99.363673 
L 48.802286 99.187347 
L 48.288 99.18 
L 30.288 99.18 
L 30.288 99.18 
L 32.2752 101.34 
L 34.0032 103.5 
L 35.472 105.66 
L 36.6816 107.82 
L 37.632 109.98 
L 38.3232 112.14 
L 38.7552 114.3 
L 38.928 116.46 
L 38.8416 118.62 
L 38.496 120.78 
L 37.8912 122.94 
L 37.0272 125.1 
L 35.904 127.26 
L 34.5216 129.42 
L 32.88 131.58 
L 30.9792 133.74 
L 30.288 134.46 
L 30.288 134.46 
" clip-path="url(#p2e8b941ee9)" style="fill: none; stroke: #000000; stroke-width: 2; stroke-linecap: round"/>
   </g>
   <g id="line2d_22">
    <path d="M 17.688 125.82 
L 36.6816 125.82 
" clip-path="url(#p2e8b941ee9)" style="fill: none; stroke: #000000; stroke-width: 2; stroke-linecap: round"/>
   </g>
   <g id="line2d_23">
    <path d="M 17.688 107.82 
L 36.6816 107.82 
" clip-path="url(#p2e8b941ee9)" style="fill: none; stroke: #000000; stroke-width: 2; stroke-linecap: round"/>
   </g>
   <g id="line2d_24">
    <path d="M 73.488 116.82 
L 86.088 116.82 
" clip-path="url(#p2e8b941ee9)" style="fill: none; stroke: #000000; stroke-width: 2; stroke-linecap: round"/>
   </g>
   <g id="line2d_25">
    <path d="M 89.688 98.82 
L 86.088 98.82 
L 86.088 116.82 
" clip-path="url(#p2e8b941ee9)" style="fill: none; stroke: #000000; stroke-width: 2; stroke-linecap: round"/>
   </g>
   <g id="line2d_26">
    <path d="M 161.688 65.07 
L 158.088 65.07 
L 158.088 89.82 
" clip-path="url(#p2e8b941ee9)" style="fill: none; stroke: #000000; stroke-width: 2; stroke-linecap: round"/>
   </g>
   <g id="text_1">
    <!-- $\text{Output}$ -->
    <g transform="translate(233.688 59.904687) scale(0.14 -0.14)">
     <defs>
      <path id="DejaVuSans-4f" d="M 2522 4238 
Q 1834 4238 1429 3725 
Q 1025 3213 1025 2328 
Q 1025 1447 1429 934 
Q 1834 422 2522 422 
Q 3209 422 3611 934 
Q 4013 1447 4013 2328 
Q 4013 3213 3611 3725 
Q 3209 4238 2522 4238 
z
M 2522 4750 
Q 3503 4750 4090 4092 
Q 4678 3434 4678 2328 
Q 4678 1225 4090 567 
Q 3503 -91 2522 -91 
Q 1538 -91 948 565 
Q 359 1222 359 2328 
Q 359 3434 948 4092 
Q 1538 4750 2522 4750 
z
" transform="scale(0.015625)"/>
      <path id="DejaVuSans-75" d="M 544 1381 
L 544 3500 
L 1119 3500 
L 1119 1403 
Q 1119 906 1312 657 
Q 1506 409 1894 409 
Q 2359 409 2629 706 
Q 2900 1003 2900 1516 
L 2900 3500 
L 3475 3500 
L 3475 0 
L 2900 0 
L 2900 538 
Q 2691 219 2414 64 
Q 2138 -91 1772 -91 
Q 1169 -91 856 284 
Q 544 659 544 1381 
z
M 1991 3584 
L 1991 3584 
z
" transform="scale(0.015625)"/>
      <path id="DejaVuSans-74" d="M 1172 4494 
L 1172 3500 
L 2356 3500 
L 2356 3053 
L 1172 3053 
L 1172 1153 
Q 1172 725 1289 603 
Q 1406 481 1766 481 
L 2356 481 
L 2356 0 
L 1766 0 
Q 1100 0 847 248 
Q 594 497 594 1153 
L 594 3053 
L 172 3053 
L 172 3500 
L 594 3500 
L 594 4494 
L 1172 4494 
z
" transform="scale(0.015625)"/>
      <path id="DejaVuSans-70" d="M 1159 525 
L 1159 -1331 
L 581 -1331 
L 581 3500 
L 1159 3500 
L 1159 2969 
Q 1341 3281 1617 3432 
Q 1894 3584 2278 3584 
Q 2916 3584 3314 3078 
Q 3713 2572 3713 1747 
Q 3713 922 3314 415 
Q 2916 -91 2278 -91 
Q 1894 -91 1617 61 
Q 1341 213 1159 525 
z
M 3116 1747 
Q 3116 2381 2855 2742 
Q 2594 3103 2138 3103 
Q 1681 3103 1420 2742 
Q 1159 2381 1159 1747 
Q 1159 1113 1420 752 
Q 1681 391 2138 391 
Q 2594 391 2855 752 
Q 3116 1113 3116 1747 
z
" transform="scale(0.015625)"/>
     </defs>
     <use xlink:href="#DejaVuSans-4f" transform="translate(0 0.78125)"/>
     <use xlink:href="#DejaVuSans-75" transform="translate(78.710938 0.78125)"/>
     <use xlink:href="#DejaVuSans-74" transform="translate(142.089844 0.78125)"/>
     <use xlink:href="#DejaVuSans-70" transform="translate(181.298828 0.78125)"/>
     <use xlink:href="#DejaVuSans-75" transform="translate(244.775391 0.78125)"/>
     <use xlink:href="#DejaVuSans-74" transform="translate(308.154297 0.78125)"/>
    </g>
   </g>
   <g id="text_2">
    <!-- A -->
    <g transform="translate(76.511125 17.183125) scale(0.14 -0.14)">
     <defs>
      <path id="DejaVuSans-41" d="M 2188 4044 
L 1331 1722 
L 3047 1722 
L 2188 4044 
z
M 1831 4666 
L 2547 4666 
L 4325 0 
L 3669 0 
L 3244 1197 
L 1141 1197 
L 716 0 
L 50 0 
L 1831 4666 
z
" transform="scale(0.015625)"/>
     </defs>
     <use xlink:href="#DejaVuSans-41"/>
    </g>
   </g>
   <g id="text_3">
    <!-- B -->
    <g transform="translate(76.482687 35.183125) scale(0.14 -0.14)">
     <defs>
      <path id="DejaVuSans-42" d="M 1259 2228 
L 1259 519 
L 2272 519 
Q 2781 519 3026 730 
Q 3272 941 3272 1375 
Q 3272 1813 3026 2020 
Q 2781 2228 2272 2228 
L 1259 2228 
z
M 1259 4147 
L 1259 2741 
L 2194 2741 
Q 2656 2741 2882 2914 
Q 3109 3088 3109 3444 
Q 3109 3797 2882 3972 
Q 2656 4147 2194 4147 
L 1259 4147 
z
M 628 4666 
L 2241 4666 
Q 2963 4666 3353 4366 
Q 3744 4066 3744 3513 
Q 3744 3084 3544 2831 
Q 3344 2578 2956 2516 
Q 3422 2416 3680 2098 
Q 3938 1781 3938 1306 
Q 3938 681 3513 340 
Q 3088 0 2303 0 
L 628 0 
L 628 4666 
z
" transform="scale(0.015625)"/>
     </defs>
     <use xlink:href="#DejaVuSans-42"/>
    </g>
   </g>
   <g id="text_4">
    <!-- A -->
    <g transform="translate(6.311125 57.683125) scale(0.14 -0.14)">
     <use xlink:href="#DejaVuSans-41"/>
    </g>
   </g>
   <g id="text_5">
    <!-- C -->
    <g transform="translate(6.112062 75.683125) scale(0.14 -0.14)">
     <defs>
      <path id="DejaVuSans-43" d="M 4122 4306 
L 4122 3641 
Q 3803 3938 3442 4084 
Q 3081 4231 2675 4231 
Q 1875 4231 1450 3742 
Q 1025 3253 1025 2328 
Q 1025 1406 1450 917 
Q 1875 428 2675 428 
Q 3081 428 3442 575 
Q 3803 722 4122 1019 
L 4122 359 
Q 3791 134 3420 21 
Q 3050 -91 2638 -91 
Q 1578 -91 968 557 
Q 359 1206 359 2328 
Q 359 3453 968 4101 
Q 1578 4750 2638 4750 
Q 3056 4750 3426 4639 
Q 3797 4528 4122 4306 
z
" transform="scale(0.015625)"/>
     </defs>
     <use xlink:href="#DejaVuSans-43"/>
    </g>
   </g>
   <g id="text_6">
    <!-- B -->
    <g transform="translate(4.482687 111.683125) scale(0.14 -0.14)">
     <use xlink:href="#DejaVuSans-42"/>
    </g>
   </g>
   <g id="text_7">
    <!-- C -->
    <g transform="translate(4.312062 129.683125) scale(0.14 -0.14)">
     <use xlink:href="#DejaVuSans-43"/>
    </g>
   </g>
  </g>
 </g>
 <defs>
  <clipPath id="p2e8b941ee9">
   <rect x="0" y="0" width="320.268" height="139.14"/>
  </clipPath>
 </defs>
</svg>
