<svg xmlns="http://www.w3.org/2000/svg" xml:lang="en" height="98.84pt" width="246.68pt" viewBox="-156.57999999999998 -8.740000000000004 246.68 98.84"><path d="M -30.6,58.5 L -29.446736040347172,58.46301706950605 L -28.298211089678894,58.352220248818426 L -27.1591446833753,58.168064825839174 L -26.03421748962887,57.91130753470253 L -24.928052075574826,57.58300344619204 L -23.84519391217127,57.18450163222839 L -22.790092695883956,56.717439622243546 L -21.767084063929126,56.18373667422101 L -20.780371778210124,55.58558588805314 L -19.83401045115812,54.925445193623226 L -18.931888884459806,54.20602725064442 L -18.077714089137253,53.4302883017591 L -17.274996052644326,52.60141602470371 L -16.527033315575473,51.7228164334572 L -15.83689941725479,50.798099882199054 L -15.207430265903778,49.83106622958945 L -14.641212485286,48.825689224335036 L -14.140572785715374,47.786100176203085 L -13.70756840310431,46.71657097958354 L -13.343978645340105,45.62149655935858 L -13.05129758072718,44.50537681121366 L -12.830727898539898,43.372798110600826 L -12.683175966914435,42.22841446633828 L -12.609248108387625,41.0769283962898 L -12.609248108387625,39.92307160371021 L -12.683175966914435,38.771585533661735 L -12.830727898539898,37.627201889399174 L -13.05129758072718,36.49462318878634 L -13.343978645340105,35.37850344064142 L -13.70756840310431,34.28342902041646 L -14.140572785715374,33.213899823796915 L -14.641212485286,32.174310775664964 L -15.207430265903778,31.16893377041055 L -15.83689941725479,30.20190011780095 L -16.527033315575473,29.2771835665428 L -17.274996052644326,28.3985839752963 L -18.077714089137245,27.5697116982409 L -18.931888884459806,26.793972749355586 L -19.834010451158107,26.07455480637678 L -20.780371778210124,25.414414111946872 L -21.767084063929126,24.81626332577899 L -22.790092695883956,24.282560377756457 L -23.84519391217127,23.81549836777161 L -24.928052075574826,23.416996553807966 L -26.03421748962887,23.08869246529747 L -27.1591446833753,22.831935174160826 L -28.298211089678887,22.64777975118157 L -29.446736040347165,22.536982930493945 L -30.6,22.5 L -30.6,22.5 L -54.0,22.5 L -54.0,40.5 L -54.0,58.5 L -30.6,58.5" style="stroke:black;fill:none;stroke-width:2.0;stroke-linecap:round;stroke-linejoin:round;" /><path d="M -66.60000000000001,49.5 L -54.0,49.5" style="stroke:black;fill:none;stroke-width:2.0;stroke-linecap:round;stroke-linejoin:round;" /><path d="M -66.60000000000001,31.5 L -54.0,31.5" style="stroke:black;fill:none;stroke-width:2.0;stroke-linecap:round;stroke-linejoin:round;" /><path d="M -12.600000000000003,40.5 L 0.0,40.5" style="stroke:black;fill:none;stroke-width:2.0;stroke-linecap:round;stroke-linejoin:round;" /><path d="M -127.80000000000001,31.140000000000004 L -109.80000000000001,31.140000000000004 L -109.28571428571429,31.132653061224495 L -108.77142857142859,31.11061224489796 L -108.25714285714287,31.07387755102041 L -107.74285714285716,31.022448979591843 L -107.22857142857144,30.956326530612245 L -106.71428571428572,30.875510204081635 L -106.2,30.780000000000005 L -105.6857142857143,30.66979591836735 L -105.17142857142858,30.54489795918368 L -104.65714285714287,30.405306122448984 L -104.14285714285715,30.251020408163267 L -103.62857142857145,30.082040816326533 L -103.11428571428573,29.89836734693878 L -102.60000000000002,29.700000000000003 L -102.0857142857143,29.486938775510207 L -101.57142857142858,29.259183673469387 L -101.05714285714286,29.016734693877552 L -100.54285714285716,28.759591836734696 L -100.02857142857144,28.487755102040822 L -99.51428571428573,28.201224489795923 L -99.00000000000001,27.900000000000006 L -98.48571428571431,27.584081632653067 L -97.97142857142858,27.253469387755107 L -97.45714285714286,26.90816326530613 L -96.94285714285715,26.548163265306126 L -96.42857142857144,26.173469387755105 L -95.91428571428573,25.784081632653063 L -95.4,25.380000000000003 L -94.8857142857143,24.96122448979592 L -94.3714285714286,24.527755102040818 L -93.85714285714288,24.079591836734696 L -93.34285714285716,23.616734693877554 L -92.82857142857144,23.13918367346939 L -92.31428571428572,22.646938775510208 L -91.80000000000001,22.140000000000004 L -91.28571428571429,21.618367346938776 L -90.77142857142859,21.082040816326533 L -90.25714285714287,20.531020408163265 L -89.74285714285716,19.965306122448986 L -89.22857142857143,19.384897959183675 L -88.71428571428572,18.789795918367346 L -88.2,18.18 L -87.6857142857143,17.555510204081635 L -87.17142857142858,16.916326530612245 L -86.65714285714287,16.262448979591838 L -86.14285714285715,15.593877551020407 L -85.62857142857145,14.91061224489796 L -85.11428571428573,14.212653061224492 L -84.60000000000001,13.5 L -84.60000000000001,13.5 L -85.11428571428573,12.787346938775508 L -85.62857142857145,12.08938775510204 L -86.14285714285715,11.406122448979593 L -86.65714285714287,10.737551020408162 L -87.17142857142858,10.083673469387756 L -87.6857142857143,9.444489795918365 L -88.2,8.82 L -88.71428571428572,8.210204081632652 L -89.22857142857143,7.615102040816326 L -89.74285714285716,7.034693877551017 L -90.25714285714287,6.468979591836734 L -90.77142857142859,5.917959183673466 L -91.28571428571429,5.381632653061223 L -91.80000000000001,4.859999999999996 L -92.31428571428572,4.353061224489794 L -92.82857142857144,3.8608163265306104 L -93.34285714285716,3.3832653061224476 L -93.85714285714288,2.920408163265303 L -94.3714285714286,2.4722448979591816 L -94.8857142857143,2.03877551020408 L -95.4,1.6199999999999974 L -95.91428571428573,1.2159183673469354 L -96.42857142857144,0.8265306122448939 L -96.94285714285715,0.451836734693873 L -97.45714285714286,0.09183673469387466 L -97.97142857142858,-0.2534693877551051 L -98.48571428571431,-0.5840816326530642 L -99.00000000000001,-0.9000000000000028 L -99.51428571428573,-1.2012244897959208 L -100.02857142857144,-1.4877551020408202 L -100.54285714285716,-1.759591836734697 L -101.05714285714286,-2.016734693877553 L -101.57142857142858,-2.2591836734693906 L -102.0857142857143,-2.486938775510208 L -102.60000000000002,-2.7000000000000024 L -103.11428571428573,-2.8983673469387785 L -103.62857142857145,-3.0820408163265336 L -104.14285714285715,-3.251020408163268 L -104.65714285714287,-3.4053061224489825 L -105.17142857142858,-3.544897959183678 L -105.6857142857143,-3.6697959183673508 L -106.2,-3.7800000000000034 L -106.71428571428572,-3.875510204081637 L -107.22857142857144,-3.956326530612248 L -107.74285714285716,-4.022448979591841 L -108.25714285714287,-4.073877551020411 L -108.77142857142859,-4.110612244897963 L -109.28571428571429,-4.132653061224493 L -109.80000000000001,-4.140000000000004 L -127.80000000000001,-4.140000000000004 L -127.80000000000001,-4.140000000000004 L -127.1088,-3.420000000000003 L -126.44640000000001,-2.7000000000000024 L -125.81280000000002,-1.9800000000000018 L -125.20800000000001,-1.2600000000000011 L -124.632,-0.5400000000000005 L -124.08480000000002,0.17999999999999616 L -123.56640000000002,0.8999999999999968 L -123.0768,1.6199999999999974 L -122.61600000000001,2.339999999999998 L -122.184,3.0599999999999987 L -121.78080000000001,3.7799999999999994 L -121.4064,4.5 L -121.06080000000001,5.219999999999997 L -120.744,5.939999999999998 L -120.456,6.659999999999998 L -120.19680000000001,7.379999999999999 L -119.96640000000001,8.1 L -119.76480000000001,8.82 L -119.592,9.540000000000001 L -119.44800000000002,10.260000000000002 L -119.33280000000002,10.980000000000002 L -119.24640000000001,11.7 L -119.18880000000001,12.419999999999998 L -119.16000000000003,13.14 L -119.16000000000003,13.86 L -119.18880000000001,14.580000000000002 L -119.24640000000001,15.3 L -119.33280000000002,16.02 L -119.44800000000002,16.740000000000002 L -119.592,17.46 L -119.76480000000001,18.18 L -119.96640000000001,18.900000000000002 L -120.19680000000001,19.62 L -120.456,20.340000000000003 L -120.744,21.060000000000002 L -121.0608,21.78 L -121.4064,22.5 L -121.78080000000001,23.22 L -122.184,23.94 L -122.61600000000001,24.660000000000004 L -123.0768,25.380000000000003 L -123.56640000000002,26.1 L -124.08480000000002,26.820000000000004 L -124.632,27.540000000000006 L -125.20800000000003,28.260000000000005 L -125.81280000000002,28.980000000000004 L -126.44640000000001,29.700000000000003 L -127.1088,30.42 L -127.80000000000001,31.140000000000004" style="stroke:black;fill:none;stroke-width:2.0;stroke-linecap:round;stroke-linejoin:round;" /><path d="M -140.4,22.5 L -121.4064,22.5" style="stroke:black;fill:none;stroke-width:2.0;stroke-linecap:round;stroke-linejoin:round;" /><path d="M -140.4,4.5 L -121.4064,4.5" style="stroke:black;fill:none;stroke-width:2.0;stroke-linecap:round;stroke-linejoin:round;" /><path d="M -84.60000000000001,13.5 L -72.0,13.5" style="stroke:black;fill:none;stroke-width:2.0;stroke-linecap:round;stroke-linejoin:round;" /><path d="M -66.60000000000001,31.5 L -72.0,31.5 L -72.0,13.5" style="stroke:black;fill:none;stroke-width:2;stroke-linecap:round;stroke-linejoin:round;" /><path d="M -102.60000000000001,85.5 L -101.44673604034718,85.46301706950607 L -100.29821108967889,85.35222024881844 L -99.1591446833753,85.16806482583918 L -98.03421748962887,84.91130753470253 L -96.92805207557483,84.58300344619204 L -95.84519391217127,84.18450163222839 L -94.79009269588396,83.71743962224355 L -93.76708406392912,83.18373667422101 L -92.78037177821012,82.58558588805313 L -91.83401045115812,81.92544519362322 L -90.93188888445981,81.20602725064442 L -90.07771408913726,80.43028830175909 L -89.27499605264433,79.60141602470371 L -88.52703331557547,78.7228164334572 L -87.83689941725478,77.79809988219905 L -87.20743026590378,76.83106622958945 L -86.641212485286,75.82568922433504 L -86.14057278571538,74.78610017620309 L -85.7075684031043,73.71657097958354 L -85.3439786453401,72.62149655935858 L -85.05129758072718,71.50537681121367 L -84.83072789853989,70.37279811060083 L -84.68317596691443,69.22841446633828 L -84.60924810838762,68.0769283962898 L -84.60924810838762,66.92307160371021 L -84.68317596691443,65.77158553366174 L -84.83072789853989,64.62720188939917 L -85.05129758072718,63.49462318878634 L -85.3439786453401,62.37850344064142 L -85.7075684031043,61.28342902041646 L -86.14057278571538,60.213899823796915 L -86.641212485286,59.174310775664964 L -87.20743026590378,58.16893377041055 L -87.83689941725478,57.201900117800946 L -88.52703331557547,56.2771835665428 L -89.27499605264433,55.398583975296305 L -90.07771408913723,54.5697116982409 L -90.93188888445981,53.79397274935558 L -91.83401045115811,53.07455480637678 L -92.78037177821012,52.41441411194687 L -93.76708406392912,51.81626332577899 L -94.79009269588396,51.282560377756454 L -95.84519391217127,50.81549836777161 L -96.92805207557483,50.41699655380796 L -98.03421748962887,50.08869246529747 L -99.1591446833753,49.831935174160826 L -100.29821108967889,49.647779751181574 L -101.44673604034718,49.53698293049395 L -102.60000000000001,49.5 L -102.60000000000001,49.5 L -126.0,49.5 L -126.0,67.5 L -126.0,85.5 L -102.60000000000001,85.5" style="stroke:black;fill:none;stroke-width:2.0;stroke-linecap:round;stroke-linejoin:round;" /><path d="M -138.6,76.5 L -126.0,76.5" style="stroke:black;fill:none;stroke-width:2.0;stroke-linecap:round;stroke-linejoin:round;" /><path d="M -138.6,58.5 L -126.0,58.5" style="stroke:black;fill:none;stroke-width:2.0;stroke-linecap:round;stroke-linejoin:round;" /><path d="M -84.60000000000001,67.5 L -72.0,67.5" style="stroke:black;fill:none;stroke-width:2.0;stroke-linecap:round;stroke-linejoin:round;" /><path d="M -66.60000000000001,49.5 L -72.0,49.5 L -72.0,67.5" style="stroke:black;fill:none;stroke-width:2;stroke-linecap:round;stroke-linejoin:round;" /><text x="3.600000000000003" y="34.9" fill="black" font-size="14.0" font-family="sans" text-anchor="start"><tspan x="3.600000000000003" dy="14.0">\text{Output}</tspan></text><text x="-144.0" y="-1.0999999999999996" fill="black" font-size="14.0" font-family="sans" text-anchor="end"><tspan x="-144.0" dy="14.0">b</tspan></text><text x="-144.0" y="16.9" fill="black" font-size="14.0" font-family="sans" text-anchor="end"><tspan x="-144.0" dy="14.0">a</tspan></text><text x="-142.20000000000002" y="52.89999999999999" fill="black" font-size="14.0" font-family="sans" text-anchor="end"><tspan x="-142.20000000000002" dy="14.0">a</tspan></text><text x="-142.20000000000002" y="70.89999999999999" fill="black" font-size="14.0" font-family="sans" text-anchor="end"><tspan x="-142.20000000000002" dy="14.0">b</tspan></text></svg>