<svg xmlns="http://www.w3.org/2000/svg" xml:lang="en" height="45.2pt" width="172.88pt" viewBox="-82.78 -9.1 172.88 45.2"><path d="M -30.6,31.5 L -29.446736040347172,31.463017069506055 L -28.298211089678894,31.35222024881843 L -27.1591446833753,31.168064825839174 L -26.03421748962887,30.91130753470253 L -24.928052075574826,30.583003446192034 L -23.84519391217127,30.18450163222839 L -22.790092695883956,29.717439622243543 L -21.767084063929126,29.18373667422101 L -20.780371778210124,28.58558588805313 L -19.83401045115812,27.925445193623222 L -18.931888884459806,27.206027250644418 L -18.077714089137253,26.4302883017591 L -17.274996052644326,25.601416024703703 L -16.527033315575473,24.7228164334572 L -15.83689941725479,23.798099882199054 L -15.207430265903778,22.83106622958945 L -14.641212485286,21.825689224335036 L -14.140572785715374,20.786100176203092 L -13.70756840310431,19.71657097958354 L -13.343978645340105,18.621496559358587 L -13.05129758072718,17.505376811213658 L -12.830727898539898,16.372798110600826 L -12.683175966914435,15.228414466338274 L -12.609248108387625,14.076928396289794 L -12.609248108387625,12.92307160371021 L -12.683175966914435,11.77158553366173 L -12.830727898539898,10.627201889399178 L -13.05129758072718,9.494623188786342 L -13.343978645340105,8.378503440641417 L -13.70756840310431,7.283429020416464 L -14.140572785715374,6.213899823796913 L -14.641212485286,5.174310775664967 L -15.207430265903778,4.168933770410549 L -15.83689941725479,3.20190011780095 L -16.527033315575473,2.2771835665427975 L -17.274996052644326,1.3985839752963019 L -18.077714089137245,0.5697116982409052 L -18.931888884459806,-0.20602725064441563 L -19.834010451158107,-0.9254451936232191 L -20.780371778210124,-1.5855858880531288 L -21.767084063929126,-2.1837366742210076 L -22.790092695883956,-2.7174396222435444 L -23.84519391217127,-3.1845016322283897 L -24.928052075574826,-3.5830034461920355 L -26.03421748962887,-3.9113075347025283 L -27.1591446833753,-4.168064825839176 L -28.298211089678887,-4.352220248818429 L -29.446736040347165,-4.463017069506054 L -30.6,-4.5 L -30.6,-4.5 L -54.0,-4.5 L -54.0,13.5 L -54.0,31.5 L -30.6,31.5" style="stroke:black;fill:none;stroke-width:2.0;stroke-linecap:round;stroke-linejoin:round;" /><path d="M -66.60000000000001,22.5 L -54.0,22.5" style="stroke:black;fill:none;stroke-width:2.0;stroke-linecap:round;stroke-linejoin:round;" /><path d="M -66.60000000000001,4.5 L -54.0,4.5" style="stroke:black;fill:none;stroke-width:2.0;stroke-linecap:round;stroke-linejoin:round;" /><path d="M -12.600000000000003,13.5 L 0.0,13.5" style="stroke:black;fill:none;stroke-width:2.0;stroke-linecap:round;stroke-linejoin:round;" /><text x="3.600000000000003" y="7.9" fill="black" font-size="14.0" font-family="sans" text-anchor="start"><tspan x="3.600000000000003" dy="14.0">\text{Output}</tspan></text><text x="-70.2" y="-1.0999999999999996" fill="black" font-size="14.0" font-family="sans" text-anchor="end"><tspan x="-70.2" dy="14.0">b</tspan></text><text x="-70.2" y="16.9" fill="black" font-size="14.0" font-family="sans" text-anchor="end"><tspan x="-70.2" dy="14.0">a</tspan></text></svg>