<?xml version="1.0" encoding="utf-8" standalone="no"?>
<!DOCTYPE svg PUBLIC "-//W3C//DTD SVG 1.1//EN"
  "http://www.w3.org/Graphics/SVG/1.1/DTD/svg11.dtd">
<svg xmlns:xlink="http://www.w3.org/1999/xlink" width="248.268pt" height="99pt" viewBox="0 0 248.268 99" xmlns="http://www.w3.org/2000/svg" version="1.1">
 <metadata>
  <rdf:RDF xmlns:dc="http://purl.org/dc/elements/1.1/" xmlns:cc="http://creativecommons.org/ns#" xmlns:rdf="http://www.w3.org/1999/02/22-rdf-syntax-ns#">
   <cc:Work>
    <dc:type rdf:resource="http://purl.org/dc/dcmitype/StillImage"/>
    <dc:date>2024-10-01T14:30:22.834185</dc:date>
    <dc:format>image/svg+xml</dc:format>
    <dc:creator>
     <cc:Agent>
      <dc:title>Matplotlib v3.9.0, https://matplotlib.org/</dc:title>
     </cc:Agent>
    </dc:creator>
   </cc:Work>
  </rdf:RDF>
 </metadata>
 <defs>
  <style type="text/css">*{stroke-linejoin: round; stroke-linecap: butt}</style>
 </defs>
 <g id="figure_1">
  <g id="patch_1">
   <path d="M 0 99 
L 248.268 99 
L 248.268 0 
L 0 0 
L 0 99 
z
" style="fill: none"/>
  </g>
  <g id="axes_1">
   <g id="line2d_1">
    <path d="M 102.288 66.96 
L 121.830857 66.893878 
L 123.888 66.6 
L 125.945143 66.07102 
L 128.002286 65.306939 
L 130.059429 64.307755 
L 132.116571 63.073469 
L 134.173714 61.604082 
L 136.230857 59.899592 
L 138.802286 57.438367 
L 141.373714 54.609796 
L 143.945143 51.413878 
L 145.488 49.32 
L 145.488 49.32 
L 142.916571 45.903673 
L 140.345143 42.854694 
L 137.773714 40.173061 
L 135.202286 37.858776 
L 133.145143 36.271837 
L 131.088 34.92 
L 129.030857 33.803265 
L 126.973714 32.921633 
L 124.916571 32.275102 
L 122.859429 31.863673 
L 120.802286 31.687347 
L 120.288 31.68 
L 102.288 31.68 
L 102.288 31.68 
L 104.2752 33.84 
L 106.0032 36 
L 107.472 38.16 
L 108.6816 40.32 
L 109.632 42.48 
L 110.3232 44.64 
L 110.7552 46.8 
L 110.928 48.96 
L 110.8416 51.12 
L 110.496 53.28 
L 109.8912 55.44 
L 109.0272 57.6 
L 107.904 59.76 
L 106.5216 61.92 
L 104.88 64.08 
L 102.9792 66.24 
L 102.288 66.96 
L 102.288 66.96 
" clip-path="url(#p51db6f4ead)" style="fill: none; stroke: #000000; stroke-width: 2; stroke-linecap: round"/>
   </g>
   <g id="line2d_2">
    <path d="M 96.888 66.96 
L 97.5792 66.24 
L 98.2416 65.52 
L 98.8752 64.8 
L 99.48 64.08 
L 100.056 63.36 
L 100.6032 62.64 
L 101.1216 61.92 
L 101.6112 61.2 
L 102.072 60.48 
L 102.504 59.76 
L 102.9072 59.04 
L 103.2816 58.32 
L 103.6272 57.6 
L 103.944 56.88 
L 104.232 56.16 
L 104.4912 55.44 
L 104.7216 54.72 
L 104.9232 54 
L 105.096 53.28 
L 105.24 52.56 
L 105.3552 51.84 
L 105.4416 51.12 
L 105.4992 50.4 
L 105.528 49.68 
L 105.528 48.96 
L 105.4992 48.24 
L 105.4416 47.52 
L 105.3552 46.8 
L 105.24 46.08 
L 105.096 45.36 
L 104.9232 44.64 
L 104.7216 43.92 
L 104.4912 43.2 
L 104.232 42.48 
L 103.944 41.76 
L 103.6272 41.04 
L 103.2816 40.32 
L 102.9072 39.6 
L 102.504 38.88 
L 102.072 38.16 
L 101.6112 37.44 
L 101.1216 36.72 
L 100.6032 36 
L 100.056 35.28 
L 99.48 34.56 
L 98.8752 33.84 
L 98.2416 33.12 
L 97.5792 32.4 
L 96.888 31.68 
" clip-path="url(#p51db6f4ead)" style="fill: none; stroke: #000000; stroke-width: 2; stroke-linecap: round"/>
   </g>
   <g id="line2d_3">
    <path d="M 89.688 58.32 
L 103.2816 58.32 
" clip-path="url(#p51db6f4ead)" style="fill: none; stroke: #000000; stroke-width: 2; stroke-linecap: round"/>
   </g>
   <g id="line2d_4">
    <path d="M 89.688 40.32 
L 103.2816 40.32 
" clip-path="url(#p51db6f4ead)" style="fill: none; stroke: #000000; stroke-width: 2; stroke-linecap: round"/>
   </g>
   <g id="line2d_5">
    <path d="M 145.488 49.32 
L 158.088 49.32 
" clip-path="url(#p51db6f4ead)" style="fill: none; stroke: #000000; stroke-width: 2; stroke-linecap: round"/>
   </g>
   <g id="line2d_6">
    <path d="M 30.288 39.96 
L 49.830857 39.893878 
L 51.888 39.6 
L 53.945143 39.07102 
L 56.002286 38.306939 
L 58.059429 37.307755 
L 60.116571 36.073469 
L 62.173714 34.604082 
L 64.230857 32.899592 
L 66.802286 30.438367 
L 69.373714 27.609796 
L 71.945143 24.413878 
L 73.488 22.32 
L 73.488 22.32 
L 70.916571 18.903673 
L 68.345143 15.854694 
L 65.773714 13.173061 
L 63.202286 10.858776 
L 61.145143 9.271837 
L 59.088 7.92 
L 57.030857 6.803265 
L 54.973714 5.921633 
L 52.916571 5.275102 
L 50.859429 4.863673 
L 48.802286 4.687347 
L 48.288 4.68 
L 30.288 4.68 
L 30.288 4.68 
L 32.2752 6.84 
L 34.0032 9 
L 35.472 11.16 
L 36.6816 13.32 
L 37.632 15.48 
L 38.3232 17.64 
L 38.7552 19.8 
L 38.928 21.96 
L 38.8416 24.12 
L 38.496 26.28 
L 37.8912 28.44 
L 37.0272 30.6 
L 35.904 32.76 
L 34.5216 34.92 
L 32.88 37.08 
L 30.9792 39.24 
L 30.288 39.96 
L 30.288 39.96 
" clip-path="url(#p51db6f4ead)" style="fill: none; stroke: #000000; stroke-width: 2; stroke-linecap: round"/>
   </g>
   <g id="line2d_7">
    <path d="M 24.888 39.96 
L 25.5792 39.24 
L 26.2416 38.52 
L 26.8752 37.8 
L 27.48 37.08 
L 28.056 36.36 
L 28.6032 35.64 
L 29.1216 34.92 
L 29.6112 34.2 
L 30.072 33.48 
L 30.504 32.76 
L 30.9072 32.04 
L 31.2816 31.32 
L 31.6272 30.6 
L 31.944 29.88 
L 32.232 29.16 
L 32.4912 28.44 
L 32.7216 27.72 
L 32.9232 27 
L 33.096 26.28 
L 33.24 25.56 
L 33.3552 24.84 
L 33.4416 24.12 
L 33.4992 23.4 
L 33.528 22.68 
L 33.528 21.96 
L 33.4992 21.24 
L 33.4416 20.52 
L 33.3552 19.8 
L 33.24 19.08 
L 33.096 18.36 
L 32.9232 17.64 
L 32.7216 16.92 
L 32.4912 16.2 
L 32.232 15.48 
L 31.944 14.76 
L 31.6272 14.04 
L 31.2816 13.32 
L 30.9072 12.6 
L 30.504 11.88 
L 30.072 11.16 
L 29.6112 10.44 
L 29.1216 9.72 
L 28.6032 9 
L 28.056 8.28 
L 27.48 7.56 
L 26.8752 6.84 
L 26.2416 6.12 
L 25.5792 5.4 
L 24.888 4.68 
" clip-path="url(#p51db6f4ead)" style="fill: none; stroke: #000000; stroke-width: 2; stroke-linecap: round"/>
   </g>
   <g id="line2d_8">
    <path d="M 17.688 31.32 
L 31.2816 31.32 
" clip-path="url(#p51db6f4ead)" style="fill: none; stroke: #000000; stroke-width: 2; stroke-linecap: round"/>
   </g>
   <g id="line2d_9">
    <path d="M 17.688 13.32 
L 31.2816 13.32 
" clip-path="url(#p51db6f4ead)" style="fill: none; stroke: #000000; stroke-width: 2; stroke-linecap: round"/>
   </g>
   <g id="line2d_10">
    <path d="M 73.488 22.32 
L 86.088 22.32 
" clip-path="url(#p51db6f4ead)" style="fill: none; stroke: #000000; stroke-width: 2; stroke-linecap: round"/>
   </g>
   <g id="line2d_11">
    <path d="M 89.688 40.32 
L 86.088 40.32 
L 86.088 22.32 
" clip-path="url(#p51db6f4ead)" style="fill: none; stroke: #000000; stroke-width: 2; stroke-linecap: round"/>
   </g>
   <g id="line2d_12">
    <path d="M 55.488 94.32 
L 56.641264 94.283017 
L 57.789789 94.17222 
L 58.928855 93.988065 
L 60.053783 93.731308 
L 61.159948 93.403003 
L 62.242806 93.004502 
L 63.297907 92.53744 
L 64.320916 92.003737 
L 65.307628 91.405586 
L 66.25399 90.745445 
L 67.156111 90.026027 
L 68.010286 89.250288 
L 68.813004 88.421416 
L 69.560967 87.542816 
L 70.251101 86.6181 
L 70.88057 85.651066 
L 71.446788 84.645689 
L 71.947427 83.6061 
L 72.380432 82.536571 
L 72.744021 81.441497 
L 73.036702 80.325377 
L 73.257272 79.192798 
L 73.404824 78.048414 
L 73.478752 76.896928 
L 73.478752 75.743072 
L 73.404824 74.591586 
L 73.257272 73.447202 
L 73.036702 72.314623 
L 72.744021 71.198503 
L 72.380432 70.103429 
L 71.947427 69.0339 
L 71.446788 67.994311 
L 70.88057 66.988934 
L 70.251101 66.0219 
L 69.560967 65.097184 
L 68.813004 64.218584 
L 68.010286 63.389712 
L 67.156111 62.613973 
L 66.25399 61.894555 
L 65.307628 61.234414 
L 64.320916 60.636263 
L 63.297907 60.10256 
L 62.242806 59.635498 
L 61.159948 59.236997 
L 60.053783 58.908692 
L 58.928855 58.651935 
L 57.789789 58.46778 
L 56.641264 58.356983 
L 55.488 58.32 
L 55.488 58.32 
L 32.088 58.32 
L 32.088 76.32 
L 32.088 94.32 
L 55.488 94.32 
" clip-path="url(#p51db6f4ead)" style="fill: none; stroke: #000000; stroke-width: 2; stroke-linecap: round"/>
   </g>
   <g id="line2d_13">
    <path d="M 19.488 85.32 
L 32.088 85.32 
" clip-path="url(#p51db6f4ead)" style="fill: none; stroke: #000000; stroke-width: 2; stroke-linecap: round"/>
   </g>
   <g id="line2d_14">
    <path d="M 19.488 67.32 
L 32.088 67.32 
" clip-path="url(#p51db6f4ead)" style="fill: none; stroke: #000000; stroke-width: 2; stroke-linecap: round"/>
   </g>
   <g id="line2d_15">
    <path d="M 73.488 76.32 
L 86.088 76.32 
" clip-path="url(#p51db6f4ead)" style="fill: none; stroke: #000000; stroke-width: 2; stroke-linecap: round"/>
   </g>
   <g id="line2d_16">
    <path d="M 89.688 58.32 
L 86.088 58.32 
L 86.088 76.32 
" clip-path="url(#p51db6f4ead)" style="fill: none; stroke: #000000; stroke-width: 2; stroke-linecap: round"/>
   </g>
   <g id="text_1">
    <!-- $\text{Output}$ -->
    <g transform="translate(161.688 53.154688) scale(0.14 -0.14)">
     <defs>
      <path id="DejaVuSans-4f" d="M 2522 4238 
Q 1834 4238 1429 3725 
Q 1025 3213 1025 2328 
Q 1025 1447 1429 934 
Q 1834 422 2522 422 
Q 3209 422 3611 934 
Q 4013 1447 4013 2328 
Q 4013 3213 3611 3725 
Q 3209 4238 2522 4238 
z
M 2522 4750 
Q 3503 4750 4090 4092 
Q 4678 3434 4678 2328 
Q 4678 1225 4090 567 
Q 3503 -91 2522 -91 
Q 1538 -91 948 565 
Q 359 1222 359 2328 
Q 359 3434 948 4092 
Q 1538 4750 2522 4750 
z
" transform="scale(0.015625)"/>
      <path id="DejaVuSans-75" d="M 544 1381 
L 544 3500 
L 1119 3500 
L 1119 1403 
Q 1119 906 1312 657 
Q 1506 409 1894 409 
Q 2359 409 2629 706 
Q 2900 1003 2900 1516 
L 2900 3500 
L 3475 3500 
L 3475 0 
L 2900 0 
L 2900 538 
Q 2691 219 2414 64 
Q 2138 -91 1772 -91 
Q 1169 -91 856 284 
Q 544 659 544 1381 
z
M 1991 3584 
L 1991 3584 
z
" transform="scale(0.015625)"/>
      <path id="DejaVuSans-74" d="M 1172 4494 
L 1172 3500 
L 2356 3500 
L 2356 3053 
L 1172 3053 
L 1172 1153 
Q 1172 725 1289 603 
Q 1406 481 1766 481 
L 2356 481 
L 2356 0 
L 1766 0 
Q 1100 0 847 248 
Q 594 497 594 1153 
L 594 3053 
L 172 3053 
L 172 3500 
L 594 3500 
L 594 4494 
L 1172 4494 
z
" transform="scale(0.015625)"/>
      <path id="DejaVuSans-70" d="M 1159 525 
L 1159 -1331 
L 581 -1331 
L 581 3500 
L 1159 3500 
L 1159 2969 
Q 1341 3281 1617 3432 
Q 1894 3584 2278 3584 
Q 2916 3584 3314 3078 
Q 3713 2572 3713 1747 
Q 3713 922 3314 415 
Q 2916 -91 2278 -91 
Q 1894 -91 1617 61 
Q 1341 213 1159 525 
z
M 3116 1747 
Q 3116 2381 2855 2742 
Q 2594 3103 2138 3103 
Q 1681 3103 1420 2742 
Q 1159 2381 1159 1747 
Q 1159 1113 1420 752 
Q 1681 391 2138 391 
Q 2594 391 2855 752 
Q 3116 1113 3116 1747 
z
" transform="scale(0.015625)"/>
     </defs>
     <use xlink:href="#DejaVuSans-4f" transform="translate(0 0.78125)"/>
     <use xlink:href="#DejaVuSans-75" transform="translate(78.710938 0.78125)"/>
     <use xlink:href="#DejaVuSans-74" transform="translate(142.089844 0.78125)"/>
     <use xlink:href="#DejaVuSans-70" transform="translate(181.298828 0.78125)"/>
     <use xlink:href="#DejaVuSans-75" transform="translate(244.775391 0.78125)"/>
     <use xlink:href="#DejaVuSans-74" transform="translate(308.154297 0.78125)"/>
    </g>
   </g>
   <g id="text_2">
    <!-- A -->
    <g transform="translate(4.511125 17.183125) scale(0.14 -0.14)">
     <defs>
      <path id="DejaVuSans-41" d="M 2188 4044 
L 1331 1722 
L 3047 1722 
L 2188 4044 
z
M 1831 4666 
L 2547 4666 
L 4325 0 
L 3669 0 
L 3244 1197 
L 1141 1197 
L 716 0 
L 50 0 
L 1831 4666 
z
" transform="scale(0.015625)"/>
     </defs>
     <use xlink:href="#DejaVuSans-41"/>
    </g>
   </g>
   <g id="text_3">
    <!-- B -->
    <g transform="translate(4.482687 35.183125) scale(0.14 -0.14)">
     <defs>
      <path id="DejaVuSans-42" d="M 1259 2228 
L 1259 519 
L 2272 519 
Q 2781 519 3026 730 
Q 3272 941 3272 1375 
Q 3272 1813 3026 2020 
Q 2781 2228 2272 2228 
L 1259 2228 
z
M 1259 4147 
L 1259 2741 
L 2194 2741 
Q 2656 2741 2882 2914 
Q 3109 3088 3109 3444 
Q 3109 3797 2882 3972 
Q 2656 4147 2194 4147 
L 1259 4147 
z
M 628 4666 
L 2241 4666 
Q 2963 4666 3353 4366 
Q 3744 4066 3744 3513 
Q 3744 3084 3544 2831 
Q 3344 2578 2956 2516 
Q 3422 2416 3680 2098 
Q 3938 1781 3938 1306 
Q 3938 681 3513 340 
Q 3088 0 2303 0 
L 628 0 
L 628 4666 
z
" transform="scale(0.015625)"/>
     </defs>
     <use xlink:href="#DejaVuSans-42"/>
    </g>
   </g>
   <g id="text_4">
    <!-- A -->
    <g transform="translate(6.311125 71.183125) scale(0.14 -0.14)">
     <use xlink:href="#DejaVuSans-41"/>
    </g>
   </g>
   <g id="text_5">
    <!-- A -->
    <g transform="translate(6.311125 89.183125) scale(0.14 -0.14)">
     <use xlink:href="#DejaVuSans-41"/>
    </g>
   </g>
  </g>
 </g>
 <defs>
  <clipPath id="p51db6f4ead">
   <rect x="0" y="0" width="248.268" height="99"/>
  </clipPath>
 </defs>
</svg>
