<svg xmlns="http://www.w3.org/2000/svg" xml:lang="en" height="206.84000000000003pt" width="318.68pt" viewBox="-228.57999999999998 -9.1 318.68 206.84000000000003"><circle cx="-152.28000000000003" cy="13.5" r="4.32" style="stroke:black;fill:none;stroke-width:2.0;" /><circle cx="-80.28" cy="148.5" r="4.32" style="stroke:black;fill:none;stroke-width:2.0;" /><circle cx="-152.28000000000003" cy="121.5" r="4.32" style="stroke:black;fill:none;stroke-width:2.0;" /><circle cx="-152.28000000000003" cy="175.5" r="4.32" style="stroke:black;fill:none;stroke-width:2.0;" /><path d="M -55.80000000000001,112.14000000000001 L -37.80000000000001,112.14000000000001 L -37.2857142857143,112.13265306122449 L -36.77142857142859,112.11061224489796 L -36.257142857142874,112.07387755102042 L -35.742857142857154,112.02244897959184 L -35.22857142857144,111.95632653061224 L -34.71428571428573,111.87551020408164 L -34.20000000000002,111.78 L -33.6857142857143,111.66979591836736 L -33.171428571428585,111.54489795918369 L -32.65714285714287,111.40530612244898 L -32.14285714285715,111.25102040816327 L -31.628571428571444,111.08204081632653 L -31.11428571428573,110.89836734693878 L -30.60000000000002,110.7 L -30.0857142857143,110.4869387755102 L -29.571428571428577,110.2591836734694 L -29.057142857142864,110.01673469387754 L -28.54285714285715,109.75959183673469 L -28.02857142857144,109.48775510204082 L -27.514285714285727,109.20122448979592 L -27.000000000000014,108.89999999999999 L -26.4857142857143,108.58408163265305 L -25.971428571428582,108.2534693877551 L -25.45714285714287,107.90816326530613 L -24.94285714285715,107.54816326530612 L -24.428571428571438,107.17346938775509 L -23.914285714285725,106.78408163265307 L -23.400000000000013,106.38 L -22.8857142857143,105.96122448979592 L -22.371428571428588,105.52775510204083 L -21.857142857142875,105.07959183673469 L -21.342857142857156,104.61673469387755 L -20.828571428571436,104.13918367346939 L -20.314285714285724,103.64693877551021 L -19.80000000000001,103.14000000000001 L -19.2857142857143,102.61836734693878 L -18.771428571428586,102.08204081632653 L -18.257142857142874,101.53102040816326 L -17.74285714285716,100.96530612244898 L -17.22857142857143,100.38489795918366 L -16.71428571428572,99.78979591836735 L -16.200000000000006,99.17999999999999 L -15.685714285714294,98.55551020408163 L -15.171428571428581,97.91632653061224 L -14.657142857142869,97.26244897959184 L -14.142857142857157,96.5938775510204 L -13.628571428571444,95.91061224489796 L -13.114285714285732,95.21265306122449 L -12.600000000000003,94.5 L -12.600000000000003,94.5 L -13.114285714285732,93.78734693877551 L -13.628571428571444,93.08938775510204 L -14.142857142857157,92.4061224489796 L -14.657142857142869,91.73755102040816 L -15.171428571428581,91.08367346938776 L -15.685714285714294,90.44448979591837 L -16.200000000000006,89.82000000000001 L -16.71428571428572,89.21020408163265 L -17.22857142857143,88.61510204081634 L -17.74285714285716,88.03469387755102 L -18.257142857142874,87.46897959183674 L -18.771428571428586,86.91795918367347 L -19.2857142857143,86.38163265306122 L -19.80000000000001,85.85999999999999 L -20.314285714285724,85.35306122448979 L -20.828571428571436,84.86081632653061 L -21.342857142857156,84.38326530612245 L -21.857142857142875,83.92040816326531 L -22.371428571428588,83.47224489795917 L -22.8857142857143,83.03877551020408 L -23.400000000000013,82.62 L -23.914285714285725,82.21591836734693 L -24.428571428571438,81.82653061224491 L -24.94285714285715,81.45183673469388 L -25.45714285714287,81.09183673469387 L -25.971428571428582,80.7465306122449 L -26.4857142857143,80.41591836734695 L -27.000000000000014,80.10000000000001 L -27.514285714285727,79.79877551020408 L -28.02857142857144,79.51224489795918 L -28.54285714285715,79.24040816326531 L -29.057142857142864,78.98326530612246 L -29.571428571428577,78.7408163265306 L -30.0857142857143,78.5130612244898 L -30.60000000000002,78.3 L -31.11428571428573,78.10163265306122 L -31.628571428571444,77.91795918367347 L -32.14285714285715,77.74897959183673 L -32.65714285714287,77.59469387755102 L -33.171428571428585,77.45510204081631 L -33.6857142857143,77.33020408163264 L -34.20000000000002,77.22 L -34.71428571428573,77.12448979591836 L -35.22857142857144,77.04367346938776 L -35.742857142857154,76.97755102040816 L -36.257142857142874,76.92612244897958 L -36.77142857142859,76.88938775510204 L -37.2857142857143,76.86734693877551 L -37.80000000000001,76.85999999999999 L -55.80000000000001,76.85999999999999 L -55.80000000000001,76.85999999999999 L -55.108800000000016,77.58 L -54.44640000000001,78.3 L -53.81280000000001,79.02 L -53.208000000000006,79.74 L -52.632000000000005,80.46 L -52.08480000000001,81.17999999999999 L -51.566400000000016,81.89999999999999 L -51.07680000000001,82.62 L -50.616000000000014,83.34 L -50.18400000000001,84.06 L -49.780800000000006,84.78 L -49.40640000000001,85.5 L -49.060800000000015,86.22 L -48.744000000000014,86.94 L -48.45600000000001,87.66 L -48.19680000000002,88.38 L -47.96640000000001,89.10000000000001 L -47.764800000000015,89.82000000000001 L -47.59200000000001,90.54 L -47.44800000000001,91.26 L -47.33280000000001,91.98 L -47.24640000000001,92.7 L -47.188800000000015,93.41999999999999 L -47.16000000000001,94.14000000000001 L -47.16000000000001,94.85999999999999 L -47.188800000000015,95.58000000000001 L -47.24640000000001,96.3 L -47.33280000000001,97.02 L -47.44800000000001,97.74 L -47.59200000000001,98.46 L -47.764800000000015,99.17999999999999 L -47.96640000000001,99.89999999999999 L -48.19680000000002,100.62 L -48.45600000000001,101.34 L -48.744000000000014,102.06 L -49.06080000000001,102.78 L -49.40640000000001,103.5 L -49.780800000000006,104.22 L -50.18400000000001,104.94 L -50.616000000000014,105.66 L -51.07680000000001,106.38 L -51.566400000000016,107.10000000000001 L -52.08480000000001,107.82000000000001 L -52.632000000000005,108.54 L -53.20800000000001,109.26 L -53.81280000000001,109.98 L -54.44640000000001,110.7 L -55.108800000000016,111.42 L -55.80000000000001,112.14000000000001" style="stroke:black;fill:none;stroke-width:2.0;stroke-linecap:round;stroke-linejoin:round;" /><path d="M -61.20000000000002,112.14000000000001 L -60.50880000000001,111.42 L -59.84640000000001,110.7 L -59.212800000000016,109.98 L -58.60800000000001,109.26 L -58.03200000000001,108.54 L -57.484800000000014,107.82000000000001 L -56.96640000000001,107.10000000000001 L -56.47680000000001,106.38 L -56.01600000000001,105.66 L -55.58400000000002,104.94 L -55.18080000000001,104.22 L -54.80640000000001,103.5 L -54.46080000000001,102.78 L -54.14400000000002,102.06 L -53.856000000000016,101.34 L -53.596800000000016,100.62 L -53.366400000000006,99.89999999999999 L -53.164800000000014,99.17999999999999 L -52.99200000000002,98.46 L -52.84800000000001,97.74 L -52.73280000000001,97.02 L -52.64640000000001,96.3 L -52.58880000000001,95.58000000000001 L -52.56000000000002,94.85999999999999 L -52.56000000000002,94.14000000000001 L -52.58880000000001,93.41999999999999 L -52.64640000000001,92.7 L -52.73280000000001,91.98 L -52.84800000000001,91.26 L -52.99200000000002,90.54 L -53.164800000000014,89.82000000000001 L -53.366400000000006,89.10000000000001 L -53.596800000000016,88.38 L -53.856000000000016,87.66 L -54.14400000000002,86.94 L -54.46080000000001,86.22 L -54.80640000000001,85.5 L -55.18080000000001,84.78 L -55.58400000000002,84.06 L -56.01600000000001,83.34 L -56.47680000000001,82.62 L -56.96640000000001,81.89999999999999 L -57.484800000000014,81.17999999999999 L -58.03200000000001,80.46 L -58.60800000000001,79.74 L -59.212800000000016,79.02 L -59.84640000000001,78.3 L -60.50880000000001,77.58 L -61.20000000000002,76.85999999999999" style="stroke:black;fill:none;stroke-width:2.0;stroke-linecap:round;stroke-linejoin:round;" /><path d="M -68.4,103.5 L -54.80640000000001,103.5" style="stroke:black;fill:none;stroke-width:2.0;stroke-linecap:round;stroke-linejoin:round;" /><path d="M -68.4,85.5 L -54.80640000000001,85.5" style="stroke:black;fill:none;stroke-width:2.0;stroke-linecap:round;stroke-linejoin:round;" /><path d="M -12.600000000000003,94.5 L 0.0,94.5" style="stroke:black;fill:none;stroke-width:2.0;stroke-linecap:round;stroke-linejoin:round;" /><path d="M -127.80000000000001,58.14000000000001 L -109.80000000000001,58.14000000000001 L -109.28571428571429,58.132653061224495 L -108.77142857142859,58.110612244897965 L -108.25714285714287,58.07387755102041 L -107.74285714285716,58.02244897959184 L -107.22857142857144,57.956326530612245 L -106.71428571428572,57.875510204081635 L -106.2,57.78 L -105.6857142857143,57.66979591836735 L -105.17142857142858,57.54489795918368 L -104.65714285714287,57.40530612244898 L -104.14285714285715,57.251020408163264 L -103.62857142857145,57.08204081632653 L -103.11428571428573,56.898367346938784 L -102.60000000000002,56.7 L -102.0857142857143,56.486938775510204 L -101.57142857142858,56.25918367346939 L -101.05714285714286,56.01673469387755 L -100.54285714285716,55.7595918367347 L -100.02857142857144,55.48775510204082 L -99.51428571428573,55.20122448979592 L -99.00000000000001,54.900000000000006 L -98.48571428571431,54.58408163265307 L -97.97142857142858,54.2534693877551 L -97.45714285714286,53.90816326530613 L -96.94285714285715,53.54816326530613 L -96.42857142857144,53.173469387755105 L -95.91428571428573,52.78408163265306 L -95.4,52.38 L -94.8857142857143,51.96122448979592 L -94.3714285714286,51.527755102040814 L -93.85714285714288,51.07959183673469 L -93.34285714285716,50.61673469387755 L -92.82857142857144,50.13918367346939 L -92.31428571428572,49.64693877551021 L -91.80000000000001,49.14000000000001 L -91.28571428571429,48.61836734693878 L -90.77142857142859,48.08204081632653 L -90.25714285714287,47.531020408163265 L -89.74285714285716,46.965306122448986 L -89.22857142857143,46.384897959183675 L -88.71428571428572,45.789795918367346 L -88.2,45.17999999999999 L -87.6857142857143,44.555510204081635 L -87.17142857142858,43.91632653061224 L -86.65714285714287,43.26244897959184 L -86.14285714285715,42.593877551020405 L -85.62857142857145,41.91061224489796 L -85.11428571428573,41.21265306122449 L -84.60000000000001,40.5 L -84.60000000000001,40.5 L -85.11428571428573,39.78734693877551 L -85.62857142857145,39.08938775510204 L -86.14285714285715,38.406122448979595 L -86.65714285714287,37.73755102040816 L -87.17142857142858,37.08367346938776 L -87.6857142857143,36.444489795918365 L -88.2,35.82 L -88.71428571428572,35.210204081632654 L -89.22857142857143,34.615102040816325 L -89.74285714285716,34.034693877551014 L -90.25714285714287,33.468979591836735 L -90.77142857142859,32.91795918367347 L -91.28571428571429,32.381632653061224 L -91.80000000000001,31.859999999999996 L -92.31428571428572,31.353061224489792 L -92.82857142857144,30.86081632653061 L -93.34285714285716,30.383265306122446 L -93.85714285714288,29.920408163265304 L -94.3714285714286,29.472244897959182 L -94.8857142857143,29.03877551020408 L -95.4,28.619999999999997 L -95.91428571428573,28.215918367346937 L -96.42857142857144,27.826530612244895 L -96.94285714285715,27.451836734693874 L -97.45714285714286,27.09183673469387 L -97.97142857142858,26.746530612244893 L -98.48571428571431,26.415918367346933 L -99.00000000000001,26.099999999999994 L -99.51428571428573,25.798775510204077 L -100.02857142857144,25.512244897959178 L -100.54285714285716,25.240408163265304 L -101.05714285714286,24.983265306122448 L -101.57142857142858,24.740816326530613 L -102.0857142857143,24.513061224489793 L -102.60000000000002,24.299999999999997 L -103.11428571428573,24.10163265306122 L -103.62857142857145,23.917959183673467 L -104.14285714285715,23.748979591836733 L -104.65714285714287,23.594693877551016 L -105.17142857142858,23.45510204081632 L -105.6857142857143,23.33020408163265 L -106.2,23.219999999999995 L -106.71428571428572,23.124489795918365 L -107.22857142857144,23.043673469387755 L -107.74285714285716,22.977551020408157 L -108.25714285714287,22.92612244897959 L -108.77142857142859,22.88938775510204 L -109.28571428571429,22.867346938775505 L -109.80000000000001,22.859999999999996 L -127.80000000000001,22.859999999999996 L -127.80000000000001,22.859999999999996 L -127.1088,23.58 L -126.44640000000001,24.299999999999997 L -125.81280000000002,25.02 L -125.20800000000001,25.74 L -124.632,26.46 L -124.08480000000002,27.179999999999996 L -123.56640000000002,27.9 L -123.0768,28.619999999999997 L -122.61600000000001,29.339999999999996 L -122.184,30.06 L -121.78080000000001,30.78 L -121.4064,31.5 L -121.06080000000001,32.22 L -120.744,32.94 L -120.456,33.66 L -120.19680000000001,34.379999999999995 L -119.96640000000001,35.1 L -119.76480000000001,35.82 L -119.592,36.540000000000006 L -119.44800000000002,37.260000000000005 L -119.33280000000002,37.980000000000004 L -119.24640000000001,38.699999999999996 L -119.18880000000001,39.42 L -119.16000000000003,40.14 L -119.16000000000003,40.86 L -119.18880000000001,41.58 L -119.24640000000001,42.300000000000004 L -119.33280000000002,43.02 L -119.44800000000002,43.74 L -119.592,44.46 L -119.76480000000001,45.17999999999999 L -119.96640000000001,45.9 L -120.19680000000001,46.62 L -120.456,47.339999999999996 L -120.744,48.06 L -121.0608,48.78 L -121.4064,49.5 L -121.78080000000001,50.22 L -122.184,50.94 L -122.61600000000001,51.660000000000004 L -123.0768,52.38 L -123.56640000000002,53.1 L -124.08480000000002,53.82000000000001 L -124.632,54.540000000000006 L -125.20800000000003,55.260000000000005 L -125.81280000000002,55.980000000000004 L -126.44640000000001,56.7 L -127.1088,57.42000000000001 L -127.80000000000001,58.14000000000001" style="stroke:black;fill:none;stroke-width:2.0;stroke-linecap:round;stroke-linejoin:round;" /><path d="M -133.20000000000002,58.14000000000001 L -132.5088,57.42000000000001 L -131.84640000000002,56.7 L -131.21280000000002,55.980000000000004 L -130.608,55.260000000000005 L -130.032,54.540000000000006 L -129.4848,53.82000000000001 L -128.96640000000002,53.1 L -128.47680000000003,52.38 L -128.016,51.660000000000004 L -127.58400000000002,50.94 L -127.18080000000002,50.22 L -126.80640000000001,49.5 L -126.4608,48.78 L -126.14400000000002,48.06 L -125.85600000000002,47.339999999999996 L -125.59680000000002,46.62 L -125.3664,45.9 L -125.16480000000001,45.17999999999999 L -124.99200000000002,44.46 L -124.84800000000001,43.74 L -124.73280000000001,43.02 L -124.6464,42.300000000000004 L -124.5888,41.58 L -124.56000000000002,40.86 L -124.56000000000002,40.14 L -124.5888,39.42 L -124.6464,38.699999999999996 L -124.73280000000001,37.980000000000004 L -124.84800000000001,37.260000000000005 L -124.99200000000002,36.540000000000006 L -125.16480000000001,35.82 L -125.3664,35.1 L -125.59680000000002,34.379999999999995 L -125.85600000000002,33.66 L -126.14400000000002,32.94 L -126.4608,32.22 L -126.80640000000001,31.5 L -127.18080000000002,30.78 L -127.58400000000002,30.06 L -128.016,29.339999999999996 L -128.47680000000003,28.619999999999997 L -128.96640000000002,27.9 L -129.4848,27.179999999999996 L -130.032,26.46 L -130.608,25.74 L -131.21280000000002,25.02 L -131.84640000000002,24.299999999999997 L -132.5088,23.58 L -133.20000000000002,22.859999999999996" style="stroke:black;fill:none;stroke-width:2.0;stroke-linecap:round;stroke-linejoin:round;" /><path d="M -140.4,49.5 L -126.80640000000001,49.5" style="stroke:black;fill:none;stroke-width:2.0;stroke-linecap:round;stroke-linejoin:round;" /><path d="M -140.4,31.5 L -126.80640000000001,31.5" style="stroke:black;fill:none;stroke-width:2.0;stroke-linecap:round;stroke-linejoin:round;" /><path d="M -84.60000000000001,40.5 L -72.0,40.5" style="stroke:black;fill:none;stroke-width:2.0;stroke-linecap:round;stroke-linejoin:round;" /><path d="M -174.6,31.5 L -173.44673604034716,31.463017069506055 L -172.2982110896789,31.35222024881843 L -171.1591446833753,31.168064825839174 L -170.03421748962887,30.91130753470253 L -168.9280520755748,30.583003446192034 L -167.84519391217128,30.18450163222839 L -166.79009269588394,29.717439622243543 L -165.76708406392913,29.18373667422101 L -164.7803717782101,28.58558588805313 L -163.83401045115812,27.925445193623222 L -162.9318888844598,27.206027250644418 L -162.07771408913723,26.4302883017591 L -161.27499605264433,25.601416024703703 L -160.52703331557547,24.7228164334572 L -159.8368994172548,23.798099882199054 L -159.20743026590378,22.83106622958945 L -158.641212485286,21.825689224335036 L -158.14057278571536,20.786100176203092 L -157.70756840310432,19.71657097958354 L -157.34397864534012,18.621496559358587 L -157.05129758072718,17.505376811213658 L -156.8307278985399,16.372798110600826 L -156.6831759669144,15.228414466338274 L -156.60924810838762,14.076928396289794 L -156.60924810838762,12.92307160371021 L -156.6831759669144,11.77158553366173 L -156.8307278985399,10.627201889399178 L -157.05129758072718,9.494623188786342 L -157.34397864534012,8.378503440641417 L -157.70756840310432,7.283429020416464 L -158.14057278571536,6.213899823796913 L -158.641212485286,5.174310775664967 L -159.20743026590378,4.168933770410549 L -159.8368994172548,3.20190011780095 L -160.52703331557547,2.2771835665427975 L -161.27499605264433,1.3985839752963019 L -162.07771408913723,0.5697116982409052 L -162.9318888844598,-0.20602725064441563 L -163.83401045115812,-0.9254451936232191 L -164.7803717782101,-1.5855858880531288 L -165.76708406392913,-2.1837366742210076 L -166.79009269588394,-2.7174396222435444 L -167.84519391217128,-3.1845016322283897 L -168.9280520755748,-3.5830034461920355 L -170.03421748962887,-3.9113075347025283 L -171.1591446833753,-4.168064825839176 L -172.2982110896789,-4.352220248818429 L -173.44673604034716,-4.463017069506054 L -174.6,-4.5 L -174.6,-4.5 L -198.0,-4.5 L -198.0,13.5 L -198.0,31.5 L -174.6,31.5" style="stroke:black;fill:none;stroke-width:2.0;stroke-linecap:round;stroke-linejoin:round;" /><path d="M -210.6,22.5 L -198.0,22.5" style="stroke:black;fill:none;stroke-width:2.0;stroke-linecap:round;stroke-linejoin:round;" /><path d="M -210.6,4.5 L -198.0,4.5" style="stroke:black;fill:none;stroke-width:2.0;stroke-linecap:round;stroke-linejoin:round;" /><path d="M -147.96,13.5 L -144.0,13.5" style="stroke:black;fill:none;stroke-width:2.0;stroke-linecap:round;stroke-linejoin:round;" /><path d="M -140.4,31.5 L -144.0,31.5 L -144.0,13.5" style="stroke:black;fill:none;stroke-width:2;stroke-linecap:round;stroke-linejoin:round;" /><path d="M -199.8,85.14000000000001 L -181.8,85.14000000000001 L -181.2857142857143,85.13265306122449 L -180.7714285714286,85.11061224489796 L -180.2571428571429,85.07387755102042 L -179.74285714285713,85.02244897959184 L -179.22857142857143,84.95632653061224 L -178.71428571428572,84.87551020408164 L -178.20000000000002,84.78 L -177.68571428571428,84.66979591836736 L -177.17142857142858,84.54489795918369 L -176.65714285714287,84.40530612244898 L -176.14285714285717,84.25102040816327 L -175.62857142857143,84.08204081632653 L -175.11428571428573,83.89836734693878 L -174.60000000000002,83.7 L -174.08571428571432,83.4869387755102 L -173.57142857142856,83.2591836734694 L -173.05714285714285,83.01673469387754 L -172.54285714285714,82.75959183673469 L -172.0285714285714,82.48775510204082 L -171.5142857142857,82.20122448979592 L -171.0,81.89999999999999 L -170.4857142857143,81.58408163265305 L -169.9714285714286,81.2534693877551 L -169.45714285714286,80.90816326530613 L -168.94285714285715,80.54816326530612 L -168.42857142857144,80.17346938775509 L -167.9142857142857,79.78408163265307 L -167.4,79.38 L -166.8857142857143,78.96122448979592 L -166.3714285714286,78.52775510204083 L -165.8571428571429,78.07959183673469 L -165.34285714285716,77.61673469387755 L -164.82857142857145,77.13918367346939 L -164.31428571428575,76.64693877551021 L -163.8,76.14000000000001 L -163.2857142857143,75.61836734693878 L -162.7714285714286,75.08204081632653 L -162.2571428571429,74.53102040816326 L -161.7428571428572,73.96530612244898 L -161.22857142857143,73.38489795918366 L -160.71428571428572,72.78979591836735 L -160.20000000000002,72.17999999999999 L -159.68571428571428,71.55551020408163 L -159.17142857142858,70.91632653061224 L -158.65714285714287,70.26244897959184 L -158.14285714285717,69.5938775510204 L -157.62857142857143,68.91061224489796 L -157.11428571428573,68.2126530612245 L -156.6,67.5 L -156.6,67.5 L -157.11428571428573,66.7873469387755 L -157.62857142857143,66.08938775510204 L -158.14285714285717,65.4061224489796 L -158.65714285714287,64.73755102040816 L -159.17142857142858,64.08367346938776 L -159.68571428571428,63.444489795918365 L -160.20000000000002,62.82000000000001 L -160.71428571428572,62.210204081632654 L -161.22857142857143,61.615102040816325 L -161.7428571428572,61.034693877551014 L -162.2571428571429,60.468979591836735 L -162.7714285714286,59.91795918367347 L -163.2857142857143,59.38163265306122 L -163.8,58.85999999999999 L -164.31428571428575,58.35306122448979 L -164.82857142857145,57.86081632653061 L -165.34285714285716,57.38326530612245 L -165.8571428571429,56.92040816326531 L -166.3714285714286,56.472244897959186 L -166.8857142857143,56.03877551020408 L -167.4,55.62 L -167.9142857142857,55.21591836734694 L -168.42857142857144,54.826530612244895 L -168.94285714285715,54.45183673469387 L -169.45714285714286,54.09183673469387 L -169.9714285714286,53.7465306122449 L -170.4857142857143,53.41591836734693 L -171.0,53.099999999999994 L -171.5142857142857,52.79877551020408 L -172.0285714285714,52.51224489795918 L -172.54285714285714,52.2404081632653 L -173.05714285714285,51.98326530612245 L -173.57142857142856,51.74081632653061 L -174.08571428571432,51.513061224489796 L -174.60000000000002,51.3 L -175.11428571428573,51.101632653061216 L -175.62857142857143,50.91795918367347 L -176.14285714285717,50.748979591836736 L -176.65714285714287,50.59469387755102 L -177.17142857142858,50.45510204081632 L -177.68571428571428,50.33020408163265 L -178.20000000000002,50.22 L -178.71428571428572,50.124489795918365 L -179.22857142857143,50.043673469387755 L -179.74285714285713,49.97755102040816 L -180.2571428571429,49.92612244897959 L -180.7714285714286,49.889387755102035 L -181.2857142857143,49.867346938775505 L -181.8,49.85999999999999 L -199.8,49.85999999999999 L -199.8,49.85999999999999 L -199.1088,50.57999999999999 L -198.4464,51.3 L -197.8128,52.019999999999996 L -197.208,52.739999999999995 L -196.632,53.459999999999994 L -196.08480000000003,54.17999999999999 L -195.56640000000002,54.9 L -195.0768,55.62 L -194.616,56.339999999999996 L -194.184,57.06 L -193.78080000000003,57.78 L -193.40640000000002,58.5 L -193.0608,59.22 L -192.744,59.94 L -192.45600000000002,60.660000000000004 L -192.19680000000002,61.38 L -191.9664,62.1 L -191.7648,62.82000000000001 L -191.592,63.540000000000006 L -191.448,64.26 L -191.3328,64.98 L -191.2464,65.7 L -191.18880000000001,66.42 L -191.16000000000003,67.14 L -191.16000000000003,67.86 L -191.18880000000001,68.58 L -191.2464,69.3 L -191.3328,70.02 L -191.448,70.74000000000001 L -191.592,71.46000000000001 L -191.7648,72.17999999999999 L -191.9664,72.89999999999999 L -192.19680000000002,73.62 L -192.45600000000002,74.34 L -192.744,75.06 L -193.0608,75.78 L -193.40640000000002,76.5 L -193.78080000000003,77.22 L -194.184,77.94 L -194.616,78.66 L -195.0768,79.38 L -195.56640000000002,80.10000000000001 L -196.08480000000003,80.82000000000001 L -196.632,81.54 L -197.20800000000003,82.26 L -197.8128,82.98 L -198.4464,83.7 L -199.1088,84.42 L -199.8,85.14000000000001" style="stroke:black;fill:none;stroke-width:2.0;stroke-linecap:round;stroke-linejoin:round;" /><path d="M -212.4,76.5 L -193.40640000000002,76.5" style="stroke:black;fill:none;stroke-width:2.0;stroke-linecap:round;stroke-linejoin:round;" /><path d="M -212.4,58.5 L -193.40640000000002,58.5" style="stroke:black;fill:none;stroke-width:2.0;stroke-linecap:round;stroke-linejoin:round;" /><path d="M -156.6,67.5 L -144.0,67.5" style="stroke:black;fill:none;stroke-width:2.0;stroke-linecap:round;stroke-linejoin:round;" /><path d="M -140.4,49.5 L -144.0,49.5 L -144.0,67.5" style="stroke:black;fill:none;stroke-width:2;stroke-linecap:round;stroke-linejoin:round;" /><path d="M -68.4,85.5 L -72.0,85.5 L -72.0,40.5" style="stroke:black;fill:none;stroke-width:2;stroke-linecap:round;stroke-linejoin:round;" /><path d="M -127.80000000000001,166.14000000000001 L -109.80000000000001,166.14000000000001 L -109.28571428571429,166.13265306122452 L -108.77142857142859,166.11061224489794 L -108.25714285714287,166.0738775510204 L -107.74285714285716,166.02244897959184 L -107.22857142857144,165.95632653061227 L -106.71428571428572,165.87551020408162 L -106.2,165.78000000000003 L -105.6857142857143,165.66979591836736 L -105.17142857142858,165.5448979591837 L -104.65714285714287,165.405306122449 L -104.14285714285715,165.25102040816327 L -103.62857142857145,165.08204081632653 L -103.11428571428573,164.89836734693878 L -102.60000000000002,164.70000000000002 L -102.0857142857143,164.4869387755102 L -101.57142857142858,164.2591836734694 L -101.05714285714286,164.01673469387754 L -100.54285714285716,163.7595918367347 L -100.02857142857144,163.48775510204084 L -99.51428571428573,163.20122448979592 L -99.00000000000001,162.9 L -98.48571428571431,162.58408163265307 L -97.97142857142858,162.2534693877551 L -97.45714285714286,161.90816326530611 L -96.94285714285715,161.54816326530613 L -96.42857142857144,161.1734693877551 L -95.91428571428573,160.78408163265306 L -95.4,160.38 L -94.8857142857143,159.96122448979594 L -94.3714285714286,159.52775510204083 L -93.85714285714288,159.0795918367347 L -93.34285714285716,158.61673469387756 L -92.82857142857144,158.13918367346938 L -92.31428571428572,157.64693877551022 L -91.80000000000001,157.14000000000001 L -91.28571428571429,156.61836734693875 L -90.77142857142859,156.08204081632653 L -90.25714285714287,155.53102040816327 L -89.74285714285716,154.965306122449 L -89.22857142857143,154.38489795918366 L -88.71428571428572,153.78979591836736 L -88.2,153.18 L -87.6857142857143,152.55551020408166 L -87.17142857142858,151.91632653061225 L -86.65714285714287,151.26244897959185 L -86.14285714285715,150.5938775510204 L -85.62857142857145,149.91061224489798 L -85.11428571428573,149.2126530612245 L -84.60000000000001,148.5 L -84.60000000000001,148.5 L -85.11428571428573,147.7873469387755 L -85.62857142857145,147.08938775510202 L -86.14285714285715,146.4061224489796 L -86.65714285714287,145.73755102040815 L -87.17142857142858,145.08367346938775 L -87.6857142857143,144.44448979591834 L -88.2,143.82 L -88.71428571428572,143.21020408163264 L -89.22857142857143,142.61510204081634 L -89.74285714285716,142.03469387755104 L -90.25714285714287,141.46897959183673 L -90.77142857142859,140.91795918367347 L -91.28571428571429,140.38163265306122 L -91.80000000000001,139.85999999999999 L -92.31428571428572,139.3530612244898 L -92.82857142857144,138.8608163265306 L -93.34285714285716,138.38326530612244 L -93.85714285714288,137.9204081632653 L -94.3714285714286,137.47224489795917 L -94.8857142857143,137.03877551020406 L -95.4,136.62 L -95.91428571428573,136.21591836734694 L -96.42857142857144,135.8265306122449 L -96.94285714285715,135.45183673469387 L -97.45714285714286,135.09183673469389 L -97.97142857142858,134.7465306122449 L -98.48571428571431,134.41591836734693 L -99.00000000000001,134.1 L -99.51428571428573,133.79877551020408 L -100.02857142857144,133.5122448979592 L -100.54285714285716,133.2404081632653 L -101.05714285714286,132.98326530612246 L -101.57142857142858,132.74081632653062 L -102.0857142857143,132.5130612244898 L -102.60000000000002,132.29999999999998 L -103.11428571428573,132.10163265306122 L -103.62857142857145,131.91795918367347 L -104.14285714285715,131.74897959183673 L -104.65714285714287,131.594693877551 L -105.17142857142858,131.4551020408163 L -105.6857142857143,131.33020408163264 L -106.2,131.22 L -106.71428571428572,131.12448979591835 L -107.22857142857144,131.04367346938776 L -107.74285714285716,130.97755102040816 L -108.25714285714287,130.92612244897958 L -108.77142857142859,130.88938775510204 L -109.28571428571429,130.8673469387755 L -109.80000000000001,130.85999999999999 L -127.80000000000001,130.85999999999999 L -127.80000000000001,130.85999999999999 L -127.1088,131.57999999999998 L -126.44640000000001,132.29999999999998 L -125.81280000000002,133.01999999999998 L -125.20800000000001,133.74 L -124.632,134.46 L -124.08480000000002,135.18 L -123.56640000000002,135.9 L -123.0768,136.62 L -122.61600000000001,137.34 L -122.184,138.06 L -121.78080000000001,138.78 L -121.4064,139.5 L -121.06080000000001,140.22 L -120.744,140.94 L -120.456,141.66 L -120.19680000000001,142.38 L -119.96640000000001,143.1 L -119.76480000000001,143.82 L -119.592,144.54 L -119.44800000000002,145.26 L -119.33280000000002,145.98 L -119.24640000000001,146.70000000000002 L -119.18880000000001,147.42 L -119.16000000000003,148.14000000000001 L -119.16000000000003,148.85999999999999 L -119.18880000000001,149.58 L -119.24640000000001,150.29999999999998 L -119.33280000000002,151.02 L -119.44800000000002,151.74 L -119.592,152.46 L -119.76480000000001,153.18 L -119.96640000000001,153.9 L -120.19680000000001,154.62 L -120.456,155.34 L -120.744,156.06 L -121.0608,156.78000000000003 L -121.4064,157.5 L -121.78080000000001,158.22000000000003 L -122.184,158.94 L -122.61600000000001,159.66000000000003 L -123.0768,160.38 L -123.56640000000002,161.1 L -124.08480000000002,161.82 L -124.632,162.54 L -125.20800000000003,163.26 L -125.81280000000002,163.98 L -126.44640000000001,164.70000000000002 L -127.1088,165.42 L -127.80000000000001,166.14000000000001" style="stroke:black;fill:none;stroke-width:2.0;stroke-linecap:round;stroke-linejoin:round;" /><path d="M -133.20000000000002,166.14000000000001 L -132.5088,165.42 L -131.84640000000002,164.70000000000002 L -131.21280000000002,163.98 L -130.608,163.26 L -130.032,162.54 L -129.4848,161.82 L -128.96640000000002,161.1 L -128.47680000000003,160.38 L -128.016,159.66000000000003 L -127.58400000000002,158.94 L -127.18080000000002,158.22000000000003 L -126.80640000000001,157.5 L -126.4608,156.78000000000003 L -126.14400000000002,156.06 L -125.85600000000002,155.34 L -125.59680000000002,154.62 L -125.3664,153.9 L -125.16480000000001,153.18 L -124.99200000000002,152.46 L -124.84800000000001,151.74 L -124.73280000000001,151.02 L -124.6464,150.29999999999998 L -124.5888,149.58 L -124.56000000000002,148.85999999999999 L -124.56000000000002,148.14000000000001 L -124.5888,147.42 L -124.6464,146.70000000000002 L -124.73280000000001,145.98 L -124.84800000000001,145.26 L -124.99200000000002,144.54 L -125.16480000000001,143.82 L -125.3664,143.1 L -125.59680000000002,142.38 L -125.85600000000002,141.66 L -126.14400000000002,140.94 L -126.4608,140.22 L -126.80640000000001,139.5 L -127.18080000000002,138.78 L -127.58400000000002,138.06 L -128.016,137.34 L -128.47680000000003,136.62 L -128.96640000000002,135.9 L -129.4848,135.18 L -130.032,134.46 L -130.608,133.74 L -131.21280000000002,133.01999999999998 L -131.84640000000002,132.29999999999998 L -132.5088,131.57999999999998 L -133.20000000000002,130.85999999999999" style="stroke:black;fill:none;stroke-width:2.0;stroke-linecap:round;stroke-linejoin:round;" /><path d="M -140.4,157.5 L -126.80640000000001,157.5" style="stroke:black;fill:none;stroke-width:2.0;stroke-linecap:round;stroke-linejoin:round;" /><path d="M -140.4,139.5 L -126.80640000000001,139.5" style="stroke:black;fill:none;stroke-width:2.0;stroke-linecap:round;stroke-linejoin:round;" /><path d="M -75.96000000000001,148.5 L -72.0,148.5" style="stroke:black;fill:none;stroke-width:2.0;stroke-linecap:round;stroke-linejoin:round;" /><path d="M -199.8,139.14000000000001 L -181.8,139.14000000000001 L -181.2857142857143,139.1326530612245 L -180.7714285714286,139.11061224489796 L -180.2571428571429,139.07387755102042 L -179.74285714285713,139.02244897959184 L -179.22857142857143,138.95632653061224 L -178.71428571428572,138.87551020408165 L -178.20000000000002,138.78 L -177.68571428571428,138.66979591836736 L -177.17142857142858,138.5448979591837 L -176.65714285714287,138.405306122449 L -176.14285714285717,138.25102040816327 L -175.62857142857143,138.08204081632653 L -175.11428571428573,137.89836734693878 L -174.60000000000002,137.70000000000002 L -174.08571428571432,137.4869387755102 L -173.57142857142856,137.25918367346938 L -173.05714285714285,137.01673469387754 L -172.54285714285714,136.7595918367347 L -172.0285714285714,136.4877551020408 L -171.5142857142857,136.20122448979592 L -171.0,135.9 L -170.4857142857143,135.58408163265307 L -169.9714285714286,135.2534693877551 L -169.45714285714286,134.90816326530611 L -168.94285714285715,134.54816326530613 L -168.42857142857144,134.1734693877551 L -167.9142857142857,133.78408163265306 L -167.4,133.38 L -166.8857142857143,132.96122448979594 L -166.3714285714286,132.52775510204083 L -165.8571428571429,132.0795918367347 L -165.34285714285716,131.61673469387756 L -164.82857142857145,131.1391836734694 L -164.31428571428575,130.6469387755102 L -163.8,130.14000000000001 L -163.2857142857143,129.61836734693878 L -162.7714285714286,129.08204081632653 L -162.2571428571429,128.53102040816327 L -161.7428571428572,127.96530612244898 L -161.22857142857143,127.38489795918366 L -160.71428571428572,126.78979591836735 L -160.20000000000002,126.17999999999999 L -159.68571428571428,125.55551020408163 L -159.17142857142858,124.91632653061224 L -158.65714285714287,124.26244897959184 L -158.14285714285717,123.5938775510204 L -157.62857142857143,122.91061224489796 L -157.11428571428573,122.21265306122449 L -156.6,121.5 L -156.6,121.5 L -157.11428571428573,120.78734693877551 L -157.62857142857143,120.08938775510204 L -158.14285714285717,119.4061224489796 L -158.65714285714287,118.73755102040816 L -159.17142857142858,118.08367346938776 L -159.68571428571428,117.44448979591837 L -160.20000000000002,116.82000000000001 L -160.71428571428572,116.21020408163265 L -161.22857142857143,115.61510204081634 L -161.7428571428572,115.03469387755102 L -162.2571428571429,114.46897959183674 L -162.7714285714286,113.91795918367347 L -163.2857142857143,113.38163265306122 L -163.8,112.85999999999999 L -164.31428571428575,112.35306122448979 L -164.82857142857145,111.86081632653061 L -165.34285714285716,111.38326530612245 L -165.8571428571429,110.92040816326531 L -166.3714285714286,110.47224489795917 L -166.8857142857143,110.03877551020408 L -167.4,109.62 L -167.9142857142857,109.21591836734693 L -168.42857142857144,108.82653061224491 L -168.94285714285715,108.45183673469388 L -169.45714285714286,108.09183673469387 L -169.9714285714286,107.7465306122449 L -170.4857142857143,107.41591836734695 L -171.0,107.10000000000001 L -171.5142857142857,106.79877551020408 L -172.0285714285714,106.51224489795918 L -172.54285714285714,106.24040816326531 L -173.05714285714285,105.98326530612246 L -173.57142857142856,105.7408163265306 L -174.08571428571432,105.5130612244898 L -174.60000000000002,105.3 L -175.11428571428573,105.10163265306122 L -175.62857142857143,104.91795918367347 L -176.14285714285717,104.74897959183673 L -176.65714285714287,104.59469387755102 L -177.17142857142858,104.45510204081631 L -177.68571428571428,104.33020408163264 L -178.20000000000002,104.22 L -178.71428571428572,104.12448979591836 L -179.22857142857143,104.04367346938776 L -179.74285714285713,103.97755102040816 L -180.2571428571429,103.92612244897958 L -180.7714285714286,103.88938775510204 L -181.2857142857143,103.86734693877551 L -181.8,103.85999999999999 L -199.8,103.85999999999999 L -199.8,103.85999999999999 L -199.1088,104.58 L -198.4464,105.3 L -197.8128,106.02 L -197.208,106.74 L -196.632,107.46 L -196.08480000000003,108.17999999999999 L -195.56640000000002,108.89999999999999 L -195.0768,109.62 L -194.616,110.34 L -194.184,111.06 L -193.78080000000003,111.78 L -193.40640000000002,112.5 L -193.0608,113.22 L -192.744,113.94 L -192.45600000000002,114.66 L -192.19680000000002,115.38 L -191.9664,116.10000000000001 L -191.7648,116.82000000000001 L -191.592,117.54 L -191.448,118.26 L -191.3328,118.98 L -191.2464,119.7 L -191.18880000000001,120.41999999999999 L -191.16000000000003,121.14000000000001 L -191.16000000000003,121.85999999999999 L -191.18880000000001,122.58000000000001 L -191.2464,123.3 L -191.3328,124.02 L -191.448,124.74 L -191.592,125.46 L -191.7648,126.17999999999999 L -191.9664,126.89999999999999 L -192.19680000000002,127.62 L -192.45600000000002,128.34 L -192.744,129.06 L -193.0608,129.78 L -193.40640000000002,130.5 L -193.78080000000003,131.22 L -194.184,131.94 L -194.616,132.66 L -195.0768,133.38 L -195.56640000000002,134.1 L -196.08480000000003,134.82 L -196.632,135.54 L -197.20800000000003,136.26 L -197.8128,136.98000000000002 L -198.4464,137.70000000000002 L -199.1088,138.42000000000002 L -199.8,139.14000000000001" style="stroke:black;fill:none;stroke-width:2.0;stroke-linecap:round;stroke-linejoin:round;" /><path d="M -205.20000000000002,139.14000000000001 L -204.5088,138.42000000000002 L -203.8464,137.70000000000002 L -203.21280000000002,136.98000000000002 L -202.608,136.26 L -202.032,135.54 L -201.4848,134.82 L -200.9664,134.1 L -200.47680000000003,133.38 L -200.016,132.66 L -199.584,131.94 L -199.1808,131.22 L -198.8064,130.5 L -198.4608,129.78 L -198.144,129.06 L -197.85600000000002,128.34 L -197.5968,127.62 L -197.3664,126.89999999999999 L -197.1648,126.17999999999999 L -196.99200000000002,125.46 L -196.848,124.74 L -196.7328,124.02 L -196.64640000000003,123.3 L -196.58880000000002,122.58000000000001 L -196.56000000000003,121.85999999999999 L -196.56000000000003,121.14000000000001 L -196.58880000000002,120.41999999999999 L -196.64640000000003,119.7 L -196.7328,118.98 L -196.848,118.26 L -196.99200000000002,117.54 L -197.1648,116.82000000000001 L -197.3664,116.10000000000001 L -197.5968,115.38 L -197.85600000000002,114.66 L -198.144,113.94 L -198.4608,113.22 L -198.8064,112.5 L -199.1808,111.78 L -199.584,111.06 L -200.016,110.34 L -200.47680000000003,109.62 L -200.9664,108.89999999999999 L -201.4848,108.17999999999999 L -202.032,107.46 L -202.608,106.74 L -203.21280000000002,106.02 L -203.8464,105.3 L -204.5088,104.58 L -205.20000000000002,103.85999999999999" style="stroke:black;fill:none;stroke-width:2.0;stroke-linecap:round;stroke-linejoin:round;" /><path d="M -212.4,130.5 L -198.8064,130.5" style="stroke:black;fill:none;stroke-width:2.0;stroke-linecap:round;stroke-linejoin:round;" /><path d="M -212.4,112.5 L -198.8064,112.5" style="stroke:black;fill:none;stroke-width:2.0;stroke-linecap:round;stroke-linejoin:round;" /><path d="M -147.96,121.5 L -144.0,121.5" style="stroke:black;fill:none;stroke-width:2.0;stroke-linecap:round;stroke-linejoin:round;" /><path d="M -140.4,139.5 L -144.0,139.5 L -144.0,121.5" style="stroke:black;fill:none;stroke-width:2;stroke-linecap:round;stroke-linejoin:round;" /><path d="M -199.8,193.14000000000001 L -181.8,193.14000000000001 L -181.2857142857143,193.13265306122452 L -180.7714285714286,193.11061224489794 L -180.2571428571429,193.0738775510204 L -179.74285714285713,193.02244897959184 L -179.22857142857143,192.95632653061227 L -178.71428571428572,192.87551020408162 L -178.20000000000002,192.78000000000003 L -177.68571428571428,192.66979591836736 L -177.17142857142858,192.5448979591837 L -176.65714285714287,192.405306122449 L -176.14285714285717,192.25102040816327 L -175.62857142857143,192.08204081632653 L -175.11428571428573,191.89836734693878 L -174.60000000000002,191.70000000000002 L -174.08571428571432,191.4869387755102 L -173.57142857142856,191.2591836734694 L -173.05714285714285,191.01673469387754 L -172.54285714285714,190.7595918367347 L -172.0285714285714,190.48775510204084 L -171.5142857142857,190.20122448979592 L -171.0,189.9 L -170.4857142857143,189.58408163265307 L -169.9714285714286,189.2534693877551 L -169.45714285714286,188.90816326530611 L -168.94285714285715,188.54816326530613 L -168.42857142857144,188.1734693877551 L -167.9142857142857,187.78408163265306 L -167.4,187.38 L -166.8857142857143,186.96122448979594 L -166.3714285714286,186.52775510204083 L -165.8571428571429,186.0795918367347 L -165.34285714285716,185.61673469387756 L -164.82857142857145,185.13918367346938 L -164.31428571428575,184.64693877551022 L -163.8,184.14000000000001 L -163.2857142857143,183.61836734693875 L -162.7714285714286,183.08204081632653 L -162.2571428571429,182.53102040816327 L -161.7428571428572,181.965306122449 L -161.22857142857143,181.38489795918366 L -160.71428571428572,180.78979591836736 L -160.20000000000002,180.18 L -159.68571428571428,179.55551020408166 L -159.17142857142858,178.91632653061225 L -158.65714285714287,178.26244897959185 L -158.14285714285717,177.5938775510204 L -157.62857142857143,176.91061224489798 L -157.11428571428573,176.2126530612245 L -156.6,175.5 L -156.6,175.5 L -157.11428571428573,174.7873469387755 L -157.62857142857143,174.08938775510202 L -158.14285714285717,173.4061224489796 L -158.65714285714287,172.73755102040815 L -159.17142857142858,172.08367346938775 L -159.68571428571428,171.44448979591834 L -160.20000000000002,170.82 L -160.71428571428572,170.21020408163264 L -161.22857142857143,169.61510204081634 L -161.7428571428572,169.034693877551 L -162.2571428571429,168.46897959183673 L -162.7714285714286,167.91795918367347 L -163.2857142857143,167.38163265306125 L -163.8,166.85999999999999 L -164.31428571428575,166.35306122448978 L -164.82857142857145,165.86081632653062 L -165.34285714285716,165.38326530612244 L -165.8571428571429,164.9204081632653 L -166.3714285714286,164.47224489795917 L -166.8857142857143,164.03877551020406 L -167.4,163.62 L -167.9142857142857,163.21591836734694 L -168.42857142857144,162.8265306122449 L -168.94285714285715,162.45183673469387 L -169.45714285714286,162.09183673469389 L -169.9714285714286,161.7465306122449 L -170.4857142857143,161.41591836734693 L -171.0,161.1 L -171.5142857142857,160.79877551020408 L -172.0285714285714,160.51224489795916 L -172.54285714285714,160.2404081632653 L -173.05714285714285,159.98326530612246 L -173.57142857142856,159.7408163265306 L -174.08571428571432,159.5130612244898 L -174.60000000000002,159.29999999999998 L -175.11428571428573,159.10163265306122 L -175.62857142857143,158.91795918367347 L -176.14285714285717,158.74897959183673 L -176.65714285714287,158.594693877551 L -177.17142857142858,158.4551020408163 L -177.68571428571428,158.33020408163264 L -178.20000000000002,158.21999999999997 L -178.71428571428572,158.12448979591838 L -179.22857142857143,158.04367346938773 L -179.74285714285713,157.97755102040816 L -180.2571428571429,157.9261224489796 L -180.7714285714286,157.88938775510206 L -181.2857142857143,157.86734693877548 L -181.8,157.85999999999999 L -199.8,157.85999999999999 L -199.8,157.85999999999999 L -199.1088,158.58 L -198.4464,159.29999999999998 L -197.8128,160.02 L -197.208,160.74 L -196.632,161.46 L -196.08480000000003,162.18 L -195.56640000000002,162.9 L -195.0768,163.62 L -194.616,164.33999999999997 L -194.184,165.06 L -193.78080000000003,165.78000000000003 L -193.40640000000002,166.5 L -193.0608,167.21999999999997 L -192.744,167.94 L -192.45600000000002,168.66 L -192.19680000000002,169.38 L -191.9664,170.1 L -191.7648,170.82 L -191.592,171.54 L -191.448,172.26 L -191.3328,172.98 L -191.2464,173.70000000000002 L -191.18880000000001,174.42 L -191.16000000000003,175.14000000000001 L -191.16000000000003,175.85999999999999 L -191.18880000000001,176.58 L -191.2464,177.29999999999998 L -191.3328,178.02 L -191.448,178.74 L -191.592,179.46 L -191.7648,180.18 L -191.9664,180.9 L -192.19680000000002,181.62 L -192.45600000000002,182.34 L -192.744,183.06 L -193.0608,183.78000000000003 L -193.40640000000002,184.5 L -193.78080000000003,185.22000000000003 L -194.184,185.94 L -194.616,186.66000000000003 L -195.0768,187.38 L -195.56640000000002,188.1 L -196.08480000000003,188.82 L -196.632,189.54 L -197.20800000000003,190.26 L -197.8128,190.98 L -198.4464,191.70000000000002 L -199.1088,192.42 L -199.8,193.14000000000001" style="stroke:black;fill:none;stroke-width:2.0;stroke-linecap:round;stroke-linejoin:round;" /><path d="M -212.4,184.5 L -193.40640000000002,184.5" style="stroke:black;fill:none;stroke-width:2.0;stroke-linecap:round;stroke-linejoin:round;" /><path d="M -212.4,166.5 L -193.40640000000002,166.5" style="stroke:black;fill:none;stroke-width:2.0;stroke-linecap:round;stroke-linejoin:round;" /><path d="M -147.96,175.5 L -144.0,175.5" style="stroke:black;fill:none;stroke-width:2.0;stroke-linecap:round;stroke-linejoin:round;" /><path d="M -140.4,157.5 L -144.0,157.5 L -144.0,175.5" style="stroke:black;fill:none;stroke-width:2;stroke-linecap:round;stroke-linejoin:round;" /><path d="M -68.4,103.5 L -72.0,103.5 L -72.0,148.5" style="stroke:black;fill:none;stroke-width:2;stroke-linecap:round;stroke-linejoin:round;" /><text x="3.600000000000003" y="88.89999999999999" fill="black" font-size="14.0" font-family="sans" text-anchor="start"><tspan x="3.600000000000003" dy="14.0">\text{Output}</tspan></text><text x="-214.20000000000002" y="-1.0999999999999996" fill="black" font-size="14.0" font-family="sans" text-anchor="end"><tspan x="-214.20000000000002" dy="14.0">b</tspan></text><text x="-214.20000000000002" y="16.9" fill="black" font-size="14.0" font-family="sans" text-anchor="end"><tspan x="-214.20000000000002" dy="14.0">a</tspan></text><text x="-216.0" y="52.89999999999999" fill="black" font-size="14.0" font-family="sans" text-anchor="end"><tspan x="-216.0" dy="14.0">b</tspan></text><text x="-216.0" y="70.89999999999999" fill="black" font-size="14.0" font-family="sans" text-anchor="end"><tspan x="-216.0" dy="14.0">b</tspan></text><text x="-216.0" y="106.89999999999999" fill="black" font-size="14.0" font-family="sans" text-anchor="end"><tspan x="-216.0" dy="14.0">a</tspan></text><text x="-216.0" y="124.89999999999999" fill="black" font-size="14.0" font-family="sans" text-anchor="end"><tspan x="-216.0" dy="14.0">b</tspan></text><text x="-216.0" y="160.9" fill="black" font-size="14.0" font-family="sans" text-anchor="end"><tspan x="-216.0" dy="14.0">b</tspan></text><text x="-216.0" y="178.9" fill="black" font-size="14.0" font-family="sans" text-anchor="end"><tspan x="-216.0" dy="14.0">a</tspan></text></svg>