<?xml version="1.0" encoding="utf-8" standalone="no"?>
<!DOCTYPE svg PUBLIC "-//W3C//DTD SVG 1.1//EN"
  "http://www.w3.org/Graphics/SVG/1.1/DTD/svg11.dtd">
<svg xmlns:xlink="http://www.w3.org/1999/xlink" width="322.44pt" height="180pt" viewBox="0 0 322.44 180" xmlns="http://www.w3.org/2000/svg" version="1.1">
 <metadata>
  <rdf:RDF xmlns:dc="http://purl.org/dc/elements/1.1/" xmlns:cc="http://creativecommons.org/ns#" xmlns:rdf="http://www.w3.org/1999/02/22-rdf-syntax-ns#">
   <cc:Work>
    <dc:type rdf:resource="http://purl.org/dc/dcmitype/StillImage"/>
    <dc:date>2024-10-01T15:49:51.418828</dc:date>
    <dc:format>image/svg+xml</dc:format>
    <dc:creator>
     <cc:Agent>
      <dc:title>Matplotlib v3.9.0, https://matplotlib.org/</dc:title>
     </cc:Agent>
    </dc:creator>
   </cc:Work>
  </rdf:RDF>
 </metadata>
 <defs>
  <style type="text/css">*{stroke-linejoin: round; stroke-linecap: butt}</style>
 </defs>
 <g id="figure_1">
  <g id="patch_1">
   <path d="M 0 180 
L 322.44 180 
L 322.44 0 
L 0 0 
L 0 180 
z
" style="fill: none"/>
  </g>
  <g id="axes_1">
   <g id="patch_2">
    <path d="M 223.98 90.765 
C 225.125677 90.765 226.224585 90.309818 227.034701 89.499701 
C 227.844818 88.689585 228.3 87.590677 228.3 86.445 
C 228.3 85.299323 227.844818 84.200415 227.034701 83.390299 
C 226.224585 82.580182 225.125677 82.125 223.98 82.125 
C 222.834323 82.125 221.735415 82.580182 220.925299 83.390299 
C 220.115182 84.200415 219.66 85.299323 219.66 86.445 
C 219.66 87.590677 220.115182 88.689585 220.925299 89.499701 
C 221.735415 90.309818 222.834323 90.765 223.98 90.765 
L 223.98 90.765 
z
" clip-path="url(#pa4158330d2)" style="fill: none; stroke: #000000; stroke-width: 2; stroke-linejoin: miter"/>
   </g>
   <g id="patch_3">
    <path d="M 79.98 26.64 
C 81.125677 26.64 82.224585 26.184818 83.034701 25.374701 
C 83.844818 24.564585 84.3 23.465677 84.3 22.32 
C 84.3 21.174323 83.844818 20.075415 83.034701 19.265299 
C 82.224585 18.455182 81.125677 18 79.98 18 
C 78.834323 18 77.735415 18.455182 76.925299 19.265299 
C 76.115182 20.075415 75.66 21.174323 75.66 22.32 
C 75.66 23.465677 76.115182 24.564585 76.925299 25.374701 
C 77.735415 26.184818 78.834323 26.64 79.98 26.64 
L 79.98 26.64 
z
" clip-path="url(#pa4158330d2)" style="fill: none; stroke: #000000; stroke-width: 2; stroke-linejoin: miter"/>
   </g>
   <g id="patch_4">
    <path d="M 63.96 67.14 
C 65.105677 67.14 66.204585 66.684818 67.014701 65.874701 
C 67.824818 65.064585 68.28 63.965677 68.28 62.82 
C 68.28 61.674323 67.824818 60.575415 67.014701 59.765299 
C 66.204585 58.955182 65.105677 58.5 63.96 58.5 
C 62.814323 58.5 61.715415 58.955182 60.905299 59.765299 
C 60.095182 60.575415 59.64 61.674323 59.64 62.82 
C 59.64 63.965677 60.095182 65.064585 60.905299 65.874701 
C 61.715415 66.684818 62.814323 67.14 63.96 67.14 
L 63.96 67.14 
z
" clip-path="url(#pa4158330d2)" style="fill: none; stroke: #000000; stroke-width: 2; stroke-linejoin: miter"/>
   </g>
   <g id="patch_5">
    <path d="M 151.98 134.64 
C 153.125677 134.64 154.224585 134.184818 155.034701 133.374701 
C 155.844818 132.564585 156.3 131.465677 156.3 130.32 
C 156.3 129.174323 155.844818 128.075415 155.034701 127.265299 
C 154.224585 126.455182 153.125677 126 151.98 126 
C 150.834323 126 149.735415 126.455182 148.925299 127.265299 
C 148.115182 128.075415 147.66 129.174323 147.66 130.32 
C 147.66 131.465677 148.115182 132.564585 148.925299 133.374701 
C 149.735415 134.184818 150.834323 134.64 151.98 134.64 
L 151.98 134.64 
z
" clip-path="url(#pa4158330d2)" style="fill: none; stroke: #000000; stroke-width: 2; stroke-linejoin: miter"/>
   </g>
   <g id="patch_6">
    <path d="M 79.98 161.64 
C 81.125677 161.64 82.224585 161.184818 83.034701 160.374701 
C 83.844818 159.564585 84.3 158.465677 84.3 157.32 
C 84.3 156.174323 83.844818 155.075415 83.034701 154.265299 
C 82.224585 153.455182 81.125677 153 79.98 153 
C 78.834323 153 77.735415 153.455182 76.925299 154.265299 
C 76.115182 155.075415 75.66 156.174323 75.66 157.32 
C 75.66 158.465677 76.115182 159.564585 76.925299 160.374701 
C 77.735415 161.184818 78.834323 161.64 79.98 161.64 
L 79.98 161.64 
z
" clip-path="url(#pa4158330d2)" style="fill: none; stroke: #000000; stroke-width: 2; stroke-linejoin: miter"/>
   </g>
   <g id="line2d_1">
    <path d="M 176.46 104.085 
L 196.002857 104.018878 
L 198.06 103.725 
L 200.117143 103.19602 
L 202.174286 102.431939 
L 204.231429 101.432755 
L 206.288571 100.198469 
L 208.345714 98.729082 
L 210.402857 97.024592 
L 212.974286 94.563367 
L 215.545714 91.734796 
L 218.117143 88.538878 
L 219.66 86.445 
L 219.66 86.445 
L 217.088571 83.028673 
L 214.517143 79.979694 
L 211.945714 77.298061 
L 209.374286 74.983776 
L 207.317143 73.396837 
L 205.26 72.045 
L 203.202857 70.928265 
L 201.145714 70.046633 
L 199.088571 69.400102 
L 197.031429 68.988673 
L 194.974286 68.812347 
L 194.46 68.805 
L 176.46 68.805 
L 176.46 68.805 
L 178.4472 70.965 
L 180.1752 73.125 
L 181.644 75.285 
L 182.8536 77.445 
L 183.804 79.605 
L 184.4952 81.765 
L 184.9272 83.925 
L 185.1 86.085 
L 185.0136 88.245 
L 184.668 90.405 
L 184.0632 92.565 
L 183.1992 94.725 
L 182.076 96.885 
L 180.6936 99.045 
L 179.052 101.205 
L 177.1512 103.365 
L 176.46 104.085 
L 176.46 104.085 
" clip-path="url(#pa4158330d2)" style="fill: none; stroke: #000000; stroke-width: 2; stroke-linecap: round"/>
   </g>
   <g id="line2d_2">
    <path d="M 171.06 104.085 
L 171.7512 103.365 
L 172.4136 102.645 
L 173.0472 101.925 
L 173.652 101.205 
L 174.228 100.485 
L 174.7752 99.765 
L 175.2936 99.045 
L 175.7832 98.325 
L 176.244 97.605 
L 176.676 96.885 
L 177.0792 96.165 
L 177.4536 95.445 
L 177.7992 94.725 
L 178.116 94.005 
L 178.404 93.285 
L 178.6632 92.565 
L 178.8936 91.845 
L 179.0952 91.125 
L 179.268 90.405 
L 179.412 89.685 
L 179.5272 88.965 
L 179.6136 88.245 
L 179.6712 87.525 
L 179.7 86.805 
L 179.7 86.085 
L 179.6712 85.365 
L 179.6136 84.645 
L 179.5272 83.925 
L 179.412 83.205 
L 179.268 82.485 
L 179.0952 81.765 
L 178.8936 81.045 
L 178.6632 80.325 
L 178.404 79.605 
L 178.116 78.885 
L 177.7992 78.165 
L 177.4536 77.445 
L 177.0792 76.725 
L 176.676 76.005 
L 176.244 75.285 
L 175.7832 74.565 
L 175.2936 73.845 
L 174.7752 73.125 
L 174.228 72.405 
L 173.652 71.685 
L 173.0472 70.965 
L 172.4136 70.245 
L 171.7512 69.525 
L 171.06 68.805 
" clip-path="url(#pa4158330d2)" style="fill: none; stroke: #000000; stroke-width: 2; stroke-linecap: round"/>
   </g>
   <g id="line2d_3">
    <path d="M 163.86 95.445 
L 177.4536 95.445 
" clip-path="url(#pa4158330d2)" style="fill: none; stroke: #000000; stroke-width: 2; stroke-linecap: round"/>
   </g>
   <g id="line2d_4">
    <path d="M 163.86 77.445 
L 177.4536 77.445 
" clip-path="url(#pa4158330d2)" style="fill: none; stroke: #000000; stroke-width: 2; stroke-linecap: round"/>
   </g>
   <g id="line2d_5">
    <path d="M 228.3 86.445 
L 232.26 86.445 
" clip-path="url(#pa4158330d2)" style="fill: none; stroke: #000000; stroke-width: 2; stroke-linecap: round"/>
   </g>
   <g id="line2d_6">
    <path d="M 129.66 60.57 
L 130.813264 60.533017 
L 131.961789 60.42222 
L 133.100855 60.238065 
L 134.225783 59.981308 
L 135.331948 59.653003 
L 136.414806 59.254502 
L 137.469907 58.78744 
L 138.492916 58.253737 
L 139.479628 57.655586 
L 140.42599 56.995445 
L 141.328111 56.276027 
L 142.182286 55.500288 
L 142.985004 54.671416 
L 143.732967 53.792816 
L 144.423101 52.8681 
L 145.05257 51.901066 
L 145.618788 50.895689 
L 146.119427 49.8561 
L 146.552432 48.786571 
L 146.916021 47.691497 
L 147.208702 46.575377 
L 147.429272 45.442798 
L 147.576824 44.298414 
L 147.650752 43.146928 
L 147.650752 41.993072 
L 147.576824 40.841586 
L 147.429272 39.697202 
L 147.208702 38.564623 
L 146.916021 37.448503 
L 146.552432 36.353429 
L 146.119427 35.2839 
L 145.618788 34.244311 
L 145.05257 33.238934 
L 144.423101 32.2719 
L 143.732967 31.347184 
L 142.985004 30.468584 
L 142.182286 29.639712 
L 141.328111 28.863973 
L 140.42599 28.144555 
L 139.479628 27.484414 
L 138.492916 26.886263 
L 137.469907 26.35256 
L 136.414806 25.885498 
L 135.331948 25.486997 
L 134.225783 25.158692 
L 133.100855 24.901935 
L 131.961789 24.71778 
L 130.813264 24.606983 
L 129.66 24.57 
L 129.66 24.57 
L 106.26 24.57 
L 106.26 42.57 
L 106.26 60.57 
L 129.66 60.57 
" clip-path="url(#pa4158330d2)" style="fill: none; stroke: #000000; stroke-width: 2; stroke-linecap: round"/>
   </g>
   <g id="line2d_7">
    <path d="M 93.66 51.57 
L 106.26 51.57 
" clip-path="url(#pa4158330d2)" style="fill: none; stroke: #000000; stroke-width: 2; stroke-linecap: round"/>
   </g>
   <g id="line2d_8">
    <path d="M 93.66 33.57 
L 106.26 33.57 
" clip-path="url(#pa4158330d2)" style="fill: none; stroke: #000000; stroke-width: 2; stroke-linecap: round"/>
   </g>
   <g id="line2d_9">
    <path d="M 147.66 42.57 
L 160.26 42.57 
" clip-path="url(#pa4158330d2)" style="fill: none; stroke: #000000; stroke-width: 2; stroke-linecap: round"/>
   </g>
   <g id="line2d_10">
    <path d="M 32.46 39.96 
L 52.002857 39.893878 
L 54.06 39.6 
L 56.117143 39.07102 
L 58.174286 38.306939 
L 60.231429 37.307755 
L 62.288571 36.073469 
L 64.345714 34.604082 
L 66.402857 32.899592 
L 68.974286 30.438367 
L 71.545714 27.609796 
L 74.117143 24.413878 
L 75.66 22.32 
L 75.66 22.32 
L 73.088571 18.903673 
L 70.517143 15.854694 
L 67.945714 13.173061 
L 65.374286 10.858776 
L 63.317143 9.271837 
L 61.26 7.92 
L 59.202857 6.803265 
L 57.145714 5.921633 
L 55.088571 5.275102 
L 53.031429 4.863673 
L 50.974286 4.687347 
L 50.46 4.68 
L 32.46 4.68 
L 32.46 4.68 
L 34.4472 6.84 
L 36.1752 9 
L 37.644 11.16 
L 38.8536 13.32 
L 39.804 15.48 
L 40.4952 17.64 
L 40.9272 19.8 
L 41.1 21.96 
L 41.0136 24.12 
L 40.668 26.28 
L 40.0632 28.44 
L 39.1992 30.6 
L 38.076 32.76 
L 36.6936 34.92 
L 35.052 37.08 
L 33.1512 39.24 
L 32.46 39.96 
L 32.46 39.96 
" clip-path="url(#pa4158330d2)" style="fill: none; stroke: #000000; stroke-width: 2; stroke-linecap: round"/>
   </g>
   <g id="line2d_11">
    <path d="M 19.86 31.32 
L 38.8536 31.32 
" clip-path="url(#pa4158330d2)" style="fill: none; stroke: #000000; stroke-width: 2; stroke-linecap: round"/>
   </g>
   <g id="line2d_12">
    <path d="M 19.86 13.32 
L 38.8536 13.32 
" clip-path="url(#pa4158330d2)" style="fill: none; stroke: #000000; stroke-width: 2; stroke-linecap: round"/>
   </g>
   <g id="line2d_13">
    <path d="M 84.3 22.32 
L 88.26 22.32 
" clip-path="url(#pa4158330d2)" style="fill: none; stroke: #000000; stroke-width: 2; stroke-linecap: round"/>
   </g>
   <g id="line2d_14">
    <path d="M 93.66 33.57 
L 88.26 33.57 
L 88.26 22.32 
" clip-path="url(#pa4158330d2)" style="fill: none; stroke: #000000; stroke-width: 2; stroke-linecap: round"/>
   </g>
   <g id="line2d_15">
    <path d="M 16.26 62.82 
L 36.24 62.82 
M 68.28 62.82 
L 88.26 62.82 
" clip-path="url(#pa4158330d2)" style="fill: none; stroke: #000000; stroke-width: 2; stroke-linecap: round"/>
   </g>
   <g id="line2d_16">
    <path d="M 36.24 44.82 
L 59.64 62.82 
L 36.24 80.82 
L 36.24 44.82 
" clip-path="url(#pa4158330d2)" style="fill: none; stroke: #000000; stroke-width: 2; stroke-linecap: round"/>
   </g>
   <g id="line2d_17">
    <path d="M 93.66 51.57 
L 88.26 51.57 
L 88.26 62.82 
" clip-path="url(#pa4158330d2)" style="fill: none; stroke: #000000; stroke-width: 2; stroke-linecap: round"/>
   </g>
   <g id="line2d_18">
    <path d="M 163.86 77.445 
L 160.26 77.445 
L 160.26 42.57 
" clip-path="url(#pa4158330d2)" style="fill: none; stroke: #000000; stroke-width: 2; stroke-linecap: round"/>
   </g>
   <g id="line2d_19">
    <path d="M 104.46 147.96 
L 124.002857 147.893878 
L 126.06 147.6 
L 128.117143 147.07102 
L 130.174286 146.306939 
L 132.231429 145.307755 
L 134.288571 144.073469 
L 136.345714 142.604082 
L 138.402857 140.899592 
L 140.974286 138.438367 
L 143.545714 135.609796 
L 146.117143 132.413878 
L 147.66 130.32 
L 147.66 130.32 
L 145.088571 126.903673 
L 142.517143 123.854694 
L 139.945714 121.173061 
L 137.374286 118.858776 
L 135.317143 117.271837 
L 133.26 115.92 
L 131.202857 114.803265 
L 129.145714 113.921633 
L 127.088571 113.275102 
L 125.031429 112.863673 
L 122.974286 112.687347 
L 122.46 112.68 
L 104.46 112.68 
L 104.46 112.68 
L 106.4472 114.84 
L 108.1752 117 
L 109.644 119.16 
L 110.8536 121.32 
L 111.804 123.48 
L 112.4952 125.64 
L 112.9272 127.8 
L 113.1 129.96 
L 113.0136 132.12 
L 112.668 134.28 
L 112.0632 136.44 
L 111.1992 138.6 
L 110.076 140.76 
L 108.6936 142.92 
L 107.052 145.08 
L 105.1512 147.24 
L 104.46 147.96 
L 104.46 147.96 
" clip-path="url(#pa4158330d2)" style="fill: none; stroke: #000000; stroke-width: 2; stroke-linecap: round"/>
   </g>
   <g id="line2d_20">
    <path d="M 99.06 147.96 
L 99.7512 147.24 
L 100.4136 146.52 
L 101.0472 145.8 
L 101.652 145.08 
L 102.228 144.36 
L 102.7752 143.64 
L 103.2936 142.92 
L 103.7832 142.2 
L 104.244 141.48 
L 104.676 140.76 
L 105.0792 140.04 
L 105.4536 139.32 
L 105.7992 138.6 
L 106.116 137.88 
L 106.404 137.16 
L 106.6632 136.44 
L 106.8936 135.72 
L 107.0952 135 
L 107.268 134.28 
L 107.412 133.56 
L 107.5272 132.84 
L 107.6136 132.12 
L 107.6712 131.4 
L 107.7 130.68 
L 107.7 129.96 
L 107.6712 129.24 
L 107.6136 128.52 
L 107.5272 127.8 
L 107.412 127.08 
L 107.268 126.36 
L 107.0952 125.64 
L 106.8936 124.92 
L 106.6632 124.2 
L 106.404 123.48 
L 106.116 122.76 
L 105.7992 122.04 
L 105.4536 121.32 
L 105.0792 120.6 
L 104.676 119.88 
L 104.244 119.16 
L 103.7832 118.44 
L 103.2936 117.72 
L 102.7752 117 
L 102.228 116.28 
L 101.652 115.56 
L 101.0472 114.84 
L 100.4136 114.12 
L 99.7512 113.4 
L 99.06 112.68 
" clip-path="url(#pa4158330d2)" style="fill: none; stroke: #000000; stroke-width: 2; stroke-linecap: round"/>
   </g>
   <g id="line2d_21">
    <path d="M 91.86 139.32 
L 105.4536 139.32 
" clip-path="url(#pa4158330d2)" style="fill: none; stroke: #000000; stroke-width: 2; stroke-linecap: round"/>
   </g>
   <g id="line2d_22">
    <path d="M 91.86 121.32 
L 105.4536 121.32 
" clip-path="url(#pa4158330d2)" style="fill: none; stroke: #000000; stroke-width: 2; stroke-linecap: round"/>
   </g>
   <g id="line2d_23">
    <path d="M 156.3 130.32 
L 160.26 130.32 
" clip-path="url(#pa4158330d2)" style="fill: none; stroke: #000000; stroke-width: 2; stroke-linecap: round"/>
   </g>
   <g id="line2d_24">
    <path d="M 57.66 121.32 
L 58.813264 121.283017 
L 59.961789 121.17222 
L 61.100855 120.988065 
L 62.225783 120.731308 
L 63.331948 120.403003 
L 64.414806 120.004502 
L 65.469907 119.53744 
L 66.492916 119.003737 
L 67.479628 118.405586 
L 68.42599 117.745445 
L 69.328111 117.026027 
L 70.182286 116.250288 
L 70.985004 115.421416 
L 71.732967 114.542816 
L 72.423101 113.6181 
L 73.05257 112.651066 
L 73.618788 111.645689 
L 74.119427 110.6061 
L 74.552432 109.536571 
L 74.916021 108.441497 
L 75.208702 107.325377 
L 75.429272 106.192798 
L 75.576824 105.048414 
L 75.650752 103.896928 
L 75.650752 102.743072 
L 75.576824 101.591586 
L 75.429272 100.447202 
L 75.208702 99.314623 
L 74.916021 98.198503 
L 74.552432 97.103429 
L 74.119427 96.0339 
L 73.618788 94.994311 
L 73.05257 93.988934 
L 72.423101 93.0219 
L 71.732967 92.097184 
L 70.985004 91.218584 
L 70.182286 90.389712 
L 69.328111 89.613973 
L 68.42599 88.894555 
L 67.479628 88.234414 
L 66.492916 87.636263 
L 65.469907 87.10256 
L 64.414806 86.635498 
L 63.331948 86.236997 
L 62.225783 85.908692 
L 61.100855 85.651935 
L 59.961789 85.46778 
L 58.813264 85.356983 
L 57.66 85.32 
L 57.66 85.32 
L 34.26 85.32 
L 34.26 103.32 
L 34.26 121.32 
L 57.66 121.32 
" clip-path="url(#pa4158330d2)" style="fill: none; stroke: #000000; stroke-width: 2; stroke-linecap: round"/>
   </g>
   <g id="line2d_25">
    <path d="M 21.66 112.32 
L 34.26 112.32 
" clip-path="url(#pa4158330d2)" style="fill: none; stroke: #000000; stroke-width: 2; stroke-linecap: round"/>
   </g>
   <g id="line2d_26">
    <path d="M 21.66 94.32 
L 34.26 94.32 
" clip-path="url(#pa4158330d2)" style="fill: none; stroke: #000000; stroke-width: 2; stroke-linecap: round"/>
   </g>
   <g id="line2d_27">
    <path d="M 75.66 103.32 
L 88.26 103.32 
" clip-path="url(#pa4158330d2)" style="fill: none; stroke: #000000; stroke-width: 2; stroke-linecap: round"/>
   </g>
   <g id="line2d_28">
    <path d="M 91.86 121.32 
L 88.26 121.32 
L 88.26 103.32 
" clip-path="url(#pa4158330d2)" style="fill: none; stroke: #000000; stroke-width: 2; stroke-linecap: round"/>
   </g>
   <g id="line2d_29">
    <path d="M 57.66 175.32 
L 58.813264 175.283017 
L 59.961789 175.17222 
L 61.100855 174.988065 
L 62.225783 174.731308 
L 63.331948 174.403003 
L 64.414806 174.004502 
L 65.469907 173.53744 
L 66.492916 173.003737 
L 67.479628 172.405586 
L 68.42599 171.745445 
L 69.328111 171.026027 
L 70.182286 170.250288 
L 70.985004 169.421416 
L 71.732967 168.542816 
L 72.423101 167.6181 
L 73.05257 166.651066 
L 73.618788 165.645689 
L 74.119427 164.6061 
L 74.552432 163.536571 
L 74.916021 162.441497 
L 75.208702 161.325377 
L 75.429272 160.192798 
L 75.576824 159.048414 
L 75.650752 157.896928 
L 75.650752 156.743072 
L 75.576824 155.591586 
L 75.429272 154.447202 
L 75.208702 153.314623 
L 74.916021 152.198503 
L 74.552432 151.103429 
L 74.119427 150.0339 
L 73.618788 148.994311 
L 73.05257 147.988934 
L 72.423101 147.0219 
L 71.732967 146.097184 
L 70.985004 145.218584 
L 70.182286 144.389712 
L 69.328111 143.613973 
L 68.42599 142.894555 
L 67.479628 142.234414 
L 66.492916 141.636263 
L 65.469907 141.10256 
L 64.414806 140.635498 
L 63.331948 140.236997 
L 62.225783 139.908692 
L 61.100855 139.651935 
L 59.961789 139.46778 
L 58.813264 139.356983 
L 57.66 139.32 
L 57.66 139.32 
L 34.26 139.32 
L 34.26 157.32 
L 34.26 175.32 
L 57.66 175.32 
" clip-path="url(#pa4158330d2)" style="fill: none; stroke: #000000; stroke-width: 2; stroke-linecap: round"/>
   </g>
   <g id="line2d_30">
    <path d="M 21.66 166.32 
L 34.26 166.32 
" clip-path="url(#pa4158330d2)" style="fill: none; stroke: #000000; stroke-width: 2; stroke-linecap: round"/>
   </g>
   <g id="line2d_31">
    <path d="M 21.66 148.32 
L 34.26 148.32 
" clip-path="url(#pa4158330d2)" style="fill: none; stroke: #000000; stroke-width: 2; stroke-linecap: round"/>
   </g>
   <g id="line2d_32">
    <path d="M 84.3 157.32 
L 88.26 157.32 
" clip-path="url(#pa4158330d2)" style="fill: none; stroke: #000000; stroke-width: 2; stroke-linecap: round"/>
   </g>
   <g id="line2d_33">
    <path d="M 91.86 139.32 
L 88.26 139.32 
L 88.26 157.32 
" clip-path="url(#pa4158330d2)" style="fill: none; stroke: #000000; stroke-width: 2; stroke-linecap: round"/>
   </g>
   <g id="line2d_34">
    <path d="M 163.86 95.445 
L 160.26 95.445 
L 160.26 130.32 
" clip-path="url(#pa4158330d2)" style="fill: none; stroke: #000000; stroke-width: 2; stroke-linecap: round"/>
   </g>
   <g id="text_1">
    <!-- $\text{Output}$ -->
    <g transform="translate(235.86 90.279687) scale(0.14 -0.14)">
     <defs>
      <path id="DejaVuSans-4f" d="M 2522 4238 
Q 1834 4238 1429 3725 
Q 1025 3213 1025 2328 
Q 1025 1447 1429 934 
Q 1834 422 2522 422 
Q 3209 422 3611 934 
Q 4013 1447 4013 2328 
Q 4013 3213 3611 3725 
Q 3209 4238 2522 4238 
z
M 2522 4750 
Q 3503 4750 4090 4092 
Q 4678 3434 4678 2328 
Q 4678 1225 4090 567 
Q 3503 -91 2522 -91 
Q 1538 -91 948 565 
Q 359 1222 359 2328 
Q 359 3434 948 4092 
Q 1538 4750 2522 4750 
z
" transform="scale(0.015625)"/>
      <path id="DejaVuSans-75" d="M 544 1381 
L 544 3500 
L 1119 3500 
L 1119 1403 
Q 1119 906 1312 657 
Q 1506 409 1894 409 
Q 2359 409 2629 706 
Q 2900 1003 2900 1516 
L 2900 3500 
L 3475 3500 
L 3475 0 
L 2900 0 
L 2900 538 
Q 2691 219 2414 64 
Q 2138 -91 1772 -91 
Q 1169 -91 856 284 
Q 544 659 544 1381 
z
M 1991 3584 
L 1991 3584 
z
" transform="scale(0.015625)"/>
      <path id="DejaVuSans-74" d="M 1172 4494 
L 1172 3500 
L 2356 3500 
L 2356 3053 
L 1172 3053 
L 1172 1153 
Q 1172 725 1289 603 
Q 1406 481 1766 481 
L 2356 481 
L 2356 0 
L 1766 0 
Q 1100 0 847 248 
Q 594 497 594 1153 
L 594 3053 
L 172 3053 
L 172 3500 
L 594 3500 
L 594 4494 
L 1172 4494 
z
" transform="scale(0.015625)"/>
      <path id="DejaVuSans-70" d="M 1159 525 
L 1159 -1331 
L 581 -1331 
L 581 3500 
L 1159 3500 
L 1159 2969 
Q 1341 3281 1617 3432 
Q 1894 3584 2278 3584 
Q 2916 3584 3314 3078 
Q 3713 2572 3713 1747 
Q 3713 922 3314 415 
Q 2916 -91 2278 -91 
Q 1894 -91 1617 61 
Q 1341 213 1159 525 
z
M 3116 1747 
Q 3116 2381 2855 2742 
Q 2594 3103 2138 3103 
Q 1681 3103 1420 2742 
Q 1159 2381 1159 1747 
Q 1159 1113 1420 752 
Q 1681 391 2138 391 
Q 2594 391 2855 752 
Q 3116 1113 3116 1747 
z
" transform="scale(0.015625)"/>
     </defs>
     <use xlink:href="#DejaVuSans-4f" transform="translate(0 0.78125)"/>
     <use xlink:href="#DejaVuSans-75" transform="translate(78.710938 0.78125)"/>
     <use xlink:href="#DejaVuSans-74" transform="translate(142.089844 0.78125)"/>
     <use xlink:href="#DejaVuSans-70" transform="translate(181.298828 0.78125)"/>
     <use xlink:href="#DejaVuSans-75" transform="translate(244.775391 0.78125)"/>
     <use xlink:href="#DejaVuSans-74" transform="translate(308.154297 0.78125)"/>
    </g>
   </g>
   <g id="text_2">
    <!-- a -->
    <g transform="translate(7.680625 17.183125) scale(0.14 -0.14)">
     <defs>
      <path id="DejaVuSans-61" d="M 2194 1759 
Q 1497 1759 1228 1600 
Q 959 1441 959 1056 
Q 959 750 1161 570 
Q 1363 391 1709 391 
Q 2188 391 2477 730 
Q 2766 1069 2766 1631 
L 2766 1759 
L 2194 1759 
z
M 3341 1997 
L 3341 0 
L 2766 0 
L 2766 531 
Q 2569 213 2275 61 
Q 1981 -91 1556 -91 
Q 1019 -91 701 211 
Q 384 513 384 1019 
Q 384 1609 779 1909 
Q 1175 2209 1959 2209 
L 2766 2209 
L 2766 2266 
Q 2766 2663 2505 2880 
Q 2244 3097 1772 3097 
Q 1472 3097 1187 3025 
Q 903 2953 641 2809 
L 641 3341 
Q 956 3463 1253 3523 
Q 1550 3584 1831 3584 
Q 2591 3584 2966 3190 
Q 3341 2797 3341 1997 
z
" transform="scale(0.015625)"/>
     </defs>
     <use xlink:href="#DejaVuSans-61"/>
    </g>
   </g>
   <g id="text_3">
    <!-- a -->
    <g transform="translate(7.680625 35.183125) scale(0.14 -0.14)">
     <use xlink:href="#DejaVuSans-61"/>
    </g>
   </g>
   <g id="text_4">
    <!-- a -->
    <g transform="translate(4.080625 66.683125) scale(0.14 -0.14)">
     <use xlink:href="#DejaVuSans-61"/>
    </g>
   </g>
   <g id="text_5">
    <!-- a -->
    <g transform="translate(9.480625 98.183125) scale(0.14 -0.14)">
     <use xlink:href="#DejaVuSans-61"/>
    </g>
   </g>
   <g id="text_6">
    <!-- a -->
    <g transform="translate(9.480625 116.183125) scale(0.14 -0.14)">
     <use xlink:href="#DejaVuSans-61"/>
    </g>
   </g>
   <g id="text_7">
    <!-- a -->
    <g transform="translate(9.480625 152.183125) scale(0.14 -0.14)">
     <use xlink:href="#DejaVuSans-61"/>
    </g>
   </g>
   <g id="text_8">
    <!-- a -->
    <g transform="translate(9.480625 170.183125) scale(0.14 -0.14)">
     <use xlink:href="#DejaVuSans-61"/>
    </g>
   </g>
  </g>
 </g>
 <defs>
  <clipPath id="pa4158330d2">
   <rect x="0" y="0" width="322.44" height="180"/>
  </clipPath>
 </defs>
</svg>
