<svg xmlns="http://www.w3.org/2000/svg" xml:lang="en" height="206.84pt" width="318.68pt" viewBox="-228.57999999999998 -8.740000000000004 318.68 206.84"><circle cx="-152.28000000000003" cy="67.5" r="4.32" style="stroke:black;fill:none;stroke-width:2.0;" /><circle cx="-152.28000000000003" cy="121.5" r="4.32" style="stroke:black;fill:none;stroke-width:2.0;" /><path d="M -55.80000000000001,112.14000000000001 L -37.80000000000001,112.14000000000001 L -37.2857142857143,112.13265306122449 L -36.77142857142859,112.11061224489796 L -36.257142857142874,112.07387755102042 L -35.742857142857154,112.02244897959184 L -35.22857142857144,111.95632653061224 L -34.71428571428573,111.87551020408164 L -34.20000000000002,111.78 L -33.6857142857143,111.66979591836736 L -33.171428571428585,111.54489795918369 L -32.65714285714287,111.40530612244898 L -32.14285714285715,111.25102040816327 L -31.628571428571444,111.08204081632653 L -31.11428571428573,110.89836734693878 L -30.60000000000002,110.7 L -30.0857142857143,110.4869387755102 L -29.571428571428577,110.2591836734694 L -29.057142857142864,110.01673469387754 L -28.54285714285715,109.75959183673469 L -28.02857142857144,109.48775510204082 L -27.514285714285727,109.20122448979592 L -27.000000000000014,108.89999999999999 L -26.4857142857143,108.58408163265305 L -25.971428571428582,108.2534693877551 L -25.45714285714287,107.90816326530613 L -24.94285714285715,107.54816326530612 L -24.428571428571438,107.17346938775509 L -23.914285714285725,106.78408163265307 L -23.400000000000013,106.38 L -22.8857142857143,105.96122448979592 L -22.371428571428588,105.52775510204083 L -21.857142857142875,105.07959183673469 L -21.342857142857156,104.61673469387755 L -20.828571428571436,104.13918367346939 L -20.314285714285724,103.64693877551021 L -19.80000000000001,103.14000000000001 L -19.2857142857143,102.61836734693878 L -18.771428571428586,102.08204081632653 L -18.257142857142874,101.53102040816326 L -17.74285714285716,100.96530612244898 L -17.22857142857143,100.38489795918366 L -16.71428571428572,99.78979591836735 L -16.200000000000006,99.17999999999999 L -15.685714285714294,98.55551020408163 L -15.171428571428581,97.91632653061224 L -14.657142857142869,97.26244897959184 L -14.142857142857157,96.5938775510204 L -13.628571428571444,95.91061224489796 L -13.114285714285732,95.21265306122449 L -12.600000000000003,94.5 L -12.600000000000003,94.5 L -13.114285714285732,93.78734693877551 L -13.628571428571444,93.08938775510204 L -14.142857142857157,92.4061224489796 L -14.657142857142869,91.73755102040816 L -15.171428571428581,91.08367346938776 L -15.685714285714294,90.44448979591837 L -16.200000000000006,89.82000000000001 L -16.71428571428572,89.21020408163265 L -17.22857142857143,88.61510204081634 L -17.74285714285716,88.03469387755102 L -18.257142857142874,87.46897959183674 L -18.771428571428586,86.91795918367347 L -19.2857142857143,86.38163265306122 L -19.80000000000001,85.85999999999999 L -20.314285714285724,85.35306122448979 L -20.828571428571436,84.86081632653061 L -21.342857142857156,84.38326530612245 L -21.857142857142875,83.92040816326531 L -22.371428571428588,83.47224489795917 L -22.8857142857143,83.03877551020408 L -23.400000000000013,82.62 L -23.914285714285725,82.21591836734693 L -24.428571428571438,81.82653061224491 L -24.94285714285715,81.45183673469388 L -25.45714285714287,81.09183673469387 L -25.971428571428582,80.7465306122449 L -26.4857142857143,80.41591836734695 L -27.000000000000014,80.10000000000001 L -27.514285714285727,79.79877551020408 L -28.02857142857144,79.51224489795918 L -28.54285714285715,79.24040816326531 L -29.057142857142864,78.98326530612246 L -29.571428571428577,78.7408163265306 L -30.0857142857143,78.5130612244898 L -30.60000000000002,78.3 L -31.11428571428573,78.10163265306122 L -31.628571428571444,77.91795918367347 L -32.14285714285715,77.74897959183673 L -32.65714285714287,77.59469387755102 L -33.171428571428585,77.45510204081631 L -33.6857142857143,77.33020408163264 L -34.20000000000002,77.22 L -34.71428571428573,77.12448979591836 L -35.22857142857144,77.04367346938776 L -35.742857142857154,76.97755102040816 L -36.257142857142874,76.92612244897958 L -36.77142857142859,76.88938775510204 L -37.2857142857143,76.86734693877551 L -37.80000000000001,76.85999999999999 L -55.80000000000001,76.85999999999999 L -55.80000000000001,76.85999999999999 L -55.108800000000016,77.58 L -54.44640000000001,78.3 L -53.81280000000001,79.02 L -53.208000000000006,79.74 L -52.632000000000005,80.46 L -52.08480000000001,81.17999999999999 L -51.566400000000016,81.89999999999999 L -51.07680000000001,82.62 L -50.616000000000014,83.34 L -50.18400000000001,84.06 L -49.780800000000006,84.78 L -49.40640000000001,85.5 L -49.060800000000015,86.22 L -48.744000000000014,86.94 L -48.45600000000001,87.66 L -48.19680000000002,88.38 L -47.96640000000001,89.10000000000001 L -47.764800000000015,89.82000000000001 L -47.59200000000001,90.54 L -47.44800000000001,91.26 L -47.33280000000001,91.98 L -47.24640000000001,92.7 L -47.188800000000015,93.41999999999999 L -47.16000000000001,94.14000000000001 L -47.16000000000001,94.85999999999999 L -47.188800000000015,95.58000000000001 L -47.24640000000001,96.3 L -47.33280000000001,97.02 L -47.44800000000001,97.74 L -47.59200000000001,98.46 L -47.764800000000015,99.17999999999999 L -47.96640000000001,99.89999999999999 L -48.19680000000002,100.62 L -48.45600000000001,101.34 L -48.744000000000014,102.06 L -49.06080000000001,102.78 L -49.40640000000001,103.5 L -49.780800000000006,104.22 L -50.18400000000001,104.94 L -50.616000000000014,105.66 L -51.07680000000001,106.38 L -51.566400000000016,107.10000000000001 L -52.08480000000001,107.82000000000001 L -52.632000000000005,108.54 L -53.20800000000001,109.26 L -53.81280000000001,109.98 L -54.44640000000001,110.7 L -55.108800000000016,111.42 L -55.80000000000001,112.14000000000001" style="stroke:black;fill:none;stroke-width:2.0;stroke-linecap:round;stroke-linejoin:round;" /><path d="M -61.20000000000002,112.14000000000001 L -60.50880000000001,111.42 L -59.84640000000001,110.7 L -59.212800000000016,109.98 L -58.60800000000001,109.26 L -58.03200000000001,108.54 L -57.484800000000014,107.82000000000001 L -56.96640000000001,107.10000000000001 L -56.47680000000001,106.38 L -56.01600000000001,105.66 L -55.58400000000002,104.94 L -55.18080000000001,104.22 L -54.80640000000001,103.5 L -54.46080000000001,102.78 L -54.14400000000002,102.06 L -53.856000000000016,101.34 L -53.596800000000016,100.62 L -53.366400000000006,99.89999999999999 L -53.164800000000014,99.17999999999999 L -52.99200000000002,98.46 L -52.84800000000001,97.74 L -52.73280000000001,97.02 L -52.64640000000001,96.3 L -52.58880000000001,95.58000000000001 L -52.56000000000002,94.85999999999999 L -52.56000000000002,94.14000000000001 L -52.58880000000001,93.41999999999999 L -52.64640000000001,92.7 L -52.73280000000001,91.98 L -52.84800000000001,91.26 L -52.99200000000002,90.54 L -53.164800000000014,89.82000000000001 L -53.366400000000006,89.10000000000001 L -53.596800000000016,88.38 L -53.856000000000016,87.66 L -54.14400000000002,86.94 L -54.46080000000001,86.22 L -54.80640000000001,85.5 L -55.18080000000001,84.78 L -55.58400000000002,84.06 L -56.01600000000001,83.34 L -56.47680000000001,82.62 L -56.96640000000001,81.89999999999999 L -57.484800000000014,81.17999999999999 L -58.03200000000001,80.46 L -58.60800000000001,79.74 L -59.212800000000016,79.02 L -59.84640000000001,78.3 L -60.50880000000001,77.58 L -61.20000000000002,76.85999999999999" style="stroke:black;fill:none;stroke-width:2.0;stroke-linecap:round;stroke-linejoin:round;" /><path d="M -68.4,103.5 L -54.80640000000001,103.5" style="stroke:black;fill:none;stroke-width:2.0;stroke-linecap:round;stroke-linejoin:round;" /><path d="M -68.4,85.5 L -54.80640000000001,85.5" style="stroke:black;fill:none;stroke-width:2.0;stroke-linecap:round;stroke-linejoin:round;" /><path d="M -12.600000000000003,94.5 L 0.0,94.5" style="stroke:black;fill:none;stroke-width:2.0;stroke-linecap:round;stroke-linejoin:round;" /><path d="M -102.60000000000001,58.5 L -101.44673604034718,58.46301706950605 L -100.29821108967889,58.352220248818426 L -99.1591446833753,58.168064825839174 L -98.03421748962887,57.91130753470253 L -96.92805207557483,57.58300344619204 L -95.84519391217127,57.18450163222839 L -94.79009269588396,56.717439622243546 L -93.76708406392912,56.18373667422101 L -92.78037177821012,55.58558588805314 L -91.83401045115812,54.925445193623226 L -90.93188888445981,54.20602725064442 L -90.07771408913726,53.4302883017591 L -89.27499605264433,52.60141602470371 L -88.52703331557547,51.7228164334572 L -87.83689941725478,50.798099882199054 L -87.20743026590378,49.83106622958945 L -86.641212485286,48.825689224335036 L -86.14057278571538,47.786100176203085 L -85.7075684031043,46.71657097958354 L -85.3439786453401,45.62149655935858 L -85.05129758072718,44.50537681121366 L -84.83072789853989,43.372798110600826 L -84.68317596691443,42.22841446633828 L -84.60924810838762,41.0769283962898 L -84.60924810838762,39.92307160371021 L -84.68317596691443,38.771585533661735 L -84.83072789853989,37.627201889399174 L -85.05129758072718,36.49462318878634 L -85.3439786453401,35.37850344064142 L -85.7075684031043,34.28342902041646 L -86.14057278571538,33.213899823796915 L -86.641212485286,32.174310775664964 L -87.20743026590378,31.16893377041055 L -87.83689941725478,30.20190011780095 L -88.52703331557547,29.2771835665428 L -89.27499605264433,28.3985839752963 L -90.07771408913723,27.5697116982409 L -90.93188888445981,26.793972749355586 L -91.83401045115811,26.07455480637678 L -92.78037177821012,25.414414111946872 L -93.76708406392912,24.81626332577899 L -94.79009269588396,24.282560377756457 L -95.84519391217127,23.81549836777161 L -96.92805207557483,23.416996553807966 L -98.03421748962887,23.08869246529747 L -99.1591446833753,22.831935174160826 L -100.29821108967889,22.64777975118157 L -101.44673604034718,22.536982930493945 L -102.60000000000001,22.5 L -102.60000000000001,22.5 L -126.0,22.5 L -126.0,40.5 L -126.0,58.5 L -102.60000000000001,58.5" style="stroke:black;fill:none;stroke-width:2.0;stroke-linecap:round;stroke-linejoin:round;" /><path d="M -138.6,49.5 L -126.0,49.5" style="stroke:black;fill:none;stroke-width:2.0;stroke-linecap:round;stroke-linejoin:round;" /><path d="M -138.6,31.5 L -126.0,31.5" style="stroke:black;fill:none;stroke-width:2.0;stroke-linecap:round;stroke-linejoin:round;" /><path d="M -84.60000000000001,40.5 L -72.0,40.5" style="stroke:black;fill:none;stroke-width:2.0;stroke-linecap:round;stroke-linejoin:round;" /><path d="M -199.8,31.140000000000004 L -181.8,31.140000000000004 L -181.2857142857143,31.132653061224495 L -180.7714285714286,31.11061224489796 L -180.2571428571429,31.07387755102041 L -179.74285714285713,31.022448979591843 L -179.22857142857143,30.956326530612245 L -178.71428571428572,30.875510204081635 L -178.20000000000002,30.780000000000005 L -177.68571428571428,30.66979591836735 L -177.17142857142858,30.54489795918368 L -176.65714285714287,30.405306122448984 L -176.14285714285717,30.251020408163267 L -175.62857142857143,30.082040816326533 L -175.11428571428573,29.89836734693878 L -174.60000000000002,29.700000000000003 L -174.08571428571432,29.486938775510207 L -173.57142857142856,29.259183673469387 L -173.05714285714285,29.016734693877552 L -172.54285714285714,28.759591836734696 L -172.0285714285714,28.487755102040822 L -171.5142857142857,28.201224489795923 L -171.0,27.900000000000006 L -170.4857142857143,27.584081632653067 L -169.9714285714286,27.253469387755107 L -169.45714285714286,26.90816326530613 L -168.94285714285715,26.548163265306126 L -168.42857142857144,26.173469387755105 L -167.9142857142857,25.784081632653063 L -167.4,25.380000000000003 L -166.8857142857143,24.96122448979592 L -166.3714285714286,24.527755102040818 L -165.8571428571429,24.079591836734696 L -165.34285714285716,23.616734693877554 L -164.82857142857145,23.13918367346939 L -164.31428571428575,22.646938775510208 L -163.8,22.140000000000004 L -163.2857142857143,21.618367346938776 L -162.7714285714286,21.082040816326533 L -162.2571428571429,20.531020408163265 L -161.7428571428572,19.965306122448986 L -161.22857142857143,19.384897959183675 L -160.71428571428572,18.789795918367346 L -160.20000000000002,18.18 L -159.68571428571428,17.555510204081635 L -159.17142857142858,16.916326530612245 L -158.65714285714287,16.262448979591838 L -158.14285714285717,15.593877551020407 L -157.62857142857143,14.91061224489796 L -157.11428571428573,14.212653061224492 L -156.6,13.5 L -156.6,13.5 L -157.11428571428573,12.787346938775508 L -157.62857142857143,12.08938775510204 L -158.14285714285717,11.406122448979593 L -158.65714285714287,10.737551020408162 L -159.17142857142858,10.083673469387756 L -159.68571428571428,9.444489795918365 L -160.20000000000002,8.82 L -160.71428571428572,8.210204081632652 L -161.22857142857143,7.615102040816326 L -161.7428571428572,7.034693877551017 L -162.2571428571429,6.468979591836734 L -162.7714285714286,5.917959183673466 L -163.2857142857143,5.381632653061223 L -163.8,4.859999999999996 L -164.31428571428575,4.353061224489794 L -164.82857142857145,3.8608163265306104 L -165.34285714285716,3.3832653061224476 L -165.8571428571429,2.920408163265303 L -166.3714285714286,2.4722448979591816 L -166.8857142857143,2.03877551020408 L -167.4,1.6199999999999974 L -167.9142857142857,1.2159183673469354 L -168.42857142857144,0.8265306122448939 L -168.94285714285715,0.451836734693873 L -169.45714285714286,0.09183673469387466 L -169.9714285714286,-0.2534693877551051 L -170.4857142857143,-0.5840816326530642 L -171.0,-0.9000000000000028 L -171.5142857142857,-1.2012244897959208 L -172.0285714285714,-1.4877551020408202 L -172.54285714285714,-1.759591836734697 L -173.05714285714285,-2.016734693877553 L -173.57142857142856,-2.2591836734693906 L -174.08571428571432,-2.486938775510208 L -174.60000000000002,-2.7000000000000024 L -175.11428571428573,-2.8983673469387785 L -175.62857142857143,-3.0820408163265336 L -176.14285714285717,-3.251020408163268 L -176.65714285714287,-3.4053061224489825 L -177.17142857142858,-3.544897959183678 L -177.68571428571428,-3.6697959183673508 L -178.20000000000002,-3.7800000000000034 L -178.71428571428572,-3.875510204081637 L -179.22857142857143,-3.956326530612248 L -179.74285714285713,-4.022448979591841 L -180.2571428571429,-4.073877551020411 L -180.7714285714286,-4.110612244897963 L -181.2857142857143,-4.132653061224493 L -181.8,-4.140000000000004 L -199.8,-4.140000000000004 L -199.8,-4.140000000000004 L -199.1088,-3.420000000000003 L -198.4464,-2.7000000000000024 L -197.8128,-1.9800000000000018 L -197.208,-1.2600000000000011 L -196.632,-0.5400000000000005 L -196.08480000000003,0.17999999999999616 L -195.56640000000002,0.8999999999999968 L -195.0768,1.6199999999999974 L -194.616,2.339999999999998 L -194.184,3.0599999999999987 L -193.78080000000003,3.7799999999999994 L -193.40640000000002,4.5 L -193.0608,5.219999999999997 L -192.744,5.939999999999998 L -192.45600000000002,6.659999999999998 L -192.19680000000002,7.379999999999999 L -191.9664,8.1 L -191.7648,8.82 L -191.592,9.540000000000001 L -191.448,10.260000000000002 L -191.3328,10.980000000000002 L -191.2464,11.7 L -191.18880000000001,12.419999999999998 L -191.16000000000003,13.14 L -191.16000000000003,13.86 L -191.18880000000001,14.580000000000002 L -191.2464,15.3 L -191.3328,16.02 L -191.448,16.740000000000002 L -191.592,17.46 L -191.7648,18.18 L -191.9664,18.900000000000002 L -192.19680000000002,19.62 L -192.45600000000002,20.340000000000003 L -192.744,21.060000000000002 L -193.0608,21.78 L -193.40640000000002,22.5 L -193.78080000000003,23.22 L -194.184,23.94 L -194.616,24.660000000000004 L -195.0768,25.380000000000003 L -195.56640000000002,26.1 L -196.08480000000003,26.820000000000004 L -196.632,27.540000000000006 L -197.20800000000003,28.260000000000005 L -197.8128,28.980000000000004 L -198.4464,29.700000000000003 L -199.1088,30.42 L -199.8,31.140000000000004" style="stroke:black;fill:none;stroke-width:2.0;stroke-linecap:round;stroke-linejoin:round;" /><path d="M -212.4,22.5 L -193.40640000000002,22.5" style="stroke:black;fill:none;stroke-width:2.0;stroke-linecap:round;stroke-linejoin:round;" /><path d="M -212.4,4.5 L -193.40640000000002,4.5" style="stroke:black;fill:none;stroke-width:2.0;stroke-linecap:round;stroke-linejoin:round;" /><path d="M -156.6,13.5 L -144.0,13.5" style="stroke:black;fill:none;stroke-width:2.0;stroke-linecap:round;stroke-linejoin:round;" /><path d="M -138.6,31.5 L -144.0,31.5 L -144.0,13.5" style="stroke:black;fill:none;stroke-width:2;stroke-linecap:round;stroke-linejoin:round;" /><path d="M -174.6,85.5 L -173.44673604034716,85.46301706950607 L -172.2982110896789,85.35222024881844 L -171.1591446833753,85.16806482583918 L -170.03421748962887,84.91130753470253 L -168.9280520755748,84.58300344619204 L -167.84519391217128,84.18450163222839 L -166.79009269588394,83.71743962224355 L -165.76708406392913,83.18373667422101 L -164.7803717782101,82.58558588805313 L -163.83401045115812,81.92544519362322 L -162.9318888844598,81.20602725064442 L -162.07771408913723,80.43028830175909 L -161.27499605264433,79.60141602470371 L -160.52703331557547,78.7228164334572 L -159.8368994172548,77.79809988219905 L -159.20743026590378,76.83106622958945 L -158.641212485286,75.82568922433504 L -158.14057278571536,74.78610017620309 L -157.70756840310432,73.71657097958354 L -157.34397864534012,72.62149655935858 L -157.05129758072718,71.50537681121367 L -156.8307278985399,70.37279811060083 L -156.6831759669144,69.22841446633828 L -156.60924810838762,68.0769283962898 L -156.60924810838762,66.92307160371021 L -156.6831759669144,65.77158553366174 L -156.8307278985399,64.62720188939917 L -157.05129758072718,63.49462318878634 L -157.34397864534012,62.37850344064142 L -157.70756840310432,61.28342902041646 L -158.14057278571536,60.213899823796915 L -158.641212485286,59.174310775664964 L -159.20743026590378,58.16893377041055 L -159.8368994172548,57.201900117800946 L -160.52703331557547,56.2771835665428 L -161.27499605264433,55.398583975296305 L -162.07771408913723,54.5697116982409 L -162.9318888844598,53.79397274935558 L -163.83401045115812,53.07455480637678 L -164.7803717782101,52.41441411194687 L -165.76708406392913,51.81626332577899 L -166.79009269588394,51.282560377756454 L -167.84519391217128,50.81549836777161 L -168.9280520755748,50.41699655380796 L -170.03421748962887,50.08869246529747 L -171.1591446833753,49.831935174160826 L -172.2982110896789,49.647779751181574 L -173.44673604034716,49.53698293049395 L -174.6,49.5 L -174.6,49.5 L -198.0,49.5 L -198.0,67.5 L -198.0,85.5 L -174.6,85.5" style="stroke:black;fill:none;stroke-width:2.0;stroke-linecap:round;stroke-linejoin:round;" /><path d="M -210.6,76.5 L -198.0,76.5" style="stroke:black;fill:none;stroke-width:2.0;stroke-linecap:round;stroke-linejoin:round;" /><path d="M -210.6,58.5 L -198.0,58.5" style="stroke:black;fill:none;stroke-width:2.0;stroke-linecap:round;stroke-linejoin:round;" /><path d="M -147.96,67.5 L -144.0,67.5" style="stroke:black;fill:none;stroke-width:2.0;stroke-linecap:round;stroke-linejoin:round;" /><path d="M -138.6,49.5 L -144.0,49.5 L -144.0,67.5" style="stroke:black;fill:none;stroke-width:2;stroke-linecap:round;stroke-linejoin:round;" /><path d="M -68.4,85.5 L -72.0,85.5 L -72.0,40.5" style="stroke:black;fill:none;stroke-width:2;stroke-linecap:round;stroke-linejoin:round;" /><path d="M -127.80000000000001,166.14000000000001 L -109.80000000000001,166.14000000000001 L -109.28571428571429,166.13265306122452 L -108.77142857142859,166.11061224489794 L -108.25714285714287,166.0738775510204 L -107.74285714285716,166.02244897959184 L -107.22857142857144,165.95632653061227 L -106.71428571428572,165.87551020408162 L -106.2,165.78000000000003 L -105.6857142857143,165.66979591836736 L -105.17142857142858,165.5448979591837 L -104.65714285714287,165.405306122449 L -104.14285714285715,165.25102040816327 L -103.62857142857145,165.08204081632653 L -103.11428571428573,164.89836734693878 L -102.60000000000002,164.70000000000002 L -102.0857142857143,164.4869387755102 L -101.57142857142858,164.2591836734694 L -101.05714285714286,164.01673469387754 L -100.54285714285716,163.7595918367347 L -100.02857142857144,163.48775510204084 L -99.51428571428573,163.20122448979592 L -99.00000000000001,162.9 L -98.48571428571431,162.58408163265307 L -97.97142857142858,162.2534693877551 L -97.45714285714286,161.90816326530611 L -96.94285714285715,161.54816326530613 L -96.42857142857144,161.1734693877551 L -95.91428571428573,160.78408163265306 L -95.4,160.38 L -94.8857142857143,159.96122448979594 L -94.3714285714286,159.52775510204083 L -93.85714285714288,159.0795918367347 L -93.34285714285716,158.61673469387756 L -92.82857142857144,158.13918367346938 L -92.31428571428572,157.64693877551022 L -91.80000000000001,157.14000000000001 L -91.28571428571429,156.61836734693875 L -90.77142857142859,156.08204081632653 L -90.25714285714287,155.53102040816327 L -89.74285714285716,154.965306122449 L -89.22857142857143,154.38489795918366 L -88.71428571428572,153.78979591836736 L -88.2,153.18 L -87.6857142857143,152.55551020408166 L -87.17142857142858,151.91632653061225 L -86.65714285714287,151.26244897959185 L -86.14285714285715,150.5938775510204 L -85.62857142857145,149.91061224489798 L -85.11428571428573,149.2126530612245 L -84.60000000000001,148.5 L -84.60000000000001,148.5 L -85.11428571428573,147.7873469387755 L -85.62857142857145,147.08938775510202 L -86.14285714285715,146.4061224489796 L -86.65714285714287,145.73755102040815 L -87.17142857142858,145.08367346938775 L -87.6857142857143,144.44448979591834 L -88.2,143.82 L -88.71428571428572,143.21020408163264 L -89.22857142857143,142.61510204081634 L -89.74285714285716,142.03469387755104 L -90.25714285714287,141.46897959183673 L -90.77142857142859,140.91795918367347 L -91.28571428571429,140.38163265306122 L -91.80000000000001,139.85999999999999 L -92.31428571428572,139.3530612244898 L -92.82857142857144,138.8608163265306 L -93.34285714285716,138.38326530612244 L -93.85714285714288,137.9204081632653 L -94.3714285714286,137.47224489795917 L -94.8857142857143,137.03877551020406 L -95.4,136.62 L -95.91428571428573,136.21591836734694 L -96.42857142857144,135.8265306122449 L -96.94285714285715,135.45183673469387 L -97.45714285714286,135.09183673469389 L -97.97142857142858,134.7465306122449 L -98.48571428571431,134.41591836734693 L -99.00000000000001,134.1 L -99.51428571428573,133.79877551020408 L -100.02857142857144,133.5122448979592 L -100.54285714285716,133.2404081632653 L -101.05714285714286,132.98326530612246 L -101.57142857142858,132.74081632653062 L -102.0857142857143,132.5130612244898 L -102.60000000000002,132.29999999999998 L -103.11428571428573,132.10163265306122 L -103.62857142857145,131.91795918367347 L -104.14285714285715,131.74897959183673 L -104.65714285714287,131.594693877551 L -105.17142857142858,131.4551020408163 L -105.6857142857143,131.33020408163264 L -106.2,131.22 L -106.71428571428572,131.12448979591835 L -107.22857142857144,131.04367346938776 L -107.74285714285716,130.97755102040816 L -108.25714285714287,130.92612244897958 L -108.77142857142859,130.88938775510204 L -109.28571428571429,130.8673469387755 L -109.80000000000001,130.85999999999999 L -127.80000000000001,130.85999999999999 L -127.80000000000001,130.85999999999999 L -127.1088,131.57999999999998 L -126.44640000000001,132.29999999999998 L -125.81280000000002,133.01999999999998 L -125.20800000000001,133.74 L -124.632,134.46 L -124.08480000000002,135.18 L -123.56640000000002,135.9 L -123.0768,136.62 L -122.61600000000001,137.34 L -122.184,138.06 L -121.78080000000001,138.78 L -121.4064,139.5 L -121.06080000000001,140.22 L -120.744,140.94 L -120.456,141.66 L -120.19680000000001,142.38 L -119.96640000000001,143.1 L -119.76480000000001,143.82 L -119.592,144.54 L -119.44800000000002,145.26 L -119.33280000000002,145.98 L -119.24640000000001,146.70000000000002 L -119.18880000000001,147.42 L -119.16000000000003,148.14000000000001 L -119.16000000000003,148.85999999999999 L -119.18880000000001,149.58 L -119.24640000000001,150.29999999999998 L -119.33280000000002,151.02 L -119.44800000000002,151.74 L -119.592,152.46 L -119.76480000000001,153.18 L -119.96640000000001,153.9 L -120.19680000000001,154.62 L -120.456,155.34 L -120.744,156.06 L -121.0608,156.78000000000003 L -121.4064,157.5 L -121.78080000000001,158.22000000000003 L -122.184,158.94 L -122.61600000000001,159.66000000000003 L -123.0768,160.38 L -123.56640000000002,161.1 L -124.08480000000002,161.82 L -124.632,162.54 L -125.20800000000003,163.26 L -125.81280000000002,163.98 L -126.44640000000001,164.70000000000002 L -127.1088,165.42 L -127.80000000000001,166.14000000000001" style="stroke:black;fill:none;stroke-width:2.0;stroke-linecap:round;stroke-linejoin:round;" /><path d="M -133.20000000000002,166.14000000000001 L -132.5088,165.42 L -131.84640000000002,164.70000000000002 L -131.21280000000002,163.98 L -130.608,163.26 L -130.032,162.54 L -129.4848,161.82 L -128.96640000000002,161.1 L -128.47680000000003,160.38 L -128.016,159.66000000000003 L -127.58400000000002,158.94 L -127.18080000000002,158.22000000000003 L -126.80640000000001,157.5 L -126.4608,156.78000000000003 L -126.14400000000002,156.06 L -125.85600000000002,155.34 L -125.59680000000002,154.62 L -125.3664,153.9 L -125.16480000000001,153.18 L -124.99200000000002,152.46 L -124.84800000000001,151.74 L -124.73280000000001,151.02 L -124.6464,150.29999999999998 L -124.5888,149.58 L -124.56000000000002,148.85999999999999 L -124.56000000000002,148.14000000000001 L -124.5888,147.42 L -124.6464,146.70000000000002 L -124.73280000000001,145.98 L -124.84800000000001,145.26 L -124.99200000000002,144.54 L -125.16480000000001,143.82 L -125.3664,143.1 L -125.59680000000002,142.38 L -125.85600000000002,141.66 L -126.14400000000002,140.94 L -126.4608,140.22 L -126.80640000000001,139.5 L -127.18080000000002,138.78 L -127.58400000000002,138.06 L -128.016,137.34 L -128.47680000000003,136.62 L -128.96640000000002,135.9 L -129.4848,135.18 L -130.032,134.46 L -130.608,133.74 L -131.21280000000002,133.01999999999998 L -131.84640000000002,132.29999999999998 L -132.5088,131.57999999999998 L -133.20000000000002,130.85999999999999" style="stroke:black;fill:none;stroke-width:2.0;stroke-linecap:round;stroke-linejoin:round;" /><path d="M -140.4,157.5 L -126.80640000000001,157.5" style="stroke:black;fill:none;stroke-width:2.0;stroke-linecap:round;stroke-linejoin:round;" /><path d="M -140.4,139.5 L -126.80640000000001,139.5" style="stroke:black;fill:none;stroke-width:2.0;stroke-linecap:round;stroke-linejoin:round;" /><path d="M -84.60000000000001,148.5 L -72.0,148.5" style="stroke:black;fill:none;stroke-width:2.0;stroke-linecap:round;stroke-linejoin:round;" /><path d="M -199.8,139.14000000000001 L -181.8,139.14000000000001 L -181.2857142857143,139.1326530612245 L -180.7714285714286,139.11061224489796 L -180.2571428571429,139.07387755102042 L -179.74285714285713,139.02244897959184 L -179.22857142857143,138.95632653061224 L -178.71428571428572,138.87551020408165 L -178.20000000000002,138.78 L -177.68571428571428,138.66979591836736 L -177.17142857142858,138.5448979591837 L -176.65714285714287,138.405306122449 L -176.14285714285717,138.25102040816327 L -175.62857142857143,138.08204081632653 L -175.11428571428573,137.89836734693878 L -174.60000000000002,137.70000000000002 L -174.08571428571432,137.4869387755102 L -173.57142857142856,137.25918367346938 L -173.05714285714285,137.01673469387754 L -172.54285714285714,136.7595918367347 L -172.0285714285714,136.4877551020408 L -171.5142857142857,136.20122448979592 L -171.0,135.9 L -170.4857142857143,135.58408163265307 L -169.9714285714286,135.2534693877551 L -169.45714285714286,134.90816326530611 L -168.94285714285715,134.54816326530613 L -168.42857142857144,134.1734693877551 L -167.9142857142857,133.78408163265306 L -167.4,133.38 L -166.8857142857143,132.96122448979594 L -166.3714285714286,132.52775510204083 L -165.8571428571429,132.0795918367347 L -165.34285714285716,131.61673469387756 L -164.82857142857145,131.1391836734694 L -164.31428571428575,130.6469387755102 L -163.8,130.14000000000001 L -163.2857142857143,129.61836734693878 L -162.7714285714286,129.08204081632653 L -162.2571428571429,128.53102040816327 L -161.7428571428572,127.96530612244898 L -161.22857142857143,127.38489795918366 L -160.71428571428572,126.78979591836735 L -160.20000000000002,126.17999999999999 L -159.68571428571428,125.55551020408163 L -159.17142857142858,124.91632653061224 L -158.65714285714287,124.26244897959184 L -158.14285714285717,123.5938775510204 L -157.62857142857143,122.91061224489796 L -157.11428571428573,122.21265306122449 L -156.6,121.5 L -156.6,121.5 L -157.11428571428573,120.78734693877551 L -157.62857142857143,120.08938775510204 L -158.14285714285717,119.4061224489796 L -158.65714285714287,118.73755102040816 L -159.17142857142858,118.08367346938776 L -159.68571428571428,117.44448979591837 L -160.20000000000002,116.82000000000001 L -160.71428571428572,116.21020408163265 L -161.22857142857143,115.61510204081634 L -161.7428571428572,115.03469387755102 L -162.2571428571429,114.46897959183674 L -162.7714285714286,113.91795918367347 L -163.2857142857143,113.38163265306122 L -163.8,112.85999999999999 L -164.31428571428575,112.35306122448979 L -164.82857142857145,111.86081632653061 L -165.34285714285716,111.38326530612245 L -165.8571428571429,110.92040816326531 L -166.3714285714286,110.47224489795917 L -166.8857142857143,110.03877551020408 L -167.4,109.62 L -167.9142857142857,109.21591836734693 L -168.42857142857144,108.82653061224491 L -168.94285714285715,108.45183673469388 L -169.45714285714286,108.09183673469387 L -169.9714285714286,107.7465306122449 L -170.4857142857143,107.41591836734695 L -171.0,107.10000000000001 L -171.5142857142857,106.79877551020408 L -172.0285714285714,106.51224489795918 L -172.54285714285714,106.24040816326531 L -173.05714285714285,105.98326530612246 L -173.57142857142856,105.7408163265306 L -174.08571428571432,105.5130612244898 L -174.60000000000002,105.3 L -175.11428571428573,105.10163265306122 L -175.62857142857143,104.91795918367347 L -176.14285714285717,104.74897959183673 L -176.65714285714287,104.59469387755102 L -177.17142857142858,104.45510204081631 L -177.68571428571428,104.33020408163264 L -178.20000000000002,104.22 L -178.71428571428572,104.12448979591836 L -179.22857142857143,104.04367346938776 L -179.74285714285713,103.97755102040816 L -180.2571428571429,103.92612244897958 L -180.7714285714286,103.88938775510204 L -181.2857142857143,103.86734693877551 L -181.8,103.85999999999999 L -199.8,103.85999999999999 L -199.8,103.85999999999999 L -199.1088,104.58 L -198.4464,105.3 L -197.8128,106.02 L -197.208,106.74 L -196.632,107.46 L -196.08480000000003,108.17999999999999 L -195.56640000000002,108.89999999999999 L -195.0768,109.62 L -194.616,110.34 L -194.184,111.06 L -193.78080000000003,111.78 L -193.40640000000002,112.5 L -193.0608,113.22 L -192.744,113.94 L -192.45600000000002,114.66 L -192.19680000000002,115.38 L -191.9664,116.10000000000001 L -191.7648,116.82000000000001 L -191.592,117.54 L -191.448,118.26 L -191.3328,118.98 L -191.2464,119.7 L -191.18880000000001,120.41999999999999 L -191.16000000000003,121.14000000000001 L -191.16000000000003,121.85999999999999 L -191.18880000000001,122.58000000000001 L -191.2464,123.3 L -191.3328,124.02 L -191.448,124.74 L -191.592,125.46 L -191.7648,126.17999999999999 L -191.9664,126.89999999999999 L -192.19680000000002,127.62 L -192.45600000000002,128.34 L -192.744,129.06 L -193.0608,129.78 L -193.40640000000002,130.5 L -193.78080000000003,131.22 L -194.184,131.94 L -194.616,132.66 L -195.0768,133.38 L -195.56640000000002,134.1 L -196.08480000000003,134.82 L -196.632,135.54 L -197.20800000000003,136.26 L -197.8128,136.98000000000002 L -198.4464,137.70000000000002 L -199.1088,138.42000000000002 L -199.8,139.14000000000001" style="stroke:black;fill:none;stroke-width:2.0;stroke-linecap:round;stroke-linejoin:round;" /><path d="M -212.4,130.5 L -193.40640000000002,130.5" style="stroke:black;fill:none;stroke-width:2.0;stroke-linecap:round;stroke-linejoin:round;" /><path d="M -212.4,112.5 L -193.40640000000002,112.5" style="stroke:black;fill:none;stroke-width:2.0;stroke-linecap:round;stroke-linejoin:round;" /><path d="M -147.96,121.5 L -144.0,121.5" style="stroke:black;fill:none;stroke-width:2.0;stroke-linecap:round;stroke-linejoin:round;" /><path d="M -140.4,139.5 L -144.0,139.5 L -144.0,121.5" style="stroke:black;fill:none;stroke-width:2;stroke-linecap:round;stroke-linejoin:round;" /><path d="M -174.6,193.5 L -173.44673604034716,193.46301706950607 L -172.2982110896789,193.35222024881844 L -171.1591446833753,193.16806482583917 L -170.03421748962887,192.91130753470253 L -168.9280520755748,192.58300344619204 L -167.84519391217128,192.18450163222838 L -166.79009269588394,191.71743962224355 L -165.76708406392913,191.183736674221 L -164.7803717782101,190.58558588805312 L -163.83401045115812,189.9254451936232 L -162.9318888844598,189.2060272506444 L -162.07771408913723,188.4302883017591 L -161.27499605264433,187.6014160247037 L -160.52703331557547,186.7228164334572 L -159.8368994172548,185.79809988219904 L -159.20743026590378,184.83106622958945 L -158.641212485286,183.82568922433506 L -158.14057278571536,182.7861001762031 L -157.70756840310432,181.71657097958354 L -157.34397864534012,180.62149655935858 L -157.05129758072718,179.50537681121367 L -156.8307278985399,178.37279811060083 L -156.6831759669144,177.22841446633828 L -156.60924810838762,176.0769283962898 L -156.60924810838762,174.9230716037102 L -156.6831759669144,173.77158553366172 L -156.8307278985399,172.62720188939917 L -157.05129758072718,171.49462318878633 L -157.34397864534012,170.37850344064142 L -157.70756840310432,169.28342902041646 L -158.14057278571536,168.21389982379694 L -158.641212485286,167.174310775665 L -159.20743026590378,166.16893377041055 L -159.8368994172548,165.20190011780096 L -160.52703331557547,164.2771835665428 L -161.27499605264433,163.3985839752963 L -162.07771408913723,162.56971169824092 L -162.9318888844598,161.7939727493556 L -163.83401045115812,161.0745548063768 L -164.7803717782101,160.41441411194688 L -165.76708406392913,159.816263325779 L -166.79009269588394,159.28256037775645 L -167.84519391217128,158.81549836777162 L -168.9280520755748,158.41699655380796 L -170.03421748962887,158.08869246529747 L -171.1591446833753,157.83193517416083 L -172.2982110896789,157.64777975118156 L -173.44673604034716,157.53698293049393 L -174.6,157.5 L -174.6,157.5 L -198.0,157.5 L -198.0,175.5 L -198.0,193.5 L -174.6,193.5" style="stroke:black;fill:none;stroke-width:2.0;stroke-linecap:round;stroke-linejoin:round;" /><path d="M -210.6,184.5 L -198.0,184.5" style="stroke:black;fill:none;stroke-width:2.0;stroke-linecap:round;stroke-linejoin:round;" /><path d="M -210.6,166.5 L -198.0,166.5" style="stroke:black;fill:none;stroke-width:2.0;stroke-linecap:round;stroke-linejoin:round;" /><path d="M -156.6,175.5 L -144.0,175.5" style="stroke:black;fill:none;stroke-width:2.0;stroke-linecap:round;stroke-linejoin:round;" /><path d="M -140.4,157.5 L -144.0,157.5 L -144.0,175.5" style="stroke:black;fill:none;stroke-width:2;stroke-linecap:round;stroke-linejoin:round;" /><path d="M -68.4,103.5 L -72.0,103.5 L -72.0,148.5" style="stroke:black;fill:none;stroke-width:2;stroke-linecap:round;stroke-linejoin:round;" /><text x="3.600000000000003" y="88.89999999999999" fill="black" font-size="14.0" font-family="sans" text-anchor="start"><tspan x="3.600000000000003" dy="14.0">\text{Output}</tspan></text><text x="-216.0" y="-1.0999999999999996" fill="black" font-size="14.0" font-family="sans" text-anchor="end"><tspan x="-216.0" dy="14.0">d</tspan></text><text x="-216.0" y="16.9" fill="black" font-size="14.0" font-family="sans" text-anchor="end"><tspan x="-216.0" dy="14.0">a</tspan></text><text x="-214.20000000000002" y="52.89999999999999" fill="black" font-size="14.0" font-family="sans" text-anchor="end"><tspan x="-214.20000000000002" dy="14.0">a</tspan></text><text x="-214.20000000000002" y="70.89999999999999" fill="black" font-size="14.0" font-family="sans" text-anchor="end"><tspan x="-214.20000000000002" dy="14.0">e</tspan></text><text x="-216.0" y="106.89999999999999" fill="black" font-size="14.0" font-family="sans" text-anchor="end"><tspan x="-216.0" dy="14.0">c</tspan></text><text x="-216.0" y="124.89999999999999" fill="black" font-size="14.0" font-family="sans" text-anchor="end"><tspan x="-216.0" dy="14.0">c</tspan></text><text x="-214.20000000000002" y="160.9" fill="black" font-size="14.0" font-family="sans" text-anchor="end"><tspan x="-214.20000000000002" dy="14.0">f</tspan></text><text x="-214.20000000000002" y="178.9" fill="black" font-size="14.0" font-family="sans" text-anchor="end"><tspan x="-214.20000000000002" dy="14.0">c</tspan></text></svg>