<svg xmlns="http://www.w3.org/2000/svg" xml:lang="en" height="85.34pt" width="249.44pt" viewBox="-159.33999999999997 -22.6 249.44 85.34"><circle cx="-96.3" cy="-0.0" r="4.32" style="stroke:black;fill:none;stroke-width:2.0;" /><circle cx="-80.28" cy="40.5" r="4.32" style="stroke:black;fill:none;stroke-width:2.0;" /><path d="M -55.80000000000001,37.89000000000001 L -37.80000000000001,37.89000000000001 L -37.2857142857143,37.882653061224495 L -36.77142857142859,37.860612244897965 L -36.257142857142874,37.82387755102041 L -35.742857142857154,37.77244897959184 L -35.22857142857144,37.706326530612245 L -34.71428571428573,37.625510204081635 L -34.20000000000002,37.53 L -33.6857142857143,37.41979591836735 L -33.171428571428585,37.29489795918368 L -32.65714285714287,37.15530612244898 L -32.14285714285715,37.001020408163264 L -31.628571428571444,36.83204081632653 L -31.11428571428573,36.648367346938784 L -30.60000000000002,36.45 L -30.0857142857143,36.236938775510204 L -29.571428571428577,36.00918367346939 L -29.057142857142864,35.76673469387755 L -28.54285714285715,35.5095918367347 L -28.02857142857144,35.23775510204082 L -27.514285714285727,34.95122448979592 L -27.000000000000014,34.650000000000006 L -26.4857142857143,34.33408163265307 L -25.971428571428582,34.0034693877551 L -25.45714285714287,33.65816326530613 L -24.94285714285715,33.29816326530613 L -24.428571428571438,32.923469387755105 L -23.914285714285725,32.53408163265306 L -23.400000000000013,32.13 L -22.8857142857143,31.71122448979592 L -22.371428571428588,31.277755102040818 L -21.857142857142875,30.829591836734696 L -21.342857142857156,30.366734693877554 L -20.828571428571436,29.88918367346939 L -20.314285714285724,29.396938775510208 L -19.80000000000001,28.890000000000004 L -19.2857142857143,28.368367346938776 L -18.771428571428586,27.832040816326533 L -18.257142857142874,27.281020408163265 L -17.74285714285716,26.715306122448986 L -17.22857142857143,26.134897959183675 L -16.71428571428572,25.539795918367346 L -16.200000000000006,24.93 L -15.685714285714294,24.305510204081635 L -15.171428571428581,23.666326530612242 L -14.657142857142869,23.012448979591838 L -14.142857142857157,22.343877551020405 L -13.628571428571444,21.660612244897962 L -13.114285714285732,20.962653061224493 L -12.600000000000003,20.25 L -12.600000000000003,20.25 L -13.114285714285732,19.537346938775507 L -13.628571428571444,18.839387755102038 L -14.142857142857157,18.156122448979595 L -14.657142857142869,17.487551020408162 L -15.171428571428581,16.833673469387755 L -15.685714285714294,16.194489795918365 L -16.200000000000006,15.57 L -16.71428571428572,14.960204081632652 L -17.22857142857143,14.365102040816327 L -17.74285714285716,13.784693877551017 L -18.257142857142874,13.218979591836735 L -18.771428571428586,12.667959183673467 L -19.2857142857143,12.131632653061223 L -19.80000000000001,11.609999999999996 L -20.314285714285724,11.103061224489794 L -20.828571428571436,10.61081632653061 L -21.342857142857156,10.133265306122448 L -21.857142857142875,9.670408163265304 L -22.371428571428588,9.22224489795918 L -22.8857142857143,8.78877551020408 L -23.400000000000013,8.369999999999997 L -23.914285714285725,7.965918367346935 L -24.428571428571438,7.576530612244894 L -24.94285714285715,7.201836734693873 L -25.45714285714287,6.841836734693874 L -25.971428571428582,6.496530612244895 L -26.4857142857143,6.1659183673469355 L -27.000000000000014,5.849999999999997 L -27.514285714285727,5.548775510204079 L -28.02857142857144,5.26224489795918 L -28.54285714285715,4.990408163265303 L -29.057142857142864,4.733265306122447 L -29.571428571428577,4.490816326530609 L -30.0857142857143,4.2630612244897925 L -30.60000000000002,4.049999999999997 L -31.11428571428573,3.8516326530612215 L -31.628571428571444,3.6679591836734664 L -32.14285714285715,3.498979591836732 L -32.65714285714287,3.3446938775510175 L -33.171428571428585,3.205102040816322 L -33.6857142857143,3.0802040816326492 L -34.20000000000002,2.9699999999999966 L -34.71428571428573,2.874489795918363 L -35.22857142857144,2.793673469387752 L -35.742857142857154,2.7275510204081588 L -36.257142857142874,2.676122448979589 L -36.77142857142859,2.6393877551020375 L -37.2857142857143,2.6173469387755066 L -37.80000000000001,2.6099999999999963 L -55.80000000000001,2.6099999999999963 L -55.80000000000001,2.6099999999999963 L -55.108800000000016,3.329999999999997 L -54.44640000000001,4.049999999999997 L -53.81280000000001,4.769999999999998 L -53.208000000000006,5.489999999999998 L -52.632000000000005,6.209999999999999 L -52.08480000000001,6.929999999999996 L -51.566400000000016,7.649999999999997 L -51.07680000000001,8.369999999999997 L -50.616000000000014,9.089999999999998 L -50.18400000000001,9.809999999999999 L -49.780800000000006,10.53 L -49.40640000000001,11.25 L -49.060800000000015,11.969999999999997 L -48.744000000000014,12.689999999999998 L -48.45600000000001,13.409999999999998 L -48.19680000000002,14.129999999999999 L -47.96640000000001,14.85 L -47.764800000000015,15.57 L -47.59200000000001,16.29 L -47.44800000000001,17.01 L -47.33280000000001,17.73 L -47.24640000000001,18.45 L -47.188800000000015,19.169999999999998 L -47.16000000000001,19.89 L -47.16000000000001,20.61 L -47.188800000000015,21.330000000000002 L -47.24640000000001,22.05 L -47.33280000000001,22.770000000000003 L -47.44800000000001,23.490000000000002 L -47.59200000000001,24.210000000000004 L -47.764800000000015,24.93 L -47.96640000000001,25.650000000000002 L -48.19680000000002,26.37 L -48.45600000000001,27.090000000000003 L -48.744000000000014,27.810000000000002 L -49.06080000000001,28.53 L -49.40640000000001,29.25 L -49.780800000000006,29.97 L -50.18400000000001,30.69 L -50.616000000000014,31.410000000000004 L -51.07680000000001,32.13 L -51.566400000000016,32.85 L -52.08480000000001,33.57000000000001 L -52.632000000000005,34.290000000000006 L -53.20800000000001,35.010000000000005 L -53.81280000000001,35.730000000000004 L -54.44640000000001,36.45 L -55.108800000000016,37.17000000000001 L -55.80000000000001,37.89000000000001" style="stroke:black;fill:none;stroke-width:2.0;stroke-linecap:round;stroke-linejoin:round;" /><path d="M -68.4,29.25 L -49.40640000000001,29.25" style="stroke:black;fill:none;stroke-width:2.0;stroke-linecap:round;stroke-linejoin:round;" /><path d="M -68.4,11.25 L -49.40640000000001,11.25" style="stroke:black;fill:none;stroke-width:2.0;stroke-linecap:round;stroke-linejoin:round;" /><path d="M -12.600000000000003,20.25 L 0.0,20.25" style="stroke:black;fill:none;stroke-width:2.0;stroke-linecap:round;stroke-linejoin:round;" /><path d="M -144.0,-0.0 L -124.02,-0.0 M -91.97999999999999,-0.0 L -72.0,-0.0" style="stroke:black;fill:none;stroke-width:2.0;stroke-linecap:round;stroke-linejoin:round;" /><path d="M -124.02,-18.0 L -100.62,-0.0 L -124.02,18.0 L -124.02,-18.0" style="stroke:black;fill:none;stroke-width:2.0;stroke-linecap:round;stroke-linejoin:round;" /><path d="M -68.4,11.25 L -72.0,11.25 L -72.0,-0.0" style="stroke:black;fill:none;stroke-width:2;stroke-linecap:round;stroke-linejoin:round;" /><path d="M -127.80000000000001,58.14000000000001 L -109.80000000000001,58.14000000000001 L -109.28571428571429,58.132653061224495 L -108.77142857142859,58.110612244897965 L -108.25714285714287,58.07387755102041 L -107.74285714285716,58.02244897959184 L -107.22857142857144,57.956326530612245 L -106.71428571428572,57.875510204081635 L -106.2,57.78 L -105.6857142857143,57.66979591836735 L -105.17142857142858,57.54489795918368 L -104.65714285714287,57.40530612244898 L -104.14285714285715,57.251020408163264 L -103.62857142857145,57.08204081632653 L -103.11428571428573,56.898367346938784 L -102.60000000000002,56.7 L -102.0857142857143,56.486938775510204 L -101.57142857142858,56.25918367346939 L -101.05714285714286,56.01673469387755 L -100.54285714285716,55.7595918367347 L -100.02857142857144,55.48775510204082 L -99.51428571428573,55.20122448979592 L -99.00000000000001,54.900000000000006 L -98.48571428571431,54.58408163265307 L -97.97142857142858,54.2534693877551 L -97.45714285714286,53.90816326530613 L -96.94285714285715,53.54816326530613 L -96.42857142857144,53.173469387755105 L -95.91428571428573,52.78408163265306 L -95.4,52.38 L -94.8857142857143,51.96122448979592 L -94.3714285714286,51.527755102040814 L -93.85714285714288,51.07959183673469 L -93.34285714285716,50.61673469387755 L -92.82857142857144,50.13918367346939 L -92.31428571428572,49.64693877551021 L -91.80000000000001,49.14000000000001 L -91.28571428571429,48.61836734693878 L -90.77142857142859,48.08204081632653 L -90.25714285714287,47.531020408163265 L -89.74285714285716,46.965306122448986 L -89.22857142857143,46.384897959183675 L -88.71428571428572,45.789795918367346 L -88.2,45.17999999999999 L -87.6857142857143,44.555510204081635 L -87.17142857142858,43.91632653061224 L -86.65714285714287,43.26244897959184 L -86.14285714285715,42.593877551020405 L -85.62857142857145,41.91061224489796 L -85.11428571428573,41.21265306122449 L -84.60000000000001,40.5 L -84.60000000000001,40.5 L -85.11428571428573,39.78734693877551 L -85.62857142857145,39.08938775510204 L -86.14285714285715,38.406122448979595 L -86.65714285714287,37.73755102040816 L -87.17142857142858,37.08367346938776 L -87.6857142857143,36.444489795918365 L -88.2,35.82 L -88.71428571428572,35.210204081632654 L -89.22857142857143,34.615102040816325 L -89.74285714285716,34.034693877551014 L -90.25714285714287,33.468979591836735 L -90.77142857142859,32.91795918367347 L -91.28571428571429,32.381632653061224 L -91.80000000000001,31.859999999999996 L -92.31428571428572,31.353061224489792 L -92.82857142857144,30.86081632653061 L -93.34285714285716,30.383265306122446 L -93.85714285714288,29.920408163265304 L -94.3714285714286,29.472244897959182 L -94.8857142857143,29.03877551020408 L -95.4,28.619999999999997 L -95.91428571428573,28.215918367346937 L -96.42857142857144,27.826530612244895 L -96.94285714285715,27.451836734693874 L -97.45714285714286,27.09183673469387 L -97.97142857142858,26.746530612244893 L -98.48571428571431,26.415918367346933 L -99.00000000000001,26.099999999999994 L -99.51428571428573,25.798775510204077 L -100.02857142857144,25.512244897959178 L -100.54285714285716,25.240408163265304 L -101.05714285714286,24.983265306122448 L -101.57142857142858,24.740816326530613 L -102.0857142857143,24.513061224489793 L -102.60000000000002,24.299999999999997 L -103.11428571428573,24.10163265306122 L -103.62857142857145,23.917959183673467 L -104.14285714285715,23.748979591836733 L -104.65714285714287,23.594693877551016 L -105.17142857142858,23.45510204081632 L -105.6857142857143,23.33020408163265 L -106.2,23.219999999999995 L -106.71428571428572,23.124489795918365 L -107.22857142857144,23.043673469387755 L -107.74285714285716,22.977551020408157 L -108.25714285714287,22.92612244897959 L -108.77142857142859,22.88938775510204 L -109.28571428571429,22.867346938775505 L -109.80000000000001,22.859999999999996 L -127.80000000000001,22.859999999999996 L -127.80000000000001,22.859999999999996 L -127.1088,23.58 L -126.44640000000001,24.299999999999997 L -125.81280000000002,25.02 L -125.20800000000001,25.74 L -124.632,26.46 L -124.08480000000002,27.179999999999996 L -123.56640000000002,27.9 L -123.0768,28.619999999999997 L -122.61600000000001,29.339999999999996 L -122.184,30.06 L -121.78080000000001,30.78 L -121.4064,31.5 L -121.06080000000001,32.22 L -120.744,32.94 L -120.456,33.66 L -120.19680000000001,34.379999999999995 L -119.96640000000001,35.1 L -119.76480000000001,35.82 L -119.592,36.540000000000006 L -119.44800000000002,37.260000000000005 L -119.33280000000002,37.980000000000004 L -119.24640000000001,38.699999999999996 L -119.18880000000001,39.42 L -119.16000000000003,40.14 L -119.16000000000003,40.86 L -119.18880000000001,41.58 L -119.24640000000001,42.300000000000004 L -119.33280000000002,43.02 L -119.44800000000002,43.74 L -119.592,44.46 L -119.76480000000001,45.17999999999999 L -119.96640000000001,45.9 L -120.19680000000001,46.62 L -120.456,47.339999999999996 L -120.744,48.06 L -121.0608,48.78 L -121.4064,49.5 L -121.78080000000001,50.22 L -122.184,50.94 L -122.61600000000001,51.660000000000004 L -123.0768,52.38 L -123.56640000000002,53.1 L -124.08480000000002,53.82000000000001 L -124.632,54.540000000000006 L -125.20800000000003,55.260000000000005 L -125.81280000000002,55.980000000000004 L -126.44640000000001,56.7 L -127.1088,57.42000000000001 L -127.80000000000001,58.14000000000001" style="stroke:black;fill:none;stroke-width:2.0;stroke-linecap:round;stroke-linejoin:round;" /><path d="M -140.4,49.5 L -121.4064,49.5" style="stroke:black;fill:none;stroke-width:2.0;stroke-linecap:round;stroke-linejoin:round;" /><path d="M -140.4,31.5 L -121.4064,31.5" style="stroke:black;fill:none;stroke-width:2.0;stroke-linecap:round;stroke-linejoin:round;" /><path d="M -75.96000000000001,40.5 L -72.0,40.5" style="stroke:black;fill:none;stroke-width:2.0;stroke-linecap:round;stroke-linejoin:round;" /><path d="M -68.4,29.25 L -72.0,29.25 L -72.0,40.5" style="stroke:black;fill:none;stroke-width:2;stroke-linecap:round;stroke-linejoin:round;" /><text x="3.600000000000003" y="14.65" fill="black" font-size="14.0" font-family="sans" text-anchor="start"><tspan x="3.600000000000003" dy="14.0">\text{Output}</tspan></text><text x="-147.6" y="-5.6000000000000005" fill="black" font-size="14.0" font-family="sans" text-anchor="end"><tspan x="-147.6" dy="14.0">c</tspan></text><text x="-144.0" y="25.9" fill="black" font-size="14.0" font-family="sans" text-anchor="end"><tspan x="-144.0" dy="14.0">c</tspan></text><text x="-144.0" y="43.9" fill="black" font-size="14.0" font-family="sans" text-anchor="end"><tspan x="-144.0" dy="14.0">c</tspan></text></svg>