<svg xmlns="http://www.w3.org/2000/svg" xml:lang="en" height="139.34pt" width="318.68pt" viewBox="-228.57999999999998 -9.1 318.68 139.34"><circle cx="-152.28000000000003" cy="54.0" r="4.32" style="stroke:black;fill:none;stroke-width:2.0;" /><path d="M -30.6,65.25 L -29.446736040347172,65.21301706950605 L -28.298211089678894,65.10222024881843 L -27.1591446833753,64.91806482583918 L -26.03421748962887,64.66130753470253 L -24.928052075574826,64.33300344619204 L -23.84519391217127,63.93450163222839 L -22.790092695883956,63.467439622243546 L -21.767084063929126,62.93373667422101 L -20.780371778210124,62.33558588805314 L -19.83401045115812,61.675445193623226 L -18.931888884459806,60.95602725064442 L -18.077714089137253,60.1802883017591 L -17.274996052644326,59.35141602470371 L -16.527033315575473,58.4728164334572 L -15.83689941725479,57.548099882199054 L -15.207430265903778,56.58106622958945 L -14.641212485286,55.575689224335036 L -14.140572785715374,54.536100176203085 L -13.70756840310431,53.46657097958354 L -13.343978645340105,52.37149655935858 L -13.05129758072718,51.25537681121366 L -12.830727898539898,50.122798110600826 L -12.683175966914435,48.97841446633828 L -12.609248108387625,47.8269283962898 L -12.609248108387625,46.67307160371021 L -12.683175966914435,45.521585533661735 L -12.830727898539898,44.377201889399174 L -13.05129758072718,43.24462318878634 L -13.343978645340105,42.12850344064142 L -13.70756840310431,41.03342902041646 L -14.140572785715374,39.963899823796915 L -14.641212485286,38.924310775664964 L -15.207430265903778,37.91893377041055 L -15.83689941725479,36.951900117800946 L -16.527033315575473,36.0271835665428 L -17.274996052644326,35.148583975296305 L -18.077714089137245,34.3197116982409 L -18.931888884459806,33.54397274935558 L -19.834010451158107,32.82455480637678 L -20.780371778210124,32.16441411194687 L -21.767084063929126,31.56626332577899 L -22.790092695883956,31.032560377756457 L -23.84519391217127,30.56549836777161 L -24.928052075574826,30.166996553807966 L -26.03421748962887,29.83869246529747 L -27.1591446833753,29.581935174160826 L -28.298211089678887,29.39777975118157 L -29.446736040347165,29.286982930493945 L -30.6,29.25 L -30.6,29.25 L -54.0,29.25 L -54.0,47.25 L -54.0,65.25 L -30.6,65.25" style="stroke:black;fill:none;stroke-width:2.0;stroke-linecap:round;stroke-linejoin:round;" /><path d="M -66.60000000000001,56.25 L -54.0,56.25" style="stroke:black;fill:none;stroke-width:2.0;stroke-linecap:round;stroke-linejoin:round;" /><path d="M -66.60000000000001,38.25 L -54.0,38.25" style="stroke:black;fill:none;stroke-width:2.0;stroke-linecap:round;stroke-linejoin:round;" /><path d="M -12.600000000000003,47.25 L 0.0,47.25" style="stroke:black;fill:none;stroke-width:2.0;stroke-linecap:round;stroke-linejoin:round;" /><path d="M -102.60000000000001,31.5 L -101.44673604034718,31.463017069506055 L -100.29821108967889,31.35222024881843 L -99.1591446833753,31.168064825839174 L -98.03421748962887,30.91130753470253 L -96.92805207557483,30.583003446192034 L -95.84519391217127,30.18450163222839 L -94.79009269588396,29.717439622243543 L -93.76708406392912,29.18373667422101 L -92.78037177821012,28.58558588805313 L -91.83401045115812,27.925445193623222 L -90.93188888445981,27.206027250644418 L -90.07771408913726,26.4302883017591 L -89.27499605264433,25.601416024703703 L -88.52703331557547,24.7228164334572 L -87.83689941725478,23.798099882199054 L -87.20743026590378,22.83106622958945 L -86.641212485286,21.825689224335036 L -86.14057278571538,20.786100176203092 L -85.7075684031043,19.71657097958354 L -85.3439786453401,18.621496559358587 L -85.05129758072718,17.505376811213658 L -84.83072789853989,16.372798110600826 L -84.68317596691443,15.228414466338274 L -84.60924810838762,14.076928396289794 L -84.60924810838762,12.92307160371021 L -84.68317596691443,11.77158553366173 L -84.83072789853989,10.627201889399178 L -85.05129758072718,9.494623188786342 L -85.3439786453401,8.378503440641417 L -85.7075684031043,7.283429020416464 L -86.14057278571538,6.213899823796913 L -86.641212485286,5.174310775664967 L -87.20743026590378,4.168933770410549 L -87.83689941725478,3.20190011780095 L -88.52703331557547,2.2771835665427975 L -89.27499605264433,1.3985839752963019 L -90.07771408913723,0.5697116982409052 L -90.93188888445981,-0.20602725064441563 L -91.83401045115811,-0.9254451936232191 L -92.78037177821012,-1.5855858880531288 L -93.76708406392912,-2.1837366742210076 L -94.79009269588396,-2.7174396222435444 L -95.84519391217127,-3.1845016322283897 L -96.92805207557483,-3.5830034461920355 L -98.03421748962887,-3.9113075347025283 L -99.1591446833753,-4.168064825839176 L -100.29821108967889,-4.352220248818429 L -101.44673604034718,-4.463017069506054 L -102.60000000000001,-4.5 L -102.60000000000001,-4.5 L -126.0,-4.5 L -126.0,13.5 L -126.0,31.5 L -102.60000000000001,31.5" style="stroke:black;fill:none;stroke-width:2.0;stroke-linecap:round;stroke-linejoin:round;" /><path d="M -138.6,22.5 L -126.0,22.5" style="stroke:black;fill:none;stroke-width:2.0;stroke-linecap:round;stroke-linejoin:round;" /><path d="M -138.6,4.5 L -126.0,4.5" style="stroke:black;fill:none;stroke-width:2.0;stroke-linecap:round;stroke-linejoin:round;" /><path d="M -84.60000000000001,13.5 L -72.0,13.5" style="stroke:black;fill:none;stroke-width:2.0;stroke-linecap:round;stroke-linejoin:round;" /><path d="M -66.60000000000001,38.25 L -72.0,38.25 L -72.0,13.5" style="stroke:black;fill:none;stroke-width:2;stroke-linecap:round;stroke-linejoin:round;" /><path d="M -102.60000000000001,99.0 L -101.44673604034718,98.96301706950607 L -100.29821108967889,98.85222024881844 L -99.1591446833753,98.66806482583918 L -98.03421748962887,98.41130753470253 L -96.92805207557483,98.08300344619204 L -95.84519391217127,97.68450163222839 L -94.79009269588396,97.21743962224355 L -93.76708406392912,96.68373667422101 L -92.78037177821012,96.08558588805313 L -91.83401045115812,95.42544519362322 L -90.93188888445981,94.70602725064442 L -90.07771408913726,93.93028830175909 L -89.27499605264433,93.10141602470371 L -88.52703331557547,92.2228164334572 L -87.83689941725478,91.29809988219905 L -87.20743026590378,90.33106622958945 L -86.641212485286,89.32568922433504 L -86.14057278571538,88.28610017620309 L -85.7075684031043,87.21657097958354 L -85.3439786453401,86.12149655935858 L -85.05129758072718,85.00537681121367 L -84.83072789853989,83.87279811060083 L -84.68317596691443,82.72841446633828 L -84.60924810838762,81.5769283962898 L -84.60924810838762,80.4230716037102 L -84.68317596691443,79.27158553366172 L -84.83072789853989,78.12720188939917 L -85.05129758072718,76.99462318878633 L -85.3439786453401,75.87850344064142 L -85.7075684031043,74.78342902041646 L -86.14057278571538,73.71389982379691 L -86.641212485286,72.67431077566496 L -87.20743026590378,71.66893377041055 L -87.83689941725478,70.70190011780095 L -88.52703331557547,69.7771835665428 L -89.27499605264433,68.8985839752963 L -90.07771408913723,68.06971169824091 L -90.93188888445981,67.29397274935558 L -91.83401045115811,66.57455480637678 L -92.78037177821012,65.91441411194687 L -93.76708406392912,65.31626332577899 L -94.79009269588396,64.78256037775645 L -95.84519391217127,64.31549836777161 L -96.92805207557483,63.91699655380796 L -98.03421748962887,63.58869246529747 L -99.1591446833753,63.331935174160826 L -100.29821108967889,63.147779751181574 L -101.44673604034718,63.03698293049395 L -102.60000000000001,63.0 L -102.60000000000001,63.0 L -126.0,63.0 L -126.0,81.0 L -126.0,99.0 L -102.60000000000001,99.0" style="stroke:black;fill:none;stroke-width:2.0;stroke-linecap:round;stroke-linejoin:round;" /><path d="M -138.6,90.0 L -126.0,90.0" style="stroke:black;fill:none;stroke-width:2.0;stroke-linecap:round;stroke-linejoin:round;" /><path d="M -138.6,72.0 L -126.0,72.0" style="stroke:black;fill:none;stroke-width:2.0;stroke-linecap:round;stroke-linejoin:round;" /><path d="M -84.60000000000001,81.0 L -72.0,81.0" style="stroke:black;fill:none;stroke-width:2.0;stroke-linecap:round;stroke-linejoin:round;" /><path d="M -199.8,71.64000000000001 L -181.8,71.64000000000001 L -181.2857142857143,71.63265306122449 L -180.7714285714286,71.61061224489796 L -180.2571428571429,71.57387755102042 L -179.74285714285713,71.52244897959184 L -179.22857142857143,71.45632653061224 L -178.71428571428572,71.37551020408164 L -178.20000000000002,71.28 L -177.68571428571428,71.16979591836736 L -177.17142857142858,71.04489795918367 L -176.65714285714287,70.90530612244898 L -176.14285714285717,70.75102040816327 L -175.62857142857143,70.58204081632654 L -175.11428571428573,70.39836734693878 L -174.60000000000002,70.2 L -174.08571428571432,69.9869387755102 L -173.57142857142856,69.7591836734694 L -173.05714285714285,69.51673469387755 L -172.54285714285714,69.2595918367347 L -172.0285714285714,68.98775510204082 L -171.5142857142857,68.70122448979592 L -171.0,68.4 L -170.4857142857143,68.08408163265307 L -169.9714285714286,67.7534693877551 L -169.45714285714286,67.40816326530613 L -168.94285714285715,67.04816326530613 L -168.42857142857144,66.6734693877551 L -167.9142857142857,66.28408163265307 L -167.4,65.88 L -166.8857142857143,65.46122448979592 L -166.3714285714286,65.02775510204081 L -165.8571428571429,64.57959183673469 L -165.34285714285716,64.11673469387755 L -164.82857142857145,63.63918367346939 L -164.31428571428575,63.14693877551021 L -163.8,62.64000000000001 L -163.2857142857143,62.11836734693878 L -162.7714285714286,61.58204081632653 L -162.2571428571429,61.031020408163265 L -161.7428571428572,60.465306122448986 L -161.22857142857143,59.884897959183675 L -160.71428571428572,59.289795918367346 L -160.20000000000002,58.67999999999999 L -159.68571428571428,58.055510204081635 L -159.17142857142858,57.41632653061224 L -158.65714285714287,56.76244897959184 L -158.14285714285717,56.093877551020405 L -157.62857142857143,55.41061224489796 L -157.11428571428573,54.71265306122449 L -156.6,54.0 L -156.6,54.0 L -157.11428571428573,53.28734693877551 L -157.62857142857143,52.58938775510204 L -158.14285714285717,51.906122448979595 L -158.65714285714287,51.23755102040816 L -159.17142857142858,50.58367346938776 L -159.68571428571428,49.944489795918365 L -160.20000000000002,49.32000000000001 L -160.71428571428572,48.710204081632654 L -161.22857142857143,48.115102040816325 L -161.7428571428572,47.534693877551014 L -162.2571428571429,46.968979591836735 L -162.7714285714286,46.41795918367347 L -163.2857142857143,45.88163265306122 L -163.8,45.35999999999999 L -164.31428571428575,44.85306122448979 L -164.82857142857145,44.36081632653061 L -165.34285714285716,43.88326530612245 L -165.8571428571429,43.42040816326531 L -166.3714285714286,42.972244897959186 L -166.8857142857143,42.53877551020408 L -167.4,42.12 L -167.9142857142857,41.71591836734694 L -168.42857142857144,41.326530612244895 L -168.94285714285715,40.95183673469387 L -169.45714285714286,40.59183673469387 L -169.9714285714286,40.2465306122449 L -170.4857142857143,39.91591836734693 L -171.0,39.599999999999994 L -171.5142857142857,39.29877551020408 L -172.0285714285714,39.01224489795918 L -172.54285714285714,38.7404081632653 L -173.05714285714285,38.48326530612245 L -173.57142857142856,38.24081632653061 L -174.08571428571432,38.013061224489796 L -174.60000000000002,37.8 L -175.11428571428573,37.601632653061216 L -175.62857142857143,37.41795918367347 L -176.14285714285717,37.248979591836736 L -176.65714285714287,37.09469387755102 L -177.17142857142858,36.95510204081632 L -177.68571428571428,36.83020408163265 L -178.20000000000002,36.72 L -178.71428571428572,36.624489795918365 L -179.22857142857143,36.543673469387755 L -179.74285714285713,36.47755102040816 L -180.2571428571429,36.42612244897959 L -180.7714285714286,36.389387755102035 L -181.2857142857143,36.367346938775505 L -181.8,36.35999999999999 L -199.8,36.35999999999999 L -199.8,36.35999999999999 L -199.1088,37.07999999999999 L -198.4464,37.8 L -197.8128,38.519999999999996 L -197.208,39.239999999999995 L -196.632,39.959999999999994 L -196.08480000000003,40.67999999999999 L -195.56640000000002,41.4 L -195.0768,42.12 L -194.616,42.839999999999996 L -194.184,43.56 L -193.78080000000003,44.28 L -193.40640000000002,45.0 L -193.0608,45.72 L -192.744,46.44 L -192.45600000000002,47.160000000000004 L -192.19680000000002,47.88 L -191.9664,48.6 L -191.7648,49.32000000000001 L -191.592,50.040000000000006 L -191.448,50.760000000000005 L -191.3328,51.480000000000004 L -191.2464,52.199999999999996 L -191.18880000000001,52.92 L -191.16000000000003,53.64 L -191.16000000000003,54.36 L -191.18880000000001,55.08 L -191.2464,55.800000000000004 L -191.3328,56.52 L -191.448,57.24 L -191.592,57.96 L -191.7648,58.67999999999999 L -191.9664,59.4 L -192.19680000000002,60.12 L -192.45600000000002,60.839999999999996 L -192.744,61.56 L -193.0608,62.28 L -193.40640000000002,63.0 L -193.78080000000003,63.72 L -194.184,64.44 L -194.616,65.16 L -195.0768,65.88 L -195.56640000000002,66.60000000000001 L -196.08480000000003,67.32000000000001 L -196.632,68.04 L -197.20800000000003,68.76 L -197.8128,69.48 L -198.4464,70.2 L -199.1088,70.92 L -199.8,71.64000000000001" style="stroke:black;fill:none;stroke-width:2.0;stroke-linecap:round;stroke-linejoin:round;" /><path d="M -212.4,63.0 L -193.40640000000002,63.0" style="stroke:black;fill:none;stroke-width:2.0;stroke-linecap:round;stroke-linejoin:round;" /><path d="M -212.4,45.0 L -193.40640000000002,45.0" style="stroke:black;fill:none;stroke-width:2.0;stroke-linecap:round;stroke-linejoin:round;" /><path d="M -147.96,54.0 L -144.0,54.0" style="stroke:black;fill:none;stroke-width:2.0;stroke-linecap:round;stroke-linejoin:round;" /><path d="M -138.6,72.0 L -144.0,72.0 L -144.0,54.0" style="stroke:black;fill:none;stroke-width:2;stroke-linecap:round;stroke-linejoin:round;" /><path d="M -199.8,125.64000000000001 L -181.8,125.64000000000001 L -181.2857142857143,125.63265306122449 L -180.7714285714286,125.61061224489796 L -180.2571428571429,125.57387755102042 L -179.74285714285713,125.52244897959184 L -179.22857142857143,125.45632653061224 L -178.71428571428572,125.37551020408164 L -178.20000000000002,125.28 L -177.68571428571428,125.16979591836736 L -177.17142857142858,125.04489795918369 L -176.65714285714287,124.90530612244898 L -176.14285714285717,124.75102040816327 L -175.62857142857143,124.58204081632653 L -175.11428571428573,124.39836734693878 L -174.60000000000002,124.2 L -174.08571428571432,123.9869387755102 L -173.57142857142856,123.7591836734694 L -173.05714285714285,123.51673469387754 L -172.54285714285714,123.25959183673469 L -172.0285714285714,122.98775510204082 L -171.5142857142857,122.70122448979592 L -171.0,122.39999999999999 L -170.4857142857143,122.08408163265305 L -169.9714285714286,121.7534693877551 L -169.45714285714286,121.40816326530613 L -168.94285714285715,121.04816326530612 L -168.42857142857144,120.67346938775509 L -167.9142857142857,120.28408163265307 L -167.4,119.88 L -166.8857142857143,119.46122448979592 L -166.3714285714286,119.02775510204083 L -165.8571428571429,118.57959183673469 L -165.34285714285716,118.11673469387755 L -164.82857142857145,117.63918367346939 L -164.31428571428575,117.14693877551021 L -163.8,116.64000000000001 L -163.2857142857143,116.11836734693878 L -162.7714285714286,115.58204081632653 L -162.2571428571429,115.03102040816326 L -161.7428571428572,114.46530612244898 L -161.22857142857143,113.88489795918366 L -160.71428571428572,113.28979591836735 L -160.20000000000002,112.67999999999999 L -159.68571428571428,112.05551020408163 L -159.17142857142858,111.41632653061224 L -158.65714285714287,110.76244897959184 L -158.14285714285717,110.0938775510204 L -157.62857142857143,109.41061224489796 L -157.11428571428573,108.71265306122449 L -156.6,108.0 L -156.6,108.0 L -157.11428571428573,107.28734693877551 L -157.62857142857143,106.58938775510204 L -158.14285714285717,105.9061224489796 L -158.65714285714287,105.23755102040816 L -159.17142857142858,104.58367346938776 L -159.68571428571428,103.94448979591837 L -160.20000000000002,103.32000000000001 L -160.71428571428572,102.71020408163265 L -161.22857142857143,102.11510204081634 L -161.7428571428572,101.53469387755102 L -162.2571428571429,100.96897959183674 L -162.7714285714286,100.41795918367347 L -163.2857142857143,99.88163265306122 L -163.8,99.35999999999999 L -164.31428571428575,98.85306122448979 L -164.82857142857145,98.36081632653061 L -165.34285714285716,97.88326530612245 L -165.8571428571429,97.42040816326531 L -166.3714285714286,96.97224489795917 L -166.8857142857143,96.53877551020408 L -167.4,96.12 L -167.9142857142857,95.71591836734693 L -168.42857142857144,95.32653061224491 L -168.94285714285715,94.95183673469388 L -169.45714285714286,94.59183673469387 L -169.9714285714286,94.2465306122449 L -170.4857142857143,93.91591836734695 L -171.0,93.60000000000001 L -171.5142857142857,93.29877551020408 L -172.0285714285714,93.01224489795918 L -172.54285714285714,92.74040816326531 L -173.05714285714285,92.48326530612246 L -173.57142857142856,92.2408163265306 L -174.08571428571432,92.0130612244898 L -174.60000000000002,91.8 L -175.11428571428573,91.60163265306122 L -175.62857142857143,91.41795918367347 L -176.14285714285717,91.24897959183673 L -176.65714285714287,91.09469387755102 L -177.17142857142858,90.95510204081631 L -177.68571428571428,90.83020408163264 L -178.20000000000002,90.72 L -178.71428571428572,90.62448979591836 L -179.22857142857143,90.54367346938776 L -179.74285714285713,90.47755102040816 L -180.2571428571429,90.42612244897958 L -180.7714285714286,90.38938775510204 L -181.2857142857143,90.36734693877551 L -181.8,90.35999999999999 L -199.8,90.35999999999999 L -199.8,90.35999999999999 L -199.1088,91.08 L -198.4464,91.8 L -197.8128,92.52 L -197.208,93.24 L -196.632,93.96 L -196.08480000000003,94.67999999999999 L -195.56640000000002,95.39999999999999 L -195.0768,96.12 L -194.616,96.84 L -194.184,97.56 L -193.78080000000003,98.28 L -193.40640000000002,99.0 L -193.0608,99.72 L -192.744,100.44 L -192.45600000000002,101.16 L -192.19680000000002,101.88 L -191.9664,102.60000000000001 L -191.7648,103.32000000000001 L -191.592,104.04 L -191.448,104.76 L -191.3328,105.48 L -191.2464,106.2 L -191.18880000000001,106.91999999999999 L -191.16000000000003,107.64000000000001 L -191.16000000000003,108.35999999999999 L -191.18880000000001,109.08000000000001 L -191.2464,109.8 L -191.3328,110.52 L -191.448,111.24 L -191.592,111.96 L -191.7648,112.67999999999999 L -191.9664,113.39999999999999 L -192.19680000000002,114.12 L -192.45600000000002,114.84 L -192.744,115.56 L -193.0608,116.28 L -193.40640000000002,117.0 L -193.78080000000003,117.72 L -194.184,118.44 L -194.616,119.16 L -195.0768,119.88 L -195.56640000000002,120.60000000000001 L -196.08480000000003,121.32000000000001 L -196.632,122.04 L -197.20800000000003,122.76 L -197.8128,123.48 L -198.4464,124.2 L -199.1088,124.92 L -199.8,125.64000000000001" style="stroke:black;fill:none;stroke-width:2.0;stroke-linecap:round;stroke-linejoin:round;" /><path d="M -205.20000000000002,125.64000000000001 L -204.5088,124.92 L -203.8464,124.2 L -203.21280000000002,123.48 L -202.608,122.76 L -202.032,122.04 L -201.4848,121.32000000000001 L -200.9664,120.60000000000001 L -200.47680000000003,119.88 L -200.016,119.16 L -199.584,118.44 L -199.1808,117.72 L -198.8064,117.0 L -198.4608,116.28 L -198.144,115.56 L -197.85600000000002,114.84 L -197.5968,114.12 L -197.3664,113.39999999999999 L -197.1648,112.67999999999999 L -196.99200000000002,111.96 L -196.848,111.24 L -196.7328,110.52 L -196.64640000000003,109.8 L -196.58880000000002,109.08000000000001 L -196.56000000000003,108.35999999999999 L -196.56000000000003,107.64000000000001 L -196.58880000000002,106.91999999999999 L -196.64640000000003,106.2 L -196.7328,105.48 L -196.848,104.76 L -196.99200000000002,104.04 L -197.1648,103.32000000000001 L -197.3664,102.60000000000001 L -197.5968,101.88 L -197.85600000000002,101.16 L -198.144,100.44 L -198.4608,99.72 L -198.8064,99.0 L -199.1808,98.28 L -199.584,97.56 L -200.016,96.84 L -200.47680000000003,96.12 L -200.9664,95.39999999999999 L -201.4848,94.67999999999999 L -202.032,93.96 L -202.608,93.24 L -203.21280000000002,92.52 L -203.8464,91.8 L -204.5088,91.08 L -205.20000000000002,90.35999999999999" style="stroke:black;fill:none;stroke-width:2.0;stroke-linecap:round;stroke-linejoin:round;" /><path d="M -212.4,117.0 L -198.8064,117.0" style="stroke:black;fill:none;stroke-width:2.0;stroke-linecap:round;stroke-linejoin:round;" /><path d="M -212.4,99.0 L -198.8064,99.0" style="stroke:black;fill:none;stroke-width:2.0;stroke-linecap:round;stroke-linejoin:round;" /><path d="M -156.6,108.0 L -144.0,108.0" style="stroke:black;fill:none;stroke-width:2.0;stroke-linecap:round;stroke-linejoin:round;" /><path d="M -138.6,90.0 L -144.0,90.0 L -144.0,108.0" style="stroke:black;fill:none;stroke-width:2;stroke-linecap:round;stroke-linejoin:round;" /><path d="M -66.60000000000001,56.25 L -72.0,56.25 L -72.0,81.0" style="stroke:black;fill:none;stroke-width:2;stroke-linecap:round;stroke-linejoin:round;" /><text x="3.600000000000003" y="41.65" fill="black" font-size="14.0" font-family="sans" text-anchor="start"><tspan x="3.600000000000003" dy="14.0">\text{Output}</tspan></text><text x="-142.20000000000002" y="-1.0999999999999996" fill="black" font-size="14.0" font-family="sans" text-anchor="end"><tspan x="-142.20000000000002" dy="14.0">d</tspan></text><text x="-142.20000000000002" y="16.9" fill="black" font-size="14.0" font-family="sans" text-anchor="end"><tspan x="-142.20000000000002" dy="14.0">e</tspan></text><text x="-216.0" y="39.4" fill="black" font-size="14.0" font-family="sans" text-anchor="end"><tspan x="-216.0" dy="14.0">e</tspan></text><text x="-216.0" y="57.39999999999999" fill="black" font-size="14.0" font-family="sans" text-anchor="end"><tspan x="-216.0" dy="14.0">d</tspan></text><text x="-216.0" y="93.39999999999999" fill="black" font-size="14.0" font-family="sans" text-anchor="end"><tspan x="-216.0" dy="14.0">f</tspan></text><text x="-216.0" y="111.39999999999999" fill="black" font-size="14.0" font-family="sans" text-anchor="end"><tspan x="-216.0" dy="14.0">a</tspan></text></svg>