<svg xmlns="http://www.w3.org/2000/svg" xml:lang="en" height="44.480000000000004pt" width="174.68pt" viewBox="-84.58000000000001 -8.740000000000004 174.68 44.480000000000004"><circle cx="-8.28" cy="13.5" r="4.32" style="stroke:black;fill:none;stroke-width:2.0;" /><path d="M -55.80000000000001,31.140000000000004 L -37.80000000000001,31.140000000000004 L -37.2857142857143,31.132653061224495 L -36.77142857142859,31.11061224489796 L -36.257142857142874,31.07387755102041 L -35.742857142857154,31.022448979591843 L -35.22857142857144,30.956326530612245 L -34.71428571428573,30.875510204081635 L -34.20000000000002,30.780000000000005 L -33.6857142857143,30.66979591836735 L -33.171428571428585,30.54489795918368 L -32.65714285714287,30.405306122448984 L -32.14285714285715,30.251020408163267 L -31.628571428571444,30.082040816326533 L -31.11428571428573,29.89836734693878 L -30.60000000000002,29.700000000000003 L -30.0857142857143,29.486938775510207 L -29.571428571428577,29.259183673469387 L -29.057142857142864,29.016734693877552 L -28.54285714285715,28.759591836734696 L -28.02857142857144,28.487755102040822 L -27.514285714285727,28.201224489795923 L -27.000000000000014,27.900000000000006 L -26.4857142857143,27.584081632653067 L -25.971428571428582,27.253469387755107 L -25.45714285714287,26.90816326530613 L -24.94285714285715,26.548163265306126 L -24.428571428571438,26.173469387755105 L -23.914285714285725,25.784081632653063 L -23.400000000000013,25.380000000000003 L -22.8857142857143,24.96122448979592 L -22.371428571428588,24.527755102040818 L -21.857142857142875,24.079591836734696 L -21.342857142857156,23.616734693877554 L -20.828571428571436,23.13918367346939 L -20.314285714285724,22.646938775510208 L -19.80000000000001,22.140000000000004 L -19.2857142857143,21.618367346938776 L -18.771428571428586,21.082040816326533 L -18.257142857142874,20.531020408163265 L -17.74285714285716,19.965306122448986 L -17.22857142857143,19.384897959183675 L -16.71428571428572,18.789795918367346 L -16.200000000000006,18.18 L -15.685714285714294,17.555510204081635 L -15.171428571428581,16.916326530612245 L -14.657142857142869,16.262448979591838 L -14.142857142857157,15.593877551020407 L -13.628571428571444,14.91061224489796 L -13.114285714285732,14.212653061224492 L -12.600000000000003,13.5 L -12.600000000000003,13.5 L -13.114285714285732,12.787346938775508 L -13.628571428571444,12.08938775510204 L -14.142857142857157,11.406122448979593 L -14.657142857142869,10.737551020408162 L -15.171428571428581,10.083673469387756 L -15.685714285714294,9.444489795918365 L -16.200000000000006,8.82 L -16.71428571428572,8.210204081632652 L -17.22857142857143,7.615102040816326 L -17.74285714285716,7.034693877551017 L -18.257142857142874,6.468979591836734 L -18.771428571428586,5.917959183673466 L -19.2857142857143,5.381632653061223 L -19.80000000000001,4.859999999999996 L -20.314285714285724,4.353061224489794 L -20.828571428571436,3.8608163265306104 L -21.342857142857156,3.3832653061224476 L -21.857142857142875,2.920408163265303 L -22.371428571428588,2.4722448979591816 L -22.8857142857143,2.03877551020408 L -23.400000000000013,1.6199999999999974 L -23.914285714285725,1.2159183673469354 L -24.428571428571438,0.8265306122448939 L -24.94285714285715,0.451836734693873 L -25.45714285714287,0.09183673469387466 L -25.971428571428582,-0.2534693877551051 L -26.4857142857143,-0.5840816326530642 L -27.000000000000014,-0.9000000000000028 L -27.514285714285727,-1.2012244897959208 L -28.02857142857144,-1.4877551020408202 L -28.54285714285715,-1.759591836734697 L -29.057142857142864,-2.016734693877553 L -29.571428571428577,-2.2591836734693906 L -30.0857142857143,-2.486938775510208 L -30.60000000000002,-2.7000000000000024 L -31.11428571428573,-2.8983673469387785 L -31.628571428571444,-3.0820408163265336 L -32.14285714285715,-3.251020408163268 L -32.65714285714287,-3.4053061224489825 L -33.171428571428585,-3.544897959183678 L -33.6857142857143,-3.6697959183673508 L -34.20000000000002,-3.7800000000000034 L -34.71428571428573,-3.875510204081637 L -35.22857142857144,-3.956326530612248 L -35.742857142857154,-4.022448979591841 L -36.257142857142874,-4.073877551020411 L -36.77142857142859,-4.110612244897963 L -37.2857142857143,-4.132653061224493 L -37.80000000000001,-4.140000000000004 L -55.80000000000001,-4.140000000000004 L -55.80000000000001,-4.140000000000004 L -55.108800000000016,-3.420000000000003 L -54.44640000000001,-2.7000000000000024 L -53.81280000000001,-1.9800000000000018 L -53.208000000000006,-1.2600000000000011 L -52.632000000000005,-0.5400000000000005 L -52.08480000000001,0.17999999999999616 L -51.566400000000016,0.8999999999999968 L -51.07680000000001,1.6199999999999974 L -50.616000000000014,2.339999999999998 L -50.18400000000001,3.0599999999999987 L -49.780800000000006,3.7799999999999994 L -49.40640000000001,4.5 L -49.060800000000015,5.219999999999997 L -48.744000000000014,5.939999999999998 L -48.45600000000001,6.659999999999998 L -48.19680000000002,7.379999999999999 L -47.96640000000001,8.1 L -47.764800000000015,8.82 L -47.59200000000001,9.540000000000001 L -47.44800000000001,10.260000000000002 L -47.33280000000001,10.980000000000002 L -47.24640000000001,11.7 L -47.188800000000015,12.419999999999998 L -47.16000000000001,13.14 L -47.16000000000001,13.86 L -47.188800000000015,14.580000000000002 L -47.24640000000001,15.3 L -47.33280000000001,16.02 L -47.44800000000001,16.740000000000002 L -47.59200000000001,17.46 L -47.764800000000015,18.18 L -47.96640000000001,18.900000000000002 L -48.19680000000002,19.62 L -48.45600000000001,20.340000000000003 L -48.744000000000014,21.060000000000002 L -49.06080000000001,21.78 L -49.40640000000001,22.5 L -49.780800000000006,23.22 L -50.18400000000001,23.94 L -50.616000000000014,24.660000000000004 L -51.07680000000001,25.380000000000003 L -51.566400000000016,26.1 L -52.08480000000001,26.820000000000004 L -52.632000000000005,27.540000000000006 L -53.20800000000001,28.260000000000005 L -53.81280000000001,28.980000000000004 L -54.44640000000001,29.700000000000003 L -55.108800000000016,30.42 L -55.80000000000001,31.140000000000004" style="stroke:black;fill:none;stroke-width:2.0;stroke-linecap:round;stroke-linejoin:round;" /><path d="M -68.4,22.5 L -49.40640000000001,22.5" style="stroke:black;fill:none;stroke-width:2.0;stroke-linecap:round;stroke-linejoin:round;" /><path d="M -68.4,4.5 L -49.40640000000001,4.5" style="stroke:black;fill:none;stroke-width:2.0;stroke-linecap:round;stroke-linejoin:round;" /><path d="M -3.9600000000000035,13.5 L 0.0,13.5" style="stroke:black;fill:none;stroke-width:2.0;stroke-linecap:round;stroke-linejoin:round;" /><text x="3.600000000000003" y="7.9" fill="black" font-size="14.0" font-family="sans" text-anchor="start"><tspan x="3.600000000000003" dy="14.0">\text{Output}</tspan></text><text x="-72.00000000000001" y="-1.0999999999999996" fill="black" font-size="14.0" font-family="sans" text-anchor="end"><tspan x="-72.00000000000001" dy="14.0">b</tspan></text><text x="-72.00000000000001" y="16.9" fill="black" font-size="14.0" font-family="sans" text-anchor="end"><tspan x="-72.00000000000001" dy="14.0">b</tspan></text></svg>