<?xml version="1.0" encoding="utf-8" standalone="no"?>
<!DOCTYPE svg PUBLIC "-//W3C//DTD SVG 1.1//EN"
  "http://www.w3.org/Graphics/SVG/1.1/DTD/svg11.dtd">
<svg xmlns:xlink="http://www.w3.org/1999/xlink" width="250.44pt" height="85.5pt" viewBox="0 0 250.44 85.5" xmlns="http://www.w3.org/2000/svg" version="1.1">
 <metadata>
  <rdf:RDF xmlns:dc="http://purl.org/dc/elements/1.1/" xmlns:cc="http://creativecommons.org/ns#" xmlns:rdf="http://www.w3.org/1999/02/22-rdf-syntax-ns#">
   <cc:Work>
    <dc:type rdf:resource="http://purl.org/dc/dcmitype/StillImage"/>
    <dc:date>2024-10-10T23:13:54.196530</dc:date>
    <dc:format>image/svg+xml</dc:format>
    <dc:creator>
     <cc:Agent>
      <dc:title>Matplotlib v3.9.0, https://matplotlib.org/</dc:title>
     </cc:Agent>
    </dc:creator>
   </cc:Work>
  </rdf:RDF>
 </metadata>
 <defs>
  <style type="text/css">*{stroke-linejoin: round; stroke-linecap: butt}</style>
 </defs>
 <g id="figure_1">
  <g id="patch_1">
   <path d="M 0 85.5 
L 250.44 85.5 
L 250.44 0 
L 0 0 
L 0 85.5 
z
" style="fill: none"/>
  </g>
  <g id="axes_1">
   <g id="patch_2">
    <path d="M 79.98 26.64 
C 81.125677 26.64 82.224585 26.184818 83.034701 25.374701 
C 83.844818 24.564585 84.3 23.465677 84.3 22.32 
C 84.3 21.174323 83.844818 20.075415 83.034701 19.265299 
C 82.224585 18.455182 81.125677 18 79.98 18 
C 78.834323 18 77.735415 18.455182 76.925299 19.265299 
C 76.115182 20.075415 75.66 21.174323 75.66 22.32 
C 75.66 23.465677 76.115182 24.564585 76.925299 25.374701 
C 77.735415 26.184818 78.834323 26.64 79.98 26.64 
L 79.98 26.64 
z
" clip-path="url(#p683c39af16)" style="fill: none; stroke: #000000; stroke-width: 2; stroke-linejoin: miter"/>
   </g>
   <g id="patch_3">
    <path d="M 63.96 67.14 
C 65.105677 67.14 66.204585 66.684818 67.014701 65.874701 
C 67.824818 65.064585 68.28 63.965677 68.28 62.82 
C 68.28 61.674323 67.824818 60.575415 67.014701 59.765299 
C 66.204585 58.955182 65.105677 58.5 63.96 58.5 
C 62.814323 58.5 61.715415 58.955182 60.905299 59.765299 
C 60.095182 60.575415 59.64 61.674323 59.64 62.82 
C 59.64 63.965677 60.095182 65.064585 60.905299 65.874701 
C 61.715415 66.684818 62.814323 67.14 63.96 67.14 
L 63.96 67.14 
z
" clip-path="url(#p683c39af16)" style="fill: none; stroke: #000000; stroke-width: 2; stroke-linejoin: miter"/>
   </g>
   <g id="line2d_1">
    <path d="M 129.66 60.57 
L 130.813264 60.533017 
L 131.961789 60.42222 
L 133.100855 60.238065 
L 134.225783 59.981308 
L 135.331948 59.653003 
L 136.414806 59.254502 
L 137.469907 58.78744 
L 138.492916 58.253737 
L 139.479628 57.655586 
L 140.42599 56.995445 
L 141.328111 56.276027 
L 142.182286 55.500288 
L 142.985004 54.671416 
L 143.732967 53.792816 
L 144.423101 52.8681 
L 145.05257 51.901066 
L 145.618788 50.895689 
L 146.119427 49.8561 
L 146.552432 48.786571 
L 146.916021 47.691497 
L 147.208702 46.575377 
L 147.429272 45.442798 
L 147.576824 44.298414 
L 147.650752 43.146928 
L 147.650752 41.993072 
L 147.576824 40.841586 
L 147.429272 39.697202 
L 147.208702 38.564623 
L 146.916021 37.448503 
L 146.552432 36.353429 
L 146.119427 35.2839 
L 145.618788 34.244311 
L 145.05257 33.238934 
L 144.423101 32.2719 
L 143.732967 31.347184 
L 142.985004 30.468584 
L 142.182286 29.639712 
L 141.328111 28.863973 
L 140.42599 28.144555 
L 139.479628 27.484414 
L 138.492916 26.886263 
L 137.469907 26.35256 
L 136.414806 25.885498 
L 135.331948 25.486997 
L 134.225783 25.158692 
L 133.100855 24.901935 
L 131.961789 24.71778 
L 130.813264 24.606983 
L 129.66 24.57 
L 129.66 24.57 
L 106.26 24.57 
L 106.26 42.57 
L 106.26 60.57 
L 129.66 60.57 
" clip-path="url(#p683c39af16)" style="fill: none; stroke: #000000; stroke-width: 2; stroke-linecap: round"/>
   </g>
   <g id="line2d_2">
    <path d="M 93.66 51.57 
L 106.26 51.57 
" clip-path="url(#p683c39af16)" style="fill: none; stroke: #000000; stroke-width: 2; stroke-linecap: round"/>
   </g>
   <g id="line2d_3">
    <path d="M 93.66 33.57 
L 106.26 33.57 
" clip-path="url(#p683c39af16)" style="fill: none; stroke: #000000; stroke-width: 2; stroke-linecap: round"/>
   </g>
   <g id="line2d_4">
    <path d="M 147.66 42.57 
L 160.26 42.57 
" clip-path="url(#p683c39af16)" style="fill: none; stroke: #000000; stroke-width: 2; stroke-linecap: round"/>
   </g>
   <g id="line2d_5">
    <path d="M 32.46 39.96 
L 52.002857 39.893878 
L 54.06 39.6 
L 56.117143 39.07102 
L 58.174286 38.306939 
L 60.231429 37.307755 
L 62.288571 36.073469 
L 64.345714 34.604082 
L 66.402857 32.899592 
L 68.974286 30.438367 
L 71.545714 27.609796 
L 74.117143 24.413878 
L 75.66 22.32 
L 75.66 22.32 
L 73.088571 18.903673 
L 70.517143 15.854694 
L 67.945714 13.173061 
L 65.374286 10.858776 
L 63.317143 9.271837 
L 61.26 7.92 
L 59.202857 6.803265 
L 57.145714 5.921633 
L 55.088571 5.275102 
L 53.031429 4.863673 
L 50.974286 4.687347 
L 50.46 4.68 
L 32.46 4.68 
L 32.46 4.68 
L 34.4472 6.84 
L 36.1752 9 
L 37.644 11.16 
L 38.8536 13.32 
L 39.804 15.48 
L 40.4952 17.64 
L 40.9272 19.8 
L 41.1 21.96 
L 41.0136 24.12 
L 40.668 26.28 
L 40.0632 28.44 
L 39.1992 30.6 
L 38.076 32.76 
L 36.6936 34.92 
L 35.052 37.08 
L 33.1512 39.24 
L 32.46 39.96 
L 32.46 39.96 
" clip-path="url(#p683c39af16)" style="fill: none; stroke: #000000; stroke-width: 2; stroke-linecap: round"/>
   </g>
   <g id="line2d_6">
    <path d="M 19.86 31.32 
L 38.8536 31.32 
" clip-path="url(#p683c39af16)" style="fill: none; stroke: #000000; stroke-width: 2; stroke-linecap: round"/>
   </g>
   <g id="line2d_7">
    <path d="M 19.86 13.32 
L 38.8536 13.32 
" clip-path="url(#p683c39af16)" style="fill: none; stroke: #000000; stroke-width: 2; stroke-linecap: round"/>
   </g>
   <g id="line2d_8">
    <path d="M 84.3 22.32 
L 88.26 22.32 
" clip-path="url(#p683c39af16)" style="fill: none; stroke: #000000; stroke-width: 2; stroke-linecap: round"/>
   </g>
   <g id="line2d_9">
    <path d="M 93.66 33.57 
L 88.26 33.57 
L 88.26 22.32 
" clip-path="url(#p683c39af16)" style="fill: none; stroke: #000000; stroke-width: 2; stroke-linecap: round"/>
   </g>
   <g id="line2d_10">
    <path d="M 16.26 62.82 
L 36.24 62.82 
M 68.28 62.82 
L 88.26 62.82 
" clip-path="url(#p683c39af16)" style="fill: none; stroke: #000000; stroke-width: 2; stroke-linecap: round"/>
   </g>
   <g id="line2d_11">
    <path d="M 36.24 44.82 
L 59.64 62.82 
L 36.24 80.82 
L 36.24 44.82 
" clip-path="url(#p683c39af16)" style="fill: none; stroke: #000000; stroke-width: 2; stroke-linecap: round"/>
   </g>
   <g id="line2d_12">
    <path d="M 93.66 51.57 
L 88.26 51.57 
L 88.26 62.82 
" clip-path="url(#p683c39af16)" style="fill: none; stroke: #000000; stroke-width: 2; stroke-linecap: round"/>
   </g>
   <g id="text_1">
    <!-- $\text{Output}$ -->
    <g transform="translate(163.86 46.404688) scale(0.14 -0.14)">
     <defs>
      <path id="DejaVuSans-4f" d="M 2522 4238 
Q 1834 4238 1429 3725 
Q 1025 3213 1025 2328 
Q 1025 1447 1429 934 
Q 1834 422 2522 422 
Q 3209 422 3611 934 
Q 4013 1447 4013 2328 
Q 4013 3213 3611 3725 
Q 3209 4238 2522 4238 
z
M 2522 4750 
Q 3503 4750 4090 4092 
Q 4678 3434 4678 2328 
Q 4678 1225 4090 567 
Q 3503 -91 2522 -91 
Q 1538 -91 948 565 
Q 359 1222 359 2328 
Q 359 3434 948 4092 
Q 1538 4750 2522 4750 
z
" transform="scale(0.015625)"/>
      <path id="DejaVuSans-75" d="M 544 1381 
L 544 3500 
L 1119 3500 
L 1119 1403 
Q 1119 906 1312 657 
Q 1506 409 1894 409 
Q 2359 409 2629 706 
Q 2900 1003 2900 1516 
L 2900 3500 
L 3475 3500 
L 3475 0 
L 2900 0 
L 2900 538 
Q 2691 219 2414 64 
Q 2138 -91 1772 -91 
Q 1169 -91 856 284 
Q 544 659 544 1381 
z
M 1991 3584 
L 1991 3584 
z
" transform="scale(0.015625)"/>
      <path id="DejaVuSans-74" d="M 1172 4494 
L 1172 3500 
L 2356 3500 
L 2356 3053 
L 1172 3053 
L 1172 1153 
Q 1172 725 1289 603 
Q 1406 481 1766 481 
L 2356 481 
L 2356 0 
L 1766 0 
Q 1100 0 847 248 
Q 594 497 594 1153 
L 594 3053 
L 172 3053 
L 172 3500 
L 594 3500 
L 594 4494 
L 1172 4494 
z
" transform="scale(0.015625)"/>
      <path id="DejaVuSans-70" d="M 1159 525 
L 1159 -1331 
L 581 -1331 
L 581 3500 
L 1159 3500 
L 1159 2969 
Q 1341 3281 1617 3432 
Q 1894 3584 2278 3584 
Q 2916 3584 3314 3078 
Q 3713 2572 3713 1747 
Q 3713 922 3314 415 
Q 2916 -91 2278 -91 
Q 1894 -91 1617 61 
Q 1341 213 1159 525 
z
M 3116 1747 
Q 3116 2381 2855 2742 
Q 2594 3103 2138 3103 
Q 1681 3103 1420 2742 
Q 1159 2381 1159 1747 
Q 1159 1113 1420 752 
Q 1681 391 2138 391 
Q 2594 391 2855 752 
Q 3116 1113 3116 1747 
z
" transform="scale(0.015625)"/>
     </defs>
     <use xlink:href="#DejaVuSans-4f" transform="translate(0 0.78125)"/>
     <use xlink:href="#DejaVuSans-75" transform="translate(78.710938 0.78125)"/>
     <use xlink:href="#DejaVuSans-74" transform="translate(142.089844 0.78125)"/>
     <use xlink:href="#DejaVuSans-70" transform="translate(181.298828 0.78125)"/>
     <use xlink:href="#DejaVuSans-75" transform="translate(244.775391 0.78125)"/>
     <use xlink:href="#DejaVuSans-74" transform="translate(308.154297 0.78125)"/>
    </g>
   </g>
   <g id="text_2">
    <!-- a -->
    <g transform="translate(7.680625 17.183125) scale(0.14 -0.14)">
     <defs>
      <path id="DejaVuSans-61" d="M 2194 1759 
Q 1497 1759 1228 1600 
Q 959 1441 959 1056 
Q 959 750 1161 570 
Q 1363 391 1709 391 
Q 2188 391 2477 730 
Q 2766 1069 2766 1631 
L 2766 1759 
L 2194 1759 
z
M 3341 1997 
L 3341 0 
L 2766 0 
L 2766 531 
Q 2569 213 2275 61 
Q 1981 -91 1556 -91 
Q 1019 -91 701 211 
Q 384 513 384 1019 
Q 384 1609 779 1909 
Q 1175 2209 1959 2209 
L 2766 2209 
L 2766 2266 
Q 2766 2663 2505 2880 
Q 2244 3097 1772 3097 
Q 1472 3097 1187 3025 
Q 903 2953 641 2809 
L 641 3341 
Q 956 3463 1253 3523 
Q 1550 3584 1831 3584 
Q 2591 3584 2966 3190 
Q 3341 2797 3341 1997 
z
" transform="scale(0.015625)"/>
     </defs>
     <use xlink:href="#DejaVuSans-61"/>
    </g>
   </g>
   <g id="text_3">
    <!-- a -->
    <g transform="translate(7.680625 35.183125) scale(0.14 -0.14)">
     <use xlink:href="#DejaVuSans-61"/>
    </g>
   </g>
   <g id="text_4">
    <!-- a -->
    <g transform="translate(4.080625 66.683125) scale(0.14 -0.14)">
     <use xlink:href="#DejaVuSans-61"/>
    </g>
   </g>
  </g>
 </g>
 <defs>
  <clipPath id="p683c39af16">
   <rect x="0" y="0" width="250.44" height="85.5"/>
  </clipPath>
 </defs>
</svg>
