<?xml version="1.0" encoding="utf-8" standalone="no"?>
<!DOCTYPE svg PUBLIC "-//W3C//DTD SVG 1.1//EN"
  "http://www.w3.org/Graphics/SVG/1.1/DTD/svg11.dtd">
<svg xmlns:xlink="http://www.w3.org/1999/xlink" width="322.44pt" height="112.86pt" viewBox="0 0 322.44 112.86" xmlns="http://www.w3.org/2000/svg" version="1.1">
 <metadata>
  <rdf:RDF xmlns:dc="http://purl.org/dc/elements/1.1/" xmlns:cc="http://creativecommons.org/ns#" xmlns:rdf="http://www.w3.org/1999/02/22-rdf-syntax-ns#">
   <cc:Work>
    <dc:type rdf:resource="http://purl.org/dc/dcmitype/StillImage"/>
    <dc:date>2024-10-01T14:33:08.808313</dc:date>
    <dc:format>image/svg+xml</dc:format>
    <dc:creator>
     <cc:Agent>
      <dc:title>Matplotlib v3.9.0, https://matplotlib.org/</dc:title>
     </cc:Agent>
    </dc:creator>
   </cc:Work>
  </rdf:RDF>
 </metadata>
 <defs>
  <style type="text/css">*{stroke-linejoin: round; stroke-linecap: butt}</style>
 </defs>
 <g id="figure_1">
  <g id="patch_1">
   <path d="M 0 112.86 
L 322.44 112.86 
L 322.44 0 
L 0 0 
L 0 112.86 
z
" style="fill: none"/>
  </g>
  <g id="axes_1">
   <g id="patch_2">
    <path d="M 223.98 67.5 
C 225.125677 67.5 226.224585 67.044818 227.034701 66.234701 
C 227.844818 65.424585 228.3 64.325677 228.3 63.18 
C 228.3 62.034323 227.844818 60.935415 227.034701 60.125299 
C 226.224585 59.315182 225.125677 58.86 223.98 58.86 
C 222.834323 58.86 221.735415 59.315182 220.925299 60.125299 
C 220.115182 60.935415 219.66 62.034323 219.66 63.18 
C 219.66 64.325677 220.115182 65.424585 220.925299 66.234701 
C 221.735415 67.044818 222.834323 67.5 223.98 67.5 
L 223.98 67.5 
z
" clip-path="url(#pdbc35932aa)" style="fill: none; stroke: #000000; stroke-width: 2; stroke-linejoin: miter"/>
   </g>
   <g id="patch_3">
    <path d="M 151.98 40.5 
C 153.125677 40.5 154.224585 40.044818 155.034701 39.234701 
C 155.844818 38.424585 156.3 37.325677 156.3 36.18 
C 156.3 35.034323 155.844818 33.935415 155.034701 33.125299 
C 154.224585 32.315182 153.125677 31.86 151.98 31.86 
C 150.834323 31.86 149.735415 32.315182 148.925299 33.125299 
C 148.115182 33.935415 147.66 35.034323 147.66 36.18 
C 147.66 37.325677 148.115182 38.424585 148.925299 39.234701 
C 149.735415 40.044818 150.834323 40.5 151.98 40.5 
L 151.98 40.5 
z
" clip-path="url(#pdbc35932aa)" style="fill: none; stroke: #000000; stroke-width: 2; stroke-linejoin: miter"/>
   </g>
   <g id="patch_4">
    <path d="M 63.96 27 
C 65.105677 27 66.204585 26.544818 67.014701 25.734701 
C 67.824818 24.924585 68.28 23.825677 68.28 22.68 
C 68.28 21.534323 67.824818 20.435415 67.014701 19.625299 
C 66.204585 18.815182 65.105677 18.36 63.96 18.36 
C 62.814323 18.36 61.715415 18.815182 60.905299 19.625299 
C 60.095182 20.435415 59.64 21.534323 59.64 22.68 
C 59.64 23.825677 60.095182 24.924585 60.905299 25.734701 
C 61.715415 26.544818 62.814323 27 63.96 27 
L 63.96 27 
z
" clip-path="url(#pdbc35932aa)" style="fill: none; stroke: #000000; stroke-width: 2; stroke-linejoin: miter"/>
   </g>
   <g id="patch_5">
    <path d="M 63.96 54 
C 65.105677 54 66.204585 53.544818 67.014701 52.734701 
C 67.824818 51.924585 68.28 50.825677 68.28 49.68 
C 68.28 48.534323 67.824818 47.435415 67.014701 46.625299 
C 66.204585 45.815182 65.105677 45.36 63.96 45.36 
C 62.814323 45.36 61.715415 45.815182 60.905299 46.625299 
C 60.095182 47.435415 59.64 48.534323 59.64 49.68 
C 59.64 50.825677 60.095182 51.924585 60.905299 52.734701 
C 61.715415 53.544818 62.814323 54 63.96 54 
L 63.96 54 
z
" clip-path="url(#pdbc35932aa)" style="fill: none; stroke: #000000; stroke-width: 2; stroke-linejoin: miter"/>
   </g>
   <g id="patch_6">
    <path d="M 151.98 94.5 
C 153.125677 94.5 154.224585 94.044818 155.034701 93.234701 
C 155.844818 92.424585 156.3 91.325677 156.3 90.18 
C 156.3 89.034323 155.844818 87.935415 155.034701 87.125299 
C 154.224585 86.315182 153.125677 85.86 151.98 85.86 
C 150.834323 85.86 149.735415 86.315182 148.925299 87.125299 
C 148.115182 87.935415 147.66 89.034323 147.66 90.18 
C 147.66 91.325677 148.115182 92.424585 148.925299 93.234701 
C 149.735415 94.044818 150.834323 94.5 151.98 94.5 
L 151.98 94.5 
z
" clip-path="url(#pdbc35932aa)" style="fill: none; stroke: #000000; stroke-width: 2; stroke-linejoin: miter"/>
   </g>
   <g id="line2d_1">
    <path d="M 176.46 80.82 
L 196.002857 80.753878 
L 198.06 80.46 
L 200.117143 79.93102 
L 202.174286 79.166939 
L 204.231429 78.167755 
L 206.288571 76.933469 
L 208.345714 75.464082 
L 210.402857 73.759592 
L 212.974286 71.298367 
L 215.545714 68.469796 
L 218.117143 65.273878 
L 219.66 63.18 
L 219.66 63.18 
L 217.088571 59.763673 
L 214.517143 56.714694 
L 211.945714 54.033061 
L 209.374286 51.718776 
L 207.317143 50.131837 
L 205.26 48.78 
L 203.202857 47.663265 
L 201.145714 46.781633 
L 199.088571 46.135102 
L 197.031429 45.723673 
L 194.974286 45.547347 
L 194.46 45.54 
L 176.46 45.54 
L 176.46 45.54 
L 178.4472 47.7 
L 180.1752 49.86 
L 181.644 52.02 
L 182.8536 54.18 
L 183.804 56.34 
L 184.4952 58.5 
L 184.9272 60.66 
L 185.1 62.82 
L 185.0136 64.98 
L 184.668 67.14 
L 184.0632 69.3 
L 183.1992 71.46 
L 182.076 73.62 
L 180.6936 75.78 
L 179.052 77.94 
L 177.1512 80.1 
L 176.46 80.82 
L 176.46 80.82 
" clip-path="url(#pdbc35932aa)" style="fill: none; stroke: #000000; stroke-width: 2; stroke-linecap: round"/>
   </g>
   <g id="line2d_2">
    <path d="M 171.06 80.82 
L 171.7512 80.1 
L 172.4136 79.38 
L 173.0472 78.66 
L 173.652 77.94 
L 174.228 77.22 
L 174.7752 76.5 
L 175.2936 75.78 
L 175.7832 75.06 
L 176.244 74.34 
L 176.676 73.62 
L 177.0792 72.9 
L 177.4536 72.18 
L 177.7992 71.46 
L 178.116 70.74 
L 178.404 70.02 
L 178.6632 69.3 
L 178.8936 68.58 
L 179.0952 67.86 
L 179.268 67.14 
L 179.412 66.42 
L 179.5272 65.7 
L 179.6136 64.98 
L 179.6712 64.26 
L 179.7 63.54 
L 179.7 62.82 
L 179.6712 62.1 
L 179.6136 61.38 
L 179.5272 60.66 
L 179.412 59.94 
L 179.268 59.22 
L 179.0952 58.5 
L 178.8936 57.78 
L 178.6632 57.06 
L 178.404 56.34 
L 178.116 55.62 
L 177.7992 54.9 
L 177.4536 54.18 
L 177.0792 53.46 
L 176.676 52.74 
L 176.244 52.02 
L 175.7832 51.3 
L 175.2936 50.58 
L 174.7752 49.86 
L 174.228 49.14 
L 173.652 48.42 
L 173.0472 47.7 
L 172.4136 46.98 
L 171.7512 46.26 
L 171.06 45.54 
" clip-path="url(#pdbc35932aa)" style="fill: none; stroke: #000000; stroke-width: 2; stroke-linecap: round"/>
   </g>
   <g id="line2d_3">
    <path d="M 163.86 72.18 
L 177.4536 72.18 
" clip-path="url(#pdbc35932aa)" style="fill: none; stroke: #000000; stroke-width: 2; stroke-linecap: round"/>
   </g>
   <g id="line2d_4">
    <path d="M 163.86 54.18 
L 177.4536 54.18 
" clip-path="url(#pdbc35932aa)" style="fill: none; stroke: #000000; stroke-width: 2; stroke-linecap: round"/>
   </g>
   <g id="line2d_5">
    <path d="M 228.3 63.18 
L 232.26 63.18 
" clip-path="url(#pdbc35932aa)" style="fill: none; stroke: #000000; stroke-width: 2; stroke-linecap: round"/>
   </g>
   <g id="line2d_6">
    <path d="M 104.46 53.82 
L 124.002857 53.753878 
L 126.06 53.46 
L 128.117143 52.93102 
L 130.174286 52.166939 
L 132.231429 51.167755 
L 134.288571 49.933469 
L 136.345714 48.464082 
L 138.402857 46.759592 
L 140.974286 44.298367 
L 143.545714 41.469796 
L 146.117143 38.273878 
L 147.66 36.18 
L 147.66 36.18 
L 145.088571 32.763673 
L 142.517143 29.714694 
L 139.945714 27.033061 
L 137.374286 24.718776 
L 135.317143 23.131837 
L 133.26 21.78 
L 131.202857 20.663265 
L 129.145714 19.781633 
L 127.088571 19.135102 
L 125.031429 18.723673 
L 122.974286 18.547347 
L 122.46 18.54 
L 104.46 18.54 
L 104.46 18.54 
L 106.4472 20.7 
L 108.1752 22.86 
L 109.644 25.02 
L 110.8536 27.18 
L 111.804 29.34 
L 112.4952 31.5 
L 112.9272 33.66 
L 113.1 35.82 
L 113.0136 37.98 
L 112.668 40.14 
L 112.0632 42.3 
L 111.1992 44.46 
L 110.076 46.62 
L 108.6936 48.78 
L 107.052 50.94 
L 105.1512 53.1 
L 104.46 53.82 
L 104.46 53.82 
" clip-path="url(#pdbc35932aa)" style="fill: none; stroke: #000000; stroke-width: 2; stroke-linecap: round"/>
   </g>
   <g id="line2d_7">
    <path d="M 91.86 45.18 
L 110.8536 45.18 
" clip-path="url(#pdbc35932aa)" style="fill: none; stroke: #000000; stroke-width: 2; stroke-linecap: round"/>
   </g>
   <g id="line2d_8">
    <path d="M 91.86 27.18 
L 110.8536 27.18 
" clip-path="url(#pdbc35932aa)" style="fill: none; stroke: #000000; stroke-width: 2; stroke-linecap: round"/>
   </g>
   <g id="line2d_9">
    <path d="M 156.3 36.18 
L 160.26 36.18 
" clip-path="url(#pdbc35932aa)" style="fill: none; stroke: #000000; stroke-width: 2; stroke-linecap: round"/>
   </g>
   <g id="line2d_10">
    <path d="M 16.26 22.68 
L 36.24 22.68 
M 68.28 22.68 
L 88.26 22.68 
" clip-path="url(#pdbc35932aa)" style="fill: none; stroke: #000000; stroke-width: 2; stroke-linecap: round"/>
   </g>
   <g id="line2d_11">
    <path d="M 36.24 4.68 
L 59.64 22.68 
L 36.24 40.68 
L 36.24 4.68 
" clip-path="url(#pdbc35932aa)" style="fill: none; stroke: #000000; stroke-width: 2; stroke-linecap: round"/>
   </g>
   <g id="line2d_12">
    <path d="M 91.86 27.18 
L 88.26 27.18 
L 88.26 22.68 
" clip-path="url(#pdbc35932aa)" style="fill: none; stroke: #000000; stroke-width: 2; stroke-linecap: round"/>
   </g>
   <g id="line2d_13">
    <path d="M 16.26 49.68 
L 36.24 49.68 
M 68.28 49.68 
L 88.26 49.68 
" clip-path="url(#pdbc35932aa)" style="fill: none; stroke: #000000; stroke-width: 2; stroke-linecap: round"/>
   </g>
   <g id="line2d_14">
    <path d="M 36.24 31.68 
L 59.64 49.68 
L 36.24 67.68 
L 36.24 31.68 
" clip-path="url(#pdbc35932aa)" style="fill: none; stroke: #000000; stroke-width: 2; stroke-linecap: round"/>
   </g>
   <g id="line2d_15">
    <path d="M 91.86 45.18 
L 88.26 45.18 
L 88.26 49.68 
" clip-path="url(#pdbc35932aa)" style="fill: none; stroke: #000000; stroke-width: 2; stroke-linecap: round"/>
   </g>
   <g id="line2d_16">
    <path d="M 163.86 54.18 
L 160.26 54.18 
L 160.26 36.18 
" clip-path="url(#pdbc35932aa)" style="fill: none; stroke: #000000; stroke-width: 2; stroke-linecap: round"/>
   </g>
   <g id="line2d_17">
    <path d="M 129.66 108.18 
L 130.813264 108.143017 
L 131.961789 108.03222 
L 133.100855 107.848065 
L 134.225783 107.591308 
L 135.331948 107.263003 
L 136.414806 106.864502 
L 137.469907 106.39744 
L 138.492916 105.863737 
L 139.479628 105.265586 
L 140.42599 104.605445 
L 141.328111 103.886027 
L 142.182286 103.110288 
L 142.985004 102.281416 
L 143.732967 101.402816 
L 144.423101 100.4781 
L 145.05257 99.511066 
L 145.618788 98.505689 
L 146.119427 97.4661 
L 146.552432 96.396571 
L 146.916021 95.301497 
L 147.208702 94.185377 
L 147.429272 93.052798 
L 147.576824 91.908414 
L 147.650752 90.756928 
L 147.650752 89.603072 
L 147.576824 88.451586 
L 147.429272 87.307202 
L 147.208702 86.174623 
L 146.916021 85.058503 
L 146.552432 83.963429 
L 146.119427 82.8939 
L 145.618788 81.854311 
L 145.05257 80.848934 
L 144.423101 79.8819 
L 143.732967 78.957184 
L 142.985004 78.078584 
L 142.182286 77.249712 
L 141.328111 76.473973 
L 140.42599 75.754555 
L 139.479628 75.094414 
L 138.492916 74.496263 
L 137.469907 73.96256 
L 136.414806 73.495498 
L 135.331948 73.096997 
L 134.225783 72.768692 
L 133.100855 72.511935 
L 131.961789 72.32778 
L 130.813264 72.216983 
L 129.66 72.18 
L 129.66 72.18 
L 106.26 72.18 
L 106.26 90.18 
L 106.26 108.18 
L 129.66 108.18 
" clip-path="url(#pdbc35932aa)" style="fill: none; stroke: #000000; stroke-width: 2; stroke-linecap: round"/>
   </g>
   <g id="line2d_18">
    <path d="M 93.66 99.18 
L 106.26 99.18 
" clip-path="url(#pdbc35932aa)" style="fill: none; stroke: #000000; stroke-width: 2; stroke-linecap: round"/>
   </g>
   <g id="line2d_19">
    <path d="M 93.66 81.18 
L 106.26 81.18 
" clip-path="url(#pdbc35932aa)" style="fill: none; stroke: #000000; stroke-width: 2; stroke-linecap: round"/>
   </g>
   <g id="line2d_20">
    <path d="M 156.3 90.18 
L 160.26 90.18 
" clip-path="url(#pdbc35932aa)" style="fill: none; stroke: #000000; stroke-width: 2; stroke-linecap: round"/>
   </g>
   <g id="line2d_21">
    <path d="M 163.86 72.18 
L 160.26 72.18 
L 160.26 90.18 
" clip-path="url(#pdbc35932aa)" style="fill: none; stroke: #000000; stroke-width: 2; stroke-linecap: round"/>
   </g>
   <g id="text_1">
    <!-- $\text{Output}$ -->
    <g transform="translate(235.86 67.014687) scale(0.14 -0.14)">
     <defs>
      <path id="DejaVuSans-4f" d="M 2522 4238 
Q 1834 4238 1429 3725 
Q 1025 3213 1025 2328 
Q 1025 1447 1429 934 
Q 1834 422 2522 422 
Q 3209 422 3611 934 
Q 4013 1447 4013 2328 
Q 4013 3213 3611 3725 
Q 3209 4238 2522 4238 
z
M 2522 4750 
Q 3503 4750 4090 4092 
Q 4678 3434 4678 2328 
Q 4678 1225 4090 567 
Q 3503 -91 2522 -91 
Q 1538 -91 948 565 
Q 359 1222 359 2328 
Q 359 3434 948 4092 
Q 1538 4750 2522 4750 
z
" transform="scale(0.015625)"/>
      <path id="DejaVuSans-75" d="M 544 1381 
L 544 3500 
L 1119 3500 
L 1119 1403 
Q 1119 906 1312 657 
Q 1506 409 1894 409 
Q 2359 409 2629 706 
Q 2900 1003 2900 1516 
L 2900 3500 
L 3475 3500 
L 3475 0 
L 2900 0 
L 2900 538 
Q 2691 219 2414 64 
Q 2138 -91 1772 -91 
Q 1169 -91 856 284 
Q 544 659 544 1381 
z
M 1991 3584 
L 1991 3584 
z
" transform="scale(0.015625)"/>
      <path id="DejaVuSans-74" d="M 1172 4494 
L 1172 3500 
L 2356 3500 
L 2356 3053 
L 1172 3053 
L 1172 1153 
Q 1172 725 1289 603 
Q 1406 481 1766 481 
L 2356 481 
L 2356 0 
L 1766 0 
Q 1100 0 847 248 
Q 594 497 594 1153 
L 594 3053 
L 172 3053 
L 172 3500 
L 594 3500 
L 594 4494 
L 1172 4494 
z
" transform="scale(0.015625)"/>
      <path id="DejaVuSans-70" d="M 1159 525 
L 1159 -1331 
L 581 -1331 
L 581 3500 
L 1159 3500 
L 1159 2969 
Q 1341 3281 1617 3432 
Q 1894 3584 2278 3584 
Q 2916 3584 3314 3078 
Q 3713 2572 3713 1747 
Q 3713 922 3314 415 
Q 2916 -91 2278 -91 
Q 1894 -91 1617 61 
Q 1341 213 1159 525 
z
M 3116 1747 
Q 3116 2381 2855 2742 
Q 2594 3103 2138 3103 
Q 1681 3103 1420 2742 
Q 1159 2381 1159 1747 
Q 1159 1113 1420 752 
Q 1681 391 2138 391 
Q 2594 391 2855 752 
Q 3116 1113 3116 1747 
z
" transform="scale(0.015625)"/>
     </defs>
     <use xlink:href="#DejaVuSans-4f" transform="translate(0 0.78125)"/>
     <use xlink:href="#DejaVuSans-75" transform="translate(78.710938 0.78125)"/>
     <use xlink:href="#DejaVuSans-74" transform="translate(142.089844 0.78125)"/>
     <use xlink:href="#DejaVuSans-70" transform="translate(181.298828 0.78125)"/>
     <use xlink:href="#DejaVuSans-75" transform="translate(244.775391 0.78125)"/>
     <use xlink:href="#DejaVuSans-74" transform="translate(308.154297 0.78125)"/>
    </g>
   </g>
   <g id="text_2">
    <!-- a -->
    <g transform="translate(4.080625 26.543125) scale(0.14 -0.14)">
     <defs>
      <path id="DejaVuSans-61" d="M 2194 1759 
Q 1497 1759 1228 1600 
Q 959 1441 959 1056 
Q 959 750 1161 570 
Q 1363 391 1709 391 
Q 2188 391 2477 730 
Q 2766 1069 2766 1631 
L 2766 1759 
L 2194 1759 
z
M 3341 1997 
L 3341 0 
L 2766 0 
L 2766 531 
Q 2569 213 2275 61 
Q 1981 -91 1556 -91 
Q 1019 -91 701 211 
Q 384 513 384 1019 
Q 384 1609 779 1909 
Q 1175 2209 1959 2209 
L 2766 2209 
L 2766 2266 
Q 2766 2663 2505 2880 
Q 2244 3097 1772 3097 
Q 1472 3097 1187 3025 
Q 903 2953 641 2809 
L 641 3341 
Q 956 3463 1253 3523 
Q 1550 3584 1831 3584 
Q 2591 3584 2966 3190 
Q 3341 2797 3341 1997 
z
" transform="scale(0.015625)"/>
     </defs>
     <use xlink:href="#DejaVuSans-61"/>
    </g>
   </g>
   <g id="text_3">
    <!-- e -->
    <g transform="translate(4.045625 53.543125) scale(0.14 -0.14)">
     <defs>
      <path id="DejaVuSans-65" d="M 3597 1894 
L 3597 1613 
L 953 1613 
Q 991 1019 1311 708 
Q 1631 397 2203 397 
Q 2534 397 2845 478 
Q 3156 559 3463 722 
L 3463 178 
Q 3153 47 2828 -22 
Q 2503 -91 2169 -91 
Q 1331 -91 842 396 
Q 353 884 353 1716 
Q 353 2575 817 3079 
Q 1281 3584 2069 3584 
Q 2775 3584 3186 3129 
Q 3597 2675 3597 1894 
z
M 3022 2063 
Q 3016 2534 2758 2815 
Q 2500 3097 2075 3097 
Q 1594 3097 1305 2825 
Q 1016 2553 972 2059 
L 3022 2063 
z
" transform="scale(0.015625)"/>
     </defs>
     <use xlink:href="#DejaVuSans-65"/>
    </g>
   </g>
   <g id="text_4">
    <!-- a -->
    <g transform="translate(81.480625 85.043125) scale(0.14 -0.14)">
     <use xlink:href="#DejaVuSans-61"/>
    </g>
   </g>
   <g id="text_5">
    <!-- c -->
    <g transform="translate(82.362187 103.043125) scale(0.14 -0.14)">
     <defs>
      <path id="DejaVuSans-63" d="M 3122 3366 
L 3122 2828 
Q 2878 2963 2633 3030 
Q 2388 3097 2138 3097 
Q 1578 3097 1268 2742 
Q 959 2388 959 1747 
Q 959 1106 1268 751 
Q 1578 397 2138 397 
Q 2388 397 2633 464 
Q 2878 531 3122 666 
L 3122 134 
Q 2881 22 2623 -34 
Q 2366 -91 2075 -91 
Q 1284 -91 818 406 
Q 353 903 353 1747 
Q 353 2603 823 3093 
Q 1294 3584 2113 3584 
Q 2378 3584 2631 3529 
Q 2884 3475 3122 3366 
z
" transform="scale(0.015625)"/>
     </defs>
     <use xlink:href="#DejaVuSans-63"/>
    </g>
   </g>
  </g>
 </g>
 <defs>
  <clipPath id="pdbc35932aa">
   <rect x="0" y="-0" width="322.44" height="112.86"/>
  </clipPath>
 </defs>
</svg>
