<?xml version="1.0" encoding="utf-8" standalone="no"?>
<!DOCTYPE svg PUBLIC "-//W3C//DTD SVG 1.1//EN"
  "http://www.w3.org/Graphics/SVG/1.1/DTD/svg11.dtd">
<svg xmlns:xlink="http://www.w3.org/1999/xlink" width="322.44pt" height="179.64pt" viewBox="0 0 322.44 179.64" xmlns="http://www.w3.org/2000/svg" version="1.1">
 <metadata>
  <rdf:RDF xmlns:dc="http://purl.org/dc/elements/1.1/" xmlns:cc="http://creativecommons.org/ns#" xmlns:rdf="http://www.w3.org/1999/02/22-rdf-syntax-ns#">
   <cc:Work>
    <dc:type rdf:resource="http://purl.org/dc/dcmitype/StillImage"/>
    <dc:date>2024-10-01T11:57:16.811714</dc:date>
    <dc:format>image/svg+xml</dc:format>
    <dc:creator>
     <cc:Agent>
      <dc:title>Matplotlib v3.9.0, https://matplotlib.org/</dc:title>
     </cc:Agent>
    </dc:creator>
   </cc:Work>
  </rdf:RDF>
 </metadata>
 <defs>
  <style type="text/css">*{stroke-linejoin: round; stroke-linecap: butt}</style>
 </defs>
 <g id="figure_1">
  <g id="patch_1">
   <path d="M 0 179.64 
L 322.44 179.64 
L 322.44 0 
L 0 0 
L 0 179.64 
z
" style="fill: none"/>
  </g>
  <g id="axes_1">
   <g id="patch_2">
    <path d="M 151.98 53.64 
C 153.125677 53.64 154.224585 53.184818 155.034701 52.374701 
C 155.844818 51.564585 156.3 50.465677 156.3 49.32 
C 156.3 48.174323 155.844818 47.075415 155.034701 46.265299 
C 154.224585 45.455182 153.125677 45 151.98 45 
C 150.834323 45 149.735415 45.455182 148.925299 46.265299 
C 148.115182 47.075415 147.66 48.174323 147.66 49.32 
C 147.66 50.465677 148.115182 51.564585 148.925299 52.374701 
C 149.735415 53.184818 150.834323 53.64 151.98 53.64 
L 151.98 53.64 
z
" clip-path="url(#pf685c4495f)" style="fill: none; stroke: #000000; stroke-width: 2; stroke-linejoin: miter"/>
   </g>
   <g id="patch_3">
    <path d="M 63.96 121.14 
C 65.105677 121.14 66.204585 120.684818 67.014701 119.874701 
C 67.824818 119.064585 68.28 117.965677 68.28 116.82 
C 68.28 115.674323 67.824818 114.575415 67.014701 113.765299 
C 66.204585 112.955182 65.105677 112.5 63.96 112.5 
C 62.814323 112.5 61.715415 112.955182 60.905299 113.765299 
C 60.095182 114.575415 59.64 115.674323 59.64 116.82 
C 59.64 117.965677 60.095182 119.064585 60.905299 119.874701 
C 61.715415 120.684818 62.814323 121.14 63.96 121.14 
L 63.96 121.14 
z
" clip-path="url(#pf685c4495f)" style="fill: none; stroke: #000000; stroke-width: 2; stroke-linejoin: miter"/>
   </g>
   <g id="line2d_1">
    <path d="M 176.46 110.835 
L 196.002857 110.768878 
L 198.06 110.475 
L 200.117143 109.94602 
L 202.174286 109.181939 
L 204.231429 108.182755 
L 206.288571 106.948469 
L 208.345714 105.479082 
L 210.402857 103.774592 
L 212.974286 101.313367 
L 215.545714 98.484796 
L 218.117143 95.288878 
L 219.66 93.195 
L 219.66 93.195 
L 217.088571 89.778673 
L 214.517143 86.729694 
L 211.945714 84.048061 
L 209.374286 81.733776 
L 207.317143 80.146837 
L 205.26 78.795 
L 203.202857 77.678265 
L 201.145714 76.796633 
L 199.088571 76.150102 
L 197.031429 75.738673 
L 194.974286 75.562347 
L 194.46 75.555 
L 176.46 75.555 
L 176.46 75.555 
L 178.4472 77.715 
L 180.1752 79.875 
L 181.644 82.035 
L 182.8536 84.195 
L 183.804 86.355 
L 184.4952 88.515 
L 184.9272 90.675 
L 185.1 92.835 
L 185.0136 94.995 
L 184.668 97.155 
L 184.0632 99.315 
L 183.1992 101.475 
L 182.076 103.635 
L 180.6936 105.795 
L 179.052 107.955 
L 177.1512 110.115 
L 176.46 110.835 
L 176.46 110.835 
" clip-path="url(#pf685c4495f)" style="fill: none; stroke: #000000; stroke-width: 2; stroke-linecap: round"/>
   </g>
   <g id="line2d_2">
    <path d="M 163.86 102.195 
L 182.8536 102.195 
" clip-path="url(#pf685c4495f)" style="fill: none; stroke: #000000; stroke-width: 2; stroke-linecap: round"/>
   </g>
   <g id="line2d_3">
    <path d="M 163.86 84.195 
L 182.8536 84.195 
" clip-path="url(#pf685c4495f)" style="fill: none; stroke: #000000; stroke-width: 2; stroke-linecap: round"/>
   </g>
   <g id="line2d_4">
    <path d="M 219.66 93.195 
L 232.26 93.195 
" clip-path="url(#pf685c4495f)" style="fill: none; stroke: #000000; stroke-width: 2; stroke-linecap: round"/>
   </g>
   <g id="line2d_5">
    <path d="M 104.46 66.96 
L 124.002857 66.893878 
L 126.06 66.6 
L 128.117143 66.07102 
L 130.174286 65.306939 
L 132.231429 64.307755 
L 134.288571 63.073469 
L 136.345714 61.604082 
L 138.402857 59.899592 
L 140.974286 57.438367 
L 143.545714 54.609796 
L 146.117143 51.413878 
L 147.66 49.32 
L 147.66 49.32 
L 145.088571 45.903673 
L 142.517143 42.854694 
L 139.945714 40.173061 
L 137.374286 37.858776 
L 135.317143 36.271837 
L 133.26 34.92 
L 131.202857 33.803265 
L 129.145714 32.921633 
L 127.088571 32.275102 
L 125.031429 31.863673 
L 122.974286 31.687347 
L 122.46 31.68 
L 104.46 31.68 
L 104.46 31.68 
L 106.4472 33.84 
L 108.1752 36 
L 109.644 38.16 
L 110.8536 40.32 
L 111.804 42.48 
L 112.4952 44.64 
L 112.9272 46.8 
L 113.1 48.96 
L 113.0136 51.12 
L 112.668 53.28 
L 112.0632 55.44 
L 111.1992 57.6 
L 110.076 59.76 
L 108.6936 61.92 
L 107.052 64.08 
L 105.1512 66.24 
L 104.46 66.96 
L 104.46 66.96 
" clip-path="url(#pf685c4495f)" style="fill: none; stroke: #000000; stroke-width: 2; stroke-linecap: round"/>
   </g>
   <g id="line2d_6">
    <path d="M 99.06 66.96 
L 99.7512 66.24 
L 100.4136 65.52 
L 101.0472 64.8 
L 101.652 64.08 
L 102.228 63.36 
L 102.7752 62.64 
L 103.2936 61.92 
L 103.7832 61.2 
L 104.244 60.48 
L 104.676 59.76 
L 105.0792 59.04 
L 105.4536 58.32 
L 105.7992 57.6 
L 106.116 56.88 
L 106.404 56.16 
L 106.6632 55.44 
L 106.8936 54.72 
L 107.0952 54 
L 107.268 53.28 
L 107.412 52.56 
L 107.5272 51.84 
L 107.6136 51.12 
L 107.6712 50.4 
L 107.7 49.68 
L 107.7 48.96 
L 107.6712 48.24 
L 107.6136 47.52 
L 107.5272 46.8 
L 107.412 46.08 
L 107.268 45.36 
L 107.0952 44.64 
L 106.8936 43.92 
L 106.6632 43.2 
L 106.404 42.48 
L 106.116 41.76 
L 105.7992 41.04 
L 105.4536 40.32 
L 105.0792 39.6 
L 104.676 38.88 
L 104.244 38.16 
L 103.7832 37.44 
L 103.2936 36.72 
L 102.7752 36 
L 102.228 35.28 
L 101.652 34.56 
L 101.0472 33.84 
L 100.4136 33.12 
L 99.7512 32.4 
L 99.06 31.68 
" clip-path="url(#pf685c4495f)" style="fill: none; stroke: #000000; stroke-width: 2; stroke-linecap: round"/>
   </g>
   <g id="line2d_7">
    <path d="M 91.86 58.32 
L 105.4536 58.32 
" clip-path="url(#pf685c4495f)" style="fill: none; stroke: #000000; stroke-width: 2; stroke-linecap: round"/>
   </g>
   <g id="line2d_8">
    <path d="M 91.86 40.32 
L 105.4536 40.32 
" clip-path="url(#pf685c4495f)" style="fill: none; stroke: #000000; stroke-width: 2; stroke-linecap: round"/>
   </g>
   <g id="line2d_9">
    <path d="M 156.3 49.32 
L 160.26 49.32 
" clip-path="url(#pf685c4495f)" style="fill: none; stroke: #000000; stroke-width: 2; stroke-linecap: round"/>
   </g>
   <g id="line2d_10">
    <path d="M 32.46 39.96 
L 52.002857 39.893878 
L 54.06 39.6 
L 56.117143 39.07102 
L 58.174286 38.306939 
L 60.231429 37.307755 
L 62.288571 36.073469 
L 64.345714 34.604082 
L 66.402857 32.899592 
L 68.974286 30.438367 
L 71.545714 27.609796 
L 74.117143 24.413878 
L 75.66 22.32 
L 75.66 22.32 
L 73.088571 18.903673 
L 70.517143 15.854694 
L 67.945714 13.173061 
L 65.374286 10.858776 
L 63.317143 9.271837 
L 61.26 7.92 
L 59.202857 6.803265 
L 57.145714 5.921633 
L 55.088571 5.275102 
L 53.031429 4.863673 
L 50.974286 4.687347 
L 50.46 4.68 
L 32.46 4.68 
L 32.46 4.68 
L 34.4472 6.84 
L 36.1752 9 
L 37.644 11.16 
L 38.8536 13.32 
L 39.804 15.48 
L 40.4952 17.64 
L 40.9272 19.8 
L 41.1 21.96 
L 41.0136 24.12 
L 40.668 26.28 
L 40.0632 28.44 
L 39.1992 30.6 
L 38.076 32.76 
L 36.6936 34.92 
L 35.052 37.08 
L 33.1512 39.24 
L 32.46 39.96 
L 32.46 39.96 
" clip-path="url(#pf685c4495f)" style="fill: none; stroke: #000000; stroke-width: 2; stroke-linecap: round"/>
   </g>
   <g id="line2d_11">
    <path d="M 27.06 39.96 
L 27.7512 39.24 
L 28.4136 38.52 
L 29.0472 37.8 
L 29.652 37.08 
L 30.228 36.36 
L 30.7752 35.64 
L 31.2936 34.92 
L 31.7832 34.2 
L 32.244 33.48 
L 32.676 32.76 
L 33.0792 32.04 
L 33.4536 31.32 
L 33.7992 30.6 
L 34.116 29.88 
L 34.404 29.16 
L 34.6632 28.44 
L 34.8936 27.72 
L 35.0952 27 
L 35.268 26.28 
L 35.412 25.56 
L 35.5272 24.84 
L 35.6136 24.12 
L 35.6712 23.4 
L 35.7 22.68 
L 35.7 21.96 
L 35.6712 21.24 
L 35.6136 20.52 
L 35.5272 19.8 
L 35.412 19.08 
L 35.268 18.36 
L 35.0952 17.64 
L 34.8936 16.92 
L 34.6632 16.2 
L 34.404 15.48 
L 34.116 14.76 
L 33.7992 14.04 
L 33.4536 13.32 
L 33.0792 12.6 
L 32.676 11.88 
L 32.244 11.16 
L 31.7832 10.44 
L 31.2936 9.72 
L 30.7752 9 
L 30.228 8.28 
L 29.652 7.56 
L 29.0472 6.84 
L 28.4136 6.12 
L 27.7512 5.4 
L 27.06 4.68 
" clip-path="url(#pf685c4495f)" style="fill: none; stroke: #000000; stroke-width: 2; stroke-linecap: round"/>
   </g>
   <g id="line2d_12">
    <path d="M 19.86 31.32 
L 33.4536 31.32 
" clip-path="url(#pf685c4495f)" style="fill: none; stroke: #000000; stroke-width: 2; stroke-linecap: round"/>
   </g>
   <g id="line2d_13">
    <path d="M 19.86 13.32 
L 33.4536 13.32 
" clip-path="url(#pf685c4495f)" style="fill: none; stroke: #000000; stroke-width: 2; stroke-linecap: round"/>
   </g>
   <g id="line2d_14">
    <path d="M 75.66 22.32 
L 88.26 22.32 
" clip-path="url(#pf685c4495f)" style="fill: none; stroke: #000000; stroke-width: 2; stroke-linecap: round"/>
   </g>
   <g id="line2d_15">
    <path d="M 91.86 40.32 
L 88.26 40.32 
L 88.26 22.32 
" clip-path="url(#pf685c4495f)" style="fill: none; stroke: #000000; stroke-width: 2; stroke-linecap: round"/>
   </g>
   <g id="line2d_16">
    <path d="M 57.66 94.32 
L 58.813264 94.283017 
L 59.961789 94.17222 
L 61.100855 93.988065 
L 62.225783 93.731308 
L 63.331948 93.403003 
L 64.414806 93.004502 
L 65.469907 92.53744 
L 66.492916 92.003737 
L 67.479628 91.405586 
L 68.42599 90.745445 
L 69.328111 90.026027 
L 70.182286 89.250288 
L 70.985004 88.421416 
L 71.732967 87.542816 
L 72.423101 86.6181 
L 73.05257 85.651066 
L 73.618788 84.645689 
L 74.119427 83.6061 
L 74.552432 82.536571 
L 74.916021 81.441497 
L 75.208702 80.325377 
L 75.429272 79.192798 
L 75.576824 78.048414 
L 75.650752 76.896928 
L 75.650752 75.743072 
L 75.576824 74.591586 
L 75.429272 73.447202 
L 75.208702 72.314623 
L 74.916021 71.198503 
L 74.552432 70.103429 
L 74.119427 69.0339 
L 73.618788 67.994311 
L 73.05257 66.988934 
L 72.423101 66.0219 
L 71.732967 65.097184 
L 70.985004 64.218584 
L 70.182286 63.389712 
L 69.328111 62.613973 
L 68.42599 61.894555 
L 67.479628 61.234414 
L 66.492916 60.636263 
L 65.469907 60.10256 
L 64.414806 59.635498 
L 63.331948 59.236997 
L 62.225783 58.908692 
L 61.100855 58.651935 
L 59.961789 58.46778 
L 58.813264 58.356983 
L 57.66 58.32 
L 57.66 58.32 
L 34.26 58.32 
L 34.26 76.32 
L 34.26 94.32 
L 57.66 94.32 
" clip-path="url(#pf685c4495f)" style="fill: none; stroke: #000000; stroke-width: 2; stroke-linecap: round"/>
   </g>
   <g id="line2d_17">
    <path d="M 21.66 85.32 
L 34.26 85.32 
" clip-path="url(#pf685c4495f)" style="fill: none; stroke: #000000; stroke-width: 2; stroke-linecap: round"/>
   </g>
   <g id="line2d_18">
    <path d="M 21.66 67.32 
L 34.26 67.32 
" clip-path="url(#pf685c4495f)" style="fill: none; stroke: #000000; stroke-width: 2; stroke-linecap: round"/>
   </g>
   <g id="line2d_19">
    <path d="M 75.66 76.32 
L 88.26 76.32 
" clip-path="url(#pf685c4495f)" style="fill: none; stroke: #000000; stroke-width: 2; stroke-linecap: round"/>
   </g>
   <g id="line2d_20">
    <path d="M 91.86 58.32 
L 88.26 58.32 
L 88.26 76.32 
" clip-path="url(#pf685c4495f)" style="fill: none; stroke: #000000; stroke-width: 2; stroke-linecap: round"/>
   </g>
   <g id="line2d_21">
    <path d="M 163.86 84.195 
L 160.26 84.195 
L 160.26 49.32 
" clip-path="url(#pf685c4495f)" style="fill: none; stroke: #000000; stroke-width: 2; stroke-linecap: round"/>
   </g>
   <g id="line2d_22">
    <path d="M 129.66 155.07 
L 130.813264 155.033017 
L 131.961789 154.92222 
L 133.100855 154.738065 
L 134.225783 154.481308 
L 135.331948 154.153003 
L 136.414806 153.754502 
L 137.469907 153.28744 
L 138.492916 152.753737 
L 139.479628 152.155586 
L 140.42599 151.495445 
L 141.328111 150.776027 
L 142.182286 150.000288 
L 142.985004 149.171416 
L 143.732967 148.292816 
L 144.423101 147.3681 
L 145.05257 146.401066 
L 145.618788 145.395689 
L 146.119427 144.3561 
L 146.552432 143.286571 
L 146.916021 142.191497 
L 147.208702 141.075377 
L 147.429272 139.942798 
L 147.576824 138.798414 
L 147.650752 137.646928 
L 147.650752 136.493072 
L 147.576824 135.341586 
L 147.429272 134.197202 
L 147.208702 133.064623 
L 146.916021 131.948503 
L 146.552432 130.853429 
L 146.119427 129.7839 
L 145.618788 128.744311 
L 145.05257 127.738934 
L 144.423101 126.7719 
L 143.732967 125.847184 
L 142.985004 124.968584 
L 142.182286 124.139712 
L 141.328111 123.363973 
L 140.42599 122.644555 
L 139.479628 121.984414 
L 138.492916 121.386263 
L 137.469907 120.85256 
L 136.414806 120.385498 
L 135.331948 119.986997 
L 134.225783 119.658692 
L 133.100855 119.401935 
L 131.961789 119.21778 
L 130.813264 119.106983 
L 129.66 119.07 
L 129.66 119.07 
L 106.26 119.07 
L 106.26 137.07 
L 106.26 155.07 
L 129.66 155.07 
" clip-path="url(#pf685c4495f)" style="fill: none; stroke: #000000; stroke-width: 2; stroke-linecap: round"/>
   </g>
   <g id="line2d_23">
    <path d="M 93.66 146.07 
L 106.26 146.07 
" clip-path="url(#pf685c4495f)" style="fill: none; stroke: #000000; stroke-width: 2; stroke-linecap: round"/>
   </g>
   <g id="line2d_24">
    <path d="M 93.66 128.07 
L 106.26 128.07 
" clip-path="url(#pf685c4495f)" style="fill: none; stroke: #000000; stroke-width: 2; stroke-linecap: round"/>
   </g>
   <g id="line2d_25">
    <path d="M 147.66 137.07 
L 160.26 137.07 
" clip-path="url(#pf685c4495f)" style="fill: none; stroke: #000000; stroke-width: 2; stroke-linecap: round"/>
   </g>
   <g id="line2d_26">
    <path d="M 16.26 116.82 
L 36.24 116.82 
M 68.28 116.82 
L 88.26 116.82 
" clip-path="url(#pf685c4495f)" style="fill: none; stroke: #000000; stroke-width: 2; stroke-linecap: round"/>
   </g>
   <g id="line2d_27">
    <path d="M 36.24 98.82 
L 59.64 116.82 
L 36.24 134.82 
L 36.24 98.82 
" clip-path="url(#pf685c4495f)" style="fill: none; stroke: #000000; stroke-width: 2; stroke-linecap: round"/>
   </g>
   <g id="line2d_28">
    <path d="M 93.66 128.07 
L 88.26 128.07 
L 88.26 116.82 
" clip-path="url(#pf685c4495f)" style="fill: none; stroke: #000000; stroke-width: 2; stroke-linecap: round"/>
   </g>
   <g id="line2d_29">
    <path d="M 32.46 174.96 
L 52.002857 174.893878 
L 54.06 174.6 
L 56.117143 174.07102 
L 58.174286 173.306939 
L 60.231429 172.307755 
L 62.288571 171.073469 
L 64.345714 169.604082 
L 66.402857 167.899592 
L 68.974286 165.438367 
L 71.545714 162.609796 
L 74.117143 159.413878 
L 75.66 157.32 
L 75.66 157.32 
L 73.088571 153.903673 
L 70.517143 150.854694 
L 67.945714 148.173061 
L 65.374286 145.858776 
L 63.317143 144.271837 
L 61.26 142.92 
L 59.202857 141.803265 
L 57.145714 140.921633 
L 55.088571 140.275102 
L 53.031429 139.863673 
L 50.974286 139.687347 
L 50.46 139.68 
L 32.46 139.68 
L 32.46 139.68 
L 34.4472 141.84 
L 36.1752 144 
L 37.644 146.16 
L 38.8536 148.32 
L 39.804 150.48 
L 40.4952 152.64 
L 40.9272 154.8 
L 41.1 156.96 
L 41.0136 159.12 
L 40.668 161.28 
L 40.0632 163.44 
L 39.1992 165.6 
L 38.076 167.76 
L 36.6936 169.92 
L 35.052 172.08 
L 33.1512 174.24 
L 32.46 174.96 
L 32.46 174.96 
" clip-path="url(#pf685c4495f)" style="fill: none; stroke: #000000; stroke-width: 2; stroke-linecap: round"/>
   </g>
   <g id="line2d_30">
    <path d="M 27.06 174.96 
L 27.7512 174.24 
L 28.4136 173.52 
L 29.0472 172.8 
L 29.652 172.08 
L 30.228 171.36 
L 30.7752 170.64 
L 31.2936 169.92 
L 31.7832 169.2 
L 32.244 168.48 
L 32.676 167.76 
L 33.0792 167.04 
L 33.4536 166.32 
L 33.7992 165.6 
L 34.116 164.88 
L 34.404 164.16 
L 34.6632 163.44 
L 34.8936 162.72 
L 35.0952 162 
L 35.268 161.28 
L 35.412 160.56 
L 35.5272 159.84 
L 35.6136 159.12 
L 35.6712 158.4 
L 35.7 157.68 
L 35.7 156.96 
L 35.6712 156.24 
L 35.6136 155.52 
L 35.5272 154.8 
L 35.412 154.08 
L 35.268 153.36 
L 35.0952 152.64 
L 34.8936 151.92 
L 34.6632 151.2 
L 34.404 150.48 
L 34.116 149.76 
L 33.7992 149.04 
L 33.4536 148.32 
L 33.0792 147.6 
L 32.676 146.88 
L 32.244 146.16 
L 31.7832 145.44 
L 31.2936 144.72 
L 30.7752 144 
L 30.228 143.28 
L 29.652 142.56 
L 29.0472 141.84 
L 28.4136 141.12 
L 27.7512 140.4 
L 27.06 139.68 
" clip-path="url(#pf685c4495f)" style="fill: none; stroke: #000000; stroke-width: 2; stroke-linecap: round"/>
   </g>
   <g id="line2d_31">
    <path d="M 19.86 166.32 
L 33.4536 166.32 
" clip-path="url(#pf685c4495f)" style="fill: none; stroke: #000000; stroke-width: 2; stroke-linecap: round"/>
   </g>
   <g id="line2d_32">
    <path d="M 19.86 148.32 
L 33.4536 148.32 
" clip-path="url(#pf685c4495f)" style="fill: none; stroke: #000000; stroke-width: 2; stroke-linecap: round"/>
   </g>
   <g id="line2d_33">
    <path d="M 75.66 157.32 
L 88.26 157.32 
" clip-path="url(#pf685c4495f)" style="fill: none; stroke: #000000; stroke-width: 2; stroke-linecap: round"/>
   </g>
   <g id="line2d_34">
    <path d="M 93.66 146.07 
L 88.26 146.07 
L 88.26 157.32 
" clip-path="url(#pf685c4495f)" style="fill: none; stroke: #000000; stroke-width: 2; stroke-linecap: round"/>
   </g>
   <g id="line2d_35">
    <path d="M 163.86 102.195 
L 160.26 102.195 
L 160.26 137.07 
" clip-path="url(#pf685c4495f)" style="fill: none; stroke: #000000; stroke-width: 2; stroke-linecap: round"/>
   </g>
   <g id="text_1">
    <!-- $\text{Output}$ -->
    <g transform="translate(235.86 97.029687) scale(0.14 -0.14)">
     <defs>
      <path id="DejaVuSans-4f" d="M 2522 4238 
Q 1834 4238 1429 3725 
Q 1025 3213 1025 2328 
Q 1025 1447 1429 934 
Q 1834 422 2522 422 
Q 3209 422 3611 934 
Q 4013 1447 4013 2328 
Q 4013 3213 3611 3725 
Q 3209 4238 2522 4238 
z
M 2522 4750 
Q 3503 4750 4090 4092 
Q 4678 3434 4678 2328 
Q 4678 1225 4090 567 
Q 3503 -91 2522 -91 
Q 1538 -91 948 565 
Q 359 1222 359 2328 
Q 359 3434 948 4092 
Q 1538 4750 2522 4750 
z
" transform="scale(0.015625)"/>
      <path id="DejaVuSans-75" d="M 544 1381 
L 544 3500 
L 1119 3500 
L 1119 1403 
Q 1119 906 1312 657 
Q 1506 409 1894 409 
Q 2359 409 2629 706 
Q 2900 1003 2900 1516 
L 2900 3500 
L 3475 3500 
L 3475 0 
L 2900 0 
L 2900 538 
Q 2691 219 2414 64 
Q 2138 -91 1772 -91 
Q 1169 -91 856 284 
Q 544 659 544 1381 
z
M 1991 3584 
L 1991 3584 
z
" transform="scale(0.015625)"/>
      <path id="DejaVuSans-74" d="M 1172 4494 
L 1172 3500 
L 2356 3500 
L 2356 3053 
L 1172 3053 
L 1172 1153 
Q 1172 725 1289 603 
Q 1406 481 1766 481 
L 2356 481 
L 2356 0 
L 1766 0 
Q 1100 0 847 248 
Q 594 497 594 1153 
L 594 3053 
L 172 3053 
L 172 3500 
L 594 3500 
L 594 4494 
L 1172 4494 
z
" transform="scale(0.015625)"/>
      <path id="DejaVuSans-70" d="M 1159 525 
L 1159 -1331 
L 581 -1331 
L 581 3500 
L 1159 3500 
L 1159 2969 
Q 1341 3281 1617 3432 
Q 1894 3584 2278 3584 
Q 2916 3584 3314 3078 
Q 3713 2572 3713 1747 
Q 3713 922 3314 415 
Q 2916 -91 2278 -91 
Q 1894 -91 1617 61 
Q 1341 213 1159 525 
z
M 3116 1747 
Q 3116 2381 2855 2742 
Q 2594 3103 2138 3103 
Q 1681 3103 1420 2742 
Q 1159 2381 1159 1747 
Q 1159 1113 1420 752 
Q 1681 391 2138 391 
Q 2594 391 2855 752 
Q 3116 1113 3116 1747 
z
" transform="scale(0.015625)"/>
     </defs>
     <use xlink:href="#DejaVuSans-4f" transform="translate(0 0.78125)"/>
     <use xlink:href="#DejaVuSans-75" transform="translate(78.710938 0.78125)"/>
     <use xlink:href="#DejaVuSans-74" transform="translate(142.089844 0.78125)"/>
     <use xlink:href="#DejaVuSans-70" transform="translate(181.298828 0.78125)"/>
     <use xlink:href="#DejaVuSans-75" transform="translate(244.775391 0.78125)"/>
     <use xlink:href="#DejaVuSans-74" transform="translate(308.154297 0.78125)"/>
    </g>
   </g>
   <g id="text_2">
    <!-- d -->
    <g transform="translate(7.372187 17.183125) scale(0.14 -0.14)">
     <defs>
      <path id="DejaVuSans-64" d="M 2906 2969 
L 2906 4863 
L 3481 4863 
L 3481 0 
L 2906 0 
L 2906 525 
Q 2725 213 2448 61 
Q 2172 -91 1784 -91 
Q 1150 -91 751 415 
Q 353 922 353 1747 
Q 353 2572 751 3078 
Q 1150 3584 1784 3584 
Q 2172 3584 2448 3432 
Q 2725 3281 2906 2969 
z
M 947 1747 
Q 947 1113 1208 752 
Q 1469 391 1925 391 
Q 2381 391 2643 752 
Q 2906 1113 2906 1747 
Q 2906 2381 2643 2742 
Q 2381 3103 1925 3103 
Q 1469 3103 1208 2742 
Q 947 2381 947 1747 
z
" transform="scale(0.015625)"/>
     </defs>
     <use xlink:href="#DejaVuSans-64"/>
    </g>
   </g>
   <g id="text_3">
    <!-- e -->
    <g transform="translate(7.645625 35.183125) scale(0.14 -0.14)">
     <defs>
      <path id="DejaVuSans-65" d="M 3597 1894 
L 3597 1613 
L 953 1613 
Q 991 1019 1311 708 
Q 1631 397 2203 397 
Q 2534 397 2845 478 
Q 3156 559 3463 722 
L 3463 178 
Q 3153 47 2828 -22 
Q 2503 -91 2169 -91 
Q 1331 -91 842 396 
Q 353 884 353 1716 
Q 353 2575 817 3079 
Q 1281 3584 2069 3584 
Q 2775 3584 3186 3129 
Q 3597 2675 3597 1894 
z
M 3022 2063 
Q 3016 2534 2758 2815 
Q 2500 3097 2075 3097 
Q 1594 3097 1305 2825 
Q 1016 2553 972 2059 
L 3022 2063 
z
" transform="scale(0.015625)"/>
     </defs>
     <use xlink:href="#DejaVuSans-65"/>
    </g>
   </g>
   <g id="text_4">
    <!-- b -->
    <g transform="translate(9.172187 71.183125) scale(0.14 -0.14)">
     <defs>
      <path id="DejaVuSans-62" d="M 3116 1747 
Q 3116 2381 2855 2742 
Q 2594 3103 2138 3103 
Q 1681 3103 1420 2742 
Q 1159 2381 1159 1747 
Q 1159 1113 1420 752 
Q 1681 391 2138 391 
Q 2594 391 2855 752 
Q 3116 1113 3116 1747 
z
M 1159 2969 
Q 1341 3281 1617 3432 
Q 1894 3584 2278 3584 
Q 2916 3584 3314 3078 
Q 3713 2572 3713 1747 
Q 3713 922 3314 415 
Q 2916 -91 2278 -91 
Q 1894 -91 1617 61 
Q 1341 213 1159 525 
L 1159 0 
L 581 0 
L 581 4863 
L 1159 4863 
L 1159 2969 
z
" transform="scale(0.015625)"/>
     </defs>
     <use xlink:href="#DejaVuSans-62"/>
    </g>
   </g>
   <g id="text_5">
    <!-- a -->
    <g transform="translate(9.480625 89.183125) scale(0.14 -0.14)">
     <defs>
      <path id="DejaVuSans-61" d="M 2194 1759 
Q 1497 1759 1228 1600 
Q 959 1441 959 1056 
Q 959 750 1161 570 
Q 1363 391 1709 391 
Q 2188 391 2477 730 
Q 2766 1069 2766 1631 
L 2766 1759 
L 2194 1759 
z
M 3341 1997 
L 3341 0 
L 2766 0 
L 2766 531 
Q 2569 213 2275 61 
Q 1981 -91 1556 -91 
Q 1019 -91 701 211 
Q 384 513 384 1019 
Q 384 1609 779 1909 
Q 1175 2209 1959 2209 
L 2766 2209 
L 2766 2266 
Q 2766 2663 2505 2880 
Q 2244 3097 1772 3097 
Q 1472 3097 1187 3025 
Q 903 2953 641 2809 
L 641 3341 
Q 956 3463 1253 3523 
Q 1550 3584 1831 3584 
Q 2591 3584 2966 3190 
Q 3341 2797 3341 1997 
z
" transform="scale(0.015625)"/>
     </defs>
     <use xlink:href="#DejaVuSans-61"/>
    </g>
   </g>
   <g id="text_6">
    <!-- a -->
    <g transform="translate(4.080625 120.683125) scale(0.14 -0.14)">
     <use xlink:href="#DejaVuSans-61"/>
    </g>
   </g>
   <g id="text_7">
    <!-- e -->
    <g transform="translate(7.645625 152.183125) scale(0.14 -0.14)">
     <use xlink:href="#DejaVuSans-65"/>
    </g>
   </g>
   <g id="text_8">
    <!-- c -->
    <g transform="translate(8.562187 170.183125) scale(0.14 -0.14)">
     <defs>
      <path id="DejaVuSans-63" d="M 3122 3366 
L 3122 2828 
Q 2878 2963 2633 3030 
Q 2388 3097 2138 3097 
Q 1578 3097 1268 2742 
Q 959 2388 959 1747 
Q 959 1106 1268 751 
Q 1578 397 2138 397 
Q 2388 397 2633 464 
Q 2878 531 3122 666 
L 3122 134 
Q 2881 22 2623 -34 
Q 2366 -91 2075 -91 
Q 1284 -91 818 406 
Q 353 903 353 1747 
Q 353 2603 823 3093 
Q 1294 3584 2113 3584 
Q 2378 3584 2631 3529 
Q 2884 3475 3122 3366 
z
" transform="scale(0.015625)"/>
     </defs>
     <use xlink:href="#DejaVuSans-63"/>
    </g>
   </g>
  </g>
 </g>
 <defs>
  <clipPath id="pf685c4495f">
   <rect x="0" y="-0" width="322.44" height="179.64"/>
  </clipPath>
 </defs>
</svg>
