<?xml version="1.0" encoding="utf-8" standalone="no"?>
<!DOCTYPE svg PUBLIC "-//W3C//DTD SVG 1.1//EN"
  "http://www.w3.org/Graphics/SVG/1.1/DTD/svg11.dtd">
<svg xmlns:xlink="http://www.w3.org/1999/xlink" width="322.44pt" height="180pt" viewBox="0 0 322.44 180" xmlns="http://www.w3.org/2000/svg" version="1.1">
 <metadata>
  <rdf:RDF xmlns:dc="http://purl.org/dc/elements/1.1/" xmlns:cc="http://creativecommons.org/ns#" xmlns:rdf="http://www.w3.org/1999/02/22-rdf-syntax-ns#">
   <cc:Work>
    <dc:type rdf:resource="http://purl.org/dc/dcmitype/StillImage"/>
    <dc:date>2024-10-01T15:14:20.583454</dc:date>
    <dc:format>image/svg+xml</dc:format>
    <dc:creator>
     <cc:Agent>
      <dc:title>Matplotlib v3.9.0, https://matplotlib.org/</dc:title>
     </cc:Agent>
    </dc:creator>
   </cc:Work>
  </rdf:RDF>
 </metadata>
 <defs>
  <style type="text/css">*{stroke-linejoin: round; stroke-linecap: butt}</style>
 </defs>
 <g id="figure_1">
  <g id="patch_1">
   <path d="M 0 180 
L 322.44 180 
L 322.44 0 
L 0 0 
L 0 180 
z
" style="fill: none"/>
  </g>
  <g id="axes_1">
   <g id="patch_2">
    <path d="M 151.98 53.64 
C 153.125677 53.64 154.224585 53.184818 155.034701 52.374701 
C 155.844818 51.564585 156.3 50.465677 156.3 49.32 
C 156.3 48.174323 155.844818 47.075415 155.034701 46.265299 
C 154.224585 45.455182 153.125677 45 151.98 45 
C 150.834323 45 149.735415 45.455182 148.925299 46.265299 
C 148.115182 47.075415 147.66 48.174323 147.66 49.32 
C 147.66 50.465677 148.115182 51.564585 148.925299 52.374701 
C 149.735415 53.184818 150.834323 53.64 151.98 53.64 
L 151.98 53.64 
z
" clip-path="url(#pc4de4f8ecf)" style="fill: none; stroke: #000000; stroke-width: 2; stroke-linejoin: miter"/>
   </g>
   <g id="patch_3">
    <path d="M 63.96 121.14 
C 65.105677 121.14 66.204585 120.684818 67.014701 119.874701 
C 67.824818 119.064585 68.28 117.965677 68.28 116.82 
C 68.28 115.674323 67.824818 114.575415 67.014701 113.765299 
C 66.204585 112.955182 65.105677 112.5 63.96 112.5 
C 62.814323 112.5 61.715415 112.955182 60.905299 113.765299 
C 60.095182 114.575415 59.64 115.674323 59.64 116.82 
C 59.64 117.965677 60.095182 119.064585 60.905299 119.874701 
C 61.715415 120.684818 62.814323 121.14 63.96 121.14 
L 63.96 121.14 
z
" clip-path="url(#pc4de4f8ecf)" style="fill: none; stroke: #000000; stroke-width: 2; stroke-linejoin: miter"/>
   </g>
   <g id="line2d_1">
    <path d="M 201.66 111.195 
L 202.813264 111.158017 
L 203.961789 111.04722 
L 205.100855 110.863065 
L 206.225783 110.606308 
L 207.331948 110.278003 
L 208.414806 109.879502 
L 209.469907 109.41244 
L 210.492916 108.878737 
L 211.479628 108.280586 
L 212.42599 107.620445 
L 213.328111 106.901027 
L 214.182286 106.125288 
L 214.985004 105.296416 
L 215.732967 104.417816 
L 216.423101 103.4931 
L 217.05257 102.526066 
L 217.618788 101.520689 
L 218.119427 100.4811 
L 218.552432 99.411571 
L 218.916021 98.316497 
L 219.208702 97.200377 
L 219.429272 96.067798 
L 219.576824 94.923414 
L 219.650752 93.771928 
L 219.650752 92.618072 
L 219.576824 91.466586 
L 219.429272 90.322202 
L 219.208702 89.189623 
L 218.916021 88.073503 
L 218.552432 86.978429 
L 218.119427 85.9089 
L 217.618788 84.869311 
L 217.05257 83.863934 
L 216.423101 82.8969 
L 215.732967 81.972184 
L 214.985004 81.093584 
L 214.182286 80.264712 
L 213.328111 79.488973 
L 212.42599 78.769555 
L 211.479628 78.109414 
L 210.492916 77.511263 
L 209.469907 76.97756 
L 208.414806 76.510498 
L 207.331948 76.111997 
L 206.225783 75.783692 
L 205.100855 75.526935 
L 203.961789 75.34278 
L 202.813264 75.231983 
L 201.66 75.195 
L 201.66 75.195 
L 178.26 75.195 
L 178.26 93.195 
L 178.26 111.195 
L 201.66 111.195 
" clip-path="url(#pc4de4f8ecf)" style="fill: none; stroke: #000000; stroke-width: 2; stroke-linecap: round"/>
   </g>
   <g id="line2d_2">
    <path d="M 165.66 102.195 
L 178.26 102.195 
" clip-path="url(#pc4de4f8ecf)" style="fill: none; stroke: #000000; stroke-width: 2; stroke-linecap: round"/>
   </g>
   <g id="line2d_3">
    <path d="M 165.66 84.195 
L 178.26 84.195 
" clip-path="url(#pc4de4f8ecf)" style="fill: none; stroke: #000000; stroke-width: 2; stroke-linecap: round"/>
   </g>
   <g id="line2d_4">
    <path d="M 219.66 93.195 
L 232.26 93.195 
" clip-path="url(#pc4de4f8ecf)" style="fill: none; stroke: #000000; stroke-width: 2; stroke-linecap: round"/>
   </g>
   <g id="line2d_5">
    <path d="M 104.46 66.96 
L 124.002857 66.893878 
L 126.06 66.6 
L 128.117143 66.07102 
L 130.174286 65.306939 
L 132.231429 64.307755 
L 134.288571 63.073469 
L 136.345714 61.604082 
L 138.402857 59.899592 
L 140.974286 57.438367 
L 143.545714 54.609796 
L 146.117143 51.413878 
L 147.66 49.32 
L 147.66 49.32 
L 145.088571 45.903673 
L 142.517143 42.854694 
L 139.945714 40.173061 
L 137.374286 37.858776 
L 135.317143 36.271837 
L 133.26 34.92 
L 131.202857 33.803265 
L 129.145714 32.921633 
L 127.088571 32.275102 
L 125.031429 31.863673 
L 122.974286 31.687347 
L 122.46 31.68 
L 104.46 31.68 
L 104.46 31.68 
L 106.4472 33.84 
L 108.1752 36 
L 109.644 38.16 
L 110.8536 40.32 
L 111.804 42.48 
L 112.4952 44.64 
L 112.9272 46.8 
L 113.1 48.96 
L 113.0136 51.12 
L 112.668 53.28 
L 112.0632 55.44 
L 111.1992 57.6 
L 110.076 59.76 
L 108.6936 61.92 
L 107.052 64.08 
L 105.1512 66.24 
L 104.46 66.96 
L 104.46 66.96 
" clip-path="url(#pc4de4f8ecf)" style="fill: none; stroke: #000000; stroke-width: 2; stroke-linecap: round"/>
   </g>
   <g id="line2d_6">
    <path d="M 99.06 66.96 
L 99.7512 66.24 
L 100.4136 65.52 
L 101.0472 64.8 
L 101.652 64.08 
L 102.228 63.36 
L 102.7752 62.64 
L 103.2936 61.92 
L 103.7832 61.2 
L 104.244 60.48 
L 104.676 59.76 
L 105.0792 59.04 
L 105.4536 58.32 
L 105.7992 57.6 
L 106.116 56.88 
L 106.404 56.16 
L 106.6632 55.44 
L 106.8936 54.72 
L 107.0952 54 
L 107.268 53.28 
L 107.412 52.56 
L 107.5272 51.84 
L 107.6136 51.12 
L 107.6712 50.4 
L 107.7 49.68 
L 107.7 48.96 
L 107.6712 48.24 
L 107.6136 47.52 
L 107.5272 46.8 
L 107.412 46.08 
L 107.268 45.36 
L 107.0952 44.64 
L 106.8936 43.92 
L 106.6632 43.2 
L 106.404 42.48 
L 106.116 41.76 
L 105.7992 41.04 
L 105.4536 40.32 
L 105.0792 39.6 
L 104.676 38.88 
L 104.244 38.16 
L 103.7832 37.44 
L 103.2936 36.72 
L 102.7752 36 
L 102.228 35.28 
L 101.652 34.56 
L 101.0472 33.84 
L 100.4136 33.12 
L 99.7512 32.4 
L 99.06 31.68 
" clip-path="url(#pc4de4f8ecf)" style="fill: none; stroke: #000000; stroke-width: 2; stroke-linecap: round"/>
   </g>
   <g id="line2d_7">
    <path d="M 91.86 58.32 
L 105.4536 58.32 
" clip-path="url(#pc4de4f8ecf)" style="fill: none; stroke: #000000; stroke-width: 2; stroke-linecap: round"/>
   </g>
   <g id="line2d_8">
    <path d="M 91.86 40.32 
L 105.4536 40.32 
" clip-path="url(#pc4de4f8ecf)" style="fill: none; stroke: #000000; stroke-width: 2; stroke-linecap: round"/>
   </g>
   <g id="line2d_9">
    <path d="M 156.3 49.32 
L 160.26 49.32 
" clip-path="url(#pc4de4f8ecf)" style="fill: none; stroke: #000000; stroke-width: 2; stroke-linecap: round"/>
   </g>
   <g id="line2d_10">
    <path d="M 32.46 39.96 
L 52.002857 39.893878 
L 54.06 39.6 
L 56.117143 39.07102 
L 58.174286 38.306939 
L 60.231429 37.307755 
L 62.288571 36.073469 
L 64.345714 34.604082 
L 66.402857 32.899592 
L 68.974286 30.438367 
L 71.545714 27.609796 
L 74.117143 24.413878 
L 75.66 22.32 
L 75.66 22.32 
L 73.088571 18.903673 
L 70.517143 15.854694 
L 67.945714 13.173061 
L 65.374286 10.858776 
L 63.317143 9.271837 
L 61.26 7.92 
L 59.202857 6.803265 
L 57.145714 5.921633 
L 55.088571 5.275102 
L 53.031429 4.863673 
L 50.974286 4.687347 
L 50.46 4.68 
L 32.46 4.68 
L 32.46 4.68 
L 34.4472 6.84 
L 36.1752 9 
L 37.644 11.16 
L 38.8536 13.32 
L 39.804 15.48 
L 40.4952 17.64 
L 40.9272 19.8 
L 41.1 21.96 
L 41.0136 24.12 
L 40.668 26.28 
L 40.0632 28.44 
L 39.1992 30.6 
L 38.076 32.76 
L 36.6936 34.92 
L 35.052 37.08 
L 33.1512 39.24 
L 32.46 39.96 
L 32.46 39.96 
" clip-path="url(#pc4de4f8ecf)" style="fill: none; stroke: #000000; stroke-width: 2; stroke-linecap: round"/>
   </g>
   <g id="line2d_11">
    <path d="M 27.06 39.96 
L 27.7512 39.24 
L 28.4136 38.52 
L 29.0472 37.8 
L 29.652 37.08 
L 30.228 36.36 
L 30.7752 35.64 
L 31.2936 34.92 
L 31.7832 34.2 
L 32.244 33.48 
L 32.676 32.76 
L 33.0792 32.04 
L 33.4536 31.32 
L 33.7992 30.6 
L 34.116 29.88 
L 34.404 29.16 
L 34.6632 28.44 
L 34.8936 27.72 
L 35.0952 27 
L 35.268 26.28 
L 35.412 25.56 
L 35.5272 24.84 
L 35.6136 24.12 
L 35.6712 23.4 
L 35.7 22.68 
L 35.7 21.96 
L 35.6712 21.24 
L 35.6136 20.52 
L 35.5272 19.8 
L 35.412 19.08 
L 35.268 18.36 
L 35.0952 17.64 
L 34.8936 16.92 
L 34.6632 16.2 
L 34.404 15.48 
L 34.116 14.76 
L 33.7992 14.04 
L 33.4536 13.32 
L 33.0792 12.6 
L 32.676 11.88 
L 32.244 11.16 
L 31.7832 10.44 
L 31.2936 9.72 
L 30.7752 9 
L 30.228 8.28 
L 29.652 7.56 
L 29.0472 6.84 
L 28.4136 6.12 
L 27.7512 5.4 
L 27.06 4.68 
" clip-path="url(#pc4de4f8ecf)" style="fill: none; stroke: #000000; stroke-width: 2; stroke-linecap: round"/>
   </g>
   <g id="line2d_12">
    <path d="M 19.86 31.32 
L 33.4536 31.32 
" clip-path="url(#pc4de4f8ecf)" style="fill: none; stroke: #000000; stroke-width: 2; stroke-linecap: round"/>
   </g>
   <g id="line2d_13">
    <path d="M 19.86 13.32 
L 33.4536 13.32 
" clip-path="url(#pc4de4f8ecf)" style="fill: none; stroke: #000000; stroke-width: 2; stroke-linecap: round"/>
   </g>
   <g id="line2d_14">
    <path d="M 75.66 22.32 
L 88.26 22.32 
" clip-path="url(#pc4de4f8ecf)" style="fill: none; stroke: #000000; stroke-width: 2; stroke-linecap: round"/>
   </g>
   <g id="line2d_15">
    <path d="M 91.86 40.32 
L 88.26 40.32 
L 88.26 22.32 
" clip-path="url(#pc4de4f8ecf)" style="fill: none; stroke: #000000; stroke-width: 2; stroke-linecap: round"/>
   </g>
   <g id="line2d_16">
    <path d="M 32.46 93.96 
L 52.002857 93.893878 
L 54.06 93.6 
L 56.117143 93.07102 
L 58.174286 92.306939 
L 60.231429 91.307755 
L 62.288571 90.073469 
L 64.345714 88.604082 
L 66.402857 86.899592 
L 68.974286 84.438367 
L 71.545714 81.609796 
L 74.117143 78.413878 
L 75.66 76.32 
L 75.66 76.32 
L 73.088571 72.903673 
L 70.517143 69.854694 
L 67.945714 67.173061 
L 65.374286 64.858776 
L 63.317143 63.271837 
L 61.26 61.92 
L 59.202857 60.803265 
L 57.145714 59.921633 
L 55.088571 59.275102 
L 53.031429 58.863673 
L 50.974286 58.687347 
L 50.46 58.68 
L 32.46 58.68 
L 32.46 58.68 
L 34.4472 60.84 
L 36.1752 63 
L 37.644 65.16 
L 38.8536 67.32 
L 39.804 69.48 
L 40.4952 71.64 
L 40.9272 73.8 
L 41.1 75.96 
L 41.0136 78.12 
L 40.668 80.28 
L 40.0632 82.44 
L 39.1992 84.6 
L 38.076 86.76 
L 36.6936 88.92 
L 35.052 91.08 
L 33.1512 93.24 
L 32.46 93.96 
L 32.46 93.96 
" clip-path="url(#pc4de4f8ecf)" style="fill: none; stroke: #000000; stroke-width: 2; stroke-linecap: round"/>
   </g>
   <g id="line2d_17">
    <path d="M 19.86 85.32 
L 38.8536 85.32 
" clip-path="url(#pc4de4f8ecf)" style="fill: none; stroke: #000000; stroke-width: 2; stroke-linecap: round"/>
   </g>
   <g id="line2d_18">
    <path d="M 19.86 67.32 
L 38.8536 67.32 
" clip-path="url(#pc4de4f8ecf)" style="fill: none; stroke: #000000; stroke-width: 2; stroke-linecap: round"/>
   </g>
   <g id="line2d_19">
    <path d="M 75.66 76.32 
L 88.26 76.32 
" clip-path="url(#pc4de4f8ecf)" style="fill: none; stroke: #000000; stroke-width: 2; stroke-linecap: round"/>
   </g>
   <g id="line2d_20">
    <path d="M 91.86 58.32 
L 88.26 58.32 
L 88.26 76.32 
" clip-path="url(#pc4de4f8ecf)" style="fill: none; stroke: #000000; stroke-width: 2; stroke-linecap: round"/>
   </g>
   <g id="line2d_21">
    <path d="M 165.66 84.195 
L 160.26 84.195 
L 160.26 49.32 
" clip-path="url(#pc4de4f8ecf)" style="fill: none; stroke: #000000; stroke-width: 2; stroke-linecap: round"/>
   </g>
   <g id="line2d_22">
    <path d="M 104.46 154.71 
L 124.002857 154.643878 
L 126.06 154.35 
L 128.117143 153.82102 
L 130.174286 153.056939 
L 132.231429 152.057755 
L 134.288571 150.823469 
L 136.345714 149.354082 
L 138.402857 147.649592 
L 140.974286 145.188367 
L 143.545714 142.359796 
L 146.117143 139.163878 
L 147.66 137.07 
L 147.66 137.07 
L 145.088571 133.653673 
L 142.517143 130.604694 
L 139.945714 127.923061 
L 137.374286 125.608776 
L 135.317143 124.021837 
L 133.26 122.67 
L 131.202857 121.553265 
L 129.145714 120.671633 
L 127.088571 120.025102 
L 125.031429 119.613673 
L 122.974286 119.437347 
L 122.46 119.43 
L 104.46 119.43 
L 104.46 119.43 
L 106.4472 121.59 
L 108.1752 123.75 
L 109.644 125.91 
L 110.8536 128.07 
L 111.804 130.23 
L 112.4952 132.39 
L 112.9272 134.55 
L 113.1 136.71 
L 113.0136 138.87 
L 112.668 141.03 
L 112.0632 143.19 
L 111.1992 145.35 
L 110.076 147.51 
L 108.6936 149.67 
L 107.052 151.83 
L 105.1512 153.99 
L 104.46 154.71 
L 104.46 154.71 
" clip-path="url(#pc4de4f8ecf)" style="fill: none; stroke: #000000; stroke-width: 2; stroke-linecap: round"/>
   </g>
   <g id="line2d_23">
    <path d="M 99.06 154.71 
L 99.7512 153.99 
L 100.4136 153.27 
L 101.0472 152.55 
L 101.652 151.83 
L 102.228 151.11 
L 102.7752 150.39 
L 103.2936 149.67 
L 103.7832 148.95 
L 104.244 148.23 
L 104.676 147.51 
L 105.0792 146.79 
L 105.4536 146.07 
L 105.7992 145.35 
L 106.116 144.63 
L 106.404 143.91 
L 106.6632 143.19 
L 106.8936 142.47 
L 107.0952 141.75 
L 107.268 141.03 
L 107.412 140.31 
L 107.5272 139.59 
L 107.6136 138.87 
L 107.6712 138.15 
L 107.7 137.43 
L 107.7 136.71 
L 107.6712 135.99 
L 107.6136 135.27 
L 107.5272 134.55 
L 107.412 133.83 
L 107.268 133.11 
L 107.0952 132.39 
L 106.8936 131.67 
L 106.6632 130.95 
L 106.404 130.23 
L 106.116 129.51 
L 105.7992 128.79 
L 105.4536 128.07 
L 105.0792 127.35 
L 104.676 126.63 
L 104.244 125.91 
L 103.7832 125.19 
L 103.2936 124.47 
L 102.7752 123.75 
L 102.228 123.03 
L 101.652 122.31 
L 101.0472 121.59 
L 100.4136 120.87 
L 99.7512 120.15 
L 99.06 119.43 
" clip-path="url(#pc4de4f8ecf)" style="fill: none; stroke: #000000; stroke-width: 2; stroke-linecap: round"/>
   </g>
   <g id="line2d_24">
    <path d="M 91.86 146.07 
L 105.4536 146.07 
" clip-path="url(#pc4de4f8ecf)" style="fill: none; stroke: #000000; stroke-width: 2; stroke-linecap: round"/>
   </g>
   <g id="line2d_25">
    <path d="M 91.86 128.07 
L 105.4536 128.07 
" clip-path="url(#pc4de4f8ecf)" style="fill: none; stroke: #000000; stroke-width: 2; stroke-linecap: round"/>
   </g>
   <g id="line2d_26">
    <path d="M 147.66 137.07 
L 160.26 137.07 
" clip-path="url(#pc4de4f8ecf)" style="fill: none; stroke: #000000; stroke-width: 2; stroke-linecap: round"/>
   </g>
   <g id="line2d_27">
    <path d="M 16.26 116.82 
L 36.24 116.82 
M 68.28 116.82 
L 88.26 116.82 
" clip-path="url(#pc4de4f8ecf)" style="fill: none; stroke: #000000; stroke-width: 2; stroke-linecap: round"/>
   </g>
   <g id="line2d_28">
    <path d="M 36.24 98.82 
L 59.64 116.82 
L 36.24 134.82 
L 36.24 98.82 
" clip-path="url(#pc4de4f8ecf)" style="fill: none; stroke: #000000; stroke-width: 2; stroke-linecap: round"/>
   </g>
   <g id="line2d_29">
    <path d="M 91.86 128.07 
L 88.26 128.07 
L 88.26 116.82 
" clip-path="url(#pc4de4f8ecf)" style="fill: none; stroke: #000000; stroke-width: 2; stroke-linecap: round"/>
   </g>
   <g id="line2d_30">
    <path d="M 57.66 175.32 
L 58.813264 175.283017 
L 59.961789 175.17222 
L 61.100855 174.988065 
L 62.225783 174.731308 
L 63.331948 174.403003 
L 64.414806 174.004502 
L 65.469907 173.53744 
L 66.492916 173.003737 
L 67.479628 172.405586 
L 68.42599 171.745445 
L 69.328111 171.026027 
L 70.182286 170.250288 
L 70.985004 169.421416 
L 71.732967 168.542816 
L 72.423101 167.6181 
L 73.05257 166.651066 
L 73.618788 165.645689 
L 74.119427 164.6061 
L 74.552432 163.536571 
L 74.916021 162.441497 
L 75.208702 161.325377 
L 75.429272 160.192798 
L 75.576824 159.048414 
L 75.650752 157.896928 
L 75.650752 156.743072 
L 75.576824 155.591586 
L 75.429272 154.447202 
L 75.208702 153.314623 
L 74.916021 152.198503 
L 74.552432 151.103429 
L 74.119427 150.0339 
L 73.618788 148.994311 
L 73.05257 147.988934 
L 72.423101 147.0219 
L 71.732967 146.097184 
L 70.985004 145.218584 
L 70.182286 144.389712 
L 69.328111 143.613973 
L 68.42599 142.894555 
L 67.479628 142.234414 
L 66.492916 141.636263 
L 65.469907 141.10256 
L 64.414806 140.635498 
L 63.331948 140.236997 
L 62.225783 139.908692 
L 61.100855 139.651935 
L 59.961789 139.46778 
L 58.813264 139.356983 
L 57.66 139.32 
L 57.66 139.32 
L 34.26 139.32 
L 34.26 157.32 
L 34.26 175.32 
L 57.66 175.32 
" clip-path="url(#pc4de4f8ecf)" style="fill: none; stroke: #000000; stroke-width: 2; stroke-linecap: round"/>
   </g>
   <g id="line2d_31">
    <path d="M 21.66 166.32 
L 34.26 166.32 
" clip-path="url(#pc4de4f8ecf)" style="fill: none; stroke: #000000; stroke-width: 2; stroke-linecap: round"/>
   </g>
   <g id="line2d_32">
    <path d="M 21.66 148.32 
L 34.26 148.32 
" clip-path="url(#pc4de4f8ecf)" style="fill: none; stroke: #000000; stroke-width: 2; stroke-linecap: round"/>
   </g>
   <g id="line2d_33">
    <path d="M 75.66 157.32 
L 88.26 157.32 
" clip-path="url(#pc4de4f8ecf)" style="fill: none; stroke: #000000; stroke-width: 2; stroke-linecap: round"/>
   </g>
   <g id="line2d_34">
    <path d="M 91.86 146.07 
L 88.26 146.07 
L 88.26 157.32 
" clip-path="url(#pc4de4f8ecf)" style="fill: none; stroke: #000000; stroke-width: 2; stroke-linecap: round"/>
   </g>
   <g id="line2d_35">
    <path d="M 165.66 102.195 
L 160.26 102.195 
L 160.26 137.07 
" clip-path="url(#pc4de4f8ecf)" style="fill: none; stroke: #000000; stroke-width: 2; stroke-linecap: round"/>
   </g>
   <g id="text_1">
    <!-- $\text{Output}$ -->
    <g transform="translate(235.86 97.029687) scale(0.14 -0.14)">
     <defs>
      <path id="DejaVuSans-4f" d="M 2522 4238 
Q 1834 4238 1429 3725 
Q 1025 3213 1025 2328 
Q 1025 1447 1429 934 
Q 1834 422 2522 422 
Q 3209 422 3611 934 
Q 4013 1447 4013 2328 
Q 4013 3213 3611 3725 
Q 3209 4238 2522 4238 
z
M 2522 4750 
Q 3503 4750 4090 4092 
Q 4678 3434 4678 2328 
Q 4678 1225 4090 567 
Q 3503 -91 2522 -91 
Q 1538 -91 948 565 
Q 359 1222 359 2328 
Q 359 3434 948 4092 
Q 1538 4750 2522 4750 
z
" transform="scale(0.015625)"/>
      <path id="DejaVuSans-75" d="M 544 1381 
L 544 3500 
L 1119 3500 
L 1119 1403 
Q 1119 906 1312 657 
Q 1506 409 1894 409 
Q 2359 409 2629 706 
Q 2900 1003 2900 1516 
L 2900 3500 
L 3475 3500 
L 3475 0 
L 2900 0 
L 2900 538 
Q 2691 219 2414 64 
Q 2138 -91 1772 -91 
Q 1169 -91 856 284 
Q 544 659 544 1381 
z
M 1991 3584 
L 1991 3584 
z
" transform="scale(0.015625)"/>
      <path id="DejaVuSans-74" d="M 1172 4494 
L 1172 3500 
L 2356 3500 
L 2356 3053 
L 1172 3053 
L 1172 1153 
Q 1172 725 1289 603 
Q 1406 481 1766 481 
L 2356 481 
L 2356 0 
L 1766 0 
Q 1100 0 847 248 
Q 594 497 594 1153 
L 594 3053 
L 172 3053 
L 172 3500 
L 594 3500 
L 594 4494 
L 1172 4494 
z
" transform="scale(0.015625)"/>
      <path id="DejaVuSans-70" d="M 1159 525 
L 1159 -1331 
L 581 -1331 
L 581 3500 
L 1159 3500 
L 1159 2969 
Q 1341 3281 1617 3432 
Q 1894 3584 2278 3584 
Q 2916 3584 3314 3078 
Q 3713 2572 3713 1747 
Q 3713 922 3314 415 
Q 2916 -91 2278 -91 
Q 1894 -91 1617 61 
Q 1341 213 1159 525 
z
M 3116 1747 
Q 3116 2381 2855 2742 
Q 2594 3103 2138 3103 
Q 1681 3103 1420 2742 
Q 1159 2381 1159 1747 
Q 1159 1113 1420 752 
Q 1681 391 2138 391 
Q 2594 391 2855 752 
Q 3116 1113 3116 1747 
z
" transform="scale(0.015625)"/>
     </defs>
     <use xlink:href="#DejaVuSans-4f" transform="translate(0 0.78125)"/>
     <use xlink:href="#DejaVuSans-75" transform="translate(78.710938 0.78125)"/>
     <use xlink:href="#DejaVuSans-74" transform="translate(142.089844 0.78125)"/>
     <use xlink:href="#DejaVuSans-70" transform="translate(181.298828 0.78125)"/>
     <use xlink:href="#DejaVuSans-75" transform="translate(244.775391 0.78125)"/>
     <use xlink:href="#DejaVuSans-74" transform="translate(308.154297 0.78125)"/>
    </g>
   </g>
   <g id="text_2">
    <!-- a -->
    <g transform="translate(7.680625 17.183125) scale(0.14 -0.14)">
     <defs>
      <path id="DejaVuSans-61" d="M 2194 1759 
Q 1497 1759 1228 1600 
Q 959 1441 959 1056 
Q 959 750 1161 570 
Q 1363 391 1709 391 
Q 2188 391 2477 730 
Q 2766 1069 2766 1631 
L 2766 1759 
L 2194 1759 
z
M 3341 1997 
L 3341 0 
L 2766 0 
L 2766 531 
Q 2569 213 2275 61 
Q 1981 -91 1556 -91 
Q 1019 -91 701 211 
Q 384 513 384 1019 
Q 384 1609 779 1909 
Q 1175 2209 1959 2209 
L 2766 2209 
L 2766 2266 
Q 2766 2663 2505 2880 
Q 2244 3097 1772 3097 
Q 1472 3097 1187 3025 
Q 903 2953 641 2809 
L 641 3341 
Q 956 3463 1253 3523 
Q 1550 3584 1831 3584 
Q 2591 3584 2966 3190 
Q 3341 2797 3341 1997 
z
" transform="scale(0.015625)"/>
     </defs>
     <use xlink:href="#DejaVuSans-61"/>
    </g>
   </g>
   <g id="text_3">
    <!-- b -->
    <g transform="translate(7.372187 35.183125) scale(0.14 -0.14)">
     <defs>
      <path id="DejaVuSans-62" d="M 3116 1747 
Q 3116 2381 2855 2742 
Q 2594 3103 2138 3103 
Q 1681 3103 1420 2742 
Q 1159 2381 1159 1747 
Q 1159 1113 1420 752 
Q 1681 391 2138 391 
Q 2594 391 2855 752 
Q 3116 1113 3116 1747 
z
M 1159 2969 
Q 1341 3281 1617 3432 
Q 1894 3584 2278 3584 
Q 2916 3584 3314 3078 
Q 3713 2572 3713 1747 
Q 3713 922 3314 415 
Q 2916 -91 2278 -91 
Q 1894 -91 1617 61 
Q 1341 213 1159 525 
L 1159 0 
L 581 0 
L 581 4863 
L 1159 4863 
L 1159 2969 
z
" transform="scale(0.015625)"/>
     </defs>
     <use xlink:href="#DejaVuSans-62"/>
    </g>
   </g>
   <g id="text_4">
    <!-- c -->
    <g transform="translate(8.562187 71.183125) scale(0.14 -0.14)">
     <defs>
      <path id="DejaVuSans-63" d="M 3122 3366 
L 3122 2828 
Q 2878 2963 2633 3030 
Q 2388 3097 2138 3097 
Q 1578 3097 1268 2742 
Q 959 2388 959 1747 
Q 959 1106 1268 751 
Q 1578 397 2138 397 
Q 2388 397 2633 464 
Q 2878 531 3122 666 
L 3122 134 
Q 2881 22 2623 -34 
Q 2366 -91 2075 -91 
Q 1284 -91 818 406 
Q 353 903 353 1747 
Q 353 2603 823 3093 
Q 1294 3584 2113 3584 
Q 2378 3584 2631 3529 
Q 2884 3475 3122 3366 
z
" transform="scale(0.015625)"/>
     </defs>
     <use xlink:href="#DejaVuSans-63"/>
    </g>
   </g>
   <g id="text_5">
    <!-- a -->
    <g transform="translate(7.680625 89.183125) scale(0.14 -0.14)">
     <use xlink:href="#DejaVuSans-61"/>
    </g>
   </g>
   <g id="text_6">
    <!-- b -->
    <g transform="translate(3.772187 120.683125) scale(0.14 -0.14)">
     <use xlink:href="#DejaVuSans-62"/>
    </g>
   </g>
   <g id="text_7">
    <!-- b -->
    <g transform="translate(9.172187 152.183125) scale(0.14 -0.14)">
     <use xlink:href="#DejaVuSans-62"/>
    </g>
   </g>
   <g id="text_8">
    <!-- b -->
    <g transform="translate(9.172187 170.183125) scale(0.14 -0.14)">
     <use xlink:href="#DejaVuSans-62"/>
    </g>
   </g>
  </g>
 </g>
 <defs>
  <clipPath id="pc4de4f8ecf">
   <rect x="0" y="0" width="322.44" height="180"/>
  </clipPath>
 </defs>
</svg>
