<svg xmlns="http://www.w3.org/2000/svg" xml:lang="en" height="125.48000000000002pt" width="322.28pt" viewBox="-232.17999999999998 -8.740000000000004 322.28 125.48000000000002"><circle cx="-8.28" cy="64.125" r="4.32" style="stroke:black;fill:none;stroke-width:2.0;" /><circle cx="-152.28000000000003" cy="13.5" r="4.32" style="stroke:black;fill:none;stroke-width:2.0;" /><circle cx="-168.29999999999998" cy="54.0" r="4.32" style="stroke:black;fill:none;stroke-width:2.0;" /><path d="M -55.80000000000001,81.76500000000001 L -37.80000000000001,81.76500000000001 L -37.2857142857143,81.75765306122449 L -36.77142857142859,81.73561224489796 L -36.257142857142874,81.69887755102042 L -35.742857142857154,81.64744897959184 L -35.22857142857144,81.58132653061224 L -34.71428571428573,81.50051020408164 L -34.20000000000002,81.405 L -33.6857142857143,81.29479591836736 L -33.171428571428585,81.16989795918369 L -32.65714285714287,81.03030612244898 L -32.14285714285715,80.87602040816327 L -31.628571428571444,80.70704081632653 L -31.11428571428573,80.52336734693878 L -30.60000000000002,80.325 L -30.0857142857143,80.1119387755102 L -29.571428571428577,79.8841836734694 L -29.057142857142864,79.64173469387754 L -28.54285714285715,79.38459183673469 L -28.02857142857144,79.11275510204082 L -27.514285714285727,78.82622448979592 L -27.000000000000014,78.52499999999999 L -26.4857142857143,78.20908163265305 L -25.971428571428582,77.8784693877551 L -25.45714285714287,77.53316326530613 L -24.94285714285715,77.17316326530612 L -24.428571428571438,76.79846938775509 L -23.914285714285725,76.40908163265307 L -23.400000000000013,76.005 L -22.8857142857143,75.58622448979592 L -22.371428571428588,75.15275510204083 L -21.857142857142875,74.70459183673469 L -21.342857142857156,74.24173469387755 L -20.828571428571436,73.76418367346939 L -20.314285714285724,73.27193877551021 L -19.80000000000001,72.76500000000001 L -19.2857142857143,72.24336734693878 L -18.771428571428586,71.70704081632654 L -18.257142857142874,71.15602040816327 L -17.74285714285716,70.59030612244898 L -17.22857142857143,70.00989795918368 L -16.71428571428572,69.41479591836735 L -16.200000000000006,68.80499999999999 L -15.685714285714294,68.18051020408163 L -15.171428571428581,67.54132653061224 L -14.657142857142869,66.88744897959184 L -14.142857142857157,66.2188775510204 L -13.628571428571444,65.53561224489796 L -13.114285714285732,64.8376530612245 L -12.600000000000003,64.125 L -12.600000000000003,64.125 L -13.114285714285732,63.41234693877551 L -13.628571428571444,62.71438775510204 L -14.142857142857157,62.031122448979595 L -14.657142857142869,61.36255102040816 L -15.171428571428581,60.70867346938776 L -15.685714285714294,60.069489795918365 L -16.200000000000006,59.44500000000001 L -16.71428571428572,58.835204081632654 L -17.22857142857143,58.240102040816325 L -17.74285714285716,57.659693877551014 L -18.257142857142874,57.093979591836735 L -18.771428571428586,56.54295918367347 L -19.2857142857143,56.00663265306122 L -19.80000000000001,55.48499999999999 L -20.314285714285724,54.97806122448979 L -20.828571428571436,54.48581632653061 L -21.342857142857156,54.00826530612245 L -21.857142857142875,53.54540816326531 L -22.371428571428588,53.097244897959186 L -22.8857142857143,52.66377551020408 L -23.400000000000013,52.245 L -23.914285714285725,51.84091836734694 L -24.428571428571438,51.451530612244895 L -24.94285714285715,51.07683673469387 L -25.45714285714287,50.71683673469387 L -25.971428571428582,50.3715306122449 L -26.4857142857143,50.04091836734693 L -27.000000000000014,49.724999999999994 L -27.514285714285727,49.42377551020408 L -28.02857142857144,49.13724489795918 L -28.54285714285715,48.8654081632653 L -29.057142857142864,48.60826530612245 L -29.571428571428577,48.36581632653061 L -30.0857142857143,48.138061224489796 L -30.60000000000002,47.925 L -31.11428571428573,47.726632653061216 L -31.628571428571444,47.54295918367347 L -32.14285714285715,47.373979591836736 L -32.65714285714287,47.21969387755102 L -33.171428571428585,47.08010204081632 L -33.6857142857143,46.95520408163265 L -34.20000000000002,46.845 L -34.71428571428573,46.749489795918365 L -35.22857142857144,46.668673469387755 L -35.742857142857154,46.60255102040816 L -36.257142857142874,46.55112244897959 L -36.77142857142859,46.514387755102035 L -37.2857142857143,46.492346938775505 L -37.80000000000001,46.48499999999999 L -55.80000000000001,46.48499999999999 L -55.80000000000001,46.48499999999999 L -55.108800000000016,47.20499999999999 L -54.44640000000001,47.925 L -53.81280000000001,48.644999999999996 L -53.208000000000006,49.364999999999995 L -52.632000000000005,50.084999999999994 L -52.08480000000001,50.80499999999999 L -51.566400000000016,51.525 L -51.07680000000001,52.245 L -50.616000000000014,52.964999999999996 L -50.18400000000001,53.685 L -49.780800000000006,54.405 L -49.40640000000001,55.125 L -49.060800000000015,55.845 L -48.744000000000014,56.565 L -48.45600000000001,57.285000000000004 L -48.19680000000002,58.005 L -47.96640000000001,58.725 L -47.764800000000015,59.44500000000001 L -47.59200000000001,60.165000000000006 L -47.44800000000001,60.885000000000005 L -47.33280000000001,61.605000000000004 L -47.24640000000001,62.324999999999996 L -47.188800000000015,63.045 L -47.16000000000001,63.765 L -47.16000000000001,64.485 L -47.188800000000015,65.205 L -47.24640000000001,65.925 L -47.33280000000001,66.645 L -47.44800000000001,67.36500000000001 L -47.59200000000001,68.08500000000001 L -47.764800000000015,68.80499999999999 L -47.96640000000001,69.52499999999999 L -48.19680000000002,70.245 L -48.45600000000001,70.965 L -48.744000000000014,71.685 L -49.06080000000001,72.405 L -49.40640000000001,73.125 L -49.780800000000006,73.845 L -50.18400000000001,74.565 L -50.616000000000014,75.285 L -51.07680000000001,76.005 L -51.566400000000016,76.72500000000001 L -52.08480000000001,77.44500000000001 L -52.632000000000005,78.165 L -53.20800000000001,78.885 L -53.81280000000001,79.605 L -54.44640000000001,80.325 L -55.108800000000016,81.045 L -55.80000000000001,81.76500000000001" style="stroke:black;fill:none;stroke-width:2.0;stroke-linecap:round;stroke-linejoin:round;" /><path d="M -61.20000000000002,81.76500000000001 L -60.50880000000001,81.045 L -59.84640000000001,80.325 L -59.212800000000016,79.605 L -58.60800000000001,78.885 L -58.03200000000001,78.165 L -57.484800000000014,77.44500000000001 L -56.96640000000001,76.72500000000001 L -56.47680000000001,76.005 L -56.01600000000001,75.285 L -55.58400000000002,74.565 L -55.18080000000001,73.845 L -54.80640000000001,73.125 L -54.46080000000001,72.405 L -54.14400000000002,71.685 L -53.856000000000016,70.965 L -53.596800000000016,70.245 L -53.366400000000006,69.52499999999999 L -53.164800000000014,68.80499999999999 L -52.99200000000002,68.08500000000001 L -52.84800000000001,67.36500000000001 L -52.73280000000001,66.645 L -52.64640000000001,65.925 L -52.58880000000001,65.205 L -52.56000000000002,64.485 L -52.56000000000002,63.765 L -52.58880000000001,63.045 L -52.64640000000001,62.324999999999996 L -52.73280000000001,61.605000000000004 L -52.84800000000001,60.885000000000005 L -52.99200000000002,60.165000000000006 L -53.164800000000014,59.44500000000001 L -53.366400000000006,58.725 L -53.596800000000016,58.005 L -53.856000000000016,57.285000000000004 L -54.14400000000002,56.565 L -54.46080000000001,55.845 L -54.80640000000001,55.125 L -55.18080000000001,54.405 L -55.58400000000002,53.685 L -56.01600000000001,52.964999999999996 L -56.47680000000001,52.245 L -56.96640000000001,51.525 L -57.484800000000014,50.80499999999999 L -58.03200000000001,50.084999999999994 L -58.60800000000001,49.364999999999995 L -59.212800000000016,48.644999999999996 L -59.84640000000001,47.925 L -60.50880000000001,47.20499999999999 L -61.20000000000002,46.48499999999999" style="stroke:black;fill:none;stroke-width:2.0;stroke-linecap:round;stroke-linejoin:round;" /><path d="M -68.4,73.125 L -54.80640000000001,73.125" style="stroke:black;fill:none;stroke-width:2.0;stroke-linecap:round;stroke-linejoin:round;" /><path d="M -68.4,55.125 L -54.80640000000001,55.125" style="stroke:black;fill:none;stroke-width:2.0;stroke-linecap:round;stroke-linejoin:round;" /><path d="M -3.9600000000000035,64.125 L 0.0,64.125" style="stroke:black;fill:none;stroke-width:2.0;stroke-linecap:round;stroke-linejoin:round;" /><path d="M -127.80000000000001,51.39000000000001 L -109.80000000000001,51.39000000000001 L -109.28571428571429,51.382653061224495 L -108.77142857142859,51.360612244897965 L -108.25714285714287,51.32387755102041 L -107.74285714285716,51.27244897959184 L -107.22857142857144,51.206326530612245 L -106.71428571428572,51.125510204081635 L -106.2,51.03 L -105.6857142857143,50.91979591836735 L -105.17142857142858,50.79489795918368 L -104.65714285714287,50.65530612244898 L -104.14285714285715,50.501020408163264 L -103.62857142857145,50.33204081632653 L -103.11428571428573,50.148367346938784 L -102.60000000000002,49.95 L -102.0857142857143,49.736938775510204 L -101.57142857142858,49.50918367346939 L -101.05714285714286,49.26673469387755 L -100.54285714285716,49.0095918367347 L -100.02857142857144,48.73775510204082 L -99.51428571428573,48.45122448979592 L -99.00000000000001,48.150000000000006 L -98.48571428571431,47.83408163265307 L -97.97142857142858,47.5034693877551 L -97.45714285714286,47.15816326530613 L -96.94285714285715,46.79816326530613 L -96.42857142857144,46.423469387755105 L -95.91428571428573,46.03408163265306 L -95.4,45.63 L -94.8857142857143,45.21122448979592 L -94.3714285714286,44.777755102040814 L -93.85714285714288,44.32959183673469 L -93.34285714285716,43.86673469387755 L -92.82857142857144,43.38918367346939 L -92.31428571428572,42.89693877551021 L -91.80000000000001,42.39000000000001 L -91.28571428571429,41.86836734693878 L -90.77142857142859,41.33204081632653 L -90.25714285714287,40.781020408163265 L -89.74285714285716,40.215306122448986 L -89.22857142857143,39.634897959183675 L -88.71428571428572,39.039795918367346 L -88.2,38.42999999999999 L -87.6857142857143,37.805510204081635 L -87.17142857142858,37.16632653061224 L -86.65714285714287,36.51244897959184 L -86.14285714285715,35.843877551020405 L -85.62857142857145,35.16061224489796 L -85.11428571428573,34.46265306122449 L -84.60000000000001,33.75 L -84.60000000000001,33.75 L -85.11428571428573,33.03734693877551 L -85.62857142857145,32.33938775510204 L -86.14285714285715,31.656122448979595 L -86.65714285714287,30.987551020408162 L -87.17142857142858,30.333673469387758 L -87.6857142857143,29.694489795918365 L -88.2,29.07 L -88.71428571428572,28.460204081632654 L -89.22857142857143,27.865102040816325 L -89.74285714285716,27.284693877551014 L -90.25714285714287,26.718979591836735 L -90.77142857142859,26.167959183673467 L -91.28571428571429,25.631632653061224 L -91.80000000000001,25.109999999999996 L -92.31428571428572,24.603061224489792 L -92.82857142857144,24.11081632653061 L -93.34285714285716,23.633265306122446 L -93.85714285714288,23.170408163265304 L -94.3714285714286,22.722244897959182 L -94.8857142857143,22.28877551020408 L -95.4,21.869999999999997 L -95.91428571428573,21.465918367346937 L -96.42857142857144,21.076530612244895 L -96.94285714285715,20.701836734693874 L -97.45714285714286,20.34183673469387 L -97.97142857142858,19.996530612244893 L -98.48571428571431,19.665918367346933 L -99.00000000000001,19.349999999999994 L -99.51428571428573,19.048775510204077 L -100.02857142857144,18.762244897959178 L -100.54285714285716,18.490408163265304 L -101.05714285714286,18.233265306122448 L -101.57142857142858,17.99081632653061 L -102.0857142857143,17.763061224489793 L -102.60000000000002,17.549999999999997 L -103.11428571428573,17.351632653061223 L -103.62857142857145,17.167959183673467 L -104.14285714285715,16.998979591836733 L -104.65714285714287,16.844693877551016 L -105.17142857142858,16.70510204081632 L -105.6857142857143,16.580204081632647 L -106.2,16.469999999999995 L -106.71428571428572,16.374489795918365 L -107.22857142857144,16.293673469387752 L -107.74285714285716,16.22755102040816 L -108.25714285714287,16.17612244897959 L -108.77142857142859,16.13938775510204 L -109.28571428571429,16.117346938775505 L -109.80000000000001,16.109999999999996 L -127.80000000000001,16.109999999999996 L -127.80000000000001,16.109999999999996 L -127.1088,16.83 L -126.44640000000001,17.549999999999997 L -125.81280000000002,18.27 L -125.20800000000001,18.99 L -124.632,19.71 L -124.08480000000002,20.429999999999996 L -123.56640000000002,21.15 L -123.0768,21.869999999999997 L -122.61600000000001,22.589999999999996 L -122.184,23.31 L -121.78080000000001,24.03 L -121.4064,24.75 L -121.06080000000001,25.469999999999995 L -120.744,26.189999999999998 L -120.456,26.909999999999997 L -120.19680000000001,27.63 L -119.96640000000001,28.349999999999998 L -119.76480000000001,29.07 L -119.592,29.79 L -119.44800000000002,30.51 L -119.33280000000002,31.23 L -119.24640000000001,31.95 L -119.18880000000001,32.67 L -119.16000000000003,33.39 L -119.16000000000003,34.11 L -119.18880000000001,34.83 L -119.24640000000001,35.550000000000004 L -119.33280000000002,36.27 L -119.44800000000002,36.99 L -119.592,37.71 L -119.76480000000001,38.42999999999999 L -119.96640000000001,39.15 L -120.19680000000001,39.87 L -120.456,40.589999999999996 L -120.744,41.31 L -121.0608,42.03 L -121.4064,42.75 L -121.78080000000001,43.47 L -122.184,44.19 L -122.61600000000001,44.910000000000004 L -123.0768,45.63 L -123.56640000000002,46.35 L -124.08480000000002,47.07000000000001 L -124.632,47.790000000000006 L -125.20800000000003,48.510000000000005 L -125.81280000000002,49.230000000000004 L -126.44640000000001,49.95 L -127.1088,50.67000000000001 L -127.80000000000001,51.39000000000001" style="stroke:black;fill:none;stroke-width:2.0;stroke-linecap:round;stroke-linejoin:round;" /><path d="M -140.4,42.75 L -121.4064,42.75" style="stroke:black;fill:none;stroke-width:2.0;stroke-linecap:round;stroke-linejoin:round;" /><path d="M -140.4,24.75 L -121.4064,24.75" style="stroke:black;fill:none;stroke-width:2.0;stroke-linecap:round;stroke-linejoin:round;" /><path d="M -84.60000000000001,33.75 L -72.0,33.75" style="stroke:black;fill:none;stroke-width:2.0;stroke-linecap:round;stroke-linejoin:round;" /><path d="M -199.8,31.140000000000004 L -181.8,31.140000000000004 L -181.2857142857143,31.132653061224495 L -180.7714285714286,31.11061224489796 L -180.2571428571429,31.07387755102041 L -179.74285714285713,31.022448979591843 L -179.22857142857143,30.956326530612245 L -178.71428571428572,30.875510204081635 L -178.20000000000002,30.780000000000005 L -177.68571428571428,30.66979591836735 L -177.17142857142858,30.54489795918368 L -176.65714285714287,30.405306122448984 L -176.14285714285717,30.251020408163267 L -175.62857142857143,30.082040816326533 L -175.11428571428573,29.89836734693878 L -174.60000000000002,29.700000000000003 L -174.08571428571432,29.486938775510207 L -173.57142857142856,29.259183673469387 L -173.05714285714285,29.016734693877552 L -172.54285714285714,28.759591836734696 L -172.0285714285714,28.487755102040822 L -171.5142857142857,28.201224489795923 L -171.0,27.900000000000006 L -170.4857142857143,27.584081632653067 L -169.9714285714286,27.253469387755107 L -169.45714285714286,26.90816326530613 L -168.94285714285715,26.548163265306126 L -168.42857142857144,26.173469387755105 L -167.9142857142857,25.784081632653063 L -167.4,25.380000000000003 L -166.8857142857143,24.96122448979592 L -166.3714285714286,24.527755102040818 L -165.8571428571429,24.079591836734696 L -165.34285714285716,23.616734693877554 L -164.82857142857145,23.13918367346939 L -164.31428571428575,22.646938775510208 L -163.8,22.140000000000004 L -163.2857142857143,21.618367346938776 L -162.7714285714286,21.082040816326533 L -162.2571428571429,20.531020408163265 L -161.7428571428572,19.965306122448986 L -161.22857142857143,19.384897959183675 L -160.71428571428572,18.789795918367346 L -160.20000000000002,18.18 L -159.68571428571428,17.555510204081635 L -159.17142857142858,16.916326530612245 L -158.65714285714287,16.262448979591838 L -158.14285714285717,15.593877551020407 L -157.62857142857143,14.91061224489796 L -157.11428571428573,14.212653061224492 L -156.6,13.5 L -156.6,13.5 L -157.11428571428573,12.787346938775508 L -157.62857142857143,12.08938775510204 L -158.14285714285717,11.406122448979593 L -158.65714285714287,10.737551020408162 L -159.17142857142858,10.083673469387756 L -159.68571428571428,9.444489795918365 L -160.20000000000002,8.82 L -160.71428571428572,8.210204081632652 L -161.22857142857143,7.615102040816326 L -161.7428571428572,7.034693877551017 L -162.2571428571429,6.468979591836734 L -162.7714285714286,5.917959183673466 L -163.2857142857143,5.381632653061223 L -163.8,4.859999999999996 L -164.31428571428575,4.353061224489794 L -164.82857142857145,3.8608163265306104 L -165.34285714285716,3.3832653061224476 L -165.8571428571429,2.920408163265303 L -166.3714285714286,2.4722448979591816 L -166.8857142857143,2.03877551020408 L -167.4,1.6199999999999974 L -167.9142857142857,1.2159183673469354 L -168.42857142857144,0.8265306122448939 L -168.94285714285715,0.451836734693873 L -169.45714285714286,0.09183673469387466 L -169.9714285714286,-0.2534693877551051 L -170.4857142857143,-0.5840816326530642 L -171.0,-0.9000000000000028 L -171.5142857142857,-1.2012244897959208 L -172.0285714285714,-1.4877551020408202 L -172.54285714285714,-1.759591836734697 L -173.05714285714285,-2.016734693877553 L -173.57142857142856,-2.2591836734693906 L -174.08571428571432,-2.486938775510208 L -174.60000000000002,-2.7000000000000024 L -175.11428571428573,-2.8983673469387785 L -175.62857142857143,-3.0820408163265336 L -176.14285714285717,-3.251020408163268 L -176.65714285714287,-3.4053061224489825 L -177.17142857142858,-3.544897959183678 L -177.68571428571428,-3.6697959183673508 L -178.20000000000002,-3.7800000000000034 L -178.71428571428572,-3.875510204081637 L -179.22857142857143,-3.956326530612248 L -179.74285714285713,-4.022448979591841 L -180.2571428571429,-4.073877551020411 L -180.7714285714286,-4.110612244897963 L -181.2857142857143,-4.132653061224493 L -181.8,-4.140000000000004 L -199.8,-4.140000000000004 L -199.8,-4.140000000000004 L -199.1088,-3.420000000000003 L -198.4464,-2.7000000000000024 L -197.8128,-1.9800000000000018 L -197.208,-1.2600000000000011 L -196.632,-0.5400000000000005 L -196.08480000000003,0.17999999999999616 L -195.56640000000002,0.8999999999999968 L -195.0768,1.6199999999999974 L -194.616,2.339999999999998 L -194.184,3.0599999999999987 L -193.78080000000003,3.7799999999999994 L -193.40640000000002,4.5 L -193.0608,5.219999999999997 L -192.744,5.939999999999998 L -192.45600000000002,6.659999999999998 L -192.19680000000002,7.379999999999999 L -191.9664,8.1 L -191.7648,8.82 L -191.592,9.540000000000001 L -191.448,10.260000000000002 L -191.3328,10.980000000000002 L -191.2464,11.7 L -191.18880000000001,12.419999999999998 L -191.16000000000003,13.14 L -191.16000000000003,13.86 L -191.18880000000001,14.580000000000002 L -191.2464,15.3 L -191.3328,16.02 L -191.448,16.740000000000002 L -191.592,17.46 L -191.7648,18.18 L -191.9664,18.900000000000002 L -192.19680000000002,19.62 L -192.45600000000002,20.340000000000003 L -192.744,21.060000000000002 L -193.0608,21.78 L -193.40640000000002,22.5 L -193.78080000000003,23.22 L -194.184,23.94 L -194.616,24.660000000000004 L -195.0768,25.380000000000003 L -195.56640000000002,26.1 L -196.08480000000003,26.820000000000004 L -196.632,27.540000000000006 L -197.20800000000003,28.260000000000005 L -197.8128,28.980000000000004 L -198.4464,29.700000000000003 L -199.1088,30.42 L -199.8,31.140000000000004" style="stroke:black;fill:none;stroke-width:2.0;stroke-linecap:round;stroke-linejoin:round;" /><path d="M -212.4,22.5 L -193.40640000000002,22.5" style="stroke:black;fill:none;stroke-width:2.0;stroke-linecap:round;stroke-linejoin:round;" /><path d="M -212.4,4.5 L -193.40640000000002,4.5" style="stroke:black;fill:none;stroke-width:2.0;stroke-linecap:round;stroke-linejoin:round;" /><path d="M -147.96,13.5 L -144.0,13.5" style="stroke:black;fill:none;stroke-width:2.0;stroke-linecap:round;stroke-linejoin:round;" /><path d="M -140.4,24.75 L -144.0,24.75 L -144.0,13.5" style="stroke:black;fill:none;stroke-width:2;stroke-linecap:round;stroke-linejoin:round;" /><path d="M -216.0,54.0 L -196.02,54.0 M -163.98,54.0 L -144.0,54.0" style="stroke:black;fill:none;stroke-width:2.0;stroke-linecap:round;stroke-linejoin:round;" /><path d="M -196.02,36.0 L -172.62,54.0 L -196.02,72.0 L -196.02,36.0" style="stroke:black;fill:none;stroke-width:2.0;stroke-linecap:round;stroke-linejoin:round;" /><path d="M -140.4,42.75 L -144.0,42.75 L -144.0,54.0" style="stroke:black;fill:none;stroke-width:2;stroke-linecap:round;stroke-linejoin:round;" /><path d="M -68.4,55.125 L -72.0,55.125 L -72.0,33.75" style="stroke:black;fill:none;stroke-width:2;stroke-linecap:round;stroke-linejoin:round;" /><path d="M -127.80000000000001,112.14000000000001 L -109.80000000000001,112.14000000000001 L -109.28571428571429,112.13265306122449 L -108.77142857142859,112.11061224489796 L -108.25714285714287,112.07387755102042 L -107.74285714285716,112.02244897959184 L -107.22857142857144,111.95632653061224 L -106.71428571428572,111.87551020408164 L -106.2,111.78 L -105.6857142857143,111.66979591836736 L -105.17142857142858,111.54489795918369 L -104.65714285714287,111.40530612244898 L -104.14285714285715,111.25102040816327 L -103.62857142857145,111.08204081632653 L -103.11428571428573,110.89836734693878 L -102.60000000000002,110.7 L -102.0857142857143,110.4869387755102 L -101.57142857142858,110.2591836734694 L -101.05714285714286,110.01673469387754 L -100.54285714285716,109.75959183673469 L -100.02857142857144,109.48775510204082 L -99.51428571428573,109.20122448979592 L -99.00000000000001,108.89999999999999 L -98.48571428571431,108.58408163265305 L -97.97142857142858,108.2534693877551 L -97.45714285714286,107.90816326530613 L -96.94285714285715,107.54816326530612 L -96.42857142857144,107.17346938775509 L -95.91428571428573,106.78408163265307 L -95.4,106.38 L -94.8857142857143,105.96122448979592 L -94.3714285714286,105.52775510204083 L -93.85714285714288,105.07959183673469 L -93.34285714285716,104.61673469387755 L -92.82857142857144,104.13918367346939 L -92.31428571428572,103.64693877551021 L -91.80000000000001,103.14000000000001 L -91.28571428571429,102.61836734693878 L -90.77142857142859,102.08204081632653 L -90.25714285714287,101.53102040816326 L -89.74285714285716,100.96530612244898 L -89.22857142857143,100.38489795918366 L -88.71428571428572,99.78979591836735 L -88.2,99.17999999999999 L -87.6857142857143,98.55551020408163 L -87.17142857142858,97.91632653061224 L -86.65714285714287,97.26244897959184 L -86.14285714285715,96.5938775510204 L -85.62857142857145,95.91061224489796 L -85.11428571428573,95.21265306122449 L -84.60000000000001,94.5 L -84.60000000000001,94.5 L -85.11428571428573,93.78734693877551 L -85.62857142857145,93.08938775510204 L -86.14285714285715,92.4061224489796 L -86.65714285714287,91.73755102040816 L -87.17142857142858,91.08367346938776 L -87.6857142857143,90.44448979591837 L -88.2,89.82000000000001 L -88.71428571428572,89.21020408163265 L -89.22857142857143,88.61510204081634 L -89.74285714285716,88.03469387755102 L -90.25714285714287,87.46897959183674 L -90.77142857142859,86.91795918367347 L -91.28571428571429,86.38163265306122 L -91.80000000000001,85.85999999999999 L -92.31428571428572,85.35306122448979 L -92.82857142857144,84.86081632653061 L -93.34285714285716,84.38326530612245 L -93.85714285714288,83.92040816326531 L -94.3714285714286,83.47224489795917 L -94.8857142857143,83.03877551020408 L -95.4,82.62 L -95.91428571428573,82.21591836734693 L -96.42857142857144,81.82653061224491 L -96.94285714285715,81.45183673469388 L -97.45714285714286,81.09183673469387 L -97.97142857142858,80.7465306122449 L -98.48571428571431,80.41591836734695 L -99.00000000000001,80.10000000000001 L -99.51428571428573,79.79877551020408 L -100.02857142857144,79.51224489795918 L -100.54285714285716,79.24040816326531 L -101.05714285714286,78.98326530612246 L -101.57142857142858,78.7408163265306 L -102.0857142857143,78.5130612244898 L -102.60000000000002,78.3 L -103.11428571428573,78.10163265306122 L -103.62857142857145,77.91795918367347 L -104.14285714285715,77.74897959183673 L -104.65714285714287,77.59469387755102 L -105.17142857142858,77.45510204081631 L -105.6857142857143,77.33020408163264 L -106.2,77.22 L -106.71428571428572,77.12448979591836 L -107.22857142857144,77.04367346938776 L -107.74285714285716,76.97755102040816 L -108.25714285714287,76.92612244897958 L -108.77142857142859,76.88938775510204 L -109.28571428571429,76.86734693877551 L -109.80000000000001,76.85999999999999 L -127.80000000000001,76.85999999999999 L -127.80000000000001,76.85999999999999 L -127.1088,77.58 L -126.44640000000001,78.3 L -125.81280000000002,79.02 L -125.20800000000001,79.74 L -124.632,80.46 L -124.08480000000002,81.17999999999999 L -123.56640000000002,81.89999999999999 L -123.0768,82.62 L -122.61600000000001,83.34 L -122.184,84.06 L -121.78080000000001,84.78 L -121.4064,85.5 L -121.06080000000001,86.22 L -120.744,86.94 L -120.456,87.66 L -120.19680000000001,88.38 L -119.96640000000001,89.10000000000001 L -119.76480000000001,89.82000000000001 L -119.592,90.54 L -119.44800000000002,91.26 L -119.33280000000002,91.98 L -119.24640000000001,92.7 L -119.18880000000001,93.41999999999999 L -119.16000000000003,94.14000000000001 L -119.16000000000003,94.85999999999999 L -119.18880000000001,95.58000000000001 L -119.24640000000001,96.3 L -119.33280000000002,97.02 L -119.44800000000002,97.74 L -119.592,98.46 L -119.76480000000001,99.17999999999999 L -119.96640000000001,99.89999999999999 L -120.19680000000001,100.62 L -120.456,101.34 L -120.744,102.06 L -121.0608,102.78 L -121.4064,103.5 L -121.78080000000001,104.22 L -122.184,104.94 L -122.61600000000001,105.66 L -123.0768,106.38 L -123.56640000000002,107.10000000000001 L -124.08480000000002,107.82000000000001 L -124.632,108.54 L -125.20800000000003,109.26 L -125.81280000000002,109.98 L -126.44640000000001,110.7 L -127.1088,111.42 L -127.80000000000001,112.14000000000001" style="stroke:black;fill:none;stroke-width:2.0;stroke-linecap:round;stroke-linejoin:round;" /><path d="M -133.20000000000002,112.14000000000001 L -132.5088,111.42 L -131.84640000000002,110.7 L -131.21280000000002,109.98 L -130.608,109.26 L -130.032,108.54 L -129.4848,107.82000000000001 L -128.96640000000002,107.10000000000001 L -128.47680000000003,106.38 L -128.016,105.66 L -127.58400000000002,104.94 L -127.18080000000002,104.22 L -126.80640000000001,103.5 L -126.4608,102.78 L -126.14400000000002,102.06 L -125.85600000000002,101.34 L -125.59680000000002,100.62 L -125.3664,99.89999999999999 L -125.16480000000001,99.17999999999999 L -124.99200000000002,98.46 L -124.84800000000001,97.74 L -124.73280000000001,97.02 L -124.6464,96.3 L -124.5888,95.58000000000001 L -124.56000000000002,94.85999999999999 L -124.56000000000002,94.14000000000001 L -124.5888,93.41999999999999 L -124.6464,92.7 L -124.73280000000001,91.98 L -124.84800000000001,91.26 L -124.99200000000002,90.54 L -125.16480000000001,89.82000000000001 L -125.3664,89.10000000000001 L -125.59680000000002,88.38 L -125.85600000000002,87.66 L -126.14400000000002,86.94 L -126.4608,86.22 L -126.80640000000001,85.5 L -127.18080000000002,84.78 L -127.58400000000002,84.06 L -128.016,83.34 L -128.47680000000003,82.62 L -128.96640000000002,81.89999999999999 L -129.4848,81.17999999999999 L -130.032,80.46 L -130.608,79.74 L -131.21280000000002,79.02 L -131.84640000000002,78.3 L -132.5088,77.58 L -133.20000000000002,76.85999999999999" style="stroke:black;fill:none;stroke-width:2.0;stroke-linecap:round;stroke-linejoin:round;" /><path d="M -140.4,103.5 L -126.80640000000001,103.5" style="stroke:black;fill:none;stroke-width:2.0;stroke-linecap:round;stroke-linejoin:round;" /><path d="M -140.4,85.5 L -126.80640000000001,85.5" style="stroke:black;fill:none;stroke-width:2.0;stroke-linecap:round;stroke-linejoin:round;" /><path d="M -84.60000000000001,94.5 L -72.0,94.5" style="stroke:black;fill:none;stroke-width:2.0;stroke-linecap:round;stroke-linejoin:round;" /><path d="M -68.4,73.125 L -72.0,73.125 L -72.0,94.5" style="stroke:black;fill:none;stroke-width:2;stroke-linecap:round;stroke-linejoin:round;" /><text x="3.600000000000003" y="58.52499999999999" fill="black" font-size="14.0" font-family="sans" text-anchor="start"><tspan x="3.600000000000003" dy="14.0">\text{Output}</tspan></text><text x="-216.0" y="-1.0999999999999996" fill="black" font-size="14.0" font-family="sans" text-anchor="end"><tspan x="-216.0" dy="14.0">c</tspan></text><text x="-216.0" y="16.9" fill="black" font-size="14.0" font-family="sans" text-anchor="end"><tspan x="-216.0" dy="14.0">d</tspan></text><text x="-219.6" y="48.4" fill="black" font-size="14.0" font-family="sans" text-anchor="end"><tspan x="-219.6" dy="14.0">a</tspan></text><text x="-144.0" y="79.89999999999999" fill="black" font-size="14.0" font-family="sans" text-anchor="end"><tspan x="-144.0" dy="14.0">b</tspan></text><text x="-144.0" y="97.89999999999999" fill="black" font-size="14.0" font-family="sans" text-anchor="end"><tspan x="-144.0" dy="14.0">b</tspan></text></svg>